M48
;Layer_Color=9474304
;FILE_FORMAT=4:4
METRIC,LZ
;TYPE=PLATED
T1F00S00C0.7112
T2F00S00C0.9000
T3F00S00C3.1000
%
T01
X0006731Y0008509
X00062063Y00115835
X0008001Y0011557
X0010922Y0011049
X0013843Y0013081
X0012446Y0006223
X0020447Y0005969
X0022479Y0010795
X0022987Y0012827
X0027432Y0009652
X00320548Y00078232
X0034163Y0008128
X00373579Y00078541
X00390197Y00088551
X00383617Y00120573
X0037592Y000508
X0038608Y0021463
X00387956Y00366139
X0033655Y0034798
X0032004Y0035941
X0023495Y003765
X0020574Y0036195
X0021844Y0034925
X0024003Y0032131
X0025342Y00313384
X0020955Y0028448
X00131826Y00297688
X0014097Y0032258
X0013843Y0035814
X000635Y00381
X0005842Y0033147
X0007366Y0018542
X00130302Y00209804
X0027813Y0016891
X0043688Y0009398
X0044577Y002413
X0046101Y0023114
X0042545Y0031496
X00401699Y00376684
X0048133Y0034798
X0045339Y004318
X0039878Y0041783
X00359909Y00401827
X0028702Y0041529
X00168779Y00418083
X0011938Y0042291
T02
X0005715Y0003048
Y0005588
X0012827Y0002794
X0015367
X0017907
X0020447
X0022987
X0025527
X0028067
X0030607
X0033147
X0035687
X0030099Y0006223
X0027559
X0015113Y00254
X0012573
X000889
X000635
T03
X0002159Y0002159
X0048133Y0002032
X0047879Y0042164
X0002286Y0042418
M30
