G04*
G04 #@! TF.GenerationSoftware,Altium Limited,Altium Designer,22.8.2 (66)*
G04*
G04 Layer_Physical_Order=1*
G04 Layer_Color=255*
%FSLAX44Y44*%
%MOMM*%
G71*
G04*
G04 #@! TF.SameCoordinates,219079CE-D9F2-4F20-8337-977AF1FC8BC2*
G04*
G04*
G04 #@! TF.FilePolarity,Positive*
G04*
G01*
G75*
%ADD13C,0.2540*%
%ADD15R,0.9000X0.8000*%
%ADD16R,1.5250X0.6500*%
G04:AMPARAMS|DCode=17|XSize=1.47mm|YSize=0.28mm|CornerRadius=0.035mm|HoleSize=0mm|Usage=FLASHONLY|Rotation=270.000|XOffset=0mm|YOffset=0mm|HoleType=Round|Shape=RoundedRectangle|*
%AMROUNDEDRECTD17*
21,1,1.4700,0.2100,0,0,270.0*
21,1,1.4000,0.2800,0,0,270.0*
1,1,0.0700,-0.1050,-0.7000*
1,1,0.0700,-0.1050,0.7000*
1,1,0.0700,0.1050,0.7000*
1,1,0.0700,0.1050,-0.7000*
%
%ADD17ROUNDEDRECTD17*%
%ADD18R,0.8000X0.9000*%
%ADD19R,2.0000X0.6000*%
%ADD20R,0.2794X1.3335*%
%ADD21R,1.2000X1.4000*%
%ADD22R,1.4000X1.2000*%
%ADD23R,0.5000X1.0750*%
%ADD37R,1.5000X1.5000*%
%ADD38C,1.5000*%
%ADD39C,1.5240*%
%ADD40R,1.5000X1.5000*%
%ADD41C,1.2700*%
G36*
X15112Y440615D02*
X373399D01*
X374460Y440110D01*
X374460Y439345D01*
Y426030D01*
X387540D01*
Y429185D01*
X406911D01*
X409302Y426795D01*
X408776Y425525D01*
X405339D01*
X403853Y425229D01*
X403803Y425196D01*
X402211Y426114D01*
X399950Y426720D01*
X397610D01*
X395349Y426114D01*
X393321Y424944D01*
X391666Y423289D01*
X390496Y421261D01*
X389890Y419000D01*
Y416660D01*
X390496Y414399D01*
X391666Y412371D01*
X393321Y410716D01*
X395349Y409546D01*
X397610Y408940D01*
X399950D01*
X402211Y409546D01*
X404239Y410716D01*
X405894Y412371D01*
X407064Y414399D01*
X407670Y416660D01*
Y417755D01*
X410183D01*
Y414460D01*
X410408Y413332D01*
X411046Y412376D01*
X412002Y411738D01*
X413130Y411513D01*
X415230D01*
X416358Y411738D01*
X417314Y412376D01*
X417952Y413332D01*
X418177Y414460D01*
Y428460D01*
X417952Y429588D01*
X417314Y430544D01*
X416358Y431182D01*
X415788Y431296D01*
X411267Y435817D01*
X410007Y436659D01*
X408520Y436955D01*
X388438D01*
X387540Y437853D01*
X387540Y440110D01*
X388601Y440615D01*
X448339D01*
X448679Y439345D01*
X447931Y438914D01*
X446646Y437629D01*
X431204D01*
X429717Y437333D01*
X428457Y436491D01*
X426433Y434467D01*
X425591Y433207D01*
X425481Y432652D01*
X425230Y431407D01*
X423130D01*
X422002Y431182D01*
X421046Y430544D01*
X420408Y429588D01*
X420183Y428460D01*
Y414460D01*
X420408Y413332D01*
X420591Y413058D01*
X420721Y412403D01*
X421563Y411143D01*
X443155Y389551D01*
Y249803D01*
X442339Y249584D01*
X440311Y248414D01*
X438656Y246759D01*
X437486Y244731D01*
X436880Y242470D01*
Y240130D01*
X437486Y237869D01*
X438656Y235841D01*
X440311Y234186D01*
X442339Y233016D01*
X444600Y232410D01*
X446940D01*
X449201Y233016D01*
X451229Y234186D01*
X451337Y234294D01*
X452476Y233637D01*
X452120Y232310D01*
Y229970D01*
X452726Y227709D01*
X453896Y225681D01*
X455551Y224026D01*
X457579Y222856D01*
X459840Y222250D01*
X462180D01*
X464441Y222856D01*
X466469Y224026D01*
X468124Y225681D01*
X469294Y227709D01*
X469900Y229970D01*
Y232310D01*
X469294Y234571D01*
X468124Y236599D01*
X466469Y238254D01*
X464895Y239163D01*
Y394630D01*
X464599Y396117D01*
X463757Y397377D01*
X440649Y420485D01*
X439389Y421327D01*
X438177Y421568D01*
Y428460D01*
X438151Y428589D01*
X439182Y429859D01*
X444706D01*
X445106Y428369D01*
X446276Y426341D01*
X447931Y424686D01*
X449959Y423516D01*
X452220Y422910D01*
X454560D01*
X456821Y423516D01*
X458849Y424686D01*
X460504Y426341D01*
X461674Y428369D01*
X462280Y430630D01*
Y432970D01*
X461674Y435231D01*
X460504Y437259D01*
X458849Y438914D01*
X458101Y439345D01*
X458441Y440615D01*
X488642D01*
X488720Y440631D01*
X491010Y440330D01*
X493217Y439416D01*
X495112Y437962D01*
X496566Y436067D01*
X497480Y433860D01*
X497781Y431570D01*
X497765Y431492D01*
X497765Y13008D01*
X497781Y12930D01*
X497480Y10640D01*
X496566Y8433D01*
X495112Y6539D01*
X493217Y5084D01*
X491010Y4171D01*
X488720Y3869D01*
X488642Y3885D01*
X15112D01*
X14978Y3858D01*
X12194Y4225D01*
X9476Y5351D01*
X7142Y7142D01*
X5351Y9476D01*
X4225Y12194D01*
X3858Y14978D01*
X3885Y15112D01*
X3885Y429388D01*
X3858Y429522D01*
X4225Y432305D01*
X5351Y435024D01*
X7142Y437358D01*
X9476Y439149D01*
X12194Y440275D01*
X14978Y440642D01*
X15112Y440615D01*
D02*
G37*
%LPC*%
G36*
X169950Y426973D02*
X167609D01*
X165348Y426367D01*
X163321Y425197D01*
X161666Y423542D01*
X160495Y421514D01*
X159889Y419253D01*
Y416913D01*
X160495Y414652D01*
X161666Y412624D01*
X163321Y410969D01*
X165348Y409799D01*
X167609Y409193D01*
X169950D01*
X172211Y409799D01*
X174238Y410969D01*
X175329Y412060D01*
X186230D01*
Y426140D01*
X173150D01*
X173150Y426140D01*
Y426140D01*
X171949Y426437D01*
X169950Y426973D01*
D02*
G37*
G36*
X120550Y431800D02*
X118210D01*
X115949Y431194D01*
X113921Y430024D01*
X112266Y428369D01*
X111096Y426341D01*
X110490Y424080D01*
Y421740D01*
X111096Y419479D01*
X112266Y417451D01*
X113921Y415796D01*
X115949Y414626D01*
X117931Y414095D01*
X117764Y412825D01*
X101600D01*
X100113Y412529D01*
X98853Y411687D01*
X90293Y403127D01*
X89120Y403613D01*
Y404550D01*
X76040D01*
Y404550D01*
X75120D01*
Y404550D01*
X62040D01*
Y400164D01*
X59729D01*
X58243Y399868D01*
X56982Y399026D01*
X48053Y390097D01*
X47211Y388837D01*
X46915Y387350D01*
Y372260D01*
X47211Y370774D01*
X48053Y369514D01*
X52650Y364917D01*
Y357330D01*
X63896D01*
X65833Y355393D01*
X67093Y354551D01*
X68580Y354255D01*
X84280D01*
Y342593D01*
X83499Y341875D01*
X83202Y341748D01*
X83010Y341748D01*
X74465D01*
X74090Y341822D01*
X73716Y341748D01*
X70280D01*
Y338313D01*
X70206Y337937D01*
X70280Y337562D01*
Y335355D01*
X66442D01*
X65534Y336929D01*
X63879Y338584D01*
X61851Y339754D01*
X59590Y340360D01*
X57250D01*
X54989Y339754D01*
X52961Y338584D01*
X51306Y336929D01*
X50136Y334901D01*
X49530Y332640D01*
Y330300D01*
X50136Y328039D01*
X51306Y326011D01*
X52961Y324356D01*
X54989Y323186D01*
X57250Y322580D01*
X59590D01*
X60532Y322832D01*
X61540Y322059D01*
Y311340D01*
X61540Y310991D01*
Y310070D01*
X61540Y309720D01*
Y296990D01*
X75620D01*
Y299645D01*
X79359D01*
X80846Y299941D01*
X82106Y300783D01*
X85766Y304443D01*
X86939Y303957D01*
Y297610D01*
X93875D01*
Y292790D01*
X91220D01*
Y278710D01*
X104300D01*
Y278710D01*
X105220D01*
Y278710D01*
X118300D01*
Y281865D01*
X119888D01*
X121375Y282161D01*
X122635Y283003D01*
X128900Y289268D01*
X130656Y288798D01*
X132996D01*
X135257Y289404D01*
X137285Y290574D01*
X138940Y292229D01*
X140110Y294257D01*
X140716Y296518D01*
Y298858D01*
X140110Y301119D01*
X138940Y303147D01*
X137285Y304802D01*
X135257Y305972D01*
X132996Y306578D01*
X130656D01*
X128395Y305972D01*
X126756Y305026D01*
X125486Y305581D01*
Y309387D01*
X125486D01*
Y310507D01*
X125486D01*
Y321936D01*
X125486Y322087D01*
Y323206D01*
X125486Y323357D01*
Y334636D01*
X125486Y334786D01*
X125486D01*
Y335907D01*
X125486D01*
Y339792D01*
X127170D01*
X128656Y340088D01*
X129917Y340930D01*
X138134Y349147D01*
X138203Y349250D01*
X139600D01*
X141861Y349856D01*
X143889Y351026D01*
X145544Y352681D01*
X146714Y354709D01*
X147320Y356970D01*
Y359310D01*
X146714Y361571D01*
X145544Y363599D01*
X143889Y365254D01*
X141861Y366424D01*
X139600Y367030D01*
X137260D01*
X134999Y366424D01*
X132971Y365254D01*
X131316Y363599D01*
X130146Y361571D01*
X129540Y359310D01*
Y356970D01*
X130146Y354709D01*
X131084Y353084D01*
X126756Y348757D01*
X125486Y349283D01*
Y360037D01*
X125486Y360187D01*
X125486D01*
Y361307D01*
X125486D01*
Y363997D01*
X126755Y364249D01*
X128015Y365091D01*
X131017Y368093D01*
X131859Y369353D01*
X132155Y370840D01*
Y387093D01*
X131933Y388205D01*
X131859Y388579D01*
X131859Y388579D01*
X131859Y388579D01*
X131469Y389163D01*
X131017Y389840D01*
X130290Y390567D01*
X130776Y391740D01*
X140540D01*
Y394895D01*
X145830D01*
Y391740D01*
X158560D01*
X158910Y391740D01*
X159830D01*
X160180Y391740D01*
X172910D01*
Y394895D01*
X186616D01*
Y385454D01*
X186014Y384399D01*
X185920Y384380D01*
X183461D01*
Y383681D01*
X179726D01*
Y385587D01*
X159396D01*
Y374007D01*
X159396D01*
Y372887D01*
X159396D01*
Y361306D01*
X179726D01*
Y363212D01*
X183461D01*
Y357300D01*
X184103D01*
X184730Y356290D01*
X184730Y356030D01*
Y342210D01*
X184730D01*
Y341050D01*
X184730D01*
Y333030D01*
X184598Y332881D01*
X179726D01*
Y334636D01*
X179726Y334787D01*
Y335906D01*
X179726Y336057D01*
Y347487D01*
X159396D01*
Y345548D01*
X159093D01*
X157606Y345252D01*
X156346Y344410D01*
X143138Y331203D01*
X142140Y331470D01*
X139800D01*
X137539Y330864D01*
X135511Y329694D01*
X133856Y328039D01*
X132686Y326011D01*
X132080Y323750D01*
Y321410D01*
X132686Y319149D01*
X133856Y317121D01*
X135511Y315466D01*
X137539Y314296D01*
X139800Y313690D01*
X142140D01*
X144401Y314296D01*
X146429Y315466D01*
X148084Y317121D01*
X149254Y319149D01*
X149860Y321410D01*
Y323750D01*
X149254Y326011D01*
X149137Y326214D01*
X158421Y335498D01*
X159396Y334677D01*
Y323357D01*
X159396Y323206D01*
Y322087D01*
X159396Y321936D01*
Y310507D01*
X159396D01*
Y309387D01*
X159396D01*
Y297806D01*
X179726D01*
Y299712D01*
X184730D01*
Y296340D01*
X193317D01*
X201441Y288215D01*
X201266Y287911D01*
X200660Y285650D01*
Y283310D01*
X201266Y281049D01*
X202436Y279021D01*
X204091Y277366D01*
X206119Y276196D01*
X208380Y275590D01*
X210720D01*
X212981Y276196D01*
X215009Y277366D01*
X216664Y279021D01*
X217834Y281049D01*
X218440Y283310D01*
Y285650D01*
X217834Y287911D01*
X216664Y289939D01*
X215009Y291594D01*
X212981Y292764D01*
X210720Y293370D01*
X208380D01*
X207507Y293136D01*
X205477Y295166D01*
X205963Y296340D01*
X214050D01*
Y309070D01*
X214050Y309420D01*
X214050D01*
Y310340D01*
X214050D01*
Y323420D01*
X210895D01*
Y326970D01*
X211810D01*
Y329430D01*
X211829Y329524D01*
X211810Y329624D01*
Y333355D01*
X214030D01*
X215517Y333651D01*
X216777Y334493D01*
X219243Y336959D01*
X220085Y338219D01*
X220381Y339706D01*
Y340566D01*
X221871Y340966D01*
X223899Y342136D01*
X225554Y343791D01*
X226724Y345819D01*
X227330Y348080D01*
Y350420D01*
X226724Y352681D01*
X225554Y354709D01*
X224082Y356180D01*
X224342Y357450D01*
X226250D01*
Y357450D01*
X227170D01*
Y357450D01*
X238980D01*
X239604Y357450D01*
X239870Y356290D01*
X239870Y356200D01*
X239870Y355287D01*
Y342975D01*
X239158D01*
X237672Y342679D01*
X236411Y341837D01*
X220773Y326199D01*
X219931Y324938D01*
X219635Y323452D01*
Y323420D01*
X216480D01*
Y310690D01*
X216480Y310340D01*
Y309420D01*
X216480Y309070D01*
Y296340D01*
X224566D01*
X227774Y293133D01*
X229034Y292291D01*
X230521Y291995D01*
X232990D01*
Y289340D01*
X247070D01*
Y291995D01*
X259660D01*
Y287450D01*
X273630D01*
X273740Y287450D01*
X274900Y287185D01*
Y286181D01*
X288980D01*
Y293767D01*
X297255Y302042D01*
X298097Y303302D01*
X298393Y304788D01*
Y305792D01*
X302271D01*
X302523Y304524D01*
X302840Y304050D01*
X303365Y303264D01*
X314735Y291893D01*
X315996Y291051D01*
X317482Y290755D01*
X323660D01*
Y287600D01*
X336389D01*
X336740Y287600D01*
X337659D01*
X338009Y287600D01*
X350740D01*
Y290755D01*
X376570D01*
X378056Y291051D01*
X379317Y291893D01*
X390114Y302690D01*
X398200D01*
Y305346D01*
X400057D01*
Y302690D01*
X414137D01*
Y312345D01*
X416947D01*
X417166Y311529D01*
X418336Y309501D01*
X419991Y307846D01*
X422019Y306676D01*
X424280Y306070D01*
X426620D01*
X428881Y306676D01*
X430909Y307846D01*
X432564Y309501D01*
X433734Y311529D01*
X434340Y313790D01*
Y316130D01*
X433734Y318391D01*
X432564Y320419D01*
X430909Y322074D01*
X428881Y323244D01*
X426620Y323850D01*
X424280D01*
X422019Y323244D01*
X419991Y322074D01*
X418336Y320419D01*
X418161Y320115D01*
X414137D01*
Y329770D01*
X400057D01*
Y327115D01*
X398200D01*
Y329770D01*
X391755D01*
X391519Y330956D01*
X390677Y332217D01*
X382960Y339934D01*
Y347520D01*
X368880D01*
Y340867D01*
X365268D01*
Y342622D01*
X365268Y342772D01*
Y343892D01*
X365268Y344042D01*
Y355472D01*
X344938D01*
Y353771D01*
X343668Y353431D01*
X343664Y353439D01*
X342009Y355094D01*
X340435Y356003D01*
Y391228D01*
X349831Y400624D01*
X351154Y400151D01*
X351541Y398708D01*
X351191Y398185D01*
X350895Y396698D01*
Y393572D01*
X344938D01*
Y381992D01*
X344938D01*
Y380872D01*
X344938D01*
Y369292D01*
X365268D01*
Y371198D01*
X378272D01*
X379258Y371394D01*
X380098Y370309D01*
X379672Y369570D01*
X379066Y367309D01*
Y364968D01*
X379672Y362707D01*
X380842Y360680D01*
X382497Y359025D01*
X384524Y357854D01*
X386786Y357249D01*
X389126D01*
X391387Y357854D01*
X393414Y359025D01*
X395070Y360680D01*
X396240Y362707D01*
X396846Y364968D01*
Y367309D01*
X396670Y367967D01*
X397677Y368740D01*
X398267Y368400D01*
X400485Y367805D01*
X400896Y367191D01*
X409520Y358566D01*
Y350980D01*
X423600D01*
Y354255D01*
X426030D01*
Y351600D01*
X440110D01*
Y364680D01*
X438065D01*
Y370897D01*
X438177Y371460D01*
Y385460D01*
X437952Y386588D01*
X437314Y387544D01*
X436358Y388182D01*
X435230Y388407D01*
X433130D01*
X432002Y388182D01*
X431995Y388177D01*
X431797Y388474D01*
X418094Y402177D01*
X416833Y403019D01*
X415347Y403315D01*
X393617D01*
Y405970D01*
X379537D01*
Y403315D01*
X370803D01*
X370003Y403156D01*
X369283Y403061D01*
X368525Y404018D01*
X368193Y405258D01*
X367023Y407286D01*
X365367Y408941D01*
X363340Y410111D01*
X361079Y410717D01*
X358739D01*
X356477Y410111D01*
X355054Y409290D01*
X353784Y410000D01*
Y412060D01*
X356440D01*
Y426140D01*
X343360D01*
Y412060D01*
X346015D01*
Y407796D01*
X333803Y395584D01*
X332961Y394324D01*
X332665Y392837D01*
Y356003D01*
X331091Y355094D01*
X329436Y353439D01*
X328266Y351411D01*
X327660Y349150D01*
Y346810D01*
X328266Y344549D01*
X329436Y342521D01*
X331091Y340866D01*
X333119Y339696D01*
X335380Y339090D01*
X337720D01*
X339981Y339696D01*
X342009Y340866D01*
X343664Y342521D01*
X343668Y342529D01*
X344938Y342189D01*
Y331192D01*
X344938D01*
Y330072D01*
X344938D01*
Y318492D01*
X344938D01*
Y317372D01*
X344938D01*
Y305792D01*
X365268D01*
Y307698D01*
X367610D01*
Y302690D01*
X377467D01*
X377953Y301517D01*
X374961Y298525D01*
X350740D01*
Y301680D01*
X338009D01*
X337659Y301680D01*
X336740D01*
X336389Y301680D01*
X323660D01*
Y298525D01*
X319091D01*
X311028Y306588D01*
Y317372D01*
X311028D01*
Y318492D01*
X311028D01*
Y330072D01*
X311028Y330072D01*
Y331192D01*
X311028D01*
X311028Y331342D01*
Y342772D01*
X311028D01*
Y343892D01*
X311028D01*
Y346080D01*
X311974Y346268D01*
X313234Y347110D01*
X317114Y350990D01*
X318870Y350520D01*
X321210D01*
X323471Y351126D01*
X325499Y352296D01*
X327154Y353951D01*
X328324Y355979D01*
X328930Y358240D01*
Y360580D01*
X328324Y362841D01*
X327154Y364869D01*
X325499Y366524D01*
X323925Y367433D01*
Y400050D01*
X323629Y401537D01*
X322787Y402797D01*
X311960Y413624D01*
Y414518D01*
X311979Y414610D01*
X311960Y414711D01*
Y426140D01*
X298880D01*
Y412060D01*
X303808D01*
X304020Y410995D01*
X304862Y409734D01*
X316155Y398441D01*
Y367433D01*
X314581Y366524D01*
X312926Y364869D01*
X312298Y363780D01*
X311028Y364121D01*
Y368172D01*
X311028D01*
Y369292D01*
X311028D01*
Y380872D01*
X311028D01*
Y381992D01*
X311028D01*
Y393572D01*
X303397D01*
X303287Y393737D01*
X292940Y404084D01*
Y408637D01*
X294134Y409831D01*
X295304Y411859D01*
X295910Y414120D01*
Y416460D01*
X295304Y418721D01*
X294134Y420749D01*
X292479Y422404D01*
X290451Y423574D01*
X288190Y424180D01*
X285850D01*
X283589Y423574D01*
X281561Y422404D01*
X279906Y420749D01*
X278736Y418721D01*
X278130Y416460D01*
Y414120D01*
X278382Y413178D01*
X277609Y412170D01*
X265860D01*
Y398090D01*
X268515D01*
Y386770D01*
X264456D01*
X258575Y392651D01*
Y394130D01*
X258500Y394505D01*
Y403050D01*
X258500Y403400D01*
Y404320D01*
X258500Y404670D01*
Y417400D01*
X244420D01*
Y414744D01*
X207660D01*
X206173Y414449D01*
X204913Y413607D01*
X193971Y402665D01*
X172910D01*
Y405820D01*
X160180D01*
X159830Y405820D01*
X158910D01*
X158560Y405820D01*
X145830D01*
Y402665D01*
X140540D01*
Y405820D01*
X137618D01*
X137589Y405967D01*
X136747Y407227D01*
X134357Y409617D01*
X134843Y410790D01*
X145590D01*
Y420288D01*
X145665Y420666D01*
X145590Y421044D01*
Y424870D01*
X136695D01*
X136320Y424945D01*
X128038D01*
X127664Y426341D01*
X126494Y428369D01*
X124839Y430024D01*
X122811Y431194D01*
X120550Y431800D01*
D02*
G37*
G36*
X152452Y264040D02*
X149808D01*
X147255Y263356D01*
X144965Y262034D01*
X143096Y260165D01*
X141774Y257875D01*
X141090Y255322D01*
Y252678D01*
X141774Y250125D01*
X143096Y247835D01*
X144965Y245966D01*
X147255Y244644D01*
X149808Y243960D01*
X152452D01*
X155005Y244644D01*
X157295Y245966D01*
X159164Y247835D01*
X160486Y250125D01*
X161170Y252678D01*
Y255322D01*
X160486Y257875D01*
X159164Y260165D01*
X157295Y262034D01*
X155005Y263356D01*
X152452Y264040D01*
D02*
G37*
G36*
X135770D02*
X115690D01*
Y243960D01*
X135770D01*
Y264040D01*
D02*
G37*
G36*
X98940D02*
X78860D01*
Y243960D01*
X98940D01*
Y264040D01*
D02*
G37*
G36*
X64822D02*
X62178D01*
X59625Y263356D01*
X57335Y262034D01*
X55466Y260165D01*
X54144Y257875D01*
X53460Y255322D01*
Y252678D01*
X54144Y250125D01*
X55466Y247835D01*
X57335Y245966D01*
X59625Y244644D01*
X61916Y244030D01*
Y242690D01*
X62211Y241203D01*
X63053Y239943D01*
X75390Y227606D01*
Y219020D01*
X79935D01*
Y215470D01*
X76780D01*
Y212815D01*
X72786D01*
X71300Y212519D01*
X70039Y211677D01*
X69257Y210895D01*
X66730D01*
Y213550D01*
X52650D01*
Y200820D01*
X52650Y200470D01*
Y199550D01*
X52650Y199200D01*
Y186470D01*
X53187D01*
X54073Y185200D01*
X53915Y184404D01*
Y182300D01*
X51260D01*
Y168220D01*
X64340D01*
Y181183D01*
X64340Y181243D01*
X64854Y181381D01*
X65990Y180925D01*
X66546Y179961D01*
X68201Y178306D01*
X70229Y177136D01*
X72490Y176530D01*
X74830D01*
X77091Y177136D01*
X79119Y178306D01*
X80774Y179961D01*
X81944Y181989D01*
X82550Y184250D01*
Y186590D01*
X82338Y187383D01*
X83111Y188390D01*
X90860D01*
Y201120D01*
X90860Y201470D01*
Y202390D01*
X90860Y202740D01*
Y205046D01*
X113070D01*
Y204365D01*
X115544D01*
X115640Y204346D01*
X115737Y204365D01*
X123150D01*
X124053Y203480D01*
X124843Y202690D01*
X126871Y201520D01*
X129132Y200914D01*
X131472D01*
X133228Y201384D01*
X144789Y189823D01*
X144303Y188650D01*
X138882D01*
Y179255D01*
X138807Y178880D01*
Y139700D01*
X137260D01*
X134999Y139094D01*
X132971Y137924D01*
X131316Y136269D01*
X130146Y134241D01*
X129540Y131980D01*
Y129640D01*
X130146Y127379D01*
X131316Y125351D01*
X132971Y123696D01*
X134999Y122526D01*
X137260Y121920D01*
X139600D01*
X141861Y122526D01*
X143889Y123696D01*
X145544Y125351D01*
X146714Y127379D01*
X147320Y129640D01*
Y131980D01*
X146714Y134241D01*
X146002Y135474D01*
X146281Y135891D01*
X146577Y137378D01*
Y174570D01*
X148261D01*
Y152146D01*
X148557Y150659D01*
X149399Y149399D01*
X153913Y144885D01*
X153710Y143615D01*
X153710D01*
Y141141D01*
X153691Y141045D01*
X153710Y140948D01*
Y140797D01*
X153707Y140758D01*
X153710Y140747D01*
Y130601D01*
X153699Y130562D01*
X153710Y130467D01*
Y130433D01*
X153691Y130331D01*
X153710Y130239D01*
Y129994D01*
X138507Y114791D01*
X137665Y113531D01*
X137450Y112450D01*
X132540D01*
Y98370D01*
X132540D01*
X132369Y97623D01*
X131270Y97210D01*
X130350D01*
Y97210D01*
X117270D01*
Y83130D01*
X117270D01*
Y81970D01*
X117270D01*
Y67890D01*
X117270Y67890D01*
X116834Y66801D01*
X116176Y65661D01*
X115570Y63400D01*
Y61060D01*
X116176Y58799D01*
X117346Y56771D01*
X119001Y55116D01*
X121029Y53946D01*
X123290Y53340D01*
X125630D01*
X127891Y53946D01*
X129919Y55116D01*
X131574Y56771D01*
X132744Y58799D01*
X133350Y61060D01*
Y63400D01*
X132744Y65661D01*
X132191Y66620D01*
X132924Y67890D01*
X144350D01*
Y81970D01*
X144350D01*
Y83130D01*
X144350D01*
Y97210D01*
X144350D01*
X144616Y98370D01*
X145620D01*
Y109799D01*
X145639Y109900D01*
X145620Y109992D01*
Y110917D01*
X160485Y125782D01*
X161327Y127042D01*
X161475Y127785D01*
X163790D01*
Y140747D01*
X163793Y140758D01*
X163790Y140797D01*
Y140948D01*
X163809Y141045D01*
X163790Y141141D01*
Y143615D01*
X162635D01*
Y145542D01*
X162339Y147029D01*
X161497Y148289D01*
X159934Y149852D01*
X160420Y151025D01*
X163790D01*
Y163987D01*
X163793Y163998D01*
X163790Y164037D01*
Y164188D01*
X163809Y164284D01*
X163790Y164381D01*
Y166855D01*
X162635D01*
Y174570D01*
X165963D01*
Y188650D01*
X162635D01*
Y197595D01*
X162339Y199082D01*
X161497Y200342D01*
X158710Y203129D01*
Y212782D01*
X148630D01*
Y198629D01*
X147457Y198143D01*
X138722Y206878D01*
X139192Y208634D01*
Y210974D01*
X138586Y213235D01*
X137416Y215263D01*
X135761Y216918D01*
X133733Y218088D01*
X131472Y218694D01*
X129132D01*
X126871Y218088D01*
X124843Y216918D01*
X124420Y216494D01*
X123150Y217020D01*
Y220195D01*
X113070D01*
Y212815D01*
X90860D01*
Y215470D01*
X87705D01*
Y219020D01*
X88470D01*
Y221480D01*
X88490Y221573D01*
X88470Y221674D01*
Y233100D01*
X80884D01*
X69685Y244299D01*
Y245986D01*
X71534Y247835D01*
X72856Y250125D01*
X73540Y252678D01*
Y255322D01*
X72856Y257875D01*
X71534Y260165D01*
X69665Y262034D01*
X67375Y263356D01*
X64822Y264040D01*
D02*
G37*
G36*
X482500Y356870D02*
X480160D01*
X477899Y356264D01*
X475871Y355093D01*
X474216Y353438D01*
X473046Y351411D01*
X472440Y349150D01*
Y346809D01*
X473046Y344548D01*
X474216Y342521D01*
X475871Y340866D01*
X477445Y339957D01*
Y193667D01*
X477286Y193546D01*
X476175Y193198D01*
X471300Y198074D01*
Y203660D01*
X462644D01*
Y205280D01*
X471300D01*
Y216360D01*
X446220D01*
Y205280D01*
X454875D01*
Y203660D01*
X446220D01*
Y192580D01*
X465063D01*
X465313Y192230D01*
X464660Y190960D01*
X446220D01*
Y179880D01*
X469825D01*
Y165560D01*
X446220D01*
Y163905D01*
X442299D01*
X394500Y211704D01*
X394970Y213460D01*
Y215800D01*
X394364Y218061D01*
X393194Y220089D01*
X391539Y221744D01*
X389511Y222914D01*
X387250Y223520D01*
X384910D01*
X382649Y222914D01*
X380621Y221744D01*
X378966Y220089D01*
X377796Y218061D01*
X377340Y216360D01*
X358713D01*
X352617Y222457D01*
X351356Y223299D01*
X349870Y223595D01*
X215138D01*
X213651Y223299D01*
X212391Y222457D01*
X205024Y215090D01*
X192438D01*
Y204010D01*
X217518D01*
Y215090D01*
X218483Y215825D01*
X284472D01*
X285438Y215090D01*
X285438Y214555D01*
Y204010D01*
X294093D01*
Y202390D01*
X285438D01*
Y200735D01*
X273268D01*
X271781Y200439D01*
X270521Y199597D01*
X261413Y190489D01*
X260571Y189229D01*
X260275Y187742D01*
Y160020D01*
X260571Y158533D01*
X261413Y157273D01*
X275383Y143303D01*
X276643Y142461D01*
X278130Y142165D01*
X285438D01*
Y140510D01*
X310518D01*
Y151590D01*
X285438D01*
Y149935D01*
X279739D01*
X268045Y161629D01*
Y186133D01*
X274877Y192965D01*
X285438D01*
Y191310D01*
X310518D01*
Y202390D01*
X301862D01*
Y204010D01*
X310518D01*
Y214555D01*
X310518Y215090D01*
X311483Y215825D01*
X342024D01*
X342149Y214555D01*
X341413Y214409D01*
X340153Y213567D01*
X311788Y185201D01*
X310518Y185727D01*
Y189690D01*
X285438D01*
Y178610D01*
X309805D01*
Y169071D01*
X305024Y164290D01*
X285438D01*
Y153210D01*
X310518D01*
Y158796D01*
X316437Y164715D01*
X317279Y165976D01*
X317575Y167462D01*
Y168220D01*
X319315D01*
Y156900D01*
X316660D01*
Y142820D01*
X319315D01*
Y138318D01*
X319611Y136832D01*
X320453Y135571D01*
X324235Y131789D01*
Y128960D01*
X314120D01*
Y124535D01*
X310518D01*
Y126190D01*
X285438D01*
Y115110D01*
X310518D01*
Y116765D01*
X314120D01*
Y114880D01*
X324235D01*
Y87547D01*
X323256Y86710D01*
X321718Y87122D01*
X319378D01*
X317117Y86516D01*
X315089Y85346D01*
X313434Y83691D01*
X312264Y81663D01*
X311658Y79402D01*
Y77062D01*
X312264Y74801D01*
X313434Y72773D01*
X315089Y71118D01*
X317117Y69948D01*
X319378Y69342D01*
X321718D01*
X323979Y69948D01*
X326007Y71118D01*
X327662Y72773D01*
X328832Y74801D01*
X329438Y77062D01*
Y79402D01*
X328968Y81158D01*
X330867Y83057D01*
X331249Y83630D01*
X331671Y83721D01*
X332657Y83606D01*
X332667Y83601D01*
X332923Y83133D01*
X332740Y82450D01*
Y80110D01*
X333346Y77849D01*
X334516Y75821D01*
X336171Y74166D01*
X338199Y72996D01*
X340460Y72390D01*
X342800D01*
X345061Y72996D01*
X347089Y74166D01*
X347900Y74978D01*
X349043Y74865D01*
X368383Y55525D01*
X367636Y54231D01*
X367030Y51970D01*
Y49630D01*
X367219Y48923D01*
X366315Y47827D01*
X194355D01*
X192868Y47531D01*
X191608Y46689D01*
X182369Y37450D01*
X180392Y37980D01*
X177748D01*
X175195Y37296D01*
X172905Y35974D01*
X171036Y34105D01*
X169714Y31815D01*
X169030Y29262D01*
Y26618D01*
X169714Y24065D01*
X171036Y21775D01*
X172905Y19906D01*
X175195Y18584D01*
X177748Y17900D01*
X180392D01*
X182945Y18584D01*
X185235Y19906D01*
X187104Y21775D01*
X188426Y24065D01*
X189110Y26618D01*
Y29262D01*
X188426Y31815D01*
X188168Y32262D01*
X195964Y40057D01*
X368410D01*
X369896Y40353D01*
X371157Y41195D01*
X372481Y42520D01*
X372489Y42516D01*
X374750Y41910D01*
X377090D01*
X379351Y42516D01*
X381379Y43686D01*
X383034Y45341D01*
X384204Y47369D01*
X384810Y49630D01*
Y51970D01*
X384204Y54231D01*
X383034Y56259D01*
X381379Y57914D01*
X379351Y59084D01*
X377090Y59690D01*
X375206D01*
X355675Y79221D01*
Y103680D01*
X378300D01*
Y112107D01*
X379400Y112742D01*
X380186Y112289D01*
X382447Y111683D01*
X384787D01*
X387049Y112289D01*
X389076Y113459D01*
X390731Y115114D01*
X391901Y117141D01*
X392507Y119403D01*
Y121743D01*
X391901Y124004D01*
X390731Y126031D01*
X389076Y127687D01*
X387049Y128857D01*
X384787Y129463D01*
X382447D01*
X380186Y128857D01*
X379255Y128320D01*
X378300Y129235D01*
X378300Y130239D01*
Y140160D01*
X353220D01*
Y129080D01*
X377015D01*
X377147Y128941D01*
X377639Y127810D01*
X377368Y127460D01*
X353220D01*
Y116380D01*
X374710D01*
X374912Y116030D01*
X374179Y114760D01*
X353220D01*
Y112212D01*
X352853Y111967D01*
X349043Y108157D01*
X348201Y106897D01*
X347905Y105410D01*
Y89257D01*
X346635Y88655D01*
X345061Y89564D01*
X342800Y90170D01*
X341850D01*
Y102290D01*
X338544D01*
Y114880D01*
X341200D01*
Y124275D01*
X341274Y124650D01*
X341200Y125025D01*
Y128960D01*
X332004D01*
Y133398D01*
X331709Y134885D01*
X330867Y136145D01*
X327084Y139927D01*
Y142820D01*
X329740D01*
Y156900D01*
X327084D01*
Y167322D01*
X327982Y168220D01*
X329390Y168220D01*
X329740Y168220D01*
X338286D01*
X338660Y168146D01*
X343251D01*
X347980Y163416D01*
X349240Y162574D01*
X350727Y162279D01*
X353220D01*
Y154480D01*
X378300D01*
Y162279D01*
X398648D01*
X441753Y119173D01*
X443013Y118331D01*
X444500Y118035D01*
X446220D01*
Y116380D01*
X471300D01*
Y127460D01*
X446220D01*
Y127460D01*
X444950Y126964D01*
X403004Y168910D01*
X401743Y169752D01*
X400257Y170048D01*
X378300D01*
Y178260D01*
X353220D01*
Y170960D01*
X351950Y170434D01*
X347607Y174777D01*
X346346Y175619D01*
X344860Y175915D01*
X342470D01*
Y182300D01*
X329740D01*
X329390Y182300D01*
X328470D01*
X328120Y182300D01*
X321533D01*
X321047Y183473D01*
X344509Y206935D01*
X353220D01*
Y205280D01*
X378300D01*
Y206935D01*
X379570D01*
X381057Y207231D01*
X381084Y207249D01*
X382649Y206346D01*
X384910Y205740D01*
X387250D01*
X389006Y206210D01*
X437943Y157273D01*
X439203Y156431D01*
X440690Y156135D01*
X446220D01*
Y154480D01*
X464660D01*
X465313Y153210D01*
X465063Y152860D01*
X446220D01*
Y141780D01*
X471300D01*
Y147366D01*
X476175Y152242D01*
X477286Y151894D01*
X477445Y151773D01*
Y52409D01*
X440351Y15315D01*
X222589D01*
X213829Y24075D01*
X214510Y26618D01*
Y29262D01*
X213826Y31815D01*
X212504Y34105D01*
X210635Y35974D01*
X208345Y37296D01*
X205792Y37980D01*
X203148D01*
X200595Y37296D01*
X198305Y35974D01*
X196436Y34105D01*
X195114Y31815D01*
X194430Y29262D01*
Y26618D01*
X195114Y24065D01*
X196436Y21775D01*
X198305Y19906D01*
X200595Y18584D01*
X203148Y17900D01*
X205792D01*
X208335Y18581D01*
X218233Y8683D01*
X219493Y7841D01*
X220980Y7545D01*
X441960D01*
X443447Y7841D01*
X444707Y8683D01*
X484077Y48053D01*
X484919Y49313D01*
X485215Y50800D01*
Y339957D01*
X486789Y340866D01*
X488444Y342521D01*
X489614Y344548D01*
X490220Y346809D01*
Y349150D01*
X489614Y351411D01*
X488444Y353438D01*
X486789Y355093D01*
X484761Y356264D01*
X482500Y356870D01*
D02*
G37*
G36*
X378300Y203660D02*
X353220D01*
Y192580D01*
X378300D01*
Y203660D01*
D02*
G37*
G36*
X217518Y202390D02*
X192438D01*
Y191310D01*
X217518D01*
Y202390D01*
D02*
G37*
G36*
X378300Y190960D02*
X353220D01*
Y179880D01*
X378300D01*
Y190960D01*
D02*
G37*
G36*
X217518Y189690D02*
X192438D01*
Y178610D01*
X217518D01*
Y189690D01*
D02*
G37*
G36*
X123150Y196955D02*
X113070D01*
Y183993D01*
X113067Y183982D01*
X113070Y183943D01*
Y183792D01*
X113051Y183696D01*
X113070Y183599D01*
Y181125D01*
X114225D01*
Y176370D01*
X114317Y175910D01*
X114274Y175705D01*
X113275Y174640D01*
X101840D01*
Y168985D01*
X97980D01*
Y172140D01*
X84900D01*
Y158060D01*
X88825D01*
Y150342D01*
X87652Y149856D01*
X87331Y150177D01*
X86071Y151019D01*
X84584Y151315D01*
X64150D01*
Y155970D01*
X45070D01*
Y138890D01*
X45070D01*
Y137970D01*
X45070D01*
Y120890D01*
X51630D01*
X51863Y120541D01*
X53643Y118761D01*
X53173Y117005D01*
Y114664D01*
X53779Y112403D01*
X54398Y111330D01*
X53665Y110060D01*
X42490D01*
Y96980D01*
X51076D01*
X59212Y88844D01*
X59026Y88521D01*
X58420Y86260D01*
Y83920D01*
X59026Y81659D01*
X60196Y79631D01*
X61851Y77976D01*
X63879Y76806D01*
X66140Y76200D01*
X68480D01*
X70741Y76806D01*
X72769Y77976D01*
X74424Y79631D01*
X75594Y81659D01*
X76200Y83920D01*
Y86260D01*
X75594Y88521D01*
X74424Y90549D01*
X72769Y92204D01*
X70741Y93374D01*
X68480Y93980D01*
X66140D01*
X65291Y93753D01*
X60582Y98462D01*
X61068Y99636D01*
X71172D01*
X78765Y92042D01*
Y79121D01*
X83821D01*
Y76615D01*
X67601Y60395D01*
X66035Y60571D01*
X65184Y62045D01*
X63315Y63914D01*
X61025Y65236D01*
X58472Y65920D01*
X55828D01*
X53275Y65236D01*
X50985Y63914D01*
X49116Y62045D01*
X47794Y59755D01*
X47110Y57202D01*
Y54558D01*
X47794Y52005D01*
X49116Y49715D01*
X50985Y47846D01*
X53275Y46524D01*
X55828Y45840D01*
X58472D01*
X61025Y46524D01*
X63315Y47846D01*
X65184Y49715D01*
X66500Y51995D01*
X68580D01*
X70067Y52291D01*
X71327Y53133D01*
X90453Y72259D01*
X91295Y73520D01*
X91591Y75006D01*
Y79121D01*
X91643D01*
Y97536D01*
X91591D01*
Y106442D01*
X92710Y107562D01*
X93829Y106442D01*
Y97536D01*
X93777D01*
Y79121D01*
X106655D01*
Y97536D01*
X106602D01*
Y100591D01*
X106623Y100672D01*
X106837Y101046D01*
X107872Y101648D01*
X108050Y101600D01*
X110390D01*
X112651Y102206D01*
X114679Y103376D01*
X116334Y105031D01*
X117504Y107059D01*
X118110Y109320D01*
Y111660D01*
X117504Y113921D01*
X116334Y115949D01*
X114679Y117604D01*
X112651Y118774D01*
X110390Y119380D01*
X108050D01*
X105789Y118774D01*
X103761Y117604D01*
X102106Y115949D01*
X100936Y113921D01*
X100555Y112500D01*
X99138Y112121D01*
X96595Y114664D01*
Y123444D01*
X96647D01*
Y141859D01*
X96595D01*
Y158060D01*
X97980D01*
Y161215D01*
X101840D01*
Y155560D01*
X118336D01*
X118862Y154290D01*
X106431Y141859D01*
X98781D01*
Y123444D01*
X106655D01*
Y132403D01*
X106681Y132535D01*
X107923Y132782D01*
X109184Y133624D01*
X128591Y153031D01*
X129433Y154291D01*
X129685Y155560D01*
X136920D01*
Y174640D01*
X125334D01*
X121995Y177979D01*
Y181125D01*
X123150D01*
Y183599D01*
X123169Y183696D01*
X123150Y183792D01*
Y183943D01*
X123153Y183982D01*
X123150Y183993D01*
Y196955D01*
D02*
G37*
G36*
X217518Y176990D02*
X192438D01*
Y165910D01*
X217518D01*
Y176990D01*
D02*
G37*
G36*
Y164290D02*
X192438D01*
Y153210D01*
X217518D01*
Y164290D01*
D02*
G37*
G36*
X378300Y152860D02*
X353220D01*
Y141780D01*
X378300D01*
Y152860D01*
D02*
G37*
G36*
X217518Y151590D02*
X192438D01*
Y140510D01*
X217518D01*
Y151590D01*
D02*
G37*
G36*
Y138890D02*
X192438D01*
Y127810D01*
X210879D01*
X211532Y126540D01*
X211282Y126190D01*
X192438D01*
Y115110D01*
X216249D01*
X216549Y115110D01*
X216604Y115101D01*
X217469Y114346D01*
X217561Y114045D01*
X217506Y113740D01*
X217322Y113490D01*
X192438D01*
Y102410D01*
X206334D01*
X206708Y102336D01*
X206709Y102336D01*
X206709Y102336D01*
X207083Y102410D01*
X217518D01*
X218442Y101656D01*
X218644Y101524D01*
X219331Y100836D01*
X221359Y99666D01*
X223620Y99060D01*
X225960D01*
X228221Y99666D01*
X230249Y100836D01*
X231904Y102491D01*
X233074Y104519D01*
X233680Y106780D01*
Y109120D01*
X233074Y111381D01*
X231904Y113409D01*
X230249Y115064D01*
X228221Y116234D01*
X225960Y116840D01*
X223620D01*
X221359Y116234D01*
X219331Y115064D01*
X218663Y114395D01*
X217882Y114791D01*
X217751Y114903D01*
X217518Y116017D01*
X217518Y116376D01*
Y120696D01*
X220727Y123905D01*
X222214Y123750D01*
X222756Y122811D01*
X224411Y121156D01*
X226439Y119986D01*
X228700Y119380D01*
X231040D01*
X233301Y119986D01*
X235329Y121156D01*
X236984Y122811D01*
X238154Y124839D01*
X238760Y127100D01*
Y129440D01*
X238154Y131701D01*
X236984Y133729D01*
X235329Y135384D01*
X233301Y136554D01*
X231040Y137160D01*
X228700D01*
X226439Y136554D01*
X224411Y135384D01*
X222756Y133729D01*
X221847Y132155D01*
X219598D01*
X218788Y131994D01*
X217518Y132873D01*
Y138890D01*
D02*
G37*
G36*
X471300Y114760D02*
X446220D01*
Y103680D01*
X471300D01*
Y114760D01*
D02*
G37*
G36*
X310518Y113490D02*
X285438D01*
Y102410D01*
X310518D01*
Y113490D01*
D02*
G37*
G36*
X275490Y105410D02*
X273150D01*
X270889Y104804D01*
X268861Y103634D01*
X267206Y101979D01*
X266297Y100405D01*
X258460D01*
X256974Y100109D01*
X255713Y99267D01*
X235877Y79430D01*
X227790D01*
Y65350D01*
X240870D01*
Y73436D01*
X260069Y92635D01*
X266297D01*
X267206Y91061D01*
X268861Y89406D01*
X270889Y88236D01*
X273150Y87630D01*
X275490D01*
X277751Y88236D01*
X279779Y89406D01*
X281434Y91061D01*
X281976Y92000D01*
X285438D01*
Y89710D01*
X310518D01*
Y100790D01*
X288092D01*
X287992Y100809D01*
X287898Y100790D01*
X285438D01*
Y99770D01*
X282653D01*
X282604Y99951D01*
X281434Y101979D01*
X279779Y103634D01*
X277751Y104804D01*
X275490Y105410D01*
D02*
G37*
G36*
X391368Y97441D02*
X389027D01*
X386766Y96835D01*
X384739Y95664D01*
X383084Y94009D01*
X381913Y91982D01*
X381307Y89721D01*
Y87380D01*
X381913Y85119D01*
X383084Y83092D01*
X384115Y82060D01*
Y80700D01*
X381460D01*
Y66620D01*
X394540D01*
Y80700D01*
X394540Y80700D01*
X394540D01*
X395581Y81394D01*
X395656Y81437D01*
X397311Y83092D01*
X398481Y85119D01*
X399087Y87380D01*
Y89721D01*
X398481Y91982D01*
X397311Y94009D01*
X395656Y95664D01*
X393629Y96835D01*
X391368Y97441D01*
D02*
G37*
G36*
X438050Y102870D02*
X435710D01*
X433449Y102264D01*
X431421Y101094D01*
X429766Y99439D01*
X428596Y97411D01*
X427990Y95150D01*
Y92810D01*
X428596Y90549D01*
X429766Y88521D01*
X431421Y86866D01*
X433449Y85696D01*
X435710Y85090D01*
X438050D01*
X440311Y85696D01*
X441122Y86164D01*
X452580Y74706D01*
Y66620D01*
X465660D01*
Y80700D01*
X457574D01*
X448467Y89807D01*
X448953Y90980D01*
X471300D01*
Y102060D01*
X446220D01*
Y100405D01*
X443028D01*
X442339Y101094D01*
X440311Y102264D01*
X438050Y102870D01*
D02*
G37*
G36*
X276912Y72270D02*
X274268D01*
X271715Y71586D01*
X269425Y70264D01*
X267556Y68395D01*
X266234Y66105D01*
X265550Y63552D01*
Y60908D01*
X266234Y58355D01*
X267556Y56065D01*
X269425Y54196D01*
X271715Y52874D01*
X274268Y52190D01*
X276912D01*
X279465Y52874D01*
X281755Y54196D01*
X283624Y56065D01*
X284946Y58355D01*
X285630Y60908D01*
Y63552D01*
X284946Y66105D01*
X283624Y68395D01*
X281755Y70264D01*
X279465Y71586D01*
X276912Y72270D01*
D02*
G37*
G36*
X208918Y80700D02*
X195838D01*
Y66620D01*
X197168D01*
X197654Y65447D01*
X197356Y65149D01*
X196186Y63121D01*
X195580Y60860D01*
Y58520D01*
X196186Y56259D01*
X197356Y54231D01*
X199011Y52576D01*
X201039Y51406D01*
X203300Y50800D01*
X205640D01*
X207901Y51406D01*
X209929Y52576D01*
X211584Y54231D01*
X212754Y56259D01*
X213360Y58520D01*
Y60860D01*
X212754Y63121D01*
X211584Y65149D01*
X209929Y66804D01*
X208918Y67387D01*
Y69079D01*
X208937Y69173D01*
X208918Y69273D01*
Y80700D01*
D02*
G37*
G36*
X67190Y40520D02*
X47110D01*
Y20440D01*
X67190D01*
Y40520D01*
D02*
G37*
G36*
X366910Y37980D02*
X346830D01*
Y17900D01*
X366910D01*
Y37980D01*
D02*
G37*
G36*
X332792D02*
X330148D01*
X327595Y37296D01*
X325305Y35974D01*
X323436Y34105D01*
X322114Y31815D01*
X321430Y29262D01*
Y26618D01*
X322114Y24065D01*
X323436Y21775D01*
X325305Y19906D01*
X327595Y18584D01*
X330148Y17900D01*
X332792D01*
X335345Y18584D01*
X337635Y19906D01*
X339504Y21775D01*
X340826Y24065D01*
X341510Y26618D01*
Y29262D01*
X340826Y31815D01*
X339504Y34105D01*
X337635Y35974D01*
X335345Y37296D01*
X332792Y37980D01*
D02*
G37*
G36*
X307392D02*
X304748D01*
X302195Y37296D01*
X299905Y35974D01*
X298036Y34105D01*
X296714Y31815D01*
X296030Y29262D01*
Y26618D01*
X296714Y24065D01*
X298036Y21775D01*
X299905Y19906D01*
X302195Y18584D01*
X304748Y17900D01*
X307392D01*
X309945Y18584D01*
X312235Y19906D01*
X314104Y21775D01*
X315426Y24065D01*
X316110Y26618D01*
Y29262D01*
X315426Y31815D01*
X314104Y34105D01*
X312235Y35974D01*
X309945Y37296D01*
X307392Y37980D01*
D02*
G37*
G36*
X281992D02*
X279348D01*
X276795Y37296D01*
X274505Y35974D01*
X272636Y34105D01*
X271314Y31815D01*
X270630Y29262D01*
Y26618D01*
X271314Y24065D01*
X272636Y21775D01*
X274505Y19906D01*
X276795Y18584D01*
X279348Y17900D01*
X281992D01*
X284545Y18584D01*
X286835Y19906D01*
X288704Y21775D01*
X290026Y24065D01*
X290710Y26618D01*
Y29262D01*
X290026Y31815D01*
X288704Y34105D01*
X286835Y35974D01*
X284545Y37296D01*
X281992Y37980D01*
D02*
G37*
G36*
X256592D02*
X253948D01*
X251395Y37296D01*
X249105Y35974D01*
X247236Y34105D01*
X245914Y31815D01*
X245230Y29262D01*
Y26618D01*
X245914Y24065D01*
X247236Y21775D01*
X249105Y19906D01*
X251395Y18584D01*
X253948Y17900D01*
X256592D01*
X259145Y18584D01*
X261435Y19906D01*
X263304Y21775D01*
X264626Y24065D01*
X265310Y26618D01*
Y29262D01*
X264626Y31815D01*
X263304Y34105D01*
X261435Y35974D01*
X259145Y37296D01*
X256592Y37980D01*
D02*
G37*
G36*
X231192D02*
X228548D01*
X225995Y37296D01*
X223705Y35974D01*
X221836Y34105D01*
X220514Y31815D01*
X219830Y29262D01*
Y26618D01*
X220514Y24065D01*
X221836Y21775D01*
X223705Y19906D01*
X225995Y18584D01*
X228548Y17900D01*
X231192D01*
X233745Y18584D01*
X236035Y19906D01*
X237904Y21775D01*
X239226Y24065D01*
X239910Y26618D01*
Y29262D01*
X239226Y31815D01*
X237904Y34105D01*
X236035Y35974D01*
X233745Y37296D01*
X231192Y37980D01*
D02*
G37*
G36*
X154992D02*
X152348D01*
X149795Y37296D01*
X147505Y35974D01*
X145636Y34105D01*
X144314Y31815D01*
X143630Y29262D01*
Y26618D01*
X144314Y24065D01*
X145636Y21775D01*
X147505Y19906D01*
X149795Y18584D01*
X152348Y17900D01*
X154992D01*
X157545Y18584D01*
X159835Y19906D01*
X161704Y21775D01*
X163026Y24065D01*
X163710Y26618D01*
Y29262D01*
X163026Y31815D01*
X161704Y34105D01*
X159835Y35974D01*
X157545Y37296D01*
X154992Y37980D01*
D02*
G37*
G36*
X129592D02*
X126948D01*
X124395Y37296D01*
X122105Y35974D01*
X120236Y34105D01*
X118914Y31815D01*
X118230Y29262D01*
Y26618D01*
X118914Y24065D01*
X120236Y21775D01*
X122105Y19906D01*
X124395Y18584D01*
X126948Y17900D01*
X129592D01*
X132145Y18584D01*
X134435Y19906D01*
X136304Y21775D01*
X137626Y24065D01*
X138310Y26618D01*
Y29262D01*
X137626Y31815D01*
X136304Y34105D01*
X134435Y35974D01*
X132145Y37296D01*
X129592Y37980D01*
D02*
G37*
%LPD*%
G36*
X173295Y422660D02*
X175342Y421388D01*
X175663Y421225D01*
X175725Y421399D01*
X175751Y421640D01*
Y421181D01*
X175956Y421077D01*
X176536Y420822D01*
X177082Y420624D01*
X177593Y420483D01*
X178070Y420398D01*
X178513Y420370D01*
X178934Y417830D01*
X178424Y417796D01*
X177916Y417694D01*
X177412Y417523D01*
X176910Y417285D01*
X176412Y416978D01*
X175917Y416603D01*
X175425Y416160D01*
X174936Y415649D01*
X174450Y415069D01*
X173968Y414422D01*
X173416Y417824D01*
X173180Y417830D01*
Y419274D01*
X172544Y423197D01*
X173295Y422660D01*
D02*
G37*
G36*
X135080Y422299D02*
Y418520D01*
X135055Y418761D01*
X134979Y418977D01*
X134852Y419168D01*
X134674Y419333D01*
X134445Y419473D01*
X134166Y419587D01*
X133836Y419676D01*
X133455Y419739D01*
X133023Y419777D01*
X132540Y419790D01*
Y422330D01*
X135080Y422299D01*
D02*
G37*
G36*
X309389Y414631D02*
X309292Y414609D01*
X309205Y414544D01*
X309129Y414437D01*
X309062Y414287D01*
X309006Y414093D01*
X308960Y413857D01*
X308925Y413577D01*
X308884Y412890D01*
X308879Y412481D01*
X306339D01*
X306330Y412894D01*
X306260Y413590D01*
X306198Y413873D01*
X306119Y414113D01*
X306022Y414309D01*
X305908Y414462D01*
X305776Y414572D01*
X305627Y414638D01*
X305459Y414661D01*
X309389Y414631D01*
D02*
G37*
G36*
X352198Y414635D02*
X351982Y414558D01*
X351792Y414430D01*
X351627Y414250D01*
X351487Y414018D01*
X351373Y413736D01*
X351284Y413401D01*
X351221Y413016D01*
X351182Y412579D01*
X351170Y412090D01*
X348630D01*
X348617Y412579D01*
X348579Y413016D01*
X348515Y413401D01*
X348427Y413736D01*
X348312Y414018D01*
X348172Y414250D01*
X348007Y414430D01*
X347817Y414558D01*
X347601Y414635D01*
X347360Y414661D01*
X352440D01*
X352198Y414635D01*
D02*
G37*
G36*
X288303Y411651D02*
X288341Y411214D01*
X288404Y410829D01*
X288493Y410494D01*
X288608Y410212D01*
X288648Y410145D01*
X290741D01*
X290276Y409782D01*
X289859Y409402D01*
X289491Y409005D01*
X289172Y408591D01*
X288903Y408160D01*
X288682Y407712D01*
X288511Y407247D01*
X288388Y406765D01*
X288314Y406266D01*
X288290Y405750D01*
X285750D01*
X285725Y406266D01*
X285652Y406765D01*
X285529Y407247D01*
X285358Y407712D01*
X285137Y408160D01*
X284867Y408591D01*
X284549Y409005D01*
X284181Y409402D01*
X283764Y409782D01*
X283299Y410145D01*
X285392D01*
X285432Y410212D01*
X285547Y410494D01*
X285636Y410829D01*
X285699Y411214D01*
X285737Y411651D01*
X285750Y412140D01*
X288290D01*
X288303Y411651D01*
D02*
G37*
G36*
X274699Y400665D02*
X274483Y400588D01*
X274292Y400460D01*
X274127Y400280D01*
X273987Y400048D01*
X273873Y399766D01*
X273784Y399431D01*
X273721Y399046D01*
X273682Y398609D01*
X273670Y398120D01*
X271130D01*
X271117Y398609D01*
X271079Y399046D01*
X271015Y399431D01*
X270927Y399766D01*
X270812Y400048D01*
X270673Y400280D01*
X270508Y400460D01*
X270317Y400588D01*
X270101Y400665D01*
X269860Y400691D01*
X274940D01*
X274699Y400665D01*
D02*
G37*
G36*
X189850Y398780D02*
X189603Y397232D01*
X189524Y397285D01*
X189401Y397332D01*
X189232Y397374D01*
X187270Y397507D01*
X186784Y397510D01*
X189850Y400050D01*
Y398780D01*
D02*
G37*
G36*
X170335Y401079D02*
X170412Y400863D01*
X170540Y400672D01*
X170720Y400507D01*
X170952Y400368D01*
X171234Y400253D01*
X171569Y400164D01*
X171954Y400101D01*
X172391Y400063D01*
X172880Y400050D01*
Y397510D01*
X172391Y397497D01*
X171954Y397459D01*
X171569Y397396D01*
X171234Y397307D01*
X170952Y397192D01*
X170720Y397053D01*
X170540Y396888D01*
X170412Y396697D01*
X170335Y396481D01*
X170309Y396240D01*
Y401320D01*
X170335Y401079D01*
D02*
G37*
G36*
X148400Y396240D02*
X148375Y396481D01*
X148299Y396697D01*
X148172Y396888D01*
X147994Y397053D01*
X147766Y397192D01*
X147486Y397307D01*
X147156Y397396D01*
X146775Y397459D01*
X146343Y397497D01*
X145861Y397510D01*
Y400050D01*
X146343Y400063D01*
X146775Y400101D01*
X147156Y400164D01*
X147486Y400253D01*
X147766Y400368D01*
X147994Y400507D01*
X148172Y400672D01*
X148299Y400863D01*
X148375Y401079D01*
X148400Y401320D01*
Y396240D01*
D02*
G37*
G36*
X137995Y401079D02*
X138071Y400863D01*
X138198Y400672D01*
X138376Y400507D01*
X138604Y400368D01*
X138884Y400253D01*
X139214Y400164D01*
X139595Y400101D01*
X140027Y400063D01*
X140509Y400050D01*
Y397510D01*
X140027Y397497D01*
X139595Y397459D01*
X139214Y397396D01*
X138884Y397307D01*
X138604Y397192D01*
X138376Y397053D01*
X138198Y396888D01*
X138071Y396697D01*
X137995Y396481D01*
X137969Y396240D01*
Y401320D01*
X137995Y401079D01*
D02*
G37*
G36*
X86545Y399809D02*
X86622Y399593D01*
X86750Y399402D01*
X86930Y399237D01*
X87162Y399098D01*
X87444Y398983D01*
X87779Y398894D01*
X88164Y398831D01*
X88601Y398793D01*
X89089Y398780D01*
Y396240D01*
X88601Y396227D01*
X88164Y396189D01*
X87779Y396126D01*
X87444Y396037D01*
X87162Y395923D01*
X86930Y395783D01*
X86750Y395618D01*
X86622Y395427D01*
X86545Y395211D01*
X86519Y394970D01*
Y400050D01*
X86545Y399809D01*
D02*
G37*
G36*
X64611Y393739D02*
X64585Y393980D01*
X64509Y394196D01*
X64382Y394387D01*
X64204Y394552D01*
X63976Y394692D01*
X63696Y394806D01*
X63366Y394895D01*
X62985Y394958D01*
X62553Y394996D01*
X62070Y395009D01*
Y397549D01*
X62553Y397562D01*
X62985Y397600D01*
X63366Y397663D01*
X63696Y397752D01*
X63976Y397867D01*
X64204Y398006D01*
X64382Y398171D01*
X64509Y398362D01*
X64585Y398578D01*
X64611Y398819D01*
Y393739D01*
D02*
G37*
G36*
X123969Y394310D02*
X123966Y392668D01*
X121426D01*
X121422Y392985D01*
X121366Y393737D01*
X121333Y393921D01*
X121292Y394071D01*
X121243Y394189D01*
X121187Y394273D01*
X121124Y394324D01*
X121053Y394341D01*
X123969Y394310D01*
D02*
G37*
G36*
X356063Y393053D02*
X356101Y392617D01*
X356164Y392231D01*
X356253Y391897D01*
X356368Y391614D01*
X356507Y391383D01*
X356672Y391203D01*
X356863Y391074D01*
X357079Y390997D01*
X357320Y390971D01*
X352240D01*
X352481Y390997D01*
X352697Y391074D01*
X352888Y391203D01*
X353053Y391383D01*
X353193Y391614D01*
X353307Y391897D01*
X353396Y392231D01*
X353459Y392617D01*
X353497Y393053D01*
X353510Y393542D01*
X356050D01*
X356063Y393053D01*
D02*
G37*
G36*
X364171Y391002D02*
X363665Y390478D01*
X362868Y389541D01*
X362578Y389127D01*
X362359Y388749D01*
X362213Y388408D01*
X362138Y388104D01*
X362135Y387836D01*
X362203Y387605D01*
X362344Y387410D01*
X358783Y390971D01*
X358977Y390831D01*
X359209Y390762D01*
X359477Y390765D01*
X359781Y390840D01*
X360122Y390987D01*
X360499Y391205D01*
X360913Y391496D01*
X361364Y391858D01*
X362375Y392798D01*
X364171Y391002D01*
D02*
G37*
G36*
X222629Y385425D02*
X222413Y385348D01*
X222223Y385220D01*
X222057Y385040D01*
X221918Y384808D01*
X221803Y384526D01*
X221715Y384191D01*
X221651Y383806D01*
X221613Y383369D01*
X221600Y382881D01*
X219060D01*
X219048Y383369D01*
X219009Y383806D01*
X218946Y384191D01*
X218857Y384526D01*
X218743Y384808D01*
X218603Y385040D01*
X218438Y385220D01*
X218248Y385348D01*
X218032Y385425D01*
X217790Y385451D01*
X222870D01*
X222629Y385425D01*
D02*
G37*
G36*
X191783Y383861D02*
X191821Y383424D01*
X191885Y383039D01*
X191974Y382705D01*
X192088Y382422D01*
X192228Y382191D01*
X192393Y382011D01*
X192583Y381882D01*
X192799Y381805D01*
X193041Y381779D01*
X187960D01*
X188202Y381805D01*
X188418Y381882D01*
X188608Y382011D01*
X188773Y382191D01*
X188913Y382422D01*
X189027Y382705D01*
X189116Y383039D01*
X189180Y383424D01*
X189218Y383861D01*
X189230Y384350D01*
X191770D01*
X191783Y383861D01*
D02*
G37*
G36*
X275504Y385470D02*
X276468Y384650D01*
X276888Y384355D01*
X277268Y384137D01*
X277607Y383996D01*
X277905Y383932D01*
X278162Y383944D01*
X278377Y384033D01*
X278553Y384199D01*
X275460Y380107D01*
X275582Y380327D01*
X275636Y380578D01*
X275623Y380860D01*
X275544Y381173D01*
X275398Y381517D01*
X275185Y381892D01*
X274905Y382297D01*
X274558Y382734D01*
X274145Y383201D01*
X273664Y383699D01*
X274960Y385996D01*
X275504Y385470D01*
D02*
G37*
G36*
X89541Y378460D02*
X89515Y378701D01*
X89438Y378917D01*
X89310Y379108D01*
X89130Y379273D01*
X88898Y379412D01*
X88616Y379527D01*
X88281Y379616D01*
X87896Y379679D01*
X87459Y379717D01*
X86971Y379730D01*
Y382270D01*
X87459Y382283D01*
X87896Y382321D01*
X88281Y382384D01*
X88616Y382473D01*
X88898Y382588D01*
X89130Y382727D01*
X89310Y382892D01*
X89438Y383083D01*
X89515Y383299D01*
X89541Y383540D01*
Y378460D01*
D02*
G37*
G36*
X81935Y383299D02*
X82012Y383083D01*
X82140Y382892D01*
X82320Y382727D01*
X82552Y382588D01*
X82834Y382473D01*
X83169Y382384D01*
X83554Y382321D01*
X83991Y382283D01*
X84480Y382270D01*
Y379730D01*
X83991Y379717D01*
X83554Y379679D01*
X83169Y379616D01*
X82834Y379527D01*
X82552Y379412D01*
X82320Y379273D01*
X82140Y379108D01*
X82012Y378917D01*
X81935Y378701D01*
X81909Y378460D01*
Y383540D01*
X81935Y383299D01*
D02*
G37*
G36*
X107757Y377840D02*
X107731Y378082D01*
X107654Y378297D01*
X107526Y378488D01*
X107346Y378653D01*
X107114Y378793D01*
X106832Y378907D01*
X106497Y378996D01*
X106112Y379059D01*
X105675Y379098D01*
X105187Y379110D01*
Y381650D01*
X105675Y381663D01*
X106112Y381701D01*
X106497Y381764D01*
X106832Y381853D01*
X107114Y381968D01*
X107346Y382107D01*
X107526Y382272D01*
X107654Y382463D01*
X107731Y382679D01*
X107757Y382920D01*
Y377840D01*
D02*
G37*
G36*
X98445Y382679D02*
X98522Y382463D01*
X98650Y382272D01*
X98830Y382107D01*
X99062Y381968D01*
X99344Y381853D01*
X99679Y381764D01*
X100064Y381701D01*
X100501Y381663D01*
X100990Y381650D01*
Y379110D01*
X100501Y379098D01*
X100064Y379059D01*
X99679Y378996D01*
X99344Y378907D01*
X99062Y378793D01*
X98830Y378653D01*
X98650Y378488D01*
X98522Y378297D01*
X98445Y378082D01*
X98419Y377840D01*
Y382920D01*
X98445Y382679D01*
D02*
G37*
G36*
X186061Y377257D02*
X186034Y377498D01*
X185956Y377714D01*
X185827Y377904D01*
X185646Y378069D01*
X185415Y378209D01*
X185132Y378323D01*
X184798Y378412D01*
X184414Y378476D01*
X183978Y378514D01*
X183491Y378526D01*
Y381067D01*
X183974Y381074D01*
X184786Y381133D01*
X185117Y381185D01*
X185396Y381252D01*
X185625Y381334D01*
X185802Y381431D01*
X185929Y381542D01*
X186006Y381669D01*
X186031Y381810D01*
X186061Y377257D01*
D02*
G37*
G36*
X177151Y382095D02*
X177228Y381879D01*
X177357Y381689D01*
X177537Y381524D01*
X177768Y381384D01*
X178051Y381270D01*
X178385Y381181D01*
X178770Y381117D01*
X179207Y381079D01*
X179696Y381067D01*
Y378526D01*
X179207Y378514D01*
X178770Y378476D01*
X178385Y378412D01*
X178051Y378323D01*
X177768Y378209D01*
X177537Y378069D01*
X177357Y377904D01*
X177228Y377714D01*
X177151Y377498D01*
X177125Y377257D01*
Y382337D01*
X177151Y382095D01*
D02*
G37*
G36*
X69870Y380155D02*
X70008Y378591D01*
X70128Y377893D01*
X70280Y377250D01*
X70465Y376664D01*
X70684Y376133D01*
X70936Y375659D01*
X71221Y375240D01*
X71539Y374878D01*
X69767Y373057D01*
X69401Y373378D01*
X68979Y373664D01*
X68503Y373914D01*
X67973Y374127D01*
X67389Y374305D01*
X66750Y374446D01*
X66056Y374552D01*
X65308Y374621D01*
X63649Y374652D01*
X69850Y381022D01*
X69870Y380155D01*
D02*
G37*
G36*
X269400Y375261D02*
X269397Y375235D01*
X269395Y375159D01*
X269388Y372720D01*
X266848D01*
X266835Y373207D01*
X266797Y373643D01*
X266733Y374027D01*
X266645Y374361D01*
X266530Y374643D01*
X266391Y374875D01*
X266225Y375055D01*
X266035Y375185D01*
X265819Y375263D01*
X265578Y375291D01*
X269400Y375261D01*
D02*
G37*
G36*
X362370Y377381D02*
X362447Y377165D01*
X362575Y376975D01*
X362755Y376810D01*
X362987Y376670D01*
X363270Y376555D01*
X363604Y376467D01*
X363989Y376403D01*
X364426Y376365D01*
X364915Y376352D01*
Y373812D01*
X364426Y373800D01*
X363989Y373761D01*
X363604Y373698D01*
X363270Y373609D01*
X362987Y373495D01*
X362755Y373355D01*
X362575Y373190D01*
X362447Y372999D01*
X362370Y372784D01*
X362344Y372542D01*
Y377622D01*
X362370Y377381D01*
D02*
G37*
G36*
X292976Y372542D02*
X292950Y372784D01*
X292873Y372999D01*
X292745Y373190D01*
X292565Y373355D01*
X292333Y373495D01*
X292050Y373609D01*
X291716Y373698D01*
X291331Y373761D01*
X290894Y373800D01*
X290405Y373812D01*
Y376352D01*
X290894Y376365D01*
X291331Y376403D01*
X291716Y376467D01*
X292050Y376555D01*
X292333Y376670D01*
X292565Y376810D01*
X292745Y376975D01*
X292873Y377165D01*
X292950Y377381D01*
X292976Y377622D01*
Y372542D01*
D02*
G37*
G36*
X221613Y371011D02*
X221651Y370574D01*
X221715Y370189D01*
X221803Y369854D01*
X221918Y369572D01*
X222057Y369340D01*
X222223Y369160D01*
X222413Y369032D01*
X222629Y368955D01*
X222870Y368929D01*
X217790D01*
X218032Y368955D01*
X218248Y369032D01*
X218438Y369160D01*
X218603Y369340D01*
X218743Y369572D01*
X218857Y369854D01*
X218946Y370189D01*
X219009Y370574D01*
X219048Y371011D01*
X219060Y371499D01*
X221600D01*
X221613Y371011D01*
D02*
G37*
G36*
X73524Y372910D02*
X74462Y372113D01*
X74876Y371823D01*
X75253Y371604D01*
X75594Y371458D01*
X75898Y371383D01*
X76166Y371380D01*
X76398Y371449D01*
X76593Y371589D01*
X73031Y368028D01*
X73172Y368223D01*
X73240Y368454D01*
X73237Y368722D01*
X73162Y369026D01*
X73016Y369367D01*
X72797Y369745D01*
X72507Y370159D01*
X72144Y370609D01*
X71204Y371620D01*
X73000Y373416D01*
X73524Y372910D01*
D02*
G37*
G36*
X122909Y369985D02*
X122980Y369801D01*
X123100Y369639D01*
X123266Y369498D01*
X123481Y369379D01*
X123743Y369282D01*
X124053Y369206D01*
X124410Y369151D01*
X124815Y369119D01*
X125268Y369108D01*
Y366568D01*
X124815Y366557D01*
X124410Y366525D01*
X124053Y366471D01*
X123743Y366395D01*
X123481Y366298D01*
X123266Y366179D01*
X123100Y366038D01*
X122980Y365875D01*
X122909Y365691D01*
X122885Y365486D01*
Y370191D01*
X122909Y369985D01*
D02*
G37*
G36*
X186031Y367810D02*
X186061Y364557D01*
X186034Y364798D01*
X185955Y365014D01*
X185825Y365204D01*
X185644Y365369D01*
X185413Y365509D01*
X185130Y365623D01*
X184797Y365712D01*
X184413Y365776D01*
X183977Y365814D01*
X183491Y365826D01*
Y368367D01*
X186031Y367810D01*
D02*
G37*
G36*
X177151Y369395D02*
X177228Y369179D01*
X177357Y368989D01*
X177537Y368824D01*
X177768Y368684D01*
X178051Y368570D01*
X178385Y368481D01*
X178770Y368417D01*
X179207Y368379D01*
X179696Y368367D01*
Y365826D01*
X179207Y365814D01*
X178770Y365776D01*
X178385Y365712D01*
X178051Y365623D01*
X177768Y365509D01*
X177537Y365369D01*
X177357Y365204D01*
X177228Y365014D01*
X177151Y364798D01*
X177125Y364557D01*
Y369636D01*
X177151Y369395D01*
D02*
G37*
G36*
X107757Y364557D02*
X107732Y364791D01*
X107727Y363877D01*
X107701Y364111D01*
X107625Y364321D01*
X107498Y364506D01*
X107320Y364666D01*
X107092Y364802D01*
X106812Y364913D01*
X106482Y364999D01*
X106101Y365061D01*
X105669Y365098D01*
X105187Y365110D01*
Y365826D01*
Y367650D01*
Y368367D01*
X105675Y368379D01*
X106112Y368417D01*
X106497Y368481D01*
X106832Y368570D01*
X107114Y368684D01*
X107346Y368824D01*
X107526Y368989D01*
X107654Y369179D01*
X107731Y369395D01*
X107757Y369636D01*
Y364557D01*
D02*
G37*
G36*
X98445Y369395D02*
X98522Y369179D01*
X98650Y368989D01*
X98830Y368824D01*
X99062Y368684D01*
X99344Y368570D01*
X99679Y368481D01*
X100064Y368417D01*
X100501Y368379D01*
X100990Y368367D01*
Y367650D01*
Y365110D01*
X100501Y365098D01*
X100064Y365060D01*
X99679Y364996D01*
X99344Y364907D01*
X99062Y364793D01*
X98830Y364653D01*
X98650Y364488D01*
X98522Y364297D01*
X98445Y364082D01*
X98419Y363840D01*
Y364557D01*
Y369636D01*
X98445Y369395D01*
D02*
G37*
G36*
X269401Y363391D02*
X269439Y362954D01*
X269502Y362569D01*
X269591Y362234D01*
X269705Y361952D01*
X269845Y361720D01*
X270010Y361540D01*
X270201Y361412D01*
X270417Y361335D01*
X270658Y361309D01*
X265578D01*
X265819Y361335D01*
X266035Y361412D01*
X266225Y361540D01*
X266391Y361720D01*
X266530Y361952D01*
X266645Y362234D01*
X266733Y362569D01*
X266797Y362954D01*
X266835Y363391D01*
X266848Y363880D01*
X269388D01*
X269401Y363391D01*
D02*
G37*
G36*
X295445Y359193D02*
X295299Y359383D01*
X295105Y359489D01*
X294865Y359513D01*
X294576Y359455D01*
X294241Y359313D01*
X293858Y359089D01*
X293428Y358783D01*
X292950Y358393D01*
X291853Y357367D01*
X290251Y359357D01*
X290879Y360003D01*
X292289Y361677D01*
X292601Y362148D01*
X292834Y362575D01*
X292988Y362959D01*
X293063Y363299D01*
X293059Y363595D01*
X292976Y363848D01*
X295445Y359193D01*
D02*
G37*
G36*
X64149Y365797D02*
X64205Y365441D01*
X64297Y365084D01*
X64425Y364726D01*
X64590Y364367D01*
X64791Y364008D01*
X65028Y363647D01*
X65301Y363286D01*
X65610Y362924D01*
X65956Y362561D01*
Y358968D01*
X65770Y359146D01*
X65402Y359444D01*
X65221Y359565D01*
X65040Y359668D01*
X64861Y359752D01*
X64684Y359817D01*
X64508Y359863D01*
X64333Y359891D01*
X64159Y359901D01*
X64129Y366153D01*
X64149Y365797D01*
D02*
G37*
G36*
X286113Y359169D02*
X286189Y358953D01*
X286316Y358762D01*
X286494Y358597D01*
X286722Y358457D01*
X287002Y358343D01*
X287332Y358254D01*
X287713Y358191D01*
X288145Y358153D01*
X288627Y358140D01*
Y355600D01*
X288145Y355587D01*
X287713Y355549D01*
X287332Y355486D01*
X287002Y355397D01*
X286722Y355283D01*
X286494Y355143D01*
X286316Y354978D01*
X286189Y354787D01*
X286113Y354571D01*
X286087Y354330D01*
Y359410D01*
X286113Y359169D01*
D02*
G37*
G36*
X308128Y352004D02*
X308199Y351820D01*
X308318Y351657D01*
X308485Y351517D01*
X308700Y351398D01*
X308962Y351300D01*
X309272Y351224D01*
X309629Y351170D01*
X310034Y351138D01*
X310487Y351127D01*
Y348587D01*
X310034Y348576D01*
X309629Y348544D01*
X309272Y348490D01*
X308962Y348414D01*
X308700Y348316D01*
X308485Y348197D01*
X308318Y348057D01*
X308199Y347894D01*
X308128Y347710D01*
X308104Y347504D01*
Y352210D01*
X308128Y352004D01*
D02*
G37*
G36*
X347186Y346463D02*
X347160Y346671D01*
X347084Y346858D01*
X346957Y347023D01*
X346779Y347166D01*
X346551Y347287D01*
X346271Y347386D01*
X345941Y347463D01*
X345560Y347518D01*
X345128Y347550D01*
X344646Y347561D01*
Y350101D01*
X345132Y350114D01*
X345568Y350152D01*
X345953Y350216D01*
X346287Y350305D01*
X346570Y350419D01*
X346801Y350559D01*
X346981Y350724D01*
X347111Y350914D01*
X347189Y351130D01*
X347216Y351371D01*
X347186Y346463D01*
D02*
G37*
G36*
X193569Y344785D02*
X193353Y344708D01*
X193162Y344580D01*
X192997Y344400D01*
X192858Y344168D01*
X192743Y343886D01*
X192654Y343551D01*
X192591Y343166D01*
X192553Y342729D01*
X192540Y342240D01*
X190000D01*
X189987Y342729D01*
X189949Y343166D01*
X189886Y343551D01*
X189797Y343886D01*
X189683Y344168D01*
X189543Y344400D01*
X189378Y344580D01*
X189187Y344708D01*
X188971Y344785D01*
X188730Y344811D01*
X193810D01*
X193569Y344785D01*
D02*
G37*
G36*
X93119D02*
X92903Y344708D01*
X92712Y344580D01*
X92547Y344400D01*
X92408Y344168D01*
X92293Y343886D01*
X92205Y343551D01*
X92141Y343166D01*
X92103Y342729D01*
X92090Y342240D01*
X89550D01*
X89537Y342729D01*
X89499Y343166D01*
X89436Y343551D01*
X89347Y343886D01*
X89233Y344168D01*
X89093Y344400D01*
X88928Y344580D01*
X88737Y344708D01*
X88521Y344785D01*
X88280Y344811D01*
X93360D01*
X93119Y344785D01*
D02*
G37*
G36*
X125456Y342407D02*
X124969Y342394D01*
X124534Y342356D01*
X124149Y342292D01*
X123815Y342203D01*
X123533Y342089D01*
X123301Y341949D01*
X123121Y341784D01*
X122991Y341594D01*
X122913Y341378D01*
X122885Y341137D01*
X122916Y344916D01*
X122941Y344922D01*
X123017Y344927D01*
X124160Y344944D01*
X125456Y344947D01*
Y342407D01*
D02*
G37*
G36*
X213790Y382850D02*
X216446D01*
Y371530D01*
X213170D01*
Y357450D01*
X213170Y357450D01*
X212907Y356289D01*
X211326Y354709D01*
X210156Y352681D01*
X209550Y350420D01*
Y348080D01*
X210156Y345819D01*
X211326Y343791D01*
X212611Y342506D01*
Y341315D01*
X212421Y341125D01*
X208000D01*
X207625Y341050D01*
X199080D01*
X198076Y341050D01*
X197810Y342320D01*
Y356142D01*
X197810Y356290D01*
X197540Y357448D01*
X197540Y357560D01*
Y365387D01*
X207987Y375833D01*
X208829Y377093D01*
X209125Y378580D01*
Y392643D01*
X211377Y394895D01*
X213790D01*
Y382850D01*
D02*
G37*
G36*
X92103Y341229D02*
X92141Y340792D01*
X92205Y340406D01*
X92293Y340072D01*
X92408Y339789D01*
X92547Y339558D01*
X92712Y339378D01*
X92903Y339249D01*
X93119Y339172D01*
X93360Y339146D01*
X88280D01*
X88521Y339172D01*
X88737Y339249D01*
X88928Y339378D01*
X89093Y339558D01*
X89233Y339789D01*
X89347Y340072D01*
X89436Y340406D01*
X89499Y340792D01*
X89537Y341229D01*
X89550Y341717D01*
X92090D01*
X92103Y341229D01*
D02*
G37*
G36*
X161997Y339123D02*
X161971Y339365D01*
X161894Y339581D01*
X161766Y339771D01*
X161586Y339936D01*
X161355Y340076D01*
X161072Y340190D01*
X160738Y340279D01*
X160352Y340343D01*
X159915Y340381D01*
X159427Y340393D01*
Y342934D01*
X159915Y342946D01*
X160352Y342984D01*
X160738Y343048D01*
X161072Y343137D01*
X161355Y343251D01*
X161586Y343391D01*
X161766Y343556D01*
X161894Y343746D01*
X161971Y343962D01*
X161997Y344203D01*
Y339123D01*
D02*
G37*
G36*
X192553Y340531D02*
X192591Y340094D01*
X192654Y339709D01*
X192743Y339374D01*
X192858Y339092D01*
X192997Y338860D01*
X193162Y338680D01*
X193353Y338552D01*
X193569Y338475D01*
X193810Y338449D01*
X188730D01*
X188971Y338475D01*
X189187Y338552D01*
X189378Y338680D01*
X189543Y338860D01*
X189683Y339092D01*
X189797Y339374D01*
X189886Y339709D01*
X189949Y340094D01*
X189987Y340531D01*
X190000Y341020D01*
X192540D01*
X192553Y340531D01*
D02*
G37*
G36*
X362370Y339281D02*
X362447Y339065D01*
X362575Y338875D01*
X362755Y338709D01*
X362987Y338570D01*
X363270Y338456D01*
X363604Y338367D01*
X363989Y338303D01*
X364426Y338265D01*
X364915Y338252D01*
Y335712D01*
X364426Y335700D01*
X363989Y335662D01*
X363604Y335598D01*
X363270Y335509D01*
X362987Y335395D01*
X362755Y335255D01*
X362575Y335090D01*
X362447Y334899D01*
X362370Y334684D01*
X362344Y334442D01*
Y339522D01*
X362370Y339281D01*
D02*
G37*
G36*
X292945Y333763D02*
X292925Y333832D01*
X292865Y333893D01*
X292765Y333947D01*
X292625Y333994D01*
X292445Y334034D01*
X292225Y334067D01*
X291665Y334110D01*
X290945Y334125D01*
Y336665D01*
X291330Y336672D01*
X291978Y336731D01*
X292242Y336782D01*
X292465Y336847D01*
X292648Y336928D01*
X292791Y337023D01*
X292893Y337132D01*
X292955Y337257D01*
X292976Y337395D01*
X292945Y333763D01*
D02*
G37*
G36*
X94815Y337006D02*
X94891Y336790D01*
X95018Y336600D01*
X95196Y336435D01*
X95425Y336295D01*
X95704Y336181D01*
X96034Y336092D01*
X96415Y336028D01*
X96847Y335990D01*
X97330Y335978D01*
Y333438D01*
X96847Y333425D01*
X96415Y333387D01*
X96034Y333323D01*
X95704Y333234D01*
X95425Y333120D01*
X95196Y332980D01*
X95018Y332815D01*
X94891Y332625D01*
X94815Y332409D01*
X94790Y332168D01*
Y337248D01*
X94815Y337006D01*
D02*
G37*
G36*
X357079Y333737D02*
X356863Y333661D01*
X356672Y333534D01*
X356507Y333356D01*
X356368Y333128D01*
X356253Y332848D01*
X356164Y332518D01*
X356101Y332137D01*
X356063Y331705D01*
X356050Y331223D01*
X353510D01*
X353497Y331705D01*
X353459Y332137D01*
X353396Y332518D01*
X353307Y332848D01*
X353193Y333128D01*
X353053Y333356D01*
X352888Y333534D01*
X352697Y333661D01*
X352481Y333737D01*
X352240Y333763D01*
X357320D01*
X357079Y333737D01*
D02*
G37*
G36*
X72851Y330238D02*
X72825Y330231D01*
X72749Y330224D01*
X72216Y330210D01*
X70311Y330200D01*
Y332740D01*
X70797Y332753D01*
X71233Y332791D01*
X71617Y332854D01*
X71951Y332943D01*
X72234Y333058D01*
X72465Y333197D01*
X72646Y333362D01*
X72775Y333553D01*
X72854Y333769D01*
X72881Y334010D01*
X72851Y330238D01*
D02*
G37*
G36*
X188888Y329540D02*
X188851Y329559D01*
X188784Y329541D01*
X188686Y329487D01*
X188558Y329397D01*
X188400Y329270D01*
X187743Y328675D01*
X187155Y328098D01*
X185505Y330041D01*
X185866Y330405D01*
X187264Y331987D01*
X187303Y332075D01*
X187301Y332128D01*
X188888Y329540D01*
D02*
G37*
G36*
X107757Y327984D02*
X107732Y328179D01*
X107661Y328355D01*
X107544Y328509D01*
X107381Y328643D01*
X107170Y328757D01*
X106914Y328849D01*
X106612Y328922D01*
X106263Y328973D01*
X105867Y329004D01*
X105426Y329014D01*
Y331554D01*
X105863Y331561D01*
X106599Y331614D01*
X106898Y331660D01*
X107151Y331720D01*
X107358Y331793D01*
X107520Y331879D01*
X107634Y331978D01*
X107704Y332090D01*
X107727Y332216D01*
X107757Y327984D01*
D02*
G37*
G36*
X79119Y330243D02*
X78903Y330166D01*
X78713Y330037D01*
X78548Y329857D01*
X78408Y329626D01*
X78293Y329343D01*
X78205Y329009D01*
X78141Y328623D01*
X78103Y328186D01*
X78090Y327698D01*
X75550D01*
X75538Y328186D01*
X75500Y328623D01*
X75436Y329009D01*
X75347Y329343D01*
X75233Y329626D01*
X75093Y329857D01*
X74928Y330037D01*
X74738Y330166D01*
X74522Y330243D01*
X74280Y330269D01*
X79360D01*
X79119Y330243D01*
D02*
G37*
G36*
X279585Y332499D02*
X279661Y332283D01*
X279788Y332092D01*
X279966Y331927D01*
X280194Y331787D01*
X280474Y331673D01*
X280804Y331584D01*
X281185Y331521D01*
X281617Y331483D01*
X282099Y331470D01*
Y328930D01*
X281617Y328917D01*
X281185Y328879D01*
X280804Y328816D01*
X280474Y328727D01*
X280194Y328613D01*
X279966Y328473D01*
X279788Y328308D01*
X279661Y328117D01*
X279585Y327901D01*
X279559Y327660D01*
Y332740D01*
X279585Y332499D01*
D02*
G37*
G36*
X356063Y329553D02*
X356101Y329117D01*
X356164Y328731D01*
X356253Y328397D01*
X356368Y328114D01*
X356507Y327883D01*
X356672Y327703D01*
X356863Y327574D01*
X357079Y327497D01*
X357320Y327471D01*
X352240D01*
X352481Y327497D01*
X352697Y327574D01*
X352888Y327703D01*
X353053Y327883D01*
X353193Y328114D01*
X353307Y328397D01*
X353396Y328731D01*
X353459Y329117D01*
X353497Y329553D01*
X353510Y330042D01*
X356050D01*
X356063Y329553D01*
D02*
G37*
G36*
X389210Y329039D02*
X389240Y328653D01*
X389290Y328312D01*
X389360Y328017D01*
X389450Y327767D01*
X389560Y327563D01*
X389690Y327404D01*
X389840Y327291D01*
X390010Y327223D01*
X390200Y327200D01*
X386690D01*
X386685Y327223D01*
X386679Y327291D01*
X386665Y328017D01*
X386660Y329470D01*
X389200D01*
X389210Y329039D01*
D02*
G37*
G36*
X209240Y329540D02*
X209057Y329515D01*
X208894Y329439D01*
X208750Y329312D01*
X208626Y329134D01*
X208520Y328905D01*
X208433Y328626D01*
X208366Y328296D01*
X208318Y327915D01*
X208290Y327483D01*
X208280Y327001D01*
X205740D01*
X205727Y327487D01*
X205689Y327923D01*
X205626Y328308D01*
X205537Y328642D01*
X205422Y328924D01*
X205283Y329156D01*
X205118Y329336D01*
X204927Y329466D01*
X204711Y329544D01*
X204470Y329571D01*
X209240Y329540D01*
D02*
G37*
G36*
X177151Y331295D02*
X177228Y331079D01*
X177357Y330889D01*
X177537Y330724D01*
X177768Y330584D01*
X178051Y330470D01*
X178385Y330381D01*
X178770Y330317D01*
X179207Y330279D01*
X179696Y330266D01*
Y327727D01*
X179207Y327714D01*
X178770Y327676D01*
X178385Y327612D01*
X178051Y327523D01*
X177768Y327409D01*
X177537Y327269D01*
X177357Y327104D01*
X177228Y326914D01*
X177151Y326698D01*
X177125Y326456D01*
Y331536D01*
X177151Y331295D01*
D02*
G37*
G36*
X370211Y321742D02*
X370185Y321984D01*
X370108Y322200D01*
X369980Y322390D01*
X369800Y322555D01*
X369568Y322695D01*
X369286Y322809D01*
X368951Y322898D01*
X368566Y322962D01*
X368129Y323000D01*
X367640Y323012D01*
Y325552D01*
X368129Y325565D01*
X368566Y325603D01*
X368951Y325667D01*
X369286Y325756D01*
X369568Y325870D01*
X369800Y326009D01*
X369980Y326175D01*
X370108Y326365D01*
X370185Y326581D01*
X370211Y326822D01*
Y321742D01*
D02*
G37*
G36*
X362370Y326581D02*
X362447Y326365D01*
X362575Y326175D01*
X362755Y326009D01*
X362987Y325870D01*
X363270Y325756D01*
X363604Y325667D01*
X363989Y325603D01*
X364426Y325565D01*
X364915Y325552D01*
Y323012D01*
X364426Y323000D01*
X363989Y322962D01*
X363604Y322898D01*
X363270Y322809D01*
X362987Y322695D01*
X362755Y322555D01*
X362575Y322390D01*
X362447Y322200D01*
X362370Y321984D01*
X362344Y321742D01*
Y326822D01*
X362370Y326581D01*
D02*
G37*
G36*
X74846Y322000D02*
X74320Y321457D01*
X73500Y320493D01*
X73205Y320072D01*
X72987Y319692D01*
X72846Y319354D01*
X72782Y319056D01*
X72794Y318799D01*
X72883Y318583D01*
X73050Y318408D01*
X68957Y321500D01*
X69177Y321379D01*
X69429Y321325D01*
X69710Y321337D01*
X70023Y321416D01*
X70367Y321562D01*
X70742Y321776D01*
X71147Y322055D01*
X71584Y322402D01*
X72051Y322816D01*
X72550Y323296D01*
X74846Y322000D01*
D02*
G37*
G36*
X208293Y322901D02*
X208331Y322464D01*
X208394Y322078D01*
X208483Y321744D01*
X208598Y321461D01*
X208737Y321230D01*
X208902Y321050D01*
X209093Y320922D01*
X209309Y320844D01*
X209550Y320819D01*
X204470D01*
X204711Y320844D01*
X204927Y320922D01*
X205118Y321050D01*
X205283Y321230D01*
X205422Y321461D01*
X205537Y321744D01*
X205626Y322078D01*
X205689Y322464D01*
X205727Y322901D01*
X205740Y323389D01*
X208280D01*
X208293Y322901D01*
D02*
G37*
G36*
X402659Y320690D02*
X402633Y320932D01*
X402556Y321147D01*
X402427Y321338D01*
X402247Y321503D01*
X402016Y321643D01*
X401733Y321757D01*
X401399Y321846D01*
X401013Y321909D01*
X400576Y321948D01*
X400088Y321960D01*
Y324500D01*
X400576Y324513D01*
X401013Y324551D01*
X401399Y324614D01*
X401733Y324703D01*
X402016Y324818D01*
X402247Y324957D01*
X402427Y325122D01*
X402556Y325313D01*
X402633Y325529D01*
X402659Y325770D01*
Y320690D01*
D02*
G37*
G36*
X395625Y325529D02*
X395702Y325313D01*
X395830Y325122D01*
X396010Y324957D01*
X396242Y324818D01*
X396524Y324703D01*
X396859Y324614D01*
X397244Y324551D01*
X397681Y324513D01*
X398170Y324500D01*
Y321960D01*
X397681Y321948D01*
X397244Y321909D01*
X396859Y321846D01*
X396524Y321757D01*
X396242Y321643D01*
X396010Y321503D01*
X395830Y321338D01*
X395702Y321147D01*
X395625Y320932D01*
X395599Y320690D01*
Y325770D01*
X395625Y325529D01*
D02*
G37*
G36*
X107757Y315610D02*
X107730Y315851D01*
X107651Y316067D01*
X107521Y316258D01*
X107341Y316423D01*
X107109Y316563D01*
X106827Y316677D01*
X106493Y316766D01*
X106109Y316829D01*
X105673Y316868D01*
X105187Y316880D01*
Y319420D01*
X107727Y319516D01*
X107757Y315610D01*
D02*
G37*
G36*
X98444Y320449D02*
X98521Y320233D01*
X98650Y320042D01*
X98830Y319877D01*
X99061Y319738D01*
X99344Y319623D01*
X99678Y319534D01*
X100064Y319471D01*
X100501Y319433D01*
X100989Y319420D01*
Y316880D01*
X100501Y316868D01*
X100064Y316829D01*
X99678Y316766D01*
X99344Y316677D01*
X99061Y316563D01*
X98830Y316423D01*
X98650Y316258D01*
X98521Y316067D01*
X98444Y315851D01*
X98419Y315610D01*
Y320690D01*
X98444Y320449D01*
D02*
G37*
G36*
X93602Y314211D02*
X93385Y314329D01*
X93136Y314381D01*
X92856Y314366D01*
X92544Y314283D01*
X92201Y314134D01*
X91826Y313918D01*
X91419Y313635D01*
X90981Y313285D01*
X90010Y312385D01*
X87714Y313681D01*
X88242Y314227D01*
X89068Y315194D01*
X89366Y315615D01*
X89587Y315995D01*
X89731Y316334D01*
X89799Y316631D01*
X89790Y316886D01*
X89703Y317100D01*
X89541Y317273D01*
X93602Y314211D01*
D02*
G37*
G36*
X187332Y313757D02*
X187306Y313998D01*
X187229Y314214D01*
X187100Y314404D01*
X186920Y314569D01*
X186689Y314709D01*
X186406Y314823D01*
X186072Y314912D01*
X185686Y314976D01*
X185249Y315014D01*
X184761Y315026D01*
Y317567D01*
X185249Y317579D01*
X185686Y317617D01*
X186072Y317681D01*
X186406Y317770D01*
X186689Y317884D01*
X186920Y318024D01*
X187100Y318189D01*
X187229Y318379D01*
X187306Y318595D01*
X187332Y318836D01*
Y313757D01*
D02*
G37*
G36*
X177151Y318595D02*
X177228Y318379D01*
X177357Y318189D01*
X177537Y318024D01*
X177768Y317884D01*
X178051Y317770D01*
X178385Y317681D01*
X178770Y317617D01*
X179207Y317579D01*
X179696Y317567D01*
Y315026D01*
X179207Y315014D01*
X178770Y314976D01*
X178385Y314912D01*
X178051Y314823D01*
X177768Y314709D01*
X177537Y314569D01*
X177357Y314404D01*
X177228Y314214D01*
X177151Y313998D01*
X177125Y313757D01*
Y318836D01*
X177151Y318595D01*
D02*
G37*
G36*
X380916Y313200D02*
X380410Y312676D01*
X379613Y311739D01*
X379323Y311325D01*
X379104Y310947D01*
X378957Y310606D01*
X378883Y310302D01*
X378880Y310034D01*
X378948Y309802D01*
X379089Y309608D01*
X375527Y313169D01*
X375722Y313029D01*
X375954Y312960D01*
X376222Y312963D01*
X376526Y313038D01*
X376867Y313185D01*
X377244Y313403D01*
X377658Y313694D01*
X378109Y314056D01*
X379119Y314996D01*
X380916Y313200D01*
D02*
G37*
G36*
X196102Y317014D02*
X196059Y316757D01*
X196080Y316471D01*
X196166Y316155D01*
X196316Y315811D01*
X196531Y315437D01*
X196811Y315034D01*
X197155Y314602D01*
X197563Y314140D01*
X198036Y313650D01*
X196980Y311114D01*
X196423Y311653D01*
X195441Y312493D01*
X195016Y312795D01*
X194635Y313017D01*
X194298Y313160D01*
X194004Y313224D01*
X193755Y313209D01*
X193549Y313114D01*
X193387Y312941D01*
X196210Y317242D01*
X196102Y317014D01*
D02*
G37*
G36*
X370211Y309042D02*
X370184Y309284D01*
X370105Y309499D01*
X369976Y309690D01*
X369795Y309855D01*
X369564Y309995D01*
X369281Y310109D01*
X368947Y310198D01*
X368563Y310261D01*
X368127Y310300D01*
X367640Y310312D01*
Y312852D01*
X368123Y312856D01*
X369774Y312977D01*
X369952Y313023D01*
X370079Y313075D01*
X370155Y313134D01*
X370181Y313200D01*
X370211Y309042D01*
D02*
G37*
G36*
X362370Y313881D02*
X362447Y313665D01*
X362575Y313475D01*
X362755Y313309D01*
X362987Y313170D01*
X363270Y313055D01*
X363604Y312967D01*
X363989Y312903D01*
X364426Y312865D01*
X364915Y312852D01*
Y310312D01*
X364426Y310300D01*
X363989Y310261D01*
X363604Y310198D01*
X363270Y310109D01*
X362987Y309995D01*
X362755Y309855D01*
X362575Y309690D01*
X362447Y309499D01*
X362370Y309284D01*
X362344Y309042D01*
Y314122D01*
X362370Y313881D01*
D02*
G37*
G36*
X402659Y306690D02*
X402633Y306932D01*
X402556Y307148D01*
X402427Y307338D01*
X402247Y307503D01*
X402016Y307643D01*
X401733Y307757D01*
X401399Y307846D01*
X401013Y307910D01*
X400576Y307948D01*
X400088Y307960D01*
Y310500D01*
X400576Y310513D01*
X401013Y310551D01*
X401399Y310615D01*
X401733Y310704D01*
X402016Y310818D01*
X402247Y310958D01*
X402427Y311123D01*
X402556Y311313D01*
X402633Y311529D01*
X402659Y311770D01*
Y306690D01*
D02*
G37*
G36*
X395625Y311529D02*
X395702Y311313D01*
X395830Y311123D01*
X396010Y310958D01*
X396242Y310818D01*
X396524Y310704D01*
X396859Y310615D01*
X397244Y310551D01*
X397681Y310513D01*
X398170Y310500D01*
Y307960D01*
X397681Y307948D01*
X397244Y307910D01*
X396859Y307846D01*
X396524Y307757D01*
X396242Y307643D01*
X396010Y307503D01*
X395830Y307338D01*
X395702Y307148D01*
X395625Y306932D01*
X395599Y306690D01*
Y311770D01*
X395625Y311529D01*
D02*
G37*
G36*
X307992Y308339D02*
X307864Y308269D01*
X307751Y308151D01*
X307653Y307986D01*
X307570Y307775D01*
X307502Y307516D01*
X307450Y307210D01*
X307412Y306857D01*
X307382Y306011D01*
X304842D01*
X304831Y306458D01*
X304799Y306857D01*
X304745Y307210D01*
X304669Y307516D01*
X304572Y307775D01*
X304453Y307986D01*
X304312Y308151D01*
X304150Y308269D01*
X303966Y308339D01*
X303760Y308363D01*
X308134D01*
X307992Y308339D01*
D02*
G37*
G36*
X203542Y308162D02*
X204450Y307395D01*
X204856Y307112D01*
X205231Y306896D01*
X205575Y306747D01*
X205886Y306665D01*
X206167Y306649D01*
X206416Y306700D01*
X206633Y306819D01*
X202571Y303757D01*
X202734Y303930D01*
X202820Y304144D01*
X202829Y304399D01*
X202762Y304696D01*
X202618Y305035D01*
X202397Y305415D01*
X202099Y305836D01*
X201724Y306299D01*
X200744Y307349D01*
X203041Y308645D01*
X203542Y308162D01*
D02*
G37*
G36*
X107757Y301610D02*
X107731Y301852D01*
X107654Y302068D01*
X107526Y302258D01*
X107346Y302423D01*
X107114Y302563D01*
X106832Y302677D01*
X106497Y302766D01*
X106112Y302829D01*
X105675Y302868D01*
X105187Y302880D01*
Y305420D01*
X105675Y305433D01*
X106112Y305471D01*
X106497Y305535D01*
X106832Y305623D01*
X107114Y305738D01*
X107346Y305877D01*
X107526Y306043D01*
X107654Y306233D01*
X107731Y306449D01*
X107757Y306690D01*
Y301610D01*
D02*
G37*
G36*
X98444Y306449D02*
X98521Y306233D01*
X98650Y306043D01*
X98830Y305877D01*
X99061Y305738D01*
X99344Y305623D01*
X99678Y305535D01*
X100064Y305471D01*
X100501Y305433D01*
X100989Y305420D01*
Y302880D01*
X100501Y302868D01*
X100064Y302829D01*
X99678Y302766D01*
X99344Y302677D01*
X99061Y302563D01*
X98830Y302423D01*
X98650Y302258D01*
X98521Y302068D01*
X98444Y301852D01*
X98419Y301610D01*
Y306690D01*
X98444Y306449D01*
D02*
G37*
G36*
X187332Y301056D02*
X187306Y301298D01*
X187229Y301514D01*
X187100Y301704D01*
X186920Y301869D01*
X186689Y302009D01*
X186406Y302123D01*
X186072Y302212D01*
X185686Y302276D01*
X185249Y302314D01*
X184761Y302327D01*
Y304867D01*
X185249Y304879D01*
X185686Y304917D01*
X186072Y304981D01*
X186406Y305070D01*
X186689Y305184D01*
X186920Y305324D01*
X187100Y305489D01*
X187229Y305679D01*
X187306Y305895D01*
X187332Y306136D01*
Y301056D01*
D02*
G37*
G36*
X177151Y305895D02*
X177228Y305679D01*
X177357Y305489D01*
X177537Y305324D01*
X177768Y305184D01*
X178051Y305070D01*
X178385Y304981D01*
X178770Y304917D01*
X179207Y304879D01*
X179696Y304867D01*
Y302327D01*
X179207Y302314D01*
X178770Y302276D01*
X178385Y302212D01*
X178051Y302123D01*
X177768Y302009D01*
X177537Y301869D01*
X177357Y301704D01*
X177228Y301514D01*
X177151Y301298D01*
X177125Y301056D01*
Y306136D01*
X177151Y305895D01*
D02*
G37*
G36*
X73045Y305829D02*
X73122Y305613D01*
X73250Y305422D01*
X73430Y305257D01*
X73662Y305117D01*
X73944Y305003D01*
X74279Y304914D01*
X74664Y304851D01*
X75101Y304813D01*
X75589Y304800D01*
Y302260D01*
X75101Y302247D01*
X74664Y302209D01*
X74279Y302146D01*
X73944Y302057D01*
X73662Y301943D01*
X73430Y301803D01*
X73250Y301638D01*
X73122Y301447D01*
X73045Y301231D01*
X73019Y300990D01*
Y306070D01*
X73045Y305829D01*
D02*
G37*
G36*
X268975Y333148D02*
X269050Y332772D01*
Y323883D01*
X275940D01*
X276426Y322710D01*
X268246Y314530D01*
X259660D01*
Y301800D01*
X259660Y301450D01*
Y300530D01*
X258562Y299764D01*
X247070D01*
Y302069D01*
X247070Y302419D01*
Y303340D01*
X247070Y303689D01*
Y312252D01*
X247141Y312610D01*
Y315849D01*
X247144Y315851D01*
X248314Y317879D01*
X248920Y320140D01*
Y322480D01*
X248314Y324741D01*
X247144Y326769D01*
X245489Y328424D01*
X243461Y329594D01*
X241200Y330200D01*
X238860D01*
X237082Y329724D01*
X236424Y330862D01*
X240767Y335205D01*
X268975D01*
Y333148D01*
D02*
G37*
G36*
X262230Y295100D02*
X259690Y294610D01*
Y297150D01*
X260177Y297162D01*
X260612Y297200D01*
X260996Y297264D01*
X261330Y297353D01*
X261612Y297467D01*
X261844Y297607D01*
X262025Y297772D01*
X262154Y297962D01*
X262233Y298178D01*
X262261Y298419D01*
X262230Y295100D01*
D02*
G37*
G36*
X244495Y298178D02*
X244572Y297962D01*
X244700Y297772D01*
X244880Y297607D01*
X245112Y297467D01*
X245394Y297353D01*
X245729Y297264D01*
X246114Y297200D01*
X246551Y297162D01*
X247040Y297150D01*
Y294610D01*
X246551Y294597D01*
X246114Y294559D01*
X245729Y294495D01*
X245394Y294406D01*
X245112Y294292D01*
X244880Y294152D01*
X244700Y293987D01*
X244572Y293797D01*
X244495Y293581D01*
X244469Y293340D01*
Y298419D01*
X244495Y298178D01*
D02*
G37*
G36*
X235591Y293340D02*
X235565Y293581D01*
X235488Y293797D01*
X235360Y293987D01*
X235180Y294152D01*
X234948Y294292D01*
X234666Y294406D01*
X234331Y294495D01*
X233946Y294559D01*
X233509Y294597D01*
X233020Y294610D01*
Y297150D01*
X233509Y297162D01*
X233946Y297200D01*
X234331Y297264D01*
X234666Y297353D01*
X234948Y297467D01*
X235180Y297607D01*
X235360Y297772D01*
X235488Y297962D01*
X235565Y298178D01*
X235591Y298419D01*
Y293340D01*
D02*
G37*
G36*
X348164Y296939D02*
X348241Y296723D01*
X348370Y296532D01*
X348550Y296367D01*
X348781Y296227D01*
X349064Y296113D01*
X349398Y296024D01*
X349784Y295961D01*
X350221Y295923D01*
X350709Y295910D01*
Y293370D01*
X350221Y293357D01*
X349784Y293319D01*
X349398Y293256D01*
X349064Y293167D01*
X348781Y293053D01*
X348550Y292913D01*
X348370Y292748D01*
X348241Y292557D01*
X348164Y292341D01*
X348139Y292100D01*
Y297180D01*
X348164Y296939D01*
D02*
G37*
G36*
X326230Y292100D02*
X326205Y292341D01*
X326128Y292557D01*
X326001Y292748D01*
X325824Y292913D01*
X325595Y293053D01*
X325316Y293167D01*
X324985Y293256D01*
X324604Y293319D01*
X324173Y293357D01*
X323690Y293370D01*
Y295910D01*
X324173Y295923D01*
X324604Y295961D01*
X324985Y296024D01*
X325316Y296113D01*
X325595Y296227D01*
X325824Y296367D01*
X326001Y296532D01*
X326128Y296723D01*
X326205Y296939D01*
X326230Y297180D01*
Y292100D01*
D02*
G37*
G36*
X99043Y292271D02*
X99081Y291834D01*
X99144Y291449D01*
X99233Y291114D01*
X99347Y290832D01*
X99487Y290600D01*
X99652Y290420D01*
X99843Y290292D01*
X100059Y290215D01*
X100300Y290189D01*
X95220D01*
X95461Y290215D01*
X95677Y290292D01*
X95868Y290420D01*
X96033Y290600D01*
X96173Y290832D01*
X96287Y291114D01*
X96376Y291449D01*
X96439Y291834D01*
X96477Y292271D01*
X96490Y292759D01*
X99030D01*
X99043Y292271D01*
D02*
G37*
G36*
X115725Y288049D02*
X115802Y287833D01*
X115930Y287642D01*
X116110Y287477D01*
X116342Y287337D01*
X116624Y287223D01*
X116959Y287134D01*
X117344Y287071D01*
X117781Y287033D01*
X118270Y287020D01*
Y284480D01*
X117781Y284467D01*
X117344Y284429D01*
X116959Y284366D01*
X116624Y284277D01*
X116342Y284163D01*
X116110Y284023D01*
X115930Y283858D01*
X115802Y283667D01*
X115725Y283451D01*
X115699Y283210D01*
Y288290D01*
X115725Y288049D01*
D02*
G37*
G36*
X85900Y221590D02*
X85746Y221565D01*
X85608Y221489D01*
X85487Y221362D01*
X85381Y221184D01*
X85292Y220956D01*
X85220Y220676D01*
X85163Y220346D01*
X85122Y219965D01*
X85090Y219051D01*
X82550D01*
X82537Y219537D01*
X82499Y219973D01*
X82436Y220358D01*
X82347Y220692D01*
X82233Y220974D01*
X82093Y221206D01*
X81928Y221386D01*
X81737Y221516D01*
X81521Y221594D01*
X81280Y221621D01*
X85900Y221590D01*
D02*
G37*
G36*
X85103Y214957D02*
X85141Y214525D01*
X85204Y214144D01*
X85293Y213814D01*
X85407Y213535D01*
X85547Y213306D01*
X85712Y213128D01*
X85903Y213001D01*
X86119Y212925D01*
X86360Y212900D01*
X81280D01*
X81521Y212925D01*
X81737Y213001D01*
X81928Y213128D01*
X82093Y213306D01*
X82233Y213535D01*
X82347Y213814D01*
X82436Y214144D01*
X82499Y214525D01*
X82537Y214957D01*
X82550Y215440D01*
X85090D01*
X85103Y214957D01*
D02*
G37*
G36*
X115640Y206936D02*
X115615Y207073D01*
X115539Y207196D01*
X115412Y207305D01*
X115234Y207399D01*
X115006Y207479D01*
X114726Y207544D01*
X114396Y207595D01*
X114015Y207631D01*
X113101Y207660D01*
Y210200D01*
X113583Y210213D01*
X114015Y210251D01*
X114396Y210315D01*
X114726Y210403D01*
X115006Y210518D01*
X115234Y210657D01*
X115412Y210823D01*
X115539Y211013D01*
X115615Y211229D01*
X115640Y211470D01*
Y206936D01*
D02*
G37*
G36*
X88285Y211229D02*
X88362Y211013D01*
X88490Y210823D01*
X88670Y210657D01*
X88902Y210518D01*
X89184Y210403D01*
X89519Y210315D01*
X89904Y210251D01*
X90341Y210213D01*
X90829Y210200D01*
Y207660D01*
X90341Y207647D01*
X89904Y207609D01*
X89519Y207546D01*
X89184Y207457D01*
X88902Y207343D01*
X88670Y207203D01*
X88490Y207038D01*
X88362Y206847D01*
X88285Y206632D01*
X88259Y206390D01*
Y211470D01*
X88285Y211229D01*
D02*
G37*
G36*
X79381Y206390D02*
X79355Y206632D01*
X79278Y206847D01*
X79150Y207038D01*
X78970Y207203D01*
X78738Y207343D01*
X78456Y207457D01*
X78121Y207546D01*
X77736Y207609D01*
X77299Y207647D01*
X76810Y207660D01*
Y210200D01*
X77299Y210213D01*
X77736Y210251D01*
X78121Y210315D01*
X78456Y210403D01*
X78738Y210518D01*
X78970Y210657D01*
X79150Y210823D01*
X79278Y211013D01*
X79355Y211229D01*
X79381Y211470D01*
Y206390D01*
D02*
G37*
G36*
X64155Y209309D02*
X64232Y209093D01*
X64360Y208902D01*
X64540Y208737D01*
X64772Y208598D01*
X65054Y208483D01*
X65389Y208394D01*
X65774Y208331D01*
X66211Y208293D01*
X66700Y208280D01*
Y205740D01*
X66211Y205727D01*
X65774Y205689D01*
X65389Y205626D01*
X65054Y205537D01*
X64772Y205422D01*
X64540Y205283D01*
X64360Y205118D01*
X64232Y204927D01*
X64155Y204711D01*
X64129Y204470D01*
Y209550D01*
X64155Y209309D01*
D02*
G37*
G36*
X79351Y190961D02*
X79325Y191109D01*
X79249Y191241D01*
X79122Y191358D01*
X78944Y191460D01*
X78716Y191545D01*
X78436Y191615D01*
X78106Y191670D01*
X77725Y191709D01*
X76810Y191740D01*
Y194280D01*
X77297Y194293D01*
X77733Y194331D01*
X78118Y194394D01*
X78452Y194483D01*
X78734Y194597D01*
X78966Y194737D01*
X79146Y194902D01*
X79275Y195093D01*
X79354Y195309D01*
X79381Y195550D01*
X79351Y190961D01*
D02*
G37*
G36*
X61989Y189015D02*
X61773Y188939D01*
X61582Y188812D01*
X61417Y188634D01*
X61277Y188405D01*
X61163Y188126D01*
X61074Y187796D01*
X61011Y187415D01*
X60973Y186983D01*
X60960Y186500D01*
X58420D01*
X58407Y186983D01*
X58369Y187415D01*
X58306Y187796D01*
X58217Y188126D01*
X58102Y188405D01*
X57963Y188634D01*
X57798Y188812D01*
X57607Y188939D01*
X57391Y189015D01*
X57150Y189041D01*
X62230D01*
X61989Y189015D01*
D02*
G37*
G36*
X160033Y188131D02*
X160071Y187694D01*
X160134Y187309D01*
X160223Y186974D01*
X160338Y186692D01*
X160477Y186460D01*
X160642Y186280D01*
X160833Y186152D01*
X161049Y186075D01*
X161290Y186049D01*
X156210D01*
X156451Y186075D01*
X156667Y186152D01*
X156858Y186280D01*
X157023Y186460D01*
X157163Y186692D01*
X157277Y186974D01*
X157366Y187309D01*
X157429Y187694D01*
X157467Y188131D01*
X157480Y188619D01*
X160020D01*
X160033Y188131D01*
D02*
G37*
G36*
X64148Y194799D02*
X64207Y194690D01*
X64304Y194594D01*
X64440Y194511D01*
X64614Y194440D01*
X64828Y194382D01*
X65080Y194338D01*
X65371Y194306D01*
X66070Y194280D01*
X71370Y191879D01*
X71929Y191821D01*
X73597Y191770D01*
X67310Y185483D01*
X67302Y186345D01*
X67181Y187903D01*
X67069Y188598D01*
X66922Y189239D01*
X66741Y189825D01*
X66525Y190355D01*
X66293Y190793D01*
X66195Y190860D01*
X65784Y191093D01*
X65358Y191291D01*
X64917Y191453D01*
X64550Y191554D01*
X64440Y191509D01*
X64304Y191426D01*
X64207Y191330D01*
X64148Y191221D01*
X64129Y191100D01*
Y191642D01*
X63990Y191668D01*
X63505Y191722D01*
X63004Y191740D01*
X64129Y192672D01*
Y194921D01*
X64148Y194799D01*
D02*
G37*
G36*
X59082Y181781D02*
X59120Y181344D01*
X59184Y180959D01*
X59273Y180624D01*
X59387Y180342D01*
X59527Y180110D01*
X59692Y179930D01*
X59882Y179802D01*
X60098Y179725D01*
X60340Y179699D01*
X55260D01*
X55501Y179725D01*
X55717Y179802D01*
X55907Y179930D01*
X56073Y180110D01*
X56212Y180342D01*
X56326Y180624D01*
X56415Y180959D01*
X56479Y181344D01*
X56517Y181781D01*
X56530Y182269D01*
X59070D01*
X59082Y181781D01*
D02*
G37*
G36*
X161049Y177145D02*
X160833Y177068D01*
X160642Y176940D01*
X160477Y176760D01*
X160338Y176528D01*
X160223Y176246D01*
X160134Y175911D01*
X160071Y175526D01*
X160033Y175089D01*
X160020Y174601D01*
X157480D01*
X157467Y175089D01*
X157429Y175526D01*
X157366Y175911D01*
X157277Y176246D01*
X157163Y176528D01*
X157023Y176760D01*
X156858Y176940D01*
X156667Y177068D01*
X156451Y177145D01*
X156210Y177171D01*
X161290D01*
X161049Y177145D01*
D02*
G37*
G36*
X144991Y177143D02*
X144775Y177065D01*
X144584Y176935D01*
X144419Y176755D01*
X144280Y176523D01*
X144165Y176241D01*
X144076Y175907D01*
X144013Y175523D01*
X143975Y175087D01*
X143962Y174601D01*
X141422D01*
X141453Y177141D01*
X145232Y177171D01*
X144991Y177143D01*
D02*
G37*
G36*
X160032Y166342D02*
X160068Y165910D01*
X160128Y165529D01*
X160212Y165199D01*
X160320Y164919D01*
X160452Y164691D01*
X160608Y164513D01*
X160788Y164386D01*
X160992Y164310D01*
X161220Y164284D01*
X156280D01*
X156508Y164310D01*
X156712Y164386D01*
X156892Y164513D01*
X157048Y164691D01*
X157180Y164919D01*
X157288Y165199D01*
X157372Y165529D01*
X157432Y165910D01*
X157468Y166342D01*
X157480Y166824D01*
X160020D01*
X160032Y166342D01*
D02*
G37*
G36*
Y143102D02*
X160068Y142670D01*
X160128Y142289D01*
X160212Y141959D01*
X160320Y141679D01*
X160452Y141451D01*
X160608Y141273D01*
X160788Y141146D01*
X160992Y141070D01*
X161220Y141045D01*
X156280D01*
X156508Y141070D01*
X156712Y141146D01*
X156892Y141273D01*
X157048Y141451D01*
X157180Y141679D01*
X157288Y141959D01*
X157372Y142289D01*
X157432Y142670D01*
X157468Y143102D01*
X157480Y143584D01*
X160020D01*
X160032Y143102D01*
D02*
G37*
G36*
X143590Y136480D02*
X143419Y136302D01*
X143154Y135979D01*
X143059Y135834D01*
X142990Y135699D01*
X142946Y135576D01*
X142928Y135464D01*
X142935Y135363D01*
X142967Y135273D01*
X143025Y135193D01*
X139955Y136974D01*
X140051Y136968D01*
X140166Y136992D01*
X140301Y137047D01*
X140456Y137131D01*
X140630Y137246D01*
X140824Y137392D01*
X141270Y137773D01*
X141794Y138276D01*
X143590Y136480D01*
D02*
G37*
G36*
X159460Y130366D02*
X159365Y130310D01*
X159282Y130217D01*
X159209Y130086D01*
X159148Y129919D01*
X159098Y129715D01*
X159059Y129474D01*
X159031Y129196D01*
X159009Y128529D01*
X156469D01*
X156467Y128876D01*
X156376Y130191D01*
X156348Y130282D01*
X156316Y130337D01*
X156280Y130356D01*
X159565Y130386D01*
X159460Y130366D01*
D02*
G37*
G36*
X142529Y111633D02*
X142608Y110659D01*
X142655Y110421D01*
X142713Y110226D01*
X142782Y110074D01*
X142860Y109966D01*
X142950Y109901D01*
X143050Y109880D01*
X139089Y109849D01*
X139260Y109872D01*
X139411Y109939D01*
X139546Y110049D01*
X139662Y110204D01*
X139760Y110401D01*
X139841Y110642D01*
X139903Y110927D01*
X139948Y111256D01*
X139975Y111628D01*
X139984Y112044D01*
X142524D01*
X142529Y111633D01*
D02*
G37*
G36*
X140109Y100945D02*
X139893Y100868D01*
X139703Y100740D01*
X139537Y100560D01*
X139398Y100328D01*
X139283Y100046D01*
X139194Y99711D01*
X139131Y99326D01*
X139093Y98889D01*
X139080Y98400D01*
X136540D01*
X136528Y98889D01*
X136489Y99326D01*
X136426Y99711D01*
X136337Y100046D01*
X136223Y100328D01*
X136083Y100560D01*
X135918Y100740D01*
X135727Y100868D01*
X135512Y100945D01*
X135270Y100971D01*
X140350D01*
X140109Y100945D01*
D02*
G37*
G36*
X139093Y96691D02*
X139131Y96254D01*
X139194Y95869D01*
X139283Y95534D01*
X139398Y95252D01*
X139537Y95020D01*
X139703Y94840D01*
X139893Y94712D01*
X140109Y94635D01*
X140350Y94609D01*
X135270D01*
X135512Y94635D01*
X135727Y94712D01*
X135918Y94840D01*
X136083Y95020D01*
X136223Y95252D01*
X136337Y95534D01*
X136426Y95869D01*
X136489Y96254D01*
X136528Y96691D01*
X136540Y97179D01*
X139080D01*
X139093Y96691D01*
D02*
G37*
G36*
X140109Y85705D02*
X139893Y85628D01*
X139703Y85500D01*
X139537Y85320D01*
X139398Y85088D01*
X139283Y84806D01*
X139194Y84471D01*
X139131Y84086D01*
X139093Y83649D01*
X139080Y83160D01*
X136540D01*
X136528Y83649D01*
X136489Y84086D01*
X136426Y84471D01*
X136337Y84806D01*
X136223Y85088D01*
X136083Y85320D01*
X135918Y85500D01*
X135727Y85628D01*
X135512Y85705D01*
X135270Y85731D01*
X140350D01*
X140109Y85705D01*
D02*
G37*
G36*
X126109D02*
X125893Y85628D01*
X125703Y85500D01*
X125538Y85320D01*
X125398Y85088D01*
X125283Y84806D01*
X125195Y84471D01*
X125131Y84086D01*
X125093Y83649D01*
X125080Y83160D01*
X122540D01*
X122528Y83649D01*
X122490Y84086D01*
X122426Y84471D01*
X122337Y84806D01*
X122223Y85088D01*
X122083Y85320D01*
X121918Y85500D01*
X121728Y85628D01*
X121512Y85705D01*
X121270Y85731D01*
X126350D01*
X126109Y85705D01*
D02*
G37*
G36*
X139093Y81451D02*
X139131Y81014D01*
X139194Y80629D01*
X139283Y80294D01*
X139398Y80012D01*
X139537Y79780D01*
X139703Y79600D01*
X139893Y79472D01*
X140109Y79395D01*
X140350Y79369D01*
X135270D01*
X135512Y79395D01*
X135727Y79472D01*
X135918Y79600D01*
X136083Y79780D01*
X136223Y80012D01*
X136337Y80294D01*
X136426Y80629D01*
X136489Y81014D01*
X136528Y81451D01*
X136540Y81939D01*
X139080D01*
X139093Y81451D01*
D02*
G37*
G36*
X125093D02*
X125131Y81014D01*
X125195Y80629D01*
X125283Y80294D01*
X125398Y80012D01*
X125538Y79780D01*
X125703Y79600D01*
X125893Y79472D01*
X126109Y79395D01*
X126350Y79369D01*
X121270D01*
X121512Y79395D01*
X121728Y79472D01*
X121918Y79600D01*
X122083Y79780D01*
X122223Y80012D01*
X122337Y80294D01*
X122426Y80629D01*
X122490Y81014D01*
X122528Y81451D01*
X122540Y81939D01*
X125080D01*
X125093Y81451D01*
D02*
G37*
G36*
X125762Y71778D02*
X125857Y71279D01*
X126016Y70765D01*
X126131Y70491D01*
X127000D01*
X126759Y70465D01*
X126543Y70388D01*
X126352Y70260D01*
X126272Y70172D01*
X126524Y69695D01*
X126873Y69138D01*
X127286Y68567D01*
X127762Y67981D01*
X128905Y66765D01*
X120015D01*
X120618Y67380D01*
X121634Y68567D01*
X122047Y69138D01*
X122396Y69695D01*
X122648Y70172D01*
X122568Y70260D01*
X122377Y70388D01*
X122161Y70465D01*
X121920Y70491D01*
X122789D01*
X122904Y70765D01*
X123063Y71279D01*
X123158Y71778D01*
X123190Y72262D01*
X125730D01*
X125762Y71778D01*
D02*
G37*
G36*
X381265Y210490D02*
X381238Y210507D01*
X381199Y210507D01*
X381149Y210491D01*
X381087Y210458D01*
X381013Y210410D01*
X380927Y210345D01*
X380721Y210166D01*
X380468Y209922D01*
X378672Y211718D01*
X379927Y213059D01*
X381265Y210490D01*
D02*
G37*
G36*
X375725Y213119D02*
X375802Y212903D01*
X375930Y212712D01*
X376110Y212547D01*
X376342Y212407D01*
X376624Y212293D01*
X376959Y212204D01*
X377344Y212141D01*
X377781Y212103D01*
X378270Y212090D01*
Y209550D01*
X377781Y209537D01*
X377344Y209499D01*
X376959Y209436D01*
X376624Y209347D01*
X376342Y209233D01*
X376110Y209093D01*
X375930Y208928D01*
X375802Y208737D01*
X375725Y208521D01*
X375699Y208280D01*
Y213360D01*
X375725Y213119D01*
D02*
G37*
G36*
X355821Y208280D02*
X355795Y208521D01*
X355718Y208737D01*
X355590Y208928D01*
X355410Y209093D01*
X355178Y209233D01*
X354896Y209347D01*
X354561Y209436D01*
X354176Y209499D01*
X353739Y209537D01*
X353251Y209550D01*
Y212090D01*
X353739Y212103D01*
X354176Y212141D01*
X354561Y212204D01*
X354896Y212293D01*
X355178Y212407D01*
X355410Y212547D01*
X355590Y212712D01*
X355718Y212903D01*
X355795Y213119D01*
X355821Y213360D01*
Y208280D01*
D02*
G37*
G36*
X461058Y207855D02*
X460842Y207778D01*
X460652Y207650D01*
X460487Y207470D01*
X460347Y207238D01*
X460233Y206956D01*
X460144Y206621D01*
X460080Y206236D01*
X460042Y205799D01*
X460030Y205310D01*
X457490D01*
X457477Y205799D01*
X457439Y206236D01*
X457375Y206621D01*
X457286Y206956D01*
X457172Y207238D01*
X457032Y207470D01*
X456867Y207650D01*
X456677Y207778D01*
X456461Y207855D01*
X456220Y207881D01*
X461300D01*
X461058Y207855D01*
D02*
G37*
G36*
X300276Y206585D02*
X300060Y206508D01*
X299870Y206380D01*
X299705Y206200D01*
X299565Y205968D01*
X299451Y205686D01*
X299362Y205351D01*
X299298Y204966D01*
X299260Y204529D01*
X299248Y204041D01*
X296708D01*
X296695Y204529D01*
X296657Y204966D01*
X296593Y205351D01*
X296504Y205686D01*
X296390Y205968D01*
X296250Y206200D01*
X296085Y206380D01*
X295895Y206508D01*
X295679Y206585D01*
X295438Y206611D01*
X300518D01*
X300276Y206585D01*
D02*
G37*
G36*
X460042Y203147D02*
X460080Y202715D01*
X460144Y202334D01*
X460233Y202004D01*
X460347Y201724D01*
X460487Y201496D01*
X460652Y201318D01*
X460842Y201191D01*
X461058Y201115D01*
X461300Y201089D01*
X456220D01*
X456461Y201115D01*
X456677Y201191D01*
X456867Y201318D01*
X457032Y201496D01*
X457172Y201724D01*
X457286Y202004D01*
X457375Y202334D01*
X457439Y202715D01*
X457477Y203147D01*
X457490Y203629D01*
X460030D01*
X460042Y203147D01*
D02*
G37*
G36*
X299260Y201877D02*
X299298Y201445D01*
X299362Y201064D01*
X299451Y200734D01*
X299565Y200455D01*
X299705Y200226D01*
X299870Y200048D01*
X300060Y199921D01*
X300276Y199845D01*
X300518Y199820D01*
X295438D01*
X295679Y199845D01*
X295895Y199921D01*
X296085Y200048D01*
X296250Y200226D01*
X296390Y200455D01*
X296504Y200734D01*
X296593Y201064D01*
X296657Y201445D01*
X296695Y201877D01*
X296708Y202360D01*
X299248D01*
X299260Y201877D01*
D02*
G37*
G36*
X288039Y194310D02*
X288013Y194551D01*
X287936Y194767D01*
X287807Y194958D01*
X287627Y195123D01*
X287396Y195263D01*
X287113Y195377D01*
X286779Y195466D01*
X286393Y195529D01*
X285956Y195567D01*
X285468Y195580D01*
Y198120D01*
X285956Y198133D01*
X286393Y198171D01*
X286779Y198234D01*
X287113Y198323D01*
X287396Y198438D01*
X287627Y198577D01*
X287807Y198742D01*
X287936Y198933D01*
X288013Y199149D01*
X288039Y199390D01*
Y194310D01*
D02*
G37*
G36*
X339925Y174329D02*
X340001Y174113D01*
X340128Y173922D01*
X340306Y173757D01*
X340535Y173618D01*
X340814Y173503D01*
X341144Y173414D01*
X341525Y173351D01*
X341957Y173313D01*
X342440Y173300D01*
Y170760D01*
X339900Y170791D01*
Y174570D01*
X339925Y174329D01*
D02*
G37*
G36*
X325499Y170795D02*
X325283Y170718D01*
X325092Y170590D01*
X324927Y170410D01*
X324787Y170178D01*
X324673Y169896D01*
X324584Y169561D01*
X324521Y169176D01*
X324482Y168739D01*
X324470Y168251D01*
X321930D01*
X321917Y168739D01*
X321879Y169176D01*
X321815Y169561D01*
X321727Y169896D01*
X321612Y170178D01*
X321473Y170410D01*
X321307Y170590D01*
X321117Y170718D01*
X320901Y170795D01*
X320660Y170821D01*
X325740D01*
X325499Y170795D01*
D02*
G37*
G36*
X448820Y157480D02*
X448795Y157721D01*
X448718Y157937D01*
X448589Y158128D01*
X448409Y158293D01*
X448178Y158433D01*
X447895Y158547D01*
X447561Y158636D01*
X447175Y158699D01*
X446738Y158737D01*
X446250Y158750D01*
Y161290D01*
X446738Y161303D01*
X447175Y161341D01*
X447561Y161404D01*
X447895Y161493D01*
X448178Y161607D01*
X448409Y161747D01*
X448589Y161912D01*
X448718Y162103D01*
X448795Y162319D01*
X448820Y162560D01*
Y157480D01*
D02*
G37*
G36*
X324482Y156381D02*
X324521Y155944D01*
X324584Y155559D01*
X324673Y155224D01*
X324787Y154942D01*
X324927Y154710D01*
X325092Y154530D01*
X325283Y154402D01*
X325499Y154325D01*
X325740Y154299D01*
X320660D01*
X320901Y154325D01*
X321117Y154402D01*
X321307Y154530D01*
X321473Y154710D01*
X321612Y154942D01*
X321727Y155224D01*
X321815Y155559D01*
X321879Y155944D01*
X321917Y156381D01*
X321930Y156869D01*
X324470D01*
X324482Y156381D01*
D02*
G37*
G36*
X288039Y143510D02*
X288013Y143751D01*
X287936Y143967D01*
X287807Y144158D01*
X287627Y144323D01*
X287396Y144462D01*
X287113Y144577D01*
X286779Y144666D01*
X286393Y144729D01*
X285956Y144767D01*
X285468Y144780D01*
Y147320D01*
X285956Y147333D01*
X286393Y147371D01*
X286779Y147434D01*
X287113Y147523D01*
X287396Y147638D01*
X287627Y147777D01*
X287807Y147942D01*
X287936Y148133D01*
X288013Y148349D01*
X288039Y148590D01*
Y143510D01*
D02*
G37*
G36*
X325499Y145395D02*
X325283Y145318D01*
X325092Y145190D01*
X324927Y145010D01*
X324787Y144778D01*
X324673Y144496D01*
X324584Y144161D01*
X324521Y143776D01*
X324482Y143339D01*
X324470Y142851D01*
X321930D01*
X321917Y143339D01*
X321879Y143776D01*
X321815Y144161D01*
X321727Y144496D01*
X321612Y144778D01*
X321473Y145010D01*
X321307Y145190D01*
X321117Y145318D01*
X320901Y145395D01*
X320660Y145421D01*
X325740D01*
X325499Y145395D01*
D02*
G37*
G36*
X448820Y119380D02*
X448795Y119621D01*
X448718Y119837D01*
X448589Y120028D01*
X448409Y120193D01*
X448178Y120332D01*
X447895Y120447D01*
X447561Y120536D01*
X447175Y120599D01*
X446738Y120637D01*
X446250Y120650D01*
Y123190D01*
X446738Y123203D01*
X447175Y123241D01*
X447561Y123304D01*
X447895Y123393D01*
X448178Y123507D01*
X448409Y123647D01*
X448589Y123812D01*
X448718Y124003D01*
X448795Y124219D01*
X448820Y124460D01*
Y119380D01*
D02*
G37*
G36*
X316690Y118110D02*
X316665Y118351D01*
X316589Y118567D01*
X316462Y118758D01*
X316284Y118923D01*
X316055Y119062D01*
X315776Y119177D01*
X315446Y119266D01*
X315065Y119329D01*
X314633Y119367D01*
X314150Y119380D01*
Y121920D01*
X314633Y121933D01*
X315065Y121971D01*
X315446Y122034D01*
X315776Y122123D01*
X316055Y122238D01*
X316284Y122377D01*
X316462Y122542D01*
X316589Y122733D01*
X316665Y122949D01*
X316690Y123190D01*
Y118110D01*
D02*
G37*
G36*
X307942Y122949D02*
X308019Y122733D01*
X308148Y122542D01*
X308328Y122377D01*
X308559Y122238D01*
X308842Y122123D01*
X309176Y122034D01*
X309562Y121971D01*
X309999Y121933D01*
X310487Y121920D01*
Y119380D01*
X309999Y119367D01*
X309562Y119329D01*
X309176Y119266D01*
X308842Y119177D01*
X308559Y119062D01*
X308328Y118923D01*
X308148Y118758D01*
X308019Y118567D01*
X307942Y118351D01*
X307917Y118110D01*
Y123190D01*
X307942Y122949D01*
D02*
G37*
G36*
X336958Y117455D02*
X336743Y117378D01*
X336552Y117250D01*
X336387Y117070D01*
X336247Y116838D01*
X336133Y116556D01*
X336044Y116221D01*
X335980Y115836D01*
X335942Y115399D01*
X335930Y114910D01*
X333390D01*
X333377Y115399D01*
X333339Y115836D01*
X333275Y116221D01*
X333186Y116556D01*
X333072Y116838D01*
X332933Y117070D01*
X332767Y117250D01*
X332577Y117378D01*
X332361Y117455D01*
X332120Y117481D01*
X337200D01*
X336958Y117455D01*
D02*
G37*
G36*
X335942Y101771D02*
X335980Y101334D01*
X336044Y100949D01*
X336133Y100614D01*
X336247Y100332D01*
X336387Y100100D01*
X336552Y99920D01*
X336743Y99792D01*
X336958Y99715D01*
X337200Y99689D01*
X332120D01*
X332361Y99715D01*
X332577Y99792D01*
X332767Y99920D01*
X332933Y100100D01*
X333072Y100332D01*
X333186Y100614D01*
X333275Y100949D01*
X333339Y101334D01*
X333377Y101771D01*
X333390Y102260D01*
X335930D01*
X335942Y101771D01*
D02*
G37*
G36*
X337609Y90785D02*
X337393Y90708D01*
X337202Y90580D01*
X337037Y90400D01*
X336898Y90168D01*
X336783Y89886D01*
X336694Y89551D01*
X336631Y89166D01*
X336593Y88729D01*
X336580Y88240D01*
X336486D01*
X336550Y88181D01*
X336897Y87908D01*
X337247Y87682D01*
X337602Y87500D01*
X337960Y87364D01*
X338323Y87274D01*
X338690Y87228D01*
X339061Y87228D01*
X339436Y87274D01*
X339815Y87365D01*
X335545Y83095D01*
X335636Y83474D01*
X335681Y83849D01*
X335682Y84220D01*
X335636Y84587D01*
X335546Y84950D01*
X335410Y85308D01*
X335229Y85663D01*
X335002Y86013D01*
X334729Y86360D01*
X334412Y86702D01*
X335950Y88240D01*
X334040D01*
X334027Y88729D01*
X333989Y89166D01*
X333926Y89551D01*
X333837Y89886D01*
X333722Y90168D01*
X333583Y90400D01*
X333418Y90580D01*
X333227Y90708D01*
X333011Y90785D01*
X332770Y90811D01*
X337850D01*
X337609Y90785D01*
D02*
G37*
G36*
X120352Y183670D02*
X120148Y183594D01*
X119968Y183467D01*
X119812Y183289D01*
X119680Y183060D01*
X119572Y182781D01*
X119488Y182451D01*
X119428Y182070D01*
X119392Y181638D01*
X119380Y181155D01*
X116840D01*
X116828Y181638D01*
X116792Y182070D01*
X116732Y182451D01*
X116648Y182781D01*
X116540Y183060D01*
X116408Y183289D01*
X116252Y183467D01*
X116072Y183594D01*
X115868Y183670D01*
X115640Y183696D01*
X120580D01*
X120352Y183670D01*
D02*
G37*
G36*
X104441Y162560D02*
X104416Y162801D01*
X104338Y163017D01*
X104210Y163208D01*
X104030Y163373D01*
X103799Y163512D01*
X103516Y163627D01*
X103182Y163716D01*
X102796Y163779D01*
X102359Y163817D01*
X101871Y163830D01*
Y166370D01*
X102359Y166383D01*
X102796Y166421D01*
X103182Y166484D01*
X103516Y166573D01*
X103799Y166688D01*
X104030Y166827D01*
X104210Y166992D01*
X104338Y167183D01*
X104416Y167399D01*
X104441Y167640D01*
Y162560D01*
D02*
G37*
G36*
X95405Y167399D02*
X95482Y167183D01*
X95610Y166992D01*
X95790Y166827D01*
X96022Y166688D01*
X96304Y166573D01*
X96639Y166484D01*
X97024Y166421D01*
X97461Y166383D01*
X97949Y166370D01*
Y163830D01*
X97461Y163817D01*
X97024Y163779D01*
X96639Y163716D01*
X96304Y163627D01*
X96022Y163512D01*
X95790Y163373D01*
X95610Y163208D01*
X95482Y163017D01*
X95405Y162801D01*
X95379Y162560D01*
Y167640D01*
X95405Y167399D01*
D02*
G37*
G36*
X95009Y160635D02*
X94793Y160558D01*
X94602Y160430D01*
X94437Y160250D01*
X94298Y160018D01*
X94183Y159736D01*
X94094Y159401D01*
X94031Y159016D01*
X93993Y158579D01*
X93980Y158090D01*
X91440D01*
X91427Y158579D01*
X91389Y159016D01*
X91326Y159401D01*
X91237Y159736D01*
X91123Y160018D01*
X90983Y160250D01*
X90818Y160430D01*
X90627Y160558D01*
X90411Y160635D01*
X90170Y160661D01*
X95250D01*
X95009Y160635D01*
D02*
G37*
G36*
X127991Y158137D02*
X127807Y158066D01*
X127644Y157947D01*
X127504Y157780D01*
X127385Y157565D01*
X127287Y157303D01*
X127211Y156993D01*
X127157Y156636D01*
X127125Y156230D01*
X127114Y155778D01*
X124574D01*
X124563Y156230D01*
X124530Y156636D01*
X124476Y156993D01*
X124401Y157303D01*
X124303Y157565D01*
X124184Y157780D01*
X124043Y157947D01*
X123881Y158066D01*
X123697Y158137D01*
X123491Y158161D01*
X128197D01*
X127991Y158137D01*
D02*
G37*
G36*
X61575Y149729D02*
X61652Y149513D01*
X61780Y149323D01*
X61960Y149157D01*
X62192Y149018D01*
X62474Y148903D01*
X62809Y148814D01*
X63194Y148751D01*
X63631Y148713D01*
X64120Y148700D01*
Y146160D01*
X63631Y146147D01*
X63194Y146109D01*
X62809Y146046D01*
X62474Y145957D01*
X62192Y145843D01*
X61960Y145703D01*
X61780Y145538D01*
X61652Y145347D01*
X61575Y145132D01*
X61549Y144890D01*
Y149970D01*
X61575Y149729D01*
D02*
G37*
G36*
X104108Y138517D02*
X104178Y138333D01*
X104296Y138171D01*
X104460Y138030D01*
X104672Y137911D01*
X104931Y137814D01*
X105237Y137738D01*
X105590Y137684D01*
X105990Y137651D01*
X106437Y137641D01*
Y135101D01*
X105990Y135090D01*
X105590Y135057D01*
X105237Y135003D01*
X104931Y134927D01*
X104672Y134830D01*
X104460Y134711D01*
X104296Y134570D01*
X104178Y134408D01*
X104108Y134224D01*
X104084Y134018D01*
Y138723D01*
X104108Y138517D01*
D02*
G37*
G36*
X81366Y126890D02*
X81341Y127131D01*
X81264Y127347D01*
X81135Y127537D01*
X80955Y127703D01*
X80724Y127842D01*
X80441Y127957D01*
X80107Y128046D01*
X79721Y128109D01*
X79284Y128147D01*
X78796Y128160D01*
Y130700D01*
X79284Y130712D01*
X79721Y130751D01*
X80107Y130814D01*
X80441Y130903D01*
X80724Y131017D01*
X80955Y131157D01*
X81135Y131322D01*
X81264Y131513D01*
X81341Y131728D01*
X81366Y131970D01*
Y126890D01*
D02*
G37*
G36*
X61575Y131728D02*
X61652Y131513D01*
X61780Y131322D01*
X61960Y131157D01*
X62192Y131017D01*
X62474Y130903D01*
X62809Y130814D01*
X63194Y130751D01*
X63631Y130712D01*
X64120Y130700D01*
Y128160D01*
X63631Y128147D01*
X63194Y128109D01*
X62809Y128046D01*
X62474Y127957D01*
X62192Y127842D01*
X61960Y127703D01*
X61780Y127537D01*
X61652Y127347D01*
X61575Y127131D01*
X61549Y126890D01*
Y131970D01*
X61575Y131728D01*
D02*
G37*
G36*
X88698Y137822D02*
Y132779D01*
X88773Y132403D01*
Y123444D01*
X88825D01*
Y114664D01*
X84959Y110799D01*
X84117Y109538D01*
X83821Y108052D01*
Y99633D01*
X82648Y99147D01*
X75528Y106267D01*
X74268Y107109D01*
X72781Y107405D01*
X67782D01*
X67442Y108675D01*
X67522Y108721D01*
X69177Y110376D01*
X70347Y112403D01*
X70953Y114664D01*
Y117005D01*
X70347Y119266D01*
X69177Y121293D01*
X67522Y122948D01*
X65494Y124119D01*
X64911Y124275D01*
X65078Y125545D01*
X78765D01*
Y123444D01*
X86639D01*
Y138222D01*
X87813Y138708D01*
X88698Y137822D01*
D02*
G37*
G36*
X107740Y104315D02*
X107278Y104403D01*
X106827Y104445D01*
X106387Y104440D01*
X105958Y104388D01*
X105540Y104289D01*
X105133Y104143D01*
X104737Y103950D01*
X104352Y103710D01*
X103978Y103423D01*
X103616Y103090D01*
X101820Y104886D01*
X102153Y105248D01*
X102440Y105622D01*
X102680Y106007D01*
X102873Y106403D01*
X103019Y106810D01*
X103118Y107228D01*
X103170Y107657D01*
X103175Y108097D01*
X103133Y108548D01*
X103045Y109010D01*
X107740Y104315D01*
D02*
G37*
G36*
X53995Y105819D02*
X54072Y105603D01*
X54200Y105413D01*
X54380Y105247D01*
X54612Y105108D01*
X54894Y104993D01*
X55229Y104904D01*
X55614Y104841D01*
X56051Y104803D01*
X56540Y104790D01*
Y102250D01*
X56051Y102238D01*
X55614Y102199D01*
X55229Y102136D01*
X54894Y102047D01*
X54612Y101933D01*
X54380Y101793D01*
X54200Y101628D01*
X54072Y101437D01*
X53995Y101222D01*
X53969Y100980D01*
Y106060D01*
X53995Y105819D01*
D02*
G37*
G36*
X220255Y103505D02*
X219640Y104108D01*
X218453Y105124D01*
X217882Y105537D01*
X217325Y105886D01*
X216782Y106172D01*
X216255Y106394D01*
X215921Y106498D01*
X215842Y106477D01*
X215560Y106362D01*
X215328Y106223D01*
X215148Y106058D01*
X215020Y105867D01*
X214943Y105651D01*
X214917Y105410D01*
Y106670D01*
X214758Y106680D01*
Y109220D01*
X214917Y109230D01*
Y110490D01*
X214943Y110249D01*
X215020Y110033D01*
X215148Y109842D01*
X215328Y109677D01*
X215560Y109537D01*
X215842Y109423D01*
X215921Y109402D01*
X216255Y109506D01*
X216782Y109728D01*
X217325Y110014D01*
X217882Y110363D01*
X218453Y110776D01*
X219039Y111252D01*
X220255Y112395D01*
Y103505D01*
D02*
G37*
G36*
X288039Y93345D02*
X288011Y93586D01*
X287933Y93802D01*
X287804Y93993D01*
X287623Y94158D01*
X287392Y94298D01*
X287109Y94412D01*
X286776Y94501D01*
X286391Y94564D01*
X285955Y94602D01*
X285468Y94615D01*
Y97155D01*
X285951Y97166D01*
X286763Y97251D01*
X287094Y97325D01*
X287373Y97421D01*
X287602Y97538D01*
X287779Y97677D01*
X287906Y97836D01*
X287983Y98017D01*
X288008Y98219D01*
X288039Y93345D01*
D02*
G37*
G36*
X389282Y80181D02*
X389320Y79744D01*
X389384Y79359D01*
X389473Y79024D01*
X389587Y78742D01*
X389727Y78510D01*
X389892Y78330D01*
X390083Y78202D01*
X390298Y78125D01*
X390540Y78099D01*
X385460D01*
X385701Y78125D01*
X385917Y78202D01*
X386107Y78330D01*
X386273Y78510D01*
X386412Y78742D01*
X386526Y79024D01*
X386615Y79359D01*
X386679Y79744D01*
X386717Y80181D01*
X386730Y80669D01*
X389270D01*
X389282Y80181D01*
D02*
G37*
G36*
X448820Y93980D02*
X448795Y94221D01*
X448718Y94437D01*
X448589Y94628D01*
X448409Y94793D01*
X448178Y94932D01*
X447895Y95047D01*
X447561Y95136D01*
X447175Y95199D01*
X446738Y95237D01*
X446250Y95250D01*
Y97790D01*
X446738Y97803D01*
X447175Y97841D01*
X447561Y97904D01*
X447895Y97993D01*
X448178Y98108D01*
X448409Y98247D01*
X448589Y98412D01*
X448718Y98603D01*
X448795Y98819D01*
X448820Y99060D01*
Y93980D01*
D02*
G37*
G36*
X206348Y69191D02*
X206232Y69165D01*
X206129Y69089D01*
X206038Y68962D01*
X205959Y68784D01*
X205892Y68555D01*
X205837Y68276D01*
X205795Y67946D01*
X205746Y67133D01*
X205740Y66651D01*
X203200D01*
X203187Y67137D01*
X203149Y67573D01*
X203086Y67958D01*
X202997Y68291D01*
X202882Y68574D01*
X202743Y68805D01*
X202578Y68986D01*
X202387Y69115D01*
X202171Y69194D01*
X201930Y69221D01*
X206348Y69191D01*
D02*
G37*
D13*
X414050Y427280D02*
X414180Y427410D01*
X414050Y421640D02*
Y427280D01*
X405339Y421640D02*
X414050D01*
X398780Y417830D02*
X401529D01*
X405339Y421640D01*
X205270Y349250D02*
X205740Y349720D01*
Y361950D01*
X80010Y115570D02*
X87579Y123139D01*
Y132524D01*
X87706Y108052D02*
X92710Y113055D01*
X87706Y88329D02*
Y108052D01*
X91440Y165100D02*
X110380D01*
X92710Y132652D02*
Y163830D01*
X87706Y75006D02*
Y88329D01*
X92710Y113055D02*
X97714Y108052D01*
X234950Y365730D02*
Y376500D01*
X233710Y364490D02*
X234950Y365730D01*
X230112Y398780D02*
X231600Y397292D01*
Y392620D02*
Y397292D01*
X209768Y398780D02*
X230112D01*
X195580D02*
X207660Y410860D01*
X251460D01*
X254690Y391042D02*
X265502Y380230D01*
Y379730D02*
Y380230D01*
X254690Y391042D02*
Y394130D01*
X251960Y396860D02*
X254690Y394130D01*
X251460Y396860D02*
X251960D01*
X266774Y378386D02*
X268118Y377042D01*
X253420Y314443D02*
X261590Y322613D01*
X253420Y313384D02*
Y314443D01*
X267200Y307990D02*
X280671D01*
X266700D02*
X267200D01*
X280671D02*
X281940Y306721D01*
X300863Y311582D02*
X304132D01*
X296488D02*
X300863D01*
X281940Y292721D02*
X282440D01*
X294508Y304788D01*
Y309602D01*
X296488Y311582D01*
X267200Y307990D02*
X283493Y324282D01*
X295910D01*
X239158Y339090D02*
X271372D01*
X272860Y337602D01*
Y333148D02*
Y337602D01*
X216496Y347306D02*
X218440Y349250D01*
X216496Y339706D02*
Y347306D01*
X214030Y337240D02*
X216496Y339706D01*
X206540Y332740D02*
Y335780D01*
X208000Y337240D02*
X214030D01*
X206540Y335780D02*
X208000Y337240D01*
X240030Y309879D02*
X240526D01*
X240030Y321310D02*
X243256Y318084D01*
Y312610D02*
Y318084D01*
X240526Y309879D02*
X243256Y312610D01*
X205240Y394252D02*
X209768Y398780D01*
X205240Y378580D02*
Y394252D01*
X193731Y367070D02*
X205240Y378580D01*
X191000Y363840D02*
X193731Y366570D01*
Y367070D01*
X190000Y363840D02*
X191000D01*
X68580Y55880D02*
X87706Y75006D01*
X57150Y55880D02*
X68580D01*
X403643Y369937D02*
Y374740D01*
Y369937D02*
X416060Y357520D01*
X401699Y376684D02*
X403643Y374740D01*
X416060Y357520D02*
X416560D01*
X385390Y382700D02*
X387349Y384659D01*
X384810Y372034D02*
Y381321D01*
X385790Y384142D02*
X387077Y385430D01*
X384810Y381321D02*
X385790Y382301D01*
Y384142D01*
X384810Y372034D02*
X387956Y368888D01*
Y366139D02*
Y368888D01*
X429180Y431720D02*
X431204Y433744D01*
X451446D01*
X453390Y431800D01*
X365760Y210820D02*
X379570D01*
X386080Y214630D02*
X440690Y160020D01*
X379570Y210820D02*
X383380Y214630D01*
X386080D01*
X461010Y231140D02*
Y394630D01*
X434180Y417868D02*
Y421460D01*
Y417868D02*
X434310Y417738D01*
X437902D02*
X461010Y394630D01*
X434310Y417738D02*
X437902D01*
X416560Y357520D02*
X417180Y358140D01*
X433070D01*
X434180Y359250D01*
Y378460D01*
X414180Y360870D02*
Y378460D01*
X447040Y242570D02*
Y391160D01*
X445770Y241300D02*
X447040Y242570D01*
X373579Y74081D02*
X374000Y73660D01*
X373579Y74081D02*
Y78541D01*
X366652Y121028D02*
X378552D01*
X379007Y120573D02*
X383617D01*
X378552Y121028D02*
X379007Y120573D01*
X365760Y121920D02*
X366652Y121028D01*
X424310Y413890D02*
X447040Y391160D01*
X440690Y160020D02*
X458760D01*
X300990Y62230D02*
X306070Y67310D01*
Y79510D02*
X321310Y94750D01*
X306070Y67310D02*
Y79510D01*
X321310Y94750D02*
Y95250D01*
X320548Y78232D02*
X328120Y85804D01*
Y133398D01*
X375268Y50800D02*
X375920D01*
X368410Y43942D02*
X375268Y50800D01*
X202378Y73660D02*
X204470Y71568D01*
Y59690D02*
Y71568D01*
X351790Y77612D02*
X375920Y53482D01*
X179070Y28657D02*
X194355Y43942D01*
X351790Y77612D02*
Y105410D01*
X375920Y50800D02*
Y53482D01*
X351790Y105410D02*
X355600Y109220D01*
X194355Y43942D02*
X368410D01*
X429180Y421460D02*
Y431720D01*
X424310Y413890D02*
Y421330D01*
X424180Y421460D02*
X424310Y421330D01*
X386577Y385430D02*
X387077D01*
X415347Y399430D02*
X429050Y385727D01*
X370803Y399430D02*
X415347D01*
X430340Y346870D02*
X433070Y344140D01*
X429050Y378590D02*
Y385727D01*
X381000Y433070D02*
X408520D01*
X414180Y427410D01*
X387077Y385430D02*
X389807Y388160D01*
Y388620D01*
X391295Y390108D01*
X414669D01*
X419180Y378460D02*
X424180D01*
X414669Y390108D02*
X419050Y385727D01*
Y378590D02*
X419180Y378460D01*
X419050Y378590D02*
Y385727D01*
X429050Y378590D02*
X429180Y378460D01*
X355600Y109220D02*
X365760D01*
X436880Y93980D02*
X438150D01*
X436880D02*
X439629D01*
X459120Y73660D02*
Y74160D01*
X456390Y76890D02*
X459120Y74160D01*
X455890Y76890D02*
X456390D01*
X438800Y93980D02*
X455890Y76890D01*
X442169Y96520D02*
X458760D01*
X439629Y93980D02*
X442169Y96520D01*
X300715Y349857D02*
X310487D01*
X300540Y349682D02*
X300715Y349857D01*
X310487D02*
X320040Y359410D01*
X169561Y367096D02*
X186744D01*
X190000Y363840D01*
X117301Y343677D02*
X127170D01*
X138430Y355391D02*
Y358140D01*
X127170Y343677D02*
X135387Y351894D01*
Y352348D02*
X138430Y355391D01*
X135387Y351894D02*
Y352348D01*
X159093Y341664D02*
X169528D01*
X140970Y323541D02*
X159093Y341664D01*
X50800Y372260D02*
Y387350D01*
X59729Y396279D02*
X67349D01*
X50800Y387350D02*
X59729Y396279D01*
X50800Y372260D02*
X59190Y363870D01*
X481330Y50800D02*
Y347980D01*
X204470Y27940D02*
X220980Y11430D01*
X441960D02*
X481330Y50800D01*
X220980Y11430D02*
X441960D01*
X264160Y160020D02*
X278130Y146050D01*
X264160Y187742D02*
X273268Y196850D01*
X264160Y160020D02*
Y187742D01*
X278130Y146050D02*
X297978D01*
X313690Y167462D02*
Y181610D01*
X342900Y210820D02*
X358760D01*
X313690Y181610D02*
X342900Y210820D01*
X304978Y158750D02*
X313690Y167462D01*
X307609Y412481D02*
X320040Y400050D01*
Y359410D02*
Y400050D01*
X223520Y323452D02*
X239158Y339090D01*
X272860Y333148D02*
X275590Y330418D01*
X317482Y294640D02*
X330200D01*
X306112Y306011D02*
X317482Y294640D01*
X344199D02*
X376570D01*
X391160Y309230D02*
X407098D01*
X424180Y316230D02*
X425450Y314960D01*
X382150Y316230D02*
X424180D01*
X374650Y309230D02*
X375150D01*
X382150Y316230D01*
X391160Y323230D02*
X407098D01*
X375920Y340980D02*
X376420D01*
X387930Y329470D01*
Y325960D02*
Y329470D01*
Y325960D02*
X390660Y323230D01*
X391160D01*
X354780Y324282D02*
X373598D01*
X374650Y323230D01*
X230521Y295879D02*
X262249D01*
X286400Y405130D02*
X287020Y405750D01*
Y415290D01*
X286400Y405130D02*
X300540Y390990D01*
X139050Y417830D02*
Y418330D01*
X136320Y421060D02*
X139050Y418330D01*
X121230Y421060D02*
X136320D01*
X119380Y422910D02*
X121230Y421060D01*
X87579Y132524D02*
X87706Y132652D01*
X278130Y168910D02*
X279400Y170180D01*
X296708D02*
X297978Y171450D01*
X273268Y196850D02*
X297978D01*
X261590Y322613D02*
Y330923D01*
X140970Y322580D02*
Y323541D01*
X115321Y341697D02*
X117301Y343677D01*
X125268Y367838D02*
X128270Y370840D01*
X116779Y367838D02*
X125268D01*
X128270Y370840D02*
Y387093D01*
X93980Y366380D02*
X115321D01*
X116779Y367838D01*
X93980Y367096D02*
X115321D01*
X60960Y365760D02*
X68580Y358140D01*
X77470Y381000D02*
X93360D01*
X158750Y158940D02*
Y181610D01*
Y197595D01*
X66070Y193010D02*
X81900D01*
X157739Y135154D02*
X158750Y136166D01*
X275590Y330200D02*
X285750D01*
X290945Y335395D01*
X76820Y325771D02*
Y334208D01*
Y334707D02*
Y335207D01*
Y334208D02*
Y334707D01*
X74090Y331478D02*
X76820Y334208D01*
X73090Y331478D02*
X74090D01*
X73083Y331470D02*
X73090Y331478D01*
X58420Y331470D02*
X73083D01*
X76970Y367650D02*
X77470D01*
X63620Y381000D02*
X76970Y367650D01*
X63500Y381000D02*
X63620D01*
X59190Y363870D02*
X59690D01*
X110946Y354397D02*
X115321D01*
X108966Y356377D02*
X110946Y354397D01*
X108966Y356377D02*
Y356652D01*
X107478Y358140D02*
X108966Y356652D01*
X68580Y358140D02*
X107478D01*
X101600Y408940D02*
X129540D01*
X82580Y397510D02*
X90170D01*
X101600Y408940D01*
X74090Y337937D02*
X76820Y335207D01*
X334660Y95900D02*
Y121920D01*
Y95900D02*
X335310Y95250D01*
Y87600D02*
X341630Y81280D01*
X335310Y87600D02*
Y95250D01*
X323200Y138318D02*
X328120Y133398D01*
X334660Y121920D02*
X337390Y124650D01*
X234330Y72390D02*
Y72890D01*
X237060Y75620D01*
X237560D01*
X258460Y96520D01*
X274320D01*
X204978Y209550D02*
X215138Y219710D01*
X349870D01*
X358760Y210820D02*
X365760D01*
X349870Y219710D02*
X358760Y210820D01*
X50030Y103520D02*
X72781D01*
X123810Y74930D02*
X124460Y74280D01*
Y62230D02*
Y74280D01*
X49530Y103520D02*
X50030D01*
X67310Y86240D01*
Y85090D02*
Y86240D01*
X102718Y88329D02*
Y103988D01*
X109220Y110490D01*
X142692Y178880D02*
X145422Y181610D01*
X142692Y137378D02*
Y178880D01*
X138430Y133116D02*
X142692Y137378D01*
X138430Y130810D02*
Y133116D01*
X54610Y123287D02*
X62063Y115835D01*
X54610Y123287D02*
Y129430D01*
X97714Y88329D02*
Y108052D01*
X92710Y113055D02*
Y132652D01*
X91440Y165100D02*
X92710Y163830D01*
X54610Y147430D02*
X84584D01*
X92583Y139431D01*
Y132779D02*
Y139431D01*
Y132779D02*
X92710Y132652D01*
X168779Y418083D02*
X169797Y419100D01*
X179690D01*
X139050Y417936D02*
X141780Y420666D01*
X305420Y419100D02*
X307609Y416911D01*
Y412481D02*
Y416911D01*
X336550Y347980D02*
Y392837D01*
X349900Y406187D01*
Y419100D01*
X353929Y348831D02*
X354780Y349682D01*
X337401Y348831D02*
X353929D01*
X336550Y347980D02*
X337401Y348831D01*
X169528Y341664D02*
X169561Y341697D01*
X388000Y86353D02*
X390197Y88551D01*
X388000Y73660D02*
Y86353D01*
X297343Y95885D02*
X297978Y95250D01*
X274955Y95885D02*
X297343D01*
X274320Y96520D02*
X274955Y95885D01*
X204978Y120650D02*
X211978D01*
X219598Y128270D01*
X229870D01*
X297978Y158750D02*
X304978D01*
X354780Y396698D02*
X359909Y401827D01*
X354780Y387782D02*
Y396698D01*
Y387782D02*
X359155D01*
X370803Y399430D01*
X206708Y106220D02*
X208438Y107950D01*
X224790D01*
X204978D02*
X206708Y106220D01*
X191770Y302880D02*
X192270D01*
X209550Y285600D01*
Y284480D02*
Y285600D01*
X59690Y193010D02*
X66070D01*
X73660Y185420D01*
X223520Y316880D02*
Y323452D01*
X206540Y332740D02*
X207010Y332270D01*
X205270Y334010D02*
X206540Y332740D01*
X268118Y356870D02*
Y377042D01*
X354780Y375082D02*
X378272D01*
X385390Y382200D02*
Y382700D01*
X378272Y375082D02*
X385390Y382200D01*
X158750Y136166D02*
Y145542D01*
X123810Y74930D02*
Y90170D01*
X207010Y316880D02*
Y332270D01*
X93980Y366380D02*
Y367096D01*
X158750Y181610D02*
X159423D01*
X111760Y285750D02*
X119888D01*
X131826Y297688D01*
X59690Y186294D02*
Y193010D01*
X57800Y184404D02*
X59690Y186294D01*
X57800Y175260D02*
Y184404D01*
X152146Y152146D02*
X158750Y145542D01*
X152146Y152146D02*
Y187960D01*
X130302Y209804D02*
X152146Y187960D01*
X59690Y207010D02*
X70866D01*
X72786Y208930D01*
X83820D01*
X323200Y138318D02*
Y149860D01*
X68580Y317530D02*
X76820Y325771D01*
X376570Y294640D02*
X391160Y309230D01*
X354780Y311582D02*
X372298D01*
X321930Y175260D02*
X323200Y173990D01*
Y149860D02*
Y173990D01*
X83820Y208930D02*
Y224170D01*
X81930Y226060D02*
X83820Y224170D01*
Y208930D02*
X116880D01*
X118110Y210160D01*
Y212280D01*
X81930Y226060D02*
Y226560D01*
X65800Y242690D02*
X81930Y226560D01*
X65800Y242690D02*
Y251700D01*
X63500Y254000D02*
X65800Y251700D01*
X137810Y74930D02*
Y90170D01*
X158750Y135700D02*
Y136166D01*
X157739Y128529D02*
Y135154D01*
X141254Y112044D02*
X157739Y128529D01*
X141254Y107584D02*
Y112044D01*
X139080Y105410D02*
X141254Y107584D01*
X137810Y90170D02*
Y104140D01*
X139080Y105410D01*
X72781Y103520D02*
X82702Y93599D01*
Y88329D02*
Y93599D01*
X81900Y193010D02*
X83820Y194930D01*
X223520Y302880D02*
X224020D01*
X226750Y300150D01*
Y299650D02*
Y300150D01*
Y299650D02*
X230521Y295879D01*
X354780Y324282D02*
Y336982D01*
X371922D01*
X375920Y340980D01*
X169561Y379796D02*
X188544D01*
X190501Y377840D01*
Y398130D01*
X189850Y398780D02*
X190501Y398130D01*
X189850Y398780D02*
X195580D01*
X166370D02*
X189850D01*
X219710Y364490D02*
X220330Y365110D01*
Y389890D01*
X129540Y408940D02*
X134000Y404480D01*
Y398780D02*
Y404480D01*
Y398780D02*
X152370D01*
X335930Y174760D02*
Y175260D01*
Y174760D02*
X338660Y172030D01*
X344860D01*
X350727Y166163D01*
X400257D01*
X444500Y121920D01*
X458760D01*
X297978Y120650D02*
X319390D01*
X320660Y121920D01*
X458760Y198120D02*
Y210820D01*
Y198120D02*
X465760D01*
X473710Y190170D01*
Y155270D02*
Y190170D01*
X465760Y147320D02*
X473710Y155270D01*
X458760Y147320D02*
X465760D01*
X297978Y196850D02*
Y209550D01*
X153670Y202675D02*
Y204867D01*
Y202675D02*
X158750Y197595D01*
X82702Y129557D02*
Y132652D01*
X54610Y129430D02*
X82575D01*
X82702Y129557D01*
X300540Y387782D02*
Y390990D01*
X247650Y346710D02*
X271958D01*
X282118Y356870D01*
X289560D01*
X293093Y360403D01*
X298560D01*
X300540Y362382D01*
X290945Y335395D02*
X298952D01*
X300540Y336982D01*
X304132Y311582D02*
X306112Y309603D01*
Y306011D02*
Y309603D01*
X93360Y381000D02*
X93980Y380380D01*
X114737D01*
X115321Y379796D01*
X169561Y328997D02*
X186257D01*
X191270Y334010D01*
Y349250D01*
X90820Y334707D02*
Y349250D01*
Y334707D02*
X101003D01*
X105426Y330284D01*
X114033D01*
X115321Y328997D01*
X114767Y304150D02*
X115321Y303596D01*
X94479Y304150D02*
X114767D01*
X97209Y300483D02*
X97760Y299932D01*
Y285750D02*
Y299932D01*
X93980Y304150D02*
X94479D01*
X97209Y301420D01*
Y300483D02*
Y301420D01*
X102718Y132652D02*
X102845Y132779D01*
Y136371D01*
X106437D01*
X125844Y155778D01*
Y162564D01*
X128380Y165100D01*
Y166100D01*
X118110Y176370D02*
X128380Y166100D01*
X118110Y176370D02*
Y189040D01*
X272400Y386760D02*
X279430Y379730D01*
X272400Y386760D02*
Y405130D01*
X279430Y379730D02*
X284078Y375082D01*
X300540D01*
X231600Y392620D02*
X234330Y389890D01*
X122696Y392668D02*
X128270Y387093D01*
X122696Y392668D02*
Y396084D01*
X120000Y398780D02*
X122696Y396084D01*
X191187Y316297D02*
X191770Y316880D01*
X169561Y316297D02*
X191187D01*
X191770Y316880D02*
X193010D01*
X207010Y302880D01*
X68580Y303530D02*
X79359D01*
X93980Y318150D01*
X113467D01*
X115321Y316297D01*
X169561Y303596D02*
X191054D01*
X191770Y302880D01*
D15*
X266700Y293990D02*
D03*
Y307990D02*
D03*
X374650Y309230D02*
D03*
Y323230D02*
D03*
X281940Y306721D02*
D03*
Y292721D02*
D03*
X416560Y343520D02*
D03*
Y357520D02*
D03*
X190501Y363840D02*
D03*
Y377840D02*
D03*
X191770Y302880D02*
D03*
Y316880D02*
D03*
X207010Y302880D02*
D03*
Y316880D02*
D03*
X223520Y302880D02*
D03*
Y316880D02*
D03*
X433070Y344140D02*
D03*
X93980Y366380D02*
D03*
Y380380D02*
D03*
X59690Y349870D02*
D03*
Y363870D02*
D03*
X77470Y367650D02*
D03*
Y381650D02*
D03*
X240030Y295879D02*
D03*
Y309879D02*
D03*
X93980Y318150D02*
D03*
Y304150D02*
D03*
X68580Y317530D02*
D03*
Y303530D02*
D03*
X433070Y358140D02*
D03*
X386577Y385430D02*
D03*
Y399430D02*
D03*
X375920Y354980D02*
D03*
Y340980D02*
D03*
X407098Y309230D02*
D03*
Y323230D02*
D03*
X251460Y410860D02*
D03*
Y396860D02*
D03*
X391160Y309230D02*
D03*
Y323230D02*
D03*
X49530Y89520D02*
D03*
Y103520D02*
D03*
X59690Y207010D02*
D03*
Y193010D02*
D03*
X83820Y194930D02*
D03*
Y208930D02*
D03*
D16*
X355103Y387782D02*
D03*
Y375082D02*
D03*
Y362382D02*
D03*
Y336982D02*
D03*
Y324282D02*
D03*
Y311582D02*
D03*
X300863D02*
D03*
Y324282D02*
D03*
Y336982D02*
D03*
Y362382D02*
D03*
Y375082D02*
D03*
Y387782D02*
D03*
Y349682D02*
D03*
X355103D02*
D03*
X169561Y379796D02*
D03*
Y367096D02*
D03*
Y354397D02*
D03*
Y341697D02*
D03*
Y328997D02*
D03*
Y316297D02*
D03*
Y303596D02*
D03*
X115321D02*
D03*
Y316297D02*
D03*
Y328997D02*
D03*
Y341697D02*
D03*
Y354397D02*
D03*
Y367096D02*
D03*
Y379796D02*
D03*
D17*
X434180Y421460D02*
D03*
X429180D02*
D03*
X424180D02*
D03*
X419180D02*
D03*
X414180D02*
D03*
Y378460D02*
D03*
X419180D02*
D03*
X424180D02*
D03*
X429180D02*
D03*
X434180D02*
D03*
D18*
X367000Y433070D02*
D03*
X381000D02*
D03*
X191270Y334010D02*
D03*
X205270D02*
D03*
X191270Y349250D02*
D03*
X205270D02*
D03*
X349900Y419100D02*
D03*
X179690D02*
D03*
X388000Y73660D02*
D03*
X202378D02*
D03*
X305420Y419100D02*
D03*
X459120Y73660D02*
D03*
X139050Y417830D02*
D03*
X234330Y72390D02*
D03*
X275590Y330923D02*
D03*
X261590D02*
D03*
X82580Y397510D02*
D03*
X68580D02*
D03*
X220330Y72390D02*
D03*
X153050Y417830D02*
D03*
X193690Y419100D02*
D03*
X188378Y73660D02*
D03*
X265502Y379730D02*
D03*
X279502D02*
D03*
X233710Y364490D02*
D03*
X219710D02*
D03*
X234330Y389890D02*
D03*
X220330D02*
D03*
X97760Y285750D02*
D03*
X111760D02*
D03*
X90820Y349250D02*
D03*
X76820D02*
D03*
X134000Y398780D02*
D03*
X120000D02*
D03*
X90820Y334707D02*
D03*
X76820D02*
D03*
X152370Y398780D02*
D03*
X166370D02*
D03*
X286400Y405130D02*
D03*
X272400D02*
D03*
X321930Y175260D02*
D03*
X335930D02*
D03*
X268118Y356870D02*
D03*
X282118D02*
D03*
X337200Y149860D02*
D03*
X323200D02*
D03*
X232410Y349250D02*
D03*
X246410D02*
D03*
X344199Y294640D02*
D03*
X330200D02*
D03*
X334660Y121920D02*
D03*
X320660D02*
D03*
X321310Y95250D02*
D03*
X335310D02*
D03*
X445120Y73660D02*
D03*
X319420Y419100D02*
D03*
X335900D02*
D03*
X374000Y73660D02*
D03*
X123810Y74930D02*
D03*
X137810D02*
D03*
X123810Y90170D02*
D03*
X137810D02*
D03*
X57800Y175260D02*
D03*
X43800D02*
D03*
X67930Y226060D02*
D03*
X81930D02*
D03*
X159423Y181610D02*
D03*
X145422D02*
D03*
X139080Y105410D02*
D03*
X125080D02*
D03*
X91440Y165100D02*
D03*
X77440D02*
D03*
D19*
X204978Y209550D02*
D03*
Y196850D02*
D03*
Y184150D02*
D03*
Y171450D02*
D03*
Y158750D02*
D03*
Y146050D02*
D03*
Y133350D02*
D03*
Y120650D02*
D03*
Y107950D02*
D03*
Y95250D02*
D03*
X297978D02*
D03*
Y107950D02*
D03*
Y120650D02*
D03*
Y133350D02*
D03*
Y146050D02*
D03*
Y158750D02*
D03*
Y171450D02*
D03*
Y184150D02*
D03*
Y196850D02*
D03*
Y209550D02*
D03*
X365760Y121920D02*
D03*
X458760Y96520D02*
D03*
X365760Y210820D02*
D03*
Y198120D02*
D03*
Y185420D02*
D03*
Y172720D02*
D03*
Y160020D02*
D03*
Y147320D02*
D03*
Y134620D02*
D03*
Y109220D02*
D03*
Y96520D02*
D03*
X458760Y109220D02*
D03*
Y121920D02*
D03*
Y134620D02*
D03*
Y147320D02*
D03*
Y160020D02*
D03*
Y172720D02*
D03*
Y185420D02*
D03*
Y198120D02*
D03*
Y210820D02*
D03*
D20*
X82702Y88329D02*
D03*
X87706D02*
D03*
X92710D02*
D03*
X97714D02*
D03*
X102718D02*
D03*
Y132652D02*
D03*
X97714D02*
D03*
X92710D02*
D03*
X87706D02*
D03*
X82702D02*
D03*
D21*
X110380Y165100D02*
D03*
X128380D02*
D03*
D22*
X54610Y147430D02*
D03*
Y129430D02*
D03*
D23*
X158750Y158940D02*
D03*
Y135700D02*
D03*
X153670Y228107D02*
D03*
Y204867D02*
D03*
X118110Y212280D02*
D03*
Y189040D02*
D03*
D37*
X356870Y27940D02*
D03*
X125730Y254000D02*
D03*
X88900D02*
D03*
X300990Y62230D02*
D03*
D38*
X331470Y27940D02*
D03*
X280670D02*
D03*
X255270D02*
D03*
X229870D02*
D03*
X204470D02*
D03*
X179070D02*
D03*
X153670D02*
D03*
X128270D02*
D03*
X306070D02*
D03*
X275590Y62230D02*
D03*
X151130Y254000D02*
D03*
X63500D02*
D03*
X57150Y55880D02*
D03*
D39*
X481330Y20320D02*
D03*
X21590Y21590D02*
D03*
X478790Y421640D02*
D03*
X22860Y424180D02*
D03*
D40*
X57150Y30480D02*
D03*
D41*
X398780Y417830D02*
D03*
X205740Y361950D02*
D03*
X80010Y115570D02*
D03*
X234950Y376500D02*
D03*
X253420Y313384D02*
D03*
X218440Y349250D02*
D03*
X240030Y321310D02*
D03*
X401699Y376684D02*
D03*
X387956Y366139D02*
D03*
X453390Y431800D02*
D03*
X386080Y214630D02*
D03*
X445770Y241300D02*
D03*
X461010Y231140D02*
D03*
X373579Y78541D02*
D03*
X383617Y120573D02*
D03*
X320548Y78232D02*
D03*
X204470Y59690D02*
D03*
X375920Y50800D02*
D03*
X481330Y347980D02*
D03*
X436880Y93980D02*
D03*
X425450Y314960D02*
D03*
X287020Y415290D02*
D03*
X119380Y422910D02*
D03*
X278130Y168910D02*
D03*
X138430Y358140D02*
D03*
X140970Y322580D02*
D03*
X58420Y331470D02*
D03*
X63500Y381000D02*
D03*
X341630Y81280D02*
D03*
X124460Y62230D02*
D03*
X67310Y85090D02*
D03*
X109220Y110490D02*
D03*
X138430Y130810D02*
D03*
X62063Y115835D02*
D03*
X168779Y418083D02*
D03*
X320040Y359410D02*
D03*
X336550Y347980D02*
D03*
X390197Y88551D02*
D03*
X274320Y96520D02*
D03*
X229870Y128270D02*
D03*
X359909Y401827D02*
D03*
X224790Y107950D02*
D03*
X209550Y284480D02*
D03*
X73660Y185420D02*
D03*
X131826Y297688D02*
D03*
X130302Y209804D02*
D03*
M02*
