G04*
G04 #@! TF.GenerationSoftware,Altium Limited,Altium Designer,22.8.2 (66)*
G04*
G04 Layer_Color=8421504*
%FSLAX44Y44*%
%MOMM*%
G71*
G04*
G04 #@! TF.SameCoordinates,219079CE-D9F2-4F20-8337-977AF1FC8BC2*
G04*
G04*
G04 #@! TF.FilePolarity,Positive*
G04*
G01*
G75*
%ADD15R,0.9000X0.8000*%
%ADD16R,1.5250X0.6500*%
G04:AMPARAMS|DCode=17|XSize=1.47mm|YSize=0.28mm|CornerRadius=0.035mm|HoleSize=0mm|Usage=FLASHONLY|Rotation=270.000|XOffset=0mm|YOffset=0mm|HoleType=Round|Shape=RoundedRectangle|*
%AMROUNDEDRECTD17*
21,1,1.4700,0.2100,0,0,270.0*
21,1,1.4000,0.2800,0,0,270.0*
1,1,0.0700,-0.1050,-0.7000*
1,1,0.0700,-0.1050,0.7000*
1,1,0.0700,0.1050,0.7000*
1,1,0.0700,0.1050,-0.7000*
%
%ADD17ROUNDEDRECTD17*%
%ADD18R,0.8000X0.9000*%
%ADD19R,2.0000X0.6000*%
%ADD20R,0.2794X1.3335*%
%ADD21R,1.2000X1.4000*%
%ADD22R,1.4000X1.2000*%
%ADD23R,0.5000X1.0750*%
D15*
X266700Y293990D02*
D03*
Y307990D02*
D03*
X374650Y309230D02*
D03*
Y323230D02*
D03*
X281940Y306721D02*
D03*
Y292721D02*
D03*
X416560Y343520D02*
D03*
Y357520D02*
D03*
X190501Y363840D02*
D03*
Y377840D02*
D03*
X191770Y302880D02*
D03*
Y316880D02*
D03*
X207010Y302880D02*
D03*
Y316880D02*
D03*
X223520Y302880D02*
D03*
Y316880D02*
D03*
X433070Y344140D02*
D03*
X93980Y366380D02*
D03*
Y380380D02*
D03*
X59690Y349870D02*
D03*
Y363870D02*
D03*
X77470Y367650D02*
D03*
Y381650D02*
D03*
X240030Y295879D02*
D03*
Y309879D02*
D03*
X93980Y318150D02*
D03*
Y304150D02*
D03*
X68580Y317530D02*
D03*
Y303530D02*
D03*
X433070Y358140D02*
D03*
X386577Y385430D02*
D03*
Y399430D02*
D03*
X375920Y354980D02*
D03*
Y340980D02*
D03*
X407098Y309230D02*
D03*
Y323230D02*
D03*
X251460Y410860D02*
D03*
Y396860D02*
D03*
X391160Y309230D02*
D03*
Y323230D02*
D03*
X49530Y89520D02*
D03*
Y103520D02*
D03*
X59690Y207010D02*
D03*
Y193010D02*
D03*
X83820Y194930D02*
D03*
Y208930D02*
D03*
D16*
X355103Y387782D02*
D03*
Y375082D02*
D03*
Y362382D02*
D03*
Y336982D02*
D03*
Y324282D02*
D03*
Y311582D02*
D03*
X300863D02*
D03*
Y324282D02*
D03*
Y336982D02*
D03*
Y362382D02*
D03*
Y375082D02*
D03*
Y387782D02*
D03*
Y349682D02*
D03*
X355103D02*
D03*
X169561Y379796D02*
D03*
Y367096D02*
D03*
Y354397D02*
D03*
Y341697D02*
D03*
Y328997D02*
D03*
Y316297D02*
D03*
Y303596D02*
D03*
X115321D02*
D03*
Y316297D02*
D03*
Y328997D02*
D03*
Y341697D02*
D03*
Y354397D02*
D03*
Y367096D02*
D03*
Y379796D02*
D03*
D17*
X434180Y421460D02*
D03*
X429180D02*
D03*
X424180D02*
D03*
X419180D02*
D03*
X414180D02*
D03*
Y378460D02*
D03*
X419180D02*
D03*
X424180D02*
D03*
X429180D02*
D03*
X434180D02*
D03*
D18*
X367000Y433070D02*
D03*
X381000D02*
D03*
X191270Y334010D02*
D03*
X205270D02*
D03*
X191270Y349250D02*
D03*
X205270D02*
D03*
X349900Y419100D02*
D03*
X179690D02*
D03*
X388000Y73660D02*
D03*
X202378D02*
D03*
X305420Y419100D02*
D03*
X459120Y73660D02*
D03*
X139050Y417830D02*
D03*
X234330Y72390D02*
D03*
X275590Y330923D02*
D03*
X261590D02*
D03*
X82580Y397510D02*
D03*
X68580D02*
D03*
X220330Y72390D02*
D03*
X153050Y417830D02*
D03*
X193690Y419100D02*
D03*
X188378Y73660D02*
D03*
X265502Y379730D02*
D03*
X279502D02*
D03*
X233710Y364490D02*
D03*
X219710D02*
D03*
X234330Y389890D02*
D03*
X220330D02*
D03*
X97760Y285750D02*
D03*
X111760D02*
D03*
X90820Y349250D02*
D03*
X76820D02*
D03*
X134000Y398780D02*
D03*
X120000D02*
D03*
X90820Y334707D02*
D03*
X76820D02*
D03*
X152370Y398780D02*
D03*
X166370D02*
D03*
X286400Y405130D02*
D03*
X272400D02*
D03*
X321930Y175260D02*
D03*
X335930D02*
D03*
X268118Y356870D02*
D03*
X282118D02*
D03*
X337200Y149860D02*
D03*
X323200D02*
D03*
X232410Y349250D02*
D03*
X246410D02*
D03*
X344199Y294640D02*
D03*
X330200D02*
D03*
X334660Y121920D02*
D03*
X320660D02*
D03*
X321310Y95250D02*
D03*
X335310D02*
D03*
X445120Y73660D02*
D03*
X319420Y419100D02*
D03*
X335900D02*
D03*
X374000Y73660D02*
D03*
X123810Y74930D02*
D03*
X137810D02*
D03*
X123810Y90170D02*
D03*
X137810D02*
D03*
X57800Y175260D02*
D03*
X43800D02*
D03*
X67930Y226060D02*
D03*
X81930D02*
D03*
X159423Y181610D02*
D03*
X145422D02*
D03*
X139080Y105410D02*
D03*
X125080D02*
D03*
X91440Y165100D02*
D03*
X77440D02*
D03*
D19*
X204978Y209550D02*
D03*
Y196850D02*
D03*
Y184150D02*
D03*
Y171450D02*
D03*
Y158750D02*
D03*
Y146050D02*
D03*
Y133350D02*
D03*
Y120650D02*
D03*
Y107950D02*
D03*
Y95250D02*
D03*
X297978D02*
D03*
Y107950D02*
D03*
Y120650D02*
D03*
Y133350D02*
D03*
Y146050D02*
D03*
Y158750D02*
D03*
Y171450D02*
D03*
Y184150D02*
D03*
Y196850D02*
D03*
Y209550D02*
D03*
X365760Y121920D02*
D03*
X458760Y96520D02*
D03*
X365760Y210820D02*
D03*
Y198120D02*
D03*
Y185420D02*
D03*
Y172720D02*
D03*
Y160020D02*
D03*
Y147320D02*
D03*
Y134620D02*
D03*
Y109220D02*
D03*
Y96520D02*
D03*
X458760Y109220D02*
D03*
Y121920D02*
D03*
Y134620D02*
D03*
Y147320D02*
D03*
Y160020D02*
D03*
Y172720D02*
D03*
Y185420D02*
D03*
Y198120D02*
D03*
Y210820D02*
D03*
D20*
X82702Y88329D02*
D03*
X87706D02*
D03*
X92710D02*
D03*
X97714D02*
D03*
X102718D02*
D03*
Y132652D02*
D03*
X97714D02*
D03*
X92710D02*
D03*
X87706D02*
D03*
X82702D02*
D03*
D21*
X110380Y165100D02*
D03*
X128380D02*
D03*
D22*
X54610Y147430D02*
D03*
Y129430D02*
D03*
D23*
X158750Y158940D02*
D03*
Y135700D02*
D03*
X153670Y228107D02*
D03*
Y204867D02*
D03*
X118110Y212280D02*
D03*
Y189040D02*
D03*
M02*
