G04*
G04 #@! TF.GenerationSoftware,Altium Limited,Altium Designer,22.8.2 (66)*
G04*
G04 Layer_Color=128*
%FSLAX44Y44*%
%MOMM*%
G71*
G04*
G04 #@! TF.SameCoordinates,219079CE-D9F2-4F20-8337-977AF1FC8BC2*
G04*
G04*
G04 #@! TF.FilePolarity,Positive*
G04*
G01*
G75*
%ADD43C,0.0508*%
D43*
X352370Y27940D02*
X361370D01*
X356870Y23440D02*
Y32440D01*
X326970Y27940D02*
X335970D01*
X331470Y23440D02*
Y32440D01*
X276170Y27940D02*
X285170D01*
X280670Y23440D02*
Y32440D01*
X250770Y27940D02*
X259770D01*
X255270Y23440D02*
Y32440D01*
X225370Y27940D02*
X234370D01*
X229870Y23440D02*
Y32440D01*
X199970Y27940D02*
X208970D01*
X204470Y23440D02*
Y32440D01*
X174570Y27940D02*
X183570D01*
X179070Y23440D02*
Y32440D01*
X149170Y27940D02*
X158170D01*
X153670Y23440D02*
Y32440D01*
X123770Y27940D02*
X132770D01*
X128270Y23440D02*
Y32440D01*
X301570Y27940D02*
X310570D01*
X306070Y23440D02*
Y32440D01*
X465830Y20320D02*
X496830D01*
X481330Y4820D02*
Y35820D01*
X6090Y21590D02*
X37090D01*
X21590Y6090D02*
Y37090D01*
X463290Y421640D02*
X494290D01*
X478790Y406140D02*
Y437140D01*
X7360Y424180D02*
X38360D01*
X22860Y408680D02*
Y439680D01*
X121230Y254000D02*
X130230D01*
X125730Y249500D02*
Y258500D01*
X84400Y254000D02*
X93400D01*
X88900Y249500D02*
Y258500D01*
X271090Y62230D02*
X280090D01*
X275590Y57730D02*
Y66730D01*
X296490Y62230D02*
X305490D01*
X300990Y57730D02*
Y66730D01*
X146630Y254000D02*
X155630D01*
X151130Y249500D02*
Y258500D01*
X59000Y254000D02*
X68000D01*
X63500Y249500D02*
Y258500D01*
X52650Y30480D02*
X61650D01*
X57150Y25980D02*
Y34980D01*
X52650Y55880D02*
X61650D01*
X57150Y51380D02*
Y60380D01*
X395224Y417830D02*
X402336D01*
X398780Y414274D02*
Y421386D01*
X202184Y361950D02*
X209296D01*
X205740Y358394D02*
Y365506D01*
X76454Y115570D02*
X83566D01*
X80010Y112014D02*
Y119126D01*
X231394Y376500D02*
X238506D01*
X234950Y372944D02*
Y380056D01*
X249864Y313384D02*
X256976D01*
X253420Y309828D02*
Y316940D01*
X214884Y349250D02*
X221996D01*
X218440Y345694D02*
Y352806D01*
X236474Y321310D02*
X243586D01*
X240030Y317754D02*
Y324866D01*
X398143Y376684D02*
X405255D01*
X401699Y373128D02*
Y380240D01*
X384400Y366139D02*
X391512D01*
X387956Y362583D02*
Y369695D01*
X449834Y431800D02*
X456946D01*
X453390Y428244D02*
Y435356D01*
X382524Y214630D02*
X389636D01*
X386080Y211074D02*
Y218186D01*
X442214Y241300D02*
X449326D01*
X445770Y237744D02*
Y244856D01*
X457454Y231140D02*
X464566D01*
X461010Y227584D02*
Y234696D01*
X370023Y78541D02*
X377135D01*
X373579Y74985D02*
Y82097D01*
X380061Y120573D02*
X387173D01*
X383617Y117017D02*
Y124129D01*
X316992Y78232D02*
X324104D01*
X320548Y74676D02*
Y81788D01*
X200914Y59690D02*
X208026D01*
X204470Y56134D02*
Y63246D01*
X372364Y50800D02*
X379476D01*
X375920Y47244D02*
Y54356D01*
X477774Y347980D02*
X484886D01*
X481330Y344423D02*
Y351535D01*
X433324Y93980D02*
X440436D01*
X436880Y90424D02*
Y97536D01*
X421894Y314960D02*
X429006D01*
X425450Y311404D02*
Y318516D01*
X283464Y415290D02*
X290576D01*
X287020Y411734D02*
Y418846D01*
X115824Y422910D02*
X122936D01*
X119380Y419354D02*
Y426466D01*
X274574Y168910D02*
X281686D01*
X278130Y165354D02*
Y172466D01*
X134874Y358140D02*
X141986D01*
X138430Y354584D02*
Y361696D01*
X137414Y322580D02*
X144526D01*
X140970Y319024D02*
Y326136D01*
X54864Y331470D02*
X61976D01*
X58420Y327914D02*
Y335026D01*
X59944Y381000D02*
X67056D01*
X63500Y377444D02*
Y384556D01*
X338074Y81280D02*
X345186D01*
X341630Y77724D02*
Y84836D01*
X120904Y62230D02*
X128016D01*
X124460Y58674D02*
Y65786D01*
X63754Y85090D02*
X70866D01*
X67310Y81534D02*
Y88646D01*
X105664Y110490D02*
X112776D01*
X109220Y106934D02*
Y114046D01*
X134874Y130810D02*
X141986D01*
X138430Y127254D02*
Y134366D01*
X58507Y115835D02*
X65619D01*
X62063Y112279D02*
Y119391D01*
X165223Y418083D02*
X172335D01*
X168779Y414527D02*
Y421639D01*
X316484Y359410D02*
X323596D01*
X320040Y355854D02*
Y362966D01*
X332994Y347980D02*
X340106D01*
X336550Y344424D02*
Y351536D01*
X386641Y88551D02*
X393753D01*
X390197Y84994D02*
Y92107D01*
X270764Y96520D02*
X277876D01*
X274320Y92964D02*
Y100076D01*
X226314Y128270D02*
X233426D01*
X229870Y124714D02*
Y131826D01*
X356353Y401827D02*
X363465D01*
X359909Y398271D02*
Y405383D01*
X221234Y107950D02*
X228346D01*
X224790Y104394D02*
Y111506D01*
X205994Y284480D02*
X213106D01*
X209550Y280924D02*
Y288036D01*
X70104Y185420D02*
X77216D01*
X73660Y181864D02*
Y188976D01*
X128270Y297688D02*
X135382D01*
X131826Y294132D02*
Y301244D01*
X126746Y209804D02*
X133858D01*
X130302Y206248D02*
Y213360D01*
M02*
