G04*
G04 #@! TF.GenerationSoftware,Altium Limited,Altium Designer,22.8.2 (66)*
G04*
G04 Layer_Color=16711935*
%FSLAX44Y44*%
%MOMM*%
G71*
G04*
G04 #@! TF.SameCoordinates,219079CE-D9F2-4F20-8337-977AF1FC8BC2*
G04*
G04*
G04 #@! TF.FilePolarity,Negative*
G04*
G01*
G75*
%ADD32R,1.7032X1.7032*%
%ADD33C,1.7032*%
%ADD34C,1.7272*%
%ADD35R,1.7032X1.7032*%
%ADD36C,1.4732*%
D32*
X356870Y27940D02*
D03*
X125730Y254000D02*
D03*
X88900D02*
D03*
X300990Y62230D02*
D03*
D33*
X331470Y27940D02*
D03*
X280670D02*
D03*
X255270D02*
D03*
X229870D02*
D03*
X204470D02*
D03*
X179070D02*
D03*
X153670D02*
D03*
X128270D02*
D03*
X306070D02*
D03*
X275590Y62230D02*
D03*
X151130Y254000D02*
D03*
X63500D02*
D03*
X57150Y55880D02*
D03*
D34*
X481330Y20320D02*
D03*
X21590Y21590D02*
D03*
X478790Y421640D02*
D03*
X22860Y424180D02*
D03*
D35*
X57150Y30480D02*
D03*
D36*
X398780Y417830D02*
D03*
X205740Y361950D02*
D03*
X80010Y115570D02*
D03*
X234950Y376500D02*
D03*
X253420Y313384D02*
D03*
X218440Y349250D02*
D03*
X240030Y321310D02*
D03*
X401699Y376684D02*
D03*
X387956Y366139D02*
D03*
X453390Y431800D02*
D03*
X386080Y214630D02*
D03*
X445770Y241300D02*
D03*
X461010Y231140D02*
D03*
X373579Y78541D02*
D03*
X383617Y120573D02*
D03*
X320548Y78232D02*
D03*
X204470Y59690D02*
D03*
X375920Y50800D02*
D03*
X481330Y347980D02*
D03*
X436880Y93980D02*
D03*
X425450Y314960D02*
D03*
X287020Y415290D02*
D03*
X119380Y422910D02*
D03*
X278130Y168910D02*
D03*
X138430Y358140D02*
D03*
X140970Y322580D02*
D03*
X58420Y331470D02*
D03*
X63500Y381000D02*
D03*
X341630Y81280D02*
D03*
X124460Y62230D02*
D03*
X67310Y85090D02*
D03*
X109220Y110490D02*
D03*
X138430Y130810D02*
D03*
X62063Y115835D02*
D03*
X168779Y418083D02*
D03*
X320040Y359410D02*
D03*
X336550Y347980D02*
D03*
X390197Y88551D02*
D03*
X274320Y96520D02*
D03*
X229870Y128270D02*
D03*
X359909Y401827D02*
D03*
X224790Y107950D02*
D03*
X209550Y284480D02*
D03*
X73660Y185420D02*
D03*
X131826Y297688D02*
D03*
X130302Y209804D02*
D03*
M02*
