M48
;Layer_Color=9474304
;FILE_FORMAT=4:4
METRIC,LZ
;TYPE=PLATED
T1F00S00C0.7112
T2F00S00C0.8000
T3F00S00C0.8500
T4F00S00C0.9000
T5F00S00C1.0500
T6F00S00C1.6000
T7F00S00C3.1000
%
T01
X0027305Y00102216
X0026035Y0011811
X002921Y001143
X0027305Y0016256
X0023368
X00212667Y00188639
X0018923Y0020066
X0022352Y002159
X0024384Y0025273
X0024946Y00302402
X0024892Y0032258
X00236239Y00314126
X00237808Y00363537
X0026035Y0036322
X0025918Y0038354
X0022225Y0037465
X0019431Y003302
X0019304Y002921
X0028904Y00273442
X00303995Y0027051
X0030988Y0028575
X0033274Y0029718
X0034798Y0029845
X0036449Y0029718
X0037592Y0025146
X0035433Y0022352
X003596Y00206692
X00331534Y00209614
X00307975Y00201295
X0030734Y0024257
X0028829Y0031496
X0034036Y0035814
X0033655Y003757
X0037338Y0037592
X004318Y0037846
X00405637Y00345947
X0039497Y0033147
X0040386Y0030734
X003937Y0027051
X0042926Y0020828
X00461059Y00144731
X0055753Y0011938
X0063119Y0006731
X00635664Y00227709
X0059309Y0022479
X0051689Y0022352
X00508Y0034671
X0050479Y00369058
X0056896Y0035814
X0064389Y0037592
X00756256Y00334389
X0078486Y0030734
X00762Y0019304
X008255Y0024511
X00848945Y00304087
X0089926Y0019304
X0089535Y0013716
X0090932Y0011557
X0084963Y0013081
X0083439Y0044323
X0093218Y0048006
X0098105Y00494684
X0072771Y0049276
X00708917Y00501724
X0066802Y0050292
X0068707Y0052578
X0068072Y0046863
X00601868Y00479948
X0059055Y004953
X00578506Y0047115
X00567311Y004572
X00585132Y00435948
X00602367Y00443976
X00601173Y00425654
X0059055Y0041148
X00571861Y00422677
X006356Y00401155
X0065532Y0040024
X0076327Y0044948
X0073025Y0058547
X0070358
X0067945
X0065405
X0062865
X0061722Y0060833
X0060198Y0057404
X00576215Y00579026
X00573762Y00594216
X0055118Y0060325
X00553235Y0052067
X0057658Y0051816
X00603661Y00521771
X0060649Y00540481
X0060071Y00656381
X00663898Y00673507
X006604Y0068834
X00662738Y00705695
X0064135Y0070739
X0062357Y0074676
X00632854Y0076005
X006604Y00762
X0059895Y00756011
X00573765Y00752115
X005588Y0076835
X0054737Y0073279
X0046482Y005969
X0048006Y0057912
X00488931Y00516987
X0048006Y0048895
X0049276Y0046599
X00478333Y00438661
X0048387Y0041275
X0043434Y0039751
X00437156Y0043942
X0043942Y0046101
X00436694Y00484116
X0043942Y0049911
X0044069Y0052067
X004064Y005461
X0039497Y0049022
X006985Y0061722
X0072136Y0061087
X0075184
X00756412Y00650748
X00784352Y00644817
X007747Y0067818
X00773271Y00696556
X0074803Y0069215
X00374714Y00693484
X0033655Y0068072
X003175Y0068199
X00300862Y00689482
X0031877Y0073914
X0028575Y0074803
X003429Y00719358
X003556Y0064516
X0035084Y0062516
X0033811Y0061243
X0032385Y0060071
X0032512Y0058166
X0032131Y005461
X0029591Y0053213
X0026162
X0023749Y0052324
X0020193Y0053467
X0020701Y0064135
X00254Y00638642
X00230091Y00684546
X0020828Y0075692
X0035306Y0056896
X0038862Y0056515
X00382841Y00479361
X0033655Y0047498
X00302299Y00477396
X0028829Y0046609
X0027432Y0043815
X002413Y004318
X0024892Y0040132
X0029591Y0041529
X0031369Y0043942
X0038735Y0043053
X0037084Y0041148
X00365054Y00396996
X0033528Y0051435
X0063627Y0080264
T02
X0075978Y0006731
X0077978
Y0020731
X0075978
X0079978
X0081978
X0083978
X0085978
X0087978
X0089978
Y0006731
X0087978
X0085978
X0083978
X0081978
X0079978
T03
X0072771Y00813583
X0086271
T04
X0040767Y0018161
X0043307
Y00273783
X0045847
X0048387
X005334Y0027305
X005588
X005842
X0062865Y0027178
X0065405
X0067945
X0066167Y0032639
X0063627
X0061087
X0058547
X0056007
X0053467
X0050927
X0048387
X0045847
X0043307
X0053848Y0008509
X0056388
X0058928
X0071374Y0016637
Y0019177
Y0021717
X0083185Y0025781
X0085725
X0088265
X0090805
X0091059Y0044704
Y0047244
X0089535Y0053213
Y0055753
Y0058293
X0085979Y005842
Y005588
Y005334
X0093345Y0053086
Y0055626
Y0058166
X0091313Y0062357
X0088773
X0086233
X0087757Y0067056
Y0069596
X0079821Y00693958
Y00719358
X0078994Y0075184
X0076454
X0073914
X0071374
X0068834
X0050038Y0076708
X00165666Y0076962
Y0074422
Y0071882
Y0079502
X0022987Y0080518
X0025527
X0028067
X0030607
X0033147
X0035687
X0038227
X0037973Y0084328
X0035433
X0032893
X0030353
X0027813
X0025273
X0022733
X0040513
X0043053
X0045593
X0045847Y0080518
X0043307
X0040767
X0050038Y0081788
Y0084328
Y0079248
T05
X0040934Y0009271
X0043434
T06
X00657233Y0006858
X00708033
Y0011938
X00657233
X00682633Y0009398
T07
X000254Y0002794
X0106807Y0002667
X0002667Y0084582
X0106934Y0084455
M30
