G04*
G04 #@! TF.GenerationSoftware,Altium Limited,Altium Designer,22.8.2 (66)*
G04*
G04 Layer_Color=8421504*
%FSLAX44Y44*%
%MOMM*%
G71*
G04*
G04 #@! TF.SameCoordinates,9714C633-81E7-4BB1-B996-9AD4BBD72758*
G04*
G04*
G04 #@! TF.FilePolarity,Positive*
G04*
G01*
G75*
%ADD16R,0.8000X0.9000*%
%ADD17R,0.9000X0.8000*%
%ADD18R,0.6500X1.5250*%
%ADD19C,1.5240*%
%ADD20R,0.9000X1.1000*%
%ADD21R,0.6000X1.2000*%
G04:AMPARAMS|DCode=22|XSize=1.21mm|YSize=0.48mm|CornerRadius=0.06mm|HoleSize=0mm|Usage=FLASHONLY|Rotation=90.000|XOffset=0mm|YOffset=0mm|HoleType=Round|Shape=RoundedRectangle|*
%AMROUNDEDRECTD22*
21,1,1.2100,0.3600,0,0,90.0*
21,1,1.0900,0.4800,0,0,90.0*
1,1,0.1200,0.1800,0.5450*
1,1,0.1200,0.1800,-0.5450*
1,1,0.1200,-0.1800,-0.5450*
1,1,0.1200,-0.1800,0.5450*
%
%ADD22ROUNDEDRECTD22*%
%ADD23R,0.8128X0.2540*%
%ADD24R,1.7526X2.4892*%
G04:AMPARAMS|DCode=25|XSize=1.97mm|YSize=0.59mm|CornerRadius=0.0738mm|HoleSize=0mm|Usage=FLASHONLY|Rotation=90.000|XOffset=0mm|YOffset=0mm|HoleType=Round|Shape=RoundedRectangle|*
%AMROUNDEDRECTD25*
21,1,1.9700,0.4425,0,0,90.0*
21,1,1.8225,0.5900,0,0,90.0*
1,1,0.1475,0.2213,0.9113*
1,1,0.1475,0.2213,-0.9113*
1,1,0.1475,-0.2213,-0.9113*
1,1,0.1475,-0.2213,0.9113*
%
%ADD25ROUNDEDRECTD25*%
%ADD26R,0.5500X1.0620*%
%ADD27R,1.1750X1.9000*%
%ADD28R,1.4750X2.1000*%
%ADD29R,2.3750X1.9000*%
%ADD30R,0.4500X1.3800*%
%ADD31R,0.9000X1.4000*%
%ADD32R,1.7000X0.8000*%
G04:AMPARAMS|DCode=33|XSize=1.47mm|YSize=0.28mm|CornerRadius=0.035mm|HoleSize=0mm|Usage=FLASHONLY|Rotation=270.000|XOffset=0mm|YOffset=0mm|HoleType=Round|Shape=RoundedRectangle|*
%AMROUNDEDRECTD33*
21,1,1.4700,0.2100,0,0,270.0*
21,1,1.4000,0.2800,0,0,270.0*
1,1,0.0700,-0.1050,-0.7000*
1,1,0.0700,-0.1050,0.7000*
1,1,0.0700,0.1050,0.7000*
1,1,0.0700,0.1050,-0.7000*
%
%ADD33ROUNDEDRECTD33*%
D16*
X951880Y467360D02*
D03*
X937880D02*
D03*
X309260Y255270D02*
D03*
X295260D02*
D03*
X297830Y363120D02*
D03*
X283830D02*
D03*
X240650Y271034D02*
D03*
X254650D02*
D03*
X325770Y425350D02*
D03*
X311770D02*
D03*
X176160Y690880D02*
D03*
X162160D02*
D03*
X657111Y749294D02*
D03*
X643110D02*
D03*
X859170Y316230D02*
D03*
X845170D02*
D03*
X830050Y463550D02*
D03*
X844050D02*
D03*
X793100Y461772D02*
D03*
X807100D02*
D03*
X844020Y430530D02*
D03*
X858020D02*
D03*
X805800Y440690D02*
D03*
X819800D02*
D03*
X270323Y731148D02*
D03*
X256323D02*
D03*
X271161Y746760D02*
D03*
X257160D02*
D03*
D17*
X204903Y559728D02*
D03*
Y545728D02*
D03*
X306070Y314240D02*
D03*
Y300240D02*
D03*
X374650Y312067D02*
D03*
Y326067D02*
D03*
X241300Y210689D02*
D03*
Y224689D02*
D03*
X306070Y173859D02*
D03*
Y187859D02*
D03*
X207010Y206879D02*
D03*
Y220879D02*
D03*
X374650Y353610D02*
D03*
Y339610D02*
D03*
X300990Y396860D02*
D03*
Y410860D02*
D03*
X560070Y472440D02*
D03*
Y486440D02*
D03*
X541020Y472440D02*
D03*
Y486440D02*
D03*
X521970Y472440D02*
D03*
Y486440D02*
D03*
X579120Y457200D02*
D03*
Y443200D02*
D03*
X502920Y457200D02*
D03*
Y443200D02*
D03*
X560070Y457200D02*
D03*
Y443200D02*
D03*
X502920Y472440D02*
D03*
Y486440D02*
D03*
X541020Y457200D02*
D03*
Y443200D02*
D03*
X521970Y457200D02*
D03*
Y443200D02*
D03*
X881380Y393842D02*
D03*
Y379842D02*
D03*
X800100Y320690D02*
D03*
Y306690D02*
D03*
X191770Y743570D02*
D03*
Y757570D02*
D03*
X190500Y782940D02*
D03*
Y796940D02*
D03*
X369570Y459090D02*
D03*
Y473090D02*
D03*
X351790Y473090D02*
D03*
Y459090D02*
D03*
X822960Y306690D02*
D03*
Y320690D02*
D03*
X861837Y382412D02*
D03*
Y368412D02*
D03*
X322579Y630570D02*
D03*
Y616570D02*
D03*
X298075Y616848D02*
D03*
Y630848D02*
D03*
X273136D02*
D03*
Y616848D02*
D03*
X263323Y459368D02*
D03*
Y473368D02*
D03*
X249353Y459368D02*
D03*
Y473368D02*
D03*
X235383D02*
D03*
Y459368D02*
D03*
X227763Y588288D02*
D03*
Y574288D02*
D03*
X241733Y745520D02*
D03*
Y731520D02*
D03*
X260667Y588288D02*
D03*
Y574288D02*
D03*
X310543Y588288D02*
D03*
Y574288D02*
D03*
X227190Y731520D02*
D03*
Y745520D02*
D03*
X213220Y574288D02*
D03*
Y588288D02*
D03*
X285606Y574288D02*
D03*
Y588288D02*
D03*
X338253Y631468D02*
D03*
Y617468D02*
D03*
X244273Y588258D02*
D03*
Y602258D02*
D03*
D18*
X298883Y550810D02*
D03*
X286183D02*
D03*
X273483D02*
D03*
X248083D02*
D03*
X235383D02*
D03*
X222683D02*
D03*
Y496570D02*
D03*
X235383D02*
D03*
X248083D02*
D03*
X260783D02*
D03*
X273483D02*
D03*
X286183D02*
D03*
X298883D02*
D03*
X260783Y550810D02*
D03*
X262890Y707840D02*
D03*
X300991Y653600D02*
D03*
X288291D02*
D03*
X275590D02*
D03*
X262890D02*
D03*
X250191D02*
D03*
X237491D02*
D03*
X224790D02*
D03*
Y707840D02*
D03*
X237491D02*
D03*
X250191D02*
D03*
X275590D02*
D03*
X288291D02*
D03*
X300991D02*
D03*
X250190Y344197D02*
D03*
X288290Y289957D02*
D03*
X275590D02*
D03*
X262890D02*
D03*
X250190D02*
D03*
X237490D02*
D03*
X224790D02*
D03*
X212090D02*
D03*
Y344197D02*
D03*
X224790D02*
D03*
X237490D02*
D03*
X262890D02*
D03*
X275590D02*
D03*
X288290D02*
D03*
D19*
X177800Y222250D02*
D03*
X313690Y462280D02*
D03*
D20*
X277160Y405520D02*
D03*
X264160D02*
D03*
X277160Y388520D02*
D03*
X264160D02*
D03*
D21*
X258470Y253050D02*
D03*
X277470D02*
D03*
Y228050D02*
D03*
X267970D02*
D03*
X258470D02*
D03*
D22*
X325530Y268990D02*
D03*
X332030D02*
D03*
X338530D02*
D03*
X345030D02*
D03*
Y243890D02*
D03*
X338530D02*
D03*
X332030D02*
D03*
X325530D02*
D03*
X324970Y339960D02*
D03*
X331470D02*
D03*
X337970D02*
D03*
X344470D02*
D03*
Y314860D02*
D03*
X337970D02*
D03*
X331470D02*
D03*
X324970D02*
D03*
D23*
X322072Y401060D02*
D03*
Y396060D02*
D03*
Y391060D02*
D03*
Y386060D02*
D03*
Y381060D02*
D03*
X351028D02*
D03*
Y386060D02*
D03*
Y391060D02*
D03*
Y396060D02*
D03*
Y401060D02*
D03*
D24*
X336550Y391060D02*
D03*
D25*
X247650Y185289D02*
D03*
X260350D02*
D03*
X273050D02*
D03*
X285750D02*
D03*
Y135790D02*
D03*
X273050D02*
D03*
X260350D02*
D03*
X247650D02*
D03*
X840740Y345748D02*
D03*
X828040D02*
D03*
X815340D02*
D03*
X802640D02*
D03*
Y395248D02*
D03*
X815340D02*
D03*
X828040D02*
D03*
X840740D02*
D03*
D26*
X207010Y239329D02*
D03*
Y262090D02*
D03*
D27*
X580900Y806585D02*
D03*
X597650D02*
D03*
D28*
X613900Y783584D02*
D03*
X564650D02*
D03*
D29*
X560150Y806585D02*
D03*
X618401D02*
D03*
D30*
X582776Y779985D02*
D03*
X589275D02*
D03*
X602275D02*
D03*
X595775D02*
D03*
X576275D02*
D03*
D31*
X949350Y488950D02*
D03*
X968350D02*
D03*
D32*
X406306Y447820D02*
D03*
Y481820D02*
D03*
D33*
X331903Y660118D02*
D03*
X341903D02*
D03*
X336903D02*
D03*
X326903D02*
D03*
X321903D02*
D03*
Y703118D02*
D03*
X326903D02*
D03*
X331903D02*
D03*
X336903D02*
D03*
X341903D02*
D03*
M02*
