G04*
G04 #@! TF.GenerationSoftware,Altium Limited,Altium Designer,22.8.2 (66)*
G04*
G04 Layer_Physical_Order=2*
G04 Layer_Color=16440176*
%FSLAX44Y44*%
%MOMM*%
G71*
G04*
G04 #@! TF.SameCoordinates,9714C633-81E7-4BB1-B996-9AD4BBD72758*
G04*
G04*
G04 #@! TF.FilePolarity,Positive*
G04*
G01*
G75*
%ADD14C,0.2540*%
%ADD19C,1.5240*%
%ADD57C,1.5000*%
%ADD58R,1.5000X1.5000*%
%ADD59C,1.3810*%
%ADD60R,1.5000X1.5000*%
%ADD61C,1.3000*%
%ADD63C,1.5750*%
%ADD64C,2.4000*%
%ADD66C,1.2700*%
G36*
X26574Y869872D02*
X26574Y869872D01*
X27816Y869900D01*
X27850Y869900D01*
X1076418D01*
X1079747Y868890D01*
X1083630Y866815D01*
X1087033Y864022D01*
X1089826Y860619D01*
X1091901Y856736D01*
X1093179Y852523D01*
X1093611Y848141D01*
X1093363Y845619D01*
X1093363Y845619D01*
X1093363Y845619D01*
X1093420Y844415D01*
X1092060Y28156D01*
X1092059Y28149D01*
X1092073Y28081D01*
X1091630Y23587D01*
X1090236Y18993D01*
X1087973Y14759D01*
X1084927Y11047D01*
X1081216Y8001D01*
X1076982Y5738D01*
X1072387Y4344D01*
X1067950Y3907D01*
X1067906Y3916D01*
X26505Y3860D01*
X26502Y3917D01*
X25919Y3860D01*
X24044Y3860D01*
X20287Y4230D01*
X15773Y5599D01*
X11613Y7822D01*
X7967Y10815D01*
X4975Y14461D01*
X2752Y18621D01*
X1382Y23134D01*
X1032Y26689D01*
X957Y27926D01*
X959Y27936D01*
X903Y28215D01*
X818Y29148D01*
Y845508D01*
X1253Y849922D01*
X2670Y854593D01*
X4971Y858897D01*
X8067Y862669D01*
X11839Y865765D01*
X16143Y868066D01*
X20813Y869482D01*
X25308Y869925D01*
X26574Y869872D01*
D02*
G37*
%LPC*%
G36*
X457252Y853320D02*
X454608D01*
X452055Y852636D01*
X449765Y851314D01*
X447896Y849445D01*
X446574Y847155D01*
X445890Y844602D01*
Y841958D01*
X446574Y839405D01*
X447896Y837115D01*
X449765Y835246D01*
X452055Y833924D01*
X454608Y833240D01*
X457252D01*
X459805Y833924D01*
X462095Y835246D01*
X463964Y837115D01*
X465286Y839405D01*
X465970Y841958D01*
Y844602D01*
X465286Y847155D01*
X463964Y849445D01*
X462095Y851314D01*
X459805Y852636D01*
X457252Y853320D01*
D02*
G37*
G36*
X431852D02*
X429208D01*
X426655Y852636D01*
X424365Y851314D01*
X422496Y849445D01*
X421174Y847155D01*
X420490Y844602D01*
Y841958D01*
X421174Y839405D01*
X422496Y837115D01*
X424365Y835246D01*
X426655Y833924D01*
X429208Y833240D01*
X431852D01*
X434405Y833924D01*
X436695Y835246D01*
X438564Y837115D01*
X439886Y839405D01*
X440570Y841958D01*
Y844602D01*
X439886Y847155D01*
X438564Y849445D01*
X436695Y851314D01*
X434405Y852636D01*
X431852Y853320D01*
D02*
G37*
G36*
X406452D02*
X403808D01*
X401255Y852636D01*
X398965Y851314D01*
X397096Y849445D01*
X395774Y847155D01*
X395090Y844602D01*
Y841958D01*
X395774Y839405D01*
X397096Y837115D01*
X398965Y835246D01*
X401255Y833924D01*
X403808Y833240D01*
X406452D01*
X409005Y833924D01*
X411295Y835246D01*
X413164Y837115D01*
X414486Y839405D01*
X415170Y841958D01*
Y844602D01*
X414486Y847155D01*
X413164Y849445D01*
X411295Y851314D01*
X409005Y852636D01*
X406452Y853320D01*
D02*
G37*
G36*
X381052D02*
X378408D01*
X375855Y852636D01*
X373565Y851314D01*
X371696Y849445D01*
X370374Y847155D01*
X369690Y844602D01*
Y841958D01*
X370374Y839405D01*
X371696Y837115D01*
X373565Y835246D01*
X375855Y833924D01*
X378408Y833240D01*
X381052D01*
X383605Y833924D01*
X385895Y835246D01*
X387764Y837115D01*
X389086Y839405D01*
X389770Y841958D01*
Y844602D01*
X389086Y847155D01*
X387764Y849445D01*
X385895Y851314D01*
X383605Y852636D01*
X381052Y853320D01*
D02*
G37*
G36*
X355652D02*
X353008D01*
X350455Y852636D01*
X348165Y851314D01*
X346296Y849445D01*
X344974Y847155D01*
X344290Y844602D01*
Y841958D01*
X344974Y839405D01*
X346296Y837115D01*
X348165Y835246D01*
X350455Y833924D01*
X353008Y833240D01*
X355652D01*
X358205Y833924D01*
X360495Y835246D01*
X362364Y837115D01*
X363686Y839405D01*
X364370Y841958D01*
Y844602D01*
X363686Y847155D01*
X362364Y849445D01*
X360495Y851314D01*
X358205Y852636D01*
X355652Y853320D01*
D02*
G37*
G36*
X330252D02*
X327608D01*
X325055Y852636D01*
X322765Y851314D01*
X320896Y849445D01*
X319574Y847155D01*
X318890Y844602D01*
Y841958D01*
X319574Y839405D01*
X320896Y837115D01*
X322765Y835246D01*
X325055Y833924D01*
X327608Y833240D01*
X330252D01*
X332805Y833924D01*
X335095Y835246D01*
X336964Y837115D01*
X338286Y839405D01*
X338970Y841958D01*
Y844602D01*
X338286Y847155D01*
X336964Y849445D01*
X335095Y851314D01*
X332805Y852636D01*
X330252Y853320D01*
D02*
G37*
G36*
X304852D02*
X302208D01*
X299655Y852636D01*
X297365Y851314D01*
X295496Y849445D01*
X294174Y847155D01*
X293490Y844602D01*
Y841958D01*
X294174Y839405D01*
X295496Y837115D01*
X297365Y835246D01*
X299655Y833924D01*
X302208Y833240D01*
X304852D01*
X307405Y833924D01*
X309695Y835246D01*
X311564Y837115D01*
X312886Y839405D01*
X313570Y841958D01*
Y844602D01*
X312886Y847155D01*
X311564Y849445D01*
X309695Y851314D01*
X307405Y852636D01*
X304852Y853320D01*
D02*
G37*
G36*
X279452D02*
X276808D01*
X274255Y852636D01*
X271965Y851314D01*
X270096Y849445D01*
X268774Y847155D01*
X268090Y844602D01*
Y841958D01*
X268774Y839405D01*
X270096Y837115D01*
X271965Y835246D01*
X274255Y833924D01*
X276808Y833240D01*
X279452D01*
X282005Y833924D01*
X284295Y835246D01*
X286164Y837115D01*
X287486Y839405D01*
X288170Y841958D01*
Y844602D01*
X287486Y847155D01*
X286164Y849445D01*
X284295Y851314D01*
X282005Y852636D01*
X279452Y853320D01*
D02*
G37*
G36*
X237370D02*
X217290D01*
Y833240D01*
X237370D01*
Y853320D01*
D02*
G37*
G36*
X28447Y863860D02*
X24893D01*
X21408Y863167D01*
X18125Y861807D01*
X15170Y859833D01*
X12657Y857320D01*
X10683Y854365D01*
X9323Y851082D01*
X8630Y847597D01*
Y844043D01*
X9323Y840558D01*
X10683Y837275D01*
X12657Y834320D01*
X15170Y831807D01*
X18125Y829833D01*
X21408Y828473D01*
X24893Y827780D01*
X28447D01*
X31932Y828473D01*
X35215Y829833D01*
X38170Y831807D01*
X40683Y834320D01*
X42657Y837275D01*
X44017Y840558D01*
X44710Y844043D01*
Y847597D01*
X44017Y851082D01*
X42657Y854365D01*
X40683Y857320D01*
X38170Y859833D01*
X35215Y861807D01*
X31932Y863167D01*
X28447Y863860D01*
D02*
G37*
G36*
X1071117Y862590D02*
X1067563D01*
X1064078Y861897D01*
X1060795Y860537D01*
X1057840Y858563D01*
X1055327Y856050D01*
X1053353Y853095D01*
X1051993Y849812D01*
X1051300Y846327D01*
Y842773D01*
X1051993Y839288D01*
X1053353Y836005D01*
X1055327Y833050D01*
X1057840Y830537D01*
X1060795Y828563D01*
X1064078Y827203D01*
X1067563Y826510D01*
X1071117D01*
X1074602Y827203D01*
X1077885Y828563D01*
X1080840Y830537D01*
X1083353Y833050D01*
X1085327Y836005D01*
X1086687Y839288D01*
X1087380Y842773D01*
Y846327D01*
X1086687Y849812D01*
X1085327Y853095D01*
X1083353Y856050D01*
X1080840Y858563D01*
X1077885Y860537D01*
X1074602Y861897D01*
X1071117Y862590D01*
D02*
G37*
G36*
X501702Y827920D02*
X499058D01*
X496505Y827236D01*
X494215Y825914D01*
X492346Y824045D01*
X491024Y821755D01*
X490340Y819202D01*
Y816558D01*
X491024Y814005D01*
X492346Y811715D01*
X494215Y809846D01*
X496505Y808524D01*
X499058Y807840D01*
X501702D01*
X504255Y808524D01*
X506545Y809846D01*
X508414Y811715D01*
X509736Y814005D01*
X510420Y816558D01*
Y819202D01*
X509736Y821755D01*
X508414Y824045D01*
X506545Y825914D01*
X504255Y827236D01*
X501702Y827920D01*
D02*
G37*
G36*
X863953Y823028D02*
X861467D01*
X859064Y822384D01*
X856911Y821141D01*
X855152Y819382D01*
X853909Y817228D01*
X853265Y814826D01*
Y812339D01*
X853909Y809937D01*
X855152Y807783D01*
X856911Y806025D01*
X859064Y804781D01*
X861467Y804138D01*
X863953D01*
X866356Y804781D01*
X868509Y806025D01*
X870268Y807783D01*
X871511Y809937D01*
X872155Y812339D01*
Y814826D01*
X871511Y817228D01*
X870268Y819382D01*
X868509Y821141D01*
X866356Y822384D01*
X863953Y823028D01*
D02*
G37*
G36*
X434392Y815220D02*
X431748D01*
X429195Y814536D01*
X426905Y813214D01*
X425036Y811345D01*
X423714Y809055D01*
X423030Y806502D01*
Y803858D01*
X423714Y801305D01*
X425036Y799015D01*
X426905Y797146D01*
X429195Y795824D01*
X431748Y795140D01*
X434392D01*
X436945Y795824D01*
X439235Y797146D01*
X441104Y799015D01*
X442426Y801305D01*
X443110Y803858D01*
Y806502D01*
X442426Y809055D01*
X441104Y811345D01*
X439235Y813214D01*
X436945Y814536D01*
X434392Y815220D01*
D02*
G37*
G36*
X408992D02*
X406348D01*
X403795Y814536D01*
X401505Y813214D01*
X399636Y811345D01*
X398314Y809055D01*
X397630Y806502D01*
Y803858D01*
X398314Y801305D01*
X399636Y799015D01*
X401505Y797146D01*
X403795Y795824D01*
X406348Y795140D01*
X408992D01*
X411545Y795824D01*
X413835Y797146D01*
X415704Y799015D01*
X417026Y801305D01*
X417710Y803858D01*
Y806502D01*
X417026Y809055D01*
X415704Y811345D01*
X413835Y813214D01*
X411545Y814536D01*
X408992Y815220D01*
D02*
G37*
G36*
X383592D02*
X380948D01*
X378395Y814536D01*
X376105Y813214D01*
X374236Y811345D01*
X372914Y809055D01*
X372230Y806502D01*
Y803858D01*
X372914Y801305D01*
X374236Y799015D01*
X376105Y797146D01*
X378395Y795824D01*
X380948Y795140D01*
X383592D01*
X386145Y795824D01*
X388435Y797146D01*
X390304Y799015D01*
X391626Y801305D01*
X392310Y803858D01*
Y806502D01*
X391626Y809055D01*
X390304Y811345D01*
X388435Y813214D01*
X386145Y814536D01*
X383592Y815220D01*
D02*
G37*
G36*
X358192D02*
X355548D01*
X352995Y814536D01*
X350705Y813214D01*
X348836Y811345D01*
X347514Y809055D01*
X346830Y806502D01*
Y803858D01*
X347514Y801305D01*
X348836Y799015D01*
X350705Y797146D01*
X352995Y795824D01*
X355548Y795140D01*
X358192D01*
X360745Y795824D01*
X363035Y797146D01*
X364904Y799015D01*
X366226Y801305D01*
X366910Y803858D01*
Y806502D01*
X366226Y809055D01*
X364904Y811345D01*
X363035Y813214D01*
X360745Y814536D01*
X358192Y815220D01*
D02*
G37*
G36*
X332792D02*
X330148D01*
X327595Y814536D01*
X325305Y813214D01*
X323436Y811345D01*
X322114Y809055D01*
X321430Y806502D01*
Y803858D01*
X322114Y801305D01*
X323436Y799015D01*
X325305Y797146D01*
X327595Y795824D01*
X330148Y795140D01*
X332792D01*
X335345Y795824D01*
X337635Y797146D01*
X339504Y799015D01*
X340826Y801305D01*
X341510Y803858D01*
Y806502D01*
X340826Y809055D01*
X339504Y811345D01*
X337635Y813214D01*
X335345Y814536D01*
X332792Y815220D01*
D02*
G37*
G36*
X307392D02*
X304748D01*
X302195Y814536D01*
X299905Y813214D01*
X298036Y811345D01*
X296714Y809055D01*
X296030Y806502D01*
Y803858D01*
X296714Y801305D01*
X298036Y799015D01*
X299905Y797146D01*
X302195Y795824D01*
X304748Y795140D01*
X307392D01*
X309945Y795824D01*
X312235Y797146D01*
X314104Y799015D01*
X315426Y801305D01*
X316110Y803858D01*
Y806502D01*
X315426Y809055D01*
X314104Y811345D01*
X312235Y813214D01*
X309945Y814536D01*
X307392Y815220D01*
D02*
G37*
G36*
X254052Y853320D02*
X251408D01*
X248855Y852636D01*
X246565Y851314D01*
X244696Y849445D01*
X243374Y847155D01*
X242690Y844602D01*
Y841958D01*
X243374Y839405D01*
X244696Y837115D01*
X246565Y835246D01*
X248855Y833924D01*
X250140Y833580D01*
Y824230D01*
X250337Y823239D01*
X250899Y822399D01*
X256960Y816337D01*
X256282Y815220D01*
X253948D01*
X251395Y814536D01*
X249105Y813214D01*
X247236Y811345D01*
X245914Y809055D01*
X245230Y806502D01*
Y803858D01*
X245914Y801305D01*
X247236Y799015D01*
X249105Y797146D01*
X251395Y795824D01*
X253948Y795140D01*
X256592D01*
X259145Y795824D01*
X261435Y797146D01*
X263304Y799015D01*
X264181Y800533D01*
X265450Y800193D01*
Y789870D01*
X265648Y788879D01*
X266209Y788038D01*
X310921Y743326D01*
X310486Y742571D01*
X309880Y740310D01*
Y737970D01*
X310486Y735709D01*
X311656Y733681D01*
X313311Y732026D01*
X315339Y730856D01*
X317600Y730250D01*
X319940D01*
X322201Y730856D01*
X324229Y732026D01*
X325884Y733681D01*
X327054Y735709D01*
X327660Y737970D01*
Y740310D01*
X327054Y742571D01*
X325884Y744599D01*
X324229Y746254D01*
X322201Y747424D01*
X319940Y748030D01*
X317600D01*
X315339Y747424D01*
X314584Y746989D01*
X270630Y790943D01*
Y799950D01*
X271900Y800290D01*
X272636Y799015D01*
X274505Y797146D01*
X276795Y795824D01*
X279348Y795140D01*
X281992D01*
X284545Y795824D01*
X286835Y797146D01*
X288704Y799015D01*
X290026Y801305D01*
X290710Y803858D01*
Y806502D01*
X290026Y809055D01*
X288704Y811345D01*
X286835Y813214D01*
X284545Y814536D01*
X281992Y815220D01*
X279348D01*
X276795Y814536D01*
X274505Y813214D01*
X272636Y811345D01*
X271748Y809807D01*
X270827Y809880D01*
X270384Y809984D01*
X269872Y810751D01*
X255320Y825303D01*
Y833580D01*
X256605Y833924D01*
X258895Y835246D01*
X260764Y837115D01*
X262086Y839405D01*
X262770Y841958D01*
Y844602D01*
X262086Y847155D01*
X260764Y849445D01*
X258895Y851314D01*
X256605Y852636D01*
X254052Y853320D01*
D02*
G37*
G36*
X239910Y815220D02*
X219830D01*
Y795140D01*
X239910D01*
Y815220D01*
D02*
G37*
G36*
X501702Y802520D02*
X499058D01*
X496505Y801836D01*
X494215Y800514D01*
X492346Y798645D01*
X491024Y796355D01*
X490340Y793802D01*
Y791158D01*
X491024Y788605D01*
X492346Y786315D01*
X494215Y784446D01*
X496505Y783124D01*
X499058Y782440D01*
X501702D01*
X504255Y783124D01*
X506545Y784446D01*
X508414Y786315D01*
X509736Y788605D01*
X510420Y791158D01*
Y793802D01*
X509736Y796355D01*
X508414Y798645D01*
X506545Y800514D01*
X504255Y801836D01*
X501702Y802520D01*
D02*
G37*
G36*
X166988Y779660D02*
X164345D01*
X161791Y778976D01*
X159502Y777654D01*
X157632Y775785D01*
X156311Y773495D01*
X155626Y770942D01*
Y768298D01*
X156311Y765745D01*
X157632Y763455D01*
X159502Y761586D01*
X161791Y760264D01*
X164345Y759580D01*
X166988D01*
X169542Y760264D01*
X171831Y761586D01*
X173700Y763455D01*
X175022Y765745D01*
X175706Y768298D01*
Y770942D01*
X175022Y773495D01*
X173700Y775785D01*
X171831Y777654D01*
X169542Y778976D01*
X166988Y779660D01*
D02*
G37*
G36*
X510420Y777120D02*
X490340D01*
Y757040D01*
X510420D01*
Y777120D01*
D02*
G37*
G36*
X600121Y764901D02*
X597780D01*
X595519Y764295D01*
X593492Y763124D01*
X591837Y761469D01*
X590666Y759442D01*
X590060Y757181D01*
Y754840D01*
X590666Y752579D01*
X591837Y750552D01*
X593492Y748897D01*
X595519Y747727D01*
X597780Y747121D01*
X600121D01*
X602382Y747727D01*
X604409Y748897D01*
X606064Y750552D01*
X607234Y752579D01*
X607840Y754840D01*
Y757181D01*
X607234Y759442D01*
X606064Y761469D01*
X604409Y763124D01*
X602382Y764295D01*
X600121Y764901D01*
D02*
G37*
G36*
X574935Y761005D02*
X572594D01*
X570333Y760399D01*
X568306Y759229D01*
X566651Y757574D01*
X565480Y755547D01*
X564875Y753286D01*
Y750945D01*
X565480Y748684D01*
X566651Y746657D01*
X568306Y745002D01*
X570333Y743831D01*
X572594Y743225D01*
X574935D01*
X577196Y743831D01*
X579223Y745002D01*
X580878Y746657D01*
X582049Y748684D01*
X582655Y750945D01*
Y753286D01*
X582049Y755547D01*
X580878Y757574D01*
X579223Y759229D01*
X577196Y760399D01*
X574935Y761005D01*
D02*
G37*
G36*
X799980Y761880D02*
X779900D01*
Y741800D01*
X799980D01*
Y761880D01*
D02*
G37*
G36*
X765862D02*
X763218D01*
X760665Y761196D01*
X758375Y759874D01*
X756506Y758005D01*
X755184Y755715D01*
X754500Y753162D01*
Y750518D01*
X755184Y747965D01*
X756506Y745675D01*
X758375Y743806D01*
X760665Y742484D01*
X763218Y741800D01*
X765862D01*
X768415Y742484D01*
X770705Y743806D01*
X772574Y745675D01*
X773896Y747965D01*
X774580Y750518D01*
Y753162D01*
X773896Y755715D01*
X772574Y758005D01*
X770705Y759874D01*
X768415Y761196D01*
X765862Y761880D01*
D02*
G37*
G36*
X740462D02*
X737818D01*
X735265Y761196D01*
X732975Y759874D01*
X731106Y758005D01*
X729784Y755715D01*
X729100Y753162D01*
Y750518D01*
X729784Y747965D01*
X731106Y745675D01*
X732975Y743806D01*
X735265Y742484D01*
X737818Y741800D01*
X740462D01*
X743015Y742484D01*
X745305Y743806D01*
X747174Y745675D01*
X748496Y747965D01*
X749180Y750518D01*
Y753162D01*
X748496Y755715D01*
X747174Y758005D01*
X745305Y759874D01*
X743015Y761196D01*
X740462Y761880D01*
D02*
G37*
G36*
X715062D02*
X712418D01*
X709865Y761196D01*
X707575Y759874D01*
X705706Y758005D01*
X704384Y755715D01*
X703700Y753162D01*
Y750518D01*
X704384Y747965D01*
X705706Y745675D01*
X707575Y743806D01*
X709865Y742484D01*
X712418Y741800D01*
X715062D01*
X717615Y742484D01*
X719905Y743806D01*
X721774Y745675D01*
X723096Y747965D01*
X723780Y750518D01*
Y753162D01*
X723096Y755715D01*
X721774Y758005D01*
X719905Y759874D01*
X717615Y761196D01*
X715062Y761880D01*
D02*
G37*
G36*
X689662D02*
X687018D01*
X684465Y761196D01*
X682175Y759874D01*
X680306Y758005D01*
X678984Y755715D01*
X678300Y753162D01*
Y750518D01*
X678984Y747965D01*
X680306Y745675D01*
X682175Y743806D01*
X684465Y742484D01*
X687018Y741800D01*
X689662D01*
X692215Y742484D01*
X694505Y743806D01*
X696374Y745675D01*
X697696Y747965D01*
X698380Y750518D01*
Y753162D01*
X697696Y755715D01*
X696374Y758005D01*
X694505Y759874D01*
X692215Y761196D01*
X689662Y761880D01*
D02*
G37*
G36*
X286920Y756920D02*
X284580D01*
X282319Y756314D01*
X280291Y755144D01*
X278636Y753489D01*
X277466Y751461D01*
X276860Y749200D01*
Y746860D01*
X277466Y744599D01*
X278636Y742571D01*
X280291Y740916D01*
X282319Y739746D01*
X284580Y739140D01*
X286920D01*
X289181Y739746D01*
X291209Y740916D01*
X292864Y742571D01*
X294034Y744599D01*
X294640Y746860D01*
Y749200D01*
X294034Y751461D01*
X292864Y753489D01*
X291209Y755144D01*
X289181Y756314D01*
X286920Y756920D01*
D02*
G37*
G36*
X634025Y768940D02*
X631684D01*
X629423Y768335D01*
X627396Y767164D01*
X625740Y765509D01*
X624570Y763482D01*
X623964Y761221D01*
Y758880D01*
X624489Y756920D01*
X624045Y756058D01*
X623663Y755650D01*
X622400D01*
X620139Y755044D01*
X618111Y753874D01*
X616456Y752219D01*
X615286Y750191D01*
X614680Y747930D01*
Y745590D01*
X615286Y743329D01*
X616456Y741301D01*
X618111Y739646D01*
X620139Y738476D01*
X622400Y737870D01*
X624740D01*
X627001Y738476D01*
X629029Y739646D01*
X630684Y741301D01*
X631854Y743329D01*
X632460Y745590D01*
Y747930D01*
X631935Y749890D01*
X632379Y750752D01*
X632761Y751160D01*
X634025D01*
X636286Y751766D01*
X638313Y752936D01*
X639968Y754592D01*
X641138Y756619D01*
X641744Y758880D01*
Y761221D01*
X641138Y763482D01*
X639968Y765509D01*
X638313Y767164D01*
X636286Y768335D01*
X634025Y768940D01*
D02*
G37*
G36*
X166988Y754260D02*
X164345D01*
X161791Y753576D01*
X159502Y752254D01*
X157632Y750385D01*
X156311Y748095D01*
X155626Y745542D01*
Y742898D01*
X156311Y740345D01*
X157632Y738055D01*
X159502Y736186D01*
X161791Y734864D01*
X164345Y734180D01*
X166988D01*
X169542Y734864D01*
X171831Y736186D01*
X173700Y738055D01*
X175022Y740345D01*
X175706Y742898D01*
Y745542D01*
X175022Y748095D01*
X173700Y750385D01*
X171831Y752254D01*
X169542Y753576D01*
X166988Y754260D01*
D02*
G37*
G36*
X548540Y741680D02*
X546200D01*
X543939Y741074D01*
X541911Y739904D01*
X540256Y738249D01*
X539086Y736221D01*
X538480Y733960D01*
Y731620D01*
X539086Y729359D01*
X540256Y727331D01*
X541911Y725676D01*
X543939Y724506D01*
X546200Y723900D01*
X548540D01*
X550801Y724506D01*
X552829Y725676D01*
X554484Y727331D01*
X555654Y729359D01*
X556260Y731620D01*
Y733960D01*
X555654Y736221D01*
X554484Y738249D01*
X552829Y739904D01*
X550801Y741074D01*
X548540Y741680D01*
D02*
G37*
G36*
X799532Y729397D02*
X796888D01*
X794335Y728713D01*
X792046Y727392D01*
X790176Y725522D01*
X788855Y723233D01*
X788170Y720679D01*
Y718036D01*
X788855Y715482D01*
X790176Y713193D01*
X792046Y711323D01*
X794335Y710002D01*
X796888Y709317D01*
X799532D01*
X802085Y710002D01*
X804375Y711323D01*
X806244Y713193D01*
X807566Y715482D01*
X808250Y718036D01*
Y720679D01*
X807566Y723233D01*
X806244Y725522D01*
X804375Y727392D01*
X802085Y728713D01*
X799532Y729397D01*
D02*
G37*
G36*
X175706Y728860D02*
X155626D01*
Y708780D01*
X175706D01*
Y728860D01*
D02*
G37*
G36*
X887610Y706000D02*
X867530D01*
Y685920D01*
X887610D01*
Y706000D01*
D02*
G37*
G36*
X808250Y703997D02*
X788170D01*
Y683917D01*
X808250D01*
Y703997D01*
D02*
G37*
G36*
X231261Y693436D02*
X228920D01*
X226660Y692830D01*
X224632Y691659D01*
X222977Y690004D01*
X221807Y687977D01*
X221201Y685716D01*
Y683375D01*
X221807Y681114D01*
X222977Y679087D01*
X224632Y677432D01*
X226660Y676262D01*
X228920Y675656D01*
X231261D01*
X233522Y676262D01*
X235550Y677432D01*
X237205Y679087D01*
X238375Y681114D01*
X238981Y683375D01*
Y685716D01*
X238375Y687977D01*
X237205Y690004D01*
X235550Y691659D01*
X233522Y692830D01*
X231261Y693436D01*
D02*
G37*
G36*
X166988Y805060D02*
X164345D01*
X161791Y804376D01*
X159502Y803054D01*
X157632Y801185D01*
X156311Y798895D01*
X155626Y796342D01*
Y793698D01*
X156311Y791145D01*
X157632Y788855D01*
X159502Y786986D01*
X161791Y785664D01*
X164345Y784980D01*
X166988D01*
X169542Y785664D01*
X171831Y786986D01*
X173700Y788855D01*
X175022Y791145D01*
X175367Y792430D01*
X181680D01*
X207117Y766992D01*
X206632Y765682D01*
X204849Y765204D01*
X202821Y764034D01*
X201166Y762379D01*
X199996Y760351D01*
X199390Y758090D01*
Y755750D01*
X199996Y753489D01*
X201166Y751461D01*
X202821Y749806D01*
X204849Y748636D01*
X207110Y748030D01*
X209450D01*
X211711Y748636D01*
X213739Y749806D01*
X215394Y751461D01*
X216564Y753489D01*
X217042Y755272D01*
X218352Y755757D01*
X330781Y643329D01*
X331621Y642767D01*
X332612Y642570D01*
X347090D01*
X347316Y641729D01*
X348486Y639701D01*
X350141Y638046D01*
X352169Y636876D01*
X354430Y636270D01*
X356770D01*
X359031Y636876D01*
X361059Y638046D01*
X362714Y639701D01*
X363884Y641729D01*
X364490Y643990D01*
Y646330D01*
X363884Y648591D01*
X362714Y650619D01*
X361059Y652274D01*
X359031Y653444D01*
X356770Y654050D01*
X354430D01*
X352169Y653444D01*
X350141Y652274D01*
X348486Y650619D01*
X347316Y648591D01*
X347090Y647750D01*
X333685D01*
X302025Y679410D01*
X302511Y680720D01*
X304294Y681198D01*
X306321Y682369D01*
X307390Y683438D01*
X307847Y683334D01*
X308610Y682862D01*
Y680820D01*
X309216Y678559D01*
X310386Y676531D01*
X312041Y674876D01*
X314069Y673706D01*
X316330Y673100D01*
X318670D01*
X320931Y673706D01*
X322959Y674876D01*
X324614Y676531D01*
X325784Y678559D01*
X326390Y680820D01*
Y683160D01*
X325784Y685421D01*
X324614Y687449D01*
X322959Y689104D01*
X320931Y690274D01*
X318670Y690880D01*
X316330D01*
X314069Y690274D01*
X312041Y689104D01*
X310972Y688035D01*
X310515Y688139D01*
X309752Y688611D01*
Y690653D01*
X309146Y692914D01*
X307976Y694941D01*
X306321Y696596D01*
X304294Y697766D01*
X302033Y698372D01*
X299692D01*
X297431Y697766D01*
X295404Y696596D01*
X293749Y694941D01*
X292578Y692914D01*
X292100Y691131D01*
X290790Y690645D01*
X184584Y796851D01*
X183743Y797413D01*
X182752Y797610D01*
X175367D01*
X175022Y798895D01*
X173700Y801185D01*
X171831Y803054D01*
X169542Y804376D01*
X166988Y805060D01*
D02*
G37*
G36*
X774442Y705446D02*
X772101D01*
X769840Y704840D01*
X767813Y703670D01*
X766158Y702014D01*
X764987Y699987D01*
X764381Y697726D01*
Y695386D01*
X764987Y693124D01*
X766158Y691097D01*
X767813Y689442D01*
X769840Y688272D01*
X771474Y687834D01*
Y686519D01*
X771269Y686464D01*
X769241Y685294D01*
X767586Y683639D01*
X766416Y681611D01*
X765810Y679350D01*
Y677010D01*
X766416Y674749D01*
X767586Y672721D01*
X769241Y671066D01*
X771269Y669896D01*
X773530Y669290D01*
X775870D01*
X778131Y669896D01*
X780159Y671066D01*
X781814Y672721D01*
X782984Y674749D01*
X783590Y677010D01*
Y679350D01*
X782984Y681611D01*
X781814Y683639D01*
X780159Y685294D01*
X778131Y686464D01*
X776498Y686902D01*
Y688217D01*
X776703Y688272D01*
X778730Y689442D01*
X780385Y691097D01*
X781556Y693124D01*
X782161Y695386D01*
Y697726D01*
X781556Y699987D01*
X780385Y702014D01*
X778730Y703670D01*
X776703Y704840D01*
X774442Y705446D01*
D02*
G37*
G36*
X663909Y714585D02*
X661568D01*
X659307Y713979D01*
X657280Y712809D01*
X655624Y711154D01*
X654454Y709127D01*
X653848Y706866D01*
Y704525D01*
X654454Y702264D01*
X654890Y701509D01*
X610761Y657381D01*
X609502Y657917D01*
X608994Y659812D01*
X607824Y661839D01*
X606169Y663494D01*
X604141Y664665D01*
X601880Y665271D01*
X599540D01*
X597279Y664665D01*
X595251Y663494D01*
X593596Y661839D01*
X592426Y659812D01*
X591820Y657551D01*
Y655210D01*
X592426Y652949D01*
X592862Y652195D01*
X584909Y644242D01*
X584347Y643402D01*
X584150Y642411D01*
Y585459D01*
X582880Y584933D01*
X581674Y586140D01*
X580647Y586733D01*
X580438Y588320D01*
X580876Y588758D01*
X582046Y590785D01*
X582652Y593046D01*
Y595387D01*
X582046Y597648D01*
X580876Y599675D01*
X579221Y601330D01*
X577194Y602501D01*
X574933Y603106D01*
X572592D01*
X570331Y602501D01*
X568304Y601330D01*
X566648Y599675D01*
X565478Y597648D01*
X564872Y595387D01*
Y593046D01*
X565478Y590785D01*
X566648Y588758D01*
X568304Y587103D01*
X569330Y586510D01*
X569539Y584923D01*
X569101Y584485D01*
X567931Y582457D01*
X567325Y580196D01*
Y577856D01*
X567931Y575595D01*
X569101Y573567D01*
X570757Y571912D01*
X572784Y570742D01*
X575045Y570136D01*
X577385D01*
X579647Y570742D01*
X581674Y571912D01*
X582880Y573119D01*
X584150Y572593D01*
Y526120D01*
X584347Y525129D01*
X584909Y524288D01*
X643840Y465357D01*
Y409540D01*
X643840Y409540D01*
X644037Y408549D01*
X644599Y407709D01*
X647622Y404686D01*
X647036Y403671D01*
X646430Y401410D01*
Y399070D01*
X647036Y396809D01*
X648206Y394781D01*
X649861Y393126D01*
X651889Y391956D01*
X654150Y391350D01*
X656490D01*
X658751Y391956D01*
X660779Y393126D01*
X662434Y394781D01*
X663604Y396809D01*
X664210Y399070D01*
Y401410D01*
X663604Y403671D01*
X662434Y405699D01*
X660779Y407354D01*
X658751Y408524D01*
X656490Y409130D01*
X654150D01*
X651889Y408524D01*
X651394Y408239D01*
X649020Y410613D01*
Y466430D01*
X648823Y467421D01*
X648261Y468261D01*
X604823Y511699D01*
X605309Y513009D01*
X607092Y513487D01*
X609120Y514657D01*
X610775Y516312D01*
X611945Y518340D01*
X612551Y520601D01*
Y522941D01*
X611945Y525202D01*
X610775Y527230D01*
X609120Y528885D01*
X607092Y530055D01*
X606101Y530321D01*
X606268Y531591D01*
X607660D01*
X609921Y532197D01*
X611949Y533367D01*
X613604Y535022D01*
X614774Y537049D01*
X615000Y537891D01*
X849434D01*
X850316Y536833D01*
X849750Y534722D01*
Y532078D01*
X850434Y529525D01*
X851756Y527235D01*
X853625Y525366D01*
X855915Y524044D01*
X858468Y523360D01*
X861112D01*
X863665Y524044D01*
X865955Y525366D01*
X867824Y527235D01*
X869146Y529525D01*
X869830Y532078D01*
Y534722D01*
X869146Y537275D01*
X867824Y539565D01*
X865955Y541434D01*
X863665Y542756D01*
X861112Y543440D01*
X858468D01*
X855915Y542756D01*
X853625Y541434D01*
X853605Y541414D01*
X852707Y542312D01*
X851867Y542874D01*
X850876Y543071D01*
X615000D01*
X614774Y543912D01*
X613604Y545939D01*
X611949Y547595D01*
X609921Y548765D01*
X607660Y549371D01*
X605320D01*
X603059Y548765D01*
X601031Y547595D01*
X599376Y545939D01*
X598206Y543912D01*
X597600Y541651D01*
Y539311D01*
X598206Y537049D01*
X599376Y535022D01*
X601031Y533367D01*
X603059Y532197D01*
X604050Y531931D01*
X603883Y530661D01*
X602491D01*
X600230Y530055D01*
X598202Y528885D01*
X596547Y527230D01*
X595377Y525202D01*
X594899Y523419D01*
X593589Y522934D01*
X589330Y527192D01*
Y641338D01*
X596524Y648532D01*
X597279Y648096D01*
X599173Y647589D01*
X599710Y646330D01*
X592529Y639148D01*
X591967Y638308D01*
X591770Y637317D01*
Y581660D01*
X591967Y580669D01*
X592529Y579829D01*
X594132Y578226D01*
X593696Y577471D01*
X593090Y575210D01*
Y572870D01*
X593696Y570609D01*
X594866Y568581D01*
X596521Y566926D01*
X598549Y565756D01*
X600810Y565150D01*
X603150D01*
X605411Y565756D01*
X607439Y566926D01*
X609094Y568581D01*
X610264Y570609D01*
X610870Y572870D01*
Y575210D01*
X610264Y577471D01*
X609094Y579499D01*
X607439Y581154D01*
X605411Y582324D01*
X603150Y582930D01*
X600810D01*
X598549Y582324D01*
X597794Y581889D01*
X596950Y582733D01*
Y636244D01*
X650257Y689552D01*
X651510Y689008D01*
Y687170D01*
X652116Y684909D01*
X653286Y682881D01*
X654941Y681226D01*
X656404Y680381D01*
X656755Y679077D01*
X656697Y678814D01*
X655614Y676938D01*
X655008Y674677D01*
Y672337D01*
X655614Y670076D01*
X656784Y668048D01*
X658440Y666393D01*
X660467Y665223D01*
X662728Y664617D01*
X665069D01*
X667330Y665223D01*
X669357Y666393D01*
X671012Y668048D01*
X672182Y670076D01*
X672788Y672337D01*
Y674677D01*
X672182Y676938D01*
X671012Y678966D01*
X669357Y680621D01*
X667894Y681465D01*
X667544Y682770D01*
X667601Y683033D01*
X668684Y684909D01*
X669290Y687170D01*
Y689510D01*
X668684Y691771D01*
X667514Y693799D01*
X665859Y695454D01*
X665197Y695836D01*
X665377Y697199D01*
X666170Y697411D01*
X668197Y698581D01*
X669852Y700237D01*
X671022Y702264D01*
X671628Y704525D01*
Y706866D01*
X671022Y709127D01*
X669852Y711154D01*
X668197Y712809D01*
X666170Y713979D01*
X663909Y714585D01*
D02*
G37*
G36*
X757582Y659638D02*
X755242D01*
X752981Y659032D01*
X750953Y657862D01*
X749298Y656207D01*
X748128Y654179D01*
X747522Y651918D01*
Y649578D01*
X748128Y647317D01*
X749298Y645289D01*
X750953Y643634D01*
X752981Y642464D01*
X755242Y641858D01*
X757582D01*
X759843Y642464D01*
X761871Y643634D01*
X763526Y645289D01*
X764696Y647317D01*
X765302Y649578D01*
Y651918D01*
X764696Y654179D01*
X763526Y656207D01*
X761871Y657862D01*
X759843Y659032D01*
X757582Y659638D01*
D02*
G37*
G36*
X785522Y653707D02*
X783182D01*
X780921Y653101D01*
X778893Y651930D01*
X777238Y650275D01*
X776068Y648248D01*
X775462Y645987D01*
Y643646D01*
X776068Y641385D01*
X777238Y639358D01*
X778893Y637703D01*
X780921Y636532D01*
X783182Y635927D01*
X785522D01*
X787783Y636532D01*
X789811Y637703D01*
X791466Y639358D01*
X792636Y641385D01*
X793242Y643646D01*
Y645987D01*
X792636Y648248D01*
X791466Y650275D01*
X789811Y651930D01*
X787783Y653101D01*
X785522Y653707D01*
D02*
G37*
G36*
X208180Y650240D02*
X205840D01*
X203579Y649634D01*
X201551Y648464D01*
X199896Y646809D01*
X198726Y644781D01*
X198120Y642520D01*
Y640180D01*
X198726Y637919D01*
X199896Y635891D01*
X201551Y634236D01*
X203579Y633066D01*
X205840Y632460D01*
X208180D01*
X210441Y633066D01*
X212469Y634236D01*
X214124Y635891D01*
X215294Y637919D01*
X215900Y640180D01*
Y642520D01*
X215294Y644781D01*
X214124Y646809D01*
X212469Y648464D01*
X210441Y649634D01*
X208180Y650240D01*
D02*
G37*
G36*
X352010Y634050D02*
X349669D01*
X347408Y633444D01*
X345381Y632274D01*
X343726Y630619D01*
X342556Y628591D01*
X341950Y626330D01*
Y623989D01*
X342556Y621729D01*
X343726Y619701D01*
X345381Y618046D01*
X347408Y616876D01*
X349669Y616270D01*
X352010D01*
X354271Y616876D01*
X356298Y618046D01*
X357954Y619701D01*
X359124Y621729D01*
X359730Y623989D01*
Y626330D01*
X359124Y628591D01*
X357954Y630619D01*
X356298Y632274D01*
X354271Y633444D01*
X352010Y634050D01*
D02*
G37*
G36*
X923170Y633610D02*
X903090D01*
Y613530D01*
X923170D01*
Y633610D01*
D02*
G37*
G36*
X344070Y728248D02*
X341730D01*
X339469Y727642D01*
X337441Y726472D01*
X335786Y724817D01*
X334616Y722790D01*
X334010Y720529D01*
Y718188D01*
X334616Y715927D01*
X335786Y713900D01*
X337441Y712244D01*
X339469Y711074D01*
X341730Y710468D01*
X344070D01*
X346331Y711074D01*
X347086Y711510D01*
X363234Y695362D01*
Y689801D01*
X363431Y688810D01*
X363993Y687970D01*
X414090Y637873D01*
Y552778D01*
X412820Y552252D01*
X411859Y553214D01*
X409831Y554384D01*
X407570Y554990D01*
X405230D01*
X402969Y554384D01*
X400941Y553214D01*
X399286Y551559D01*
X398116Y549531D01*
X397510Y547270D01*
Y544930D01*
X398116Y542669D01*
X399286Y540641D01*
X400941Y538986D01*
X402969Y537816D01*
X405230Y537210D01*
X407570D01*
X409831Y537816D01*
X411859Y538986D01*
X413514Y540641D01*
X413970Y541432D01*
X415240Y541092D01*
Y472051D01*
X413970Y471525D01*
X412545Y472950D01*
X410228Y474288D01*
X407644Y474980D01*
X404969D01*
X402385Y474288D01*
X400068Y472950D01*
X398176Y471058D01*
X396839Y468742D01*
X396147Y466158D01*
Y463482D01*
X396839Y460898D01*
X398176Y458582D01*
X400068Y456690D01*
X402385Y455352D01*
X404969Y454660D01*
X407644D01*
X410228Y455352D01*
X412545Y456690D01*
X413970Y458115D01*
X415240Y457589D01*
Y446174D01*
X415437Y445183D01*
X415999Y444343D01*
X492799Y367542D01*
X493639Y366981D01*
X494631Y366784D01*
X496197D01*
X496506Y365627D01*
X497677Y363600D01*
X499332Y361945D01*
X501359Y360774D01*
X501525Y360730D01*
X501358Y359460D01*
X492563D01*
X419661Y432361D01*
X418821Y432923D01*
X417830Y433120D01*
X395860D01*
X395634Y433961D01*
X394464Y435989D01*
X392809Y437644D01*
X390781Y438814D01*
X388520Y439420D01*
X386180D01*
X383919Y438814D01*
X381891Y437644D01*
X380236Y435989D01*
X379066Y433961D01*
X378460Y431700D01*
Y429360D01*
X379066Y427099D01*
X380236Y425071D01*
X381891Y423416D01*
X383919Y422246D01*
X386180Y421640D01*
X388520D01*
X390781Y422246D01*
X392809Y423416D01*
X394464Y425071D01*
X395634Y427099D01*
X395860Y427940D01*
X416757D01*
X437522Y407176D01*
X436864Y406037D01*
X435510Y406400D01*
X433170D01*
X430909Y405794D01*
X428881Y404624D01*
X427226Y402969D01*
X426056Y400941D01*
X425450Y398680D01*
Y396340D01*
X426056Y394079D01*
X427226Y392051D01*
X428881Y390396D01*
X430909Y389226D01*
X433170Y388620D01*
X435510D01*
X437771Y389226D01*
X439799Y390396D01*
X441454Y392051D01*
X442624Y394079D01*
X443230Y396340D01*
Y398680D01*
X442867Y400034D01*
X444006Y400692D01*
X489659Y355039D01*
X490499Y354477D01*
X491490Y354280D01*
X501202D01*
X501728Y353010D01*
X500886Y352169D01*
X499716Y350141D01*
X499110Y347880D01*
Y345540D01*
X499716Y343279D01*
X500886Y341251D01*
X502541Y339596D01*
X504569Y338426D01*
X506830Y337820D01*
X509170D01*
X511431Y338426D01*
X513459Y339596D01*
X515114Y341251D01*
X516284Y343279D01*
X516890Y345540D01*
Y347880D01*
X516284Y350141D01*
X515114Y352169D01*
X514272Y353010D01*
X514798Y354280D01*
X560923D01*
X561846Y352681D01*
X563501Y351026D01*
X565529Y349856D01*
X567790Y349250D01*
X570130D01*
X572391Y349856D01*
X574419Y351026D01*
X576074Y352681D01*
X577244Y354709D01*
X577850Y356970D01*
Y359310D01*
X577244Y361571D01*
X576321Y363170D01*
X576904Y364440D01*
X652519D01*
X797190Y219769D01*
Y215975D01*
X796291Y215734D01*
X794229Y214544D01*
X792546Y212861D01*
X791356Y210800D01*
X790740Y208500D01*
Y206120D01*
X791356Y203821D01*
X792546Y201759D01*
X794229Y200076D01*
X796291Y198886D01*
X798177Y198381D01*
X798692Y197100D01*
X770552Y168960D01*
X723440D01*
X723096Y170245D01*
X721774Y172535D01*
X719905Y174404D01*
X717615Y175726D01*
X715062Y176410D01*
X712418D01*
X709865Y175726D01*
X707575Y174404D01*
X705706Y172535D01*
X704384Y170245D01*
X703700Y167692D01*
Y165048D01*
X704384Y162495D01*
X705706Y160205D01*
X707575Y158336D01*
X709865Y157014D01*
X712418Y156330D01*
X715062D01*
X717615Y157014D01*
X719905Y158336D01*
X721774Y160205D01*
X723096Y162495D01*
X723440Y163780D01*
X771624D01*
X772615Y163977D01*
X773456Y164539D01*
X811124Y202207D01*
X812383Y202042D01*
X812546Y201759D01*
X814229Y200076D01*
X816291Y198886D01*
X818590Y198270D01*
X820970D01*
X823269Y198886D01*
X825331Y200076D01*
X827014Y201759D01*
X828204Y203821D01*
X828820Y206120D01*
Y208500D01*
X828204Y210800D01*
X827014Y212861D01*
X825331Y214544D01*
X823269Y215734D01*
X820970Y216350D01*
X818590D01*
X816291Y215734D01*
X814600Y214758D01*
X813330Y215299D01*
Y431240D01*
X824342Y442252D01*
X825594Y441708D01*
X826106Y439799D01*
X827276Y437771D01*
X828931Y436116D01*
X830959Y434946D01*
X833220Y434340D01*
X835560D01*
X837821Y434946D01*
X839849Y436116D01*
X841504Y437771D01*
X842674Y439799D01*
X843280Y442060D01*
Y444400D01*
X842674Y446661D01*
X841504Y448689D01*
X839849Y450344D01*
X837821Y451514D01*
X835912Y452026D01*
X835368Y453278D01*
X878131Y496042D01*
X878693Y496882D01*
X878890Y497873D01*
Y611067D01*
X882702Y614880D01*
X883855Y614214D01*
X886408Y613530D01*
X889052D01*
X891605Y614214D01*
X893895Y615536D01*
X895764Y617405D01*
X897086Y619695D01*
X897770Y622248D01*
Y624892D01*
X897086Y627445D01*
X895764Y629735D01*
X893895Y631604D01*
X891605Y632926D01*
X889052Y633610D01*
X886408D01*
X883855Y632926D01*
X881565Y631604D01*
X879696Y629735D01*
X878374Y627445D01*
X877690Y624892D01*
Y622248D01*
X878374Y619695D01*
X879040Y618542D01*
X874469Y613971D01*
X873907Y613131D01*
X873710Y612140D01*
Y498946D01*
X808909Y434144D01*
X808347Y433304D01*
X808150Y432313D01*
Y213183D01*
X806880Y212994D01*
X805331Y214544D01*
X803269Y215734D01*
X802370Y215975D01*
Y220842D01*
X802173Y221833D01*
X801611Y222673D01*
X655423Y368861D01*
X654583Y369423D01*
X653592Y369620D01*
X651834D01*
X651251Y370890D01*
X652174Y372489D01*
X652780Y374750D01*
Y377090D01*
X652174Y379351D01*
X651004Y381379D01*
X649349Y383034D01*
X648558Y383490D01*
X648898Y384760D01*
X717550D01*
X718541Y384957D01*
X719381Y385519D01*
X765101Y431239D01*
X765663Y432079D01*
X765860Y433070D01*
Y440971D01*
X766701Y441196D01*
X768729Y442367D01*
X770384Y444022D01*
X771554Y446049D01*
X772160Y448310D01*
Y450651D01*
X771554Y452912D01*
X770384Y454939D01*
X768729Y456594D01*
X766701Y457765D01*
X764440Y458370D01*
X762100D01*
X759839Y457765D01*
X757811Y456594D01*
X756156Y454939D01*
X754986Y452912D01*
X754380Y450651D01*
Y448310D01*
X754986Y446049D01*
X756156Y444022D01*
X757811Y442367D01*
X759839Y441196D01*
X760680Y440971D01*
Y434143D01*
X716477Y389940D01*
X542093D01*
X491540Y440493D01*
X490700Y441054D01*
X489709Y441251D01*
X486843D01*
X486617Y442093D01*
X485447Y444120D01*
X483792Y445775D01*
X481764Y446946D01*
X479503Y447551D01*
X477163D01*
X474902Y446946D01*
X472874Y445775D01*
X471219Y444120D01*
X470049Y442093D01*
X469443Y439832D01*
Y437491D01*
X470049Y435230D01*
X471219Y433203D01*
X472874Y431548D01*
X474902Y430377D01*
X477163Y429771D01*
X479503D01*
X481764Y430377D01*
X483792Y431548D01*
X485447Y433203D01*
X486617Y435230D01*
X486843Y436072D01*
X488636D01*
X539189Y385519D01*
X540029Y384957D01*
X541020Y384760D01*
X638882D01*
X639222Y383490D01*
X638431Y383034D01*
X636776Y381379D01*
X635606Y379351D01*
X635000Y377090D01*
Y374750D01*
X635606Y372489D01*
X636529Y370890D01*
X635946Y369620D01*
X520464D01*
X491082Y399001D01*
X490242Y399563D01*
X489251Y399760D01*
X487950D01*
X485033Y402678D01*
X485518Y403988D01*
X487301Y404466D01*
X489329Y405636D01*
X490984Y407291D01*
X492154Y409319D01*
X492760Y411580D01*
Y413920D01*
X492154Y416181D01*
X490984Y418209D01*
X489329Y419864D01*
X487301Y421034D01*
X485040Y421640D01*
X482700D01*
X480439Y421034D01*
X478411Y419864D01*
X476756Y418209D01*
X475586Y416181D01*
X475108Y414398D01*
X473798Y413913D01*
X459327Y428383D01*
Y465283D01*
X459130Y466274D01*
X458569Y467114D01*
X444982Y480700D01*
X445584Y482945D01*
Y485286D01*
X444978Y487547D01*
X443807Y489574D01*
X443594Y489788D01*
X443803Y491375D01*
X444879Y491996D01*
X446534Y493651D01*
X447704Y495679D01*
X448310Y497940D01*
Y500280D01*
X447704Y502541D01*
X446534Y504569D01*
X444879Y506224D01*
X442851Y507394D01*
X440590Y508000D01*
X438250D01*
X435989Y507394D01*
X433961Y506224D01*
X432306Y504569D01*
X431136Y502541D01*
X430530Y500280D01*
Y497940D01*
X431136Y495679D01*
X432306Y493651D01*
X432520Y493438D01*
X432311Y491851D01*
X431235Y491230D01*
X429580Y489574D01*
X428410Y487547D01*
X427804Y485286D01*
Y482945D01*
X428410Y480684D01*
X429580Y478657D01*
X431235Y477002D01*
X433262Y475832D01*
X435523Y475226D01*
X437864D01*
X440125Y475832D01*
X441647Y476710D01*
X454148Y464210D01*
Y427310D01*
X454345Y426319D01*
X454906Y425479D01*
X485046Y395339D01*
X485886Y394777D01*
X486878Y394580D01*
X488178D01*
X503628Y379131D01*
X503142Y377820D01*
X501359Y377343D01*
X499332Y376172D01*
X497677Y374517D01*
X496651Y372741D01*
X495739Y372483D01*
X495188Y372478D01*
X438319Y429348D01*
X438805Y430658D01*
X440588Y431136D01*
X442615Y432306D01*
X444270Y433961D01*
X445440Y435989D01*
X446046Y438250D01*
Y440590D01*
X445440Y442851D01*
X444270Y444879D01*
X442615Y446534D01*
X440588Y447704D01*
X438327Y448310D01*
X435986D01*
X433725Y447704D01*
X431698Y446534D01*
X430042Y444879D01*
X428872Y442851D01*
X428394Y441068D01*
X427084Y440583D01*
X420420Y447247D01*
Y543762D01*
X420223Y544753D01*
X419661Y545593D01*
X419270Y545985D01*
Y638945D01*
X419073Y639936D01*
X418511Y640777D01*
X375876Y683411D01*
X376362Y684722D01*
X378145Y685200D01*
X380172Y686370D01*
X381828Y688025D01*
X382998Y690052D01*
X383604Y692313D01*
Y694654D01*
X382998Y696915D01*
X381828Y698942D01*
X380172Y700598D01*
X378145Y701768D01*
X375884Y702374D01*
X373543D01*
X371282Y701768D01*
X369255Y700598D01*
X367600Y698942D01*
X367051Y698870D01*
X350748Y715172D01*
X351184Y715927D01*
X351790Y718188D01*
Y720529D01*
X351184Y722790D01*
X350014Y724817D01*
X348359Y726472D01*
X346331Y727642D01*
X344070Y728248D01*
D02*
G37*
G36*
X863652Y633610D02*
X861008D01*
X858455Y632926D01*
X856165Y631604D01*
X854296Y629735D01*
X852974Y627445D01*
X852290Y624892D01*
Y622248D01*
X852974Y619695D01*
X854296Y617405D01*
X856165Y615536D01*
X858455Y614214D01*
X861008Y613530D01*
X863652D01*
X866205Y614214D01*
X868495Y615536D01*
X870364Y617405D01*
X871686Y619695D01*
X872370Y622248D01*
Y624892D01*
X871686Y627445D01*
X870364Y629735D01*
X868495Y631604D01*
X866205Y632926D01*
X863652Y633610D01*
D02*
G37*
G36*
X699670Y626110D02*
X697330D01*
X695069Y625504D01*
X693041Y624334D01*
X691386Y622679D01*
X690216Y620651D01*
X689610Y618390D01*
Y616050D01*
X690216Y613789D01*
X691139Y612190D01*
X690556Y610920D01*
X625730D01*
X625504Y611761D01*
X624334Y613789D01*
X622679Y615444D01*
X620651Y616614D01*
X618390Y617220D01*
X616050D01*
X613789Y616614D01*
X611761Y615444D01*
X610106Y613789D01*
X608936Y611761D01*
X608330Y609500D01*
Y607160D01*
X608936Y604899D01*
X610106Y602871D01*
X611761Y601216D01*
X613789Y600046D01*
X616050Y599440D01*
X618390D01*
X620651Y600046D01*
X622679Y601216D01*
X624334Y602871D01*
X625504Y604899D01*
X625730Y605740D01*
X714056D01*
X714246Y605411D01*
X715901Y603756D01*
X717929Y602586D01*
X720190Y601980D01*
X722530D01*
X724791Y602586D01*
X726819Y603756D01*
X728474Y605411D01*
X729644Y607439D01*
X730250Y609700D01*
Y612040D01*
X729644Y614301D01*
X728474Y616329D01*
X726819Y617984D01*
X724791Y619154D01*
X722530Y619760D01*
X720190D01*
X717929Y619154D01*
X715901Y617984D01*
X714246Y616329D01*
X713076Y614301D01*
X712470Y612040D01*
Y610920D01*
X706444D01*
X705861Y612190D01*
X706784Y613789D01*
X707390Y616050D01*
Y618390D01*
X706784Y620651D01*
X705614Y622679D01*
X703959Y624334D01*
X701931Y625504D01*
X699670Y626110D01*
D02*
G37*
G36*
X459792Y815220D02*
X457148D01*
X454595Y814536D01*
X452305Y813214D01*
X450436Y811345D01*
X449114Y809055D01*
X448430Y806502D01*
Y803858D01*
X449114Y801305D01*
X450436Y799015D01*
X452305Y797146D01*
X454595Y795824D01*
X457148Y795140D01*
X459792D01*
X462345Y795824D01*
X463498Y796490D01*
X471120Y788867D01*
Y604844D01*
X469850Y604261D01*
X468251Y605184D01*
X465990Y605790D01*
X463650D01*
X461389Y605184D01*
X459361Y604014D01*
X457706Y602359D01*
X456536Y600331D01*
X455930Y598070D01*
Y595730D01*
X456536Y593469D01*
X457706Y591441D01*
X459361Y589786D01*
X461389Y588616D01*
X463650Y588010D01*
X465990D01*
X467310Y588364D01*
X468580Y587389D01*
Y497840D01*
X468777Y496849D01*
X469339Y496009D01*
X472211Y493136D01*
X471776Y492381D01*
X471170Y490120D01*
Y487780D01*
X471776Y485519D01*
X472946Y483491D01*
X474601Y481836D01*
X476629Y480666D01*
X478890Y480060D01*
X481230D01*
X483491Y480666D01*
X485519Y481836D01*
X487174Y483491D01*
X488344Y485519D01*
X488950Y487780D01*
Y490120D01*
X488344Y492381D01*
X487174Y494409D01*
X485519Y496064D01*
X483491Y497234D01*
X481230Y497840D01*
X478890D01*
X476629Y497234D01*
X475874Y496799D01*
X473760Y498913D01*
Y571176D01*
X475030Y571759D01*
X476629Y570836D01*
X478890Y570230D01*
X481230D01*
X483491Y570836D01*
X485519Y572006D01*
X487174Y573661D01*
X488344Y575689D01*
X488950Y577950D01*
Y580290D01*
X488344Y582551D01*
X487174Y584579D01*
X485519Y586234D01*
X483491Y587404D01*
X481230Y588010D01*
X478890D01*
X476629Y587404D01*
X475030Y586481D01*
X473760Y587064D01*
Y589605D01*
X475541Y591386D01*
X476103Y592227D01*
X476300Y593218D01*
Y789940D01*
X476103Y790931D01*
X475541Y791771D01*
X467160Y800152D01*
X467826Y801305D01*
X468510Y803858D01*
Y806502D01*
X467826Y809055D01*
X466504Y811345D01*
X464635Y813214D01*
X462345Y814536D01*
X459792Y815220D01*
D02*
G37*
G36*
X753010Y619760D02*
X750670D01*
X748409Y619154D01*
X746381Y617984D01*
X744726Y616329D01*
X743556Y614301D01*
X742950Y612040D01*
Y609700D01*
X743556Y607439D01*
X744726Y605411D01*
X746381Y603756D01*
X748409Y602586D01*
X750670Y601980D01*
X753010D01*
X755271Y602586D01*
X757299Y603756D01*
X758954Y605411D01*
X760124Y607439D01*
X760730Y609700D01*
Y612040D01*
X760124Y614301D01*
X758954Y616329D01*
X757299Y617984D01*
X755271Y619154D01*
X753010Y619760D01*
D02*
G37*
G36*
X552350Y612140D02*
X550010D01*
X547749Y611534D01*
X545721Y610364D01*
X544066Y608709D01*
X542896Y606681D01*
X542290Y604420D01*
Y602080D01*
X542896Y599819D01*
X544066Y597791D01*
X545721Y596136D01*
X547749Y594966D01*
X550010Y594360D01*
X552350D01*
X554611Y594966D01*
X556639Y596136D01*
X558294Y597791D01*
X559464Y599819D01*
X560070Y602080D01*
Y604420D01*
X559464Y606681D01*
X558294Y608709D01*
X556639Y610364D01*
X554611Y611534D01*
X552350Y612140D01*
D02*
G37*
G36*
X325020Y609600D02*
X322680D01*
X320419Y608994D01*
X318391Y607824D01*
X316736Y606169D01*
X315566Y604141D01*
X314960Y601880D01*
Y599540D01*
X315566Y597279D01*
X316736Y595251D01*
X318391Y593596D01*
X320419Y592426D01*
X322680Y591820D01*
X325020D01*
X327281Y592426D01*
X329309Y593596D01*
X330964Y595251D01*
X332134Y597279D01*
X332740Y599540D01*
Y601880D01*
X332134Y604141D01*
X330964Y606169D01*
X329309Y607824D01*
X327281Y608994D01*
X325020Y609600D01*
D02*
G37*
G36*
X731420Y594360D02*
X729080D01*
X726819Y593754D01*
X724791Y592584D01*
X723136Y590929D01*
X721966Y588901D01*
X721360Y586640D01*
Y584300D01*
X721966Y582039D01*
X723136Y580011D01*
X724791Y578356D01*
X726819Y577186D01*
X729080Y576580D01*
X731420D01*
X733681Y577186D01*
X735709Y578356D01*
X737364Y580011D01*
X738534Y582039D01*
X739140Y584300D01*
Y586640D01*
X738534Y588901D01*
X737364Y590929D01*
X735709Y592584D01*
X733681Y593754D01*
X731420Y594360D01*
D02*
G37*
G36*
X704750D02*
X702410D01*
X700149Y593754D01*
X698121Y592584D01*
X696466Y590929D01*
X695296Y588901D01*
X694690Y586640D01*
Y584300D01*
X695296Y582039D01*
X696466Y580011D01*
X698121Y578356D01*
X700149Y577186D01*
X702410Y576580D01*
X704750D01*
X707011Y577186D01*
X709039Y578356D01*
X710694Y580011D01*
X711864Y582039D01*
X712470Y584300D01*
Y586640D01*
X711864Y588901D01*
X710694Y590929D01*
X709039Y592584D01*
X707011Y593754D01*
X704750Y594360D01*
D02*
G37*
G36*
X680620D02*
X678280D01*
X676019Y593754D01*
X673991Y592584D01*
X672336Y590929D01*
X671166Y588901D01*
X670560Y586640D01*
Y584300D01*
X671166Y582039D01*
X672336Y580011D01*
X673991Y578356D01*
X676019Y577186D01*
X678280Y576580D01*
X680620D01*
X682881Y577186D01*
X684909Y578356D01*
X686564Y580011D01*
X687734Y582039D01*
X688340Y584300D01*
Y586640D01*
X687734Y588901D01*
X686564Y590929D01*
X684909Y592584D01*
X682881Y593754D01*
X680620Y594360D01*
D02*
G37*
G36*
X655220D02*
X652880D01*
X650619Y593754D01*
X648591Y592584D01*
X646936Y590929D01*
X645766Y588901D01*
X645160Y586640D01*
Y584300D01*
X645766Y582039D01*
X646936Y580011D01*
X648591Y578356D01*
X650619Y577186D01*
X652880Y576580D01*
X655220D01*
X657481Y577186D01*
X659509Y578356D01*
X661164Y580011D01*
X662334Y582039D01*
X662940Y584300D01*
Y586640D01*
X662334Y588901D01*
X661164Y590929D01*
X659509Y592584D01*
X657481Y593754D01*
X655220Y594360D01*
D02*
G37*
G36*
X629820D02*
X627480D01*
X625219Y593754D01*
X623191Y592584D01*
X621536Y590929D01*
X620366Y588901D01*
X619760Y586640D01*
Y584300D01*
X620366Y582039D01*
X621536Y580011D01*
X623191Y578356D01*
X625219Y577186D01*
X627480Y576580D01*
X629820D01*
X632081Y577186D01*
X634109Y578356D01*
X635764Y580011D01*
X636934Y582039D01*
X637540Y584300D01*
Y586640D01*
X636934Y588901D01*
X635764Y590929D01*
X634109Y592584D01*
X632081Y593754D01*
X629820Y594360D01*
D02*
G37*
G36*
X905390Y592970D02*
X885310D01*
Y572890D01*
X905390D01*
Y592970D01*
D02*
G37*
G36*
X326290Y590550D02*
X323950D01*
X321689Y589944D01*
X319661Y588774D01*
X318006Y587119D01*
X316836Y585091D01*
X316230Y582830D01*
Y580490D01*
X316836Y578229D01*
X318006Y576201D01*
X319661Y574546D01*
X321689Y573376D01*
X323950Y572770D01*
X326290D01*
X328551Y573376D01*
X330579Y574546D01*
X332234Y576201D01*
X333404Y578229D01*
X334010Y580490D01*
Y582830D01*
X333404Y585091D01*
X332234Y587119D01*
X330579Y588774D01*
X328551Y589944D01*
X326290Y590550D01*
D02*
G37*
G36*
X943490Y591700D02*
X923410D01*
Y571620D01*
X943490D01*
Y591700D01*
D02*
G37*
G36*
X354230Y577850D02*
X351890D01*
X349629Y577244D01*
X347601Y576074D01*
X345946Y574419D01*
X344776Y572391D01*
X344170Y570130D01*
Y567790D01*
X344776Y565529D01*
X345946Y563501D01*
X347601Y561846D01*
X349629Y560676D01*
X351890Y560070D01*
X354230D01*
X356491Y560676D01*
X358519Y561846D01*
X360174Y563501D01*
X361344Y565529D01*
X361950Y567790D01*
Y570130D01*
X361344Y572391D01*
X360174Y574419D01*
X358519Y576074D01*
X356491Y577244D01*
X354230Y577850D01*
D02*
G37*
G36*
X389790Y574040D02*
X387450D01*
X385189Y573434D01*
X383161Y572264D01*
X381506Y570609D01*
X380336Y568581D01*
X379730Y566320D01*
Y563980D01*
X380336Y561719D01*
X381506Y559691D01*
X383161Y558036D01*
X385189Y556866D01*
X387450Y556260D01*
X389790D01*
X392051Y556866D01*
X394079Y558036D01*
X395734Y559691D01*
X396904Y561719D01*
X397510Y563980D01*
Y566320D01*
X396904Y568581D01*
X395734Y570609D01*
X394079Y572264D01*
X392051Y573434D01*
X389790Y574040D01*
D02*
G37*
G36*
X861112Y568840D02*
X858468D01*
X855915Y568156D01*
X853625Y566834D01*
X851756Y564965D01*
X850434Y562675D01*
X849750Y560122D01*
Y557478D01*
X850434Y554925D01*
X851756Y552635D01*
X853625Y550766D01*
X855915Y549444D01*
X858468Y548760D01*
X861112D01*
X863665Y549444D01*
X865955Y550766D01*
X867824Y552635D01*
X869146Y554925D01*
X869830Y557478D01*
Y560122D01*
X869146Y562675D01*
X867824Y564965D01*
X865955Y566834D01*
X863665Y568156D01*
X861112Y568840D01*
D02*
G37*
G36*
X896672Y567570D02*
X894028D01*
X891475Y566886D01*
X889185Y565564D01*
X887316Y563695D01*
X885994Y561405D01*
X885310Y558852D01*
Y556208D01*
X885994Y553655D01*
X887316Y551365D01*
X889185Y549496D01*
X891475Y548174D01*
X894028Y547490D01*
X896672D01*
X899225Y548174D01*
X901515Y549496D01*
X903384Y551365D01*
X904706Y553655D01*
X905390Y556208D01*
Y558852D01*
X904706Y561405D01*
X903384Y563695D01*
X901515Y565564D01*
X899225Y566886D01*
X896672Y567570D01*
D02*
G37*
G36*
X934772Y566300D02*
X932128D01*
X929575Y565616D01*
X927285Y564294D01*
X925416Y562425D01*
X924094Y560135D01*
X923410Y557582D01*
Y554938D01*
X924094Y552385D01*
X925416Y550095D01*
X927285Y548226D01*
X929575Y546904D01*
X932128Y546220D01*
X934772D01*
X937325Y546904D01*
X939615Y548226D01*
X941484Y550095D01*
X942806Y552385D01*
X943490Y554938D01*
Y557582D01*
X942806Y560135D01*
X941484Y562425D01*
X939615Y564294D01*
X937325Y565616D01*
X934772Y566300D01*
D02*
G37*
G36*
X203100Y543560D02*
X200760D01*
X198499Y542954D01*
X196471Y541784D01*
X194816Y540129D01*
X193646Y538101D01*
X193040Y535840D01*
Y533500D01*
X193646Y531239D01*
X194816Y529211D01*
X196471Y527556D01*
X198499Y526386D01*
X200760Y525780D01*
X203100D01*
X205361Y526386D01*
X207389Y527556D01*
X209044Y529211D01*
X210214Y531239D01*
X210820Y533500D01*
Y535840D01*
X210214Y538101D01*
X209044Y540129D01*
X207389Y541784D01*
X205361Y542954D01*
X203100Y543560D01*
D02*
G37*
G36*
X297080Y541020D02*
X294740D01*
X292479Y540414D01*
X290451Y539244D01*
X288796Y537589D01*
X287626Y535561D01*
X287020Y533300D01*
Y530960D01*
X287626Y528699D01*
X288796Y526671D01*
X290451Y525016D01*
X292479Y523846D01*
X294740Y523240D01*
X297080D01*
X299341Y523846D01*
X301369Y525016D01*
X303024Y526671D01*
X304194Y528699D01*
X304800Y530960D01*
Y533300D01*
X304194Y535561D01*
X303024Y537589D01*
X301369Y539244D01*
X299341Y540414D01*
X297080Y541020D01*
D02*
G37*
G36*
X255170Y647532D02*
X252830D01*
X250569Y646926D01*
X248541Y645756D01*
X246886Y644100D01*
X245716Y642073D01*
X245110Y639812D01*
Y637472D01*
X245716Y635210D01*
X246886Y633183D01*
X248541Y631528D01*
X249303Y631088D01*
Y438165D01*
X248033Y437639D01*
X246759Y438914D01*
X244731Y440084D01*
X242470Y440690D01*
X240130D01*
X237869Y440084D01*
X235841Y438914D01*
X234186Y437259D01*
X233016Y435231D01*
X232410Y432970D01*
Y430630D01*
X233016Y428369D01*
X234186Y426341D01*
X235841Y424686D01*
X237869Y423516D01*
X240130Y422910D01*
X242470D01*
X244731Y423516D01*
X246759Y424686D01*
X248033Y425961D01*
X249303Y425435D01*
Y416384D01*
X249500Y415393D01*
X250062Y414553D01*
X266650Y397965D01*
Y371164D01*
X265380Y370581D01*
X263781Y371504D01*
X261520Y372110D01*
X259180D01*
X256919Y371504D01*
X254891Y370334D01*
X253236Y368679D01*
X252066Y366651D01*
X251460Y364390D01*
Y362050D01*
X252066Y359789D01*
X253236Y357761D01*
X254891Y356106D01*
X256919Y354936D01*
X259180Y354330D01*
X261520D01*
X263781Y354936D01*
X265380Y355859D01*
X266650Y355276D01*
Y270510D01*
X266847Y269519D01*
X267409Y268679D01*
X295349Y240739D01*
X296189Y240177D01*
X297180Y239980D01*
X298830D01*
X299056Y239139D01*
X300226Y237111D01*
X301881Y235456D01*
X303909Y234286D01*
X306170Y233680D01*
X308510D01*
X310771Y234286D01*
X312799Y235456D01*
X314454Y237111D01*
X315624Y239139D01*
X316230Y241400D01*
Y243740D01*
X315624Y246001D01*
X314454Y248029D01*
X312799Y249684D01*
X310771Y250854D01*
X308510Y251460D01*
X306170D01*
X303909Y250854D01*
X301881Y249684D01*
X300226Y248029D01*
X299111Y246097D01*
X298976Y245986D01*
X297671Y245741D01*
X271830Y271583D01*
Y399037D01*
X271633Y400028D01*
X271071Y400868D01*
X254483Y417457D01*
Y524899D01*
X255753Y525425D01*
X256161Y525016D01*
X258189Y523846D01*
X260450Y523240D01*
X262790D01*
X265051Y523846D01*
X267079Y525016D01*
X268734Y526671D01*
X269904Y528699D01*
X270510Y530960D01*
Y533300D01*
X269904Y535561D01*
X268734Y537589D01*
X267079Y539244D01*
X265051Y540414D01*
X262790Y541020D01*
X260450D01*
X258189Y540414D01*
X256161Y539244D01*
X255753Y538835D01*
X254483Y539361D01*
Y629752D01*
X255170D01*
X257431Y630358D01*
X259459Y631528D01*
X261114Y633183D01*
X262284Y635210D01*
X262890Y637472D01*
Y639812D01*
X262284Y642073D01*
X261114Y644100D01*
X259459Y645756D01*
X257431Y646926D01*
X255170Y647532D01*
D02*
G37*
G36*
X896672Y542170D02*
X894028D01*
X891475Y541486D01*
X889185Y540164D01*
X887316Y538295D01*
X885994Y536005D01*
X885310Y533452D01*
Y530808D01*
X885994Y528255D01*
X887316Y525965D01*
X889185Y524096D01*
X891475Y522774D01*
X894028Y522090D01*
X896672D01*
X899225Y522774D01*
X901515Y524096D01*
X903384Y525965D01*
X904706Y528255D01*
X905390Y530808D01*
Y533452D01*
X904706Y536005D01*
X903384Y538295D01*
X901515Y540164D01*
X899225Y541486D01*
X896672Y542170D01*
D02*
G37*
G36*
X934772Y540900D02*
X932128D01*
X929575Y540216D01*
X927285Y538894D01*
X925416Y537025D01*
X924094Y534735D01*
X923410Y532182D01*
Y529538D01*
X924094Y526985D01*
X925416Y524695D01*
X927285Y522826D01*
X929575Y521504D01*
X932128Y520820D01*
X934772D01*
X937325Y521504D01*
X939615Y522826D01*
X941484Y524695D01*
X942806Y526985D01*
X943490Y529538D01*
Y532182D01*
X942806Y534735D01*
X941484Y537025D01*
X939615Y538894D01*
X937325Y540216D01*
X934772Y540900D01*
D02*
G37*
G36*
X238660Y532130D02*
X236320D01*
X234059Y531524D01*
X232031Y530354D01*
X230376Y528699D01*
X229206Y526671D01*
X228600Y524410D01*
Y522070D01*
X229206Y519809D01*
X230376Y517781D01*
X232031Y516126D01*
X234059Y514956D01*
X236320Y514350D01*
X238660D01*
X240921Y514956D01*
X242949Y516126D01*
X244604Y517781D01*
X245774Y519809D01*
X246380Y522070D01*
Y524410D01*
X245774Y526671D01*
X244604Y528699D01*
X242949Y530354D01*
X240921Y531524D01*
X238660Y532130D01*
D02*
G37*
G36*
X554406Y529560D02*
X552065D01*
X549804Y528954D01*
X547777Y527784D01*
X546122Y526129D01*
X544951Y524101D01*
X544345Y521840D01*
Y519500D01*
X544951Y517239D01*
X546122Y515211D01*
X547777Y513556D01*
X549804Y512386D01*
X552065Y511780D01*
X554406D01*
X556667Y512386D01*
X558694Y513556D01*
X560349Y515211D01*
X561520Y517239D01*
X562125Y519500D01*
Y521840D01*
X561520Y524101D01*
X560349Y526129D01*
X558694Y527784D01*
X556667Y528954D01*
X554406Y529560D01*
D02*
G37*
G36*
X577750Y527050D02*
X575410D01*
X573149Y526444D01*
X571121Y525274D01*
X569466Y523619D01*
X568296Y521591D01*
X567690Y519330D01*
Y516990D01*
X568296Y514729D01*
X569466Y512701D01*
X571121Y511046D01*
X573149Y509876D01*
X575410Y509270D01*
X577750D01*
X580011Y509876D01*
X582039Y511046D01*
X583694Y512701D01*
X584864Y514729D01*
X585470Y516990D01*
Y519330D01*
X584864Y521591D01*
X583694Y523619D01*
X582039Y525274D01*
X580011Y526444D01*
X577750Y527050D01*
D02*
G37*
G36*
X490101Y525877D02*
X487760D01*
X485499Y525271D01*
X483472Y524100D01*
X481817Y522445D01*
X480647Y520418D01*
X480041Y518157D01*
Y515816D01*
X480647Y513555D01*
X481817Y511528D01*
X483472Y509873D01*
X485499Y508702D01*
X487760Y508097D01*
X490101D01*
X492362Y508702D01*
X494389Y509873D01*
X496045Y511528D01*
X497215Y513555D01*
X497821Y515816D01*
Y518157D01*
X497215Y520418D01*
X496045Y522445D01*
X494389Y524100D01*
X492362Y525271D01*
X490101Y525877D01*
D02*
G37*
G36*
X322480Y554990D02*
X320140D01*
X317879Y554384D01*
X315851Y553214D01*
X314196Y551559D01*
X313026Y549531D01*
X312420Y547270D01*
Y544930D01*
X313026Y542669D01*
X314196Y540641D01*
X315851Y538986D01*
X317879Y537816D01*
X320140Y537210D01*
X321260D01*
Y446218D01*
X319990Y445692D01*
X319149Y446534D01*
X317121Y447704D01*
X314860Y448310D01*
X312520D01*
X310259Y447704D01*
X308231Y446534D01*
X306576Y444879D01*
X305406Y442851D01*
X304800Y440590D01*
Y438250D01*
X305406Y435989D01*
X306576Y433961D01*
X308231Y432306D01*
X310259Y431136D01*
X312520Y430530D01*
X314860D01*
X317121Y431136D01*
X319149Y432306D01*
X319990Y433148D01*
X321260Y432622D01*
Y229870D01*
X321457Y228879D01*
X322019Y228039D01*
X330371Y219686D01*
X329886Y218376D01*
X328102Y217898D01*
X326075Y216728D01*
X324420Y215072D01*
X323250Y213045D01*
X322644Y210784D01*
Y208443D01*
X323250Y206182D01*
X324420Y204155D01*
X326075Y202500D01*
X328102Y201330D01*
X330363Y200724D01*
X332704D01*
X334965Y201330D01*
X336992Y202500D01*
X338648Y204155D01*
X339818Y206182D01*
X340296Y207966D01*
X341606Y208451D01*
X407158Y142900D01*
X407998Y142339D01*
X408989Y142142D01*
X452549D01*
X452775Y141300D01*
X453945Y139273D01*
X455600Y137618D01*
X457627Y136447D01*
X459888Y135841D01*
X462229D01*
X464490Y136447D01*
X466517Y137618D01*
X468172Y139273D01*
X469343Y141300D01*
X469949Y143561D01*
Y145902D01*
X469343Y148163D01*
X468172Y150190D01*
X466517Y151845D01*
X464490Y153015D01*
X462229Y153621D01*
X459888D01*
X457627Y153015D01*
X455600Y151845D01*
X453945Y150190D01*
X452775Y148163D01*
X452549Y147321D01*
X410061D01*
X360763Y196620D01*
X361248Y197930D01*
X363032Y198408D01*
X365059Y199578D01*
X366714Y201234D01*
X367884Y203261D01*
X368490Y205522D01*
Y207863D01*
X367884Y210124D01*
X366714Y212151D01*
X365059Y213806D01*
X363032Y214976D01*
X360771Y215582D01*
X360761D01*
X360234Y216852D01*
X361444Y218061D01*
X362614Y220089D01*
X363220Y222350D01*
Y224690D01*
X362614Y226951D01*
X362178Y227706D01*
X366321Y231849D01*
X366883Y232689D01*
X367080Y233680D01*
Y246452D01*
X368350Y246792D01*
X368806Y246001D01*
X370461Y244346D01*
X372489Y243176D01*
X374750Y242570D01*
X377090D01*
X379351Y243176D01*
X381379Y244346D01*
X383034Y246001D01*
X384204Y248029D01*
X384810Y250290D01*
Y252630D01*
X384204Y254891D01*
X383034Y256919D01*
X381379Y258574D01*
X379351Y259744D01*
X377090Y260350D01*
X374750D01*
X372489Y259744D01*
X370461Y258574D01*
X368806Y256919D01*
X368350Y256128D01*
X367080Y256468D01*
Y288670D01*
X367921Y288896D01*
X369949Y290066D01*
X371604Y291721D01*
X372774Y293749D01*
X373380Y296010D01*
Y298350D01*
X372774Y300611D01*
X371604Y302639D01*
X369949Y304294D01*
X367921Y305464D01*
X367080Y305690D01*
Y365957D01*
X369194Y368072D01*
X369949Y367636D01*
X372210Y367030D01*
X374550D01*
X376811Y367636D01*
X378839Y368806D01*
X380494Y370461D01*
X380950Y371252D01*
X382220Y370912D01*
Y341630D01*
X382417Y340639D01*
X382979Y339799D01*
X387122Y335656D01*
X386686Y334901D01*
X386080Y332640D01*
Y330300D01*
X386686Y328039D01*
X387856Y326011D01*
X389511Y324356D01*
X391539Y323186D01*
X393800Y322580D01*
X396140D01*
X398401Y323186D01*
X400429Y324356D01*
X402084Y326011D01*
X403254Y328039D01*
X403860Y330300D01*
Y332640D01*
X403254Y334901D01*
X402458Y336281D01*
X403294Y337371D01*
X404467Y337057D01*
X406808D01*
X409069Y337663D01*
X411096Y338834D01*
X412751Y340489D01*
X413922Y342516D01*
X414527Y344777D01*
Y347118D01*
X413922Y349379D01*
X412751Y351406D01*
X411096Y353061D01*
X409069Y354231D01*
X406808Y354837D01*
X404467D01*
X402206Y354231D01*
X400179Y353061D01*
X398524Y351406D01*
X397353Y349379D01*
X396747Y347118D01*
Y344777D01*
X397353Y342516D01*
X398150Y341136D01*
X397313Y340046D01*
X396140Y340360D01*
X393800D01*
X391539Y339754D01*
X390784Y339319D01*
X387400Y342703D01*
Y397510D01*
X387203Y398501D01*
X386641Y399341D01*
X378689Y407294D01*
X379124Y408049D01*
X379730Y410310D01*
Y412650D01*
X379124Y414911D01*
X377954Y416939D01*
X376299Y418594D01*
X374271Y419764D01*
X372010Y420370D01*
X369670D01*
X367409Y419764D01*
X365381Y418594D01*
X363726Y416939D01*
X362556Y414911D01*
X361950Y412650D01*
Y410310D01*
X362556Y408049D01*
X363158Y407006D01*
X362545Y405527D01*
X361622Y405280D01*
X359595Y404109D01*
X357940Y402454D01*
X356770Y400427D01*
X356164Y398166D01*
Y395825D01*
X356770Y393564D01*
X357940Y391537D01*
X359595Y389882D01*
X361622Y388712D01*
X363883Y388106D01*
X366224D01*
X368485Y388712D01*
X370512Y389882D01*
X372168Y391537D01*
X373338Y393564D01*
X373944Y395825D01*
Y398166D01*
X373338Y400427D01*
X372736Y401470D01*
X373349Y402949D01*
X374271Y403196D01*
X375026Y403632D01*
X382220Y396437D01*
Y380928D01*
X380950Y380588D01*
X380494Y381379D01*
X378839Y383034D01*
X376811Y384204D01*
X374550Y384810D01*
X372210D01*
X369949Y384204D01*
X367921Y383034D01*
X366266Y381379D01*
X365096Y379351D01*
X364490Y377090D01*
Y374750D01*
X365096Y372489D01*
X365532Y371734D01*
X362659Y368861D01*
X362097Y368021D01*
X361900Y367030D01*
Y305690D01*
X361059Y305464D01*
X359031Y304294D01*
X357376Y302639D01*
X357335Y302567D01*
X355868D01*
X355094Y303909D01*
X353439Y305564D01*
X351411Y306734D01*
X349150Y307340D01*
X346810D01*
X344549Y306734D01*
X342521Y305564D01*
X340866Y303909D01*
X340688Y303600D01*
X339101Y303391D01*
X338199Y304294D01*
X336171Y305464D01*
X333910Y306070D01*
X331570D01*
X329309Y305464D01*
X327710Y304541D01*
X326440Y305124D01*
Y509342D01*
X327710Y509682D01*
X328166Y508891D01*
X329821Y507236D01*
X331849Y506066D01*
X334110Y505460D01*
X336450D01*
X338711Y506066D01*
X340739Y507236D01*
X342394Y508891D01*
X343564Y510919D01*
X344170Y513180D01*
Y515520D01*
X343564Y517781D01*
X342394Y519809D01*
X340739Y521464D01*
X338711Y522634D01*
X336450Y523240D01*
X334110D01*
X331849Y522634D01*
X329821Y521464D01*
X328166Y519809D01*
X327710Y519018D01*
X326440Y519358D01*
Y538796D01*
X326769Y538986D01*
X328424Y540641D01*
X329594Y542669D01*
X330200Y544930D01*
Y547270D01*
X329594Y549531D01*
X328424Y551559D01*
X326769Y553214D01*
X324741Y554384D01*
X322480Y554990D01*
D02*
G37*
G36*
X669190Y511810D02*
X666850D01*
X664589Y511204D01*
X662561Y510034D01*
X660906Y508379D01*
X659736Y506351D01*
X659130Y504090D01*
Y501750D01*
X659736Y499489D01*
X660906Y497461D01*
X662561Y495806D01*
X664589Y494636D01*
X666850Y494030D01*
X669190D01*
X671451Y494636D01*
X673479Y495806D01*
X675134Y497461D01*
X676304Y499489D01*
X676910Y501750D01*
Y504090D01*
X676304Y506351D01*
X675134Y508379D01*
X673479Y510034D01*
X671451Y511204D01*
X669190Y511810D01*
D02*
G37*
G36*
X688240Y534670D02*
X685900D01*
X683639Y534064D01*
X681611Y532894D01*
X679956Y531239D01*
X678786Y529211D01*
X678180Y526950D01*
Y524610D01*
X678786Y522349D01*
X679956Y520321D01*
X681611Y518666D01*
X683639Y517496D01*
X685900Y516890D01*
X688240D01*
X690501Y517496D01*
X691256Y517932D01*
X701904Y507283D01*
X701804Y507182D01*
X700633Y505155D01*
X700027Y502894D01*
Y500554D01*
X700633Y498292D01*
X701804Y496265D01*
X703459Y494610D01*
X705486Y493440D01*
X706241Y493237D01*
X706626Y492853D01*
X707466Y492291D01*
X708457Y492094D01*
X709448Y492291D01*
X710288Y492853D01*
X710317Y492895D01*
X712349Y493440D01*
X714376Y494610D01*
X716031Y496265D01*
X717202Y498292D01*
X717807Y500554D01*
Y502894D01*
X717202Y505155D01*
X716031Y507182D01*
X714376Y508838D01*
X712349Y510008D01*
X710088Y510614D01*
X707747D01*
X706289Y510223D01*
X694919Y521594D01*
X695354Y522349D01*
X695960Y524610D01*
Y526950D01*
X695354Y529211D01*
X694184Y531239D01*
X692529Y532894D01*
X690501Y534064D01*
X688240Y534670D01*
D02*
G37*
G36*
X396140Y499110D02*
X393800D01*
X391539Y498504D01*
X389511Y497334D01*
X387856Y495679D01*
X386686Y493651D01*
X386080Y491390D01*
Y489050D01*
X386091Y489009D01*
X385054Y487972D01*
X384012Y488251D01*
X381671D01*
X379410Y487645D01*
X377383Y486475D01*
X375727Y484820D01*
X374557Y482793D01*
X373951Y480532D01*
Y478191D01*
X374557Y475930D01*
X375727Y473903D01*
X377383Y472247D01*
X379410Y471077D01*
X381671Y470471D01*
X384012D01*
X386273Y471077D01*
X388300Y472247D01*
X389955Y473903D01*
X391125Y475930D01*
X391731Y478191D01*
Y480532D01*
X391720Y480572D01*
X392757Y481609D01*
X393800Y481330D01*
X396140D01*
X398401Y481936D01*
X400429Y483106D01*
X402084Y484761D01*
X403254Y486789D01*
X403860Y489050D01*
Y491390D01*
X403254Y493651D01*
X402084Y495679D01*
X400429Y497334D01*
X398401Y498504D01*
X396140Y499110D01*
D02*
G37*
G36*
X728880Y501650D02*
X726540D01*
X724279Y501044D01*
X722251Y499874D01*
X720596Y498219D01*
X719426Y496191D01*
X718820Y493930D01*
Y491590D01*
X719426Y489329D01*
X720596Y487301D01*
X722251Y485646D01*
X724279Y484476D01*
X726540Y483870D01*
X728880D01*
X731141Y484476D01*
X733169Y485646D01*
X734824Y487301D01*
X735994Y489329D01*
X736600Y491590D01*
Y493930D01*
X735994Y496191D01*
X734824Y498219D01*
X733169Y499874D01*
X731141Y501044D01*
X728880Y501650D01*
D02*
G37*
G36*
X303470Y486286D02*
X301129D01*
X298868Y485680D01*
X296841Y484509D01*
X295186Y482854D01*
X294015Y480827D01*
X293409Y478566D01*
Y476225D01*
X293840Y474617D01*
X292750Y473781D01*
X291721Y474374D01*
X289460Y474980D01*
X287120D01*
X284859Y474374D01*
X282831Y473204D01*
X281176Y471549D01*
X280006Y469521D01*
X279400Y467260D01*
Y464920D01*
X280006Y462659D01*
X281176Y460631D01*
X282831Y458976D01*
X284859Y457806D01*
X287120Y457200D01*
X289460D01*
X291721Y457806D01*
X293749Y458976D01*
X295404Y460631D01*
X296574Y462659D01*
X297180Y464920D01*
Y467260D01*
X296749Y468868D01*
X297840Y469705D01*
X298868Y469111D01*
X301129Y468506D01*
X303470D01*
X305731Y469111D01*
X307758Y470282D01*
X309413Y471937D01*
X310583Y473964D01*
X311189Y476225D01*
Y478566D01*
X310583Y480827D01*
X309413Y482854D01*
X307758Y484509D01*
X305731Y485680D01*
X303470Y486286D01*
D02*
G37*
G36*
X933350Y488950D02*
X931010D01*
X928749Y488344D01*
X926721Y487174D01*
X925066Y485519D01*
X923896Y483491D01*
X923290Y481230D01*
Y478890D01*
X923896Y476629D01*
X925066Y474601D01*
X926721Y472946D01*
X928749Y471776D01*
X931010Y471170D01*
X933350D01*
X935611Y471776D01*
X937639Y472946D01*
X939294Y474601D01*
X940464Y476629D01*
X941070Y478890D01*
Y481230D01*
X940464Y483491D01*
X939294Y485519D01*
X937639Y487174D01*
X935611Y488344D01*
X933350Y488950D01*
D02*
G37*
G36*
X591720Y504190D02*
X589380D01*
X587119Y503584D01*
X585091Y502414D01*
X583436Y500759D01*
X582266Y498731D01*
X581660Y496470D01*
Y494130D01*
X582266Y491869D01*
X583436Y489841D01*
X585091Y488186D01*
X587119Y487016D01*
X589380Y486410D01*
X591720D01*
X593981Y487016D01*
X595243Y487744D01*
X595368Y487816D01*
X596148Y486800D01*
X596026Y486679D01*
X594754Y485406D01*
X593583Y483379D01*
X592978Y481118D01*
Y478777D01*
X593583Y476516D01*
X594754Y474489D01*
X596409Y472834D01*
X598436Y471663D01*
X600697Y471058D01*
X603038D01*
X605299Y471663D01*
X607326Y472834D01*
X608981Y474489D01*
X610152Y476516D01*
X610758Y478777D01*
Y481118D01*
X610152Y483379D01*
X608981Y485406D01*
X607326Y487061D01*
X605299Y488232D01*
X603038Y488838D01*
X600697D01*
X598436Y488232D01*
X597174Y487503D01*
X597050Y487431D01*
X596270Y488447D01*
X596391Y488569D01*
X597664Y489841D01*
X598834Y491869D01*
X599440Y494130D01*
Y496470D01*
X598834Y498731D01*
X597664Y500759D01*
X596009Y502414D01*
X593981Y503584D01*
X591720Y504190D01*
D02*
G37*
G36*
X579677Y480040D02*
X577336D01*
X575075Y479434D01*
X573047Y478263D01*
X571392Y476608D01*
X570222Y474581D01*
X569616Y472320D01*
Y469979D01*
X570222Y467718D01*
X570755Y466796D01*
X569918Y465705D01*
X568481Y466090D01*
X566141D01*
X563880Y465484D01*
X561852Y464314D01*
X560197Y462659D01*
X559027Y460631D01*
X558421Y458370D01*
Y456030D01*
X559027Y453769D01*
X560197Y451741D01*
X561852Y450086D01*
X563880Y448916D01*
X566141Y448310D01*
X568481D01*
X570742Y448916D01*
X572770Y450086D01*
X574425Y451741D01*
X575595Y453769D01*
X576201Y456030D01*
Y458370D01*
X575595Y460631D01*
X575063Y461554D01*
X575900Y462644D01*
X577336Y462260D01*
X579677D01*
X581937Y462865D01*
X583965Y464036D01*
X585620Y465691D01*
X586790Y467718D01*
X587396Y469979D01*
Y472320D01*
X586790Y474581D01*
X585620Y476608D01*
X583965Y478263D01*
X581937Y479434D01*
X579677Y480040D01*
D02*
G37*
G36*
X911912Y482480D02*
X909268D01*
X906715Y481796D01*
X904425Y480474D01*
X902556Y478605D01*
X901234Y476315D01*
X900550Y473762D01*
Y471118D01*
X901234Y468565D01*
X902556Y466275D01*
X904425Y464406D01*
X906715Y463084D01*
X909268Y462400D01*
X911912D01*
X914465Y463084D01*
X916755Y464406D01*
X918624Y466275D01*
X919946Y468565D01*
X920630Y471118D01*
Y473762D01*
X919946Y476315D01*
X918624Y478605D01*
X916755Y480474D01*
X914465Y481796D01*
X911912Y482480D01*
D02*
G37*
G36*
X440590Y469900D02*
X438250D01*
X435989Y469294D01*
X433961Y468124D01*
X432306Y466469D01*
X431136Y464441D01*
X430530Y462180D01*
Y459840D01*
X431136Y457579D01*
X432306Y455551D01*
X433961Y453896D01*
X435989Y452726D01*
X438250Y452120D01*
X440590D01*
X442851Y452726D01*
X444879Y453896D01*
X446534Y455551D01*
X447704Y457579D01*
X448310Y459840D01*
Y462180D01*
X447704Y464441D01*
X446534Y466469D01*
X444879Y468124D01*
X442851Y469294D01*
X440590Y469900D01*
D02*
G37*
G36*
X603537Y452866D02*
X601196D01*
X598935Y452260D01*
X596908Y451089D01*
X595253Y449434D01*
X594083Y447407D01*
X593477Y445146D01*
Y442805D01*
X593972Y440956D01*
X592789Y440466D01*
X592246Y441407D01*
X590591Y443062D01*
X588563Y444232D01*
X586302Y444838D01*
X583962D01*
X581701Y444232D01*
X579674Y443062D01*
X578018Y441407D01*
X576848Y439379D01*
X576242Y437118D01*
Y434778D01*
X576848Y432517D01*
X577703Y431035D01*
X576773Y430106D01*
X575292Y430961D01*
X573031Y431567D01*
X570690D01*
X568429Y430961D01*
X566402Y429790D01*
X564747Y428135D01*
X563577Y426108D01*
X562971Y423847D01*
Y421506D01*
X563577Y419245D01*
X564747Y417218D01*
X566402Y415563D01*
X568429Y414393D01*
X570690Y413787D01*
X573031D01*
X575292Y414393D01*
X577319Y415563D01*
X578975Y417218D01*
X580145Y419245D01*
X580751Y421506D01*
Y423847D01*
X580145Y426108D01*
X579290Y427589D01*
X580220Y428519D01*
X581701Y427664D01*
X583962Y427058D01*
X586302D01*
X588563Y427664D01*
X590591Y428834D01*
X592246Y430489D01*
X593323Y429837D01*
X592889Y429086D01*
X592283Y426825D01*
Y424484D01*
X592889Y422223D01*
X593471Y421216D01*
X592634Y420125D01*
X591720Y420370D01*
X589380D01*
X587119Y419764D01*
X585091Y418594D01*
X583436Y416939D01*
X582266Y414911D01*
X581660Y412650D01*
Y410310D01*
X582266Y408049D01*
X583436Y406021D01*
X585091Y404366D01*
X587119Y403196D01*
X589380Y402590D01*
X591720D01*
X593981Y403196D01*
X596009Y404366D01*
X597664Y406021D01*
X598834Y408049D01*
X599440Y410310D01*
Y412650D01*
X598834Y414911D01*
X598253Y415919D01*
X599090Y417009D01*
X600003Y416764D01*
X602344D01*
X604605Y417370D01*
X606632Y418541D01*
X608287Y420196D01*
X609458Y422223D01*
X610063Y424484D01*
Y426825D01*
X609458Y429086D01*
X608287Y431113D01*
X606632Y432768D01*
X604605Y433939D01*
X604384Y433998D01*
Y435312D01*
X605798Y435691D01*
X607825Y436862D01*
X609481Y438517D01*
X610651Y440544D01*
X611257Y442805D01*
Y445146D01*
X610651Y447407D01*
X609481Y449434D01*
X607825Y451089D01*
X605798Y452260D01*
X603537Y452866D01*
D02*
G37*
G36*
X920630Y457080D02*
X900550D01*
Y437000D01*
X920630D01*
Y457080D01*
D02*
G37*
G36*
X275490Y447040D02*
X273150D01*
X270889Y446434D01*
X268861Y445264D01*
X267206Y443609D01*
X266036Y441581D01*
X265430Y439320D01*
Y436980D01*
X266036Y434719D01*
X267206Y432691D01*
X268861Y431036D01*
X270889Y429866D01*
X273150Y429260D01*
X275490D01*
X277751Y429866D01*
X279779Y431036D01*
X281434Y432691D01*
X282604Y434719D01*
X283210Y436980D01*
Y439320D01*
X282604Y441581D01*
X281434Y443609D01*
X279779Y445264D01*
X277751Y446434D01*
X275490Y447040D01*
D02*
G37*
G36*
X250090Y410210D02*
X247750D01*
X245489Y409604D01*
X243461Y408434D01*
X241806Y406779D01*
X240636Y404751D01*
X240030Y402490D01*
Y400150D01*
X240636Y397889D01*
X241806Y395861D01*
X243461Y394206D01*
X245489Y393036D01*
X247750Y392430D01*
X250090D01*
X252351Y393036D01*
X254379Y394206D01*
X256034Y395861D01*
X257204Y397889D01*
X257810Y400150D01*
Y402490D01*
X257204Y404751D01*
X256034Y406779D01*
X254379Y408434D01*
X252351Y409604D01*
X250090Y410210D01*
D02*
G37*
G36*
X636771Y410045D02*
X634430D01*
X632169Y409439D01*
X630142Y408269D01*
X628486Y406613D01*
X627316Y404586D01*
X626710Y402325D01*
Y399984D01*
X627316Y397723D01*
X628486Y395696D01*
X630142Y394041D01*
X632169Y392871D01*
X634430Y392265D01*
X636771D01*
X639032Y392871D01*
X641059Y394041D01*
X642714Y395696D01*
X643884Y397723D01*
X644490Y399984D01*
Y402325D01*
X643884Y404586D01*
X642714Y406613D01*
X641059Y408269D01*
X639032Y409439D01*
X636771Y410045D01*
D02*
G37*
G36*
X432970Y387350D02*
X430630D01*
X428369Y386744D01*
X426341Y385574D01*
X424686Y383919D01*
X423516Y381891D01*
X422910Y379630D01*
Y377290D01*
X423516Y375029D01*
X424686Y373001D01*
X426341Y371346D01*
X428369Y370176D01*
X430630Y369570D01*
X432970D01*
X435231Y370176D01*
X437259Y371346D01*
X438914Y373001D01*
X440084Y375029D01*
X440690Y377290D01*
Y379630D01*
X440084Y381891D01*
X438914Y383919D01*
X437259Y385574D01*
X435231Y386744D01*
X432970Y387350D01*
D02*
G37*
G36*
X223420Y383540D02*
X221080D01*
X218819Y382934D01*
X216791Y381764D01*
X215136Y380109D01*
X213966Y378081D01*
X213360Y375820D01*
Y373480D01*
X213966Y371219D01*
X215136Y369191D01*
X216791Y367536D01*
X218819Y366366D01*
X221080Y365760D01*
X223420D01*
X225681Y366366D01*
X227709Y367536D01*
X228877Y368705D01*
X229364Y369191D01*
X230421Y368524D01*
X230068Y367913D01*
X229523Y366969D01*
X228918Y364708D01*
Y362367D01*
X229523Y360106D01*
X230694Y358079D01*
X232349Y356424D01*
X234376Y355253D01*
X236637Y354647D01*
X238978D01*
X241239Y355253D01*
X243266Y356424D01*
X244921Y358079D01*
X246092Y360106D01*
X246698Y362367D01*
Y364708D01*
X246092Y366969D01*
X244921Y368996D01*
X243266Y370651D01*
X241239Y371822D01*
X238978Y372427D01*
X236637D01*
X234376Y371822D01*
X232349Y370651D01*
X231180Y369483D01*
X230694Y368996D01*
X229637Y369664D01*
X229989Y370274D01*
X230534Y371219D01*
X231140Y373480D01*
Y375820D01*
X230534Y378081D01*
X229364Y380109D01*
X227709Y381764D01*
X225681Y382934D01*
X223420Y383540D01*
D02*
G37*
G36*
X341530Y367030D02*
X339190D01*
X336929Y366424D01*
X334901Y365254D01*
X333246Y363599D01*
X332076Y361571D01*
X331470Y359310D01*
Y356970D01*
X332076Y354709D01*
X333246Y352681D01*
X334901Y351026D01*
X336929Y349856D01*
X339190Y349250D01*
X341530D01*
X343791Y349856D01*
X345819Y351026D01*
X347474Y352681D01*
X348644Y354709D01*
X349250Y356970D01*
Y359310D01*
X348644Y361571D01*
X347474Y363599D01*
X345819Y365254D01*
X343791Y366424D01*
X341530Y367030D01*
D02*
G37*
G36*
X757426Y343279D02*
X755086D01*
X752824Y342673D01*
X750797Y341502D01*
X749142Y339847D01*
X747972Y337820D01*
X747366Y335559D01*
Y333218D01*
X747972Y330957D01*
X749142Y328930D01*
X750797Y327275D01*
X752824Y326104D01*
X755086Y325499D01*
X757426D01*
X759687Y326104D01*
X761714Y327275D01*
X763370Y328930D01*
X764540Y330957D01*
X765146Y333218D01*
Y335559D01*
X764540Y337820D01*
X763370Y339847D01*
X761714Y341502D01*
X759687Y342673D01*
X757426Y343279D01*
D02*
G37*
G36*
X250090Y331470D02*
X247750D01*
X245489Y330864D01*
X243461Y329694D01*
X241806Y328039D01*
X240636Y326011D01*
X240030Y323750D01*
Y323614D01*
X238760Y322655D01*
X237410Y323016D01*
X235069D01*
X232808Y322411D01*
X230781Y321240D01*
X229126Y319585D01*
X227955Y317558D01*
X227349Y315297D01*
Y312956D01*
X227955Y310695D01*
X229126Y308668D01*
X230781Y307013D01*
X232808Y305842D01*
X235069Y305236D01*
X237410D01*
X239671Y305842D01*
X239898Y305973D01*
X240989Y305137D01*
X240570Y303572D01*
Y301232D01*
X241175Y298971D01*
X242346Y296943D01*
X244001Y295288D01*
X246028Y294118D01*
X248289Y293512D01*
X250630D01*
X252891Y294118D01*
X254918Y295288D01*
X256490Y296860D01*
X256861Y296826D01*
X257760Y296459D01*
Y126620D01*
X256919Y126394D01*
X254891Y125224D01*
X253236Y123569D01*
X252066Y121541D01*
X251460Y119280D01*
Y116940D01*
X252066Y114679D01*
X253236Y112651D01*
X254891Y110996D01*
X256919Y109826D01*
X259180Y109220D01*
X261520D01*
X263781Y109826D01*
X265809Y110996D01*
X267464Y112651D01*
X268634Y114679D01*
X269240Y116940D01*
Y119280D01*
X268634Y121541D01*
X267464Y123569D01*
X265809Y125224D01*
X263781Y126394D01*
X262940Y126620D01*
Y161037D01*
X264210Y161204D01*
X264766Y159129D01*
X265936Y157101D01*
X267591Y155446D01*
X269619Y154276D01*
X271880Y153670D01*
X274220D01*
X276481Y154276D01*
X278509Y155446D01*
X280164Y157101D01*
X281334Y159129D01*
X281940Y161390D01*
Y163730D01*
X281334Y165991D01*
X280164Y168019D01*
X278509Y169674D01*
X276481Y170844D01*
X274220Y171450D01*
X271880D01*
X269619Y170844D01*
X267591Y169674D01*
X265936Y168019D01*
X264766Y165991D01*
X264210Y163916D01*
X262940Y164083D01*
Y311150D01*
X262743Y312141D01*
X262181Y312981D01*
X256768Y318394D01*
X257204Y319149D01*
X257810Y321410D01*
Y323750D01*
X257204Y326011D01*
X256034Y328039D01*
X254379Y329694D01*
X252351Y330864D01*
X250090Y331470D01*
D02*
G37*
G36*
X195480Y339090D02*
X193140D01*
X190879Y338484D01*
X188851Y337314D01*
X187196Y335659D01*
X186026Y333631D01*
X185420Y331370D01*
Y329030D01*
X186026Y326769D01*
X187196Y324741D01*
X188851Y323086D01*
X190879Y321916D01*
X193140Y321310D01*
X195480D01*
X197741Y321916D01*
X199769Y323086D01*
X201424Y324741D01*
X202594Y326769D01*
X203200Y329030D01*
Y331370D01*
X202594Y333631D01*
X201424Y335659D01*
X199769Y337314D01*
X197741Y338484D01*
X195480Y339090D01*
D02*
G37*
G36*
X671710Y336430D02*
X651630D01*
Y316350D01*
X671710D01*
Y336430D01*
D02*
G37*
G36*
X637592D02*
X634948D01*
X632395Y335746D01*
X630105Y334424D01*
X628236Y332555D01*
X626914Y330265D01*
X626230Y327712D01*
Y325068D01*
X626914Y322515D01*
X628236Y320225D01*
X630105Y318356D01*
X632395Y317034D01*
X634948Y316350D01*
X637592D01*
X640145Y317034D01*
X642435Y318356D01*
X644304Y320225D01*
X645626Y322515D01*
X646310Y325068D01*
Y327712D01*
X645626Y330265D01*
X644304Y332555D01*
X642435Y334424D01*
X640145Y335746D01*
X637592Y336430D01*
D02*
G37*
G36*
X612192D02*
X609548D01*
X606995Y335746D01*
X604705Y334424D01*
X602836Y332555D01*
X601514Y330265D01*
X600830Y327712D01*
Y325068D01*
X601514Y322515D01*
X602836Y320225D01*
X604705Y318356D01*
X606995Y317034D01*
X609548Y316350D01*
X612192D01*
X614745Y317034D01*
X617035Y318356D01*
X618904Y320225D01*
X620226Y322515D01*
X620910Y325068D01*
Y327712D01*
X620226Y330265D01*
X618904Y332555D01*
X617035Y334424D01*
X614745Y335746D01*
X612192Y336430D01*
D02*
G37*
G36*
X586792D02*
X584148D01*
X581595Y335746D01*
X579305Y334424D01*
X577436Y332555D01*
X576114Y330265D01*
X575430Y327712D01*
Y325068D01*
X576114Y322515D01*
X577436Y320225D01*
X579305Y318356D01*
X581595Y317034D01*
X584148Y316350D01*
X586792D01*
X589345Y317034D01*
X591635Y318356D01*
X593504Y320225D01*
X594826Y322515D01*
X595510Y325068D01*
Y327712D01*
X594826Y330265D01*
X593504Y332555D01*
X591635Y334424D01*
X589345Y335746D01*
X586792Y336430D01*
D02*
G37*
G36*
X561392D02*
X558748D01*
X556195Y335746D01*
X553905Y334424D01*
X552036Y332555D01*
X550714Y330265D01*
X550030Y327712D01*
Y325068D01*
X550714Y322515D01*
X552036Y320225D01*
X553905Y318356D01*
X556195Y317034D01*
X558748Y316350D01*
X561392D01*
X563945Y317034D01*
X566235Y318356D01*
X568104Y320225D01*
X569426Y322515D01*
X570110Y325068D01*
Y327712D01*
X569426Y330265D01*
X568104Y332555D01*
X566235Y334424D01*
X563945Y335746D01*
X561392Y336430D01*
D02*
G37*
G36*
X535992D02*
X533348D01*
X530795Y335746D01*
X528505Y334424D01*
X526636Y332555D01*
X525314Y330265D01*
X524630Y327712D01*
Y325068D01*
X525314Y322515D01*
X526636Y320225D01*
X528505Y318356D01*
X530795Y317034D01*
X533348Y316350D01*
X535992D01*
X538545Y317034D01*
X540835Y318356D01*
X542704Y320225D01*
X544026Y322515D01*
X544710Y325068D01*
Y327712D01*
X544026Y330265D01*
X542704Y332555D01*
X540835Y334424D01*
X538545Y335746D01*
X535992Y336430D01*
D02*
G37*
G36*
X510592D02*
X507948D01*
X505395Y335746D01*
X503105Y334424D01*
X501236Y332555D01*
X499914Y330265D01*
X499230Y327712D01*
Y325068D01*
X499914Y322515D01*
X501236Y320225D01*
X503105Y318356D01*
X505395Y317034D01*
X507948Y316350D01*
X510592D01*
X513145Y317034D01*
X515435Y318356D01*
X517304Y320225D01*
X518626Y322515D01*
X519310Y325068D01*
Y327712D01*
X518626Y330265D01*
X517304Y332555D01*
X515435Y334424D01*
X513145Y335746D01*
X510592Y336430D01*
D02*
G37*
G36*
X459792D02*
X457148D01*
X454595Y335746D01*
X452305Y334424D01*
X450436Y332555D01*
X449114Y330265D01*
X448430Y327712D01*
Y325068D01*
X449114Y322515D01*
X450436Y320225D01*
X452305Y318356D01*
X454595Y317034D01*
X457148Y316350D01*
X459792D01*
X462345Y317034D01*
X464635Y318356D01*
X466504Y320225D01*
X467826Y322515D01*
X468510Y325068D01*
Y327712D01*
X467826Y330265D01*
X466504Y332555D01*
X464635Y334424D01*
X462345Y335746D01*
X459792Y336430D01*
D02*
G37*
G36*
X434392D02*
X431748D01*
X429195Y335746D01*
X426905Y334424D01*
X425036Y332555D01*
X423714Y330265D01*
X423030Y327712D01*
Y325068D01*
X423714Y322515D01*
X425036Y320225D01*
X426905Y318356D01*
X429195Y317034D01*
X431748Y316350D01*
X434392D01*
X436945Y317034D01*
X439235Y318356D01*
X441104Y320225D01*
X442426Y322515D01*
X443110Y325068D01*
Y327712D01*
X442426Y330265D01*
X441104Y332555D01*
X439235Y334424D01*
X436945Y335746D01*
X434392Y336430D01*
D02*
G37*
G36*
X289460Y323850D02*
X287120D01*
X284859Y323244D01*
X282831Y322074D01*
X281176Y320419D01*
X280006Y318391D01*
X279400Y316130D01*
Y313790D01*
X280006Y311529D01*
X281176Y309501D01*
X282831Y307846D01*
X284859Y306676D01*
X287120Y306070D01*
X289460D01*
X291721Y306676D01*
X293749Y307846D01*
X295404Y309501D01*
X296574Y311529D01*
X297180Y313790D01*
Y316130D01*
X296574Y318391D01*
X295404Y320419D01*
X293749Y322074D01*
X291721Y323244D01*
X289460Y323850D01*
D02*
G37*
G36*
X786030Y316230D02*
X783690D01*
X781429Y315624D01*
X779401Y314454D01*
X777746Y312799D01*
X776576Y310771D01*
X775970Y308510D01*
Y306170D01*
X776576Y303909D01*
X777746Y301881D01*
X779401Y300226D01*
X781429Y299056D01*
X783690Y298450D01*
X786030D01*
X788291Y299056D01*
X790319Y300226D01*
X791974Y301881D01*
X793144Y303909D01*
X793750Y306170D01*
Y308510D01*
X793144Y310771D01*
X791974Y312799D01*
X790319Y314454D01*
X788291Y315624D01*
X786030Y316230D01*
D02*
G37*
G36*
X405030D02*
X402690D01*
X400429Y315624D01*
X398401Y314454D01*
X396746Y312799D01*
X395576Y310771D01*
X394970Y308510D01*
Y306170D01*
X395576Y303909D01*
X396746Y301881D01*
X398401Y300226D01*
X400429Y299056D01*
X402690Y298450D01*
X405030D01*
X407291Y299056D01*
X409319Y300226D01*
X410974Y301881D01*
X412144Y303909D01*
X412750Y306170D01*
Y308510D01*
X412144Y310771D01*
X410974Y312799D01*
X409319Y314454D01*
X407291Y315624D01*
X405030Y316230D01*
D02*
G37*
G36*
X850116Y312977D02*
X847775D01*
X845514Y312371D01*
X843487Y311201D01*
X841832Y309545D01*
X840661Y307518D01*
X840055Y305257D01*
Y302917D01*
X840661Y300655D01*
X841832Y298628D01*
X843487Y296973D01*
X845514Y295803D01*
X847775Y295197D01*
X850116D01*
X852377Y295803D01*
X854404Y296973D01*
X856059Y298628D01*
X857230Y300655D01*
X857835Y302917D01*
Y305257D01*
X857230Y307518D01*
X856059Y309545D01*
X854404Y311201D01*
X852377Y312371D01*
X850116Y312977D01*
D02*
G37*
G36*
X194210Y300990D02*
X191870D01*
X189609Y300384D01*
X187581Y299214D01*
X185926Y297559D01*
X184756Y295531D01*
X184150Y293270D01*
Y290930D01*
X184756Y288669D01*
X185926Y286641D01*
X187581Y284986D01*
X189609Y283816D01*
X191870Y283210D01*
X194210D01*
X196471Y283816D01*
X198499Y284986D01*
X200154Y286641D01*
X201324Y288669D01*
X201930Y290930D01*
Y293270D01*
X201324Y295531D01*
X200154Y297559D01*
X198499Y299214D01*
X196471Y300384D01*
X194210Y300990D01*
D02*
G37*
G36*
X311050Y294640D02*
X308710D01*
X306449Y294034D01*
X304421Y292864D01*
X302766Y291209D01*
X301596Y289181D01*
X300990Y286920D01*
Y284580D01*
X301596Y282319D01*
X302579Y280616D01*
X302301Y279564D01*
X302065Y279196D01*
X300564Y278794D01*
X298537Y277624D01*
X298423Y277510D01*
X296836Y277719D01*
X296154Y278901D01*
X294499Y280556D01*
X292472Y281726D01*
X290210Y282332D01*
X287870D01*
X285609Y281726D01*
X283582Y280556D01*
X281926Y278901D01*
X280756Y276874D01*
X280150Y274613D01*
Y272272D01*
X280756Y270011D01*
X281926Y267984D01*
X283582Y266329D01*
X285609Y265158D01*
X287870Y264552D01*
X290210D01*
X292472Y265158D01*
X294499Y266329D01*
X294612Y266442D01*
X296199Y266233D01*
X296882Y265051D01*
X298537Y263396D01*
X300564Y262226D01*
X302825Y261620D01*
X305166D01*
X307427Y262226D01*
X309454Y263396D01*
X311109Y265051D01*
X312279Y267079D01*
X312885Y269340D01*
Y271680D01*
X312279Y273941D01*
X311296Y275644D01*
X311575Y276696D01*
X311810Y277064D01*
X313311Y277466D01*
X315339Y278636D01*
X316994Y280291D01*
X318164Y282319D01*
X318770Y284580D01*
Y286920D01*
X318164Y289181D01*
X316994Y291209D01*
X315339Y292864D01*
X313311Y294034D01*
X311050Y294640D01*
D02*
G37*
G36*
X493910Y283822D02*
X473830D01*
Y263743D01*
X493910D01*
Y283822D01*
D02*
G37*
G36*
X459792D02*
X457148D01*
X454595Y283138D01*
X452305Y281817D01*
X450436Y279947D01*
X449114Y277658D01*
X448430Y275104D01*
Y272461D01*
X449114Y269907D01*
X450436Y267618D01*
X452305Y265749D01*
X454595Y264427D01*
X457148Y263743D01*
X459792D01*
X462345Y264427D01*
X464635Y265749D01*
X466504Y267618D01*
X467826Y269907D01*
X468510Y272461D01*
Y275104D01*
X467826Y277658D01*
X466504Y279947D01*
X464635Y281817D01*
X462345Y283138D01*
X459792Y283822D01*
D02*
G37*
G36*
X434392D02*
X431748D01*
X429195Y283138D01*
X426905Y281817D01*
X425036Y279947D01*
X423714Y277658D01*
X423030Y275104D01*
Y272461D01*
X423714Y269907D01*
X425036Y267618D01*
X426905Y265749D01*
X429195Y264427D01*
X431748Y263743D01*
X434392D01*
X436945Y264427D01*
X439235Y265749D01*
X441104Y267618D01*
X442426Y269907D01*
X443110Y272461D01*
Y275104D01*
X442426Y277658D01*
X441104Y279947D01*
X439235Y281817D01*
X436945Y283138D01*
X434392Y283822D01*
D02*
G37*
G36*
X560122Y283090D02*
X557478D01*
X554925Y282406D01*
X552635Y281084D01*
X550766Y279215D01*
X549444Y276925D01*
X548760Y274372D01*
Y271728D01*
X549444Y269175D01*
X550110Y268022D01*
X536772Y254685D01*
X460375D01*
X459384Y254488D01*
X458544Y253926D01*
X405839Y201221D01*
X405277Y200381D01*
X405080Y199390D01*
Y191310D01*
X403795Y190966D01*
X401505Y189644D01*
X399636Y187775D01*
X398314Y185485D01*
X397630Y182932D01*
Y180288D01*
X398314Y177735D01*
X399636Y175445D01*
X401505Y173576D01*
X403795Y172254D01*
X406348Y171570D01*
X408992D01*
X411545Y172254D01*
X413835Y173576D01*
X415704Y175445D01*
X417026Y177735D01*
X417710Y180288D01*
Y182932D01*
X417026Y185485D01*
X415704Y187775D01*
X413835Y189644D01*
X411545Y190966D01*
X410260Y191310D01*
Y198317D01*
X419207Y207264D01*
X420471Y206733D01*
X420976Y204849D01*
X422146Y202821D01*
X423801Y201166D01*
X425829Y199996D01*
X428090Y199390D01*
X430430D01*
X432691Y199996D01*
X434719Y201166D01*
X436374Y202821D01*
X437544Y204849D01*
X438150Y207110D01*
Y209450D01*
X437544Y211711D01*
X436374Y213739D01*
X434719Y215394D01*
X432691Y216564D01*
X430807Y217069D01*
X430275Y218333D01*
X461448Y249505D01*
X537845D01*
X538836Y249702D01*
X539676Y250264D01*
X553772Y264360D01*
X554925Y263694D01*
X557478Y263010D01*
X560122D01*
X562675Y263694D01*
X564965Y265016D01*
X566834Y266885D01*
X568156Y269175D01*
X568840Y271728D01*
Y274372D01*
X568156Y276925D01*
X566834Y279215D01*
X564965Y281084D01*
X562675Y282406D01*
X560122Y283090D01*
D02*
G37*
G36*
X485192Y336430D02*
X482548D01*
X479995Y335746D01*
X477705Y334424D01*
X475836Y332555D01*
X474514Y330265D01*
X473830Y327712D01*
Y325068D01*
X474514Y322515D01*
X475836Y320225D01*
X477705Y318356D01*
X479995Y317034D01*
X482548Y316350D01*
X485192D01*
X487677Y317016D01*
X525422Y279271D01*
X525366Y279215D01*
X524044Y276925D01*
X523360Y274372D01*
Y271728D01*
X524044Y269175D01*
X525366Y266885D01*
X527235Y265016D01*
X529525Y263694D01*
X532078Y263010D01*
X534722D01*
X537275Y263694D01*
X539565Y265016D01*
X541434Y266885D01*
X542756Y269175D01*
X543440Y271728D01*
Y274372D01*
X542756Y276925D01*
X542090Y278078D01*
X548443Y284430D01*
X612337D01*
X619960Y276808D01*
X619294Y275655D01*
X618610Y273102D01*
Y270458D01*
X619294Y267905D01*
X620616Y265615D01*
X622485Y263746D01*
X623882Y262940D01*
X623541Y261670D01*
X599243D01*
X594240Y266672D01*
Y283090D01*
X574160D01*
Y263010D01*
X590578D01*
X596339Y257249D01*
X597179Y256687D01*
X598170Y256490D01*
X664210D01*
X665201Y256687D01*
X666041Y257249D01*
X670533Y261740D01*
X689490D01*
Y281820D01*
X669410D01*
Y267756D01*
X668849Y267381D01*
X663137Y261670D01*
X659158D01*
X658818Y262940D01*
X660215Y263746D01*
X662084Y265615D01*
X663406Y267905D01*
X664090Y270458D01*
Y273102D01*
X663406Y275655D01*
X662084Y277945D01*
X660215Y279814D01*
X657925Y281136D01*
X655372Y281820D01*
X652728D01*
X650175Y281136D01*
X647885Y279814D01*
X646016Y277945D01*
X644694Y275655D01*
X644010Y273102D01*
Y270458D01*
X644694Y267905D01*
X646016Y265615D01*
X647885Y263746D01*
X649282Y262940D01*
X648941Y261670D01*
X633759D01*
X633418Y262940D01*
X634815Y263746D01*
X636684Y265615D01*
X638006Y267905D01*
X638690Y270458D01*
Y273102D01*
X638006Y275655D01*
X636684Y277945D01*
X634815Y279814D01*
X632525Y281136D01*
X629972Y281820D01*
X627328D01*
X624775Y281136D01*
X623622Y280470D01*
X615241Y288851D01*
X614401Y289413D01*
X613410Y289610D01*
X547370D01*
X546379Y289413D01*
X545539Y288851D01*
X538428Y281740D01*
X537275Y282406D01*
X534722Y283090D01*
X532078D01*
X529593Y282424D01*
X491848Y320169D01*
X491904Y320225D01*
X493226Y322515D01*
X493910Y325068D01*
Y327712D01*
X493226Y330265D01*
X491904Y332555D01*
X490035Y334424D01*
X487745Y335746D01*
X485192Y336430D01*
D02*
G37*
G36*
X394870Y279400D02*
X392530D01*
X390269Y278794D01*
X388241Y277624D01*
X386586Y275969D01*
X385416Y273941D01*
X384810Y271680D01*
Y269340D01*
X385416Y267079D01*
X386586Y265051D01*
X388241Y263396D01*
X390269Y262226D01*
X392530Y261620D01*
X394870D01*
X397131Y262226D01*
X399159Y263396D01*
X400814Y265051D01*
X401984Y267079D01*
X402590Y269340D01*
Y271680D01*
X401984Y273941D01*
X400814Y275969D01*
X399159Y277624D01*
X397131Y278794D01*
X394870Y279400D01*
D02*
G37*
G36*
X918090Y267850D02*
X898010D01*
Y247770D01*
X918090D01*
Y267850D01*
D02*
G37*
G36*
X883972D02*
X881328D01*
X878775Y267166D01*
X876485Y265844D01*
X874616Y263975D01*
X873294Y261685D01*
X872610Y259132D01*
Y256488D01*
X873294Y253935D01*
X874616Y251645D01*
X876485Y249776D01*
X878775Y248454D01*
X881328Y247770D01*
X883972D01*
X886525Y248454D01*
X888815Y249776D01*
X890684Y251645D01*
X892006Y253935D01*
X892690Y256488D01*
Y259132D01*
X892006Y261685D01*
X890684Y263975D01*
X888815Y265844D01*
X886525Y267166D01*
X883972Y267850D01*
D02*
G37*
G36*
X858572D02*
X855928D01*
X853375Y267166D01*
X851085Y265844D01*
X849216Y263975D01*
X847894Y261685D01*
X847210Y259132D01*
Y256488D01*
X847894Y253935D01*
X849216Y251645D01*
X851085Y249776D01*
X853375Y248454D01*
X855928Y247770D01*
X858572D01*
X861125Y248454D01*
X863415Y249776D01*
X865284Y251645D01*
X866606Y253935D01*
X867290Y256488D01*
Y259132D01*
X866606Y261685D01*
X865284Y263975D01*
X863415Y265844D01*
X861125Y267166D01*
X858572Y267850D01*
D02*
G37*
G36*
X245010Y261620D02*
X242670D01*
X240409Y261014D01*
X238381Y259844D01*
X236726Y258189D01*
X235556Y256161D01*
X234950Y253900D01*
Y251560D01*
X235556Y249299D01*
X236726Y247271D01*
X238381Y245616D01*
X240409Y244446D01*
X242670Y243840D01*
X245010D01*
X247271Y244446D01*
X249299Y245616D01*
X250954Y247271D01*
X252124Y249299D01*
X252730Y251560D01*
Y253900D01*
X252124Y256161D01*
X250954Y258189D01*
X249299Y259844D01*
X247271Y261014D01*
X245010Y261620D01*
D02*
G37*
G36*
X636834Y236599D02*
X634494D01*
X632233Y235993D01*
X630206Y234822D01*
X628550Y233167D01*
X627380Y231140D01*
X626774Y228879D01*
Y226538D01*
X627380Y224277D01*
X628550Y222250D01*
X630206Y220595D01*
X632233Y219424D01*
X634494Y218819D01*
X636834D01*
X639096Y219424D01*
X641123Y220595D01*
X642778Y222250D01*
X643948Y224277D01*
X644554Y226538D01*
Y228879D01*
X643948Y231140D01*
X642778Y233167D01*
X641123Y234822D01*
X639096Y235993D01*
X636834Y236599D01*
D02*
G37*
G36*
X594260Y233680D02*
X591920D01*
X589659Y233074D01*
X587631Y231904D01*
X585976Y230249D01*
X584806Y228221D01*
X584200Y225960D01*
Y223620D01*
X584806Y221359D01*
X585976Y219331D01*
X587631Y217676D01*
X589659Y216506D01*
X591920Y215900D01*
X594260D01*
X596521Y216506D01*
X598549Y217676D01*
X600204Y219331D01*
X601374Y221359D01*
X601980Y223620D01*
Y225960D01*
X601374Y228221D01*
X600204Y230249D01*
X598549Y231904D01*
X596521Y233074D01*
X594260Y233680D01*
D02*
G37*
G36*
X518060Y232410D02*
X515720D01*
X513459Y231804D01*
X511431Y230634D01*
X509776Y228979D01*
X508606Y226951D01*
X508000Y224690D01*
Y222350D01*
X508606Y220089D01*
X509776Y218061D01*
X511431Y216406D01*
X513459Y215236D01*
X515720Y214630D01*
X518060D01*
X520321Y215236D01*
X522349Y216406D01*
X524004Y218061D01*
X525174Y220089D01*
X525780Y222350D01*
Y224690D01*
X525174Y226951D01*
X524004Y228979D01*
X522349Y230634D01*
X520321Y231804D01*
X518060Y232410D01*
D02*
G37*
G36*
X723780Y227210D02*
X703700D01*
Y207130D01*
X723780D01*
Y227210D01*
D02*
G37*
G36*
X224690Y224790D02*
X222350D01*
X220089Y224184D01*
X218061Y223014D01*
X216406Y221359D01*
X215236Y219331D01*
X214630Y217070D01*
Y214730D01*
X215236Y212469D01*
X216406Y210441D01*
X218061Y208786D01*
X220089Y207616D01*
X222350Y207010D01*
X224690D01*
X226951Y207616D01*
X228979Y208786D01*
X230634Y210441D01*
X231804Y212469D01*
X232410Y214730D01*
Y217070D01*
X231804Y219331D01*
X230634Y221359D01*
X228979Y223014D01*
X226951Y224184D01*
X224690Y224790D01*
D02*
G37*
G36*
X880970Y216350D02*
X878590D01*
X876291Y215734D01*
X874229Y214544D01*
X872546Y212861D01*
X871356Y210800D01*
X870740Y208500D01*
Y206120D01*
X871356Y203821D01*
X872546Y201759D01*
X874229Y200076D01*
X876291Y198886D01*
X878590Y198270D01*
X880970D01*
X883269Y198886D01*
X885331Y200076D01*
X887014Y201759D01*
X888204Y203821D01*
X888820Y206120D01*
Y208500D01*
X888204Y210800D01*
X887014Y212861D01*
X885331Y214544D01*
X883269Y215734D01*
X880970Y216350D01*
D02*
G37*
G36*
X860970D02*
X858590D01*
X856291Y215734D01*
X854229Y214544D01*
X852546Y212861D01*
X851356Y210800D01*
X850740Y208500D01*
Y206120D01*
X851356Y203821D01*
X852546Y201759D01*
X854229Y200076D01*
X856291Y198886D01*
X858590Y198270D01*
X860970D01*
X863269Y198886D01*
X865331Y200076D01*
X867014Y201759D01*
X868204Y203821D01*
X868820Y206120D01*
Y208500D01*
X868204Y210800D01*
X867014Y212861D01*
X865331Y214544D01*
X863269Y215734D01*
X860970Y216350D01*
D02*
G37*
G36*
X840970D02*
X838590D01*
X836291Y215734D01*
X834229Y214544D01*
X832546Y212861D01*
X831356Y210800D01*
X830740Y208500D01*
Y206120D01*
X831356Y203821D01*
X832546Y201759D01*
X834229Y200076D01*
X836291Y198886D01*
X838590Y198270D01*
X840970D01*
X843269Y198886D01*
X845331Y200076D01*
X847014Y201759D01*
X848204Y203821D01*
X848820Y206120D01*
Y208500D01*
X848204Y210800D01*
X847014Y212861D01*
X845331Y214544D01*
X843269Y215734D01*
X840970Y216350D01*
D02*
G37*
G36*
X780970D02*
X778590D01*
X776291Y215734D01*
X774229Y214544D01*
X772546Y212861D01*
X771356Y210800D01*
X770740Y208500D01*
Y206120D01*
X771356Y203821D01*
X772546Y201759D01*
X774229Y200076D01*
X776291Y198886D01*
X778590Y198270D01*
X780970D01*
X783269Y198886D01*
X785331Y200076D01*
X787014Y201759D01*
X788204Y203821D01*
X788820Y206120D01*
Y208500D01*
X788204Y210800D01*
X787014Y212861D01*
X785331Y214544D01*
X783269Y215734D01*
X780970Y216350D01*
D02*
G37*
G36*
X309145Y210185D02*
X306805D01*
X304544Y209579D01*
X302516Y208409D01*
X300861Y206754D01*
X299691Y204726D01*
X299085Y202465D01*
Y200125D01*
X299691Y197864D01*
X300861Y195836D01*
X302516Y194181D01*
X304544Y193011D01*
X306805Y192405D01*
X309145D01*
X311406Y193011D01*
X313434Y194181D01*
X315089Y195836D01*
X316259Y197864D01*
X316865Y200125D01*
Y202465D01*
X316259Y204726D01*
X315089Y206754D01*
X313434Y208409D01*
X311406Y209579D01*
X309145Y210185D01*
D02*
G37*
G36*
X715062Y201810D02*
X712418D01*
X709865Y201126D01*
X707575Y199804D01*
X705706Y197935D01*
X704384Y195645D01*
X703700Y193092D01*
Y190448D01*
X704384Y187895D01*
X705706Y185605D01*
X707575Y183736D01*
X709865Y182414D01*
X712418Y181730D01*
X715062D01*
X717615Y182414D01*
X719905Y183736D01*
X721774Y185605D01*
X723096Y187895D01*
X723780Y190448D01*
Y193092D01*
X723096Y195645D01*
X721774Y197935D01*
X719905Y199804D01*
X717615Y201126D01*
X715062Y201810D01*
D02*
G37*
G36*
X213837Y197529D02*
X211496D01*
X209235Y196923D01*
X207208Y195752D01*
X205553Y194097D01*
X204382Y192070D01*
X203777Y189809D01*
Y187468D01*
X204382Y185207D01*
X205553Y183180D01*
X207208Y181525D01*
X209235Y180354D01*
X211496Y179749D01*
X213837D01*
X216098Y180354D01*
X218125Y181525D01*
X219780Y183180D01*
X220951Y185207D01*
X221557Y187468D01*
Y189809D01*
X220951Y192070D01*
X219780Y194097D01*
X218125Y195752D01*
X216098Y196923D01*
X213837Y197529D01*
D02*
G37*
G36*
X443110Y191650D02*
X423030D01*
Y171570D01*
X443110D01*
Y191650D01*
D02*
G37*
G36*
X234850Y171450D02*
X232510D01*
X230249Y170844D01*
X228221Y169674D01*
X226566Y168019D01*
X225396Y165991D01*
X224790Y163730D01*
Y161390D01*
X225396Y159129D01*
X226566Y157101D01*
X228221Y155446D01*
X230249Y154276D01*
X232510Y153670D01*
X234850D01*
X237111Y154276D01*
X239139Y155446D01*
X240794Y157101D01*
X241964Y159129D01*
X242570Y161390D01*
Y163730D01*
X241964Y165991D01*
X240794Y168019D01*
X239139Y169674D01*
X237111Y170844D01*
X234850Y171450D01*
D02*
G37*
G36*
X896520Y146050D02*
X894180D01*
X891919Y145444D01*
X889891Y144274D01*
X888236Y142619D01*
X887066Y140591D01*
X886460Y138330D01*
Y135990D01*
X887066Y133729D01*
X888236Y131701D01*
X889891Y130046D01*
X891919Y128876D01*
X894180Y128270D01*
X896520D01*
X898781Y128876D01*
X900809Y130046D01*
X902464Y131701D01*
X903634Y133729D01*
X904240Y135990D01*
Y138330D01*
X903634Y140591D01*
X902464Y142619D01*
X900809Y144274D01*
X898781Y145444D01*
X896520Y146050D01*
D02*
G37*
G36*
X850800Y139700D02*
X848460D01*
X846199Y139094D01*
X844171Y137924D01*
X842516Y136269D01*
X841346Y134241D01*
X840740Y131980D01*
Y129640D01*
X841346Y127379D01*
X842516Y125351D01*
X844171Y123696D01*
X846199Y122526D01*
X848460Y121920D01*
X850800D01*
X853061Y122526D01*
X855089Y123696D01*
X856744Y125351D01*
X857914Y127379D01*
X858520Y129640D01*
Y131980D01*
X857914Y134241D01*
X856744Y136269D01*
X855089Y137924D01*
X853061Y139094D01*
X850800Y139700D01*
D02*
G37*
G36*
X558700Y128270D02*
X556360D01*
X554099Y127664D01*
X552071Y126494D01*
X550416Y124839D01*
X549246Y122811D01*
X548640Y120550D01*
Y118210D01*
X549246Y115949D01*
X550416Y113921D01*
X552071Y112266D01*
X554099Y111096D01*
X556360Y110490D01*
X558700D01*
X560961Y111096D01*
X562989Y112266D01*
X564644Y113921D01*
X565814Y115949D01*
X566420Y118210D01*
Y120550D01*
X565814Y122811D01*
X564644Y124839D01*
X562989Y126494D01*
X560961Y127664D01*
X558700Y128270D01*
D02*
G37*
G36*
X910490Y124460D02*
X908150D01*
X905889Y123854D01*
X903861Y122684D01*
X902206Y121029D01*
X901036Y119001D01*
X900430Y116740D01*
Y114400D01*
X901036Y112139D01*
X902206Y110111D01*
X903861Y108456D01*
X905889Y107286D01*
X908150Y106680D01*
X910490D01*
X912751Y107286D01*
X914779Y108456D01*
X916434Y110111D01*
X917604Y112139D01*
X918210Y114400D01*
Y116740D01*
X917604Y119001D01*
X916434Y121029D01*
X914779Y122684D01*
X912751Y123854D01*
X910490Y124460D01*
D02*
G37*
G36*
X293270Y123190D02*
X290930D01*
X288669Y122584D01*
X286641Y121414D01*
X284986Y119759D01*
X283816Y117731D01*
X283210Y115470D01*
Y113130D01*
X283816Y110869D01*
X284986Y108841D01*
X286641Y107186D01*
X288669Y106016D01*
X290930Y105410D01*
X293270D01*
X295531Y106016D01*
X297559Y107186D01*
X299214Y108841D01*
X300384Y110869D01*
X300990Y113130D01*
Y115470D01*
X300384Y117731D01*
X299214Y119759D01*
X297559Y121414D01*
X295531Y122584D01*
X293270Y123190D01*
D02*
G37*
G36*
X274220Y111106D02*
X271880D01*
X269619Y110500D01*
X267591Y109330D01*
X265936Y107675D01*
X264766Y105648D01*
X264160Y103387D01*
Y101046D01*
X264766Y98785D01*
X265936Y96758D01*
X267591Y95102D01*
X269619Y93932D01*
X271880Y93326D01*
X274220D01*
X276481Y93932D01*
X278509Y95102D01*
X280164Y96758D01*
X281334Y98785D01*
X281940Y101046D01*
Y103387D01*
X281334Y105648D01*
X280164Y107675D01*
X278509Y109330D01*
X276481Y110500D01*
X274220Y111106D01*
D02*
G37*
G36*
X435711Y103125D02*
X432969D01*
X430320Y102415D01*
X427945Y101044D01*
X426006Y99105D01*
X424635Y96730D01*
X423925Y94081D01*
Y91339D01*
X424635Y88690D01*
X426006Y86315D01*
X427945Y84376D01*
X430320Y83005D01*
X432969Y82295D01*
X435711D01*
X438360Y83005D01*
X440735Y84376D01*
X442674Y86315D01*
X444045Y88690D01*
X444755Y91339D01*
Y94081D01*
X444045Y96730D01*
X442674Y99105D01*
X440735Y101044D01*
X438360Y102415D01*
X435711Y103125D01*
D02*
G37*
G36*
X684547Y108520D02*
X680718D01*
X677020Y107529D01*
X673705Y105615D01*
X670998Y102908D01*
X669083Y99592D01*
X668093Y95894D01*
Y92066D01*
X669083Y88368D01*
X670998Y85052D01*
X673705Y82345D01*
X677020Y80431D01*
X680718Y79440D01*
X684547D01*
X688245Y80431D01*
X691560Y82345D01*
X694268Y85052D01*
X696182Y88368D01*
X697173Y92066D01*
Y95894D01*
X696182Y99592D01*
X694268Y102908D01*
X691560Y105615D01*
X688245Y107529D01*
X684547Y108520D01*
D02*
G37*
G36*
X590602Y95130D02*
X587958D01*
X585405Y94446D01*
X583115Y93124D01*
X581246Y91255D01*
X579924Y88965D01*
X579240Y86412D01*
Y83768D01*
X579924Y81215D01*
X581246Y78925D01*
X583115Y77056D01*
X585405Y75734D01*
X587958Y75050D01*
X590602D01*
X593155Y75734D01*
X595445Y77056D01*
X597314Y78925D01*
X598636Y81215D01*
X599320Y83768D01*
Y86412D01*
X598636Y88965D01*
X597314Y91255D01*
X595445Y93124D01*
X593155Y94446D01*
X590602Y95130D01*
D02*
G37*
G36*
X565202D02*
X562558D01*
X560005Y94446D01*
X557715Y93124D01*
X555846Y91255D01*
X554524Y88965D01*
X553840Y86412D01*
Y83768D01*
X554524Y81215D01*
X555846Y78925D01*
X557715Y77056D01*
X560005Y75734D01*
X562558Y75050D01*
X565202D01*
X567755Y75734D01*
X570045Y77056D01*
X571914Y78925D01*
X573236Y81215D01*
X573920Y83768D01*
Y86412D01*
X573236Y88965D01*
X571914Y91255D01*
X570045Y93124D01*
X567755Y94446D01*
X565202Y95130D01*
D02*
G37*
G36*
X548520D02*
X528440D01*
Y75050D01*
X548520D01*
Y95130D01*
D02*
G37*
G36*
X632360Y76200D02*
X630020D01*
X627759Y75594D01*
X625731Y74424D01*
X624076Y72769D01*
X622906Y70741D01*
X622300Y68480D01*
Y66140D01*
X622906Y63879D01*
X624076Y61851D01*
X625731Y60196D01*
X627759Y59026D01*
X630020Y58420D01*
X632360D01*
X634621Y59026D01*
X636649Y60196D01*
X638304Y61851D01*
X639474Y63879D01*
X640080Y66140D01*
Y68480D01*
X639474Y70741D01*
X638304Y72769D01*
X636649Y74424D01*
X634621Y75594D01*
X632360Y76200D01*
D02*
G37*
G36*
X900970Y76350D02*
X898590D01*
X896291Y75734D01*
X894229Y74544D01*
X892546Y72861D01*
X891356Y70799D01*
X890740Y68500D01*
Y66120D01*
X891356Y63821D01*
X892546Y61759D01*
X894229Y60076D01*
X896291Y58886D01*
X898590Y58270D01*
X900970D01*
X903269Y58886D01*
X905330Y60076D01*
X907014Y61759D01*
X908204Y63821D01*
X908820Y66120D01*
Y68500D01*
X908204Y70799D01*
X907014Y72861D01*
X905330Y74544D01*
X903269Y75734D01*
X900970Y76350D01*
D02*
G37*
G36*
X880970D02*
X878590D01*
X876291Y75734D01*
X874229Y74544D01*
X872546Y72861D01*
X871356Y70799D01*
X870740Y68500D01*
Y66120D01*
X871356Y63821D01*
X872546Y61759D01*
X874229Y60076D01*
X876291Y58886D01*
X878590Y58270D01*
X880970D01*
X883269Y58886D01*
X885331Y60076D01*
X887014Y61759D01*
X888204Y63821D01*
X888820Y66120D01*
Y68500D01*
X888204Y70799D01*
X887014Y72861D01*
X885331Y74544D01*
X883269Y75734D01*
X880970Y76350D01*
D02*
G37*
G36*
X860970D02*
X858590D01*
X856291Y75734D01*
X854229Y74544D01*
X852546Y72861D01*
X851356Y70799D01*
X850740Y68500D01*
Y66120D01*
X851356Y63821D01*
X852546Y61759D01*
X854229Y60076D01*
X856291Y58886D01*
X858590Y58270D01*
X860970D01*
X863269Y58886D01*
X865331Y60076D01*
X867014Y61759D01*
X868204Y63821D01*
X868820Y66120D01*
Y68500D01*
X868204Y70799D01*
X867014Y72861D01*
X865331Y74544D01*
X863269Y75734D01*
X860970Y76350D01*
D02*
G37*
G36*
X840970D02*
X838590D01*
X836291Y75734D01*
X834229Y74544D01*
X832546Y72861D01*
X831356Y70799D01*
X830740Y68500D01*
Y66120D01*
X831356Y63821D01*
X832546Y61759D01*
X834229Y60076D01*
X836291Y58886D01*
X838590Y58270D01*
X840970D01*
X843269Y58886D01*
X845331Y60076D01*
X847014Y61759D01*
X848204Y63821D01*
X848820Y66120D01*
Y68500D01*
X848204Y70799D01*
X847014Y72861D01*
X845331Y74544D01*
X843269Y75734D01*
X840970Y76350D01*
D02*
G37*
G36*
X820970D02*
X818590D01*
X816291Y75734D01*
X814229Y74544D01*
X812546Y72861D01*
X811356Y70799D01*
X810740Y68500D01*
Y66120D01*
X811356Y63821D01*
X812546Y61759D01*
X814229Y60076D01*
X816291Y58886D01*
X818590Y58270D01*
X820970D01*
X823269Y58886D01*
X825331Y60076D01*
X827014Y61759D01*
X828204Y63821D01*
X828820Y66120D01*
Y68500D01*
X828204Y70799D01*
X827014Y72861D01*
X825331Y74544D01*
X823269Y75734D01*
X820970Y76350D01*
D02*
G37*
G36*
X800970D02*
X798590D01*
X796291Y75734D01*
X794229Y74544D01*
X792546Y72861D01*
X791356Y70799D01*
X790740Y68500D01*
Y66120D01*
X791356Y63821D01*
X792546Y61759D01*
X794229Y60076D01*
X796291Y58886D01*
X798590Y58270D01*
X800970D01*
X803269Y58886D01*
X805331Y60076D01*
X807014Y61759D01*
X808204Y63821D01*
X808820Y66120D01*
Y68500D01*
X808204Y70799D01*
X807014Y72861D01*
X805331Y74544D01*
X803269Y75734D01*
X800970Y76350D01*
D02*
G37*
G36*
X760970D02*
X758590D01*
X756291Y75734D01*
X754229Y74544D01*
X752546Y72861D01*
X751356Y70799D01*
X750740Y68500D01*
Y66120D01*
X751356Y63821D01*
X752546Y61759D01*
X754229Y60076D01*
X756291Y58886D01*
X758590Y58270D01*
X760970D01*
X763269Y58886D01*
X765331Y60076D01*
X767014Y61759D01*
X768204Y63821D01*
X768820Y66120D01*
Y68500D01*
X768204Y70799D01*
X767014Y72861D01*
X765331Y74544D01*
X763269Y75734D01*
X760970Y76350D01*
D02*
G37*
G36*
X27177Y45980D02*
X23623D01*
X20138Y45287D01*
X16855Y43927D01*
X13900Y41953D01*
X11387Y39440D01*
X9413Y36485D01*
X8053Y33202D01*
X7360Y29717D01*
Y26163D01*
X8053Y22678D01*
X9413Y19395D01*
X11387Y16440D01*
X13900Y13927D01*
X16855Y11953D01*
X20138Y10593D01*
X23623Y9900D01*
X27177D01*
X30662Y10593D01*
X33945Y11953D01*
X36900Y13927D01*
X39413Y16440D01*
X41387Y19395D01*
X42747Y22678D01*
X43440Y26163D01*
Y29717D01*
X42747Y33202D01*
X41387Y36485D01*
X39413Y39440D01*
X36900Y41953D01*
X33945Y43927D01*
X30662Y45287D01*
X27177Y45980D01*
D02*
G37*
G36*
X1069847Y44710D02*
X1066293D01*
X1062808Y44017D01*
X1059525Y42657D01*
X1056570Y40683D01*
X1054057Y38170D01*
X1052083Y35215D01*
X1050723Y31932D01*
X1050030Y28447D01*
Y24893D01*
X1050723Y21408D01*
X1052083Y18125D01*
X1054057Y15170D01*
X1056570Y12657D01*
X1059525Y10683D01*
X1062808Y9323D01*
X1066293Y8630D01*
X1069847D01*
X1073332Y9323D01*
X1076615Y10683D01*
X1079570Y12657D01*
X1082083Y15170D01*
X1084057Y18125D01*
X1085417Y21408D01*
X1086110Y24893D01*
Y28447D01*
X1085417Y31932D01*
X1084057Y35215D01*
X1082083Y38170D01*
X1079570Y40683D01*
X1076615Y42657D01*
X1073332Y44017D01*
X1069847Y44710D01*
D02*
G37*
%LPD*%
D14*
X717550Y387350D02*
X763270Y433070D01*
Y449480D01*
X586740Y526120D02*
X646430Y466430D01*
X646430Y409540D02*
X655320Y400650D01*
X646430Y409540D02*
Y466430D01*
X182752Y795020D02*
X332612Y645160D01*
X355600D01*
X268040Y789870D02*
Y808920D01*
Y789870D02*
X318770Y739140D01*
X252730Y824230D02*
X268040Y808920D01*
X252730Y824230D02*
Y843280D01*
X594360Y637317D02*
X662738Y705695D01*
X716071Y608330D02*
X718611Y610870D01*
X721360D01*
X617220Y608330D02*
X716071D01*
X876300Y497873D02*
Y612140D01*
X887730Y623570D01*
X810740Y432313D02*
X876300Y497873D01*
X606490Y540481D02*
X850876D01*
X857957Y533400D02*
X859790D01*
X850876Y540481D02*
X857957Y533400D01*
X416680Y544912D02*
X417830Y543762D01*
Y446174D02*
Y543762D01*
X365824Y689801D02*
X416680Y638945D01*
Y544912D02*
Y638945D01*
X417830Y446174D02*
X494631Y369373D01*
X458470Y805180D02*
X473710Y789940D01*
Y593218D02*
Y789940D01*
X471170Y590678D02*
X473710Y593218D01*
X471170Y497840D02*
Y590678D01*
Y497840D02*
X480060Y488950D01*
X365824Y689801D02*
Y696434D01*
X342900Y719358D02*
X365824Y696434D01*
X165666Y795020D02*
X182752D01*
X436694Y484116D02*
X437904D01*
X456737Y465283D01*
X384810Y341630D02*
X394970Y331470D01*
X321310Y546100D02*
X323254Y544156D01*
Y540128D02*
Y544156D01*
Y540128D02*
X323850Y539532D01*
Y229870D02*
Y539532D01*
Y229870D02*
X408989Y144731D01*
X269240Y270510D02*
X297180Y242570D01*
X307340D01*
X384810Y341630D02*
Y397510D01*
X460375Y252095D02*
X537845D01*
X407670Y181610D02*
Y199390D01*
X460375Y252095D01*
X408989Y144731D02*
X461059D01*
X370840Y411480D02*
X384810Y397510D01*
X456737Y427310D02*
Y465283D01*
X594360Y581660D02*
X601980Y574040D01*
X594360Y581660D02*
Y637317D01*
X494631Y369373D02*
X504476D01*
X489709Y438661D02*
X541020Y387350D01*
X478333Y438661D02*
X489709D01*
X504476Y369373D02*
X504790Y369058D01*
X586740Y526120D02*
Y642411D01*
X600710Y656381D01*
X489251Y397170D02*
X519391Y367030D01*
X456737Y427310D02*
X486878Y397170D01*
X489251D01*
X653592Y367030D02*
X799780Y220842D01*
X519391Y367030D02*
X653592D01*
X541020Y387350D02*
X717550D01*
X269240Y270510D02*
Y399037D01*
X364490Y233680D02*
Y367030D01*
X373380Y375920D01*
X655320Y400240D02*
Y400650D01*
X354330Y223520D02*
X364490Y233680D01*
X417830Y430530D02*
X491490Y356870D01*
X387350Y430530D02*
X417830D01*
X491490Y356870D02*
X567690D01*
X568960Y358140D01*
X810740Y205486D02*
Y432313D01*
X687070Y525780D02*
X708006Y504844D01*
Y495135D02*
Y504844D01*
Y495135D02*
X708457Y494684D01*
X248920Y322580D02*
X260350Y311150D01*
Y118110D02*
Y311150D01*
X771624Y166370D02*
X810740Y205486D01*
X799780Y207310D02*
Y220842D01*
X673220Y265550D02*
X679450Y271780D01*
X670680Y265550D02*
X673220D01*
X664210Y259080D02*
X670680Y265550D01*
X584200Y273050D02*
X598170Y259080D01*
X664210D01*
X533400Y273050D02*
X547370Y287020D01*
X613410D02*
X628650Y271780D01*
X547370Y287020D02*
X613410D01*
X483870Y324485D02*
Y326390D01*
Y324485D02*
X533400Y274955D01*
Y273050D02*
Y274955D01*
X537845Y252095D02*
X558800Y273050D01*
X251893Y416384D02*
X269240Y399037D01*
X251893Y416384D02*
Y633785D01*
X254000Y635893D02*
Y638642D01*
X251893Y633785D02*
X254000Y635893D01*
X713740Y166370D02*
X771624D01*
D19*
X25400Y27940D02*
D03*
X1068070Y26670D02*
D03*
X1069340Y844550D02*
D03*
X26670Y845820D02*
D03*
X406306Y464820D02*
D03*
D57*
X500380Y843280D02*
D03*
Y817880D02*
D03*
Y792480D02*
D03*
X798210Y719358D02*
D03*
X764540Y751840D02*
D03*
X739140D02*
D03*
X713740D02*
D03*
X688340D02*
D03*
X654050Y271780D02*
D03*
X628650D02*
D03*
X433070Y273783D02*
D03*
X458470D02*
D03*
X280670Y805180D02*
D03*
X458470D02*
D03*
X433070D02*
D03*
X407670D02*
D03*
X382270D02*
D03*
X356870D02*
D03*
X331470D02*
D03*
X306070D02*
D03*
X255270D02*
D03*
X831850Y257810D02*
D03*
X857250D02*
D03*
X882650D02*
D03*
X636270Y326390D02*
D03*
X585470D02*
D03*
X560070D02*
D03*
X534670D02*
D03*
X509270D02*
D03*
X483870D02*
D03*
X458470D02*
D03*
X433070D02*
D03*
X610870D02*
D03*
X407670Y181610D02*
D03*
X533400Y273050D02*
D03*
X558800D02*
D03*
X165666Y795020D02*
D03*
Y769620D02*
D03*
Y744220D02*
D03*
X877570Y670560D02*
D03*
X910590Y472440D02*
D03*
X859790Y558800D02*
D03*
Y533400D02*
D03*
X713740Y191770D02*
D03*
Y166370D02*
D03*
X887730Y623570D02*
D03*
X862330D02*
D03*
X933450Y556260D02*
D03*
Y530860D02*
D03*
X563880Y85090D02*
D03*
X589280D02*
D03*
X895350Y557530D02*
D03*
Y532130D02*
D03*
X278130Y843280D02*
D03*
X430530D02*
D03*
X405130D02*
D03*
X379730D02*
D03*
X354330D02*
D03*
X328930D02*
D03*
X303530D02*
D03*
X252730D02*
D03*
X455930D02*
D03*
D58*
X500380Y767080D02*
D03*
X798210Y693958D02*
D03*
X165666Y718820D02*
D03*
X877570Y695960D02*
D03*
X910590Y447040D02*
D03*
X859790Y584200D02*
D03*
X713740Y217170D02*
D03*
X933450Y581660D02*
D03*
X895350Y582930D02*
D03*
D59*
X862710Y813583D02*
D03*
X727710D02*
D03*
D60*
X789940Y751840D02*
D03*
X679450Y271780D02*
D03*
X483870Y273783D02*
D03*
X229870Y805180D02*
D03*
X908050Y257810D02*
D03*
X661670Y326390D02*
D03*
X433070Y181610D02*
D03*
X584200Y273050D02*
D03*
X913130Y623570D02*
D03*
X538480Y85090D02*
D03*
X227330Y843280D02*
D03*
D61*
X899780Y67310D02*
D03*
X879780D02*
D03*
X859780D02*
D03*
X839780D02*
D03*
X819780D02*
D03*
X799780D02*
D03*
X779780D02*
D03*
X759780D02*
D03*
Y207310D02*
D03*
X779780D02*
D03*
X799780D02*
D03*
X819780D02*
D03*
X839780D02*
D03*
X859780D02*
D03*
X879780D02*
D03*
X899780D02*
D03*
D63*
X434340Y92710D02*
D03*
X409340D02*
D03*
D64*
X708033Y68580D02*
D03*
X657233D02*
D03*
Y119380D02*
D03*
X708033D02*
D03*
X682633Y93980D02*
D03*
D66*
X189230Y200660D02*
D03*
X212667Y188639D02*
D03*
X602367Y443976D02*
D03*
X641350Y707390D02*
D03*
X774700Y678180D02*
D03*
X763270Y449480D02*
D03*
X680720Y468630D02*
D03*
X668020Y502920D02*
D03*
X708917Y501724D02*
D03*
X932180Y480060D02*
D03*
X727710Y492760D02*
D03*
X300862Y689482D02*
D03*
X721360Y610870D02*
D03*
X748030Y692150D02*
D03*
X730250Y585470D02*
D03*
X703580D02*
D03*
X679450D02*
D03*
X654050D02*
D03*
X628650D02*
D03*
X317500Y681990D02*
D03*
X576580Y518160D02*
D03*
X553235Y520670D02*
D03*
X406400Y546100D02*
D03*
X440690Y520670D02*
D03*
X388620Y565150D02*
D03*
X480060Y579120D02*
D03*
X338110Y612430D02*
D03*
X464820Y596900D02*
D03*
X374714Y693484D02*
D03*
X636270Y802640D02*
D03*
X558800Y768350D02*
D03*
X274320Y438150D02*
D03*
X201930Y534670D02*
D03*
X230091Y684546D02*
D03*
X207010Y641350D02*
D03*
X295910Y532130D02*
D03*
X261620D02*
D03*
X237490Y523240D02*
D03*
X288290Y466090D02*
D03*
X302299Y477396D02*
D03*
X394970Y490220D02*
D03*
X382841Y479361D02*
D03*
X436694Y484116D02*
D03*
X289040Y273442D02*
D03*
X403860Y307340D02*
D03*
X364490Y297180D02*
D03*
X405637Y345947D02*
D03*
X394970Y331470D02*
D03*
X332740Y297180D02*
D03*
X347980Y298450D02*
D03*
X331534Y209614D02*
D03*
X359600Y206692D02*
D03*
X313690Y439420D02*
D03*
X309880Y285750D02*
D03*
X307340Y242570D02*
D03*
X303995Y270510D02*
D03*
X429260Y208280D02*
D03*
X375920Y251460D02*
D03*
X393700Y270510D02*
D03*
X439420Y499110D02*
D03*
X488931Y516987D02*
D03*
X848945Y304087D02*
D03*
X825500Y245110D02*
D03*
X601980Y574040D02*
D03*
X437156Y439420D02*
D03*
X478333Y438661D02*
D03*
X578506Y471150D02*
D03*
X567311Y457200D02*
D03*
X603661Y521771D02*
D03*
X350840Y625160D02*
D03*
X492760Y465990D02*
D03*
X480060Y488950D02*
D03*
X617220Y608330D02*
D03*
X600710Y656381D02*
D03*
X483870Y412750D02*
D03*
X643890Y375920D02*
D03*
X504790Y369058D02*
D03*
X439420Y461010D02*
D03*
X208280Y756920D02*
D03*
X593090Y224790D02*
D03*
X756256Y334389D02*
D03*
X635664Y227709D02*
D03*
X784860Y307340D02*
D03*
X751840Y610870D02*
D03*
X655320Y400240D02*
D03*
X259180Y383540D02*
D03*
X248920Y401320D02*
D03*
X387350Y430530D02*
D03*
X568960Y358140D02*
D03*
X508000Y346710D02*
D03*
X353060Y568960D02*
D03*
X355600Y645160D02*
D03*
X285750Y748030D02*
D03*
X318770Y739140D02*
D03*
X342900Y719358D02*
D03*
X516890Y223520D02*
D03*
X834390Y443230D02*
D03*
X323850Y600710D02*
D03*
X321310Y546100D02*
D03*
X373380Y375920D02*
D03*
X340360Y358140D02*
D03*
X336550Y375700D02*
D03*
X365054Y396996D02*
D03*
X336550Y680720D02*
D03*
X635600Y401155D02*
D03*
X233680Y162560D02*
D03*
X849630Y130810D02*
D03*
X687070Y525780D02*
D03*
X273050Y162560D02*
D03*
X249460Y302402D02*
D03*
X336550Y474980D02*
D03*
X590550Y411480D02*
D03*
X354330Y223520D02*
D03*
X981050Y494684D02*
D03*
X370840Y411480D02*
D03*
X660400Y762000D02*
D03*
X193040Y292100D02*
D03*
X243840Y252730D02*
D03*
X762000Y193040D02*
D03*
X899260D02*
D03*
X601868Y479948D02*
D03*
X292100Y114300D02*
D03*
X222250Y374650D02*
D03*
X590550Y495300D02*
D03*
X585132Y435948D02*
D03*
X571861Y422677D02*
D03*
X434340Y397510D02*
D03*
X431800Y378460D02*
D03*
X606490Y540481D02*
D03*
X194310Y330200D02*
D03*
X663898Y673507D02*
D03*
X660400Y688340D02*
D03*
X632854Y760050D02*
D03*
X623570Y746760D02*
D03*
X598950Y756011D02*
D03*
X573765Y752115D02*
D03*
X601173Y425654D02*
D03*
X260350Y363220D02*
D03*
X237808Y363537D02*
D03*
X236239Y314126D02*
D03*
X698500Y617220D02*
D03*
X631190Y67310D02*
D03*
X248920Y322580D02*
D03*
X254000Y638642D02*
D03*
X573762Y594216D02*
D03*
X576215Y579026D02*
D03*
X551180Y603250D02*
D03*
X909320Y115570D02*
D03*
X895350Y137160D02*
D03*
X557530Y119380D02*
D03*
X335280Y514350D02*
D03*
X325120Y581660D02*
D03*
X273050Y102216D02*
D03*
X307975Y201295D02*
D03*
X773271Y696556D02*
D03*
X241300Y431800D02*
D03*
X295910Y415290D02*
D03*
X461059Y144731D02*
D03*
X223520Y215900D02*
D03*
X756412Y650748D02*
D03*
X784352Y644817D02*
D03*
X288290Y314960D02*
D03*
X547370Y732790D02*
D03*
X662738Y705695D02*
D03*
X260350Y118110D02*
D03*
M02*
