G04*
G04 #@! TF.GenerationSoftware,Altium Limited,Altium Designer,22.8.2 (66)*
G04*
G04 Layer_Color=2752767*
%FSLAX44Y44*%
%MOMM*%
G71*
G04*
G04 #@! TF.SameCoordinates,9714C633-81E7-4BB1-B996-9AD4BBD72758*
G04*
G04*
G04 #@! TF.FilePolarity,Positive*
G04*
G01*
G75*
%ADD94C,0.0508*%
%ADD95C,0.0677*%
D94*
X498348Y841248D02*
Y845312D01*
X502412D01*
Y841248D01*
X498348D01*
Y815848D02*
Y819912D01*
X502412D01*
Y815848D01*
X498348D01*
Y790448D02*
Y794512D01*
X502412D01*
Y790448D01*
X498348D01*
Y765048D02*
Y769112D01*
X502412D01*
Y765048D01*
X498348D01*
X23368Y27940D02*
X25400Y29972D01*
X27432Y27940D01*
X25400Y25908D01*
X23368Y27940D01*
X1066038Y26670D02*
X1068070Y28702D01*
X1070102Y26670D01*
X1068070Y24638D01*
X1066038Y26670D01*
X1067308Y844550D02*
X1069340Y846582D01*
X1071372Y844550D01*
X1069340Y842518D01*
X1067308Y844550D01*
X24638Y845820D02*
X26670Y847852D01*
X28702Y845820D01*
X26670Y843788D01*
X24638Y845820D01*
X796178Y691926D02*
Y695990D01*
X800242D01*
Y691926D01*
X796178D01*
Y717326D02*
Y721389D01*
X800242D01*
Y717326D01*
X796178D01*
X787908Y749808D02*
Y753872D01*
X791972D01*
Y749808D01*
X787908D01*
X762508D02*
Y753872D01*
X766572D01*
Y749808D01*
X762508D01*
X737108D02*
Y753872D01*
X741172D01*
Y749808D01*
X737108D01*
X711708D02*
Y753872D01*
X715772D01*
Y749808D01*
X711708D01*
X686308D02*
Y753872D01*
X690372D01*
Y749808D01*
X686308D01*
X677418Y269748D02*
Y273812D01*
X681482D01*
Y269748D01*
X677418D01*
X652018D02*
Y273812D01*
X656082D01*
Y269748D01*
X652018D01*
X626618D02*
Y273812D01*
X630682D01*
Y269748D01*
X626618D01*
X431038Y271751D02*
Y275814D01*
X435102D01*
Y271751D01*
X431038D01*
X456438D02*
Y275814D01*
X460502D01*
Y271751D01*
X456438D01*
X481838D02*
Y275814D01*
X485902D01*
Y271751D01*
X481838D01*
X278638Y803148D02*
Y807212D01*
X282702D01*
Y803148D01*
X278638D01*
X456438D02*
Y807212D01*
X460502D01*
Y803148D01*
X456438D01*
X431038D02*
Y807212D01*
X435102D01*
Y803148D01*
X431038D01*
X405638D02*
Y807212D01*
X409702D01*
Y803148D01*
X405638D01*
X380238D02*
Y807212D01*
X384302D01*
Y803148D01*
X380238D01*
X354838D02*
Y807212D01*
X358902D01*
Y803148D01*
X354838D01*
X329438D02*
Y807212D01*
X333502D01*
Y803148D01*
X329438D01*
X304038D02*
Y807212D01*
X308102D01*
Y803148D01*
X304038D01*
X253238D02*
Y807212D01*
X257302D01*
Y803148D01*
X253238D01*
X227838D02*
Y807212D01*
X231902D01*
Y803148D01*
X227838D01*
X899780Y65278D02*
X897748Y69342D01*
X901812D01*
X899780Y65278D01*
X879780D02*
X877748Y69342D01*
X881812D01*
X879780Y65278D01*
X859780D02*
X857748Y69342D01*
X861812D01*
X859780Y65278D01*
X839780D02*
X837748Y69342D01*
X841812D01*
X839780Y65278D01*
X819780D02*
X817748Y69342D01*
X821812D01*
X819780Y65278D01*
X799780D02*
X797748Y69342D01*
X801812D01*
X799780Y65278D01*
X779780D02*
X777748Y69342D01*
X781812D01*
X779780Y65278D01*
X759780D02*
X757748Y69342D01*
X761812D01*
X759780Y65278D01*
Y205278D02*
X757748Y209342D01*
X761812D01*
X759780Y205278D01*
X779780D02*
X777748Y209342D01*
X781812D01*
X779780Y205278D01*
X799780D02*
X797748Y209342D01*
X801812D01*
X799780Y205278D01*
X819780D02*
X817748Y209342D01*
X821812D01*
X819780Y205278D01*
X839780D02*
X837748Y209342D01*
X841812D01*
X839780Y205278D01*
X859780D02*
X857748Y209342D01*
X861812D01*
X859780Y205278D01*
X879780D02*
X877748Y209342D01*
X881812D01*
X879780Y205278D01*
X899780D02*
X897748Y209342D01*
X901812D01*
X899780Y205278D01*
X434340Y90678D02*
X435356Y91694D01*
X436372D01*
X435356Y92710D01*
X436372Y93726D01*
X435356D01*
X434340Y94742D01*
X433324Y93726D01*
X432308D01*
X433324Y92710D01*
X432308Y91694D01*
X433324D01*
X434340Y90678D01*
X409340D02*
X410356Y91694D01*
X411372D01*
X410356Y92710D01*
X411372Y93726D01*
X410356D01*
X409340Y94742D01*
X408324Y93726D01*
X407308D01*
X408324Y92710D01*
X407308Y91694D01*
X408324D01*
X409340Y90678D01*
X706001Y66548D02*
X707017Y68580D01*
X706001Y70612D01*
X708033Y69596D01*
X710065Y70612D01*
X709049Y68580D01*
X710065Y66548D01*
X708033Y67564D01*
X706001Y66548D01*
X655201D02*
X656217Y68580D01*
X655201Y70612D01*
X657233Y69596D01*
X659265Y70612D01*
X658249Y68580D01*
X659265Y66548D01*
X657233Y67564D01*
X655201Y66548D01*
Y117348D02*
X656217Y119380D01*
X655201Y121412D01*
X657233Y120396D01*
X659265Y121412D01*
X658249Y119380D01*
X659265Y117348D01*
X657233Y118364D01*
X655201Y117348D01*
X706001D02*
X707017Y119380D01*
X706001Y121412D01*
X708033Y120396D01*
X710065Y121412D01*
X709049Y119380D01*
X710065Y117348D01*
X708033Y118364D01*
X706001Y117348D01*
X680601Y91948D02*
X681617Y93980D01*
X680601Y96012D01*
X682633Y94996D01*
X684665Y96012D01*
X683649Y93980D01*
X684665Y91948D01*
X682633Y92964D01*
X680601Y91948D01*
X829818Y255778D02*
Y259842D01*
X833882D01*
Y255778D01*
X829818D01*
X855218D02*
Y259842D01*
X859282D01*
Y255778D01*
X855218D01*
X880618D02*
Y259842D01*
X884682D01*
Y255778D01*
X880618D01*
X906018D02*
Y259842D01*
X910082D01*
Y255778D01*
X906018D01*
X659638Y324358D02*
Y328422D01*
X663702D01*
Y324358D01*
X659638D01*
X634238D02*
Y328422D01*
X638302D01*
Y324358D01*
X634238D01*
X583438D02*
Y328422D01*
X587502D01*
Y324358D01*
X583438D01*
X558038D02*
Y328422D01*
X562102D01*
Y324358D01*
X558038D01*
X532638D02*
Y328422D01*
X536702D01*
Y324358D01*
X532638D01*
X507238D02*
Y328422D01*
X511302D01*
Y324358D01*
X507238D01*
X481838D02*
Y328422D01*
X485902D01*
Y324358D01*
X481838D01*
X456438D02*
Y328422D01*
X460502D01*
Y324358D01*
X456438D01*
X431038D02*
Y328422D01*
X435102D01*
Y324358D01*
X431038D01*
X608838D02*
Y328422D01*
X612902D01*
Y324358D01*
X608838D01*
X405638Y179578D02*
Y183642D01*
X409702D01*
Y179578D01*
X405638D01*
X431038D02*
Y183642D01*
X435102D01*
Y179578D01*
X431038D01*
X531368Y271018D02*
Y275082D01*
X535432D01*
Y271018D01*
X531368D01*
X556768D02*
Y275082D01*
X560832D01*
Y271018D01*
X556768D01*
X582168D02*
Y275082D01*
X586232D01*
Y271018D01*
X582168D01*
X163634Y792988D02*
Y797052D01*
X167698D01*
Y792988D01*
X163634D01*
Y767588D02*
Y771652D01*
X167698D01*
Y767588D01*
X163634D01*
Y742188D02*
Y746252D01*
X167698D01*
Y742188D01*
X163634D01*
Y716788D02*
Y720852D01*
X167698D01*
Y716788D01*
X163634D01*
X875538Y668528D02*
Y672592D01*
X879602D01*
Y668528D01*
X875538D01*
Y693928D02*
Y697992D01*
X879602D01*
Y693928D01*
X875538D01*
X908558Y445008D02*
Y449072D01*
X912622D01*
Y445008D01*
X908558D01*
Y470408D02*
Y474472D01*
X912622D01*
Y470408D01*
X908558D01*
X857758Y556768D02*
Y560832D01*
X861822D01*
Y556768D01*
X857758D01*
Y582168D02*
Y586232D01*
X861822D01*
Y582168D01*
X857758D01*
Y531368D02*
Y535432D01*
X861822D01*
Y531368D01*
X857758D01*
X711708Y189738D02*
Y193802D01*
X715772D01*
Y189738D01*
X711708D01*
Y164338D02*
Y168402D01*
X715772D01*
Y164338D01*
X711708D01*
Y215138D02*
Y219202D01*
X715772D01*
Y215138D01*
X711708D01*
X911098Y621538D02*
Y625602D01*
X915162D01*
Y621538D01*
X911098D01*
X885698D02*
Y625602D01*
X889762D01*
Y621538D01*
X885698D01*
X860298D02*
Y625602D01*
X864362D01*
Y621538D01*
X860298D01*
X931418Y579628D02*
Y583692D01*
X935482D01*
Y579628D01*
X931418D01*
Y554228D02*
Y558292D01*
X935482D01*
Y554228D01*
X931418D01*
Y528828D02*
Y532892D01*
X935482D01*
Y528828D01*
X931418D01*
X536448Y83058D02*
Y87122D01*
X540512D01*
Y83058D01*
X536448D01*
X561848D02*
Y87122D01*
X565912D01*
Y83058D01*
X561848D01*
X587248D02*
Y87122D01*
X591312D01*
Y83058D01*
X587248D01*
X893318Y555498D02*
Y559562D01*
X897382D01*
Y555498D01*
X893318D01*
Y580898D02*
Y584962D01*
X897382D01*
Y580898D01*
X893318D01*
Y530098D02*
Y534162D01*
X897382D01*
Y530098D01*
X893318D01*
X405290Y463804D02*
Y462788D01*
X407323D01*
Y463804D01*
X408339D01*
Y465836D01*
X407323D01*
Y466852D01*
X405290D01*
Y465836D01*
X404274D01*
Y463804D01*
X405290D01*
X276098Y841248D02*
Y845312D01*
X280162D01*
Y841248D01*
X276098D01*
X428498D02*
Y845312D01*
X432562D01*
Y841248D01*
X428498D01*
X403098D02*
Y845312D01*
X407162D01*
Y841248D01*
X403098D01*
X377698D02*
Y845312D01*
X381762D01*
Y841248D01*
X377698D01*
X352298D02*
Y845312D01*
X356362D01*
Y841248D01*
X352298D01*
X326898D02*
Y845312D01*
X330962D01*
Y841248D01*
X326898D01*
X301498D02*
Y845312D01*
X305562D01*
Y841248D01*
X301498D01*
X250698D02*
Y845312D01*
X254762D01*
Y841248D01*
X250698D01*
X225298D02*
Y845312D01*
X229362D01*
Y841248D01*
X225298D01*
X453898D02*
Y845312D01*
X457962D01*
Y841248D01*
X453898D01*
X187198Y198628D02*
X188214D01*
X189230Y199644D01*
X190246Y198628D01*
X191262D01*
Y199644D01*
X190246Y200660D01*
X191262Y201676D01*
Y202692D01*
X190246D01*
X189230Y201676D01*
X188214Y202692D01*
X187198D01*
Y201676D01*
X188214Y200660D01*
X187198Y199644D01*
Y198628D01*
X210635Y186607D02*
X211651D01*
X212667Y187623D01*
X213683Y186607D01*
X214699D01*
Y187623D01*
X213683Y188639D01*
X214699Y189655D01*
Y190671D01*
X213683D01*
X212667Y189655D01*
X211651Y190671D01*
X210635D01*
Y189655D01*
X211651Y188639D01*
X210635Y187623D01*
Y186607D01*
X600335Y441944D02*
X601351D01*
X602367Y442960D01*
X603383Y441944D01*
X604399D01*
Y442960D01*
X603383Y443976D01*
X604399Y444992D01*
Y446008D01*
X603383D01*
X602367Y444992D01*
X601351Y446008D01*
X600335D01*
Y444992D01*
X601351Y443976D01*
X600335Y442960D01*
Y441944D01*
X639318Y705358D02*
X640334D01*
X641350Y706374D01*
X642366Y705358D01*
X643382D01*
Y706374D01*
X642366Y707390D01*
X643382Y708406D01*
Y709422D01*
X642366D01*
X641350Y708406D01*
X640334Y709422D01*
X639318D01*
Y708406D01*
X640334Y707390D01*
X639318Y706374D01*
Y705358D01*
X772668Y676148D02*
X773684D01*
X774700Y677164D01*
X775716Y676148D01*
X776732D01*
Y677164D01*
X775716Y678180D01*
X776732Y679196D01*
Y680212D01*
X775716D01*
X774700Y679196D01*
X773684Y680212D01*
X772668D01*
Y679196D01*
X773684Y678180D01*
X772668Y677164D01*
Y676148D01*
X761238Y447448D02*
X762254D01*
X763270Y448464D01*
X764286Y447448D01*
X765302D01*
Y448464D01*
X764286Y449480D01*
X765302Y450496D01*
Y451512D01*
X764286D01*
X763270Y450496D01*
X762254Y451512D01*
X761238D01*
Y450496D01*
X762254Y449480D01*
X761238Y448464D01*
Y447448D01*
X678688Y466598D02*
X679704D01*
X680720Y467614D01*
X681736Y466598D01*
X682752D01*
Y467614D01*
X681736Y468630D01*
X682752Y469646D01*
Y470662D01*
X681736D01*
X680720Y469646D01*
X679704Y470662D01*
X678688D01*
Y469646D01*
X679704Y468630D01*
X678688Y467614D01*
Y466598D01*
X665988Y500888D02*
X667004D01*
X668020Y501904D01*
X669036Y500888D01*
X670052D01*
Y501904D01*
X669036Y502920D01*
X670052Y503936D01*
Y504952D01*
X669036D01*
X668020Y503936D01*
X667004Y504952D01*
X665988D01*
Y503936D01*
X667004Y502920D01*
X665988Y501904D01*
Y500888D01*
X706885Y499692D02*
X707901D01*
X708917Y500708D01*
X709933Y499692D01*
X710949D01*
Y500708D01*
X709933Y501724D01*
X710949Y502740D01*
Y503756D01*
X709933D01*
X708917Y502740D01*
X707901Y503756D01*
X706885D01*
Y502740D01*
X707901Y501724D01*
X706885Y500708D01*
Y499692D01*
X930148Y478028D02*
X931164D01*
X932180Y479044D01*
X933196Y478028D01*
X934212D01*
Y479044D01*
X933196Y480060D01*
X934212Y481076D01*
Y482092D01*
X933196D01*
X932180Y481076D01*
X931164Y482092D01*
X930148D01*
Y481076D01*
X931164Y480060D01*
X930148Y479044D01*
Y478028D01*
X725678Y490728D02*
X726694D01*
X727710Y491744D01*
X728726Y490728D01*
X729742D01*
Y491744D01*
X728726Y492760D01*
X729742Y493776D01*
Y494792D01*
X728726D01*
X727710Y493776D01*
X726694Y494792D01*
X725678D01*
Y493776D01*
X726694Y492760D01*
X725678Y491744D01*
Y490728D01*
X298830Y687450D02*
X299846D01*
X300862Y688466D01*
X301878Y687450D01*
X302894D01*
Y688466D01*
X301878Y689482D01*
X302894Y690498D01*
Y691514D01*
X301878D01*
X300862Y690498D01*
X299846Y691514D01*
X298830D01*
Y690498D01*
X299846Y689482D01*
X298830Y688466D01*
Y687450D01*
X719328Y608838D02*
X720344D01*
X721360Y609854D01*
X722376Y608838D01*
X723392D01*
Y609854D01*
X722376Y610870D01*
X723392Y611886D01*
Y612902D01*
X722376D01*
X721360Y611886D01*
X720344Y612902D01*
X719328D01*
Y611886D01*
X720344Y610870D01*
X719328Y609854D01*
Y608838D01*
X745998Y690118D02*
X747014D01*
X748030Y691134D01*
X749046Y690118D01*
X750062D01*
Y691134D01*
X749046Y692150D01*
X750062Y693166D01*
Y694182D01*
X749046D01*
X748030Y693166D01*
X747014Y694182D01*
X745998D01*
Y693166D01*
X747014Y692150D01*
X745998Y691134D01*
Y690118D01*
X728218Y583438D02*
X729234D01*
X730250Y584454D01*
X731266Y583438D01*
X732282D01*
Y584454D01*
X731266Y585470D01*
X732282Y586486D01*
Y587502D01*
X731266D01*
X730250Y586486D01*
X729234Y587502D01*
X728218D01*
Y586486D01*
X729234Y585470D01*
X728218Y584454D01*
Y583438D01*
X701548D02*
X702564D01*
X703580Y584454D01*
X704596Y583438D01*
X705612D01*
Y584454D01*
X704596Y585470D01*
X705612Y586486D01*
Y587502D01*
X704596D01*
X703580Y586486D01*
X702564Y587502D01*
X701548D01*
Y586486D01*
X702564Y585470D01*
X701548Y584454D01*
Y583438D01*
X677418D02*
X678434D01*
X679450Y584454D01*
X680466Y583438D01*
X681482D01*
Y584454D01*
X680466Y585470D01*
X681482Y586486D01*
Y587502D01*
X680466D01*
X679450Y586486D01*
X678434Y587502D01*
X677418D01*
Y586486D01*
X678434Y585470D01*
X677418Y584454D01*
Y583438D01*
X652018D02*
X653034D01*
X654050Y584454D01*
X655066Y583438D01*
X656082D01*
Y584454D01*
X655066Y585470D01*
X656082Y586486D01*
Y587502D01*
X655066D01*
X654050Y586486D01*
X653034Y587502D01*
X652018D01*
Y586486D01*
X653034Y585470D01*
X652018Y584454D01*
Y583438D01*
X626618D02*
X627634D01*
X628650Y584454D01*
X629666Y583438D01*
X630682D01*
Y584454D01*
X629666Y585470D01*
X630682Y586486D01*
Y587502D01*
X629666D01*
X628650Y586486D01*
X627634Y587502D01*
X626618D01*
Y586486D01*
X627634Y585470D01*
X626618Y584454D01*
Y583438D01*
X315468Y679958D02*
X316484D01*
X317500Y680974D01*
X318516Y679958D01*
X319532D01*
Y680974D01*
X318516Y681990D01*
X319532Y683006D01*
Y684022D01*
X318516D01*
X317500Y683006D01*
X316484Y684022D01*
X315468D01*
Y683006D01*
X316484Y681990D01*
X315468Y680974D01*
Y679958D01*
X574548Y516128D02*
X575564D01*
X576580Y517144D01*
X577596Y516128D01*
X578612D01*
Y517144D01*
X577596Y518160D01*
X578612Y519176D01*
Y520192D01*
X577596D01*
X576580Y519176D01*
X575564Y520192D01*
X574548D01*
Y519176D01*
X575564Y518160D01*
X574548Y517144D01*
Y516128D01*
X551203Y518638D02*
X552219D01*
X553235Y519654D01*
X554251Y518638D01*
X555267D01*
Y519654D01*
X554251Y520670D01*
X555267Y521686D01*
Y522702D01*
X554251D01*
X553235Y521686D01*
X552219Y522702D01*
X551203D01*
Y521686D01*
X552219Y520670D01*
X551203Y519654D01*
Y518638D01*
X404368Y544068D02*
X405384D01*
X406400Y545084D01*
X407416Y544068D01*
X408432D01*
Y545084D01*
X407416Y546100D01*
X408432Y547116D01*
Y548132D01*
X407416D01*
X406400Y547116D01*
X405384Y548132D01*
X404368D01*
Y547116D01*
X405384Y546100D01*
X404368Y545084D01*
Y544068D01*
X438658Y518638D02*
X439674D01*
X440690Y519654D01*
X441706Y518638D01*
X442722D01*
Y519654D01*
X441706Y520670D01*
X442722Y521686D01*
Y522702D01*
X441706D01*
X440690Y521686D01*
X439674Y522702D01*
X438658D01*
Y521686D01*
X439674Y520670D01*
X438658Y519654D01*
Y518638D01*
X386588Y563118D02*
X387604D01*
X388620Y564134D01*
X389636Y563118D01*
X390652D01*
Y564134D01*
X389636Y565150D01*
X390652Y566166D01*
Y567182D01*
X389636D01*
X388620Y566166D01*
X387604Y567182D01*
X386588D01*
Y566166D01*
X387604Y565150D01*
X386588Y564134D01*
Y563118D01*
X478028Y577088D02*
X479044D01*
X480060Y578104D01*
X481076Y577088D01*
X482092D01*
Y578104D01*
X481076Y579120D01*
X482092Y580136D01*
Y581152D01*
X481076D01*
X480060Y580136D01*
X479044Y581152D01*
X478028D01*
Y580136D01*
X479044Y579120D01*
X478028Y578104D01*
Y577088D01*
X336078Y610398D02*
X337094D01*
X338110Y611414D01*
X339126Y610398D01*
X340142D01*
Y611414D01*
X339126Y612430D01*
X340142Y613446D01*
Y614462D01*
X339126D01*
X338110Y613446D01*
X337094Y614462D01*
X336078D01*
Y613446D01*
X337094Y612430D01*
X336078Y611414D01*
Y610398D01*
X462788Y594868D02*
X463804D01*
X464820Y595884D01*
X465836Y594868D01*
X466852D01*
Y595884D01*
X465836Y596900D01*
X466852Y597916D01*
Y598932D01*
X465836D01*
X464820Y597916D01*
X463804Y598932D01*
X462788D01*
Y597916D01*
X463804Y596900D01*
X462788Y595884D01*
Y594868D01*
X372682Y691452D02*
X373698D01*
X374714Y692468D01*
X375730Y691452D01*
X376746D01*
Y692468D01*
X375730Y693484D01*
X376746Y694500D01*
Y695516D01*
X375730D01*
X374714Y694500D01*
X373698Y695516D01*
X372682D01*
Y694500D01*
X373698Y693484D01*
X372682Y692468D01*
Y691452D01*
X634238Y800608D02*
X635254D01*
X636270Y801624D01*
X637286Y800608D01*
X638302D01*
Y801624D01*
X637286Y802640D01*
X638302Y803656D01*
Y804672D01*
X637286D01*
X636270Y803656D01*
X635254Y804672D01*
X634238D01*
Y803656D01*
X635254Y802640D01*
X634238Y801624D01*
Y800608D01*
X556768Y766318D02*
X557784D01*
X558800Y767334D01*
X559816Y766318D01*
X560832D01*
Y767334D01*
X559816Y768350D01*
X560832Y769366D01*
Y770382D01*
X559816D01*
X558800Y769366D01*
X557784Y770382D01*
X556768D01*
Y769366D01*
X557784Y768350D01*
X556768Y767334D01*
Y766318D01*
X272288Y436118D02*
X273304D01*
X274320Y437134D01*
X275336Y436118D01*
X276352D01*
Y437134D01*
X275336Y438150D01*
X276352Y439166D01*
Y440182D01*
X275336D01*
X274320Y439166D01*
X273304Y440182D01*
X272288D01*
Y439166D01*
X273304Y438150D01*
X272288Y437134D01*
Y436118D01*
X199898Y532638D02*
X200914D01*
X201930Y533654D01*
X202946Y532638D01*
X203962D01*
Y533654D01*
X202946Y534670D01*
X203962Y535686D01*
Y536702D01*
X202946D01*
X201930Y535686D01*
X200914Y536702D01*
X199898D01*
Y535686D01*
X200914Y534670D01*
X199898Y533654D01*
Y532638D01*
X228059Y682514D02*
X229075D01*
X230091Y683530D01*
X231107Y682514D01*
X232123D01*
Y683530D01*
X231107Y684546D01*
X232123Y685562D01*
Y686578D01*
X231107D01*
X230091Y685562D01*
X229075Y686578D01*
X228059D01*
Y685562D01*
X229075Y684546D01*
X228059Y683530D01*
Y682514D01*
X204978Y639318D02*
X205994D01*
X207010Y640334D01*
X208026Y639318D01*
X209042D01*
Y640334D01*
X208026Y641350D01*
X209042Y642366D01*
Y643382D01*
X208026D01*
X207010Y642366D01*
X205994Y643382D01*
X204978D01*
Y642366D01*
X205994Y641350D01*
X204978Y640334D01*
Y639318D01*
X293878Y530098D02*
X294894D01*
X295910Y531114D01*
X296926Y530098D01*
X297942D01*
Y531114D01*
X296926Y532130D01*
X297942Y533146D01*
Y534162D01*
X296926D01*
X295910Y533146D01*
X294894Y534162D01*
X293878D01*
Y533146D01*
X294894Y532130D01*
X293878Y531114D01*
Y530098D01*
X259588D02*
X260604D01*
X261620Y531114D01*
X262636Y530098D01*
X263652D01*
Y531114D01*
X262636Y532130D01*
X263652Y533146D01*
Y534162D01*
X262636D01*
X261620Y533146D01*
X260604Y534162D01*
X259588D01*
Y533146D01*
X260604Y532130D01*
X259588Y531114D01*
Y530098D01*
X235458Y521208D02*
X236474D01*
X237490Y522224D01*
X238506Y521208D01*
X239522D01*
Y522224D01*
X238506Y523240D01*
X239522Y524256D01*
Y525272D01*
X238506D01*
X237490Y524256D01*
X236474Y525272D01*
X235458D01*
Y524256D01*
X236474Y523240D01*
X235458Y522224D01*
Y521208D01*
X286258Y464058D02*
X287274D01*
X288290Y465074D01*
X289306Y464058D01*
X290322D01*
Y465074D01*
X289306Y466090D01*
X290322Y467106D01*
Y468122D01*
X289306D01*
X288290Y467106D01*
X287274Y468122D01*
X286258D01*
Y467106D01*
X287274Y466090D01*
X286258Y465074D01*
Y464058D01*
X300267Y475364D02*
X301283D01*
X302299Y476380D01*
X303315Y475364D01*
X304331D01*
Y476380D01*
X303315Y477396D01*
X304331Y478412D01*
Y479428D01*
X303315D01*
X302299Y478412D01*
X301283Y479428D01*
X300267D01*
Y478412D01*
X301283Y477396D01*
X300267Y476380D01*
Y475364D01*
X392938Y488188D02*
X393954D01*
X394970Y489204D01*
X395986Y488188D01*
X397002D01*
Y489204D01*
X395986Y490220D01*
X397002Y491236D01*
Y492252D01*
X395986D01*
X394970Y491236D01*
X393954Y492252D01*
X392938D01*
Y491236D01*
X393954Y490220D01*
X392938Y489204D01*
Y488188D01*
X380809Y477329D02*
X381825D01*
X382841Y478345D01*
X383857Y477329D01*
X384873D01*
Y478345D01*
X383857Y479361D01*
X384873Y480377D01*
Y481393D01*
X383857D01*
X382841Y480377D01*
X381825Y481393D01*
X380809D01*
Y480377D01*
X381825Y479361D01*
X380809Y478345D01*
Y477329D01*
X434662Y482084D02*
X435678D01*
X436694Y483100D01*
X437710Y482084D01*
X438726D01*
Y483100D01*
X437710Y484116D01*
X438726Y485132D01*
Y486148D01*
X437710D01*
X436694Y485132D01*
X435678Y486148D01*
X434662D01*
Y485132D01*
X435678Y484116D01*
X434662Y483100D01*
Y482084D01*
X287008Y271410D02*
X288024D01*
X289040Y272426D01*
X290056Y271410D01*
X291072D01*
Y272426D01*
X290056Y273442D01*
X291072Y274458D01*
Y275474D01*
X290056D01*
X289040Y274458D01*
X288024Y275474D01*
X287008D01*
Y274458D01*
X288024Y273442D01*
X287008Y272426D01*
Y271410D01*
X401828Y305308D02*
X402844D01*
X403860Y306324D01*
X404876Y305308D01*
X405892D01*
Y306324D01*
X404876Y307340D01*
X405892Y308356D01*
Y309372D01*
X404876D01*
X403860Y308356D01*
X402844Y309372D01*
X401828D01*
Y308356D01*
X402844Y307340D01*
X401828Y306324D01*
Y305308D01*
X362458Y295148D02*
X363474D01*
X364490Y296164D01*
X365506Y295148D01*
X366522D01*
Y296164D01*
X365506Y297180D01*
X366522Y298196D01*
Y299212D01*
X365506D01*
X364490Y298196D01*
X363474Y299212D01*
X362458D01*
Y298196D01*
X363474Y297180D01*
X362458Y296164D01*
Y295148D01*
X403605Y343915D02*
X404621D01*
X405637Y344931D01*
X406653Y343915D01*
X407669D01*
Y344931D01*
X406653Y345947D01*
X407669Y346963D01*
Y347979D01*
X406653D01*
X405637Y346963D01*
X404621Y347979D01*
X403605D01*
Y346963D01*
X404621Y345947D01*
X403605Y344931D01*
Y343915D01*
X392938Y329438D02*
X393954D01*
X394970Y330454D01*
X395986Y329438D01*
X397002D01*
Y330454D01*
X395986Y331470D01*
X397002Y332486D01*
Y333502D01*
X395986D01*
X394970Y332486D01*
X393954Y333502D01*
X392938D01*
Y332486D01*
X393954Y331470D01*
X392938Y330454D01*
Y329438D01*
X330708Y295148D02*
X331724D01*
X332740Y296164D01*
X333756Y295148D01*
X334772D01*
Y296164D01*
X333756Y297180D01*
X334772Y298196D01*
Y299212D01*
X333756D01*
X332740Y298196D01*
X331724Y299212D01*
X330708D01*
Y298196D01*
X331724Y297180D01*
X330708Y296164D01*
Y295148D01*
X345948Y296418D02*
X346964D01*
X347980Y297434D01*
X348996Y296418D01*
X350012D01*
Y297434D01*
X348996Y298450D01*
X350012Y299466D01*
Y300482D01*
X348996D01*
X347980Y299466D01*
X346964Y300482D01*
X345948D01*
Y299466D01*
X346964Y298450D01*
X345948Y297434D01*
Y296418D01*
X329502Y207582D02*
X330518D01*
X331534Y208598D01*
X332550Y207582D01*
X333566D01*
Y208598D01*
X332550Y209614D01*
X333566Y210630D01*
Y211646D01*
X332550D01*
X331534Y210630D01*
X330518Y211646D01*
X329502D01*
Y210630D01*
X330518Y209614D01*
X329502Y208598D01*
Y207582D01*
X357568Y204660D02*
X358584D01*
X359600Y205676D01*
X360616Y204660D01*
X361632D01*
Y205676D01*
X360616Y206692D01*
X361632Y207708D01*
Y208724D01*
X360616D01*
X359600Y207708D01*
X358584Y208724D01*
X357568D01*
Y207708D01*
X358584Y206692D01*
X357568Y205676D01*
Y204660D01*
X311658Y437388D02*
X312674D01*
X313690Y438404D01*
X314706Y437388D01*
X315722D01*
Y438404D01*
X314706Y439420D01*
X315722Y440436D01*
Y441452D01*
X314706D01*
X313690Y440436D01*
X312674Y441452D01*
X311658D01*
Y440436D01*
X312674Y439420D01*
X311658Y438404D01*
Y437388D01*
X307848Y283718D02*
X308864D01*
X309880Y284734D01*
X310896Y283718D01*
X311912D01*
Y284734D01*
X310896Y285750D01*
X311912Y286766D01*
Y287782D01*
X310896D01*
X309880Y286766D01*
X308864Y287782D01*
X307848D01*
Y286766D01*
X308864Y285750D01*
X307848Y284734D01*
Y283718D01*
X305308Y240538D02*
X306324D01*
X307340Y241554D01*
X308356Y240538D01*
X309372D01*
Y241554D01*
X308356Y242570D01*
X309372Y243586D01*
Y244602D01*
X308356D01*
X307340Y243586D01*
X306324Y244602D01*
X305308D01*
Y243586D01*
X306324Y242570D01*
X305308Y241554D01*
Y240538D01*
X301963Y268478D02*
X302979D01*
X303995Y269494D01*
X305011Y268478D01*
X306027D01*
Y269494D01*
X305011Y270510D01*
X306027Y271526D01*
Y272542D01*
X305011D01*
X303995Y271526D01*
X302979Y272542D01*
X301963D01*
Y271526D01*
X302979Y270510D01*
X301963Y269494D01*
Y268478D01*
X427228Y206248D02*
X428244D01*
X429260Y207264D01*
X430276Y206248D01*
X431292D01*
Y207264D01*
X430276Y208280D01*
X431292Y209296D01*
Y210312D01*
X430276D01*
X429260Y209296D01*
X428244Y210312D01*
X427228D01*
Y209296D01*
X428244Y208280D01*
X427228Y207264D01*
Y206248D01*
X373888Y249428D02*
X374904D01*
X375920Y250444D01*
X376936Y249428D01*
X377952D01*
Y250444D01*
X376936Y251460D01*
X377952Y252476D01*
Y253492D01*
X376936D01*
X375920Y252476D01*
X374904Y253492D01*
X373888D01*
Y252476D01*
X374904Y251460D01*
X373888Y250444D01*
Y249428D01*
X391668Y268478D02*
X392684D01*
X393700Y269494D01*
X394716Y268478D01*
X395732D01*
Y269494D01*
X394716Y270510D01*
X395732Y271526D01*
Y272542D01*
X394716D01*
X393700Y271526D01*
X392684Y272542D01*
X391668D01*
Y271526D01*
X392684Y270510D01*
X391668Y269494D01*
Y268478D01*
X437388Y497078D02*
X438404D01*
X439420Y498094D01*
X440436Y497078D01*
X441452D01*
Y498094D01*
X440436Y499110D01*
X441452Y500126D01*
Y501142D01*
X440436D01*
X439420Y500126D01*
X438404Y501142D01*
X437388D01*
Y500126D01*
X438404Y499110D01*
X437388Y498094D01*
Y497078D01*
X486899Y514954D02*
X487915D01*
X488931Y515970D01*
X489947Y514954D01*
X490963D01*
Y515970D01*
X489947Y516987D01*
X490963Y518003D01*
Y519019D01*
X489947D01*
X488931Y518003D01*
X487915Y519019D01*
X486899D01*
Y518003D01*
X487915Y516987D01*
X486899Y515970D01*
Y514954D01*
X846913Y302055D02*
X847929D01*
X848945Y303071D01*
X849961Y302055D01*
X850977D01*
Y303071D01*
X849961Y304087D01*
X850977Y305103D01*
Y306119D01*
X849961D01*
X848945Y305103D01*
X847929Y306119D01*
X846913D01*
Y305103D01*
X847929Y304087D01*
X846913Y303071D01*
Y302055D01*
X823468Y243078D02*
X824484D01*
X825500Y244094D01*
X826516Y243078D01*
X827532D01*
Y244094D01*
X826516Y245110D01*
X827532Y246126D01*
Y247142D01*
X826516D01*
X825500Y246126D01*
X824484Y247142D01*
X823468D01*
Y246126D01*
X824484Y245110D01*
X823468Y244094D01*
Y243078D01*
X599948Y572008D02*
X600964D01*
X601980Y573024D01*
X602996Y572008D01*
X604012D01*
Y573024D01*
X602996Y574040D01*
X604012Y575056D01*
Y576072D01*
X602996D01*
X601980Y575056D01*
X600964Y576072D01*
X599948D01*
Y575056D01*
X600964Y574040D01*
X599948Y573024D01*
Y572008D01*
X435124Y437388D02*
X436140D01*
X437156Y438404D01*
X438172Y437388D01*
X439188D01*
Y438404D01*
X438172Y439420D01*
X439188Y440436D01*
Y441452D01*
X438172D01*
X437156Y440436D01*
X436140Y441452D01*
X435124D01*
Y440436D01*
X436140Y439420D01*
X435124Y438404D01*
Y437388D01*
X476301Y436629D02*
X477317D01*
X478333Y437645D01*
X479349Y436629D01*
X480365D01*
Y437645D01*
X479349Y438661D01*
X480365Y439678D01*
Y440694D01*
X479349D01*
X478333Y439678D01*
X477317Y440694D01*
X476301D01*
Y439678D01*
X477317Y438661D01*
X476301Y437645D01*
Y436629D01*
X576474Y469118D02*
X577490D01*
X578506Y470134D01*
X579522Y469118D01*
X580538D01*
Y470134D01*
X579522Y471150D01*
X580538Y472166D01*
Y473182D01*
X579522D01*
X578506Y472166D01*
X577490Y473182D01*
X576474D01*
Y472166D01*
X577490Y471150D01*
X576474Y470134D01*
Y469118D01*
X565279Y455168D02*
X566295D01*
X567311Y456184D01*
X568327Y455168D01*
X569343D01*
Y456184D01*
X568327Y457200D01*
X569343Y458216D01*
Y459232D01*
X568327D01*
X567311Y458216D01*
X566295Y459232D01*
X565279D01*
Y458216D01*
X566295Y457200D01*
X565279Y456184D01*
Y455168D01*
X601629Y519739D02*
X602645D01*
X603661Y520755D01*
X604677Y519739D01*
X605693D01*
Y520755D01*
X604677Y521771D01*
X605693Y522787D01*
Y523803D01*
X604677D01*
X603661Y522787D01*
X602645Y523803D01*
X601629D01*
Y522787D01*
X602645Y521771D01*
X601629Y520755D01*
Y519739D01*
X348808Y623128D02*
X349824D01*
X350840Y624144D01*
X351856Y623128D01*
X352872D01*
Y624144D01*
X351856Y625160D01*
X352872Y626176D01*
Y627192D01*
X351856D01*
X350840Y626176D01*
X349824Y627192D01*
X348808D01*
Y626176D01*
X349824Y625160D01*
X348808Y624144D01*
Y623128D01*
X490728Y463958D02*
X491744D01*
X492760Y464974D01*
X493776Y463958D01*
X494792D01*
Y464974D01*
X493776Y465990D01*
X494792Y467006D01*
Y468022D01*
X493776D01*
X492760Y467006D01*
X491744Y468022D01*
X490728D01*
Y467006D01*
X491744Y465990D01*
X490728Y464974D01*
Y463958D01*
X478028Y486918D02*
X479044D01*
X480060Y487934D01*
X481076Y486918D01*
X482092D01*
Y487934D01*
X481076Y488950D01*
X482092Y489966D01*
Y490982D01*
X481076D01*
X480060Y489966D01*
X479044Y490982D01*
X478028D01*
Y489966D01*
X479044Y488950D01*
X478028Y487934D01*
Y486918D01*
X615188Y606298D02*
X616204D01*
X617220Y607314D01*
X618236Y606298D01*
X619252D01*
Y607314D01*
X618236Y608330D01*
X619252Y609346D01*
Y610362D01*
X618236D01*
X617220Y609346D01*
X616204Y610362D01*
X615188D01*
Y609346D01*
X616204Y608330D01*
X615188Y607314D01*
Y606298D01*
X598678Y654349D02*
X599694D01*
X600710Y655365D01*
X601726Y654349D01*
X602742D01*
Y655365D01*
X601726Y656381D01*
X602742Y657397D01*
Y658413D01*
X601726D01*
X600710Y657397D01*
X599694Y658413D01*
X598678D01*
Y657397D01*
X599694Y656381D01*
X598678Y655365D01*
Y654349D01*
X481838Y410718D02*
X482854D01*
X483870Y411734D01*
X484886Y410718D01*
X485902D01*
Y411734D01*
X484886Y412750D01*
X485902Y413766D01*
Y414782D01*
X484886D01*
X483870Y413766D01*
X482854Y414782D01*
X481838D01*
Y413766D01*
X482854Y412750D01*
X481838Y411734D01*
Y410718D01*
X641858Y373888D02*
X642874D01*
X643890Y374904D01*
X644906Y373888D01*
X645922D01*
Y374904D01*
X644906Y375920D01*
X645922Y376936D01*
Y377952D01*
X644906D01*
X643890Y376936D01*
X642874Y377952D01*
X641858D01*
Y376936D01*
X642874Y375920D01*
X641858Y374904D01*
Y373888D01*
X502758Y367026D02*
X503774D01*
X504790Y368042D01*
X505807Y367026D01*
X506823D01*
Y368042D01*
X505807Y369058D01*
X506823Y370074D01*
Y371090D01*
X505807D01*
X504790Y370074D01*
X503774Y371090D01*
X502758D01*
Y370074D01*
X503774Y369058D01*
X502758Y368042D01*
Y367026D01*
X437388Y458978D02*
X438404D01*
X439420Y459994D01*
X440436Y458978D01*
X441452D01*
Y459994D01*
X440436Y461010D01*
X441452Y462026D01*
Y463042D01*
X440436D01*
X439420Y462026D01*
X438404Y463042D01*
X437388D01*
Y462026D01*
X438404Y461010D01*
X437388Y459994D01*
Y458978D01*
X206248Y754888D02*
X207264D01*
X208280Y755904D01*
X209296Y754888D01*
X210312D01*
Y755904D01*
X209296Y756920D01*
X210312Y757936D01*
Y758952D01*
X209296D01*
X208280Y757936D01*
X207264Y758952D01*
X206248D01*
Y757936D01*
X207264Y756920D01*
X206248Y755904D01*
Y754888D01*
X591058Y222758D02*
X592074D01*
X593090Y223774D01*
X594106Y222758D01*
X595122D01*
Y223774D01*
X594106Y224790D01*
X595122Y225806D01*
Y226822D01*
X594106D01*
X593090Y225806D01*
X592074Y226822D01*
X591058D01*
Y225806D01*
X592074Y224790D01*
X591058Y223774D01*
Y222758D01*
X754224Y332357D02*
X755240D01*
X756256Y333373D01*
X757272Y332357D01*
X758288D01*
Y333373D01*
X757272Y334389D01*
X758288Y335405D01*
Y336421D01*
X757272D01*
X756256Y335405D01*
X755240Y336421D01*
X754224D01*
Y335405D01*
X755240Y334389D01*
X754224Y333373D01*
Y332357D01*
X633632Y225677D02*
X634648D01*
X635664Y226693D01*
X636680Y225677D01*
X637696D01*
Y226693D01*
X636680Y227709D01*
X637696Y228725D01*
Y229741D01*
X636680D01*
X635664Y228725D01*
X634648Y229741D01*
X633632D01*
Y228725D01*
X634648Y227709D01*
X633632Y226693D01*
Y225677D01*
X782828Y305308D02*
X783844D01*
X784860Y306324D01*
X785876Y305308D01*
X786892D01*
Y306324D01*
X785876Y307340D01*
X786892Y308356D01*
Y309372D01*
X785876D01*
X784860Y308356D01*
X783844Y309372D01*
X782828D01*
Y308356D01*
X783844Y307340D01*
X782828Y306324D01*
Y305308D01*
X749808Y608838D02*
X750824D01*
X751840Y609854D01*
X752856Y608838D01*
X753872D01*
Y609854D01*
X752856Y610870D01*
X753872Y611886D01*
Y612902D01*
X752856D01*
X751840Y611886D01*
X750824Y612902D01*
X749808D01*
Y611886D01*
X750824Y610870D01*
X749808Y609854D01*
Y608838D01*
X653288Y398208D02*
X654304D01*
X655320Y399224D01*
X656336Y398208D01*
X657352D01*
Y399224D01*
X656336Y400240D01*
X657352Y401256D01*
Y402272D01*
X656336D01*
X655320Y401256D01*
X654304Y402272D01*
X653288D01*
Y401256D01*
X654304Y400240D01*
X653288Y399224D01*
Y398208D01*
X257148Y381508D02*
X258164D01*
X259180Y382524D01*
X260196Y381508D01*
X261212D01*
Y382524D01*
X260196Y383540D01*
X261212Y384556D01*
Y385572D01*
X260196D01*
X259180Y384556D01*
X258164Y385572D01*
X257148D01*
Y384556D01*
X258164Y383540D01*
X257148Y382524D01*
Y381508D01*
X246888Y399288D02*
X247904D01*
X248920Y400304D01*
X249936Y399288D01*
X250952D01*
Y400304D01*
X249936Y401320D01*
X250952Y402336D01*
Y403352D01*
X249936D01*
X248920Y402336D01*
X247904Y403352D01*
X246888D01*
Y402336D01*
X247904Y401320D01*
X246888Y400304D01*
Y399288D01*
X385318Y428498D02*
X386334D01*
X387350Y429514D01*
X388366Y428498D01*
X389382D01*
Y429514D01*
X388366Y430530D01*
X389382Y431546D01*
Y432562D01*
X388366D01*
X387350Y431546D01*
X386334Y432562D01*
X385318D01*
Y431546D01*
X386334Y430530D01*
X385318Y429514D01*
Y428498D01*
X566928Y356108D02*
X567944D01*
X568960Y357124D01*
X569976Y356108D01*
X570992D01*
Y357124D01*
X569976Y358140D01*
X570992Y359156D01*
Y360172D01*
X569976D01*
X568960Y359156D01*
X567944Y360172D01*
X566928D01*
Y359156D01*
X567944Y358140D01*
X566928Y357124D01*
Y356108D01*
X505968Y344678D02*
X506984D01*
X508000Y345694D01*
X509016Y344678D01*
X510032D01*
Y345694D01*
X509016Y346710D01*
X510032Y347726D01*
Y348742D01*
X509016D01*
X508000Y347726D01*
X506984Y348742D01*
X505968D01*
Y347726D01*
X506984Y346710D01*
X505968Y345694D01*
Y344678D01*
X351028Y566928D02*
X352044D01*
X353060Y567944D01*
X354076Y566928D01*
X355092D01*
Y567944D01*
X354076Y568960D01*
X355092Y569976D01*
Y570992D01*
X354076D01*
X353060Y569976D01*
X352044Y570992D01*
X351028D01*
Y569976D01*
X352044Y568960D01*
X351028Y567944D01*
Y566928D01*
X353568Y643128D02*
X354584D01*
X355600Y644144D01*
X356616Y643128D01*
X357632D01*
Y644144D01*
X356616Y645160D01*
X357632Y646176D01*
Y647192D01*
X356616D01*
X355600Y646176D01*
X354584Y647192D01*
X353568D01*
Y646176D01*
X354584Y645160D01*
X353568Y644144D01*
Y643128D01*
X283718Y745998D02*
X284734D01*
X285750Y747014D01*
X286766Y745998D01*
X287782D01*
Y747014D01*
X286766Y748030D01*
X287782Y749046D01*
Y750062D01*
X286766D01*
X285750Y749046D01*
X284734Y750062D01*
X283718D01*
Y749046D01*
X284734Y748030D01*
X283718Y747014D01*
Y745998D01*
X316738Y737108D02*
X317754D01*
X318770Y738124D01*
X319786Y737108D01*
X320802D01*
Y738124D01*
X319786Y739140D01*
X320802Y740156D01*
Y741172D01*
X319786D01*
X318770Y740156D01*
X317754Y741172D01*
X316738D01*
Y740156D01*
X317754Y739140D01*
X316738Y738124D01*
Y737108D01*
X340868Y717326D02*
X341884D01*
X342900Y718342D01*
X343916Y717326D01*
X344932D01*
Y718342D01*
X343916Y719358D01*
X344932Y720374D01*
Y721390D01*
X343916D01*
X342900Y720374D01*
X341884Y721390D01*
X340868D01*
Y720374D01*
X341884Y719358D01*
X340868Y718342D01*
Y717326D01*
X514858Y221488D02*
X515874D01*
X516890Y222504D01*
X517906Y221488D01*
X518922D01*
Y222504D01*
X517906Y223520D01*
X518922Y224536D01*
Y225552D01*
X517906D01*
X516890Y224536D01*
X515874Y225552D01*
X514858D01*
Y224536D01*
X515874Y223520D01*
X514858Y222504D01*
Y221488D01*
X832358Y441198D02*
X833374D01*
X834390Y442214D01*
X835406Y441198D01*
X836422D01*
Y442214D01*
X835406Y443230D01*
X836422Y444246D01*
Y445262D01*
X835406D01*
X834390Y444246D01*
X833374Y445262D01*
X832358D01*
Y444246D01*
X833374Y443230D01*
X832358Y442214D01*
Y441198D01*
X321818Y598678D02*
X322834D01*
X323850Y599694D01*
X324866Y598678D01*
X325882D01*
Y599694D01*
X324866Y600710D01*
X325882Y601726D01*
Y602742D01*
X324866D01*
X323850Y601726D01*
X322834Y602742D01*
X321818D01*
Y601726D01*
X322834Y600710D01*
X321818Y599694D01*
Y598678D01*
X319278Y544068D02*
X320294D01*
X321310Y545084D01*
X322326Y544068D01*
X323342D01*
Y545084D01*
X322326Y546100D01*
X323342Y547116D01*
Y548132D01*
X322326D01*
X321310Y547116D01*
X320294Y548132D01*
X319278D01*
Y547116D01*
X320294Y546100D01*
X319278Y545084D01*
Y544068D01*
X371348Y373888D02*
X372364D01*
X373380Y374904D01*
X374396Y373888D01*
X375412D01*
Y374904D01*
X374396Y375920D01*
X375412Y376936D01*
Y377952D01*
X374396D01*
X373380Y376936D01*
X372364Y377952D01*
X371348D01*
Y376936D01*
X372364Y375920D01*
X371348Y374904D01*
Y373888D01*
X338328Y356108D02*
X339344D01*
X340360Y357124D01*
X341376Y356108D01*
X342392D01*
Y357124D01*
X341376Y358140D01*
X342392Y359156D01*
Y360172D01*
X341376D01*
X340360Y359156D01*
X339344Y360172D01*
X338328D01*
Y359156D01*
X339344Y358140D01*
X338328Y357124D01*
Y356108D01*
X334518Y373668D02*
X335534D01*
X336550Y374684D01*
X337566Y373668D01*
X338582D01*
Y374684D01*
X337566Y375700D01*
X338582Y376716D01*
Y377732D01*
X337566D01*
X336550Y376716D01*
X335534Y377732D01*
X334518D01*
Y376716D01*
X335534Y375700D01*
X334518Y374684D01*
Y373668D01*
X363022Y394964D02*
X364038D01*
X365054Y395980D01*
X366070Y394964D01*
X367086D01*
Y395980D01*
X366070Y396996D01*
X367086Y398012D01*
Y399028D01*
X366070D01*
X365054Y398012D01*
X364038Y399028D01*
X363022D01*
Y398012D01*
X364038Y396996D01*
X363022Y395980D01*
Y394964D01*
X334518Y678688D02*
X335534D01*
X336550Y679704D01*
X337566Y678688D01*
X338582D01*
Y679704D01*
X337566Y680720D01*
X338582Y681736D01*
Y682752D01*
X337566D01*
X336550Y681736D01*
X335534Y682752D01*
X334518D01*
Y681736D01*
X335534Y680720D01*
X334518Y679704D01*
Y678688D01*
X633568Y399123D02*
X634584D01*
X635600Y400139D01*
X636616Y399123D01*
X637632D01*
Y400139D01*
X636616Y401155D01*
X637632Y402171D01*
Y403187D01*
X636616D01*
X635600Y402171D01*
X634584Y403187D01*
X633568D01*
Y402171D01*
X634584Y401155D01*
X633568Y400139D01*
Y399123D01*
X231648Y160528D02*
X232664D01*
X233680Y161544D01*
X234696Y160528D01*
X235712D01*
Y161544D01*
X234696Y162560D01*
X235712Y163576D01*
Y164592D01*
X234696D01*
X233680Y163576D01*
X232664Y164592D01*
X231648D01*
Y163576D01*
X232664Y162560D01*
X231648Y161544D01*
Y160528D01*
X847598Y128778D02*
X848614D01*
X849630Y129794D01*
X850646Y128778D01*
X851662D01*
Y129794D01*
X850646Y130810D01*
X851662Y131826D01*
Y132842D01*
X850646D01*
X849630Y131826D01*
X848614Y132842D01*
X847598D01*
Y131826D01*
X848614Y130810D01*
X847598Y129794D01*
Y128778D01*
X685038Y523748D02*
X686054D01*
X687070Y524764D01*
X688086Y523748D01*
X689102D01*
Y524764D01*
X688086Y525780D01*
X689102Y526796D01*
Y527812D01*
X688086D01*
X687070Y526796D01*
X686054Y527812D01*
X685038D01*
Y526796D01*
X686054Y525780D01*
X685038Y524764D01*
Y523748D01*
X271018Y160528D02*
X272034D01*
X273050Y161544D01*
X274066Y160528D01*
X275082D01*
Y161544D01*
X274066Y162560D01*
X275082Y163576D01*
Y164592D01*
X274066D01*
X273050Y163576D01*
X272034Y164592D01*
X271018D01*
Y163576D01*
X272034Y162560D01*
X271018Y161544D01*
Y160528D01*
X247428Y300370D02*
X248444D01*
X249460Y301386D01*
X250476Y300370D01*
X251492D01*
Y301386D01*
X250476Y302402D01*
X251492Y303418D01*
Y304434D01*
X250476D01*
X249460Y303418D01*
X248444Y304434D01*
X247428D01*
Y303418D01*
X248444Y302402D01*
X247428Y301386D01*
Y300370D01*
X334518Y472948D02*
X335534D01*
X336550Y473964D01*
X337566Y472948D01*
X338582D01*
Y473964D01*
X337566Y474980D01*
X338582Y475996D01*
Y477012D01*
X337566D01*
X336550Y475996D01*
X335534Y477012D01*
X334518D01*
Y475996D01*
X335534Y474980D01*
X334518Y473964D01*
Y472948D01*
X588518Y409448D02*
X589534D01*
X590550Y410464D01*
X591566Y409448D01*
X592582D01*
Y410464D01*
X591566Y411480D01*
X592582Y412496D01*
Y413512D01*
X591566D01*
X590550Y412496D01*
X589534Y413512D01*
X588518D01*
Y412496D01*
X589534Y411480D01*
X588518Y410464D01*
Y409448D01*
X352298Y221488D02*
X353314D01*
X354330Y222504D01*
X355346Y221488D01*
X356362D01*
Y222504D01*
X355346Y223520D01*
X356362Y224536D01*
Y225552D01*
X355346D01*
X354330Y224536D01*
X353314Y225552D01*
X352298D01*
Y224536D01*
X353314Y223520D01*
X352298Y222504D01*
Y221488D01*
X979018Y492652D02*
X980034D01*
X981050Y493668D01*
X982066Y492652D01*
X983082D01*
Y493668D01*
X982066Y494684D01*
X983082Y495700D01*
Y496716D01*
X982066D01*
X981050Y495700D01*
X980034Y496716D01*
X979018D01*
Y495700D01*
X980034Y494684D01*
X979018Y493668D01*
Y492652D01*
X368808Y409448D02*
X369824D01*
X370840Y410464D01*
X371856Y409448D01*
X372872D01*
Y410464D01*
X371856Y411480D01*
X372872Y412496D01*
Y413512D01*
X371856D01*
X370840Y412496D01*
X369824Y413512D01*
X368808D01*
Y412496D01*
X369824Y411480D01*
X368808Y410464D01*
Y409448D01*
X658368Y759968D02*
X659384D01*
X660400Y760984D01*
X661416Y759968D01*
X662432D01*
Y760984D01*
X661416Y762000D01*
X662432Y763016D01*
Y764032D01*
X661416D01*
X660400Y763016D01*
X659384Y764032D01*
X658368D01*
Y763016D01*
X659384Y762000D01*
X658368Y760984D01*
Y759968D01*
X191008Y290068D02*
X192024D01*
X193040Y291084D01*
X194056Y290068D01*
X195072D01*
Y291084D01*
X194056Y292100D01*
X195072Y293116D01*
Y294132D01*
X194056D01*
X193040Y293116D01*
X192024Y294132D01*
X191008D01*
Y293116D01*
X192024Y292100D01*
X191008Y291084D01*
Y290068D01*
X241808Y250698D02*
X242824D01*
X243840Y251714D01*
X244856Y250698D01*
X245872D01*
Y251714D01*
X244856Y252730D01*
X245872Y253746D01*
Y254762D01*
X244856D01*
X243840Y253746D01*
X242824Y254762D01*
X241808D01*
Y253746D01*
X242824Y252730D01*
X241808Y251714D01*
Y250698D01*
X759968Y191008D02*
X760984D01*
X762000Y192024D01*
X763016Y191008D01*
X764032D01*
Y192024D01*
X763016Y193040D01*
X764032Y194056D01*
Y195072D01*
X763016D01*
X762000Y194056D01*
X760984Y195072D01*
X759968D01*
Y194056D01*
X760984Y193040D01*
X759968Y192024D01*
Y191008D01*
X897228D02*
X898244D01*
X899260Y192024D01*
X900276Y191008D01*
X901292D01*
Y192024D01*
X900276Y193040D01*
X901292Y194056D01*
Y195072D01*
X900276D01*
X899260Y194056D01*
X898244Y195072D01*
X897228D01*
Y194056D01*
X898244Y193040D01*
X897228Y192024D01*
Y191008D01*
X599836Y477916D02*
X600852D01*
X601868Y478932D01*
X602884Y477916D01*
X603900D01*
Y478932D01*
X602884Y479948D01*
X603900Y480964D01*
Y481980D01*
X602884D01*
X601868Y480964D01*
X600852Y481980D01*
X599836D01*
Y480964D01*
X600852Y479948D01*
X599836Y478932D01*
Y477916D01*
X290068Y112268D02*
X291084D01*
X292100Y113284D01*
X293116Y112268D01*
X294132D01*
Y113284D01*
X293116Y114300D01*
X294132Y115316D01*
Y116332D01*
X293116D01*
X292100Y115316D01*
X291084Y116332D01*
X290068D01*
Y115316D01*
X291084Y114300D01*
X290068Y113284D01*
Y112268D01*
X220218Y372618D02*
X221234D01*
X222250Y373634D01*
X223266Y372618D01*
X224282D01*
Y373634D01*
X223266Y374650D01*
X224282Y375666D01*
Y376682D01*
X223266D01*
X222250Y375666D01*
X221234Y376682D01*
X220218D01*
Y375666D01*
X221234Y374650D01*
X220218Y373634D01*
Y372618D01*
X588518Y493268D02*
X589534D01*
X590550Y494284D01*
X591566Y493268D01*
X592582D01*
Y494284D01*
X591566Y495300D01*
X592582Y496316D01*
Y497332D01*
X591566D01*
X590550Y496316D01*
X589534Y497332D01*
X588518D01*
Y496316D01*
X589534Y495300D01*
X588518Y494284D01*
Y493268D01*
X583100Y433916D02*
X584116D01*
X585132Y434932D01*
X586148Y433916D01*
X587164D01*
Y434932D01*
X586148Y435948D01*
X587164Y436964D01*
Y437980D01*
X586148D01*
X585132Y436964D01*
X584116Y437980D01*
X583100D01*
Y436964D01*
X584116Y435948D01*
X583100Y434932D01*
Y433916D01*
X569829Y420645D02*
X570845D01*
X571861Y421661D01*
X572877Y420645D01*
X573893D01*
Y421661D01*
X572877Y422677D01*
X573893Y423693D01*
Y424709D01*
X572877D01*
X571861Y423693D01*
X570845Y424709D01*
X569829D01*
Y423693D01*
X570845Y422677D01*
X569829Y421661D01*
Y420645D01*
X432308Y395478D02*
X433324D01*
X434340Y396494D01*
X435356Y395478D01*
X436372D01*
Y396494D01*
X435356Y397510D01*
X436372Y398526D01*
Y399542D01*
X435356D01*
X434340Y398526D01*
X433324Y399542D01*
X432308D01*
Y398526D01*
X433324Y397510D01*
X432308Y396494D01*
Y395478D01*
X429768Y376428D02*
X430784D01*
X431800Y377444D01*
X432816Y376428D01*
X433832D01*
Y377444D01*
X432816Y378460D01*
X433832Y379476D01*
Y380492D01*
X432816D01*
X431800Y379476D01*
X430784Y380492D01*
X429768D01*
Y379476D01*
X430784Y378460D01*
X429768Y377444D01*
Y376428D01*
X604458Y538449D02*
X605474D01*
X606490Y539465D01*
X607506Y538449D01*
X608522D01*
Y539465D01*
X607506Y540481D01*
X608522Y541497D01*
Y542513D01*
X607506D01*
X606490Y541497D01*
X605474Y542513D01*
X604458D01*
Y541497D01*
X605474Y540481D01*
X604458Y539465D01*
Y538449D01*
X192278Y328168D02*
X193294D01*
X194310Y329184D01*
X195326Y328168D01*
X196342D01*
Y329184D01*
X195326Y330200D01*
X196342Y331216D01*
Y332232D01*
X195326D01*
X194310Y331216D01*
X193294Y332232D01*
X192278D01*
Y331216D01*
X193294Y330200D01*
X192278Y329184D01*
Y328168D01*
X661866Y671475D02*
X662882D01*
X663898Y672491D01*
X664914Y671475D01*
X665930D01*
Y672491D01*
X664914Y673507D01*
X665930Y674523D01*
Y675539D01*
X664914D01*
X663898Y674523D01*
X662882Y675539D01*
X661866D01*
Y674523D01*
X662882Y673507D01*
X661866Y672491D01*
Y671475D01*
X658368Y686308D02*
X659384D01*
X660400Y687324D01*
X661416Y686308D01*
X662432D01*
Y687324D01*
X661416Y688340D01*
X662432Y689356D01*
Y690372D01*
X661416D01*
X660400Y689356D01*
X659384Y690372D01*
X658368D01*
Y689356D01*
X659384Y688340D01*
X658368Y687324D01*
Y686308D01*
X630822Y758018D02*
X631838D01*
X632854Y759034D01*
X633870Y758018D01*
X634886D01*
Y759034D01*
X633870Y760050D01*
X634886Y761066D01*
Y762082D01*
X633870D01*
X632854Y761066D01*
X631838Y762082D01*
X630822D01*
Y761066D01*
X631838Y760050D01*
X630822Y759034D01*
Y758018D01*
X621538Y744728D02*
X622554D01*
X623570Y745744D01*
X624586Y744728D01*
X625602D01*
Y745744D01*
X624586Y746760D01*
X625602Y747776D01*
Y748792D01*
X624586D01*
X623570Y747776D01*
X622554Y748792D01*
X621538D01*
Y747776D01*
X622554Y746760D01*
X621538Y745744D01*
Y744728D01*
X596918Y753979D02*
X597934D01*
X598950Y754995D01*
X599966Y753979D01*
X600982D01*
Y754995D01*
X599966Y756011D01*
X600982Y757027D01*
Y758043D01*
X599966D01*
X598950Y757027D01*
X597934Y758043D01*
X596918D01*
Y757027D01*
X597934Y756011D01*
X596918Y754995D01*
Y753979D01*
X571733Y750083D02*
X572749D01*
X573765Y751099D01*
X574781Y750083D01*
X575797D01*
Y751099D01*
X574781Y752115D01*
X575797Y753131D01*
Y754147D01*
X574781D01*
X573765Y753131D01*
X572749Y754147D01*
X571733D01*
Y753131D01*
X572749Y752115D01*
X571733Y751099D01*
Y750083D01*
X599141Y423622D02*
X600157D01*
X601173Y424638D01*
X602189Y423622D01*
X603205D01*
Y424638D01*
X602189Y425654D01*
X603205Y426670D01*
Y427686D01*
X602189D01*
X601173Y426670D01*
X600157Y427686D01*
X599141D01*
Y426670D01*
X600157Y425654D01*
X599141Y424638D01*
Y423622D01*
X258318Y361188D02*
X259334D01*
X260350Y362204D01*
X261366Y361188D01*
X262382D01*
Y362204D01*
X261366Y363220D01*
X262382Y364236D01*
Y365252D01*
X261366D01*
X260350Y364236D01*
X259334Y365252D01*
X258318D01*
Y364236D01*
X259334Y363220D01*
X258318Y362204D01*
Y361188D01*
X235776Y361506D02*
X236791D01*
X237808Y362522D01*
X238824Y361506D01*
X239839D01*
Y362522D01*
X238824Y363537D01*
X239839Y364553D01*
Y365569D01*
X238824D01*
X237808Y364553D01*
X236791Y365569D01*
X235776D01*
Y364553D01*
X236791Y363537D01*
X235776Y362522D01*
Y361506D01*
X234207Y312094D02*
X235224D01*
X236239Y313110D01*
X237255Y312094D01*
X238272D01*
Y313110D01*
X237255Y314126D01*
X238272Y315142D01*
Y316158D01*
X237255D01*
X236239Y315142D01*
X235224Y316158D01*
X234207D01*
Y315142D01*
X235224Y314126D01*
X234207Y313110D01*
Y312094D01*
X696468Y615188D02*
X697484D01*
X698500Y616204D01*
X699516Y615188D01*
X700532D01*
Y616204D01*
X699516Y617220D01*
X700532Y618236D01*
Y619252D01*
X699516D01*
X698500Y618236D01*
X697484Y619252D01*
X696468D01*
Y618236D01*
X697484Y617220D01*
X696468Y616204D01*
Y615188D01*
X629158Y65278D02*
X630174D01*
X631190Y66294D01*
X632206Y65278D01*
X633222D01*
Y66294D01*
X632206Y67310D01*
X633222Y68326D01*
Y69342D01*
X632206D01*
X631190Y68326D01*
X630174Y69342D01*
X629158D01*
Y68326D01*
X630174Y67310D01*
X629158Y66294D01*
Y65278D01*
X246888Y320548D02*
X247904D01*
X248920Y321564D01*
X249936Y320548D01*
X250952D01*
Y321564D01*
X249936Y322580D01*
X250952Y323596D01*
Y324612D01*
X249936D01*
X248920Y323596D01*
X247904Y324612D01*
X246888D01*
Y323596D01*
X247904Y322580D01*
X246888Y321564D01*
Y320548D01*
X251968Y636610D02*
X252984D01*
X254000Y637626D01*
X255016Y636610D01*
X256032D01*
Y637626D01*
X255016Y638642D01*
X256032Y639658D01*
Y640674D01*
X255016D01*
X254000Y639658D01*
X252984Y640674D01*
X251968D01*
Y639658D01*
X252984Y638642D01*
X251968Y637626D01*
Y636610D01*
X571730Y592184D02*
X572746D01*
X573762Y593200D01*
X574778Y592184D01*
X575794D01*
Y593200D01*
X574778Y594216D01*
X575794Y595232D01*
Y596248D01*
X574778D01*
X573762Y595232D01*
X572746Y596248D01*
X571730D01*
Y595232D01*
X572746Y594216D01*
X571730Y593200D01*
Y592184D01*
X574183Y576994D02*
X575199D01*
X576215Y578010D01*
X577231Y576994D01*
X578247D01*
Y578010D01*
X577231Y579026D01*
X578247Y580042D01*
Y581058D01*
X577231D01*
X576215Y580042D01*
X575199Y581058D01*
X574183D01*
Y580042D01*
X575199Y579026D01*
X574183Y578010D01*
Y576994D01*
X549148Y601218D02*
X550164D01*
X551180Y602234D01*
X552196Y601218D01*
X553212D01*
Y602234D01*
X552196Y603250D01*
X553212Y604266D01*
Y605282D01*
X552196D01*
X551180Y604266D01*
X550164Y605282D01*
X549148D01*
Y604266D01*
X550164Y603250D01*
X549148Y602234D01*
Y601218D01*
X907288Y113538D02*
X908304D01*
X909320Y114554D01*
X910336Y113538D01*
X911352D01*
Y114554D01*
X910336Y115570D01*
X911352Y116586D01*
Y117602D01*
X910336D01*
X909320Y116586D01*
X908304Y117602D01*
X907288D01*
Y116586D01*
X908304Y115570D01*
X907288Y114554D01*
Y113538D01*
X893318Y135128D02*
X894334D01*
X895350Y136144D01*
X896366Y135128D01*
X897382D01*
Y136144D01*
X896366Y137160D01*
X897382Y138176D01*
Y139192D01*
X896366D01*
X895350Y138176D01*
X894334Y139192D01*
X893318D01*
Y138176D01*
X894334Y137160D01*
X893318Y136144D01*
Y135128D01*
X555498Y117348D02*
X556514D01*
X557530Y118364D01*
X558546Y117348D01*
X559562D01*
Y118364D01*
X558546Y119380D01*
X559562Y120396D01*
Y121412D01*
X558546D01*
X557530Y120396D01*
X556514Y121412D01*
X555498D01*
Y120396D01*
X556514Y119380D01*
X555498Y118364D01*
Y117348D01*
X333248Y512318D02*
X334264D01*
X335280Y513334D01*
X336296Y512318D01*
X337312D01*
Y513334D01*
X336296Y514350D01*
X337312Y515366D01*
Y516382D01*
X336296D01*
X335280Y515366D01*
X334264Y516382D01*
X333248D01*
Y515366D01*
X334264Y514350D01*
X333248Y513334D01*
Y512318D01*
X323088Y579628D02*
X324104D01*
X325120Y580644D01*
X326136Y579628D01*
X327152D01*
Y580644D01*
X326136Y581660D01*
X327152Y582676D01*
Y583692D01*
X326136D01*
X325120Y582676D01*
X324104Y583692D01*
X323088D01*
Y582676D01*
X324104Y581660D01*
X323088Y580644D01*
Y579628D01*
X271018Y100184D02*
X272034D01*
X273050Y101200D01*
X274066Y100184D01*
X275082D01*
Y101200D01*
X274066Y102216D01*
X275082Y103232D01*
Y104248D01*
X274066D01*
X273050Y103232D01*
X272034Y104248D01*
X271018D01*
Y103232D01*
X272034Y102216D01*
X271018Y101200D01*
Y100184D01*
X305943Y199263D02*
X306959D01*
X307975Y200279D01*
X308991Y199263D01*
X310007D01*
Y200279D01*
X308991Y201295D01*
X310007Y202311D01*
Y203327D01*
X308991D01*
X307975Y202311D01*
X306959Y203327D01*
X305943D01*
Y202311D01*
X306959Y201295D01*
X305943Y200279D01*
Y199263D01*
X771239Y694524D02*
X772255D01*
X773271Y695540D01*
X774287Y694524D01*
X775303D01*
Y695540D01*
X774287Y696556D01*
X775303Y697572D01*
Y698588D01*
X774287D01*
X773271Y697572D01*
X772255Y698588D01*
X771239D01*
Y697572D01*
X772255Y696556D01*
X771239Y695540D01*
Y694524D01*
X239268Y429768D02*
X240284D01*
X241300Y430784D01*
X242316Y429768D01*
X243332D01*
Y430784D01*
X242316Y431800D01*
X243332Y432816D01*
Y433832D01*
X242316D01*
X241300Y432816D01*
X240284Y433832D01*
X239268D01*
Y432816D01*
X240284Y431800D01*
X239268Y430784D01*
Y429768D01*
X293878Y413258D02*
X294894D01*
X295910Y414274D01*
X296926Y413258D01*
X297942D01*
Y414274D01*
X296926Y415290D01*
X297942Y416306D01*
Y417322D01*
X296926D01*
X295910Y416306D01*
X294894Y417322D01*
X293878D01*
Y416306D01*
X294894Y415290D01*
X293878Y414274D01*
Y413258D01*
X459027Y142699D02*
X460043D01*
X461059Y143715D01*
X462075Y142699D01*
X463091D01*
Y143715D01*
X462075Y144731D01*
X463091Y145747D01*
Y146763D01*
X462075D01*
X461059Y145747D01*
X460043Y146763D01*
X459027D01*
Y145747D01*
X460043Y144731D01*
X459027Y143715D01*
Y142699D01*
X221488Y213868D02*
X222504D01*
X223520Y214884D01*
X224536Y213868D01*
X225552D01*
Y214884D01*
X224536Y215900D01*
X225552Y216916D01*
Y217932D01*
X224536D01*
X223520Y216916D01*
X222504Y217932D01*
X221488D01*
Y216916D01*
X222504Y215900D01*
X221488Y214884D01*
Y213868D01*
X754380Y648716D02*
X755396D01*
X756412Y649732D01*
X757428Y648716D01*
X758444D01*
Y649732D01*
X757428Y650748D01*
X758444Y651764D01*
Y652780D01*
X757428D01*
X756412Y651764D01*
X755396Y652780D01*
X754380D01*
Y651764D01*
X755396Y650748D01*
X754380Y649732D01*
Y648716D01*
X782320Y642785D02*
X783336D01*
X784352Y643801D01*
X785368Y642785D01*
X786384D01*
Y643801D01*
X785368Y644817D01*
X786384Y645833D01*
Y646849D01*
X785368D01*
X784352Y645833D01*
X783336Y646849D01*
X782320D01*
Y645833D01*
X783336Y644817D01*
X782320Y643801D01*
Y642785D01*
X286258Y312928D02*
X287274D01*
X288290Y313944D01*
X289306Y312928D01*
X290322D01*
Y313944D01*
X289306Y314960D01*
X290322Y315976D01*
Y316992D01*
X289306D01*
X288290Y315976D01*
X287274Y316992D01*
X286258D01*
Y315976D01*
X287274Y314960D01*
X286258Y313944D01*
Y312928D01*
X545338Y730758D02*
X546354D01*
X547370Y731774D01*
X548386Y730758D01*
X549402D01*
Y731774D01*
X548386Y732790D01*
X549402Y733806D01*
Y734822D01*
X548386D01*
X547370Y733806D01*
X546354Y734822D01*
X545338D01*
Y733806D01*
X546354Y732790D01*
X545338Y731774D01*
Y730758D01*
X660706Y703663D02*
X661722D01*
X662738Y704679D01*
X663754Y703663D01*
X664770D01*
Y704679D01*
X663754Y705695D01*
X664770Y706711D01*
Y707727D01*
X663754D01*
X662738Y706711D01*
X661722Y707727D01*
X660706D01*
Y706711D01*
X661722Y705695D01*
X660706Y704679D01*
Y703663D01*
X258318Y116078D02*
X259334D01*
X260350Y117094D01*
X261366Y116078D01*
X262382D01*
Y117094D01*
X261366Y118110D01*
X262382Y119126D01*
Y120142D01*
X261366D01*
X260350Y119126D01*
X259334Y120142D01*
X258318D01*
Y119126D01*
X259334Y118110D01*
X258318Y117094D01*
Y116078D01*
D95*
X864742Y813583D02*
G03*
X864742Y813583I-2032J0D01*
G01*
X729742D02*
G03*
X729742Y813583I-2032J0D01*
G01*
M02*
