G04*
G04 #@! TF.GenerationSoftware,Altium Limited,Altium Designer,22.8.2 (66)*
G04*
G04 Layer_Color=8388736*
%FSLAX44Y44*%
%MOMM*%
G71*
G04*
G04 #@! TF.SameCoordinates,9714C633-81E7-4BB1-B996-9AD4BBD72758*
G04*
G04*
G04 #@! TF.FilePolarity,Negative*
G04*
G01*
G75*
%ADD23R,0.8128X0.2540*%
%ADD24R,1.7526X2.4892*%
%ADD27R,1.1750X1.9000*%
%ADD28R,1.4750X2.1000*%
%ADD29R,2.3750X1.9000*%
%ADD30R,0.4500X1.3800*%
%ADD32R,1.7000X0.8000*%
%ADD34R,1.0032X1.1032*%
%ADD35R,1.1032X1.0032*%
%ADD36R,0.8532X1.7282*%
%ADD37C,1.7272*%
%ADD38R,1.1032X1.3032*%
%ADD39R,0.8032X1.4032*%
G04:AMPARAMS|DCode=40|XSize=1.4132mm|YSize=0.6832mm|CornerRadius=0.1616mm|HoleSize=0mm|Usage=FLASHONLY|Rotation=90.000|XOffset=0mm|YOffset=0mm|HoleType=Round|Shape=RoundedRectangle|*
%AMROUNDEDRECTD40*
21,1,1.4132,0.3600,0,0,90.0*
21,1,1.0900,0.6832,0,0,90.0*
1,1,0.3232,0.1800,0.5450*
1,1,0.3232,0.1800,-0.5450*
1,1,0.3232,-0.1800,-0.5450*
1,1,0.3232,-0.1800,0.5450*
%
%ADD40ROUNDEDRECTD40*%
G04:AMPARAMS|DCode=41|XSize=2.1732mm|YSize=0.7932mm|CornerRadius=0.1754mm|HoleSize=0mm|Usage=FLASHONLY|Rotation=90.000|XOffset=0mm|YOffset=0mm|HoleType=Round|Shape=RoundedRectangle|*
%AMROUNDEDRECTD41*
21,1,2.1732,0.4425,0,0,90.0*
21,1,1.8225,0.7932,0,0,90.0*
1,1,0.3507,0.2213,0.9113*
1,1,0.3507,0.2213,-0.9113*
1,1,0.3507,-0.2213,-0.9113*
1,1,0.3507,-0.2213,0.9113*
%
%ADD41ROUNDEDRECTD41*%
%ADD42R,0.7532X1.2652*%
%ADD43R,1.1032X1.6032*%
G04:AMPARAMS|DCode=44|XSize=1.6732mm|YSize=0.4832mm|CornerRadius=0.1366mm|HoleSize=0mm|Usage=FLASHONLY|Rotation=270.000|XOffset=0mm|YOffset=0mm|HoleType=Round|Shape=RoundedRectangle|*
%AMROUNDEDRECTD44*
21,1,1.6732,0.2100,0,0,270.0*
21,1,1.4000,0.4832,0,0,270.0*
1,1,0.2732,-0.1050,-0.7000*
1,1,0.2732,-0.1050,0.7000*
1,1,0.2732,0.1050,0.7000*
1,1,0.2732,0.1050,-0.7000*
%
%ADD44ROUNDEDRECTD44*%
%ADD45C,1.7032*%
%ADD46R,1.7032X1.7032*%
%ADD47C,1.5842*%
%ADD48R,1.7032X1.7032*%
%ADD49C,1.5032*%
%ADD50R,1.7782X1.7782*%
%ADD51C,1.7782*%
%ADD52C,2.6032*%
%ADD53C,1.4732*%
D23*
X322072Y401060D02*
D03*
Y396060D02*
D03*
Y391060D02*
D03*
Y386060D02*
D03*
Y381060D02*
D03*
X351028D02*
D03*
Y386060D02*
D03*
Y391060D02*
D03*
Y396060D02*
D03*
Y401060D02*
D03*
D24*
X336550Y391060D02*
D03*
D27*
X580900Y806585D02*
D03*
X597650D02*
D03*
D28*
X613900Y783584D02*
D03*
X564650D02*
D03*
D29*
X560150Y806585D02*
D03*
X618401D02*
D03*
D30*
X582776Y779985D02*
D03*
X589275D02*
D03*
X602275D02*
D03*
X595775D02*
D03*
X576275D02*
D03*
D32*
X406306Y447820D02*
D03*
Y481820D02*
D03*
D34*
X951880Y467360D02*
D03*
X937880D02*
D03*
X309260Y255270D02*
D03*
X295260D02*
D03*
X297830Y363120D02*
D03*
X283830D02*
D03*
X240650Y271034D02*
D03*
X254650D02*
D03*
X325770Y425350D02*
D03*
X311770D02*
D03*
X176160Y690880D02*
D03*
X162160D02*
D03*
X657111Y749294D02*
D03*
X643110D02*
D03*
X859170Y316230D02*
D03*
X845170D02*
D03*
X830050Y463550D02*
D03*
X844050D02*
D03*
X793100Y461772D02*
D03*
X807100D02*
D03*
X844020Y430530D02*
D03*
X858020D02*
D03*
X805800Y440690D02*
D03*
X819800D02*
D03*
X270323Y731148D02*
D03*
X256323D02*
D03*
X271161Y746760D02*
D03*
X257160D02*
D03*
D35*
X204903Y559728D02*
D03*
Y545728D02*
D03*
X306070Y314240D02*
D03*
Y300240D02*
D03*
X374650Y312067D02*
D03*
Y326067D02*
D03*
X241300Y210689D02*
D03*
Y224689D02*
D03*
X306070Y173859D02*
D03*
Y187859D02*
D03*
X207010Y206879D02*
D03*
Y220879D02*
D03*
X374650Y353610D02*
D03*
Y339610D02*
D03*
X300990Y396860D02*
D03*
Y410860D02*
D03*
X560070Y472440D02*
D03*
Y486440D02*
D03*
X541020Y472440D02*
D03*
Y486440D02*
D03*
X521970Y472440D02*
D03*
Y486440D02*
D03*
X579120Y457200D02*
D03*
Y443200D02*
D03*
X502920Y457200D02*
D03*
Y443200D02*
D03*
X560070Y457200D02*
D03*
Y443200D02*
D03*
X502920Y472440D02*
D03*
Y486440D02*
D03*
X541020Y457200D02*
D03*
Y443200D02*
D03*
X521970Y457200D02*
D03*
Y443200D02*
D03*
X881380Y393842D02*
D03*
Y379842D02*
D03*
X800100Y320690D02*
D03*
Y306690D02*
D03*
X191770Y743570D02*
D03*
Y757570D02*
D03*
X190500Y782940D02*
D03*
Y796940D02*
D03*
X369570Y459090D02*
D03*
Y473090D02*
D03*
X351790Y473090D02*
D03*
Y459090D02*
D03*
X822960Y306690D02*
D03*
Y320690D02*
D03*
X861837Y382412D02*
D03*
Y368412D02*
D03*
X322579Y630570D02*
D03*
Y616570D02*
D03*
X298075Y616848D02*
D03*
Y630848D02*
D03*
X273136D02*
D03*
Y616848D02*
D03*
X263323Y459368D02*
D03*
Y473368D02*
D03*
X249353Y459368D02*
D03*
Y473368D02*
D03*
X235383D02*
D03*
Y459368D02*
D03*
X227763Y588288D02*
D03*
Y574288D02*
D03*
X241733Y745520D02*
D03*
Y731520D02*
D03*
X260667Y588288D02*
D03*
Y574288D02*
D03*
X310543Y588288D02*
D03*
Y574288D02*
D03*
X227190Y731520D02*
D03*
Y745520D02*
D03*
X213220Y574288D02*
D03*
Y588288D02*
D03*
X285606Y574288D02*
D03*
Y588288D02*
D03*
X338253Y631468D02*
D03*
Y617468D02*
D03*
X244273Y588258D02*
D03*
Y602258D02*
D03*
D36*
X298883Y550810D02*
D03*
X286183D02*
D03*
X273483D02*
D03*
X248083D02*
D03*
X235383D02*
D03*
X222683D02*
D03*
Y496570D02*
D03*
X235383D02*
D03*
X248083D02*
D03*
X260783D02*
D03*
X273483D02*
D03*
X286183D02*
D03*
X298883D02*
D03*
X260783Y550810D02*
D03*
X262890Y707840D02*
D03*
X300991Y653600D02*
D03*
X288291D02*
D03*
X275590D02*
D03*
X262890D02*
D03*
X250191D02*
D03*
X237491D02*
D03*
X224790D02*
D03*
Y707840D02*
D03*
X237491D02*
D03*
X250191D02*
D03*
X275590D02*
D03*
X288291D02*
D03*
X300991D02*
D03*
X250190Y344197D02*
D03*
X288290Y289957D02*
D03*
X275590D02*
D03*
X262890D02*
D03*
X250190D02*
D03*
X237490D02*
D03*
X224790D02*
D03*
X212090D02*
D03*
Y344197D02*
D03*
X224790D02*
D03*
X237490D02*
D03*
X262890D02*
D03*
X275590D02*
D03*
X288290D02*
D03*
D37*
X177800Y222250D02*
D03*
X313690Y462280D02*
D03*
X25400Y27940D02*
D03*
X1068070Y26670D02*
D03*
X1069340Y844550D02*
D03*
X26670Y845820D02*
D03*
D38*
X277160Y405520D02*
D03*
X264160D02*
D03*
X277160Y388520D02*
D03*
X264160D02*
D03*
D39*
X258470Y253050D02*
D03*
X277470D02*
D03*
Y228050D02*
D03*
X267970D02*
D03*
X258470D02*
D03*
D40*
X325530Y268990D02*
D03*
X332030D02*
D03*
X338530D02*
D03*
X345030D02*
D03*
Y243890D02*
D03*
X338530D02*
D03*
X332030D02*
D03*
X325530D02*
D03*
X324970Y339960D02*
D03*
X331470D02*
D03*
X337970D02*
D03*
X344470D02*
D03*
Y314860D02*
D03*
X337970D02*
D03*
X331470D02*
D03*
X324970D02*
D03*
D41*
X247650Y185289D02*
D03*
X260350D02*
D03*
X273050D02*
D03*
X285750D02*
D03*
Y135790D02*
D03*
X273050D02*
D03*
X260350D02*
D03*
X247650D02*
D03*
X840740Y345748D02*
D03*
X828040D02*
D03*
X815340D02*
D03*
X802640D02*
D03*
Y395248D02*
D03*
X815340D02*
D03*
X828040D02*
D03*
X840740D02*
D03*
D42*
X207010Y239329D02*
D03*
Y262090D02*
D03*
D43*
X949350Y488950D02*
D03*
X968350D02*
D03*
D44*
X331903Y660118D02*
D03*
X341903D02*
D03*
X336903D02*
D03*
X326903D02*
D03*
X321903D02*
D03*
Y703118D02*
D03*
X326903D02*
D03*
X331903D02*
D03*
X336903D02*
D03*
X341903D02*
D03*
D45*
X500380Y843280D02*
D03*
Y817880D02*
D03*
Y792480D02*
D03*
X798210Y719358D02*
D03*
X764540Y751840D02*
D03*
X739140D02*
D03*
X713740D02*
D03*
X688340D02*
D03*
X654050Y271780D02*
D03*
X628650D02*
D03*
X433070Y273783D02*
D03*
X458470D02*
D03*
X280670Y805180D02*
D03*
X458470D02*
D03*
X433070D02*
D03*
X407670D02*
D03*
X382270D02*
D03*
X356870D02*
D03*
X331470D02*
D03*
X306070D02*
D03*
X255270D02*
D03*
X831850Y257810D02*
D03*
X857250D02*
D03*
X882650D02*
D03*
X636270Y326390D02*
D03*
X585470D02*
D03*
X560070D02*
D03*
X534670D02*
D03*
X509270D02*
D03*
X483870D02*
D03*
X458470D02*
D03*
X433070D02*
D03*
X610870D02*
D03*
X407670Y181610D02*
D03*
X533400Y273050D02*
D03*
X558800D02*
D03*
X165666Y795020D02*
D03*
Y769620D02*
D03*
Y744220D02*
D03*
X877570Y670560D02*
D03*
X910590Y472440D02*
D03*
X859790Y558800D02*
D03*
Y533400D02*
D03*
X713740Y191770D02*
D03*
Y166370D02*
D03*
X887730Y623570D02*
D03*
X862330D02*
D03*
X933450Y556260D02*
D03*
Y530860D02*
D03*
X563880Y85090D02*
D03*
X589280D02*
D03*
X895350Y557530D02*
D03*
Y532130D02*
D03*
X278130Y843280D02*
D03*
X430530D02*
D03*
X405130D02*
D03*
X379730D02*
D03*
X354330D02*
D03*
X328930D02*
D03*
X303530D02*
D03*
X252730D02*
D03*
X455930D02*
D03*
D46*
X500380Y767080D02*
D03*
X798210Y693958D02*
D03*
X165666Y718820D02*
D03*
X877570Y695960D02*
D03*
X910590Y447040D02*
D03*
X859790Y584200D02*
D03*
X713740Y217170D02*
D03*
X933450Y581660D02*
D03*
X895350Y582930D02*
D03*
D47*
X862710Y813583D02*
D03*
X727710D02*
D03*
D48*
X789940Y751840D02*
D03*
X679450Y271780D02*
D03*
X483870Y273783D02*
D03*
X229870Y805180D02*
D03*
X908050Y257810D02*
D03*
X661670Y326390D02*
D03*
X433070Y181610D02*
D03*
X584200Y273050D02*
D03*
X913130Y623570D02*
D03*
X538480Y85090D02*
D03*
X227330Y843280D02*
D03*
D49*
X899780Y67310D02*
D03*
X879780D02*
D03*
X859780D02*
D03*
X839780D02*
D03*
X819780D02*
D03*
X799780D02*
D03*
X779780D02*
D03*
X759780D02*
D03*
Y207310D02*
D03*
X779780D02*
D03*
X799780D02*
D03*
X819780D02*
D03*
X839780D02*
D03*
X859780D02*
D03*
X879780D02*
D03*
X899780D02*
D03*
D50*
X434340Y92710D02*
D03*
D51*
X409340D02*
D03*
D52*
X708033Y68580D02*
D03*
X657233D02*
D03*
Y119380D02*
D03*
X708033D02*
D03*
X682633Y93980D02*
D03*
D53*
X189230Y200660D02*
D03*
X212667Y188639D02*
D03*
X602367Y443976D02*
D03*
X641350Y707390D02*
D03*
X774700Y678180D02*
D03*
X763270Y449480D02*
D03*
X680720Y468630D02*
D03*
X668020Y502920D02*
D03*
X708917Y501724D02*
D03*
X932180Y480060D02*
D03*
X727710Y492760D02*
D03*
X300862Y689482D02*
D03*
X721360Y610870D02*
D03*
X748030Y692150D02*
D03*
X730250Y585470D02*
D03*
X703580D02*
D03*
X679450D02*
D03*
X654050D02*
D03*
X628650D02*
D03*
X317500Y681990D02*
D03*
X576580Y518160D02*
D03*
X553235Y520670D02*
D03*
X406400Y546100D02*
D03*
X440690Y520670D02*
D03*
X388620Y565150D02*
D03*
X480060Y579120D02*
D03*
X338110Y612430D02*
D03*
X464820Y596900D02*
D03*
X374714Y693484D02*
D03*
X636270Y802640D02*
D03*
X558800Y768350D02*
D03*
X274320Y438150D02*
D03*
X201930Y534670D02*
D03*
X230091Y684546D02*
D03*
X207010Y641350D02*
D03*
X295910Y532130D02*
D03*
X261620D02*
D03*
X237490Y523240D02*
D03*
X288290Y466090D02*
D03*
X302299Y477396D02*
D03*
X394970Y490220D02*
D03*
X382841Y479361D02*
D03*
X436694Y484116D02*
D03*
X289040Y273442D02*
D03*
X403860Y307340D02*
D03*
X364490Y297180D02*
D03*
X405637Y345947D02*
D03*
X394970Y331470D02*
D03*
X332740Y297180D02*
D03*
X347980Y298450D02*
D03*
X331534Y209614D02*
D03*
X359600Y206692D02*
D03*
X313690Y439420D02*
D03*
X309880Y285750D02*
D03*
X307340Y242570D02*
D03*
X303995Y270510D02*
D03*
X429260Y208280D02*
D03*
X375920Y251460D02*
D03*
X393700Y270510D02*
D03*
X439420Y499110D02*
D03*
X488931Y516987D02*
D03*
X848945Y304087D02*
D03*
X825500Y245110D02*
D03*
X601980Y574040D02*
D03*
X437156Y439420D02*
D03*
X478333Y438661D02*
D03*
X578506Y471150D02*
D03*
X567311Y457200D02*
D03*
X603661Y521771D02*
D03*
X350840Y625160D02*
D03*
X492760Y465990D02*
D03*
X480060Y488950D02*
D03*
X617220Y608330D02*
D03*
X600710Y656381D02*
D03*
X483870Y412750D02*
D03*
X643890Y375920D02*
D03*
X504790Y369058D02*
D03*
X439420Y461010D02*
D03*
X208280Y756920D02*
D03*
X593090Y224790D02*
D03*
X756256Y334389D02*
D03*
X635664Y227709D02*
D03*
X784860Y307340D02*
D03*
X751840Y610870D02*
D03*
X655320Y400240D02*
D03*
X259180Y383540D02*
D03*
X248920Y401320D02*
D03*
X387350Y430530D02*
D03*
X568960Y358140D02*
D03*
X508000Y346710D02*
D03*
X353060Y568960D02*
D03*
X355600Y645160D02*
D03*
X285750Y748030D02*
D03*
X318770Y739140D02*
D03*
X342900Y719358D02*
D03*
X516890Y223520D02*
D03*
X834390Y443230D02*
D03*
X323850Y600710D02*
D03*
X321310Y546100D02*
D03*
X373380Y375920D02*
D03*
X340360Y358140D02*
D03*
X336550Y375700D02*
D03*
X365054Y396996D02*
D03*
X336550Y680720D02*
D03*
X635600Y401155D02*
D03*
X233680Y162560D02*
D03*
X849630Y130810D02*
D03*
X687070Y525780D02*
D03*
X273050Y162560D02*
D03*
X249460Y302402D02*
D03*
X336550Y474980D02*
D03*
X590550Y411480D02*
D03*
X354330Y223520D02*
D03*
X981050Y494684D02*
D03*
X370840Y411480D02*
D03*
X660400Y762000D02*
D03*
X193040Y292100D02*
D03*
X243840Y252730D02*
D03*
X762000Y193040D02*
D03*
X899260D02*
D03*
X601868Y479948D02*
D03*
X292100Y114300D02*
D03*
X222250Y374650D02*
D03*
X590550Y495300D02*
D03*
X585132Y435948D02*
D03*
X571861Y422677D02*
D03*
X434340Y397510D02*
D03*
X431800Y378460D02*
D03*
X606490Y540481D02*
D03*
X194310Y330200D02*
D03*
X663898Y673507D02*
D03*
X660400Y688340D02*
D03*
X632854Y760050D02*
D03*
X623570Y746760D02*
D03*
X598950Y756011D02*
D03*
X573765Y752115D02*
D03*
X601173Y425654D02*
D03*
X260350Y363220D02*
D03*
X237808Y363537D02*
D03*
X236239Y314126D02*
D03*
X698500Y617220D02*
D03*
X631190Y67310D02*
D03*
X248920Y322580D02*
D03*
X254000Y638642D02*
D03*
X573762Y594216D02*
D03*
X576215Y579026D02*
D03*
X551180Y603250D02*
D03*
X909320Y115570D02*
D03*
X895350Y137160D02*
D03*
X557530Y119380D02*
D03*
X335280Y514350D02*
D03*
X325120Y581660D02*
D03*
X273050Y102216D02*
D03*
X307975Y201295D02*
D03*
X773271Y696556D02*
D03*
X241300Y431800D02*
D03*
X295910Y415290D02*
D03*
X461059Y144731D02*
D03*
X223520Y215900D02*
D03*
X756412Y650748D02*
D03*
X784352Y644817D02*
D03*
X288290Y314960D02*
D03*
X547370Y732790D02*
D03*
X662738Y705695D02*
D03*
X260350Y118110D02*
D03*
M02*
