G04*
G04 #@! TF.GenerationSoftware,Altium Limited,Altium Designer,22.8.2 (66)*
G04*
G04 Layer_Color=128*
%FSLAX44Y44*%
%MOMM*%
G71*
G04*
G04 #@! TF.SameCoordinates,9714C633-81E7-4BB1-B996-9AD4BBD72758*
G04*
G04*
G04 #@! TF.FilePolarity,Positive*
G04*
G01*
G75*
%ADD16R,0.8000X0.9000*%
%ADD17R,0.9000X0.8000*%
%ADD21R,0.6000X1.2000*%
%ADD67R,0.3000X1.0000*%
%ADD68R,1.0000X0.3000*%
%ADD69R,3.3500X3.3500*%
%ADD70R,1.4700X1.1400*%
%ADD71R,1.1400X1.4700*%
%ADD72R,0.8128X0.2032*%
%ADD73R,0.2032X0.8128*%
%ADD75R,0.3000X0.8500*%
%ADD76R,2.5400X1.7000*%
%ADD77R,1.1000X1.4000*%
%ADD78R,0.3048X1.1938*%
%ADD79R,1.1938X0.3048*%
%ADD80R,1.1000X1.9000*%
%ADD81R,1.9000X2.4000*%
G36*
X700538Y662065D02*
X711492D01*
Y651111D01*
X700538D01*
Y662065D01*
D02*
G37*
G36*
Y675018D02*
X711492D01*
Y664064D01*
X700538D01*
Y675018D01*
D02*
G37*
G36*
X713492Y662065D02*
X724446D01*
Y651111D01*
X713492D01*
Y662065D01*
D02*
G37*
G36*
Y675018D02*
X724446D01*
Y664064D01*
X713492D01*
Y675018D01*
D02*
G37*
D16*
X690260Y486410D02*
D03*
X676260D02*
D03*
X257810Y454660D02*
D03*
X271810D02*
D03*
X259700Y487680D02*
D03*
X273700D02*
D03*
X235600Y487680D02*
D03*
X221600D02*
D03*
X256540Y469900D02*
D03*
X242540D02*
D03*
X502920Y228600D02*
D03*
X488920D02*
D03*
X488847Y160020D02*
D03*
X502847D02*
D03*
X345440Y326390D02*
D03*
X331440D02*
D03*
X351820Y246380D02*
D03*
X337820D02*
D03*
X559420Y227630D02*
D03*
X573420D02*
D03*
X733663Y463520D02*
D03*
X719663D02*
D03*
X704850Y457200D02*
D03*
X690850D02*
D03*
X749466Y415260D02*
D03*
X735466D02*
D03*
X696580Y414020D02*
D03*
X710580D02*
D03*
X443820Y360680D02*
D03*
X457820D02*
D03*
X487680D02*
D03*
X473680D02*
D03*
X753110Y711324D02*
D03*
X767110D02*
D03*
X692180Y704975D02*
D03*
X678180D02*
D03*
X653400Y662940D02*
D03*
X667400D02*
D03*
X667400Y633855D02*
D03*
X653400D02*
D03*
X668020Y648398D02*
D03*
X654020D02*
D03*
X698531Y626235D02*
D03*
X684530D02*
D03*
X504840Y100330D02*
D03*
X490840D02*
D03*
X545480Y227630D02*
D03*
X531480D02*
D03*
D17*
X516890Y147940D02*
D03*
Y161940D02*
D03*
X825500Y98440D02*
D03*
Y84440D02*
D03*
X852170Y98440D02*
D03*
Y84440D02*
D03*
X467360Y206390D02*
D03*
Y192390D02*
D03*
X337820Y402590D02*
D03*
Y388590D02*
D03*
X191770Y320690D02*
D03*
Y306690D02*
D03*
X223520Y178420D02*
D03*
Y192420D02*
D03*
X664210Y387350D02*
D03*
Y373350D02*
D03*
X631680Y716895D02*
D03*
Y730895D02*
D03*
X646920Y717544D02*
D03*
Y731545D02*
D03*
X759847Y689223D02*
D03*
Y675223D02*
D03*
X532130Y157780D02*
D03*
Y143780D02*
D03*
X565150Y142860D02*
D03*
Y156860D02*
D03*
X490220Y129220D02*
D03*
Y115220D02*
D03*
X505460Y129220D02*
D03*
Y115220D02*
D03*
X546673Y143780D02*
D03*
Y157780D02*
D03*
D21*
X487070Y205540D02*
D03*
X496570D02*
D03*
X506070D02*
D03*
Y180540D02*
D03*
X487070D02*
D03*
D67*
X572391Y730244D02*
D03*
X577390D02*
D03*
X582391D02*
D03*
X587390D02*
D03*
X592391D02*
D03*
X597390D02*
D03*
X602391D02*
D03*
Y682244D02*
D03*
X597390D02*
D03*
X592391D02*
D03*
X587390D02*
D03*
X582391D02*
D03*
X577390D02*
D03*
X572391D02*
D03*
D68*
X611390Y721244D02*
D03*
Y716244D02*
D03*
Y711244D02*
D03*
Y706245D02*
D03*
Y701244D02*
D03*
Y696245D02*
D03*
Y691244D02*
D03*
X563390D02*
D03*
Y696245D02*
D03*
Y701244D02*
D03*
Y706245D02*
D03*
Y711244D02*
D03*
Y716244D02*
D03*
Y721244D02*
D03*
D69*
X587390Y706245D02*
D03*
D70*
X583773Y142230D02*
D03*
Y160030D02*
D03*
D71*
X421630Y538480D02*
D03*
X439430D02*
D03*
D72*
X731415Y675564D02*
D03*
Y670565D02*
D03*
Y665564D02*
D03*
Y660565D02*
D03*
Y655564D02*
D03*
Y650565D02*
D03*
X693569D02*
D03*
Y655564D02*
D03*
Y660565D02*
D03*
Y665564D02*
D03*
Y670565D02*
D03*
Y675564D02*
D03*
D73*
X724992Y644141D02*
D03*
X719992D02*
D03*
X714992D02*
D03*
X709992D02*
D03*
X704992D02*
D03*
X699992D02*
D03*
Y681988D02*
D03*
X704992D02*
D03*
X709992D02*
D03*
X714992D02*
D03*
X719992D02*
D03*
X724992D02*
D03*
D75*
X557410Y179810D02*
D03*
X552410D02*
D03*
X547410D02*
D03*
X542410D02*
D03*
Y208810D02*
D03*
X547410D02*
D03*
X552410D02*
D03*
X557410D02*
D03*
D76*
X549910Y194310D02*
D03*
D77*
X725700Y717674D02*
D03*
X710700D02*
D03*
D78*
X596020Y543590D02*
D03*
X591020D02*
D03*
X586020D02*
D03*
X581020D02*
D03*
X576020D02*
D03*
X571020D02*
D03*
X566020D02*
D03*
X561020D02*
D03*
X556020D02*
D03*
X551020D02*
D03*
X546020D02*
D03*
X541020D02*
D03*
X536020D02*
D03*
X531020D02*
D03*
X526020D02*
D03*
X521020D02*
D03*
X516020D02*
D03*
X511020D02*
D03*
X506020D02*
D03*
X501020D02*
D03*
X496020D02*
D03*
X491020D02*
D03*
X486020D02*
D03*
X481020D02*
D03*
X486020Y388590D02*
D03*
X491020D02*
D03*
X496020D02*
D03*
X501020D02*
D03*
X506020D02*
D03*
X511020D02*
D03*
X516020D02*
D03*
X521020D02*
D03*
X526020D02*
D03*
X531020D02*
D03*
X536020D02*
D03*
X541020D02*
D03*
X546020D02*
D03*
X551020D02*
D03*
X556020D02*
D03*
X561020D02*
D03*
X566020D02*
D03*
X571020D02*
D03*
X576020D02*
D03*
X581020D02*
D03*
X586020D02*
D03*
X596020D02*
D03*
X601020D02*
D03*
X481020D02*
D03*
X591020D02*
D03*
X601020Y543590D02*
D03*
D79*
X463520Y521090D02*
D03*
Y511090D02*
D03*
Y506090D02*
D03*
Y501090D02*
D03*
Y496090D02*
D03*
Y491090D02*
D03*
Y486090D02*
D03*
Y481090D02*
D03*
Y476090D02*
D03*
Y471090D02*
D03*
Y466090D02*
D03*
Y461090D02*
D03*
Y456090D02*
D03*
Y451090D02*
D03*
Y446090D02*
D03*
Y441090D02*
D03*
Y436090D02*
D03*
Y431090D02*
D03*
Y426090D02*
D03*
Y421090D02*
D03*
Y416090D02*
D03*
Y411090D02*
D03*
Y406090D02*
D03*
X618520D02*
D03*
Y411090D02*
D03*
Y416090D02*
D03*
Y431090D02*
D03*
Y436090D02*
D03*
Y441090D02*
D03*
Y446090D02*
D03*
Y451090D02*
D03*
Y456090D02*
D03*
Y461090D02*
D03*
Y466090D02*
D03*
Y471090D02*
D03*
Y481090D02*
D03*
Y486090D02*
D03*
Y491090D02*
D03*
Y496090D02*
D03*
Y501090D02*
D03*
Y506090D02*
D03*
Y511090D02*
D03*
Y516090D02*
D03*
Y521090D02*
D03*
Y526090D02*
D03*
X463520Y516090D02*
D03*
Y526090D02*
D03*
X618520Y421090D02*
D03*
Y426090D02*
D03*
Y476090D02*
D03*
D80*
X717936Y436407D02*
D03*
X692935D02*
D03*
D81*
X690868Y386727D02*
D03*
X731868D02*
D03*
M02*
