G04*
G04 #@! TF.GenerationSoftware,Altium Limited,Altium Designer,22.8.2 (66)*
G04*
G04 Layer_Physical_Order=6*
G04 Layer_Color=16711680*
%FSLAX44Y44*%
%MOMM*%
G71*
G04*
G04 #@! TF.SameCoordinates,9714C633-81E7-4BB1-B996-9AD4BBD72758*
G04*
G04*
G04 #@! TF.FilePolarity,Positive*
G04*
G01*
G75*
%ADD14C,0.2540*%
%ADD16R,0.8000X0.9000*%
%ADD17R,0.9000X0.8000*%
%ADD19C,1.5240*%
%ADD21R,0.6000X1.2000*%
%ADD54C,0.5080*%
%ADD57C,1.5000*%
%ADD58R,1.5000X1.5000*%
%ADD59C,1.3810*%
%ADD60R,1.5000X1.5000*%
%ADD61C,1.3000*%
%ADD62R,1.5750X1.5750*%
%ADD63C,1.5750*%
%ADD64C,2.4000*%
%ADD65C,0.7500*%
%ADD66C,1.2700*%
%ADD67R,0.3000X1.0000*%
%ADD68R,1.0000X0.3000*%
%ADD69R,3.3500X3.3500*%
%ADD70R,1.4700X1.1400*%
%ADD71R,1.1400X1.4700*%
%ADD72R,0.8128X0.2032*%
%ADD73R,0.2032X0.8128*%
%ADD74R,2.5908X2.5908*%
%ADD75R,0.3000X0.8500*%
%ADD76R,2.5400X1.7000*%
%ADD77R,1.1000X1.4000*%
%ADD78R,0.3048X1.1938*%
%ADD79R,1.1938X0.3048*%
%ADD80R,1.1000X1.9000*%
%ADD81R,1.9000X2.4000*%
%ADD82C,0.3810*%
%ADD83C,0.6350*%
G36*
X26574Y869872D02*
X26574Y869872D01*
X27816Y869900D01*
X27850Y869900D01*
X1076418D01*
X1079747Y868890D01*
X1083630Y866815D01*
X1087033Y864022D01*
X1089826Y860619D01*
X1091901Y856736D01*
X1093179Y852523D01*
X1093611Y848141D01*
X1093363Y845619D01*
X1093363Y845619D01*
X1093363Y845619D01*
X1093420Y844415D01*
X1092060Y28156D01*
X1092059Y28149D01*
X1092073Y28081D01*
X1091630Y23587D01*
X1090236Y18993D01*
X1087973Y14759D01*
X1084927Y11047D01*
X1081216Y8001D01*
X1076982Y5738D01*
X1072387Y4344D01*
X1067950Y3907D01*
X1067906Y3916D01*
X26505Y3860D01*
X26502Y3917D01*
X25919Y3860D01*
X24044Y3860D01*
X20287Y4230D01*
X15773Y5599D01*
X11613Y7822D01*
X7967Y10815D01*
X4975Y14461D01*
X2752Y18621D01*
X1382Y23134D01*
X1032Y26689D01*
X957Y27926D01*
X959Y27936D01*
X903Y28215D01*
X818Y29148D01*
Y845508D01*
X1253Y849922D01*
X2670Y854593D01*
X4971Y858897D01*
X8067Y862669D01*
X11839Y865765D01*
X16143Y868066D01*
X20813Y869482D01*
X25308Y869925D01*
X26574Y869872D01*
D02*
G37*
%LPC*%
G36*
X457252Y853320D02*
X454608D01*
X452055Y852636D01*
X449765Y851314D01*
X447896Y849445D01*
X446574Y847155D01*
X445890Y844602D01*
Y841958D01*
X446574Y839405D01*
X447896Y837115D01*
X449765Y835246D01*
X452055Y833924D01*
X454608Y833240D01*
X457252D01*
X459805Y833924D01*
X462095Y835246D01*
X463964Y837115D01*
X465286Y839405D01*
X465970Y841958D01*
Y844602D01*
X465286Y847155D01*
X463964Y849445D01*
X462095Y851314D01*
X459805Y852636D01*
X457252Y853320D01*
D02*
G37*
G36*
X431852D02*
X429208D01*
X426655Y852636D01*
X424365Y851314D01*
X422496Y849445D01*
X421174Y847155D01*
X420490Y844602D01*
Y841958D01*
X421174Y839405D01*
X422496Y837115D01*
X424365Y835246D01*
X426655Y833924D01*
X429208Y833240D01*
X431852D01*
X434405Y833924D01*
X436695Y835246D01*
X438564Y837115D01*
X439886Y839405D01*
X440570Y841958D01*
Y844602D01*
X439886Y847155D01*
X438564Y849445D01*
X436695Y851314D01*
X434405Y852636D01*
X431852Y853320D01*
D02*
G37*
G36*
X406452D02*
X403808D01*
X401255Y852636D01*
X398965Y851314D01*
X397096Y849445D01*
X395774Y847155D01*
X395090Y844602D01*
Y841958D01*
X395774Y839405D01*
X397096Y837115D01*
X398965Y835246D01*
X401255Y833924D01*
X403808Y833240D01*
X406452D01*
X409005Y833924D01*
X411295Y835246D01*
X413164Y837115D01*
X414486Y839405D01*
X415170Y841958D01*
Y844602D01*
X414486Y847155D01*
X413164Y849445D01*
X411295Y851314D01*
X409005Y852636D01*
X406452Y853320D01*
D02*
G37*
G36*
X381052D02*
X378408D01*
X375855Y852636D01*
X373565Y851314D01*
X371696Y849445D01*
X370374Y847155D01*
X369690Y844602D01*
Y841958D01*
X370374Y839405D01*
X371696Y837115D01*
X373565Y835246D01*
X375855Y833924D01*
X378408Y833240D01*
X381052D01*
X383605Y833924D01*
X385895Y835246D01*
X387764Y837115D01*
X389086Y839405D01*
X389770Y841958D01*
Y844602D01*
X389086Y847155D01*
X387764Y849445D01*
X385895Y851314D01*
X383605Y852636D01*
X381052Y853320D01*
D02*
G37*
G36*
X355652D02*
X353008D01*
X350455Y852636D01*
X348165Y851314D01*
X346296Y849445D01*
X344974Y847155D01*
X344290Y844602D01*
Y841958D01*
X344974Y839405D01*
X346296Y837115D01*
X348165Y835246D01*
X350455Y833924D01*
X353008Y833240D01*
X355652D01*
X358205Y833924D01*
X360495Y835246D01*
X362364Y837115D01*
X363686Y839405D01*
X364370Y841958D01*
Y844602D01*
X363686Y847155D01*
X362364Y849445D01*
X360495Y851314D01*
X358205Y852636D01*
X355652Y853320D01*
D02*
G37*
G36*
X330252D02*
X327608D01*
X325055Y852636D01*
X322765Y851314D01*
X320896Y849445D01*
X319574Y847155D01*
X318890Y844602D01*
Y841958D01*
X319574Y839405D01*
X320896Y837115D01*
X322765Y835246D01*
X325055Y833924D01*
X327608Y833240D01*
X330252D01*
X332805Y833924D01*
X335095Y835246D01*
X336964Y837115D01*
X338286Y839405D01*
X338970Y841958D01*
Y844602D01*
X338286Y847155D01*
X336964Y849445D01*
X335095Y851314D01*
X332805Y852636D01*
X330252Y853320D01*
D02*
G37*
G36*
X304852D02*
X302208D01*
X299655Y852636D01*
X297365Y851314D01*
X295496Y849445D01*
X294174Y847155D01*
X293490Y844602D01*
Y841958D01*
X294174Y839405D01*
X295496Y837115D01*
X297365Y835246D01*
X299655Y833924D01*
X302208Y833240D01*
X304852D01*
X307405Y833924D01*
X309695Y835246D01*
X311564Y837115D01*
X312886Y839405D01*
X313570Y841958D01*
Y844602D01*
X312886Y847155D01*
X311564Y849445D01*
X309695Y851314D01*
X307405Y852636D01*
X304852Y853320D01*
D02*
G37*
G36*
X279452D02*
X276808D01*
X274255Y852636D01*
X271965Y851314D01*
X270096Y849445D01*
X268774Y847155D01*
X268090Y844602D01*
Y841958D01*
X268774Y839405D01*
X270096Y837115D01*
X271965Y835246D01*
X274255Y833924D01*
X276808Y833240D01*
X279452D01*
X282005Y833924D01*
X284295Y835246D01*
X286164Y837115D01*
X287486Y839405D01*
X288170Y841958D01*
Y844602D01*
X287486Y847155D01*
X286164Y849445D01*
X284295Y851314D01*
X282005Y852636D01*
X279452Y853320D01*
D02*
G37*
G36*
X254052D02*
X251408D01*
X248855Y852636D01*
X246565Y851314D01*
X244696Y849445D01*
X243374Y847155D01*
X242690Y844602D01*
Y841958D01*
X243374Y839405D01*
X244696Y837115D01*
X246565Y835246D01*
X248855Y833924D01*
X251408Y833240D01*
X254052D01*
X256605Y833924D01*
X258895Y835246D01*
X260764Y837115D01*
X262086Y839405D01*
X262770Y841958D01*
Y844602D01*
X262086Y847155D01*
X260764Y849445D01*
X258895Y851314D01*
X256605Y852636D01*
X254052Y853320D01*
D02*
G37*
G36*
X237370D02*
X217290D01*
Y833240D01*
X237370D01*
Y853320D01*
D02*
G37*
G36*
X28447Y863860D02*
X24893D01*
X21408Y863167D01*
X18125Y861807D01*
X15170Y859833D01*
X12657Y857320D01*
X10683Y854365D01*
X9323Y851082D01*
X8630Y847597D01*
Y844043D01*
X9323Y840558D01*
X10683Y837275D01*
X12657Y834320D01*
X15170Y831807D01*
X18125Y829833D01*
X21408Y828473D01*
X24893Y827780D01*
X28447D01*
X31932Y828473D01*
X35215Y829833D01*
X38170Y831807D01*
X40683Y834320D01*
X42657Y837275D01*
X44017Y840558D01*
X44710Y844043D01*
Y847597D01*
X44017Y851082D01*
X42657Y854365D01*
X40683Y857320D01*
X38170Y859833D01*
X35215Y861807D01*
X31932Y863167D01*
X28447Y863860D01*
D02*
G37*
G36*
X1071117Y862590D02*
X1067563D01*
X1064078Y861897D01*
X1060795Y860537D01*
X1057840Y858563D01*
X1055327Y856050D01*
X1053353Y853095D01*
X1051993Y849812D01*
X1051300Y846327D01*
Y842773D01*
X1051993Y839288D01*
X1053353Y836005D01*
X1055327Y833050D01*
X1057840Y830537D01*
X1060795Y828563D01*
X1064078Y827203D01*
X1067563Y826510D01*
X1071117D01*
X1074602Y827203D01*
X1077885Y828563D01*
X1080840Y830537D01*
X1083353Y833050D01*
X1085327Y836005D01*
X1086687Y839288D01*
X1087380Y842773D01*
Y846327D01*
X1086687Y849812D01*
X1085327Y853095D01*
X1083353Y856050D01*
X1080840Y858563D01*
X1077885Y860537D01*
X1074602Y861897D01*
X1071117Y862590D01*
D02*
G37*
G36*
X501702Y827920D02*
X499058D01*
X496505Y827236D01*
X494215Y825914D01*
X492346Y824045D01*
X491024Y821755D01*
X490340Y819202D01*
Y816558D01*
X491024Y814005D01*
X492346Y811715D01*
X494215Y809846D01*
X496505Y808524D01*
X499058Y807840D01*
X501702D01*
X504255Y808524D01*
X506545Y809846D01*
X508414Y811715D01*
X509736Y814005D01*
X510420Y816558D01*
Y819202D01*
X509736Y821755D01*
X508414Y824045D01*
X506545Y825914D01*
X504255Y827236D01*
X501702Y827920D01*
D02*
G37*
G36*
X863953Y823028D02*
X861467D01*
X859064Y822384D01*
X856911Y821141D01*
X855152Y819382D01*
X853909Y817228D01*
X853265Y814826D01*
Y812339D01*
X853909Y809937D01*
X855152Y807783D01*
X856911Y806025D01*
X859064Y804781D01*
X861467Y804138D01*
X863953D01*
X866356Y804781D01*
X868509Y806025D01*
X870268Y807783D01*
X871511Y809937D01*
X872155Y812339D01*
Y814826D01*
X871511Y817228D01*
X870268Y819382D01*
X868509Y821141D01*
X866356Y822384D01*
X863953Y823028D01*
D02*
G37*
G36*
X459792Y815220D02*
X457148D01*
X454595Y814536D01*
X452305Y813214D01*
X450436Y811345D01*
X449114Y809055D01*
X448430Y806502D01*
Y803858D01*
X449114Y801305D01*
X450436Y799015D01*
X452305Y797146D01*
X454595Y795824D01*
X457148Y795140D01*
X459792D01*
X462345Y795824D01*
X464635Y797146D01*
X466504Y799015D01*
X467826Y801305D01*
X468510Y803858D01*
Y806502D01*
X467826Y809055D01*
X466504Y811345D01*
X464635Y813214D01*
X462345Y814536D01*
X459792Y815220D01*
D02*
G37*
G36*
X332792D02*
X330148D01*
X327595Y814536D01*
X325305Y813214D01*
X323436Y811345D01*
X322114Y809055D01*
X321430Y806502D01*
Y803858D01*
X322114Y801305D01*
X323436Y799015D01*
X325305Y797146D01*
X327595Y795824D01*
X330148Y795140D01*
X332792D01*
X335345Y795824D01*
X337635Y797146D01*
X339504Y799015D01*
X340826Y801305D01*
X341510Y803858D01*
Y806502D01*
X340826Y809055D01*
X339504Y811345D01*
X337635Y813214D01*
X335345Y814536D01*
X332792Y815220D01*
D02*
G37*
G36*
X166988Y805060D02*
X164345D01*
X161791Y804376D01*
X159502Y803054D01*
X157632Y801185D01*
X156311Y798895D01*
X155626Y796342D01*
Y793698D01*
X156311Y791145D01*
X157632Y788855D01*
X159502Y786986D01*
X161791Y785664D01*
X164345Y784980D01*
X166988D01*
X169542Y785664D01*
X171831Y786986D01*
X173700Y788855D01*
X175022Y791145D01*
X175706Y793698D01*
Y796342D01*
X175022Y798895D01*
X173700Y801185D01*
X171831Y803054D01*
X169542Y804376D01*
X166988Y805060D01*
D02*
G37*
G36*
X501702Y802520D02*
X499058D01*
X496505Y801836D01*
X494215Y800514D01*
X492346Y798645D01*
X491024Y796355D01*
X490340Y793802D01*
Y791158D01*
X491024Y788605D01*
X492346Y786315D01*
X494215Y784446D01*
X496505Y783124D01*
X499058Y782440D01*
X501702D01*
X504255Y783124D01*
X506545Y784446D01*
X508414Y786315D01*
X509736Y788605D01*
X510420Y791158D01*
Y793802D01*
X509736Y796355D01*
X508414Y798645D01*
X506545Y800514D01*
X504255Y801836D01*
X501702Y802520D01*
D02*
G37*
G36*
X166988Y779660D02*
X164345D01*
X161791Y778976D01*
X159502Y777654D01*
X157632Y775785D01*
X156311Y773495D01*
X155626Y770942D01*
Y768298D01*
X156311Y765745D01*
X157632Y763455D01*
X159502Y761586D01*
X161791Y760264D01*
X164345Y759580D01*
X166988D01*
X169542Y760264D01*
X171831Y761586D01*
X173700Y763455D01*
X175022Y765745D01*
X175706Y768298D01*
Y770942D01*
X175022Y773495D01*
X173700Y775785D01*
X171831Y777654D01*
X169542Y778976D01*
X166988Y779660D01*
D02*
G37*
G36*
X510420Y777120D02*
X490340D01*
Y757040D01*
X510420D01*
Y777120D01*
D02*
G37*
G36*
X209450Y765810D02*
X207110D01*
X204849Y765204D01*
X202821Y764034D01*
X201166Y762379D01*
X199996Y760351D01*
X199390Y758090D01*
Y755750D01*
X199996Y753489D01*
X201166Y751461D01*
X202821Y749806D01*
X204849Y748636D01*
X207110Y748030D01*
X209450D01*
X211711Y748636D01*
X213739Y749806D01*
X215394Y751461D01*
X216564Y753489D01*
X217170Y755750D01*
Y758090D01*
X216564Y760351D01*
X215394Y762379D01*
X213739Y764034D01*
X211711Y765204D01*
X209450Y765810D01*
D02*
G37*
G36*
X799980Y761880D02*
X779900D01*
Y741800D01*
X799980D01*
Y761880D01*
D02*
G37*
G36*
X765862D02*
X763218D01*
X760665Y761196D01*
X758375Y759874D01*
X756506Y758005D01*
X755184Y755715D01*
X754500Y753162D01*
Y750518D01*
X755184Y747965D01*
X756506Y745675D01*
X758375Y743806D01*
X760665Y742484D01*
X763218Y741800D01*
X765862D01*
X768415Y742484D01*
X770705Y743806D01*
X772574Y745675D01*
X773896Y747965D01*
X774580Y750518D01*
Y753162D01*
X773896Y755715D01*
X772574Y758005D01*
X770705Y759874D01*
X768415Y761196D01*
X765862Y761880D01*
D02*
G37*
G36*
X740462D02*
X737818D01*
X735265Y761196D01*
X732975Y759874D01*
X731106Y758005D01*
X729784Y755715D01*
X729100Y753162D01*
Y750518D01*
X729784Y747965D01*
X731106Y745675D01*
X732975Y743806D01*
X735265Y742484D01*
X737818Y741800D01*
X740462D01*
X743015Y742484D01*
X745305Y743806D01*
X747174Y745675D01*
X748496Y747965D01*
X749180Y750518D01*
Y753162D01*
X748496Y755715D01*
X747174Y758005D01*
X745305Y759874D01*
X743015Y761196D01*
X740462Y761880D01*
D02*
G37*
G36*
X715062D02*
X712418D01*
X709865Y761196D01*
X707575Y759874D01*
X705706Y758005D01*
X704384Y755715D01*
X703700Y753162D01*
Y750518D01*
X704384Y747965D01*
X705706Y745675D01*
X707575Y743806D01*
X709865Y742484D01*
X712418Y741800D01*
X715062D01*
X717615Y742484D01*
X719905Y743806D01*
X721774Y745675D01*
X723096Y747965D01*
X723780Y750518D01*
Y753162D01*
X723096Y755715D01*
X721774Y758005D01*
X719905Y759874D01*
X717615Y761196D01*
X715062Y761880D01*
D02*
G37*
G36*
X689662D02*
X687018D01*
X684465Y761196D01*
X682175Y759874D01*
X680306Y758005D01*
X678984Y755715D01*
X678300Y753162D01*
Y750518D01*
X678984Y747965D01*
X680306Y745675D01*
X682175Y743806D01*
X684465Y742484D01*
X687018Y741800D01*
X689662D01*
X692215Y742484D01*
X694505Y743806D01*
X696374Y745675D01*
X697696Y747965D01*
X698380Y750518D01*
Y753162D01*
X697696Y755715D01*
X696374Y758005D01*
X694505Y759874D01*
X692215Y761196D01*
X689662Y761880D01*
D02*
G37*
G36*
X166988Y754260D02*
X164345D01*
X161791Y753576D01*
X159502Y752254D01*
X157632Y750385D01*
X156311Y748095D01*
X155626Y745542D01*
Y742898D01*
X156311Y740345D01*
X157632Y738055D01*
X159502Y736186D01*
X161791Y734864D01*
X164345Y734180D01*
X166988D01*
X169542Y734864D01*
X171831Y736186D01*
X173700Y738055D01*
X175022Y740345D01*
X175706Y742898D01*
Y745542D01*
X175022Y748095D01*
X173700Y750385D01*
X171831Y752254D01*
X169542Y753576D01*
X166988Y754260D01*
D02*
G37*
G36*
X175706Y728860D02*
X155626D01*
Y708780D01*
X175706D01*
Y728860D01*
D02*
G37*
G36*
X434392Y815220D02*
X431748D01*
X429195Y814536D01*
X426905Y813214D01*
X425036Y811345D01*
X423714Y809055D01*
X423030Y806502D01*
Y803858D01*
X423714Y801305D01*
X425036Y799015D01*
X426905Y797146D01*
X429195Y795824D01*
X431748Y795140D01*
X434392D01*
X436945Y795824D01*
X438098Y796490D01*
X537494Y697094D01*
Y680678D01*
X536321Y680192D01*
X416360Y800152D01*
X417026Y801305D01*
X417710Y803858D01*
Y806502D01*
X417026Y809055D01*
X415704Y811345D01*
X413835Y813214D01*
X411545Y814536D01*
X408992Y815220D01*
X406348D01*
X403795Y814536D01*
X401505Y813214D01*
X399636Y811345D01*
X398314Y809055D01*
X397630Y806502D01*
Y803858D01*
X398314Y801305D01*
X399636Y799015D01*
X401505Y797146D01*
X403795Y795824D01*
X406348Y795140D01*
X408992D01*
X411545Y795824D01*
X412698Y796490D01*
X533550Y675638D01*
X533428Y674556D01*
X532257Y674095D01*
X479237Y727115D01*
X478397Y727677D01*
X477406Y727874D01*
X463238D01*
X390960Y800152D01*
X391626Y801305D01*
X392310Y803858D01*
Y806502D01*
X391626Y809055D01*
X390304Y811345D01*
X388435Y813214D01*
X386145Y814536D01*
X383592Y815220D01*
X380948D01*
X378395Y814536D01*
X376105Y813214D01*
X374236Y811345D01*
X372914Y809055D01*
X372230Y806502D01*
Y803858D01*
X372914Y801305D01*
X374236Y799015D01*
X376105Y797146D01*
X378395Y795824D01*
X380948Y795140D01*
X383592D01*
X386145Y795824D01*
X387298Y796490D01*
X460335Y723453D01*
X461175Y722892D01*
X462166Y722694D01*
X476333D01*
X528430Y670597D01*
Y639078D01*
X527160Y638552D01*
X365560Y800152D01*
X366226Y801305D01*
X366910Y803858D01*
Y806502D01*
X366226Y809055D01*
X364904Y811345D01*
X363035Y813214D01*
X360745Y814536D01*
X358192Y815220D01*
X355548D01*
X352995Y814536D01*
X350705Y813214D01*
X348836Y811345D01*
X347514Y809055D01*
X346830Y806502D01*
Y803858D01*
X347514Y801305D01*
X348836Y799015D01*
X350705Y797146D01*
X352995Y795824D01*
X355548Y795140D01*
X358192D01*
X360745Y795824D01*
X361898Y796490D01*
X523430Y634958D01*
Y613599D01*
X522160Y613073D01*
X379121Y756112D01*
X378281Y756673D01*
X377290Y756870D01*
X360582D01*
X315578Y801874D01*
X316110Y803858D01*
Y806502D01*
X315426Y809055D01*
X314104Y811345D01*
X312235Y813214D01*
X309945Y814536D01*
X307392Y815220D01*
X304748D01*
X302195Y814536D01*
X299905Y813214D01*
X298036Y811345D01*
X296714Y809055D01*
X296030Y806502D01*
Y803858D01*
X296714Y801305D01*
X297206Y800452D01*
X296190Y799672D01*
X291134Y804729D01*
X290710Y805012D01*
Y806502D01*
X290026Y809055D01*
X288704Y811345D01*
X286835Y813214D01*
X284545Y814536D01*
X281992Y815220D01*
X279348D01*
X276795Y814536D01*
X274505Y813214D01*
X272636Y811345D01*
X271314Y809055D01*
X270630Y806502D01*
Y803858D01*
X271314Y801305D01*
X271807Y800452D01*
X270790Y799672D01*
X265734Y804729D01*
X265310Y805012D01*
Y806502D01*
X264626Y809055D01*
X263304Y811345D01*
X261435Y813214D01*
X259145Y814536D01*
X256592Y815220D01*
X253948D01*
X251395Y814536D01*
X249105Y813214D01*
X247236Y811345D01*
X245914Y809055D01*
X245230Y806502D01*
Y803858D01*
X245914Y801305D01*
X247236Y799015D01*
X249105Y797146D01*
X251395Y795824D01*
X253948Y795140D01*
X256592D01*
X259145Y795824D01*
X261435Y797146D01*
X263304Y799015D01*
X264027Y799110D01*
X306779Y756359D01*
X307619Y755797D01*
X308110Y755700D01*
X307985Y754430D01*
X304295D01*
X293623Y765101D01*
X292783Y765663D01*
X291792Y765860D01*
X272853D01*
X239910Y798802D01*
Y815220D01*
X219830D01*
Y795140D01*
X236248D01*
X269949Y761439D01*
X270789Y760877D01*
X271780Y760680D01*
X290719D01*
X301391Y750009D01*
X302231Y749447D01*
X303222Y749250D01*
X317247D01*
X317414Y747980D01*
X315339Y747424D01*
X313311Y746254D01*
X311656Y744599D01*
X310486Y742571D01*
X310260Y741730D01*
X293694D01*
X293111Y743000D01*
X294034Y744599D01*
X294640Y746860D01*
Y749200D01*
X294034Y751461D01*
X292864Y753489D01*
X291209Y755144D01*
X289181Y756314D01*
X286920Y756920D01*
X284580D01*
X282319Y756314D01*
X280291Y755144D01*
X278636Y753489D01*
X277466Y751461D01*
X276860Y749200D01*
Y746860D01*
X277466Y744599D01*
X278389Y743000D01*
X277806Y741730D01*
X264160D01*
X263169Y741533D01*
X262329Y740971D01*
X175969Y654611D01*
X175407Y653771D01*
X175210Y652780D01*
Y261620D01*
X175407Y260629D01*
X175969Y259789D01*
X215672Y220086D01*
X215236Y219331D01*
X214630Y217070D01*
Y214730D01*
X215236Y212469D01*
X216406Y210441D01*
X218061Y208786D01*
X220089Y207616D01*
X222350Y207010D01*
X224690D01*
X226951Y207616D01*
X228979Y208786D01*
X230634Y210441D01*
X231804Y212469D01*
X232410Y214730D01*
Y215298D01*
X233680Y215824D01*
X239980Y209524D01*
Y170504D01*
X238710Y169921D01*
X237111Y170844D01*
X234850Y171450D01*
X234177D01*
X234129Y171695D01*
X233567Y172535D01*
X230560Y175543D01*
Y184960D01*
X230560Y184960D01*
Y185880D01*
X230560D01*
X230560Y186230D01*
Y198960D01*
X216480D01*
Y198109D01*
X215210Y197161D01*
X213837Y197529D01*
X211496D01*
X209235Y196923D01*
X207208Y195752D01*
X205553Y194097D01*
X204382Y192070D01*
X203777Y189809D01*
Y187468D01*
X204382Y185207D01*
X205553Y183180D01*
X207208Y181525D01*
X209235Y180354D01*
X211496Y179749D01*
X213837D01*
X215210Y180117D01*
X216480Y179169D01*
Y171880D01*
X226898D01*
X227948Y170830D01*
X227765Y169217D01*
X226566Y168019D01*
X225396Y165991D01*
X224790Y163730D01*
Y161390D01*
X225396Y159129D01*
X226566Y157101D01*
X228221Y155446D01*
X230249Y154276D01*
X232510Y153670D01*
X234850D01*
X237111Y154276D01*
X238710Y155199D01*
X239980Y154616D01*
Y119380D01*
X240177Y118389D01*
X240739Y117549D01*
X257845Y100443D01*
X258685Y99881D01*
X259676Y99684D01*
X264525D01*
X264766Y98785D01*
X265936Y96758D01*
X267591Y95102D01*
X269619Y93932D01*
X271880Y93326D01*
X274220D01*
X276481Y93932D01*
X278509Y95102D01*
X280164Y96758D01*
X281334Y98785D01*
X281940Y101046D01*
Y103387D01*
X281334Y105648D01*
X280164Y107675D01*
X278509Y109330D01*
X276481Y110500D01*
X274220Y111106D01*
X271880D01*
X269619Y110500D01*
X267591Y109330D01*
X265936Y107675D01*
X264766Y105648D01*
X264556Y104864D01*
X260749D01*
X257168Y108444D01*
X257826Y109583D01*
X259180Y109220D01*
X261520D01*
X263781Y109826D01*
X265809Y110996D01*
X267464Y112651D01*
X268634Y114679D01*
X269240Y116940D01*
Y119280D01*
X268634Y121541D01*
X267464Y123569D01*
X265809Y125224D01*
X263781Y126394D01*
X261520Y127000D01*
X259180D01*
X256919Y126394D01*
X254891Y125224D01*
X253236Y123569D01*
X252066Y121541D01*
X251460Y119280D01*
Y116940D01*
X251823Y115586D01*
X250684Y114928D01*
X245160Y120453D01*
Y210597D01*
X244963Y211588D01*
X244401Y212428D01*
X237540Y219289D01*
Y244786D01*
X238810Y245369D01*
X240409Y244446D01*
X242670Y243840D01*
X245010D01*
X247271Y244446D01*
X249299Y245616D01*
X250954Y247271D01*
X252124Y249299D01*
X252730Y251560D01*
Y253900D01*
X252124Y256161D01*
X250954Y258189D01*
X249299Y259844D01*
X247271Y261014D01*
X245010Y261620D01*
X242670D01*
X240409Y261014D01*
X238810Y260091D01*
X237540Y260674D01*
Y305271D01*
X239671Y305842D01*
X239898Y305973D01*
X240989Y305137D01*
X240570Y303572D01*
Y301232D01*
X241175Y298971D01*
X242346Y296943D01*
X244001Y295288D01*
X246028Y294118D01*
X248289Y293512D01*
X250630D01*
X252891Y294118D01*
X254918Y295288D01*
X256573Y296943D01*
X257744Y298971D01*
X258350Y301232D01*
Y303572D01*
X257744Y305833D01*
X256573Y307861D01*
X254918Y309516D01*
X252891Y310686D01*
X250630Y311292D01*
X248289D01*
X246028Y310686D01*
X245801Y310555D01*
X244710Y311392D01*
X245130Y312956D01*
Y313092D01*
X246400Y314052D01*
X247750Y313690D01*
X250090D01*
X252351Y314296D01*
X254379Y315466D01*
X256034Y317121D01*
X257204Y319149D01*
X257810Y321410D01*
Y323750D01*
X257204Y326011D01*
X256034Y328039D01*
X254379Y329694D01*
X252351Y330864D01*
X250090Y331470D01*
X247750D01*
X245489Y330864D01*
X243461Y329694D01*
X241806Y328039D01*
X240636Y326011D01*
X240030Y323750D01*
Y323614D01*
X238760Y322655D01*
X237410Y323016D01*
X235069D01*
X232808Y322411D01*
X230781Y321240D01*
X229126Y319585D01*
X227955Y317558D01*
X227349Y315297D01*
Y312956D01*
X227955Y310695D01*
X229126Y308668D01*
X230781Y307013D01*
X232360Y306101D01*
Y220908D01*
X231090Y220568D01*
X230634Y221359D01*
X228979Y223014D01*
X226951Y224184D01*
X224690Y224790D01*
X222350D01*
X220089Y224184D01*
X219334Y223748D01*
X180390Y262693D01*
Y651707D01*
X265233Y736550D01*
X310260D01*
X310486Y735709D01*
X311656Y733681D01*
X313311Y732026D01*
X315339Y730856D01*
X317600Y730250D01*
X319940D01*
X322201Y730856D01*
X324229Y732026D01*
X325884Y733681D01*
X327054Y735709D01*
X327660Y737970D01*
Y740310D01*
X327054Y742571D01*
X328085Y743327D01*
X342017Y729394D01*
X341444Y728172D01*
X339469Y727642D01*
X337441Y726472D01*
X335786Y724817D01*
X334616Y722790D01*
X334010Y720529D01*
Y718188D01*
X334616Y715927D01*
X335786Y713900D01*
X337441Y712244D01*
X339469Y711074D01*
X341730Y710468D01*
X344070D01*
X346331Y711074D01*
X348359Y712244D01*
X350014Y713900D01*
X351184Y715927D01*
X351713Y717902D01*
X352936Y718476D01*
X368392Y703019D01*
X369233Y702457D01*
X369756Y702353D01*
X369978Y701015D01*
X369255Y700598D01*
X367600Y698942D01*
X366430Y696915D01*
X365824Y694654D01*
Y692313D01*
X366430Y690052D01*
X367429Y688321D01*
X366469Y687361D01*
X365907Y686520D01*
X365710Y685529D01*
Y646683D01*
X364440Y646516D01*
X363884Y648591D01*
X362714Y650619D01*
X361059Y652274D01*
X359031Y653444D01*
X356770Y654050D01*
X354430D01*
X352169Y653444D01*
X350141Y652274D01*
X348486Y650619D01*
X347316Y648591D01*
X346710Y646330D01*
Y643990D01*
X347316Y641729D01*
X348486Y639701D01*
X350141Y638046D01*
X352169Y636876D01*
X354430Y636270D01*
X356770D01*
X359031Y636876D01*
X360840Y637920D01*
X361900Y636860D01*
Y581463D01*
X357246Y576809D01*
X356491Y577244D01*
X354230Y577850D01*
X351890D01*
X349629Y577244D01*
X347601Y576074D01*
X345946Y574419D01*
X344776Y572391D01*
X344170Y570130D01*
Y567790D01*
X344776Y565529D01*
X345946Y563501D01*
X347601Y561846D01*
X349629Y560676D01*
X351890Y560070D01*
X354230D01*
X356491Y560676D01*
X358519Y561846D01*
X360174Y563501D01*
X361344Y565529D01*
X361950Y567790D01*
Y570130D01*
X361344Y572391D01*
X360909Y573146D01*
X364537Y576774D01*
X365710Y576288D01*
Y438150D01*
X365907Y437159D01*
X366469Y436319D01*
X374089Y428699D01*
X374929Y428137D01*
X375920Y427940D01*
X378840D01*
X379066Y427099D01*
X380236Y425071D01*
X381891Y423416D01*
X383919Y422246D01*
X386180Y421640D01*
X388520D01*
X390781Y422246D01*
X392809Y423416D01*
X394464Y425071D01*
X395634Y427099D01*
X396240Y429360D01*
Y431700D01*
X395634Y433961D01*
X394464Y435989D01*
X392809Y437644D01*
X390781Y438814D01*
X388520Y439420D01*
X386180D01*
X383919Y438814D01*
X381891Y437644D01*
X380236Y435989D01*
X379066Y433961D01*
X378840Y433120D01*
X376993D01*
X370890Y439223D01*
Y684160D01*
X371923Y685028D01*
X373543Y684594D01*
X375884D01*
X378145Y685200D01*
X380172Y686370D01*
X381828Y688025D01*
X382998Y690052D01*
X383604Y692313D01*
Y694120D01*
X384874Y694646D01*
X503430Y576090D01*
Y552099D01*
X501956D01*
Y535081D01*
X548430D01*
Y528161D01*
X547777Y527784D01*
X546122Y526129D01*
X544951Y524101D01*
X544345Y521840D01*
Y519500D01*
X544951Y517239D01*
X546122Y515211D01*
X547777Y513556D01*
X549804Y512386D01*
X552065Y511780D01*
X554406D01*
X556667Y512386D01*
X558694Y513556D01*
X560349Y515211D01*
X561520Y517239D01*
X562125Y519500D01*
Y521840D01*
X561520Y524101D01*
X560349Y526129D01*
X558694Y527784D01*
X556667Y528954D01*
X554406Y529560D01*
X553610D01*
Y535081D01*
X555084D01*
Y552099D01*
X548610D01*
Y563788D01*
X553011Y568190D01*
X553573Y569030D01*
X553770Y570021D01*
Y591045D01*
X553792Y591060D01*
X554157Y591271D01*
X554210Y591339D01*
X554281Y591387D01*
X554516Y591738D01*
X554773Y592073D01*
X554795Y592156D01*
X554843Y592227D01*
X554925Y592641D01*
X555034Y593049D01*
X555056Y593374D01*
X555094Y593574D01*
X555172Y593828D01*
X555301Y594134D01*
X555490Y594492D01*
X555742Y594894D01*
X556043Y595310D01*
X556932Y596349D01*
X557474Y596902D01*
X557480Y596911D01*
X557994Y596883D01*
X558750Y596452D01*
Y552099D01*
X556956D01*
Y535081D01*
X585084D01*
Y552099D01*
X583610D01*
Y554547D01*
X593815Y564752D01*
X593983Y564736D01*
X594267Y564659D01*
X594481Y564687D01*
X594696Y564666D01*
X594977Y564752D01*
X595269Y564790D01*
X595456Y564898D01*
X595663Y564961D01*
X595890Y565147D01*
X596144Y565294D01*
X596407Y565524D01*
X596544Y565614D01*
X596698Y565687D01*
X596890Y565749D01*
X597135Y565794D01*
X597444Y565817D01*
X597822Y565805D01*
X598271Y565751D01*
X598787Y565648D01*
X599442Y565469D01*
X599682Y565452D01*
X600810Y565150D01*
X601173D01*
X601659Y563977D01*
X589781Y552099D01*
X586956D01*
Y535081D01*
X595084D01*
Y549815D01*
X595686Y550290D01*
X596956Y549720D01*
Y535081D01*
X599342D01*
X599376Y535022D01*
X601031Y533367D01*
X603059Y532197D01*
X604050Y531931D01*
X603883Y530661D01*
X602491D01*
X600230Y530055D01*
X598202Y528885D01*
X596547Y527230D01*
X595377Y525202D01*
X594771Y522941D01*
Y520601D01*
X595377Y518340D01*
X595978Y517299D01*
X587358Y508680D01*
X580864D01*
X580757Y508848D01*
X581167Y510543D01*
X582039Y511046D01*
X583694Y512701D01*
X584864Y514729D01*
X585470Y516990D01*
Y519330D01*
X584864Y521591D01*
X583694Y523619D01*
X582039Y525274D01*
X580011Y526444D01*
X577750Y527050D01*
X575410D01*
X573149Y526444D01*
X571121Y525274D01*
X569466Y523619D01*
X568296Y521591D01*
X567690Y519330D01*
Y516990D01*
X568296Y514729D01*
X569466Y512701D01*
X571121Y511046D01*
X571993Y510543D01*
X572403Y508848D01*
X572296Y508680D01*
X494863D01*
X494496Y509604D01*
X494466Y509950D01*
X496045Y511528D01*
X497215Y513555D01*
X497821Y515816D01*
Y518157D01*
X497215Y520418D01*
X496045Y522445D01*
X494389Y524100D01*
X492362Y525271D01*
X490101Y525877D01*
X487760D01*
X485499Y525271D01*
X483472Y524100D01*
X481817Y522445D01*
X481710Y522260D01*
X481312Y521746D01*
X480914Y521286D01*
X480537Y520904D01*
X480186Y520596D01*
X480110Y520540D01*
X479326Y520779D01*
X478972Y521055D01*
X478843Y521237D01*
X478840Y521245D01*
Y521970D01*
X478643Y522961D01*
X478081Y523801D01*
X473961Y527921D01*
X473121Y528483D01*
X472130Y528680D01*
X472029D01*
Y530154D01*
X455011D01*
Y528680D01*
X451243D01*
X447670Y532253D01*
Y548370D01*
X431190D01*
Y528590D01*
X444008D01*
X448339Y524259D01*
X449179Y523697D01*
X450170Y523500D01*
X455011D01*
Y522026D01*
X472029D01*
X472029Y522026D01*
Y522026D01*
X473073Y521484D01*
X473660Y520897D01*
Y518680D01*
X472029D01*
Y520154D01*
X455011D01*
Y513680D01*
X427243D01*
X413602Y527320D01*
X414129Y528590D01*
X414310Y528590D01*
X414310Y528590D01*
X414354Y528590D01*
X429870D01*
Y548370D01*
X416082D01*
X415991Y548389D01*
X414987Y548401D01*
X414684Y549531D01*
X413514Y551559D01*
X411859Y553214D01*
X409831Y554384D01*
X407570Y554990D01*
X405230D01*
X402969Y554384D01*
X400941Y553214D01*
X399286Y551559D01*
X398116Y549531D01*
X397510Y547270D01*
Y545209D01*
X396415Y544508D01*
X389940Y550983D01*
Y556300D01*
X392051Y556866D01*
X394079Y558036D01*
X395734Y559691D01*
X396904Y561719D01*
X397510Y563980D01*
Y566320D01*
X396904Y568581D01*
X395734Y570609D01*
X394079Y572264D01*
X392051Y573434D01*
X389790Y574040D01*
X387450D01*
X385189Y573434D01*
X383161Y572264D01*
X381506Y570609D01*
X380336Y568581D01*
X379730Y566320D01*
Y563980D01*
X380336Y561719D01*
X381506Y559691D01*
X383161Y558036D01*
X384760Y557113D01*
Y549910D01*
X384957Y548919D01*
X385519Y548079D01*
X424339Y509259D01*
X425179Y508698D01*
X426170Y508500D01*
X435402D01*
X435705Y507230D01*
X433961Y506224D01*
X432306Y504569D01*
X431136Y502541D01*
X430530Y500280D01*
Y497940D01*
X431136Y495679D01*
X432306Y493651D01*
X432520Y493438D01*
X432311Y491851D01*
X431235Y491230D01*
X429580Y489574D01*
X428410Y487547D01*
X427804Y485286D01*
Y482945D01*
X428410Y480684D01*
X429580Y478657D01*
X431235Y477002D01*
X433262Y475832D01*
X435523Y475226D01*
X437864D01*
X440125Y475832D01*
X442152Y477002D01*
X443807Y478657D01*
X444978Y480684D01*
X445584Y482945D01*
Y485286D01*
X445071Y487201D01*
X446371Y488500D01*
X455011D01*
Y482026D01*
X472029D01*
Y482640D01*
X473299Y483139D01*
X474601Y481836D01*
X476629Y480666D01*
X478890Y480060D01*
X481230D01*
X483491Y480666D01*
X485519Y481836D01*
X487174Y483491D01*
X488344Y485519D01*
X488950Y487780D01*
Y490120D01*
X488344Y492381D01*
X487174Y494409D01*
X485519Y496064D01*
X483491Y497234D01*
X483673Y498500D01*
X580938D01*
X581936Y497502D01*
X581660Y496470D01*
Y494130D01*
X582266Y491869D01*
X583436Y489841D01*
X585091Y488186D01*
X587119Y487016D01*
X589380Y486410D01*
X591720D01*
X593981Y487016D01*
X595243Y487744D01*
X595368Y487816D01*
X596148Y486800D01*
X596026Y486679D01*
X594754Y485406D01*
X593583Y483379D01*
X592978Y481118D01*
Y478777D01*
X593583Y476516D01*
X594754Y474489D01*
X595102Y474141D01*
X594616Y472968D01*
X587223D01*
X586790Y474581D01*
X585620Y476608D01*
X583965Y478263D01*
X581937Y479434D01*
X579677Y480040D01*
X577336D01*
X575075Y479434D01*
X573047Y478263D01*
X571392Y476608D01*
X570222Y474581D01*
X569616Y472320D01*
Y469979D01*
X570222Y467718D01*
X570755Y466796D01*
X569918Y465705D01*
X568481Y466090D01*
X566141D01*
X563880Y465484D01*
X561852Y464314D01*
X560197Y462659D01*
X559027Y460631D01*
X558421Y458370D01*
Y456030D01*
X559027Y453769D01*
X560197Y451741D01*
X561852Y450086D01*
X563880Y448916D01*
X566141Y448310D01*
X568481D01*
X570742Y448916D01*
X572770Y450086D01*
X574425Y451741D01*
X575595Y453769D01*
X576201Y456030D01*
Y458370D01*
X575595Y460631D01*
X575063Y461554D01*
X575900Y462644D01*
X577336Y462260D01*
X579677D01*
X581937Y462865D01*
X583965Y464036D01*
X585620Y465691D01*
X586790Y467718D01*
X586809Y467788D01*
X596879D01*
X605408Y459259D01*
X606248Y458698D01*
X607239Y458501D01*
X610011D01*
Y456798D01*
X609910Y456290D01*
X610011Y455781D01*
Y450700D01*
X608741Y450174D01*
X607825Y451089D01*
X605798Y452260D01*
X603537Y452866D01*
X601196D01*
X598935Y452260D01*
X596908Y451089D01*
X595253Y449434D01*
X594083Y447407D01*
X593477Y445146D01*
Y442805D01*
X593972Y440956D01*
X592789Y440466D01*
X592246Y441407D01*
X590591Y443062D01*
X588563Y444232D01*
X586302Y444838D01*
X583962D01*
X581701Y444232D01*
X579674Y443062D01*
X578018Y441407D01*
X576848Y439379D01*
X576242Y437118D01*
Y434778D01*
X576848Y432517D01*
X577703Y431035D01*
X576773Y430106D01*
X575292Y430961D01*
X573031Y431567D01*
X570690D01*
X568429Y430961D01*
X566402Y429790D01*
X564747Y428135D01*
X563577Y426108D01*
X562971Y423847D01*
Y421506D01*
X563577Y419245D01*
X564747Y417218D01*
X566402Y415563D01*
X568429Y414393D01*
X570628Y413803D01*
X583673Y400759D01*
X584513Y400197D01*
X585504Y400000D01*
X591023D01*
X591509Y398827D01*
X589781Y397099D01*
X586956D01*
Y380081D01*
X595084D01*
Y395077D01*
X596197Y396190D01*
X622295D01*
X623286Y396387D01*
X624126Y396949D01*
X625908Y398730D01*
X627134Y398401D01*
X627316Y397723D01*
X628486Y395696D01*
X630142Y394041D01*
X632169Y392871D01*
X634430Y392265D01*
X636771D01*
X639032Y392871D01*
X641059Y394041D01*
X642714Y395696D01*
X643884Y397723D01*
X644490Y399984D01*
Y402325D01*
X643884Y404586D01*
X642714Y406613D01*
X641059Y408269D01*
X639032Y409439D01*
X636771Y410045D01*
X636415D01*
Y439346D01*
X637588Y439832D01*
X652730Y424691D01*
Y408750D01*
X651889Y408524D01*
X649861Y407354D01*
X648206Y405699D01*
X647036Y403671D01*
X646430Y401410D01*
Y399070D01*
X647036Y396809D01*
X648206Y394781D01*
X649861Y393126D01*
X651889Y391956D01*
X654150Y391350D01*
X656490D01*
X657170Y390829D01*
Y380810D01*
X671250D01*
Y393890D01*
X669340D01*
Y424488D01*
X669143Y425479D01*
X668581Y426319D01*
X633283Y461618D01*
X633731Y462966D01*
X634370Y463058D01*
X685688Y411739D01*
Y401268D01*
X678828D01*
Y372188D01*
X702908D01*
Y401268D01*
X700583D01*
Y406980D01*
X703120D01*
Y420512D01*
X726552D01*
X728926Y418138D01*
Y408220D01*
X732876D01*
Y406338D01*
X729418Y402881D01*
X728857Y402041D01*
X728703Y401268D01*
X719828D01*
Y372188D01*
X743908D01*
Y401268D01*
X736789D01*
X736303Y402441D01*
X737297Y403434D01*
X737858Y404275D01*
X738055Y405266D01*
Y408220D01*
X742006D01*
Y422300D01*
X732088D01*
X729455Y424933D01*
X728615Y425494D01*
X727624Y425691D01*
X725976D01*
Y448447D01*
X721545D01*
Y456480D01*
X726203D01*
Y470560D01*
X715472D01*
X706203Y479829D01*
X705363Y480391D01*
X704372Y480588D01*
X696800D01*
Y486391D01*
X697010Y486433D01*
X697850Y486994D01*
X704731Y493875D01*
X705486Y493440D01*
X707747Y492834D01*
X710088D01*
X712349Y493440D01*
X714376Y494610D01*
X716031Y496265D01*
X717202Y498292D01*
X717807Y500554D01*
Y502894D01*
X717202Y505155D01*
X716031Y507182D01*
X714376Y508838D01*
X712349Y510008D01*
X710088Y510614D01*
X707747D01*
X705486Y510008D01*
X703459Y508838D01*
X701804Y507182D01*
X700633Y505155D01*
X700027Y502894D01*
Y500554D01*
X700633Y498292D01*
X701069Y497538D01*
X697718Y494187D01*
X696800Y493450D01*
Y493450D01*
X696800Y493450D01*
X683720D01*
Y493450D01*
X682800D01*
Y493450D01*
X672391D01*
X672262Y493637D01*
X672640Y495322D01*
X673479Y495806D01*
X675134Y497461D01*
X676304Y499489D01*
X676910Y501750D01*
Y504090D01*
X676304Y506351D01*
X675134Y508379D01*
X673479Y510034D01*
X671451Y511204D01*
X669190Y511810D01*
X666850D01*
X664589Y511204D01*
X662561Y510034D01*
X660906Y508379D01*
X659736Y506351D01*
X659130Y504090D01*
Y503680D01*
X627029D01*
Y505154D01*
X610011D01*
Y497026D01*
Y485987D01*
X608741Y485647D01*
X607326Y487061D01*
X605299Y488232D01*
X603038Y488838D01*
X600697D01*
X598436Y488232D01*
X597174Y487503D01*
X597050Y487431D01*
X596270Y488447D01*
X596391Y488569D01*
X597664Y489841D01*
X598834Y491869D01*
X599440Y494130D01*
Y496470D01*
X598834Y498731D01*
X597664Y500759D01*
X596009Y502414D01*
X593981Y503584D01*
X591932Y504133D01*
X591600Y504782D01*
X591463Y505460D01*
X599761Y513758D01*
X600230Y513487D01*
X602491Y512881D01*
X604831D01*
X607092Y513487D01*
X608741Y514439D01*
X610011Y513891D01*
Y507026D01*
X627029D01*
Y508500D01*
X650790D01*
X651781Y508698D01*
X652621Y509259D01*
X723255Y579893D01*
X724791Y578356D01*
X726819Y577186D01*
X729080Y576580D01*
X731420D01*
X733681Y577186D01*
X735709Y578356D01*
X737364Y580011D01*
X738534Y582039D01*
X739140Y584300D01*
Y586640D01*
X738534Y588901D01*
X737364Y590929D01*
X735709Y592584D01*
X733681Y593754D01*
X731606Y594310D01*
X731773Y595580D01*
X915867D01*
X923410Y588037D01*
Y571620D01*
X943490D01*
Y591700D01*
X927073D01*
X918771Y600001D01*
X917931Y600563D01*
X916940Y600760D01*
X753363D01*
X753196Y602030D01*
X755271Y602586D01*
X757299Y603756D01*
X758954Y605411D01*
X760124Y607439D01*
X760730Y609700D01*
Y612040D01*
X760124Y614301D01*
X758954Y616329D01*
X757299Y617984D01*
X755271Y619154D01*
X754430Y619380D01*
Y632679D01*
X754233Y633671D01*
X753671Y634511D01*
X738019Y650163D01*
Y652975D01*
X746762D01*
X747535Y651967D01*
X747522Y651918D01*
Y649578D01*
X748128Y647317D01*
X749298Y645289D01*
X750953Y643634D01*
X752981Y642464D01*
X755242Y641858D01*
X757582D01*
X759843Y642464D01*
X761871Y643634D01*
X763526Y645289D01*
X764696Y647317D01*
X765302Y649578D01*
Y651918D01*
X764696Y654179D01*
X763526Y656207D01*
X763027Y656705D01*
X763554Y657975D01*
X767531D01*
X776504Y649003D01*
X776068Y648248D01*
X775462Y645987D01*
Y643646D01*
X776068Y641385D01*
X777238Y639358D01*
X778893Y637703D01*
X780921Y636532D01*
X783182Y635927D01*
X785522D01*
X787783Y636532D01*
X789811Y637703D01*
X791466Y639358D01*
X792636Y641385D01*
X793242Y643646D01*
Y645987D01*
X792636Y648248D01*
X791466Y650275D01*
X789811Y651930D01*
X787783Y653101D01*
X785522Y653707D01*
X783182D01*
X780921Y653101D01*
X780166Y652665D01*
X771126Y661705D01*
X771653Y662975D01*
X779864D01*
X780855Y663172D01*
X781696Y663733D01*
X797502Y679539D01*
X798063Y680379D01*
X798260Y681370D01*
Y683917D01*
X808250D01*
Y703997D01*
X788170D01*
Y683917D01*
X793081D01*
Y682443D01*
X783173Y672535D01*
X782157Y673315D01*
X782984Y674749D01*
X783590Y677010D01*
Y679350D01*
X782984Y681611D01*
X781814Y683639D01*
X780159Y685294D01*
X778131Y686464D01*
X776498Y686902D01*
Y688217D01*
X776703Y688272D01*
X778730Y689442D01*
X780385Y691097D01*
X781556Y693124D01*
X782161Y695386D01*
Y697726D01*
X781556Y699987D01*
X780385Y702014D01*
X778730Y703670D01*
X776703Y704840D01*
X774442Y705446D01*
X772101D01*
X769840Y704840D01*
X767813Y703670D01*
X767442Y703299D01*
X766599Y704141D01*
X765759Y704703D01*
X764768Y704900D01*
X759650D01*
Y714202D01*
X762948Y717500D01*
X779977D01*
X790649Y706829D01*
X791489Y706267D01*
X792480Y706070D01*
X812997D01*
X824939Y694129D01*
X825779Y693567D01*
X826770Y693370D01*
X867530D01*
Y685920D01*
X887610D01*
Y706000D01*
X867530D01*
Y698550D01*
X827843D01*
X815901Y710491D01*
X815061Y711053D01*
X814070Y711250D01*
X806097D01*
X805571Y712520D01*
X806244Y713193D01*
X807566Y715482D01*
X808250Y718036D01*
Y720679D01*
X807566Y723233D01*
X806244Y725522D01*
X804375Y727392D01*
X802085Y728713D01*
X799532Y729397D01*
X796888D01*
X794579Y728779D01*
X789981Y733376D01*
X789141Y733938D01*
X788150Y734135D01*
X653960D01*
Y738085D01*
X639880D01*
Y737700D01*
X638720Y737435D01*
Y737435D01*
X627738D01*
X627398Y738705D01*
X629029Y739646D01*
X630684Y741301D01*
X631854Y743329D01*
X632460Y745590D01*
Y747930D01*
X631935Y749890D01*
X632379Y750752D01*
X632761Y751160D01*
X634025D01*
X636286Y751766D01*
X638313Y752936D01*
X639968Y754592D01*
X641138Y756619D01*
X641744Y758880D01*
Y761221D01*
X641138Y763482D01*
X639968Y765509D01*
X638313Y767164D01*
X636286Y768335D01*
X634025Y768940D01*
X631684D01*
X629423Y768335D01*
X627396Y767164D01*
X625740Y765509D01*
X624570Y763482D01*
X624365Y762717D01*
X620427D01*
X619436Y762520D01*
X618596Y761958D01*
X607996Y751359D01*
X606980Y752139D01*
X607234Y752579D01*
X607840Y754840D01*
Y757181D01*
X607234Y759442D01*
X606064Y761469D01*
X604409Y763124D01*
X602382Y764295D01*
X600121Y764901D01*
X597780D01*
X595519Y764295D01*
X593492Y763124D01*
X591837Y761469D01*
X590666Y759442D01*
X590060Y757181D01*
Y754840D01*
X590666Y752579D01*
X591102Y751825D01*
X590559Y751282D01*
X589998Y750442D01*
X588630Y750077D01*
X584761Y753947D01*
X583921Y754508D01*
X582930Y754705D01*
X582274D01*
X582049Y755547D01*
X580878Y757574D01*
X579223Y759229D01*
X577196Y760399D01*
X574935Y761005D01*
X572594D01*
X570333Y760399D01*
X568306Y759229D01*
X566651Y757574D01*
X565480Y755547D01*
X564875Y753286D01*
Y750945D01*
X565480Y748684D01*
X566651Y746657D01*
X568306Y745002D01*
X570333Y743831D01*
X572594Y743225D01*
X574935D01*
X577196Y743831D01*
X579223Y745002D01*
X580878Y746657D01*
X581629Y747957D01*
X583170Y748213D01*
X584641Y746742D01*
Y737784D01*
X583350D01*
Y722704D01*
X603850D01*
Y712204D01*
Y702205D01*
Y689784D01*
X570930D01*
Y702205D01*
Y712204D01*
Y722704D01*
X581430D01*
Y737784D01*
X568350D01*
Y725284D01*
X555850D01*
Y719014D01*
X554677Y718528D01*
X550131Y723074D01*
X550305Y724373D01*
X550801Y724506D01*
X552829Y725676D01*
X554484Y727331D01*
X555654Y729359D01*
X556260Y731620D01*
Y733960D01*
X555654Y736221D01*
X554484Y738249D01*
X552829Y739904D01*
X550801Y741074D01*
X548540Y741680D01*
X546200D01*
X543939Y741074D01*
X541911Y739904D01*
X540256Y738249D01*
X539086Y736221D01*
X538480Y733960D01*
Y731620D01*
X539086Y729359D01*
X540256Y727331D01*
X541911Y725676D01*
X543939Y724506D01*
X544780Y724280D01*
Y722173D01*
X544977Y721182D01*
X545539Y720342D01*
X555850Y710030D01*
Y708604D01*
X553614D01*
X552623Y708407D01*
X551783Y707846D01*
X549349Y705411D01*
X548787Y704571D01*
X548590Y703580D01*
Y631093D01*
X548787Y630102D01*
X549349Y629262D01*
X558750Y619861D01*
Y610048D01*
X557480Y609522D01*
X556639Y610364D01*
X554611Y611534D01*
X552350Y612140D01*
X550010D01*
X547749Y611534D01*
X545721Y610364D01*
X544066Y608709D01*
X543943Y608496D01*
X542673Y608836D01*
Y698166D01*
X542476Y699157D01*
X541915Y699997D01*
X441760Y800152D01*
X442426Y801305D01*
X443110Y803858D01*
Y806502D01*
X442426Y809055D01*
X441104Y811345D01*
X439235Y813214D01*
X436945Y814536D01*
X434392Y815220D01*
D02*
G37*
G36*
X231261Y693436D02*
X228920D01*
X226660Y692830D01*
X224632Y691659D01*
X222977Y690004D01*
X221807Y687977D01*
X221201Y685716D01*
Y683375D01*
X221807Y681114D01*
X222977Y679087D01*
X224632Y677432D01*
X226660Y676262D01*
X228920Y675656D01*
X231261D01*
X233522Y676262D01*
X235550Y677432D01*
X237205Y679087D01*
X238375Y681114D01*
X238981Y683375D01*
Y685716D01*
X238375Y687977D01*
X237205Y690004D01*
X235550Y691659D01*
X233522Y692830D01*
X231261Y693436D01*
D02*
G37*
G36*
X302033Y698372D02*
X299692D01*
X297431Y697766D01*
X295404Y696596D01*
X293749Y694941D01*
X292578Y692914D01*
X291972Y690653D01*
Y688312D01*
X292578Y686051D01*
X293749Y684024D01*
X295404Y682369D01*
X297431Y681198D01*
X299692Y680592D01*
X302033D01*
X304294Y681198D01*
X306321Y682369D01*
X307390Y683438D01*
X307847Y683334D01*
X308610Y682862D01*
Y680820D01*
X309216Y678559D01*
X310386Y676531D01*
X312041Y674876D01*
X314069Y673706D01*
X316330Y673100D01*
X318670D01*
X320931Y673706D01*
X322959Y674876D01*
X324614Y676531D01*
X325784Y678559D01*
X326390Y680820D01*
Y683160D01*
X325784Y685421D01*
X324614Y687449D01*
X322959Y689104D01*
X320931Y690274D01*
X318670Y690880D01*
X316330D01*
X314069Y690274D01*
X312041Y689104D01*
X310972Y688035D01*
X310515Y688139D01*
X309752Y688611D01*
Y690653D01*
X309146Y692914D01*
X307976Y694941D01*
X306321Y696596D01*
X304294Y697766D01*
X302033Y698372D01*
D02*
G37*
G36*
X208180Y650240D02*
X205840D01*
X203579Y649634D01*
X201551Y648464D01*
X199896Y646809D01*
X198726Y644781D01*
X198120Y642520D01*
Y640180D01*
X198726Y637919D01*
X199896Y635891D01*
X200163Y635625D01*
X183589Y619051D01*
X183027Y618211D01*
X182830Y617220D01*
Y505460D01*
X183027Y504469D01*
X183589Y503629D01*
X201369Y485849D01*
X202209Y485287D01*
X203200Y485090D01*
X215060D01*
Y480640D01*
X227790D01*
X228140Y480640D01*
X229060D01*
X229410Y480640D01*
X238477D01*
X239950Y479167D01*
Y476940D01*
X236000D01*
Y462860D01*
X248730D01*
X249080Y462860D01*
X250000D01*
X250350Y462860D01*
X251005D01*
X251270Y461700D01*
X251270D01*
Y447620D01*
X264000D01*
X264350Y447620D01*
X265270D01*
X265620Y447620D01*
X269909D01*
X270347Y446350D01*
X269800Y445806D01*
X268861Y445264D01*
X267206Y443609D01*
X266036Y441581D01*
X265430Y439320D01*
Y436980D01*
X266036Y434719D01*
X267206Y432691D01*
X268861Y431036D01*
X270889Y429866D01*
X273150Y429260D01*
X275490D01*
X277751Y429866D01*
X279779Y431036D01*
X281434Y432691D01*
X282604Y434719D01*
X283210Y436980D01*
Y439320D01*
X282604Y441581D01*
X281434Y443609D01*
X279779Y445264D01*
X278837Y445808D01*
X278293Y446350D01*
X278350Y447620D01*
X278350D01*
Y450078D01*
X278369Y450171D01*
X278350Y450271D01*
Y461700D01*
X265620D01*
X265270Y461700D01*
X264350D01*
X264000Y461700D01*
X263346D01*
X263080Y462860D01*
X263200Y464080D01*
X279625D01*
X280006Y462659D01*
X281176Y460631D01*
X282831Y458976D01*
X284859Y457806D01*
X287120Y457200D01*
X289460D01*
X291721Y457806D01*
X293749Y458976D01*
X295404Y460631D01*
X296574Y462659D01*
X297180Y464920D01*
Y467260D01*
X296749Y468868D01*
X297840Y469705D01*
X298868Y469111D01*
X301129Y468506D01*
X303470D01*
X305731Y469111D01*
X307758Y470282D01*
X309413Y471937D01*
X310583Y473964D01*
X311189Y476225D01*
Y478566D01*
X310583Y480827D01*
X309413Y482854D01*
X307758Y484509D01*
X305731Y485680D01*
X303470Y486286D01*
X301129D01*
X298868Y485680D01*
X296841Y484509D01*
X295186Y482854D01*
X294015Y480827D01*
X293790Y479985D01*
X285057D01*
X280240Y484803D01*
Y494720D01*
X267510D01*
X267160Y494720D01*
X266240D01*
X265890Y494720D01*
X253160D01*
Y490270D01*
X242140D01*
Y494720D01*
X229410D01*
X229060Y494720D01*
X228140D01*
X227790Y494720D01*
X215060D01*
Y490270D01*
X204273D01*
X188010Y506533D01*
Y616147D01*
X204643Y632781D01*
X205840Y632460D01*
X208180D01*
X210441Y633066D01*
X212469Y634236D01*
X214124Y635891D01*
X215294Y637919D01*
X215900Y640180D01*
Y642520D01*
X215294Y644781D01*
X214124Y646809D01*
X212469Y648464D01*
X210441Y649634D01*
X208180Y650240D01*
D02*
G37*
G36*
X255170Y647532D02*
X252830D01*
X250569Y646926D01*
X248541Y645756D01*
X246886Y644100D01*
X245716Y642073D01*
X245110Y639812D01*
Y637472D01*
X245716Y635210D01*
X246886Y633183D01*
X248541Y631528D01*
X250569Y630358D01*
X252830Y629752D01*
X255170D01*
X257431Y630358D01*
X259459Y631528D01*
X261114Y633183D01*
X262284Y635210D01*
X262890Y637472D01*
Y639812D01*
X262284Y642073D01*
X261114Y644100D01*
X259459Y645756D01*
X257431Y646926D01*
X255170Y647532D01*
D02*
G37*
G36*
X352010Y634050D02*
X349669D01*
X347408Y633444D01*
X345381Y632274D01*
X343726Y630619D01*
X342556Y628591D01*
X341950Y626330D01*
Y623989D01*
X342556Y621729D01*
X343726Y619701D01*
X345381Y618046D01*
X347408Y616876D01*
X349669Y616270D01*
X352010D01*
X354271Y616876D01*
X356298Y618046D01*
X357954Y619701D01*
X359124Y621729D01*
X359730Y623989D01*
Y626330D01*
X359124Y628591D01*
X357954Y630619D01*
X356298Y632274D01*
X354271Y633444D01*
X352010Y634050D01*
D02*
G37*
G36*
X923170Y633610D02*
X903090D01*
Y613530D01*
X923170D01*
Y633610D01*
D02*
G37*
G36*
X889052D02*
X886408D01*
X883855Y632926D01*
X881565Y631604D01*
X879696Y629735D01*
X878374Y627445D01*
X877690Y624892D01*
Y622248D01*
X878374Y619695D01*
X879696Y617405D01*
X881565Y615536D01*
X883855Y614214D01*
X886408Y613530D01*
X889052D01*
X891605Y614214D01*
X893895Y615536D01*
X895764Y617405D01*
X897086Y619695D01*
X897770Y622248D01*
Y624892D01*
X897086Y627445D01*
X895764Y629735D01*
X893895Y631604D01*
X891605Y632926D01*
X889052Y633610D01*
D02*
G37*
G36*
X863652D02*
X861008D01*
X858455Y632926D01*
X856165Y631604D01*
X854296Y629735D01*
X852974Y627445D01*
X852290Y624892D01*
Y622248D01*
X852974Y619695D01*
X854296Y617405D01*
X856165Y615536D01*
X858455Y614214D01*
X861008Y613530D01*
X863652D01*
X866205Y614214D01*
X868495Y615536D01*
X870364Y617405D01*
X871686Y619695D01*
X872370Y622248D01*
Y624892D01*
X871686Y627445D01*
X870364Y629735D01*
X868495Y631604D01*
X866205Y632926D01*
X863652Y633610D01*
D02*
G37*
G36*
X325020Y609600D02*
X322680D01*
X320419Y608994D01*
X318391Y607824D01*
X316736Y606169D01*
X315566Y604141D01*
X314960Y601880D01*
Y599540D01*
X315566Y597279D01*
X316736Y595251D01*
X318391Y593596D01*
X320419Y592426D01*
X322680Y591820D01*
X325020D01*
X327281Y592426D01*
X329309Y593596D01*
X330964Y595251D01*
X332134Y597279D01*
X332740Y599540D01*
Y601880D01*
X332134Y604141D01*
X330964Y606169D01*
X329309Y607824D01*
X327281Y608994D01*
X325020Y609600D01*
D02*
G37*
G36*
X465990Y605790D02*
X463650D01*
X461389Y605184D01*
X459361Y604014D01*
X457706Y602359D01*
X456536Y600331D01*
X455930Y598070D01*
Y595730D01*
X456536Y593469D01*
X457706Y591441D01*
X459361Y589786D01*
X461389Y588616D01*
X463650Y588010D01*
X465990D01*
X468251Y588616D01*
X470279Y589786D01*
X471934Y591441D01*
X473104Y593469D01*
X473710Y595730D01*
Y598070D01*
X473104Y600331D01*
X471934Y602359D01*
X470279Y604014D01*
X468251Y605184D01*
X465990Y605790D01*
D02*
G37*
G36*
X905390Y592970D02*
X885310D01*
Y572890D01*
X905390D01*
Y592970D01*
D02*
G37*
G36*
X326290Y590550D02*
X323950D01*
X321689Y589944D01*
X319661Y588774D01*
X318006Y587119D01*
X316836Y585091D01*
X316230Y582830D01*
Y580490D01*
X316836Y578229D01*
X318006Y576201D01*
X319661Y574546D01*
X321689Y573376D01*
X323950Y572770D01*
X326290D01*
X328551Y573376D01*
X330579Y574546D01*
X332234Y576201D01*
X333404Y578229D01*
X334010Y580490D01*
Y582830D01*
X333404Y585091D01*
X332234Y587119D01*
X330579Y588774D01*
X328551Y589944D01*
X326290Y590550D01*
D02*
G37*
G36*
X861112Y568840D02*
X858468D01*
X855915Y568156D01*
X853625Y566834D01*
X851756Y564965D01*
X850434Y562675D01*
X849750Y560122D01*
Y557478D01*
X850434Y554925D01*
X851756Y552635D01*
X853625Y550766D01*
X855915Y549444D01*
X858468Y548760D01*
X861112D01*
X863665Y549444D01*
X865955Y550766D01*
X867824Y552635D01*
X869146Y554925D01*
X869830Y557478D01*
Y560122D01*
X869146Y562675D01*
X867824Y564965D01*
X865955Y566834D01*
X863665Y568156D01*
X861112Y568840D01*
D02*
G37*
G36*
X896672Y567570D02*
X894028D01*
X891475Y566886D01*
X889185Y565564D01*
X887316Y563695D01*
X885994Y561405D01*
X885310Y558852D01*
Y556208D01*
X885994Y553655D01*
X887316Y551365D01*
X889185Y549496D01*
X891475Y548174D01*
X894028Y547490D01*
X896672D01*
X899225Y548174D01*
X901515Y549496D01*
X903384Y551365D01*
X904706Y553655D01*
X905390Y556208D01*
Y558852D01*
X904706Y561405D01*
X903384Y563695D01*
X901515Y565564D01*
X899225Y566886D01*
X896672Y567570D01*
D02*
G37*
G36*
X322480Y554990D02*
X320140D01*
X317879Y554384D01*
X315851Y553214D01*
X314196Y551559D01*
X313273Y549960D01*
X217170D01*
X216179Y549763D01*
X215339Y549201D01*
X208472Y542335D01*
X207507Y542143D01*
X207164Y541913D01*
X205361Y542954D01*
X203100Y543560D01*
X200760D01*
X198499Y542954D01*
X196471Y541784D01*
X194816Y540129D01*
X193646Y538101D01*
X193040Y535840D01*
Y533500D01*
X193646Y531239D01*
X194816Y529211D01*
X196471Y527556D01*
X198499Y526386D01*
X200760Y525780D01*
X203100D01*
X205361Y526386D01*
X207389Y527556D01*
X209044Y529211D01*
X210214Y531239D01*
X210820Y533500D01*
Y535840D01*
X210452Y537214D01*
X210541Y537357D01*
X211381Y537919D01*
X218243Y544780D01*
X312460D01*
X313026Y542669D01*
X314196Y540641D01*
X315851Y538986D01*
X317879Y537816D01*
X320140Y537210D01*
X322480D01*
X324741Y537816D01*
X326769Y538986D01*
X328424Y540641D01*
X329594Y542669D01*
X330200Y544930D01*
Y547270D01*
X329594Y549531D01*
X328424Y551559D01*
X326769Y553214D01*
X324741Y554384D01*
X322480Y554990D01*
D02*
G37*
G36*
X481230Y588010D02*
X478890D01*
X476629Y587404D01*
X474601Y586234D01*
X472946Y584579D01*
X471776Y582551D01*
X471170Y580290D01*
Y577950D01*
X471776Y575689D01*
X472946Y573661D01*
X474601Y572006D01*
X476629Y570836D01*
X478176Y570421D01*
Y552099D01*
X476956D01*
Y535081D01*
X485084D01*
Y552099D01*
X483355D01*
Y570799D01*
X483491Y570836D01*
X485519Y572006D01*
X487174Y573661D01*
X488344Y575689D01*
X488950Y577950D01*
Y580290D01*
X488344Y582551D01*
X487174Y584579D01*
X485519Y586234D01*
X483491Y587404D01*
X481230Y588010D01*
D02*
G37*
G36*
X861112Y543440D02*
X858468D01*
X855915Y542756D01*
X853625Y541434D01*
X851756Y539565D01*
X850434Y537275D01*
X849750Y534722D01*
Y532078D01*
X850434Y529525D01*
X851756Y527235D01*
X853625Y525366D01*
X855915Y524044D01*
X858468Y523360D01*
X861112D01*
X863665Y524044D01*
X865955Y525366D01*
X867824Y527235D01*
X869146Y529525D01*
X869830Y532078D01*
Y534722D01*
X869146Y537275D01*
X867824Y539565D01*
X865955Y541434D01*
X863665Y542756D01*
X861112Y543440D01*
D02*
G37*
G36*
X297080Y541020D02*
X294740D01*
X292479Y540414D01*
X290451Y539244D01*
X288796Y537589D01*
X287626Y535561D01*
X287020Y533300D01*
Y530960D01*
X287626Y528699D01*
X288796Y526671D01*
X290451Y525016D01*
X292479Y523846D01*
X294740Y523240D01*
X297080D01*
X299341Y523846D01*
X301369Y525016D01*
X303024Y526671D01*
X304194Y528699D01*
X304800Y530960D01*
Y533300D01*
X304194Y535561D01*
X303024Y537589D01*
X301369Y539244D01*
X299341Y540414D01*
X297080Y541020D01*
D02*
G37*
G36*
X262790D02*
X260450D01*
X258189Y540414D01*
X256161Y539244D01*
X254506Y537589D01*
X253336Y535561D01*
X252730Y533300D01*
Y530960D01*
X253336Y528699D01*
X254506Y526671D01*
X256161Y525016D01*
X258189Y523846D01*
X260450Y523240D01*
X262790D01*
X265051Y523846D01*
X267079Y525016D01*
X268734Y526671D01*
X269904Y528699D01*
X270510Y530960D01*
Y533300D01*
X269904Y535561D01*
X268734Y537589D01*
X267079Y539244D01*
X265051Y540414D01*
X262790Y541020D01*
D02*
G37*
G36*
X896672Y542170D02*
X894028D01*
X891475Y541486D01*
X889185Y540164D01*
X887316Y538295D01*
X885994Y536005D01*
X885310Y533452D01*
Y530808D01*
X885994Y528255D01*
X887316Y525965D01*
X889185Y524096D01*
X891475Y522774D01*
X894028Y522090D01*
X896672D01*
X899225Y522774D01*
X901515Y524096D01*
X903384Y525965D01*
X904706Y528255D01*
X905390Y530808D01*
Y533452D01*
X904706Y536005D01*
X903384Y538295D01*
X901515Y540164D01*
X899225Y541486D01*
X896672Y542170D01*
D02*
G37*
G36*
X934772Y566300D02*
X932128D01*
X929575Y565616D01*
X927285Y564294D01*
X925416Y562425D01*
X924094Y560135D01*
X923410Y557582D01*
Y554938D01*
X924094Y552385D01*
X925416Y550095D01*
X925859Y549652D01*
Y546543D01*
X878501Y499185D01*
X852170D01*
X850683Y498889D01*
X849423Y498047D01*
X754529Y403153D01*
X753687Y401892D01*
X753391Y400406D01*
Y342825D01*
X752824Y342673D01*
X750797Y341502D01*
X749142Y339847D01*
X747972Y337820D01*
X747366Y335559D01*
Y333218D01*
X747972Y330957D01*
X749142Y328930D01*
X750797Y327275D01*
X752824Y326104D01*
X755086Y325499D01*
X757426D01*
X759687Y326104D01*
X761714Y327275D01*
X763370Y328930D01*
X764540Y330957D01*
X765146Y333218D01*
Y335559D01*
X764540Y337820D01*
X763370Y339847D01*
X761714Y341502D01*
X761160Y341822D01*
Y398797D01*
X853779Y491415D01*
X880110D01*
X881597Y491711D01*
X882857Y492553D01*
X922140Y531836D01*
X923410Y531310D01*
Y529538D01*
X924094Y526985D01*
X925416Y524695D01*
X927285Y522826D01*
X929575Y521504D01*
X932128Y520820D01*
X934772D01*
X937325Y521504D01*
X939615Y522826D01*
X941484Y524695D01*
X942806Y526985D01*
X943490Y529538D01*
Y532182D01*
X942806Y534735D01*
X941484Y537025D01*
X939615Y538894D01*
X937325Y540216D01*
X934772Y540900D01*
X933000D01*
X932474Y542170D01*
X932490Y542187D01*
X933333Y543447D01*
X933628Y544934D01*
Y546220D01*
X934772D01*
X937325Y546904D01*
X939615Y548226D01*
X941484Y550095D01*
X942806Y552385D01*
X943490Y554938D01*
Y557582D01*
X942806Y560135D01*
X941484Y562425D01*
X939615Y564294D01*
X937325Y565616D01*
X934772Y566300D01*
D02*
G37*
G36*
X688240Y534670D02*
X685900D01*
X683639Y534064D01*
X681611Y532894D01*
X679956Y531239D01*
X678786Y529211D01*
X678180Y526950D01*
Y524610D01*
X678786Y522349D01*
X679956Y520321D01*
X681611Y518666D01*
X683639Y517496D01*
X685900Y516890D01*
X688240D01*
X690501Y517496D01*
X692529Y518666D01*
X694184Y520321D01*
X695354Y522349D01*
X695960Y524610D01*
Y526950D01*
X695354Y529211D01*
X694184Y531239D01*
X692529Y532894D01*
X690501Y534064D01*
X688240Y534670D01*
D02*
G37*
G36*
X238660Y532130D02*
X236320D01*
X234059Y531524D01*
X232031Y530354D01*
X230376Y528699D01*
X229206Y526671D01*
X228600Y524410D01*
Y522070D01*
X229206Y519809D01*
X230376Y517781D01*
X232031Y516126D01*
X234059Y514956D01*
X236320Y514350D01*
X238660D01*
X240921Y514956D01*
X242949Y516126D01*
X244604Y517781D01*
X245774Y519809D01*
X246380Y522070D01*
Y524410D01*
X245774Y526671D01*
X244604Y528699D01*
X242949Y530354D01*
X240921Y531524D01*
X238660Y532130D01*
D02*
G37*
G36*
X336450Y523240D02*
X334110D01*
X331849Y522634D01*
X329821Y521464D01*
X328166Y519809D01*
X326996Y517781D01*
X326390Y515520D01*
Y513180D01*
X326996Y510919D01*
X328166Y508891D01*
X329821Y507236D01*
X331849Y506066D01*
X334110Y505460D01*
X336450D01*
X338711Y506066D01*
X340739Y507236D01*
X342394Y508891D01*
X343564Y510919D01*
X344170Y513180D01*
Y515520D01*
X343564Y517781D01*
X342394Y519809D01*
X340739Y521464D01*
X338711Y522634D01*
X336450Y523240D01*
D02*
G37*
G36*
X396140Y499110D02*
X393800D01*
X391539Y498504D01*
X389511Y497334D01*
X387856Y495679D01*
X386686Y493651D01*
X386080Y491390D01*
Y489050D01*
X386091Y489009D01*
X385054Y487972D01*
X384012Y488251D01*
X381671D01*
X379410Y487645D01*
X377383Y486475D01*
X375727Y484820D01*
X374557Y482793D01*
X373951Y480532D01*
Y478191D01*
X374557Y475930D01*
X375727Y473903D01*
X377383Y472247D01*
X379410Y471077D01*
X381671Y470471D01*
X384012D01*
X386273Y471077D01*
X388300Y472247D01*
X389955Y473903D01*
X391125Y475930D01*
X391731Y478191D01*
Y480532D01*
X391720Y480572D01*
X392757Y481609D01*
X393800Y481330D01*
X396140D01*
X398401Y481936D01*
X400429Y483106D01*
X402084Y484761D01*
X403254Y486789D01*
X403860Y489050D01*
Y491390D01*
X403254Y493651D01*
X402084Y495679D01*
X400429Y497334D01*
X398401Y498504D01*
X396140Y499110D01*
D02*
G37*
G36*
X728880Y501650D02*
X726540D01*
X724279Y501044D01*
X722251Y499874D01*
X720596Y498219D01*
X719426Y496191D01*
X718820Y493930D01*
Y491590D01*
X719426Y489329D01*
X720596Y487301D01*
X722251Y485646D01*
X724279Y484476D01*
X726540Y483870D01*
X728880D01*
X731141Y484476D01*
X733169Y485646D01*
X734824Y487301D01*
X735994Y489329D01*
X736600Y491590D01*
Y493930D01*
X735994Y496191D01*
X734824Y498219D01*
X733169Y499874D01*
X731141Y501044D01*
X728880Y501650D01*
D02*
G37*
G36*
X933350Y488950D02*
X931010D01*
X928749Y488344D01*
X926721Y487174D01*
X925066Y485519D01*
X923896Y483491D01*
X923290Y481230D01*
Y478890D01*
X923896Y476629D01*
X925066Y474601D01*
X926721Y472946D01*
X928749Y471776D01*
X931010Y471170D01*
X933350D01*
X935611Y471776D01*
X937639Y472946D01*
X939294Y474601D01*
X940464Y476629D01*
X941070Y478890D01*
Y481230D01*
X940464Y483491D01*
X939294Y485519D01*
X937639Y487174D01*
X935611Y488344D01*
X933350Y488950D01*
D02*
G37*
G36*
X911912Y482480D02*
X909268D01*
X906715Y481796D01*
X904425Y480474D01*
X902556Y478605D01*
X901234Y476315D01*
X900550Y473762D01*
Y471118D01*
X901234Y468565D01*
X901900Y467412D01*
X880307Y445820D01*
X842900D01*
X842674Y446661D01*
X841504Y448689D01*
X839849Y450344D01*
X837821Y451514D01*
X835560Y452120D01*
X833220D01*
X830959Y451514D01*
X828931Y450344D01*
X827276Y448689D01*
X826106Y446661D01*
X825500Y444400D01*
Y442060D01*
X826106Y439799D01*
X827276Y437771D01*
X828931Y436116D01*
X830959Y434946D01*
X833220Y434340D01*
X835560D01*
X837821Y434946D01*
X839849Y436116D01*
X841504Y437771D01*
X842674Y439799D01*
X842900Y440640D01*
X881380D01*
X882371Y440837D01*
X883211Y441399D01*
X899554Y457742D01*
X900550Y456941D01*
X900550Y455867D01*
Y437000D01*
X920630D01*
Y457080D01*
X901812D01*
X900688Y457080D01*
X899888Y458076D01*
X905562Y463750D01*
X906715Y463084D01*
X909268Y462400D01*
X911912D01*
X914465Y463084D01*
X916755Y464406D01*
X918624Y466275D01*
X919946Y468565D01*
X920630Y471118D01*
Y473762D01*
X919946Y476315D01*
X918624Y478605D01*
X916755Y480474D01*
X914465Y481796D01*
X911912Y482480D01*
D02*
G37*
G36*
X407558Y471110D02*
X405055D01*
X402743Y470153D01*
X400974Y468383D01*
X400017Y466071D01*
Y463569D01*
X400974Y461257D01*
X402743Y459487D01*
X405055Y458530D01*
X407558D01*
X409870Y459487D01*
X411639Y461257D01*
X412597Y463569D01*
Y466071D01*
X411639Y468383D01*
X409870Y470153D01*
X407558Y471110D01*
D02*
G37*
G36*
X440590Y469900D02*
X438250D01*
X435989Y469294D01*
X433961Y468124D01*
X432306Y466469D01*
X431136Y464441D01*
X430530Y462180D01*
Y459840D01*
X431136Y457579D01*
X432306Y455551D01*
X433208Y454650D01*
X397926Y419368D01*
X397365Y418528D01*
X397167Y417537D01*
Y386860D01*
X383046Y372738D01*
X381907Y373396D01*
X382270Y374750D01*
Y377090D01*
X381664Y379351D01*
X380494Y381379D01*
X378839Y383034D01*
X376811Y384204D01*
X374550Y384810D01*
X372210D01*
X369949Y384204D01*
X367921Y383034D01*
X366266Y381379D01*
X365096Y379351D01*
X364490Y377090D01*
Y374750D01*
X365096Y372489D01*
X366266Y370461D01*
X367921Y368806D01*
X369949Y367636D01*
X372210Y367030D01*
X374550D01*
X375904Y367393D01*
X376562Y366254D01*
X371037Y360730D01*
X348870D01*
X348644Y361571D01*
X347474Y363599D01*
X345819Y365254D01*
X343791Y366424D01*
X341530Y367030D01*
X339190D01*
X336929Y366424D01*
X334901Y365254D01*
X333246Y363599D01*
X332076Y361571D01*
X331470Y359310D01*
Y356970D01*
X332076Y354709D01*
X333246Y352681D01*
X334901Y351026D01*
X336929Y349856D01*
X339190Y349250D01*
X341530D01*
X343791Y349856D01*
X345819Y351026D01*
X347474Y352681D01*
X348644Y354709D01*
X348870Y355550D01*
X372110D01*
X373101Y355747D01*
X373941Y356309D01*
X401588Y383956D01*
X402150Y384796D01*
X402347Y385787D01*
Y416464D01*
X427127Y441244D01*
X428260Y440594D01*
X428266Y440588D01*
Y438250D01*
X428872Y435989D01*
X430042Y433961D01*
X431698Y432306D01*
X433725Y431136D01*
X435986Y430530D01*
X438327D01*
X440588Y431136D01*
X442615Y432306D01*
X444270Y433961D01*
X445440Y435989D01*
X446046Y438250D01*
Y440590D01*
X445440Y442851D01*
X444523Y444440D01*
X445514Y445431D01*
X446075Y446271D01*
X446273Y447262D01*
Y447985D01*
X451788Y453500D01*
X455011D01*
Y452026D01*
X472029D01*
Y457026D01*
Y465154D01*
X455011D01*
Y463640D01*
X447919D01*
X447704Y464441D01*
X446534Y466469D01*
X444879Y468124D01*
X442851Y469294D01*
X440590Y469900D01*
D02*
G37*
G36*
X764440Y458370D02*
X762100D01*
X759839Y457765D01*
X757811Y456594D01*
X756156Y454939D01*
X754986Y452912D01*
X754380Y450651D01*
Y448310D01*
X754986Y446049D01*
X756156Y444022D01*
X757811Y442367D01*
X759839Y441196D01*
X762100Y440590D01*
X764440D01*
X766701Y441196D01*
X768729Y442367D01*
X770384Y444022D01*
X771554Y446049D01*
X772160Y448310D01*
Y450651D01*
X771554Y452912D01*
X770384Y454939D01*
X768729Y456594D01*
X766701Y457765D01*
X764440Y458370D01*
D02*
G37*
G36*
X479503Y447551D02*
X477163D01*
X474902Y446946D01*
X472874Y445775D01*
X471219Y444120D01*
X470049Y442093D01*
X469443Y439832D01*
Y437491D01*
X470049Y435230D01*
X471219Y433203D01*
X472874Y431548D01*
X474902Y430377D01*
X475743Y430152D01*
Y425890D01*
X473202Y423350D01*
X472029Y423836D01*
Y425154D01*
X455011D01*
Y423680D01*
X433790D01*
X432799Y423483D01*
X431959Y422921D01*
X415999Y406961D01*
X415437Y406121D01*
X415240Y405130D01*
Y359213D01*
X409823Y353796D01*
X409069Y354231D01*
X406808Y354837D01*
X404467D01*
X402206Y354231D01*
X400179Y353061D01*
X398524Y351406D01*
X397353Y349379D01*
X396747Y347118D01*
Y344777D01*
X397353Y342516D01*
X398150Y341136D01*
X397313Y340046D01*
X396140Y340360D01*
X393800D01*
X391539Y339754D01*
X389511Y338584D01*
X387856Y336929D01*
X386686Y334901D01*
X386080Y332640D01*
Y330300D01*
X386686Y328039D01*
X387856Y326011D01*
X389511Y324356D01*
X391539Y323186D01*
X393800Y322580D01*
X396140D01*
X398401Y323186D01*
X400429Y324356D01*
X402084Y326011D01*
X403254Y328039D01*
X403860Y330300D01*
Y332640D01*
X403254Y334901D01*
X402458Y336281D01*
X403294Y337371D01*
X404467Y337057D01*
X406808D01*
X409069Y337663D01*
X411096Y338834D01*
X412751Y340489D01*
X413922Y342516D01*
X413970Y342698D01*
X415240Y342531D01*
Y336196D01*
X385519Y306475D01*
X384957Y305635D01*
X384760Y304643D01*
Y278528D01*
X384957Y277537D01*
X385519Y276697D01*
X386462Y275754D01*
X385416Y273941D01*
X384810Y271680D01*
Y269340D01*
X385416Y267079D01*
X386586Y265051D01*
X388241Y263396D01*
X390269Y262226D01*
X392530Y261620D01*
X394870D01*
X397131Y262226D01*
X399159Y263396D01*
X400814Y265051D01*
X401984Y267079D01*
X402590Y269340D01*
Y271680D01*
X401984Y273941D01*
X400814Y275969D01*
X399159Y277624D01*
X397131Y278794D01*
X394870Y279400D01*
X392530D01*
X390951Y278977D01*
X389940Y279832D01*
Y303571D01*
X393700Y307331D01*
X394970Y306805D01*
Y306170D01*
X395576Y303909D01*
X396746Y301881D01*
X398401Y300226D01*
X400429Y299056D01*
X402690Y298450D01*
X405030D01*
X407291Y299056D01*
X409319Y300226D01*
X410974Y301881D01*
X412144Y303909D01*
X412750Y306170D01*
Y308510D01*
X412144Y310771D01*
X410974Y312799D01*
X409319Y314454D01*
X407291Y315624D01*
X405030Y316230D01*
X404395D01*
X403869Y317500D01*
X419661Y333292D01*
X420223Y334132D01*
X420420Y335123D01*
Y358140D01*
Y404057D01*
X434863Y418500D01*
X455011D01*
Y413680D01*
X446650D01*
X445659Y413483D01*
X444819Y412921D01*
X437709Y405811D01*
X435510Y406400D01*
X433170D01*
X430909Y405794D01*
X428881Y404624D01*
X427226Y402969D01*
X426056Y400941D01*
X425450Y398680D01*
Y396340D01*
X426056Y394079D01*
X427226Y392051D01*
X428881Y390396D01*
X430909Y389226D01*
X433170Y388620D01*
X435510D01*
X436864Y388983D01*
X437522Y387844D01*
X435986Y386309D01*
X435231Y386744D01*
X432970Y387350D01*
X430630D01*
X428369Y386744D01*
X426341Y385574D01*
X424686Y383919D01*
X423516Y381891D01*
X422910Y379630D01*
Y377290D01*
X423516Y375029D01*
X424686Y373001D01*
X426341Y371346D01*
X428369Y370176D01*
X430630Y369570D01*
X432970D01*
X435231Y370176D01*
X437259Y371346D01*
X438914Y373001D01*
X440084Y375029D01*
X440690Y377290D01*
Y379630D01*
X440084Y381891D01*
X439649Y382646D01*
X443545Y386543D01*
X450093D01*
X451084Y386740D01*
X451924Y387301D01*
X460652Y396030D01*
X461214Y396870D01*
X461411Y397861D01*
Y402026D01*
X472029D01*
Y414851D01*
X475158Y417980D01*
X476174Y417200D01*
X475586Y416181D01*
X474980Y413920D01*
Y411580D01*
X475586Y409319D01*
X476756Y407291D01*
X478411Y405636D01*
X479700Y404892D01*
Y403663D01*
X479188Y403151D01*
X478627Y402311D01*
X478430Y401320D01*
Y397099D01*
X476956D01*
Y380081D01*
X478430D01*
Y369593D01*
X476557Y367720D01*
X467140D01*
Y363270D01*
X464360D01*
Y367720D01*
X451280D01*
Y353640D01*
X464360D01*
Y358090D01*
X467140D01*
Y353640D01*
X480220D01*
Y364058D01*
X482851Y366689D01*
X483412Y367529D01*
X483609Y368520D01*
Y380081D01*
X485084D01*
Y397099D01*
X483609D01*
Y400247D01*
X484121Y400759D01*
X484682Y401599D01*
X484879Y402590D01*
Y403860D01*
X485040D01*
X487301Y404466D01*
X489329Y405636D01*
X490984Y407291D01*
X492154Y409319D01*
X492760Y411580D01*
Y413920D01*
X492154Y416181D01*
X490984Y418209D01*
X489329Y419864D01*
X487301Y421034D01*
X485040Y421640D01*
X482700D01*
X480439Y421034D01*
X479420Y420446D01*
X478640Y421462D01*
X480164Y422986D01*
X480726Y423827D01*
X480923Y424818D01*
Y430152D01*
X481764Y430377D01*
X483792Y431548D01*
X485447Y433203D01*
X486617Y435230D01*
X487223Y437491D01*
Y439832D01*
X486617Y442093D01*
X485447Y444120D01*
X483792Y445775D01*
X481764Y446946D01*
X479503Y447551D01*
D02*
G37*
G36*
X242470Y440690D02*
X240130D01*
X237869Y440084D01*
X235841Y438914D01*
X234186Y437259D01*
X233016Y435231D01*
X232410Y432970D01*
Y430630D01*
X233016Y428369D01*
X234186Y426341D01*
X235841Y424686D01*
X237869Y423516D01*
X240130Y422910D01*
X242470D01*
X244731Y423516D01*
X246759Y424686D01*
X248414Y426341D01*
X249584Y428369D01*
X250190Y430630D01*
Y432970D01*
X249584Y435231D01*
X248414Y437259D01*
X246759Y438914D01*
X244731Y440084D01*
X242470Y440690D01*
D02*
G37*
G36*
X250090Y410210D02*
X247750D01*
X245489Y409604D01*
X243461Y408434D01*
X241806Y406779D01*
X240636Y404751D01*
X240030Y402490D01*
Y400150D01*
X240636Y397889D01*
X241806Y395861D01*
X243461Y394206D01*
X245489Y393036D01*
X247750Y392430D01*
X250090D01*
X252351Y393036D01*
X254379Y394206D01*
X256034Y395861D01*
X257204Y397889D01*
X257810Y400150D01*
Y402490D01*
X257204Y404751D01*
X256034Y406779D01*
X254379Y408434D01*
X252351Y409604D01*
X250090Y410210D01*
D02*
G37*
G36*
X314860Y448310D02*
X312520D01*
X310259Y447704D01*
X308231Y446534D01*
X306576Y444879D01*
X305406Y442851D01*
X304800Y440590D01*
Y438250D01*
X305406Y435989D01*
X306576Y433961D01*
X308231Y432306D01*
X310259Y431136D01*
X311100Y430910D01*
Y426720D01*
X311297Y425729D01*
X311859Y424889D01*
X330780Y405967D01*
Y396400D01*
X330780Y396050D01*
Y395130D01*
X330780Y394780D01*
Y382050D01*
X344860D01*
Y386000D01*
X355975D01*
X356967Y386197D01*
X357807Y386759D01*
X360441Y389394D01*
X361622Y388712D01*
X363883Y388106D01*
X366224D01*
X368485Y388712D01*
X370512Y389882D01*
X372168Y391537D01*
X373338Y393564D01*
X373944Y395825D01*
Y398166D01*
X373338Y400427D01*
X372736Y401470D01*
X373349Y402949D01*
X374271Y403196D01*
X376299Y404366D01*
X377954Y406021D01*
X379124Y408049D01*
X379730Y410310D01*
Y412650D01*
X379124Y414911D01*
X377954Y416939D01*
X376299Y418594D01*
X374271Y419764D01*
X372010Y420370D01*
X369670D01*
X367409Y419764D01*
X365381Y418594D01*
X363726Y416939D01*
X362556Y414911D01*
X361950Y412650D01*
Y410310D01*
X362556Y408049D01*
X363158Y407006D01*
X362545Y405527D01*
X361622Y405280D01*
X359595Y404109D01*
X357940Y402454D01*
X356770Y400427D01*
X356164Y398166D01*
Y395825D01*
X356770Y393564D01*
X356959Y393236D01*
X354903Y391180D01*
X344860D01*
Y394780D01*
X344860Y395130D01*
Y396050D01*
X344860Y396400D01*
Y409130D01*
X334943D01*
X316280Y427793D01*
Y430910D01*
X317121Y431136D01*
X319149Y432306D01*
X320804Y433961D01*
X321974Y435989D01*
X322580Y438250D01*
Y440590D01*
X321974Y442851D01*
X320804Y444879D01*
X319149Y446534D01*
X317121Y447704D01*
X314860Y448310D01*
D02*
G37*
G36*
X505084Y397099D02*
X496956D01*
Y380081D01*
X498430D01*
Y378811D01*
X498628Y377820D01*
X498911Y377396D01*
X499332Y376172D01*
X497677Y374517D01*
X496506Y372490D01*
X495900Y370229D01*
Y369873D01*
X494727Y369387D01*
X493609Y370505D01*
Y380081D01*
X495084D01*
Y397099D01*
X486956D01*
Y380081D01*
X488430D01*
Y369432D01*
X488627Y368442D01*
X489188Y367601D01*
X495250Y361539D01*
Y356870D01*
X495447Y355879D01*
X496009Y355039D01*
X500151Y350896D01*
X499716Y350141D01*
X499110Y347880D01*
Y345540D01*
X499716Y343279D01*
X500886Y341251D01*
X502541Y339596D01*
X504569Y338426D01*
X506830Y337820D01*
X509170D01*
X511431Y338426D01*
X513459Y339596D01*
X515114Y341251D01*
X516284Y343279D01*
X516890Y345540D01*
Y347880D01*
X516284Y350141D01*
X515114Y352169D01*
X513459Y353824D01*
X511431Y354994D01*
X509170Y355600D01*
X506830D01*
X504569Y354994D01*
X503814Y354558D01*
X500430Y357943D01*
Y360008D01*
X501700Y360683D01*
X503620Y360168D01*
X505961D01*
X508222Y360774D01*
X510249Y361945D01*
X511904Y363600D01*
X513075Y365627D01*
X513680Y367888D01*
Y370229D01*
X513075Y372490D01*
X511904Y374517D01*
X510249Y376172D01*
X508222Y377343D01*
X505961Y377948D01*
X505481D01*
X504740Y379009D01*
X505084Y380081D01*
X505084D01*
Y397099D01*
D02*
G37*
G36*
X645060Y384810D02*
X642720D01*
X640459Y384204D01*
X638431Y383034D01*
X636776Y381379D01*
X635606Y379351D01*
X635000Y377090D01*
Y374750D01*
X635606Y372489D01*
X636776Y370461D01*
X638431Y368806D01*
X640459Y367636D01*
X642720Y367030D01*
X645060D01*
X647321Y367636D01*
X649349Y368806D01*
X651004Y370461D01*
X652174Y372489D01*
X652780Y374750D01*
Y377090D01*
X652174Y379351D01*
X651004Y381379D01*
X649349Y383034D01*
X647321Y384204D01*
X645060Y384810D01*
D02*
G37*
G36*
X223420Y383540D02*
X221080D01*
X218819Y382934D01*
X216791Y381764D01*
X215136Y380109D01*
X213966Y378081D01*
X213360Y375820D01*
Y373480D01*
X213966Y371219D01*
X215136Y369191D01*
X216791Y367536D01*
X218819Y366366D01*
X221080Y365760D01*
X223420D01*
X225208Y366239D01*
X226209Y365474D01*
X226328Y365272D01*
Y359855D01*
X226525Y358864D01*
X227086Y358024D01*
X232294Y352816D01*
X233134Y352255D01*
X234125Y352058D01*
X234957D01*
X300990Y286025D01*
Y284580D01*
X301596Y282319D01*
X302579Y280616D01*
X302301Y279564D01*
X302065Y279196D01*
X300564Y278794D01*
X298537Y277624D01*
X298423Y277510D01*
X296836Y277719D01*
X296154Y278901D01*
X294499Y280556D01*
X292472Y281726D01*
X290210Y282332D01*
X287870D01*
X285609Y281726D01*
X283582Y280556D01*
X281926Y278901D01*
X280756Y276874D01*
X280150Y274613D01*
Y272272D01*
X280756Y270011D01*
X281926Y267984D01*
X283582Y266329D01*
X285609Y265158D01*
X287870Y264552D01*
X290210D01*
X292472Y265158D01*
X294499Y266329D01*
X294612Y266442D01*
X296199Y266233D01*
X296882Y265051D01*
X298537Y263396D01*
X300564Y262226D01*
X302825Y261620D01*
X305166D01*
X307427Y262226D01*
X309454Y263396D01*
X311109Y265051D01*
X312279Y267079D01*
X312885Y269340D01*
Y271680D01*
X312279Y273941D01*
X311296Y275644D01*
X311575Y276696D01*
X311810Y277064D01*
X313311Y277466D01*
X315339Y278636D01*
X316994Y280291D01*
X318164Y282319D01*
X318770Y284580D01*
Y286920D01*
X318164Y289181D01*
X316994Y291209D01*
X315339Y292864D01*
X313311Y294034D01*
X311050Y294640D01*
X308710D01*
X306449Y294034D01*
X304421Y292864D01*
X302949Y291391D01*
X289453Y304888D01*
X289938Y306198D01*
X291721Y306676D01*
X293749Y307846D01*
X295404Y309501D01*
X296574Y311529D01*
X297180Y313790D01*
Y316130D01*
X296574Y318391D01*
X295404Y320419D01*
X293749Y322074D01*
X291721Y323244D01*
X289460Y323850D01*
X287120D01*
X284859Y323244D01*
X282831Y322074D01*
X281176Y320419D01*
X280006Y318391D01*
X279528Y316608D01*
X278218Y316123D01*
X240440Y353900D01*
X240768Y355127D01*
X241239Y355253D01*
X243266Y356424D01*
X244921Y358079D01*
X246092Y360106D01*
X246232Y360630D01*
X251840D01*
X252066Y359789D01*
X253236Y357761D01*
X254891Y356106D01*
X256919Y354936D01*
X259180Y354330D01*
X261520D01*
X263781Y354936D01*
X265809Y356106D01*
X267464Y357761D01*
X268634Y359789D01*
X269240Y362050D01*
Y364390D01*
X268634Y366651D01*
X267464Y368679D01*
X265809Y370334D01*
X263781Y371504D01*
X261520Y372110D01*
X259180D01*
X256919Y371504D01*
X254891Y370334D01*
X253236Y368679D01*
X252066Y366651D01*
X251840Y365810D01*
X246402D01*
X246092Y366969D01*
X244921Y368996D01*
X243266Y370651D01*
X241239Y371822D01*
X238978Y372427D01*
X236637D01*
X234376Y371822D01*
X232349Y370651D01*
X231514Y369816D01*
X229778Y369851D01*
X229758Y369874D01*
X230534Y371219D01*
X231140Y373480D01*
Y375820D01*
X230534Y378081D01*
X229364Y380109D01*
X227709Y381764D01*
X225681Y382934D01*
X223420Y383540D01*
D02*
G37*
G36*
X580084Y397099D02*
X566956D01*
Y380081D01*
X568176D01*
Y367030D01*
X567790D01*
X565529Y366424D01*
X563501Y365254D01*
X561846Y363599D01*
X560676Y361571D01*
X560070Y359310D01*
Y356970D01*
X560676Y354709D01*
X561846Y352681D01*
X563501Y351026D01*
X565529Y349856D01*
X567790Y349250D01*
X570130D01*
X572391Y349856D01*
X574419Y351026D01*
X576074Y352681D01*
X577244Y354709D01*
X577850Y356970D01*
Y359310D01*
X577244Y361571D01*
X576074Y363599D01*
X574419Y365254D01*
X573356Y365867D01*
Y380081D01*
X580084D01*
Y397099D01*
D02*
G37*
G36*
X586792Y336430D02*
X584148D01*
X581595Y335746D01*
X579305Y334424D01*
X577436Y332555D01*
X576114Y330265D01*
X575430Y327712D01*
Y325068D01*
X576114Y322515D01*
X577436Y320225D01*
X579305Y318356D01*
X581595Y317034D01*
X584148Y316350D01*
X586792D01*
X589345Y317034D01*
X591635Y318356D01*
X593504Y320225D01*
X594826Y322515D01*
X595510Y325068D01*
Y327712D01*
X594826Y330265D01*
X593504Y332555D01*
X591635Y334424D01*
X589345Y335746D01*
X586792Y336430D01*
D02*
G37*
G36*
X561392D02*
X558748D01*
X556195Y335746D01*
X553905Y334424D01*
X552036Y332555D01*
X550714Y330265D01*
X550030Y327712D01*
Y325068D01*
X550714Y322515D01*
X552036Y320225D01*
X553905Y318356D01*
X556195Y317034D01*
X558748Y316350D01*
X561392D01*
X563945Y317034D01*
X566235Y318356D01*
X568104Y320225D01*
X569426Y322515D01*
X570110Y325068D01*
Y327712D01*
X569426Y330265D01*
X568104Y332555D01*
X566235Y334424D01*
X563945Y335746D01*
X561392Y336430D01*
D02*
G37*
G36*
X535992D02*
X533348D01*
X530795Y335746D01*
X528505Y334424D01*
X526636Y332555D01*
X525314Y330265D01*
X524630Y327712D01*
Y325068D01*
X525314Y322515D01*
X526636Y320225D01*
X528505Y318356D01*
X530795Y317034D01*
X533348Y316350D01*
X535992D01*
X538545Y317034D01*
X540835Y318356D01*
X542704Y320225D01*
X544026Y322515D01*
X544710Y325068D01*
Y327712D01*
X544026Y330265D01*
X542704Y332555D01*
X540835Y334424D01*
X538545Y335746D01*
X535992Y336430D01*
D02*
G37*
G36*
X485192D02*
X482548D01*
X479995Y335746D01*
X477705Y334424D01*
X475836Y332555D01*
X474514Y330265D01*
X473830Y327712D01*
Y325068D01*
X474514Y322515D01*
X475836Y320225D01*
X477705Y318356D01*
X479995Y317034D01*
X482548Y316350D01*
X485192D01*
X487745Y317034D01*
X490035Y318356D01*
X491904Y320225D01*
X493226Y322515D01*
X493910Y325068D01*
Y327712D01*
X493226Y330265D01*
X491904Y332555D01*
X490035Y334424D01*
X487745Y335746D01*
X485192Y336430D01*
D02*
G37*
G36*
X459792D02*
X457148D01*
X454595Y335746D01*
X452305Y334424D01*
X450436Y332555D01*
X449114Y330265D01*
X448430Y327712D01*
Y325068D01*
X449114Y322515D01*
X450436Y320225D01*
X452305Y318356D01*
X454595Y317034D01*
X457148Y316350D01*
X459792D01*
X462345Y317034D01*
X464635Y318356D01*
X466504Y320225D01*
X467826Y322515D01*
X468510Y325068D01*
Y327712D01*
X467826Y330265D01*
X466504Y332555D01*
X464635Y334424D01*
X462345Y335746D01*
X459792Y336430D01*
D02*
G37*
G36*
X510592D02*
X507948D01*
X505395Y335746D01*
X503105Y334424D01*
X501236Y332555D01*
X499914Y330265D01*
X499230Y327712D01*
Y325068D01*
X499914Y322515D01*
X500580Y321362D01*
X481894Y302676D01*
X459374D01*
X458383Y302479D01*
X457542Y301917D01*
X438098Y282473D01*
X436945Y283138D01*
X434392Y283822D01*
X431748D01*
X429195Y283138D01*
X426905Y281817D01*
X425036Y279947D01*
X424255Y278594D01*
X422985Y278934D01*
Y310811D01*
X429205Y317031D01*
X431748Y316350D01*
X434392D01*
X436945Y317034D01*
X439235Y318356D01*
X441104Y320225D01*
X442426Y322515D01*
X443110Y325068D01*
Y327712D01*
X442426Y330265D01*
X441104Y332555D01*
X439235Y334424D01*
X436945Y335746D01*
X434392Y336430D01*
X431748D01*
X429195Y335746D01*
X426905Y334424D01*
X425036Y332555D01*
X423714Y330265D01*
X423030Y327712D01*
Y325068D01*
X423711Y322525D01*
X416353Y315167D01*
X415511Y313907D01*
X415215Y312420D01*
Y218440D01*
X415511Y216953D01*
X416353Y215693D01*
X420840Y211206D01*
X420370Y209450D01*
Y207110D01*
X420976Y204849D01*
X422146Y202821D01*
X423801Y201166D01*
X425829Y199996D01*
X428090Y199390D01*
X430430D01*
X432691Y199996D01*
X434719Y201166D01*
X436374Y202821D01*
X437544Y204849D01*
X438150Y207110D01*
Y209450D01*
X437544Y211711D01*
X436374Y213739D01*
X434719Y215394D01*
X432691Y216564D01*
X430430Y217170D01*
X428090D01*
X426334Y216700D01*
X422985Y220049D01*
Y268631D01*
X424255Y268971D01*
X425036Y267618D01*
X426905Y265749D01*
X429195Y264427D01*
X431748Y263743D01*
X434392D01*
X436945Y264427D01*
X439235Y265749D01*
X441104Y267618D01*
X442426Y269907D01*
X443110Y272461D01*
Y275104D01*
X442426Y277658D01*
X441760Y278810D01*
X460447Y297496D01*
X482966D01*
X483957Y297694D01*
X484798Y298255D01*
X504242Y317700D01*
X505395Y317034D01*
X507948Y316350D01*
X510592D01*
X513145Y317034D01*
X515435Y318356D01*
X517304Y320225D01*
X518626Y322515D01*
X519310Y325068D01*
Y327712D01*
X518626Y330265D01*
X517304Y332555D01*
X515435Y334424D01*
X513145Y335746D01*
X510592Y336430D01*
D02*
G37*
G36*
X671710D02*
X651630D01*
Y317612D01*
X651630Y316488D01*
X650634Y315688D01*
X644960Y321362D01*
X645626Y322515D01*
X646310Y325068D01*
Y327712D01*
X645626Y330265D01*
X644304Y332555D01*
X642435Y334424D01*
X640145Y335746D01*
X637592Y336430D01*
X634948D01*
X632395Y335746D01*
X630105Y334424D01*
X628236Y332555D01*
X626914Y330265D01*
X626230Y327712D01*
Y325068D01*
X626914Y322515D01*
X628236Y320225D01*
X630105Y318356D01*
X632395Y317034D01*
X634948Y316350D01*
X637592D01*
X640145Y317034D01*
X641298Y317700D01*
X650949Y308049D01*
X651789Y307487D01*
X652780Y307290D01*
X670757D01*
X705559Y272489D01*
X706399Y271927D01*
X707390Y271730D01*
X865067D01*
X873960Y262838D01*
X873294Y261685D01*
X872610Y259132D01*
Y256488D01*
X873294Y253935D01*
X874616Y251645D01*
X876485Y249776D01*
X878775Y248454D01*
X881328Y247770D01*
X883972D01*
X886525Y248454D01*
X888815Y249776D01*
X890684Y251645D01*
X892006Y253935D01*
X892690Y256488D01*
Y259132D01*
X892006Y261685D01*
X890684Y263975D01*
X888815Y265844D01*
X886525Y267166D01*
X883972Y267850D01*
X881328D01*
X878775Y267166D01*
X877622Y266500D01*
X867971Y276151D01*
X867131Y276713D01*
X866140Y276910D01*
X708463D01*
X673661Y311711D01*
X672821Y312273D01*
X671830Y312470D01*
X653853D01*
X650968Y315354D01*
X651768Y316350D01*
X652843Y316350D01*
X671710D01*
Y336430D01*
D02*
G37*
G36*
X786030Y316230D02*
X783690D01*
X781429Y315624D01*
X779401Y314454D01*
X777746Y312799D01*
X776576Y310771D01*
X775970Y308510D01*
Y306170D01*
X776576Y303909D01*
X777746Y301881D01*
X779401Y300226D01*
X781429Y299056D01*
X783690Y298450D01*
X786030D01*
X788291Y299056D01*
X790319Y300226D01*
X791974Y301881D01*
X793144Y303909D01*
X793750Y306170D01*
Y308510D01*
X793144Y310771D01*
X791974Y312799D01*
X790319Y314454D01*
X788291Y315624D01*
X786030Y316230D01*
D02*
G37*
G36*
X850116Y312977D02*
X847775D01*
X845514Y312371D01*
X843487Y311201D01*
X841832Y309545D01*
X840661Y307518D01*
X840055Y305257D01*
Y302917D01*
X840661Y300655D01*
X841832Y298628D01*
X843487Y296973D01*
X845514Y295803D01*
X847775Y295197D01*
X850116D01*
X852377Y295803D01*
X854404Y296973D01*
X856059Y298628D01*
X857230Y300655D01*
X857835Y302917D01*
Y305257D01*
X857230Y307518D01*
X856059Y309545D01*
X854404Y311201D01*
X852377Y312371D01*
X850116Y312977D01*
D02*
G37*
G36*
X351980Y333430D02*
X338900D01*
Y323013D01*
X329639Y313751D01*
X329077Y312911D01*
X328880Y311920D01*
Y305217D01*
X327281Y304294D01*
X325626Y302639D01*
X324456Y300611D01*
X323850Y298350D01*
Y296010D01*
X324456Y293749D01*
X325626Y291721D01*
X327281Y290066D01*
X329309Y288896D01*
X331570Y288290D01*
X333910D01*
X336171Y288896D01*
X338199Y290066D01*
X339854Y291721D01*
X340032Y292030D01*
X341619Y292239D01*
X342521Y291336D01*
X344549Y290166D01*
X345390Y289940D01*
Y279203D01*
X335989Y269801D01*
X335427Y268961D01*
X335230Y267970D01*
Y253420D01*
X331280D01*
Y239340D01*
X335230D01*
Y218935D01*
X334240Y218092D01*
X332704Y218504D01*
X330363D01*
X328102Y217898D01*
X326075Y216728D01*
X324420Y215072D01*
X323250Y213045D01*
X322644Y210784D01*
Y208443D01*
X323250Y206182D01*
X324420Y204155D01*
X326075Y202500D01*
X328102Y201330D01*
X330363Y200724D01*
X332704D01*
X334965Y201330D01*
X336992Y202500D01*
X338648Y204155D01*
X339818Y206182D01*
X340424Y208443D01*
Y210784D01*
X339818Y213045D01*
X338725Y214939D01*
X339651Y215865D01*
X340213Y216705D01*
X340410Y217696D01*
Y239340D01*
X344010D01*
X344360Y239340D01*
X345280D01*
X345630Y239340D01*
X358360D01*
Y249258D01*
X360513Y251410D01*
X364598D01*
X365199Y250809D01*
X366039Y250248D01*
X367030Y250051D01*
X367094D01*
X367636Y248029D01*
X368806Y246001D01*
X370461Y244346D01*
X372489Y243176D01*
X374750Y242570D01*
X377090D01*
X379351Y243176D01*
X381379Y244346D01*
X383034Y246001D01*
X384204Y248029D01*
X384810Y250290D01*
Y252630D01*
X384204Y254891D01*
X383034Y256919D01*
X381379Y258574D01*
X379351Y259744D01*
X377090Y260350D01*
X374750D01*
X372489Y259744D01*
X370461Y258574D01*
X368806Y256919D01*
X368519Y256421D01*
X366932Y256212D01*
X366661Y256393D01*
X365670Y256590D01*
X359440D01*
X358449Y256393D01*
X357609Y255831D01*
X355197Y253420D01*
X345630D01*
X345280Y253420D01*
X344360D01*
X344010Y253420D01*
X340410D01*
Y266897D01*
X349811Y276299D01*
X350373Y277139D01*
X350570Y278130D01*
Y289940D01*
X351411Y290166D01*
X353439Y291336D01*
X355094Y292991D01*
X355135Y293063D01*
X356602D01*
X357376Y291721D01*
X359031Y290066D01*
X361059Y288896D01*
X363320Y288290D01*
X365660D01*
X367921Y288896D01*
X369949Y290066D01*
X371604Y291721D01*
X372774Y293749D01*
X373380Y296010D01*
Y298350D01*
X372774Y300611D01*
X371604Y302639D01*
X369949Y304294D01*
X367921Y305464D01*
X365660Y306070D01*
X363320D01*
X361059Y305464D01*
X359031Y304294D01*
X357376Y302639D01*
X357335Y302567D01*
X355868D01*
X355094Y303909D01*
X353439Y305564D01*
X351411Y306734D01*
X349150Y307340D01*
X346810D01*
X344549Y306734D01*
X342521Y305564D01*
X340866Y303909D01*
X340688Y303600D01*
X339101Y303391D01*
X338199Y304294D01*
X336171Y305464D01*
X334060Y306030D01*
Y310847D01*
X342562Y319350D01*
X351980D01*
Y333430D01*
D02*
G37*
G36*
X195480Y339090D02*
X193140D01*
X190879Y338484D01*
X188851Y337314D01*
X187196Y335659D01*
X186026Y333631D01*
X185420Y331370D01*
Y329030D01*
X185632Y328237D01*
X184859Y327230D01*
X184730D01*
Y314500D01*
X184730Y314150D01*
Y313230D01*
X184730Y312880D01*
Y300150D01*
X186775D01*
X187247Y298880D01*
X185926Y297559D01*
X184756Y295531D01*
X184150Y293270D01*
Y290930D01*
X184756Y288669D01*
X185926Y286641D01*
X187581Y284986D01*
X189609Y283816D01*
X191870Y283210D01*
X194210D01*
X196471Y283816D01*
X198499Y284986D01*
X200154Y286641D01*
X201324Y288669D01*
X201930Y290930D01*
Y293270D01*
X201324Y295531D01*
X200154Y297559D01*
X198826Y298886D01*
X198810Y300150D01*
X198810Y300150D01*
X198810Y300150D01*
Y312880D01*
X198810Y313230D01*
Y314150D01*
X198810Y314500D01*
Y322533D01*
X199769Y323086D01*
X201424Y324741D01*
X202594Y326769D01*
X203200Y329030D01*
Y331370D01*
X202594Y333631D01*
X201424Y335659D01*
X199769Y337314D01*
X197741Y338484D01*
X195480Y339090D01*
D02*
G37*
G36*
X493910Y283822D02*
X473830D01*
Y263743D01*
X493910D01*
Y283822D01*
D02*
G37*
G36*
X594240Y283090D02*
X574160D01*
Y263010D01*
X594240D01*
Y283090D01*
D02*
G37*
G36*
X560122D02*
X557478D01*
X554925Y282406D01*
X552635Y281084D01*
X550766Y279215D01*
X549444Y276925D01*
X548760Y274372D01*
Y271728D01*
X549444Y269175D01*
X550766Y266885D01*
X552635Y265016D01*
X554925Y263694D01*
X557478Y263010D01*
X560122D01*
X562675Y263694D01*
X564965Y265016D01*
X566834Y266885D01*
X568156Y269175D01*
X568840Y271728D01*
Y274372D01*
X568156Y276925D01*
X566834Y279215D01*
X564965Y281084D01*
X562675Y282406D01*
X560122Y283090D01*
D02*
G37*
G36*
X534722D02*
X532078D01*
X529525Y282406D01*
X527235Y281084D01*
X525366Y279215D01*
X524044Y276925D01*
X523360Y274372D01*
Y271728D01*
X524044Y269175D01*
X525366Y266885D01*
X527235Y265016D01*
X529525Y263694D01*
X532078Y263010D01*
X534722D01*
X537275Y263694D01*
X539565Y265016D01*
X541434Y266885D01*
X542756Y269175D01*
X543440Y271728D01*
Y274372D01*
X542756Y276925D01*
X541434Y279215D01*
X539565Y281084D01*
X537275Y282406D01*
X534722Y283090D01*
D02*
G37*
G36*
X655372Y281820D02*
X652728D01*
X650175Y281136D01*
X647885Y279814D01*
X646016Y277945D01*
X644694Y275655D01*
X644010Y273102D01*
Y270458D01*
X644694Y267905D01*
X646016Y265615D01*
X647885Y263746D01*
X650175Y262424D01*
X652728Y261740D01*
X655372D01*
X657925Y262424D01*
X660215Y263746D01*
X662084Y265615D01*
X663406Y267905D01*
X664090Y270458D01*
Y273102D01*
X663406Y275655D01*
X662084Y277945D01*
X660215Y279814D01*
X657925Y281136D01*
X655372Y281820D01*
D02*
G37*
G36*
X629972D02*
X627328D01*
X624775Y281136D01*
X622485Y279814D01*
X620616Y277945D01*
X619294Y275655D01*
X618610Y273102D01*
Y270458D01*
X619294Y267905D01*
X620616Y265615D01*
X622485Y263746D01*
X624775Y262424D01*
X627328Y261740D01*
X629972D01*
X632525Y262424D01*
X634815Y263746D01*
X636684Y265615D01*
X638006Y267905D01*
X638690Y270458D01*
Y273102D01*
X638006Y275655D01*
X636684Y277945D01*
X634815Y279814D01*
X632525Y281136D01*
X629972Y281820D01*
D02*
G37*
G36*
X858572Y267850D02*
X855928D01*
X853375Y267166D01*
X851085Y265844D01*
X849216Y263975D01*
X847894Y261685D01*
X847210Y259132D01*
Y256488D01*
X847894Y253935D01*
X849216Y251645D01*
X851085Y249776D01*
X853375Y248454D01*
X855928Y247770D01*
X858572D01*
X861125Y248454D01*
X863415Y249776D01*
X865284Y251645D01*
X866606Y253935D01*
X867290Y256488D01*
Y259132D01*
X866606Y261685D01*
X865284Y263975D01*
X863415Y265844D01*
X861125Y267166D01*
X858572Y267850D01*
D02*
G37*
G36*
X612192Y336430D02*
X609548D01*
X606995Y335746D01*
X604705Y334424D01*
X602836Y332555D01*
X601514Y330265D01*
X600830Y327712D01*
Y325068D01*
X601514Y322515D01*
X602836Y320225D01*
X604705Y318356D01*
X606995Y317034D01*
X609548Y316350D01*
X612168D01*
X628089Y300429D01*
X628929Y299867D01*
X629920Y299670D01*
X666947D01*
X683624Y282993D01*
X683138Y281820D01*
X669410D01*
Y261740D01*
X689490D01*
Y275468D01*
X690663Y275954D01*
X724128Y242490D01*
X724968Y241929D01*
X725959Y241731D01*
X797276D01*
X808429Y230579D01*
X809269Y230017D01*
X810260Y229820D01*
X882650D01*
X883641Y230017D01*
X884481Y230579D01*
X901673Y247770D01*
X918090D01*
Y267850D01*
X898010D01*
Y251432D01*
X881577Y235000D01*
X811333D01*
X800180Y246152D01*
X799340Y246714D01*
X798349Y246911D01*
X727032D01*
X669851Y304091D01*
X669011Y304653D01*
X668020Y304850D01*
X630993D01*
X617261Y318582D01*
X618904Y320225D01*
X620226Y322515D01*
X620910Y325068D01*
Y327712D01*
X620226Y330265D01*
X618904Y332555D01*
X617035Y334424D01*
X614745Y335746D01*
X612192Y336430D01*
D02*
G37*
G36*
X636834Y236599D02*
X634494D01*
X632233Y235993D01*
X630206Y234822D01*
X628550Y233167D01*
X627380Y231140D01*
X626774Y228879D01*
Y226538D01*
X627380Y224277D01*
X628550Y222250D01*
X630206Y220595D01*
X632233Y219424D01*
X634494Y218819D01*
X636834D01*
X639096Y219424D01*
X641123Y220595D01*
X642778Y222250D01*
X643948Y224277D01*
X644554Y226538D01*
Y228879D01*
X643948Y231140D01*
X642778Y233167D01*
X641123Y234822D01*
X639096Y235993D01*
X636834Y236599D01*
D02*
G37*
G36*
X723780Y227210D02*
X703700D01*
Y207130D01*
X723780D01*
Y227210D01*
D02*
G37*
G36*
X880970Y216350D02*
X878590D01*
X876291Y215734D01*
X874229Y214544D01*
X872546Y212861D01*
X871356Y210800D01*
X870740Y208500D01*
Y206120D01*
X871356Y203821D01*
X872546Y201759D01*
X874229Y200076D01*
X876291Y198886D01*
X878590Y198270D01*
X880970D01*
X883269Y198886D01*
X885331Y200076D01*
X887014Y201759D01*
X888204Y203821D01*
X888820Y206120D01*
Y208500D01*
X888204Y210800D01*
X887014Y212861D01*
X885331Y214544D01*
X883269Y215734D01*
X880970Y216350D01*
D02*
G37*
G36*
X860970D02*
X858590D01*
X856291Y215734D01*
X854229Y214544D01*
X852546Y212861D01*
X851356Y210800D01*
X850740Y208500D01*
Y206120D01*
X851356Y203821D01*
X852546Y201759D01*
X854229Y200076D01*
X856291Y198886D01*
X858590Y198270D01*
X860970D01*
X863269Y198886D01*
X865331Y200076D01*
X867014Y201759D01*
X868204Y203821D01*
X868820Y206120D01*
Y208500D01*
X868204Y210800D01*
X867014Y212861D01*
X865331Y214544D01*
X863269Y215734D01*
X860970Y216350D01*
D02*
G37*
G36*
X840970D02*
X838590D01*
X836291Y215734D01*
X834229Y214544D01*
X832546Y212861D01*
X831356Y210800D01*
X830740Y208500D01*
Y206120D01*
X831356Y203821D01*
X832546Y201759D01*
X834229Y200076D01*
X836291Y198886D01*
X838590Y198270D01*
X840970D01*
X843269Y198886D01*
X845331Y200076D01*
X847014Y201759D01*
X848204Y203821D01*
X848820Y206120D01*
Y208500D01*
X848204Y210800D01*
X847014Y212861D01*
X845331Y214544D01*
X843269Y215734D01*
X840970Y216350D01*
D02*
G37*
G36*
X820970D02*
X818590D01*
X816291Y215734D01*
X814229Y214544D01*
X812546Y212861D01*
X811356Y210800D01*
X810740Y208500D01*
Y206120D01*
X811356Y203821D01*
X812546Y201759D01*
X814229Y200076D01*
X816291Y198886D01*
X818590Y198270D01*
X820970D01*
X823269Y198886D01*
X825331Y200076D01*
X827014Y201759D01*
X828204Y203821D01*
X828820Y206120D01*
Y208500D01*
X828204Y210800D01*
X827014Y212861D01*
X825331Y214544D01*
X823269Y215734D01*
X820970Y216350D01*
D02*
G37*
G36*
X800970D02*
X798590D01*
X796291Y215734D01*
X794229Y214544D01*
X792546Y212861D01*
X791356Y210800D01*
X790740Y208500D01*
Y206120D01*
X791356Y203821D01*
X792546Y201759D01*
X794229Y200076D01*
X796291Y198886D01*
X798590Y198270D01*
X800970D01*
X803269Y198886D01*
X805331Y200076D01*
X807014Y201759D01*
X808204Y203821D01*
X808820Y206120D01*
Y208500D01*
X808204Y210800D01*
X807014Y212861D01*
X805331Y214544D01*
X803269Y215734D01*
X800970Y216350D01*
D02*
G37*
G36*
X780970D02*
X778590D01*
X776291Y215734D01*
X774229Y214544D01*
X772546Y212861D01*
X771356Y210800D01*
X770740Y208500D01*
Y206120D01*
X771356Y203821D01*
X772546Y201759D01*
X774229Y200076D01*
X776291Y198886D01*
X778590Y198270D01*
X780970D01*
X783269Y198886D01*
X785331Y200076D01*
X787014Y201759D01*
X788204Y203821D01*
X788820Y206120D01*
Y208500D01*
X788204Y210800D01*
X787014Y212861D01*
X785331Y214544D01*
X783269Y215734D01*
X780970Y216350D01*
D02*
G37*
G36*
X355500Y232410D02*
X353160D01*
X350899Y231804D01*
X348871Y230634D01*
X347216Y228979D01*
X346046Y226951D01*
X345440Y224690D01*
Y222350D01*
X346046Y220089D01*
X347216Y218061D01*
X348871Y216406D01*
X350899Y215236D01*
X353160Y214630D01*
X353170D01*
X353696Y213360D01*
X352486Y212151D01*
X351316Y210124D01*
X350710Y207863D01*
Y205522D01*
X351316Y203261D01*
X352486Y201234D01*
X354142Y199578D01*
X356169Y198408D01*
X358430Y197802D01*
X360771D01*
X363032Y198408D01*
X365059Y199578D01*
X366714Y201234D01*
X367884Y203261D01*
X368490Y205522D01*
Y207863D01*
X367884Y210124D01*
X366714Y212151D01*
X365059Y213806D01*
X363032Y214976D01*
X360771Y215582D01*
X360761D01*
X360234Y216852D01*
X361444Y218061D01*
X362614Y220089D01*
X363220Y222350D01*
Y224690D01*
X362614Y226951D01*
X361444Y228979D01*
X359789Y230634D01*
X357761Y231804D01*
X355500Y232410D01*
D02*
G37*
G36*
X459792Y283822D02*
X457148D01*
X454595Y283138D01*
X452305Y281817D01*
X450436Y279947D01*
X449114Y277658D01*
X448430Y275104D01*
Y272461D01*
X449114Y269907D01*
X450436Y267618D01*
X452305Y265749D01*
X454595Y264427D01*
X455880Y264082D01*
Y215703D01*
X433441Y193263D01*
X432879Y192423D01*
X432726Y191650D01*
X423030D01*
Y171570D01*
X443110D01*
Y191650D01*
X440812D01*
X440326Y192823D01*
X459050Y211548D01*
X460320Y211021D01*
Y200200D01*
X460320Y199850D01*
Y198930D01*
X460320Y198580D01*
Y185850D01*
X468406D01*
X476463Y177793D01*
X477723Y176951D01*
X479210Y176656D01*
X481530D01*
Y172000D01*
X483185D01*
Y167060D01*
X482307D01*
Y161211D01*
X448157D01*
X446670Y160916D01*
X445410Y160073D01*
X403521Y118185D01*
X300123D01*
X299214Y119759D01*
X297559Y121414D01*
X295531Y122584D01*
X293270Y123190D01*
X290930D01*
X288669Y122584D01*
X286641Y121414D01*
X284986Y119759D01*
X283816Y117731D01*
X283210Y115470D01*
Y113130D01*
X283816Y110869D01*
X284986Y108841D01*
X286641Y107186D01*
X288669Y106016D01*
X290930Y105410D01*
X293270D01*
X295531Y106016D01*
X297559Y107186D01*
X299214Y108841D01*
X300123Y110415D01*
X405130D01*
X406617Y110711D01*
X407877Y111553D01*
X449766Y153442D01*
X455826D01*
X456166Y152172D01*
X455600Y151845D01*
X453945Y150190D01*
X452775Y148163D01*
X452169Y145902D01*
Y143561D01*
X452775Y141300D01*
X453945Y139273D01*
X455600Y137618D01*
X457627Y136447D01*
X459888Y135841D01*
X462229D01*
X463314Y136132D01*
X483180Y116266D01*
Y108680D01*
X494581D01*
X494675Y108661D01*
X494682Y108662D01*
X494689Y108661D01*
X494786Y108680D01*
X497150D01*
X497260Y108680D01*
Y108680D01*
X498420D01*
Y108680D01*
X500308D01*
Y107370D01*
X498300D01*
X498300Y107370D01*
X497380D01*
Y107370D01*
X497030Y107370D01*
X484300D01*
Y100199D01*
X481343Y97242D01*
X444755D01*
Y103125D01*
X423925D01*
Y82295D01*
X444755D01*
Y88178D01*
X483220D01*
X484954Y88523D01*
X486424Y89505D01*
X488625Y91706D01*
X498445Y81885D01*
X498445Y81885D01*
X499916Y80903D01*
X501650Y80558D01*
X501650Y80558D01*
X528440D01*
Y75050D01*
X548520D01*
Y95130D01*
X528440D01*
Y89622D01*
X503527D01*
X501033Y92117D01*
X501519Y93290D01*
X511380D01*
Y107370D01*
X509372D01*
Y108680D01*
X512500D01*
Y121760D01*
X501099D01*
X501005Y121779D01*
X500998Y121778D01*
X500990Y121779D01*
X500894Y121760D01*
X498530D01*
X498420Y121760D01*
Y121760D01*
X497260D01*
Y121760D01*
X494786D01*
X494689Y121779D01*
X494682Y121778D01*
X494675Y121779D01*
X494581Y121760D01*
X488674D01*
X469266Y141167D01*
X469343Y141300D01*
X469949Y143561D01*
Y145902D01*
X469343Y148163D01*
X468172Y150190D01*
X466517Y151845D01*
X465951Y152172D01*
X466292Y153442D01*
X482307D01*
Y152980D01*
X495387D01*
Y167060D01*
X490955D01*
Y172000D01*
X492610D01*
Y189080D01*
X481530D01*
Y185510D01*
X480260Y184984D01*
X474400Y190844D01*
Y198580D01*
X474400Y198930D01*
Y199850D01*
X474400Y200200D01*
Y203153D01*
X481530D01*
Y197000D01*
X492610D01*
Y214080D01*
X490897D01*
Y221560D01*
X495460D01*
Y235640D01*
X482380D01*
Y221560D01*
X484422D01*
Y214080D01*
X481530D01*
Y209627D01*
X474400D01*
Y212930D01*
X461800D01*
X460974Y214200D01*
X461060Y214630D01*
Y264082D01*
X462345Y264427D01*
X464635Y265749D01*
X466504Y267618D01*
X467826Y269907D01*
X468510Y272461D01*
Y275104D01*
X467826Y277658D01*
X466504Y279947D01*
X464635Y281817D01*
X462345Y283138D01*
X459792Y283822D01*
D02*
G37*
G36*
X308510Y251460D02*
X306170D01*
X303909Y250854D01*
X301881Y249684D01*
X300226Y248029D01*
X299056Y246001D01*
X298450Y243740D01*
Y241400D01*
X299056Y239139D01*
X300226Y237111D01*
X301881Y235456D01*
X303909Y234286D01*
X305068Y233975D01*
Y209720D01*
X304544Y209579D01*
X302516Y208409D01*
X300861Y206754D01*
X299691Y204726D01*
X299085Y202465D01*
Y200125D01*
X299691Y197864D01*
X300861Y195836D01*
X302516Y194181D01*
X304544Y193011D01*
X306805Y192405D01*
X309145D01*
X311406Y193011D01*
X313434Y194181D01*
X315089Y195836D01*
X316259Y197864D01*
X316865Y200125D01*
Y202465D01*
X316259Y204726D01*
X315089Y206754D01*
X313434Y208409D01*
X311406Y209579D01*
X310247Y209890D01*
Y234145D01*
X310771Y234286D01*
X312799Y235456D01*
X314454Y237111D01*
X315624Y239139D01*
X316230Y241400D01*
Y243740D01*
X315624Y246001D01*
X314454Y248029D01*
X312799Y249684D01*
X310771Y250854D01*
X308510Y251460D01*
D02*
G37*
G36*
X715062Y201810D02*
X712418D01*
X709865Y201126D01*
X707575Y199804D01*
X705706Y197935D01*
X704384Y195645D01*
X703700Y193092D01*
Y190448D01*
X704384Y187895D01*
X705706Y185605D01*
X707575Y183736D01*
X709865Y182414D01*
X712418Y181730D01*
X715062D01*
X717615Y182414D01*
X719905Y183736D01*
X721774Y185605D01*
X723096Y187895D01*
X723780Y190448D01*
Y193092D01*
X723096Y195645D01*
X721774Y197935D01*
X719905Y199804D01*
X717615Y201126D01*
X715062Y201810D01*
D02*
G37*
G36*
X408992Y191650D02*
X406348D01*
X403795Y190966D01*
X401505Y189644D01*
X399636Y187775D01*
X398314Y185485D01*
X397630Y182932D01*
Y180288D01*
X398314Y177735D01*
X399636Y175445D01*
X401505Y173576D01*
X403795Y172254D01*
X406348Y171570D01*
X408992D01*
X411545Y172254D01*
X413835Y173576D01*
X415704Y175445D01*
X417026Y177735D01*
X417710Y180288D01*
Y182932D01*
X417026Y185485D01*
X415704Y187775D01*
X413835Y189644D01*
X411545Y190966D01*
X408992Y191650D01*
D02*
G37*
G36*
X715062Y176410D02*
X712418D01*
X709865Y175726D01*
X707575Y174404D01*
X705706Y172535D01*
X704384Y170245D01*
X703700Y167692D01*
Y165048D01*
X704384Y162495D01*
X705706Y160205D01*
X707575Y158336D01*
X709865Y157014D01*
X712418Y156330D01*
X715062D01*
X717615Y157014D01*
X719905Y158336D01*
X721774Y160205D01*
X723096Y162495D01*
X723780Y165048D01*
Y167692D01*
X723096Y170245D01*
X721774Y172535D01*
X719905Y174404D01*
X717615Y175726D01*
X715062Y176410D01*
D02*
G37*
G36*
X274220Y171450D02*
X271880D01*
X269619Y170844D01*
X267591Y169674D01*
X265936Y168019D01*
X264766Y165991D01*
X264160Y163730D01*
Y161390D01*
X264766Y159129D01*
X265936Y157101D01*
X267591Y155446D01*
X269619Y154276D01*
X271880Y153670D01*
X274220D01*
X276481Y154276D01*
X278509Y155446D01*
X280164Y157101D01*
X281334Y159129D01*
X281940Y161390D01*
Y163730D01*
X281334Y165991D01*
X280164Y168019D01*
X278509Y169674D01*
X276481Y170844D01*
X274220Y171450D01*
D02*
G37*
G36*
X896520Y146050D02*
X894180D01*
X891919Y145444D01*
X889891Y144274D01*
X888236Y142619D01*
X887066Y140591D01*
X886460Y138330D01*
Y135990D01*
X887066Y133729D01*
X888236Y131701D01*
X889891Y130046D01*
X891919Y128876D01*
X894180Y128270D01*
X896520D01*
X898781Y128876D01*
X900809Y130046D01*
X902464Y131701D01*
X903634Y133729D01*
X904240Y135990D01*
Y138330D01*
X903634Y140591D01*
X902464Y142619D01*
X900809Y144274D01*
X898781Y145444D01*
X896520Y146050D01*
D02*
G37*
G36*
X850800Y139700D02*
X848460D01*
X846199Y139094D01*
X844171Y137924D01*
X842516Y136269D01*
X841346Y134241D01*
X840740Y131980D01*
Y129640D01*
X841346Y127379D01*
X842516Y125351D01*
X844171Y123696D01*
X846199Y122526D01*
X848460Y121920D01*
X850800D01*
X853061Y122526D01*
X855089Y123696D01*
X856744Y125351D01*
X857914Y127379D01*
X858520Y129640D01*
Y131980D01*
X857914Y134241D01*
X856744Y136269D01*
X855089Y137924D01*
X853061Y139094D01*
X850800Y139700D01*
D02*
G37*
G36*
X518060Y232410D02*
X515720D01*
X513459Y231804D01*
X511431Y230634D01*
X509776Y228979D01*
X508606Y226951D01*
X508000Y224690D01*
Y222350D01*
X508606Y220089D01*
X509776Y218061D01*
X509937Y217901D01*
X506116Y214080D01*
X500530D01*
Y197000D01*
X502186D01*
Y189080D01*
X500530D01*
Y172000D01*
X511610D01*
X512337Y171031D01*
Y168480D01*
X509850D01*
Y155400D01*
X523820D01*
X523930Y155400D01*
X525090Y155134D01*
Y151240D01*
X539170D01*
Y151240D01*
X539633D01*
Y151240D01*
X550050D01*
X553270Y148020D01*
Y127186D01*
X552071Y126494D01*
X550416Y124839D01*
X549246Y122811D01*
X548640Y120550D01*
Y118210D01*
X549246Y115949D01*
X550416Y113921D01*
X552071Y112266D01*
X554099Y111096D01*
X556360Y110490D01*
X558700D01*
X560961Y111096D01*
X562989Y112266D01*
X564644Y113921D01*
X565814Y115949D01*
X566420Y118210D01*
Y120550D01*
X565814Y122811D01*
X564644Y124839D01*
X562989Y126494D01*
X560961Y127664D01*
X558700Y128270D01*
X558449D01*
Y149093D01*
X559500Y150320D01*
X572190D01*
Y163400D01*
X567074D01*
X566920Y164173D01*
X566359Y165014D01*
X560230Y171143D01*
Y173020D01*
X561450D01*
Y186600D01*
X543370D01*
Y173020D01*
X543482D01*
X544008Y171750D01*
X542487Y170230D01*
X535240D01*
X534249Y170033D01*
X533409Y169471D01*
X530299Y166361D01*
X529737Y165521D01*
X529540Y164530D01*
Y164320D01*
X525200D01*
X525090Y164320D01*
X523930Y164586D01*
Y168480D01*
X520107D01*
Y173388D01*
X519811Y174875D01*
X518969Y176135D01*
X515277Y179827D01*
X514016Y180669D01*
X512530Y180965D01*
X511610D01*
Y189080D01*
X509955D01*
Y197000D01*
X511610D01*
Y208586D01*
X517654Y214630D01*
X518060D01*
X520321Y215236D01*
X522349Y216406D01*
X524004Y218061D01*
X525174Y220089D01*
X525780Y222350D01*
Y224690D01*
X525174Y226951D01*
X524004Y228979D01*
X522349Y230634D01*
X520321Y231804D01*
X518060Y232410D01*
D02*
G37*
G36*
X552020Y234670D02*
Y234670D01*
X551647Y234670D01*
X538940D01*
Y220590D01*
X544173D01*
Y215600D01*
X538370D01*
Y202020D01*
X561450D01*
Y203885D01*
X569131D01*
X579045Y193971D01*
Y168270D01*
X573882D01*
Y151790D01*
X593662D01*
Y156145D01*
X653701D01*
X669083Y140763D01*
X670343Y139921D01*
X671830Y139625D01*
X720792D01*
X747594Y112823D01*
X748855Y111981D01*
X750341Y111685D01*
X901298D01*
X902206Y110111D01*
X903861Y108456D01*
X905889Y107286D01*
X908150Y106680D01*
X910490D01*
X912751Y107286D01*
X914779Y108456D01*
X916434Y110111D01*
X917604Y112139D01*
X918210Y114400D01*
Y116740D01*
X917604Y119001D01*
X916434Y121029D01*
X914779Y122684D01*
X912751Y123854D01*
X910490Y124460D01*
X908150D01*
X905889Y123854D01*
X903861Y122684D01*
X902206Y121029D01*
X901298Y119455D01*
X751950D01*
X725148Y146257D01*
X723888Y147099D01*
X722401Y147395D01*
X673439D01*
X658057Y162777D01*
X656796Y163619D01*
X655310Y163915D01*
X593662D01*
Y168270D01*
X586815D01*
Y193971D01*
X595837Y202993D01*
X596679Y204253D01*
X596975Y205740D01*
Y216768D01*
X598549Y217676D01*
X600204Y219331D01*
X601374Y221359D01*
X601980Y223620D01*
Y225960D01*
X601374Y228221D01*
X600204Y230249D01*
X598549Y231904D01*
X596521Y233074D01*
X594260Y233680D01*
X591920D01*
X589659Y233074D01*
X587631Y231904D01*
X585976Y230249D01*
X584806Y228221D01*
X584200Y225960D01*
Y223620D01*
X584806Y221359D01*
X585976Y219331D01*
X587631Y217676D01*
X589205Y216768D01*
Y207349D01*
X582930Y201074D01*
X573487Y210517D01*
X572227Y211359D01*
X570740Y211654D01*
X563305D01*
Y220590D01*
X565960D01*
Y234670D01*
X553253D01*
X552880Y234670D01*
Y234670D01*
X552020D01*
D02*
G37*
G36*
X593662Y150470D02*
X573882D01*
Y133990D01*
X578398D01*
Y106017D01*
X567023Y94642D01*
X565202Y95130D01*
X562558D01*
X560005Y94446D01*
X557715Y93124D01*
X555846Y91255D01*
X554524Y88965D01*
X553840Y86412D01*
Y83768D01*
X554524Y81215D01*
X555846Y78925D01*
X557715Y77056D01*
X560005Y75734D01*
X562558Y75050D01*
X565202D01*
X567755Y75734D01*
X570045Y77056D01*
X571914Y78925D01*
X573236Y81215D01*
X573920Y83768D01*
Y86412D01*
X573432Y88233D01*
X586135Y100935D01*
X587117Y102406D01*
X587462Y104140D01*
Y133990D01*
X593662D01*
Y150470D01*
D02*
G37*
G36*
X684547Y108520D02*
X680718D01*
X677020Y107529D01*
X673705Y105615D01*
X670998Y102908D01*
X669083Y99592D01*
X668093Y95894D01*
Y92066D01*
X669083Y88368D01*
X670998Y85052D01*
X673705Y82345D01*
X677020Y80431D01*
X680718Y79440D01*
X684547D01*
X688245Y80431D01*
X691560Y82345D01*
X694268Y85052D01*
X696182Y88368D01*
X697173Y92066D01*
Y95894D01*
X696182Y99592D01*
X694268Y102908D01*
X691560Y105615D01*
X688245Y107529D01*
X684547Y108520D01*
D02*
G37*
G36*
X859210Y90980D02*
X845130D01*
Y83394D01*
X839035Y77298D01*
X837887Y77546D01*
X832540Y82893D01*
Y90980D01*
X818460D01*
Y77900D01*
X826546D01*
X832194Y72252D01*
X831356Y70799D01*
X830740Y68500D01*
Y66120D01*
X831356Y63821D01*
X832546Y61759D01*
X834229Y60076D01*
X836291Y58886D01*
X838590Y58270D01*
X840970D01*
X843269Y58886D01*
X845331Y60076D01*
X847014Y61759D01*
X848204Y63821D01*
X848820Y66120D01*
Y68500D01*
X848204Y70799D01*
X847014Y72861D01*
X846934Y72940D01*
X846934Y74210D01*
X850624Y77900D01*
X859210D01*
Y90980D01*
D02*
G37*
G36*
X590602Y95130D02*
X587958D01*
X585405Y94446D01*
X583115Y93124D01*
X581246Y91255D01*
X579924Y88965D01*
X579240Y86412D01*
Y83768D01*
X579924Y81215D01*
X581246Y78925D01*
X583115Y77056D01*
X585405Y75734D01*
X587958Y75050D01*
X590602D01*
X593155Y75734D01*
X595445Y77056D01*
X597314Y78925D01*
X598636Y81215D01*
X599320Y83768D01*
Y86412D01*
X598636Y88965D01*
X597314Y91255D01*
X595445Y93124D01*
X593155Y94446D01*
X590602Y95130D01*
D02*
G37*
G36*
X632360Y76200D02*
X630020D01*
X627759Y75594D01*
X625731Y74424D01*
X624076Y72769D01*
X622906Y70741D01*
X622300Y68480D01*
Y66140D01*
X622906Y63879D01*
X624076Y61851D01*
X625731Y60196D01*
X627759Y59026D01*
X630020Y58420D01*
X632360D01*
X634621Y59026D01*
X636649Y60196D01*
X638304Y61851D01*
X639474Y63879D01*
X640080Y66140D01*
Y68480D01*
X639474Y70741D01*
X638304Y72769D01*
X636649Y74424D01*
X634621Y75594D01*
X632360Y76200D01*
D02*
G37*
G36*
X900970Y76350D02*
X898590D01*
X896291Y75734D01*
X894229Y74544D01*
X892546Y72861D01*
X891356Y70799D01*
X890740Y68500D01*
Y66120D01*
X891356Y63821D01*
X892546Y61759D01*
X894229Y60076D01*
X896291Y58886D01*
X898590Y58270D01*
X900970D01*
X903269Y58886D01*
X905330Y60076D01*
X907014Y61759D01*
X908204Y63821D01*
X908820Y66120D01*
Y68500D01*
X908204Y70799D01*
X907014Y72861D01*
X905330Y74544D01*
X903269Y75734D01*
X900970Y76350D01*
D02*
G37*
G36*
X880970D02*
X878590D01*
X876291Y75734D01*
X874229Y74544D01*
X872546Y72861D01*
X871356Y70799D01*
X870740Y68500D01*
Y66120D01*
X871356Y63821D01*
X872546Y61759D01*
X874229Y60076D01*
X876291Y58886D01*
X878590Y58270D01*
X880970D01*
X883269Y58886D01*
X885331Y60076D01*
X887014Y61759D01*
X888204Y63821D01*
X888820Y66120D01*
Y68500D01*
X888204Y70799D01*
X887014Y72861D01*
X885331Y74544D01*
X883269Y75734D01*
X880970Y76350D01*
D02*
G37*
G36*
X860970D02*
X858590D01*
X856291Y75734D01*
X854229Y74544D01*
X852546Y72861D01*
X851356Y70799D01*
X850740Y68500D01*
Y66120D01*
X851356Y63821D01*
X852546Y61759D01*
X854229Y60076D01*
X856291Y58886D01*
X858590Y58270D01*
X860970D01*
X863269Y58886D01*
X865331Y60076D01*
X867014Y61759D01*
X868204Y63821D01*
X868820Y66120D01*
Y68500D01*
X868204Y70799D01*
X867014Y72861D01*
X865331Y74544D01*
X863269Y75734D01*
X860970Y76350D01*
D02*
G37*
G36*
X820970D02*
X818590D01*
X816291Y75734D01*
X814229Y74544D01*
X812546Y72861D01*
X811356Y70799D01*
X810740Y68500D01*
Y66120D01*
X811356Y63821D01*
X812546Y61759D01*
X814229Y60076D01*
X816291Y58886D01*
X818590Y58270D01*
X820970D01*
X823269Y58886D01*
X825331Y60076D01*
X827014Y61759D01*
X828204Y63821D01*
X828820Y66120D01*
Y68500D01*
X828204Y70799D01*
X827014Y72861D01*
X825331Y74544D01*
X823269Y75734D01*
X820970Y76350D01*
D02*
G37*
G36*
X800970D02*
X798590D01*
X796291Y75734D01*
X794229Y74544D01*
X792546Y72861D01*
X791356Y70799D01*
X790740Y68500D01*
Y66120D01*
X791356Y63821D01*
X792546Y61759D01*
X794229Y60076D01*
X796291Y58886D01*
X798590Y58270D01*
X800970D01*
X803269Y58886D01*
X805331Y60076D01*
X807014Y61759D01*
X808204Y63821D01*
X808820Y66120D01*
Y68500D01*
X808204Y70799D01*
X807014Y72861D01*
X805331Y74544D01*
X803269Y75734D01*
X800970Y76350D01*
D02*
G37*
G36*
X760970D02*
X758590D01*
X756291Y75734D01*
X754229Y74544D01*
X752546Y72861D01*
X751356Y70799D01*
X750740Y68500D01*
Y66120D01*
X751356Y63821D01*
X752546Y61759D01*
X754229Y60076D01*
X756291Y58886D01*
X758590Y58270D01*
X760970D01*
X763269Y58886D01*
X765331Y60076D01*
X767014Y61759D01*
X768204Y63821D01*
X768820Y66120D01*
Y68500D01*
X768204Y70799D01*
X767014Y72861D01*
X765331Y74544D01*
X763269Y75734D01*
X760970Y76350D01*
D02*
G37*
G36*
X27177Y45980D02*
X23623D01*
X20138Y45287D01*
X16855Y43927D01*
X13900Y41953D01*
X11387Y39440D01*
X9413Y36485D01*
X8053Y33202D01*
X7360Y29717D01*
Y26163D01*
X8053Y22678D01*
X9413Y19395D01*
X11387Y16440D01*
X13900Y13927D01*
X16855Y11953D01*
X20138Y10593D01*
X23623Y9900D01*
X27177D01*
X30662Y10593D01*
X33945Y11953D01*
X36900Y13927D01*
X39413Y16440D01*
X41387Y19395D01*
X42747Y22678D01*
X43440Y26163D01*
Y29717D01*
X42747Y33202D01*
X41387Y36485D01*
X39413Y39440D01*
X36900Y41953D01*
X33945Y43927D01*
X30662Y45287D01*
X27177Y45980D01*
D02*
G37*
G36*
X1069847Y44710D02*
X1066293D01*
X1062808Y44017D01*
X1059525Y42657D01*
X1056570Y40683D01*
X1054057Y38170D01*
X1052083Y35215D01*
X1050723Y31932D01*
X1050030Y28447D01*
Y24893D01*
X1050723Y21408D01*
X1052083Y18125D01*
X1054057Y15170D01*
X1056570Y12657D01*
X1059525Y10683D01*
X1062808Y9323D01*
X1066293Y8630D01*
X1069847D01*
X1073332Y9323D01*
X1076615Y10683D01*
X1079570Y12657D01*
X1082083Y15170D01*
X1084057Y18125D01*
X1085417Y21408D01*
X1086110Y24893D01*
Y28447D01*
X1085417Y31932D01*
X1084057Y35215D01*
X1082083Y38170D01*
X1079570Y40683D01*
X1076615Y42657D01*
X1073332Y44017D01*
X1069847Y44710D01*
D02*
G37*
%LPD*%
G36*
X623857Y740416D02*
X622977Y740361D01*
X621393Y740165D01*
X620687Y740024D01*
X620041Y739854D01*
X619452Y739656D01*
X618922Y739429D01*
X618450Y739174D01*
X618036Y738891D01*
X617680Y738579D01*
X615783Y740273D01*
X616110Y740646D01*
X616396Y741071D01*
X616642Y741548D01*
X616847Y742077D01*
X617013Y742658D01*
X617137Y743292D01*
X617222Y743977D01*
X617266Y744715D01*
X617270Y745504D01*
X617234Y746346D01*
X623857Y740416D01*
D02*
G37*
G36*
X612096Y732969D02*
X611867Y732664D01*
X611725Y732394D01*
X611669Y732161D01*
X611700Y731963D01*
X611818Y731802D01*
X612023Y731676D01*
X612314Y731586D01*
X612692Y731532D01*
X613156Y731514D01*
X607550Y728974D01*
X606400Y729927D01*
Y728974D01*
X605912Y728962D01*
X605475Y728924D01*
X605089Y728860D01*
X604755Y728771D01*
X604472Y728657D01*
X604241Y728517D01*
X604061Y728352D01*
X603932Y728162D01*
X603855Y727946D01*
X603829Y727704D01*
Y732784D01*
X603855Y732543D01*
X603932Y732327D01*
X604061Y732137D01*
X604241Y731972D01*
X604472Y731832D01*
X604755Y731718D01*
X605089Y731629D01*
X605397Y731578D01*
X605470Y731586D01*
X605941Y731676D01*
X606397Y731802D01*
X606838Y731963D01*
X607264Y732161D01*
X607676Y732394D01*
X608072Y732664D01*
X608454Y732969D01*
X608820Y733310D01*
X612412D01*
X612096Y732969D01*
D02*
G37*
G36*
X642481Y728355D02*
X642456Y728596D01*
X642378Y728812D01*
X642250Y729002D01*
X642070Y729167D01*
X641839Y729307D01*
X641556Y729421D01*
X641222Y729510D01*
X640836Y729574D01*
X640399Y729612D01*
X639911Y729625D01*
Y732165D01*
X640399Y732177D01*
X640836Y732215D01*
X641222Y732279D01*
X641556Y732368D01*
X641839Y732482D01*
X642070Y732622D01*
X642250Y732787D01*
X642378Y732978D01*
X642456Y733193D01*
X642481Y733435D01*
Y728355D01*
D02*
G37*
G36*
X636145Y733193D02*
X636222Y732978D01*
X636351Y732787D01*
X636530Y732622D01*
X636762Y732482D01*
X637045Y732368D01*
X637379Y732279D01*
X637764Y732215D01*
X638201Y732177D01*
X638690Y732165D01*
Y729625D01*
X638201Y729612D01*
X637764Y729574D01*
X637379Y729510D01*
X637045Y729421D01*
X636762Y729307D01*
X636530Y729167D01*
X636351Y729002D01*
X636222Y728812D01*
X636145Y728596D01*
X636119Y728355D01*
Y733435D01*
X636145Y733193D01*
D02*
G37*
G36*
X790343Y725689D02*
X790176Y725522D01*
X788855Y723233D01*
X788170Y720679D01*
Y718428D01*
X786995Y717808D01*
X782881Y721921D01*
X782041Y722483D01*
X781050Y722680D01*
X761876D01*
X760884Y722483D01*
X760044Y721921D01*
X756488Y718364D01*
X750233D01*
X749092Y719506D01*
X748251Y720067D01*
X748251Y720067D01*
X747261Y720264D01*
X733740D01*
Y727214D01*
X702660D01*
Y708135D01*
X710120D01*
X710180Y707835D01*
X710274Y707361D01*
X710274Y707361D01*
X710274Y707361D01*
X710556Y706939D01*
X710835Y706521D01*
X710835Y706521D01*
X710836Y706521D01*
X713161Y704196D01*
X714960Y702396D01*
Y693350D01*
X713160Y691551D01*
X712599Y690710D01*
X712402Y689719D01*
Y688592D01*
X711436D01*
Y675384D01*
X724811D01*
Y662008D01*
Y650745D01*
X700173D01*
Y657009D01*
Y667009D01*
Y675384D01*
X703548D01*
Y688592D01*
X702360D01*
Y696385D01*
X702163Y697376D01*
X701601Y698216D01*
X698720Y701097D01*
Y712014D01*
X685640D01*
Y697934D01*
X694558D01*
X697180Y695312D01*
Y688592D01*
X696435D01*
Y679120D01*
X692976D01*
X670587Y701509D01*
X671022Y702264D01*
X671628Y704525D01*
Y706866D01*
X671022Y709127D01*
X669852Y711154D01*
X668197Y712809D01*
X666170Y713979D01*
X663909Y714585D01*
X661568D01*
X659307Y713979D01*
X657280Y712809D01*
X655624Y711154D01*
X654454Y709127D01*
X653848Y706866D01*
Y704525D01*
X654454Y702264D01*
X655624Y700237D01*
X657280Y698581D01*
X657941Y698200D01*
X657762Y696837D01*
X656969Y696624D01*
X654941Y695454D01*
X653286Y693799D01*
X652116Y691771D01*
X651510Y689510D01*
Y687170D01*
X652116Y684909D01*
X653286Y682881D01*
X654941Y681226D01*
X656404Y680381D01*
X656755Y679077D01*
X656697Y678814D01*
X655614Y676938D01*
X655008Y674677D01*
Y672337D01*
X655614Y670076D01*
X656784Y668048D01*
X658440Y666393D01*
X660467Y665223D01*
X660860Y665117D01*
Y655900D01*
X660860D01*
X661480Y655437D01*
Y641357D01*
X660860Y640895D01*
X660860D01*
Y626815D01*
X673940D01*
Y636345D01*
X674494D01*
X675486Y636542D01*
X676326Y637103D01*
X685823Y646600D01*
X686965Y647009D01*
Y647009D01*
X686965Y647009D01*
X696435D01*
Y637537D01*
X697402D01*
Y633274D01*
X691991D01*
Y623283D01*
X691386Y622679D01*
X690216Y620651D01*
X689610Y618390D01*
Y616050D01*
X690216Y613789D01*
X691386Y611761D01*
X693041Y610106D01*
X695069Y608936D01*
X697330Y608330D01*
X699670D01*
X701931Y608936D01*
X702686Y609371D01*
X715719Y596339D01*
X716559Y595777D01*
X717550Y595580D01*
X728727D01*
X728894Y594310D01*
X726819Y593754D01*
X724791Y592584D01*
X723136Y590929D01*
X721966Y588901D01*
X721360Y586640D01*
Y585322D01*
X649717Y513680D01*
X638518D01*
X637992Y514950D01*
X700211Y577169D01*
X702410Y576580D01*
X704750D01*
X707011Y577186D01*
X709039Y578356D01*
X710694Y580011D01*
X711864Y582039D01*
X712470Y584300D01*
Y586640D01*
X711864Y588901D01*
X710694Y590929D01*
X709039Y592584D01*
X707011Y593754D01*
X704750Y594360D01*
X702410D01*
X700149Y593754D01*
X698121Y592584D01*
X696466Y590929D01*
X695296Y588901D01*
X694690Y586640D01*
Y584300D01*
X695296Y582039D01*
X696196Y580479D01*
X634397Y518680D01*
X627266D01*
X627127Y519950D01*
X679506Y572329D01*
X680068Y573169D01*
X680265Y574160D01*
Y576580D01*
X680620D01*
X682881Y577186D01*
X684909Y578356D01*
X686564Y580011D01*
X687734Y582039D01*
X688340Y584300D01*
Y586640D01*
X687734Y588901D01*
X686564Y590929D01*
X684909Y592584D01*
X682881Y593754D01*
X680620Y594360D01*
X678280D01*
X676019Y593754D01*
X673991Y592584D01*
X672336Y590929D01*
X671166Y588901D01*
X670560Y586640D01*
Y584300D01*
X671166Y582039D01*
X672336Y580011D01*
X673991Y578356D01*
X675085Y577725D01*
Y575233D01*
X628202Y528350D01*
X627029Y528836D01*
Y530154D01*
X621110D01*
Y548867D01*
X649864Y577621D01*
X650619Y577186D01*
X652880Y576580D01*
X655220D01*
X657481Y577186D01*
X659509Y578356D01*
X661164Y580011D01*
X662334Y582039D01*
X662940Y584300D01*
Y586640D01*
X662334Y588901D01*
X661164Y590929D01*
X659509Y592584D01*
X657481Y593754D01*
X655220Y594360D01*
X652880D01*
X650619Y593754D01*
X648591Y592584D01*
X646936Y590929D01*
X645766Y588901D01*
X645160Y586640D01*
Y584300D01*
X645766Y582039D01*
X646201Y581284D01*
X616689Y551771D01*
X616127Y550931D01*
X615930Y549940D01*
Y544333D01*
X615332Y544115D01*
X614660Y544110D01*
X613604Y545939D01*
X611949Y547595D01*
X609921Y548765D01*
X607660Y549371D01*
X605320D01*
X605084Y549552D01*
Y552099D01*
X598765D01*
X598279Y553272D01*
X623300Y578293D01*
X625219Y577186D01*
X627480Y576580D01*
X629820D01*
X632081Y577186D01*
X634109Y578356D01*
X635764Y580011D01*
X636934Y582039D01*
X637540Y584300D01*
Y586640D01*
X636934Y588901D01*
X635764Y590929D01*
X634109Y592584D01*
X632081Y593754D01*
X629820Y594360D01*
X627480D01*
X625219Y593754D01*
X623191Y592584D01*
X621536Y590929D01*
X620366Y588901D01*
X619760Y586640D01*
Y584300D01*
X620229Y582547D01*
X612043Y574361D01*
X610870Y574847D01*
Y575210D01*
X610264Y577471D01*
X609094Y579499D01*
X607439Y581154D01*
X605411Y582324D01*
X603150Y582930D01*
X600810D01*
X599456Y582567D01*
X598798Y583706D01*
X614853Y599761D01*
X616050Y599440D01*
X618390D01*
X620651Y600046D01*
X622679Y601216D01*
X624334Y602871D01*
X625504Y604899D01*
X626110Y607160D01*
Y609500D01*
X625504Y611761D01*
X624334Y613789D01*
X622679Y615444D01*
X620651Y616614D01*
X618390Y617220D01*
X616050D01*
X613789Y616614D01*
X611761Y615444D01*
X610106Y613789D01*
X608936Y611761D01*
X608330Y609500D01*
Y607160D01*
X608936Y604899D01*
X610106Y602871D01*
X610373Y602605D01*
X586375Y578608D01*
X585105Y579134D01*
Y580196D01*
X584499Y582457D01*
X583329Y584485D01*
X581674Y586140D01*
X580647Y586733D01*
X580438Y588320D01*
X580876Y588758D01*
X582046Y590785D01*
X582652Y593046D01*
Y595387D01*
X582046Y597648D01*
X580876Y599675D01*
X579221Y601330D01*
X577194Y602501D01*
X574933Y603106D01*
X572592D01*
X570331Y602501D01*
X568304Y601330D01*
X566648Y599675D01*
X565478Y597648D01*
X565200Y596609D01*
X563930Y596777D01*
Y620933D01*
X563733Y621925D01*
X563171Y622765D01*
X553770Y632166D01*
Y702427D01*
X554590Y703190D01*
X555850Y702974D01*
Y697204D01*
Y687204D01*
X568350D01*
Y674704D01*
X606431D01*
Y687204D01*
X618930D01*
Y697204D01*
Y708474D01*
X620103Y708960D01*
X624790Y704274D01*
Y686873D01*
X602912Y664994D01*
X601880Y665271D01*
X599540D01*
X597279Y664665D01*
X595251Y663494D01*
X593596Y661839D01*
X592426Y659812D01*
X591820Y657551D01*
Y655210D01*
X592426Y652949D01*
X593596Y650922D01*
X595251Y649267D01*
X597279Y648096D01*
X599540Y647491D01*
X601880D01*
X604141Y648096D01*
X606169Y649267D01*
X607824Y650922D01*
X608994Y652949D01*
X609600Y655210D01*
Y657551D01*
X608994Y659812D01*
X607824Y661839D01*
X607453Y662210D01*
X629211Y683969D01*
X629773Y684809D01*
X629970Y685800D01*
Y705346D01*
X629773Y706337D01*
X629211Y707178D01*
X618930Y717459D01*
Y725284D01*
X611735D01*
X611513Y726554D01*
X612462Y727655D01*
X624640D01*
Y724355D01*
X638720D01*
Y724739D01*
X639880Y725005D01*
Y725005D01*
X653960D01*
Y728955D01*
X787077D01*
X790343Y725689D01*
D02*
G37*
G36*
X725922Y710712D02*
X725738Y710640D01*
X725575Y710521D01*
X725434Y710354D01*
X725315Y710140D01*
X725218Y709877D01*
X725142Y709568D01*
X725088Y709210D01*
X725055Y708805D01*
X725044Y708352D01*
X722505D01*
X722494Y708805D01*
X722461Y709210D01*
X722407Y709568D01*
X722331Y709877D01*
X722234Y710140D01*
X722115Y710354D01*
X721974Y710521D01*
X721812Y710640D01*
X721628Y710712D01*
X721422Y710735D01*
X726127D01*
X725922Y710712D01*
D02*
G37*
G36*
X764658Y698758D02*
X764381Y697726D01*
Y695386D01*
X764987Y693124D01*
X766158Y691097D01*
X767813Y689442D01*
X769840Y688272D01*
X771474Y687834D01*
Y686519D01*
X771269Y686464D01*
X769241Y685294D01*
X767586Y683639D01*
X766503Y681763D01*
X752807D01*
Y678154D01*
X738019D01*
Y679120D01*
X728548D01*
Y684421D01*
X743847Y699720D01*
X763695D01*
X764658Y698758D01*
D02*
G37*
G36*
X665953Y669463D02*
X665991Y669028D01*
X666054Y668643D01*
X666143Y668310D01*
X666257Y668027D01*
X666397Y667795D01*
X666562Y667615D01*
X666753Y667485D01*
X666969Y667407D01*
X667210Y667379D01*
X666163Y667388D01*
X666111Y667257D01*
X666059Y667073D01*
X666016Y666856D01*
X665983Y666608D01*
X665945Y666015D01*
X665940Y665670D01*
X663400D01*
X663394Y665953D01*
X663352Y666434D01*
X663314Y666634D01*
X663266Y666805D01*
X663206Y666948D01*
X663137Y667063D01*
X663056Y667151D01*
X662965Y667210D01*
X662863Y667242D01*
X664184Y667404D01*
X663430Y667410D01*
X663425Y667435D01*
X663419Y667511D01*
X663403Y668654D01*
X663400Y669950D01*
X665940D01*
X665953Y669463D01*
D02*
G37*
G36*
X671395Y667300D02*
X671471Y667203D01*
X671598Y667116D01*
X671776Y667041D01*
X672004Y666978D01*
X672284Y666926D01*
X672614Y666886D01*
X673427Y666840D01*
X673909Y666834D01*
Y664294D01*
X673427Y664282D01*
X672995Y664243D01*
X672614Y664180D01*
X672284Y664091D01*
X672004Y663977D01*
X671776Y663837D01*
X671598Y663672D01*
X671471Y663482D01*
X671395Y663266D01*
X671369Y663024D01*
Y667410D01*
X671395Y667300D01*
D02*
G37*
G36*
X699788Y625732D02*
X699842Y625289D01*
X699932Y624875D01*
X700059Y624489D01*
X700221Y624132D01*
X700419Y623804D01*
X700654Y623504D01*
X700924Y623233D01*
X701230Y622991D01*
X701573Y622777D01*
X695427D01*
X695770Y622991D01*
X696076Y623233D01*
X696347Y623504D01*
X696581Y623804D01*
X696779Y624132D01*
X696942Y624489D01*
X697068Y624875D01*
X697158Y625289D01*
X697212Y625732D01*
X697230Y626204D01*
X699770D01*
X699788Y625732D01*
D02*
G37*
G36*
X700799Y621770D02*
X700583Y621693D01*
X700392Y621564D01*
X700227Y621384D01*
X700088Y621153D01*
X699973Y620870D01*
X699884Y620536D01*
X699821Y620150D01*
X699783Y619713D01*
X699770Y619225D01*
X697230D01*
X697217Y619713D01*
X697179Y620150D01*
X697116Y620536D01*
X697027Y620870D01*
X696913Y621153D01*
X696773Y621384D01*
X696608Y621564D01*
X696417Y621693D01*
X696201Y621770D01*
X695960Y621795D01*
X701040D01*
X700799Y621770D01*
D02*
G37*
G36*
X555022Y598100D02*
X554006Y596913D01*
X553593Y596342D01*
X553244Y595785D01*
X552958Y595243D01*
X552736Y594715D01*
X552577Y594201D01*
X552482Y593703D01*
X552450Y593218D01*
X549910D01*
X549878Y593703D01*
X549783Y594201D01*
X549624Y594715D01*
X549402Y595243D01*
X549116Y595785D01*
X548767Y596342D01*
X548354Y596913D01*
X547878Y597499D01*
X546735Y598715D01*
X555625D01*
X555022Y598100D01*
D02*
G37*
G36*
X573881Y587868D02*
X573010Y587835D01*
X571438Y587675D01*
X570737Y587548D01*
X570093Y587389D01*
X569506Y587199D01*
X568975Y586978D01*
X568501Y586725D01*
X568084Y586440D01*
X567724Y586124D01*
X565875Y587868D01*
X566199Y588237D01*
X566485Y588659D01*
X566733Y589136D01*
X566944Y589666D01*
X567117Y590249D01*
X567252Y590886D01*
X567350Y591577D01*
X567410Y592321D01*
X567432Y593119D01*
X567417Y593970D01*
X573881Y587868D01*
D02*
G37*
G36*
X579631Y573673D02*
X578975Y573228D01*
X578388Y572776D01*
X577870Y572315D01*
X577421Y571846D01*
X577041Y571369D01*
X576730Y570885D01*
X576489Y570392D01*
X576316Y569891D01*
X576212Y569383D01*
X576178Y568866D01*
X573638Y569413D01*
X573611Y569839D01*
X573530Y570307D01*
X573394Y570814D01*
X573205Y571362D01*
X572961Y571951D01*
X572312Y573251D01*
X571906Y573961D01*
X570932Y575503D01*
X579631Y573673D01*
D02*
G37*
G36*
X600123Y567968D02*
X599383Y568169D01*
X598680Y568310D01*
X598016Y568390D01*
X597391Y568409D01*
X596803Y568367D01*
X596254Y568264D01*
X595743Y568100D01*
X595270Y567876D01*
X594836Y567590D01*
X594439Y567243D01*
X593186Y569582D01*
X593446Y569877D01*
X593707Y570244D01*
X593971Y570683D01*
X594237Y571194D01*
X594774Y572433D01*
X595319Y573960D01*
X595872Y575775D01*
X600123Y567968D01*
D02*
G37*
G36*
X415960Y545799D02*
X415991Y542020D01*
X415963Y542261D01*
X415885Y542477D01*
X415755Y542668D01*
X415575Y542833D01*
X415343Y542972D01*
X415061Y543087D01*
X414727Y543176D01*
X414342Y543239D01*
X413907Y543277D01*
X413420Y543290D01*
Y545830D01*
X415960Y545799D01*
D02*
G37*
G36*
X602509Y542780D02*
X602586Y542564D01*
X602714Y542373D01*
X602894Y542208D01*
X603125Y542068D01*
X603408Y541954D01*
X603742Y541865D01*
X604128Y541802D01*
X604565Y541764D01*
X605053Y541751D01*
Y539211D01*
X604565Y539198D01*
X604128Y539160D01*
X603742Y539097D01*
X603408Y539008D01*
X603125Y538893D01*
X602894Y538754D01*
X602714Y538589D01*
X602586Y538398D01*
X602509Y538182D01*
X602483Y537941D01*
Y543021D01*
X602509Y542780D01*
D02*
G37*
G36*
X485069Y511946D02*
X484334Y512492D01*
X482321Y513785D01*
X481714Y514101D01*
X481138Y514360D01*
X480594Y514561D01*
X480081Y514705D01*
X479601Y514791D01*
X479152Y514820D01*
X478782Y517360D01*
X479290Y517394D01*
X479797Y517495D01*
X480303Y517665D01*
X480808Y517902D01*
X481311Y518207D01*
X481814Y518579D01*
X482316Y519019D01*
X482816Y519527D01*
X483315Y520103D01*
X483814Y520747D01*
X485069Y511946D01*
D02*
G37*
G36*
X445718Y500029D02*
X445770Y499961D01*
X445850Y499901D01*
X445956Y499849D01*
X446088Y499806D01*
X446248Y499770D01*
X446434Y499742D01*
X446647Y499722D01*
X447152Y499706D01*
Y497166D01*
X446833Y497163D01*
X446058Y497110D01*
X445862Y497078D01*
X445696Y497039D01*
X445561Y496994D01*
X445457Y496941D01*
X445383Y496881D01*
X445340Y496814D01*
X445692Y500104D01*
X445718Y500029D01*
D02*
G37*
G36*
X608066Y478493D02*
X608099Y478419D01*
X608160Y478321D01*
X608249Y478200D01*
X608511Y477888D01*
X609115Y477248D01*
X609372Y476988D01*
X607576Y475192D01*
X607430Y475335D01*
X607170Y475561D01*
X607057Y475645D01*
X606955Y475709D01*
X606865Y475753D01*
X606786Y475777D01*
X606719Y475782D01*
X606662Y475768D01*
X606617Y475733D01*
X608061Y478545D01*
X608066Y478493D01*
D02*
G37*
G36*
X619803Y434641D02*
X619804Y434627D01*
X621060D01*
X620819Y434601D01*
X620603Y434524D01*
X620412Y434396D01*
X620247Y434216D01*
X620107Y433984D01*
X619993Y433702D01*
X619966Y433599D01*
X619993Y433498D01*
X620107Y433218D01*
X620247Y432990D01*
X620412Y432812D01*
X620603Y432685D01*
X620819Y432609D01*
X621060Y432583D01*
X619806D01*
X619803Y432545D01*
X619790Y432057D01*
X617250D01*
X617237Y432545D01*
X617234Y432583D01*
X615980D01*
X616221Y432609D01*
X616437Y432685D01*
X616628Y432812D01*
X616793Y432990D01*
X616932Y433218D01*
X617047Y433498D01*
X617074Y433599D01*
X617047Y433702D01*
X616932Y433984D01*
X616793Y434216D01*
X616628Y434396D01*
X616437Y434524D01*
X616221Y434601D01*
X615980Y434627D01*
X617236D01*
X617237Y434641D01*
X617250Y435123D01*
X619790D01*
X619803Y434641D01*
D02*
G37*
G36*
X657655Y481125D02*
X658496Y480564D01*
X659487Y480367D01*
X665618D01*
X669818Y476167D01*
X670658Y475605D01*
X671649Y475408D01*
X703299D01*
X713123Y465584D01*
Y456480D01*
X716366D01*
Y448447D01*
X709896D01*
Y425691D01*
X700975D01*
Y448447D01*
X695525D01*
Y450160D01*
X697390D01*
Y464240D01*
X684310D01*
Y459790D01*
X660414D01*
X632973Y487230D01*
X633499Y488500D01*
X650281D01*
X657655Y481125D01*
D02*
G37*
G36*
X619803Y424641D02*
X619804Y424627D01*
X621060D01*
X620819Y424601D01*
X620603Y424524D01*
X620412Y424396D01*
X620247Y424216D01*
X620107Y423984D01*
X619993Y423702D01*
X619966Y423599D01*
X619993Y423498D01*
X620107Y423218D01*
X620247Y422990D01*
X620412Y422812D01*
X620603Y422685D01*
X620819Y422609D01*
X621060Y422583D01*
X619806D01*
X619803Y422545D01*
X619790Y422057D01*
X617250D01*
X617237Y422545D01*
X617234Y422583D01*
X615980D01*
X616221Y422609D01*
X616437Y422685D01*
X616628Y422812D01*
X616793Y422990D01*
X616932Y423218D01*
X617047Y423498D01*
X617074Y423599D01*
X617047Y423702D01*
X616932Y423984D01*
X616793Y424216D01*
X616628Y424396D01*
X616437Y424524D01*
X616221Y424601D01*
X615980Y424627D01*
X617236D01*
X617237Y424641D01*
X617250Y425123D01*
X619790D01*
X619803Y424641D01*
D02*
G37*
G36*
X607189Y423410D02*
X607084Y422682D01*
X607035Y421995D01*
X607042Y421351D01*
X607104Y420749D01*
X607223Y420189D01*
X607397Y419671D01*
X607628Y419196D01*
X607914Y418762D01*
X608256Y418371D01*
X606041Y416994D01*
X605725Y417272D01*
X605341Y417543D01*
X604889Y417807D01*
X604370Y418064D01*
X603782Y418313D01*
X602402Y418789D01*
X601611Y419017D01*
X599823Y419450D01*
X607350Y424181D01*
X607189Y423410D01*
D02*
G37*
G36*
X631236Y440797D02*
Y409966D01*
X630889Y409766D01*
X629619Y410499D01*
Y418666D01*
X629422Y419657D01*
X628860Y420497D01*
X627372Y421985D01*
X627029Y422215D01*
Y432026D01*
Y440154D01*
X611745D01*
X610840Y441251D01*
X611257Y442805D01*
Y445146D01*
X611023Y446019D01*
X611796Y447026D01*
X625006D01*
X631236Y440797D01*
D02*
G37*
G36*
X595809Y415170D02*
X596955Y414137D01*
X597511Y413717D01*
X598057Y413362D01*
X598591Y413072D01*
X599115Y412845D01*
X599627Y412684D01*
X600128Y412587D01*
X600618Y412555D01*
X600539Y410015D01*
X600061Y409984D01*
X599565Y409890D01*
X599051Y409734D01*
X598519Y409516D01*
X597969Y409236D01*
X597401Y408893D01*
X596814Y408488D01*
X596209Y408020D01*
X594946Y406898D01*
X595219Y415784D01*
X595809Y415170D01*
D02*
G37*
G36*
X258839Y465435D02*
X258623Y465358D01*
X258432Y465230D01*
X258267Y465050D01*
X258127Y464818D01*
X258013Y464536D01*
X257924Y464201D01*
X257861Y463816D01*
X257823Y463379D01*
X257810Y462891D01*
X255270D01*
X255257Y463379D01*
X255219Y463816D01*
X255156Y464201D01*
X255067Y464536D01*
X254953Y464818D01*
X254813Y465050D01*
X254648Y465230D01*
X254457Y465358D01*
X254241Y465435D01*
X254000Y465461D01*
X259080D01*
X258839Y465435D01*
D02*
G37*
G36*
X257823Y461181D02*
X257861Y460744D01*
X257924Y460359D01*
X258013Y460024D01*
X258127Y459742D01*
X258267Y459510D01*
X258432Y459330D01*
X258623Y459202D01*
X258839Y459125D01*
X259080Y459099D01*
X254000D01*
X254241Y459125D01*
X254457Y459202D01*
X254648Y459330D01*
X254813Y459510D01*
X254953Y459742D01*
X255067Y460024D01*
X255156Y460359D01*
X255219Y460744D01*
X255257Y461181D01*
X255270Y461670D01*
X257810D01*
X257823Y461181D01*
D02*
G37*
G36*
X275779Y450191D02*
X275744Y450165D01*
X275711Y450089D01*
X275683Y449962D01*
X275658Y449784D01*
X275620Y449276D01*
X275590Y447650D01*
X273050D01*
X273037Y448137D01*
X272999Y448573D01*
X272936Y448957D01*
X272847Y449291D01*
X272733Y449574D01*
X272593Y449805D01*
X272428Y449986D01*
X272237Y450115D01*
X272021Y450193D01*
X271780Y450221D01*
X275779Y450191D01*
D02*
G37*
G36*
X195587Y326717D02*
X195686Y325574D01*
X195745Y325294D01*
X195817Y325066D01*
X195903Y324888D01*
X196002Y324761D01*
X196114Y324685D01*
X196239Y324659D01*
X191770D01*
X192011Y324685D01*
X192227Y324761D01*
X192418Y324888D01*
X192583Y325066D01*
X192722Y325294D01*
X192837Y325574D01*
X192926Y325904D01*
X192989Y326285D01*
X193027Y326717D01*
X193040Y327199D01*
X195580D01*
X195587Y326717D01*
D02*
G37*
G36*
X195339Y302725D02*
X195123Y302648D01*
X194932Y302519D01*
X194767Y302339D01*
X194627Y302108D01*
X194513Y301825D01*
X194424Y301491D01*
X194361Y301106D01*
X194323Y300669D01*
X194310Y300180D01*
X191770D01*
X191757Y300669D01*
X191719Y301106D01*
X191656Y301491D01*
X191567Y301825D01*
X191453Y302108D01*
X191313Y302339D01*
X191148Y302519D01*
X190957Y302648D01*
X190741Y302725D01*
X190500Y302751D01*
X195580D01*
X195339Y302725D01*
D02*
G37*
G36*
X500990Y118396D02*
X501040Y118395D01*
Y112045D01*
X500990Y112045D01*
Y111250D01*
X500927Y111401D01*
X500737Y111537D01*
X500419Y111656D01*
X499975Y111759D01*
X499403Y111846D01*
X498331Y111936D01*
X495705Y111759D01*
X495261Y111656D01*
X494944Y111537D01*
X494753Y111401D01*
X494689Y111250D01*
Y112044D01*
X494641Y112045D01*
Y118395D01*
X494689Y118395D01*
Y119190D01*
X494753Y119038D01*
X494944Y118904D01*
X495261Y118784D01*
X495705Y118681D01*
X496277Y118594D01*
X497349Y118504D01*
X499975Y118681D01*
X500419Y118784D01*
X500737Y118904D01*
X500927Y119038D01*
X500990Y119190D01*
Y118396D01*
D02*
G37*
G36*
X507347Y208428D02*
X507368Y208309D01*
X507402Y208186D01*
X507450Y208056D01*
X507513Y207920D01*
X507589Y207779D01*
X507678Y207632D01*
X507899Y207320D01*
X508030Y207155D01*
X504110D01*
X504241Y207320D01*
X504462Y207632D01*
X504552Y207779D01*
X504627Y207920D01*
X504690Y208056D01*
X504738Y208186D01*
X504772Y208309D01*
X504793Y208428D01*
X504800Y208540D01*
X507340D01*
X507347Y208428D01*
D02*
G37*
G36*
X507899Y206760D02*
X507678Y206448D01*
X507589Y206301D01*
X507513Y206160D01*
X507450Y206024D01*
X507402Y205894D01*
X507368Y205770D01*
X507347Y205652D01*
X507340Y205540D01*
X504800D01*
X504793Y205652D01*
X504772Y205770D01*
X504738Y205894D01*
X504690Y206024D01*
X504627Y206160D01*
X504552Y206301D01*
X504462Y206448D01*
X504241Y206760D01*
X504110Y206925D01*
X508030D01*
X507899Y206760D01*
D02*
G37*
G36*
X552938Y161750D02*
X552530Y161334D01*
X551406Y160033D01*
X551252Y159797D01*
X551148Y159598D01*
X551096Y159434D01*
X551093Y159306D01*
X551142Y159214D01*
X548606Y161750D01*
X548698Y161701D01*
X548826Y161703D01*
X548990Y161756D01*
X549189Y161860D01*
X549425Y162014D01*
X549697Y162219D01*
X550348Y162781D01*
X551142Y163546D01*
X552938Y161750D01*
D02*
G37*
G36*
X546551Y228359D02*
X547143Y227850D01*
X547266Y227764D01*
X547380Y227695D01*
X547484Y227643D01*
X547579Y227607D01*
X547663Y227588D01*
X545522Y225447D01*
X545503Y225531D01*
X545467Y225626D01*
X545415Y225730D01*
X545346Y225844D01*
X545260Y225967D01*
X545039Y226244D01*
X544751Y226559D01*
X544582Y226732D01*
X546378Y228528D01*
X546551Y228359D01*
D02*
G37*
G36*
X555971Y210092D02*
X556419Y210080D01*
Y207540D01*
X555971Y207528D01*
Y206270D01*
X555945Y206511D01*
X555868Y206727D01*
X555788Y206846D01*
X555655Y206936D01*
X555415Y207062D01*
X555145Y207174D01*
X554845Y207271D01*
X554714Y207304D01*
X554514Y207222D01*
X554286Y207083D01*
X554108Y206917D01*
X553981Y206727D01*
X553905Y206511D01*
X553879Y206270D01*
Y207451D01*
X553342Y207510D01*
X552891Y207532D01*
X552410Y207540D01*
Y210080D01*
X552891Y210087D01*
X553763Y210147D01*
X553879Y210163D01*
Y211350D01*
X553905Y211108D01*
X553981Y210893D01*
X554108Y210702D01*
X554286Y210537D01*
X554514Y210397D01*
X554707Y210319D01*
X554845Y210348D01*
X555145Y210445D01*
X555415Y210557D01*
X555655Y210684D01*
X555788Y210774D01*
X555868Y210893D01*
X555945Y211108D01*
X555971Y211350D01*
Y210092D01*
D02*
G37*
D14*
X212667Y188639D02*
X213718Y189690D01*
X220790D01*
X223520Y192420D01*
X602367Y443976D02*
X603774D01*
X610724Y437026D01*
X585132Y435948D02*
X585470Y435610D01*
X596808D01*
X597332Y435086D02*
X604314D01*
X575595Y461488D02*
X597427D01*
X604314Y435086D02*
X610011Y429389D01*
X597427Y461488D02*
X610011Y448904D01*
X596808Y435610D02*
X597332Y435086D01*
X618266Y446344D02*
X618520Y446090D01*
X610011Y448514D02*
Y448904D01*
Y448514D02*
X612181Y446344D01*
X618266D01*
X610724Y437026D02*
X613139D01*
X614075Y436090D02*
X618520D01*
X613139Y437026D02*
X614075Y436090D01*
X651742Y496090D02*
X658882Y488950D01*
X673720D02*
X676260Y486410D01*
X658882Y488950D02*
X673720D01*
X618520Y496090D02*
X651742D01*
X643690Y712479D02*
Y714814D01*
X646420Y717544D01*
X641350Y710139D02*
X643690Y712479D01*
X641350Y707390D02*
Y710139D01*
X731415Y665564D02*
X779864D01*
X795670Y681370D02*
Y693544D01*
X779864Y665564D02*
X795670Y681370D01*
X762577Y677953D02*
X774473D01*
X759506Y675564D02*
X759847Y675223D01*
X774473Y677953D02*
X774700Y678180D01*
X759847Y675223D02*
X762577Y677953D01*
X731415Y675564D02*
X759506D01*
X795670Y693544D02*
X798210Y696085D01*
X768604Y660565D02*
X784352Y644817D01*
X731415Y660565D02*
X768604D01*
X735466Y405266D02*
Y415760D01*
X725955Y387968D02*
X731250Y393262D01*
Y401050D01*
X735466Y405266D01*
X685609Y423101D02*
X727624D01*
X637535Y471175D02*
X685609Y423101D01*
X622150Y471175D02*
X637535D01*
X715620Y466750D02*
X716933D01*
X719663Y464020D01*
X704372Y477998D02*
X715620Y466750D01*
X719663Y463520D02*
Y464020D01*
X706773Y459124D02*
X707580Y458317D01*
X693920Y468630D02*
X704850Y457700D01*
Y457200D02*
Y457700D01*
X680720Y468630D02*
X693920D01*
X718956Y438668D02*
Y463520D01*
X651353Y491090D02*
X659487Y482957D01*
X671649Y477998D02*
X704372D01*
X666691Y482957D02*
X671649Y477998D01*
X659487Y482957D02*
X666691D01*
X659341Y457200D02*
X690850D01*
X630451Y486090D02*
X659341Y457200D01*
X630148Y461090D02*
X666750Y424488D01*
X664210Y387350D02*
X666750Y389890D01*
Y424488D01*
X635000Y466090D02*
X688278Y412812D01*
Y389317D02*
Y412812D01*
Y389317D02*
X690868Y386727D01*
X692966Y488825D02*
X696019D01*
X690236Y485800D02*
Y486095D01*
X692966Y488825D01*
X696019D02*
X708917Y501724D01*
X727624Y423101D02*
X732236Y418490D01*
X704992Y681988D02*
Y693353D01*
Y670565D02*
Y681988D01*
X732736Y418490D02*
X735466Y415760D01*
X732236Y418490D02*
X732736D01*
X733663Y463520D02*
X736393Y466250D01*
X706773Y459124D02*
Y459124D01*
X707580Y459931D01*
X646420Y717544D02*
X646920D01*
X916940Y598170D02*
X933450Y581660D01*
X698500Y617220D02*
X717550Y598170D01*
X916940D01*
X721360Y610870D02*
Y613619D01*
X724992Y617251D01*
Y644141D01*
X757117Y691953D02*
X759847Y689223D01*
X748227Y691953D02*
X757117D01*
X748030Y692150D02*
X748227Y691953D01*
X725246Y684781D02*
X742774Y702310D01*
X764768D01*
X770522Y696556D01*
X773271D01*
X723226Y583526D02*
X728306D01*
X618520Y511090D02*
X650790D01*
X728306Y583526D02*
X730250Y585470D01*
X650790Y511090D02*
X723226Y583526D01*
X635470Y516090D02*
X703580Y584200D01*
Y585470D01*
X677675Y583695D02*
X679450Y585470D01*
X677675Y574160D02*
Y583695D01*
X618520Y549940D02*
X654050Y585470D01*
X626815D02*
X628650D01*
X591274Y549929D02*
X626815Y585470D01*
X564907Y472176D02*
X575595Y461488D01*
X578506Y471150D02*
X579278Y470378D01*
X597952D01*
X607239Y461090D01*
X551020Y525635D02*
Y543590D01*
X553235Y520670D02*
Y523419D01*
X551020Y525635D02*
X553235Y523419D01*
X440690Y520670D02*
X440900Y520880D01*
X463310D01*
X407940Y544560D02*
X417200D01*
X406400Y546100D02*
X407940Y544560D01*
X463310Y520880D02*
X463520Y521090D01*
X450170Y526090D02*
X463520D01*
X472130D01*
X439430Y536830D02*
X450170Y526090D01*
X387350Y563880D02*
X388620Y565150D01*
X387350Y549910D02*
Y563880D01*
X426170Y511090D02*
X463520D01*
X387350Y549910D02*
X426170Y511090D01*
X433070Y805180D02*
X540084Y698166D01*
Y551119D02*
Y698166D01*
X480766Y543844D02*
Y578414D01*
X480060Y579120D02*
X480766Y578414D01*
Y543844D02*
X481020Y543590D01*
X370224Y704850D02*
X378332D01*
X506020Y543590D02*
Y577163D01*
X378332Y704850D02*
X506020Y577163D01*
X291792Y763270D02*
X303222Y751840D01*
X323234D02*
X370224Y704850D01*
X303222Y751840D02*
X323234D01*
X263902Y802898D02*
X308610Y758190D01*
X322272D02*
X371802Y708660D01*
X308610Y758190D02*
X322272D01*
X229870Y805180D02*
X271780Y763270D01*
X291792D01*
X255270Y805180D02*
X257552Y802898D01*
X263902D01*
X375016Y717184D02*
X403184D01*
X280670Y805180D02*
X282952Y802898D01*
X289302D01*
X375016Y717184D01*
X511020Y543590D02*
Y580090D01*
X382450Y708660D02*
X511020Y580090D01*
X521020Y543590D02*
Y610550D01*
X377290Y754280D02*
X521020Y610550D01*
X407670Y805180D02*
X536274Y676576D01*
Y543844D02*
Y676576D01*
X462166Y725284D02*
X477406D01*
X382270Y805180D02*
X462166Y725284D01*
X356870Y805180D02*
X526020Y636030D01*
Y543590D02*
Y636030D01*
X531020Y543590D02*
Y671670D01*
X477406Y725284D02*
X531020Y671670D01*
X359510Y754280D02*
X377290D01*
X306070Y805180D02*
X308610D01*
X359510Y754280D01*
X403184Y717184D02*
X516020Y604349D01*
X368300Y685529D02*
X374714Y691943D01*
X368300Y438150D02*
Y685529D01*
X374714Y691943D02*
Y693484D01*
X371802Y708660D02*
X382450D01*
X516020Y543590D02*
Y604349D01*
X271810Y454660D02*
X274320Y452150D01*
Y438150D02*
Y452150D01*
X217170Y547370D02*
X320040D01*
X209550Y539750D02*
X217170Y547370D01*
X201930Y534670D02*
X203418D01*
X208498Y539750D01*
X209550D01*
X177800Y261620D02*
X223520Y215900D01*
X177800Y261620D02*
Y652780D01*
X264160Y739140D01*
X318770D01*
X185420Y505460D02*
X203200Y487680D01*
X185420Y617220D02*
X207010Y638810D01*
X185420Y505460D02*
Y617220D01*
X207010Y638810D02*
Y641350D01*
X203200Y487680D02*
X221600D01*
X320040Y547370D02*
X321310Y546100D01*
X256540Y469400D02*
Y469900D01*
Y455930D02*
Y469400D01*
Y455930D02*
X257810Y454660D01*
X242540Y469900D02*
Y480240D01*
X235600Y487180D02*
X242540Y480240D01*
X235600Y487180D02*
Y487680D01*
X235600Y487680D02*
X259700D01*
X235600Y487680D02*
X235600Y487680D01*
X256540Y469400D02*
X259270Y466670D01*
X287710D01*
X288290Y466090D01*
X283984Y477396D02*
X302299D01*
X276930Y484450D02*
X283984Y477396D01*
X273700Y487180D02*
Y487680D01*
Y487180D02*
X276430Y484450D01*
X276930D01*
X438324Y484116D02*
X445298Y491090D01*
X436694Y484116D02*
X438324D01*
X445298Y491090D02*
X463520D01*
X475232Y516090D02*
X488034D01*
X463520D02*
X475232D01*
X387350Y278528D02*
X393700Y272178D01*
X387350Y304643D02*
X417830Y335123D01*
X387350Y278528D02*
Y304643D01*
X417830Y335123D02*
Y358140D01*
X393700Y270510D02*
Y272178D01*
X405637Y345947D02*
X417830Y358140D01*
X347980Y278130D02*
Y298450D01*
X331470D02*
X332740Y297180D01*
X331470Y298450D02*
Y311920D01*
X331534Y209614D02*
Y211410D01*
X337820Y217696D01*
Y246380D01*
X313690Y426720D02*
Y439420D01*
Y426720D02*
X334590Y405820D01*
X307340Y242570D02*
X307658Y242253D01*
Y201612D02*
Y242253D01*
X302984Y287694D02*
X307936D01*
X236030Y354647D02*
X302984Y287694D01*
X307936D02*
X309880Y285750D01*
X234125Y354647D02*
X236030D01*
X228918Y359855D02*
X234125Y354647D01*
X307658Y201612D02*
X307975Y201295D01*
X374740Y252640D02*
X375920Y251460D01*
X367030Y252640D02*
X374740D01*
X458470Y214630D02*
Y273783D01*
X433070Y181610D02*
X435272Y183812D01*
Y191432D01*
X458470Y214630D01*
X439420Y499110D02*
X440094Y498436D01*
X449498Y496090D02*
X463520D01*
X447152Y498436D02*
X449498Y496090D01*
X440094Y498436D02*
X447152D01*
X488034Y516090D02*
X488931Y516987D01*
X825500Y245110D02*
X827444Y247054D01*
Y250032D02*
X831850Y254438D01*
X827444Y247054D02*
Y250032D01*
X599440Y574040D02*
X601980D01*
X581020Y555620D02*
X599440Y574040D01*
X617220Y605790D02*
Y608330D01*
X576020Y564590D02*
X617220Y605790D01*
X437156Y439420D02*
Y440735D01*
X478333Y424818D02*
Y438661D01*
X437156Y440735D02*
X443683Y447262D01*
X469605Y416090D02*
X478333Y424818D01*
X443683Y447262D02*
Y449058D01*
X564907Y472176D02*
Y474281D01*
X571063Y480436D01*
X443683Y449058D02*
X450715Y456090D01*
X603661Y521320D02*
Y521771D01*
X588431Y506090D02*
X603661Y521320D01*
X474451Y486090D02*
X477311Y488950D01*
X480060D01*
X587801Y495300D02*
X590550D01*
X582010Y501090D02*
X587801Y495300D01*
X463520Y501090D02*
X582010D01*
X463520Y486090D02*
X474451D01*
X463520Y506090D02*
X588431D01*
X600710Y659130D02*
X627380Y685800D01*
X600710Y656381D02*
Y659130D01*
X481020Y401320D02*
X482290Y402590D01*
Y411170D01*
X481020Y368520D02*
Y388590D01*
Y401320D01*
X482290Y411170D02*
X483870Y412750D01*
X463520Y416090D02*
X469605D01*
X502846Y371003D02*
X504790Y369058D01*
X501020Y378811D02*
X502846Y376985D01*
Y371003D02*
Y376985D01*
X497840Y356870D02*
Y362612D01*
X491020Y369432D02*
X497840Y362612D01*
X439420Y458261D02*
Y461010D01*
X439460Y461050D01*
X436681Y455522D02*
X439420Y458261D01*
X439460Y461050D02*
X463480D01*
X436681Y454461D02*
Y455522D01*
X399757Y385787D02*
Y417537D01*
X436681Y454461D01*
X450715Y456090D02*
X463520D01*
X417200Y544560D02*
X421630Y540130D01*
Y538480D02*
Y540130D01*
X365670Y254000D02*
X367030Y252640D01*
X359440Y254000D02*
X365670D01*
X882650Y232410D02*
X908050Y257810D01*
X798349Y244321D02*
X810260Y232410D01*
X882650D01*
X751840Y610870D02*
Y632679D01*
X733955Y650565D02*
X751840Y632679D01*
X655320Y400240D02*
Y425763D01*
X337820Y246380D02*
Y267970D01*
X347980Y278130D01*
X375920Y430530D02*
X387350D01*
X368300Y438150D02*
X375920Y430530D01*
X568960Y358140D02*
X570766Y359946D01*
Y388336D01*
X571020Y388590D01*
X497840Y356870D02*
X508000Y346710D01*
X364490Y580390D02*
Y637932D01*
X357262Y645160D02*
X364490Y637932D01*
X353060Y568960D02*
X364490Y580390D01*
X355600Y645160D02*
X357262D01*
X557640Y170070D02*
Y179580D01*
Y170070D02*
X564528Y163182D01*
X557410Y179810D02*
X557640Y179580D01*
X564528Y157483D02*
Y163182D01*
Y157483D02*
X565150Y156860D01*
X547173Y157780D02*
X555860Y149093D01*
Y121050D02*
X557530Y119380D01*
X555860Y121050D02*
Y149093D01*
X543560Y167640D02*
X547410Y171490D01*
X532130Y164530D02*
X535240Y167640D01*
X543560D01*
X547410Y171490D02*
Y179810D01*
X532130Y157780D02*
Y164530D01*
X487660Y227340D02*
X488920Y228600D01*
X552410Y208810D02*
X557410D01*
X834390Y443230D02*
X881380D01*
X910590Y472440D01*
X340360Y358140D02*
X372110D01*
X399757Y385787D01*
X364381Y396996D02*
X365054D01*
X355975Y388590D02*
X364381Y396996D01*
X633825Y402930D02*
X635600Y401155D01*
X633825Y402930D02*
Y441870D01*
X625247Y455836D02*
X655320Y425763D01*
X618774Y455836D02*
X625247D01*
X231736Y164504D02*
Y170704D01*
X224020Y178420D02*
X231736Y170704D01*
X234950Y218216D02*
Y312837D01*
X242570Y119380D02*
Y210597D01*
X231736Y164504D02*
X233680Y162560D01*
X234950Y218216D02*
X242570Y210597D01*
Y119380D02*
X259676Y102274D01*
X223520Y178420D02*
X224020D01*
X781050Y720090D02*
X792480Y708660D01*
X814070D01*
X826770Y695960D01*
X666190Y501090D02*
X668020Y502920D01*
X618520Y501090D02*
X666190D01*
X491020Y369432D02*
Y388590D01*
X597342Y402590D02*
X600842Y406090D01*
X590550Y411480D02*
X590745Y411285D01*
X591274Y394929D02*
X595125Y398780D01*
X571394Y416700D02*
X585504Y402590D01*
X597342D01*
X595125Y398780D02*
X622295D01*
X590745Y411285D02*
X618325D01*
X622295Y398780D02*
X627029Y403514D01*
X618325Y411285D02*
X618520Y411090D01*
X600842Y406090D02*
X618520D01*
X506070Y205540D02*
Y208540D01*
X613254Y318926D02*
X629920Y302260D01*
X668020D01*
X610870Y326390D02*
X613254Y324006D01*
Y318926D02*
Y324006D01*
X668020Y302260D02*
X725959Y244321D01*
X798349D01*
X636270Y326390D02*
X652780Y309880D01*
X671830D02*
X707390Y274320D01*
X652780Y309880D02*
X671830D01*
X707390Y274320D02*
X866140D01*
X433070Y273783D02*
X459374Y300086D01*
X482966D01*
X509270Y326390D01*
X866140Y274320D02*
X882650Y257810D01*
X501020Y378811D02*
Y388590D01*
X831850Y254438D02*
Y257810D01*
X337820Y388590D02*
X355975D01*
X708660Y699770D02*
X709818Y698612D01*
Y682162D02*
Y698612D01*
X704992Y693353D02*
X708660Y697021D01*
Y699770D01*
X692680Y703474D02*
X699770Y696385D01*
Y682209D02*
Y696385D01*
X709818Y682162D02*
X709992Y681988D01*
X692680Y703474D02*
Y704975D01*
X692180D02*
X692680D01*
X717550Y692278D02*
Y703469D01*
X710700Y717674D02*
X712667Y715708D01*
X723774Y708352D02*
Y715749D01*
X719992Y689332D02*
X721360Y690699D01*
X714992Y689719D02*
X717550Y692278D01*
X712667Y708352D02*
Y715708D01*
X721360Y705938D02*
X723774Y708352D01*
X714992Y706028D02*
X717550Y703469D01*
X712667Y708352D02*
X714992Y706028D01*
X721360Y690699D02*
Y705938D01*
X723774Y715749D02*
X725700Y717674D01*
X191770Y306690D02*
X193040Y305420D01*
Y292100D02*
Y305420D01*
X234950Y312837D02*
X236239Y314126D01*
X467360Y192390D02*
X467860D01*
X470590Y189660D01*
Y189160D02*
Y189660D01*
X337320Y402590D02*
X337820D01*
X334590Y405320D02*
X337320Y402590D01*
X334590Y405320D02*
Y405820D01*
X345440Y325890D02*
Y326390D01*
X331470Y311920D02*
X345440Y325890D01*
X417830Y358140D02*
Y405130D01*
X351820Y246880D02*
X354550Y249610D01*
X355050D01*
X359440Y254000D01*
X351820Y246380D02*
Y246880D01*
X618320Y456290D02*
X618774Y455836D01*
X612500Y456290D02*
X618320D01*
X588258Y480436D02*
X596660Y488838D01*
X571063Y480436D02*
X588258D01*
X610011Y483514D02*
X612181Y481344D01*
X608475Y476090D02*
X618520D01*
X618266Y481344D02*
X618520Y481090D01*
X596660Y488838D02*
X605550D01*
X604617Y479948D02*
X608475Y476090D01*
X612181Y481344D02*
X618266D01*
X610011Y483514D02*
Y484377D01*
X605550Y488838D02*
X610011Y484377D01*
X601868Y479948D02*
X604617D01*
X733663Y463020D02*
Y463520D01*
X228918Y359855D02*
Y366949D01*
X222250Y373617D02*
X228918Y366949D01*
X222250Y373617D02*
Y374650D01*
X622065Y466090D02*
X635000D01*
X622065Y486090D02*
X630451D01*
X618520Y461090D02*
X630148D01*
X618520Y441090D02*
Y446090D01*
X692935Y437648D02*
Y454130D01*
X690608Y456458D02*
X692935Y454130D01*
X622065Y491090D02*
X651353D01*
X607239Y461090D02*
X618520D01*
X624859Y450836D02*
X633825Y441870D01*
X571394Y416700D02*
Y422210D01*
X571861Y422677D01*
X431800Y378460D02*
X442472Y389132D01*
X450093D01*
X433790Y421090D02*
X463520D01*
X434340Y397510D02*
Y398780D01*
X417830Y405130D02*
X433790Y421090D01*
X434340Y398780D02*
X446650Y411090D01*
X601020Y540735D02*
Y543590D01*
Y540735D02*
X601274Y540481D01*
X606490D01*
X697993Y398698D02*
Y415260D01*
X698118D01*
X694235Y394940D02*
X697993Y398698D01*
X618520Y451090D02*
X618774Y450836D01*
X624859D01*
X475232Y516090D02*
X476250Y517108D01*
X191770Y320690D02*
X194310Y323230D01*
Y330200D01*
X439430Y536830D02*
Y538480D01*
X591274Y388844D02*
Y394929D01*
X591020Y388590D02*
X591274Y388844D01*
X627029Y403514D02*
Y418666D01*
X625541Y420154D02*
X627029Y418666D01*
X623901Y420154D02*
X625541D01*
X622965Y421090D02*
X623901Y420154D01*
X618520Y421090D02*
X622965D01*
X476250Y517108D02*
Y521970D01*
X472130Y526090D02*
X476250Y521970D01*
X610011Y428514D02*
X612181Y426344D01*
X618266D01*
X610011Y428514D02*
Y429389D01*
X618266Y426344D02*
X618520Y426090D01*
Y421090D02*
Y426090D01*
Y516090D02*
X635470D01*
X704992Y670565D02*
X712492Y663064D01*
X714992Y681988D02*
Y689719D01*
X719992Y681988D02*
Y689332D01*
X699770Y682209D02*
X699992Y681988D01*
X664670Y665670D02*
X667400Y662940D01*
X664670Y665670D02*
Y672735D01*
X663898Y673507D02*
X664670Y672735D01*
X668050Y653477D02*
X683649D01*
X684547Y654375D01*
X689839D01*
X691029Y655564D02*
X693569D01*
X689839Y654375D02*
X691029Y655564D01*
X667400Y638935D02*
X674494D01*
X686125Y650565D01*
X693569D01*
X683255Y670565D02*
X693569D01*
X660400Y688340D02*
X662344Y686396D01*
X667424D01*
X683255Y670565D01*
X620427Y760127D02*
X632777D01*
X632854Y760050D01*
X607550Y730244D02*
X621290Y743984D01*
X598350Y738050D02*
X620427Y760127D01*
X601173Y423658D02*
X608741Y416090D01*
X601173Y423658D02*
Y425654D01*
X618520Y431090D02*
Y436090D01*
X260350Y363220D02*
X264160D01*
X240030D02*
X260350D01*
X698500Y626204D02*
X698531Y626235D01*
X698500Y617220D02*
Y626204D01*
X450093Y389132D02*
X458821Y397861D01*
Y405836D01*
X622065Y471090D02*
X622150Y471175D01*
X573762Y593958D02*
Y594216D01*
X566020Y543590D02*
Y586216D01*
X573762Y593958D01*
X581020Y543590D02*
Y555620D01*
X574908Y577719D02*
X576215Y579026D01*
X574908Y568866D02*
Y577719D01*
X571020Y543590D02*
Y564978D01*
X574908Y568866D01*
X576020Y543590D02*
Y564590D01*
X561020Y543590D02*
X561310D01*
X551180Y631093D02*
X561340Y620933D01*
Y543560D02*
Y620933D01*
X561310Y543590D02*
X561340Y543560D01*
X551180Y570021D02*
Y603250D01*
X546020Y564860D02*
X551180Y570021D01*
X546020Y543590D02*
Y564860D01*
X731415Y650565D02*
X733955D01*
X546673Y157780D02*
X547172D01*
X608741Y416090D02*
X618520D01*
X457820Y360680D02*
X473680D01*
Y361180D01*
X481020Y368520D01*
X627380Y685800D02*
Y705346D01*
X616712Y716014D02*
X627380Y705346D01*
X611620Y716014D02*
X616712D01*
X611390Y716244D02*
X611620Y716014D01*
X587230Y732784D02*
Y747815D01*
X582930Y752115D02*
X587230Y747815D01*
X573765Y752115D02*
X582930D01*
X592391Y749451D02*
X598950Y756011D01*
X592391Y730244D02*
Y749451D01*
X725700Y717674D02*
X747260D01*
X753110Y711824D01*
Y711324D02*
Y711824D01*
Y711324D02*
X761876Y720090D01*
X781050D01*
X826770Y695960D02*
X877570D01*
X458821Y405836D02*
X459075Y406090D01*
X463520D01*
X582391Y711244D02*
X587390Y706245D01*
X582391Y711244D02*
Y730244D01*
X461059Y143881D02*
Y144731D01*
X489720Y115220D02*
X490220D01*
X504840Y114600D02*
X505460Y115220D01*
X731415Y655564D02*
X751596D01*
X756412Y650748D01*
X598350Y734705D02*
Y738050D01*
X597390Y733745D02*
X598350Y734705D01*
X597390Y730244D02*
Y733745D01*
X668050Y666875D02*
Y668020D01*
Y666875D02*
X669361Y665564D01*
X693569D01*
X698531Y626235D02*
X699992Y627696D01*
Y644141D01*
X545480Y227630D02*
X547410Y225700D01*
X547172Y157780D02*
X552410Y163018D01*
Y179810D01*
X487610Y97100D02*
X488110D01*
X490840Y99830D01*
Y100330D01*
X463480Y461050D02*
X463520Y461090D01*
X717936Y437648D02*
X718956Y438668D01*
X446650Y411090D02*
X463520D01*
X259676Y102274D02*
X268566D01*
X540084Y551119D02*
X541274Y549929D01*
Y543844D02*
Y549929D01*
X541020Y543590D02*
X541274Y543844D01*
X536020Y543590D02*
X536274Y543844D01*
X563160Y711474D02*
X563390Y711244D01*
X558069Y711474D02*
X563160D01*
X547370Y722173D02*
X558069Y711474D01*
X547370Y722173D02*
Y732790D01*
X563160Y706014D02*
X563390Y706245D01*
X553614Y706014D02*
X563160D01*
X551180Y703580D02*
X553614Y706014D01*
X551180Y631093D02*
Y703580D01*
X788150Y731545D02*
X798210Y721485D01*
X646920Y731545D02*
X788150D01*
X628490Y730244D02*
X629140Y730895D01*
X602391Y730244D02*
X607550D01*
X628490D01*
X629140Y730895D02*
X631680D01*
X644380D01*
X606213Y729042D02*
X608820Y726434D01*
Y721474D02*
Y726434D01*
Y721474D02*
X609050Y721244D01*
X611390D01*
X486220Y206390D02*
X487070Y205540D01*
X487660Y206130D01*
X692869Y675564D02*
X693569D01*
X662738Y705695D02*
X692869Y675564D01*
X263525Y362585D02*
X264160Y363220D01*
X238125Y363855D02*
X240030Y363220D01*
X237808Y363537D02*
X238125Y363855D01*
X851670Y84440D02*
X852170D01*
X618520Y521090D02*
X618774Y521344D01*
X624859D01*
X677675Y574160D01*
X618520Y526090D02*
Y549940D01*
X591020Y543590D02*
X591274Y543844D01*
Y549929D01*
D16*
X690260Y486410D02*
D03*
X676260D02*
D03*
X257810Y454660D02*
D03*
X271810D02*
D03*
X259700Y487680D02*
D03*
X273700D02*
D03*
X235600Y487680D02*
D03*
X221600D02*
D03*
X256540Y469900D02*
D03*
X242540D02*
D03*
X502920Y228600D02*
D03*
X488920D02*
D03*
X488847Y160020D02*
D03*
X502847D02*
D03*
X345440Y326390D02*
D03*
X331440D02*
D03*
X351820Y246380D02*
D03*
X337820D02*
D03*
X559420Y227630D02*
D03*
X573420D02*
D03*
X733663Y463520D02*
D03*
X719663D02*
D03*
X704850Y457200D02*
D03*
X690850D02*
D03*
X749466Y415260D02*
D03*
X735466D02*
D03*
X696580Y414020D02*
D03*
X710580D02*
D03*
X443820Y360680D02*
D03*
X457820D02*
D03*
X487680D02*
D03*
X473680D02*
D03*
X753110Y711324D02*
D03*
X767110D02*
D03*
X692180Y704975D02*
D03*
X678180D02*
D03*
X653400Y662940D02*
D03*
X667400D02*
D03*
X667400Y633855D02*
D03*
X653400D02*
D03*
X668020Y648398D02*
D03*
X654020D02*
D03*
X698531Y626235D02*
D03*
X684530D02*
D03*
X504840Y100330D02*
D03*
X490840D02*
D03*
X545480Y227630D02*
D03*
X531480D02*
D03*
D17*
X516890Y147940D02*
D03*
Y161940D02*
D03*
X825500Y98440D02*
D03*
Y84440D02*
D03*
X852170Y98440D02*
D03*
Y84440D02*
D03*
X467360Y206390D02*
D03*
Y192390D02*
D03*
X337820Y402590D02*
D03*
Y388590D02*
D03*
X191770Y320690D02*
D03*
Y306690D02*
D03*
X223520Y178420D02*
D03*
Y192420D02*
D03*
X664210Y387350D02*
D03*
Y373350D02*
D03*
X631680Y716895D02*
D03*
Y730895D02*
D03*
X646920Y717544D02*
D03*
Y731545D02*
D03*
X759847Y689223D02*
D03*
Y675223D02*
D03*
X532130Y157780D02*
D03*
Y143780D02*
D03*
X565150Y142860D02*
D03*
Y156860D02*
D03*
X490220Y129220D02*
D03*
Y115220D02*
D03*
X505460Y129220D02*
D03*
Y115220D02*
D03*
X546673Y143780D02*
D03*
Y157780D02*
D03*
D19*
X25400Y27940D02*
D03*
X1068070Y26670D02*
D03*
X1069340Y844550D02*
D03*
X26670Y845820D02*
D03*
D21*
X487070Y205540D02*
D03*
X496570D02*
D03*
X506070D02*
D03*
Y180540D02*
D03*
X487070D02*
D03*
D54*
X757276Y400406D02*
X852170Y495300D01*
X880110D01*
X929744Y544934D01*
Y549869D01*
X933450Y553576D02*
Y556260D01*
X929744Y549869D02*
X933450Y553576D01*
X419100Y218440D02*
X429260Y208280D01*
X419100Y218440D02*
Y312420D01*
X757276Y335408D02*
Y400406D01*
X582930Y195580D02*
X593090Y205740D01*
Y224790D01*
X756256Y334389D02*
X757276Y335408D01*
X487387Y161480D02*
X488847Y160020D01*
X487070Y164956D02*
X487387Y164639D01*
Y161480D02*
Y164639D01*
X487070Y164956D02*
Y180540D01*
X506070Y208540D02*
X515432Y217902D01*
Y222062D01*
X516890Y223520D01*
X506070Y177540D02*
Y205540D01*
X582930Y160030D02*
Y195580D01*
X506530Y177080D02*
X512530D01*
X516222Y162608D02*
Y173388D01*
X512530Y177080D02*
X516222Y173388D01*
X506070Y177540D02*
X506530Y177080D01*
X516222Y162608D02*
X516890Y161940D01*
X827460Y82480D02*
Y82980D01*
X838264Y70969D02*
X839073Y70160D01*
X839780Y67310D02*
Y70160D01*
X825500Y84440D02*
X826000D01*
X827460Y82980D01*
Y82480D02*
X838264Y71675D01*
Y70969D02*
Y71675D01*
X839073Y70160D02*
X839780D01*
X557410Y208810D02*
X558450Y207770D01*
X570740D01*
X559420Y210848D02*
Y227630D01*
X557410Y208810D02*
Y209378D01*
X558881Y210848D01*
X559420D01*
X570740Y207770D02*
X582930Y195580D01*
X583773Y160030D02*
X655310D01*
X722401Y143510D02*
X750341Y115570D01*
X655310Y160030D02*
X671830Y143510D01*
X722401D01*
X419100Y312420D02*
X433070Y326390D01*
X405130Y114300D02*
X448157Y157326D01*
X487460Y158060D02*
X488920Y159520D01*
X485218Y158060D02*
X487460D01*
X484484Y157326D02*
X485218Y158060D01*
X448157Y157326D02*
X484484D01*
X479210Y180540D02*
X487070D01*
X470590Y189160D02*
X479210Y180540D01*
X292100Y114300D02*
X405130D01*
X750341Y115570D02*
X909320D01*
X461059Y143881D02*
X489720Y115220D01*
X841781Y69311D02*
Y74552D01*
X851670Y84440D01*
D57*
X500380Y843280D02*
D03*
Y817880D02*
D03*
Y792480D02*
D03*
X798210Y719358D02*
D03*
X764540Y751840D02*
D03*
X739140D02*
D03*
X713740D02*
D03*
X688340D02*
D03*
X654050Y271780D02*
D03*
X628650D02*
D03*
X433070Y273783D02*
D03*
X458470D02*
D03*
X280670Y805180D02*
D03*
X458470D02*
D03*
X433070D02*
D03*
X407670D02*
D03*
X382270D02*
D03*
X356870D02*
D03*
X331470D02*
D03*
X306070D02*
D03*
X255270D02*
D03*
X831850Y257810D02*
D03*
X857250D02*
D03*
X882650D02*
D03*
X636270Y326390D02*
D03*
X585470D02*
D03*
X560070D02*
D03*
X534670D02*
D03*
X509270D02*
D03*
X483870D02*
D03*
X458470D02*
D03*
X433070D02*
D03*
X610870D02*
D03*
X407670Y181610D02*
D03*
X533400Y273050D02*
D03*
X558800D02*
D03*
X165666Y795020D02*
D03*
Y769620D02*
D03*
Y744220D02*
D03*
X877570Y670560D02*
D03*
X910590Y472440D02*
D03*
X859790Y558800D02*
D03*
Y533400D02*
D03*
X713740Y191770D02*
D03*
Y166370D02*
D03*
X887730Y623570D02*
D03*
X862330D02*
D03*
X933450Y556260D02*
D03*
Y530860D02*
D03*
X563880Y85090D02*
D03*
X589280D02*
D03*
X895350Y557530D02*
D03*
Y532130D02*
D03*
X278130Y843280D02*
D03*
X430530D02*
D03*
X405130D02*
D03*
X379730D02*
D03*
X354330D02*
D03*
X328930D02*
D03*
X303530D02*
D03*
X252730D02*
D03*
X455930D02*
D03*
D58*
X500380Y767080D02*
D03*
X798210Y693958D02*
D03*
X165666Y718820D02*
D03*
X877570Y695960D02*
D03*
X910590Y447040D02*
D03*
X859790Y584200D02*
D03*
X713740Y217170D02*
D03*
X933450Y581660D02*
D03*
X895350Y582930D02*
D03*
D59*
X862710Y813583D02*
D03*
X727710D02*
D03*
D60*
X789940Y751840D02*
D03*
X679450Y271780D02*
D03*
X483870Y273783D02*
D03*
X229870Y805180D02*
D03*
X908050Y257810D02*
D03*
X661670Y326390D02*
D03*
X433070Y181610D02*
D03*
X584200Y273050D02*
D03*
X913130Y623570D02*
D03*
X538480Y85090D02*
D03*
X227330Y843280D02*
D03*
D61*
X899780Y67310D02*
D03*
X879780D02*
D03*
X859780D02*
D03*
X839780D02*
D03*
X819780D02*
D03*
X799780D02*
D03*
X779780D02*
D03*
X759780D02*
D03*
Y207310D02*
D03*
X779780D02*
D03*
X799780D02*
D03*
X819780D02*
D03*
X839780D02*
D03*
X859780D02*
D03*
X879780D02*
D03*
X899780D02*
D03*
D62*
X434340Y92710D02*
D03*
D63*
X409340D02*
D03*
D64*
X708033Y68580D02*
D03*
X657233D02*
D03*
Y119380D02*
D03*
X708033D02*
D03*
X682633Y93980D02*
D03*
D65*
X406306Y464820D02*
D03*
D66*
X189230Y200660D02*
D03*
X212667Y188639D02*
D03*
X602367Y443976D02*
D03*
X641350Y707390D02*
D03*
X774700Y678180D02*
D03*
X763270Y449480D02*
D03*
X680720Y468630D02*
D03*
X668020Y502920D02*
D03*
X708917Y501724D02*
D03*
X932180Y480060D02*
D03*
X727710Y492760D02*
D03*
X300862Y689482D02*
D03*
X721360Y610870D02*
D03*
X748030Y692150D02*
D03*
X730250Y585470D02*
D03*
X703580D02*
D03*
X679450D02*
D03*
X654050D02*
D03*
X628650D02*
D03*
X317500Y681990D02*
D03*
X576580Y518160D02*
D03*
X553235Y520670D02*
D03*
X406400Y546100D02*
D03*
X440690Y520670D02*
D03*
X388620Y565150D02*
D03*
X480060Y579120D02*
D03*
X338110Y612430D02*
D03*
X464820Y596900D02*
D03*
X374714Y693484D02*
D03*
X636270Y802640D02*
D03*
X558800Y768350D02*
D03*
X274320Y438150D02*
D03*
X201930Y534670D02*
D03*
X230091Y684546D02*
D03*
X207010Y641350D02*
D03*
X295910Y532130D02*
D03*
X261620D02*
D03*
X237490Y523240D02*
D03*
X288290Y466090D02*
D03*
X302299Y477396D02*
D03*
X394970Y490220D02*
D03*
X382841Y479361D02*
D03*
X436694Y484116D02*
D03*
X289040Y273442D02*
D03*
X403860Y307340D02*
D03*
X364490Y297180D02*
D03*
X405637Y345947D02*
D03*
X394970Y331470D02*
D03*
X332740Y297180D02*
D03*
X347980Y298450D02*
D03*
X331534Y209614D02*
D03*
X359600Y206692D02*
D03*
X313690Y439420D02*
D03*
X309880Y285750D02*
D03*
X307340Y242570D02*
D03*
X303995Y270510D02*
D03*
X429260Y208280D02*
D03*
X375920Y251460D02*
D03*
X393700Y270510D02*
D03*
X439420Y499110D02*
D03*
X488931Y516987D02*
D03*
X848945Y304087D02*
D03*
X825500Y245110D02*
D03*
X601980Y574040D02*
D03*
X437156Y439420D02*
D03*
X478333Y438661D02*
D03*
X578506Y471150D02*
D03*
X567311Y457200D02*
D03*
X603661Y521771D02*
D03*
X350840Y625160D02*
D03*
X492760Y465990D02*
D03*
X480060Y488950D02*
D03*
X617220Y608330D02*
D03*
X600710Y656381D02*
D03*
X483870Y412750D02*
D03*
X643890Y375920D02*
D03*
X504790Y369058D02*
D03*
X439420Y461010D02*
D03*
X208280Y756920D02*
D03*
X593090Y224790D02*
D03*
X756256Y334389D02*
D03*
X635664Y227709D02*
D03*
X784860Y307340D02*
D03*
X751840Y610870D02*
D03*
X655320Y400240D02*
D03*
X259180Y383540D02*
D03*
X248920Y401320D02*
D03*
X387350Y430530D02*
D03*
X568960Y358140D02*
D03*
X508000Y346710D02*
D03*
X353060Y568960D02*
D03*
X355600Y645160D02*
D03*
X285750Y748030D02*
D03*
X318770Y739140D02*
D03*
X342900Y719358D02*
D03*
X516890Y223520D02*
D03*
X834390Y443230D02*
D03*
X323850Y600710D02*
D03*
X321310Y546100D02*
D03*
X373380Y375920D02*
D03*
X340360Y358140D02*
D03*
X336550Y375700D02*
D03*
X365054Y396996D02*
D03*
X336550Y680720D02*
D03*
X635600Y401155D02*
D03*
X233680Y162560D02*
D03*
X849630Y130810D02*
D03*
X687070Y525780D02*
D03*
X273050Y162560D02*
D03*
X249460Y302402D02*
D03*
X336550Y474980D02*
D03*
X590550Y411480D02*
D03*
X354330Y223520D02*
D03*
X981050Y494684D02*
D03*
X370840Y411480D02*
D03*
X660400Y762000D02*
D03*
X193040Y292100D02*
D03*
X243840Y252730D02*
D03*
X762000Y193040D02*
D03*
X899260D02*
D03*
X601868Y479948D02*
D03*
X292100Y114300D02*
D03*
X222250Y374650D02*
D03*
X590550Y495300D02*
D03*
X585132Y435948D02*
D03*
X571861Y422677D02*
D03*
X434340Y397510D02*
D03*
X431800Y378460D02*
D03*
X606490Y540481D02*
D03*
X194310Y330200D02*
D03*
X663898Y673507D02*
D03*
X660400Y688340D02*
D03*
X632854Y760050D02*
D03*
X623570Y746760D02*
D03*
X598950Y756011D02*
D03*
X573765Y752115D02*
D03*
X601173Y425654D02*
D03*
X260350Y363220D02*
D03*
X237808Y363537D02*
D03*
X236239Y314126D02*
D03*
X698500Y617220D02*
D03*
X631190Y67310D02*
D03*
X248920Y322580D02*
D03*
X254000Y638642D02*
D03*
X573762Y594216D02*
D03*
X576215Y579026D02*
D03*
X551180Y603250D02*
D03*
X909320Y115570D02*
D03*
X895350Y137160D02*
D03*
X557530Y119380D02*
D03*
X335280Y514350D02*
D03*
X325120Y581660D02*
D03*
X273050Y102216D02*
D03*
X307975Y201295D02*
D03*
X773271Y696556D02*
D03*
X241300Y431800D02*
D03*
X295910Y415290D02*
D03*
X461059Y144731D02*
D03*
X223520Y215900D02*
D03*
X756412Y650748D02*
D03*
X784352Y644817D02*
D03*
X288290Y314960D02*
D03*
X547370Y732790D02*
D03*
X662738Y705695D02*
D03*
X260350Y118110D02*
D03*
D67*
X572391Y730244D02*
D03*
X577390D02*
D03*
X582391D02*
D03*
X587390D02*
D03*
X592391D02*
D03*
X597390D02*
D03*
X602391D02*
D03*
Y682244D02*
D03*
X597390D02*
D03*
X592391D02*
D03*
X587390D02*
D03*
X582391D02*
D03*
X577390D02*
D03*
X572391D02*
D03*
D68*
X611390Y721244D02*
D03*
Y716244D02*
D03*
Y711244D02*
D03*
Y706245D02*
D03*
Y701244D02*
D03*
Y696245D02*
D03*
Y691244D02*
D03*
X563390D02*
D03*
Y696245D02*
D03*
Y701244D02*
D03*
Y706245D02*
D03*
Y711244D02*
D03*
Y716244D02*
D03*
Y721244D02*
D03*
D69*
X587390Y706245D02*
D03*
D70*
X583773Y142230D02*
D03*
Y160030D02*
D03*
D71*
X421630Y538480D02*
D03*
X439430D02*
D03*
D72*
X731415Y675564D02*
D03*
Y670565D02*
D03*
Y665564D02*
D03*
Y660565D02*
D03*
Y655564D02*
D03*
Y650565D02*
D03*
X693569D02*
D03*
Y655564D02*
D03*
Y660565D02*
D03*
Y665564D02*
D03*
Y670565D02*
D03*
Y675564D02*
D03*
D73*
X724992Y644141D02*
D03*
X719992D02*
D03*
X714992D02*
D03*
X709992D02*
D03*
X704992D02*
D03*
X699992D02*
D03*
Y681988D02*
D03*
X704992D02*
D03*
X709992D02*
D03*
X714992D02*
D03*
X719992D02*
D03*
X724992D02*
D03*
D74*
X712492Y663064D02*
D03*
D75*
X557410Y179810D02*
D03*
X552410D02*
D03*
X547410D02*
D03*
X542410D02*
D03*
Y208810D02*
D03*
X547410D02*
D03*
X552410D02*
D03*
X557410D02*
D03*
D76*
X549910Y194310D02*
D03*
D77*
X725700Y717674D02*
D03*
X710700D02*
D03*
D78*
X596020Y543590D02*
D03*
X591020D02*
D03*
X586020D02*
D03*
X581020D02*
D03*
X576020D02*
D03*
X571020D02*
D03*
X566020D02*
D03*
X561020D02*
D03*
X556020D02*
D03*
X551020D02*
D03*
X546020D02*
D03*
X541020D02*
D03*
X536020D02*
D03*
X531020D02*
D03*
X526020D02*
D03*
X521020D02*
D03*
X516020D02*
D03*
X511020D02*
D03*
X506020D02*
D03*
X501020D02*
D03*
X496020D02*
D03*
X491020D02*
D03*
X486020D02*
D03*
X481020D02*
D03*
X486020Y388590D02*
D03*
X491020D02*
D03*
X496020D02*
D03*
X501020D02*
D03*
X506020D02*
D03*
X511020D02*
D03*
X516020D02*
D03*
X521020D02*
D03*
X526020D02*
D03*
X531020D02*
D03*
X536020D02*
D03*
X541020D02*
D03*
X546020D02*
D03*
X551020D02*
D03*
X556020D02*
D03*
X561020D02*
D03*
X566020D02*
D03*
X571020D02*
D03*
X576020D02*
D03*
X581020D02*
D03*
X586020D02*
D03*
X596020D02*
D03*
X601020D02*
D03*
X481020D02*
D03*
X591020D02*
D03*
X601020Y543590D02*
D03*
D79*
X463520Y521090D02*
D03*
Y511090D02*
D03*
Y506090D02*
D03*
Y501090D02*
D03*
Y496090D02*
D03*
Y491090D02*
D03*
Y486090D02*
D03*
Y481090D02*
D03*
Y476090D02*
D03*
Y471090D02*
D03*
Y466090D02*
D03*
Y461090D02*
D03*
Y456090D02*
D03*
Y451090D02*
D03*
Y446090D02*
D03*
Y441090D02*
D03*
Y436090D02*
D03*
Y431090D02*
D03*
Y426090D02*
D03*
Y421090D02*
D03*
Y416090D02*
D03*
Y411090D02*
D03*
Y406090D02*
D03*
X618520D02*
D03*
Y411090D02*
D03*
Y416090D02*
D03*
Y431090D02*
D03*
Y436090D02*
D03*
Y441090D02*
D03*
Y446090D02*
D03*
Y451090D02*
D03*
Y456090D02*
D03*
Y461090D02*
D03*
Y466090D02*
D03*
Y471090D02*
D03*
Y481090D02*
D03*
Y486090D02*
D03*
Y491090D02*
D03*
Y496090D02*
D03*
Y501090D02*
D03*
Y506090D02*
D03*
Y511090D02*
D03*
Y516090D02*
D03*
Y521090D02*
D03*
Y526090D02*
D03*
X463520Y516090D02*
D03*
Y526090D02*
D03*
X618520Y421090D02*
D03*
Y426090D02*
D03*
Y476090D02*
D03*
D80*
X717936Y436407D02*
D03*
X692935D02*
D03*
D81*
X690868Y386727D02*
D03*
X731868D02*
D03*
D82*
X487660Y206130D02*
Y227340D01*
X542410Y208810D02*
X547410D01*
Y225700D01*
X467360Y206390D02*
X486220D01*
D83*
X490840Y100330D02*
X491665Y99505D01*
Y95075D02*
Y99505D01*
Y95075D02*
X501650Y85090D01*
X538480D01*
X490220Y115220D02*
X505460D01*
X504840Y100330D02*
Y114600D01*
X563880Y85090D02*
X582930Y104140D01*
Y142230D01*
X434340Y92710D02*
X483220D01*
X487610Y97100D01*
M02*
