G04*
G04 #@! TF.GenerationSoftware,Altium Limited,Altium Designer,22.8.2 (66)*
G04*
G04 Layer_Physical_Order=3*
G04 Layer_Color=36540*
%FSLAX44Y44*%
%MOMM*%
G71*
G04*
G04 #@! TF.SameCoordinates,9714C633-81E7-4BB1-B996-9AD4BBD72758*
G04*
G04*
G04 #@! TF.FilePolarity,Positive*
G04*
G01*
G75*
%ADD14C,0.2540*%
%ADD19C,1.5240*%
%ADD54C,0.5080*%
%ADD57C,1.5000*%
%ADD58R,1.5000X1.5000*%
%ADD59C,1.3810*%
%ADD60R,1.5000X1.5000*%
%ADD61C,1.3000*%
%ADD63C,1.5750*%
%ADD64C,2.4000*%
%ADD66C,1.2700*%
G36*
X26574Y869872D02*
X26574Y869872D01*
X27816Y869900D01*
X27850Y869900D01*
X1076418D01*
X1079747Y868890D01*
X1083630Y866815D01*
X1087033Y864022D01*
X1089826Y860619D01*
X1091901Y856736D01*
X1093179Y852523D01*
X1093611Y848141D01*
X1093363Y845619D01*
X1093363Y845619D01*
X1093363Y845619D01*
X1093420Y844415D01*
X1092060Y28156D01*
X1092059Y28149D01*
X1092073Y28081D01*
X1091630Y23587D01*
X1090236Y18993D01*
X1087973Y14759D01*
X1084927Y11047D01*
X1081216Y8001D01*
X1076982Y5738D01*
X1072387Y4344D01*
X1067950Y3907D01*
X1067906Y3916D01*
X26505Y3860D01*
X26502Y3917D01*
X25919Y3860D01*
X24044Y3860D01*
X20287Y4230D01*
X15773Y5599D01*
X11613Y7822D01*
X7967Y10815D01*
X4975Y14461D01*
X2752Y18621D01*
X1382Y23134D01*
X1032Y26689D01*
X957Y27926D01*
X959Y27936D01*
X903Y28215D01*
X818Y29148D01*
Y845508D01*
X1253Y849922D01*
X2670Y854593D01*
X4971Y858897D01*
X8067Y862669D01*
X11839Y865765D01*
X16143Y868066D01*
X20813Y869482D01*
X25308Y869925D01*
X26574Y869872D01*
D02*
G37*
%LPC*%
G36*
X501702Y853320D02*
X499058D01*
X496505Y852636D01*
X494215Y851314D01*
X492346Y849445D01*
X491024Y847155D01*
X490340Y844602D01*
Y841958D01*
X491024Y839405D01*
X492346Y837115D01*
X494215Y835246D01*
X496505Y833924D01*
X499058Y833240D01*
X501702D01*
X504255Y833924D01*
X506545Y835246D01*
X508414Y837115D01*
X509736Y839405D01*
X510420Y841958D01*
Y844602D01*
X509736Y847155D01*
X508414Y849445D01*
X506545Y851314D01*
X504255Y852636D01*
X501702Y853320D01*
D02*
G37*
G36*
X457252D02*
X454608D01*
X452055Y852636D01*
X449765Y851314D01*
X447896Y849445D01*
X446574Y847155D01*
X445890Y844602D01*
Y841958D01*
X446574Y839405D01*
X447896Y837115D01*
X449765Y835246D01*
X452055Y833924D01*
X454608Y833240D01*
X457252D01*
X459805Y833924D01*
X462095Y835246D01*
X463964Y837115D01*
X465286Y839405D01*
X465970Y841958D01*
Y844602D01*
X465286Y847155D01*
X463964Y849445D01*
X462095Y851314D01*
X459805Y852636D01*
X457252Y853320D01*
D02*
G37*
G36*
X406452D02*
X403808D01*
X401255Y852636D01*
X398965Y851314D01*
X397096Y849445D01*
X395774Y847155D01*
X395090Y844602D01*
Y841958D01*
X395774Y839405D01*
X397096Y837115D01*
X398965Y835246D01*
X401255Y833924D01*
X403808Y833240D01*
X406452D01*
X409005Y833924D01*
X411295Y835246D01*
X413164Y837115D01*
X414486Y839405D01*
X415170Y841958D01*
Y844602D01*
X414486Y847155D01*
X413164Y849445D01*
X411295Y851314D01*
X409005Y852636D01*
X406452Y853320D01*
D02*
G37*
G36*
X355652D02*
X353008D01*
X350455Y852636D01*
X348165Y851314D01*
X346296Y849445D01*
X344974Y847155D01*
X344290Y844602D01*
Y841958D01*
X344974Y839405D01*
X346296Y837115D01*
X348165Y835246D01*
X350455Y833924D01*
X353008Y833240D01*
X355652D01*
X358205Y833924D01*
X360495Y835246D01*
X362364Y837115D01*
X363686Y839405D01*
X364370Y841958D01*
Y844602D01*
X363686Y847155D01*
X362364Y849445D01*
X360495Y851314D01*
X358205Y852636D01*
X355652Y853320D01*
D02*
G37*
G36*
X304852D02*
X302208D01*
X299655Y852636D01*
X297365Y851314D01*
X295496Y849445D01*
X294174Y847155D01*
X293490Y844602D01*
Y841958D01*
X294174Y839405D01*
X295496Y837115D01*
X297365Y835246D01*
X299655Y833924D01*
X302208Y833240D01*
X304852D01*
X307405Y833924D01*
X309695Y835246D01*
X311564Y837115D01*
X312886Y839405D01*
X313570Y841958D01*
Y844602D01*
X312886Y847155D01*
X311564Y849445D01*
X309695Y851314D01*
X307405Y852636D01*
X304852Y853320D01*
D02*
G37*
G36*
X254052D02*
X251408D01*
X248855Y852636D01*
X246565Y851314D01*
X244696Y849445D01*
X243374Y847155D01*
X242690Y844602D01*
Y841958D01*
X243374Y839405D01*
X244696Y837115D01*
X246565Y835246D01*
X248855Y833924D01*
X251408Y833240D01*
X254052D01*
X256605Y833924D01*
X258895Y835246D01*
X260764Y837115D01*
X262086Y839405D01*
X262770Y841958D01*
Y844602D01*
X262086Y847155D01*
X260764Y849445D01*
X258895Y851314D01*
X256605Y852636D01*
X254052Y853320D01*
D02*
G37*
G36*
X501702Y827920D02*
X499058D01*
X496505Y827236D01*
X494215Y825914D01*
X492346Y824045D01*
X491024Y821755D01*
X490340Y819202D01*
Y816558D01*
X491024Y814005D01*
X492346Y811715D01*
X494215Y809846D01*
X496505Y808524D01*
X499058Y807840D01*
X501702D01*
X504255Y808524D01*
X506545Y809846D01*
X508414Y811715D01*
X509736Y814005D01*
X510420Y816558D01*
Y819202D01*
X509736Y821755D01*
X508414Y824045D01*
X506545Y825914D01*
X504255Y827236D01*
X501702Y827920D01*
D02*
G37*
G36*
X863953Y823028D02*
X861467D01*
X859064Y822384D01*
X856911Y821141D01*
X855152Y819382D01*
X853909Y817228D01*
X853265Y814826D01*
Y812339D01*
X853909Y809937D01*
X855152Y807783D01*
X856911Y806025D01*
X859064Y804781D01*
X861467Y804138D01*
X863953D01*
X866356Y804781D01*
X868509Y806025D01*
X870268Y807783D01*
X871511Y809937D01*
X872155Y812339D01*
Y814826D01*
X871511Y817228D01*
X870268Y819382D01*
X868509Y821141D01*
X866356Y822384D01*
X863953Y823028D01*
D02*
G37*
G36*
X728953D02*
X726467D01*
X724064Y822384D01*
X721911Y821141D01*
X720152Y819382D01*
X718909Y817228D01*
X718265Y814826D01*
Y812339D01*
X718909Y809937D01*
X720152Y807783D01*
X721911Y806025D01*
X724064Y804781D01*
X726467Y804138D01*
X728953D01*
X731356Y804781D01*
X733509Y806025D01*
X735268Y807783D01*
X736511Y809937D01*
X737155Y812339D01*
Y814826D01*
X736511Y817228D01*
X735268Y819382D01*
X733509Y821141D01*
X731356Y822384D01*
X728953Y823028D01*
D02*
G37*
G36*
X459792Y815220D02*
X457148D01*
X454595Y814536D01*
X452305Y813214D01*
X450436Y811345D01*
X449114Y809055D01*
X448430Y806502D01*
Y803858D01*
X449114Y801305D01*
X450436Y799015D01*
X452305Y797146D01*
X454595Y795824D01*
X457148Y795140D01*
X459792D01*
X462345Y795824D01*
X464635Y797146D01*
X466504Y799015D01*
X467826Y801305D01*
X468510Y803858D01*
Y806502D01*
X467826Y809055D01*
X466504Y811345D01*
X464635Y813214D01*
X462345Y814536D01*
X459792Y815220D01*
D02*
G37*
G36*
X434392D02*
X431748D01*
X429195Y814536D01*
X426905Y813214D01*
X425036Y811345D01*
X423714Y809055D01*
X423030Y806502D01*
Y803858D01*
X423714Y801305D01*
X425036Y799015D01*
X426905Y797146D01*
X429195Y795824D01*
X431748Y795140D01*
X434392D01*
X436945Y795824D01*
X439235Y797146D01*
X441104Y799015D01*
X442426Y801305D01*
X443110Y803858D01*
Y806502D01*
X442426Y809055D01*
X441104Y811345D01*
X439235Y813214D01*
X436945Y814536D01*
X434392Y815220D01*
D02*
G37*
G36*
X408992D02*
X406348D01*
X403795Y814536D01*
X401505Y813214D01*
X399636Y811345D01*
X398314Y809055D01*
X397630Y806502D01*
Y803858D01*
X398314Y801305D01*
X399636Y799015D01*
X401505Y797146D01*
X403795Y795824D01*
X406348Y795140D01*
X408992D01*
X411545Y795824D01*
X413835Y797146D01*
X415704Y799015D01*
X417026Y801305D01*
X417710Y803858D01*
Y806502D01*
X417026Y809055D01*
X415704Y811345D01*
X413835Y813214D01*
X411545Y814536D01*
X408992Y815220D01*
D02*
G37*
G36*
X383592D02*
X380948D01*
X378395Y814536D01*
X376105Y813214D01*
X374236Y811345D01*
X372914Y809055D01*
X372230Y806502D01*
Y803858D01*
X372914Y801305D01*
X374236Y799015D01*
X376105Y797146D01*
X378395Y795824D01*
X380948Y795140D01*
X383592D01*
X386145Y795824D01*
X388435Y797146D01*
X390304Y799015D01*
X391626Y801305D01*
X392310Y803858D01*
Y806502D01*
X391626Y809055D01*
X390304Y811345D01*
X388435Y813214D01*
X386145Y814536D01*
X383592Y815220D01*
D02*
G37*
G36*
X358192D02*
X355548D01*
X352995Y814536D01*
X350705Y813214D01*
X348836Y811345D01*
X347514Y809055D01*
X346830Y806502D01*
Y803858D01*
X347514Y801305D01*
X348836Y799015D01*
X350705Y797146D01*
X352995Y795824D01*
X355548Y795140D01*
X358192D01*
X360745Y795824D01*
X363035Y797146D01*
X364904Y799015D01*
X366226Y801305D01*
X366910Y803858D01*
Y806502D01*
X366226Y809055D01*
X364904Y811345D01*
X363035Y813214D01*
X360745Y814536D01*
X358192Y815220D01*
D02*
G37*
G36*
X307392D02*
X304748D01*
X302195Y814536D01*
X299905Y813214D01*
X298036Y811345D01*
X296714Y809055D01*
X296030Y806502D01*
Y803858D01*
X296714Y801305D01*
X298036Y799015D01*
X299905Y797146D01*
X302195Y795824D01*
X304748Y795140D01*
X307392D01*
X309945Y795824D01*
X312235Y797146D01*
X314104Y799015D01*
X315426Y801305D01*
X316110Y803858D01*
Y806502D01*
X315426Y809055D01*
X314104Y811345D01*
X312235Y813214D01*
X309945Y814536D01*
X307392Y815220D01*
D02*
G37*
G36*
X281992D02*
X279348D01*
X276795Y814536D01*
X274505Y813214D01*
X272636Y811345D01*
X271314Y809055D01*
X270630Y806502D01*
Y803858D01*
X271314Y801305D01*
X272636Y799015D01*
X274505Y797146D01*
X276795Y795824D01*
X279348Y795140D01*
X281992D01*
X284545Y795824D01*
X286835Y797146D01*
X288704Y799015D01*
X290026Y801305D01*
X290710Y803858D01*
Y806502D01*
X290026Y809055D01*
X288704Y811345D01*
X286835Y813214D01*
X284545Y814536D01*
X281992Y815220D01*
D02*
G37*
G36*
X256592D02*
X253948D01*
X251395Y814536D01*
X249105Y813214D01*
X247236Y811345D01*
X245914Y809055D01*
X245230Y806502D01*
Y803858D01*
X245914Y801305D01*
X247236Y799015D01*
X249105Y797146D01*
X251395Y795824D01*
X253948Y795140D01*
X256592D01*
X259145Y795824D01*
X261435Y797146D01*
X263304Y799015D01*
X264626Y801305D01*
X265310Y803858D01*
Y806502D01*
X264626Y809055D01*
X263304Y811345D01*
X261435Y813214D01*
X259145Y814536D01*
X256592Y815220D01*
D02*
G37*
G36*
X239910D02*
X219830D01*
Y795140D01*
X239910D01*
Y815220D01*
D02*
G37*
G36*
X637440Y811530D02*
X635100D01*
X632839Y810924D01*
X630811Y809754D01*
X629156Y808099D01*
X627986Y806071D01*
X627380Y803810D01*
Y801470D01*
X627986Y799209D01*
X629156Y797181D01*
X630811Y795526D01*
X632839Y794356D01*
X635100Y793750D01*
X637440D01*
X639701Y794356D01*
X641729Y795526D01*
X643384Y797181D01*
X644554Y799209D01*
X645160Y801470D01*
Y803810D01*
X644554Y806071D01*
X643384Y808099D01*
X641729Y809754D01*
X639701Y810924D01*
X637440Y811530D01*
D02*
G37*
G36*
X166988Y805060D02*
X164345D01*
X161791Y804376D01*
X159502Y803054D01*
X157632Y801185D01*
X156311Y798895D01*
X155626Y796342D01*
Y793698D01*
X156311Y791145D01*
X157632Y788855D01*
X159502Y786986D01*
X161791Y785664D01*
X164345Y784980D01*
X166988D01*
X169542Y785664D01*
X171831Y786986D01*
X173700Y788855D01*
X175022Y791145D01*
X175706Y793698D01*
Y796342D01*
X175022Y798895D01*
X173700Y801185D01*
X171831Y803054D01*
X169542Y804376D01*
X166988Y805060D01*
D02*
G37*
G36*
X501702Y802520D02*
X499058D01*
X496505Y801836D01*
X494215Y800514D01*
X492346Y798645D01*
X491024Y796355D01*
X490340Y793802D01*
Y791158D01*
X491024Y788605D01*
X492346Y786315D01*
X494215Y784446D01*
X496505Y783124D01*
X499058Y782440D01*
X501702D01*
X504255Y783124D01*
X506545Y784446D01*
X508414Y786315D01*
X509736Y788605D01*
X510420Y791158D01*
Y793802D01*
X509736Y796355D01*
X508414Y798645D01*
X506545Y800514D01*
X504255Y801836D01*
X501702Y802520D01*
D02*
G37*
G36*
X559970Y777240D02*
X557630D01*
X555369Y776634D01*
X553341Y775464D01*
X551686Y773809D01*
X550516Y771781D01*
X549910Y769520D01*
Y767180D01*
X550516Y764919D01*
X551686Y762891D01*
X553341Y761236D01*
X555369Y760066D01*
X557630Y759460D01*
X559970D01*
X562231Y760066D01*
X564259Y761236D01*
X565914Y762891D01*
X567084Y764919D01*
X567690Y767180D01*
Y769520D01*
X567084Y771781D01*
X565914Y773809D01*
X564259Y775464D01*
X562231Y776634D01*
X559970Y777240D01*
D02*
G37*
G36*
X510420Y777120D02*
X490340D01*
Y757040D01*
X510420D01*
Y777120D01*
D02*
G37*
G36*
X661570Y770890D02*
X659230D01*
X656969Y770284D01*
X654941Y769114D01*
X653286Y767459D01*
X652116Y765431D01*
X651510Y763170D01*
Y760830D01*
X652116Y758569D01*
X653286Y756541D01*
X654941Y754886D01*
X656969Y753716D01*
X659230Y753110D01*
X661570D01*
X663831Y753716D01*
X665859Y754886D01*
X667514Y756541D01*
X668684Y758569D01*
X669290Y760830D01*
Y763170D01*
X668684Y765431D01*
X667514Y767459D01*
X665859Y769114D01*
X663831Y770284D01*
X661570Y770890D01*
D02*
G37*
G36*
X600121Y764901D02*
X597780D01*
X595519Y764295D01*
X593492Y763124D01*
X591837Y761469D01*
X590666Y759442D01*
X590060Y757181D01*
Y754840D01*
X590666Y752579D01*
X591837Y750552D01*
X593492Y748897D01*
X595519Y747727D01*
X597780Y747121D01*
X600121D01*
X602382Y747727D01*
X604409Y748897D01*
X606064Y750552D01*
X607234Y752579D01*
X607840Y754840D01*
Y757181D01*
X607234Y759442D01*
X606064Y761469D01*
X604409Y763124D01*
X602382Y764295D01*
X600121Y764901D01*
D02*
G37*
G36*
X574935Y761005D02*
X572594D01*
X570333Y760399D01*
X568306Y759229D01*
X566651Y757574D01*
X565480Y755547D01*
X564875Y753286D01*
Y750945D01*
X565480Y748684D01*
X566651Y746657D01*
X568306Y745002D01*
X570333Y743831D01*
X572594Y743225D01*
X574935D01*
X577196Y743831D01*
X579223Y745002D01*
X580878Y746657D01*
X582049Y748684D01*
X582655Y750945D01*
Y753286D01*
X582049Y755547D01*
X580878Y757574D01*
X579223Y759229D01*
X577196Y760399D01*
X574935Y761005D01*
D02*
G37*
G36*
X799980Y761880D02*
X779900D01*
Y741800D01*
X799980D01*
Y761880D01*
D02*
G37*
G36*
X765862D02*
X763218D01*
X760665Y761196D01*
X758375Y759874D01*
X756506Y758005D01*
X755184Y755715D01*
X754500Y753162D01*
Y750518D01*
X755184Y747965D01*
X756506Y745675D01*
X758375Y743806D01*
X760665Y742484D01*
X763218Y741800D01*
X765862D01*
X768415Y742484D01*
X770705Y743806D01*
X772574Y745675D01*
X773896Y747965D01*
X774580Y750518D01*
Y753162D01*
X773896Y755715D01*
X772574Y758005D01*
X770705Y759874D01*
X768415Y761196D01*
X765862Y761880D01*
D02*
G37*
G36*
X689662D02*
X687018D01*
X684465Y761196D01*
X682175Y759874D01*
X680306Y758005D01*
X678984Y755715D01*
X678300Y753162D01*
Y750518D01*
X678984Y747965D01*
X679650Y746812D01*
X670957Y738120D01*
X670396Y737279D01*
X670199Y736288D01*
Y712604D01*
X668929Y712077D01*
X668197Y712809D01*
X666170Y713979D01*
X663909Y714585D01*
X661568D01*
X659307Y713979D01*
X657280Y712809D01*
X655624Y711154D01*
X654454Y709127D01*
X653848Y706866D01*
Y704525D01*
X654454Y702264D01*
X655624Y700237D01*
X657280Y698581D01*
X657941Y698200D01*
X657762Y696837D01*
X656969Y696624D01*
X654941Y695454D01*
X653286Y693799D01*
X652116Y691771D01*
X651510Y689510D01*
Y687170D01*
X652116Y684909D01*
X652551Y684154D01*
X581857Y613460D01*
X558800D01*
X557809Y613263D01*
X556969Y612701D01*
X555366Y611099D01*
X554611Y611534D01*
X552350Y612140D01*
X550010D01*
X547749Y611534D01*
X545721Y610364D01*
X544066Y608709D01*
X542896Y606681D01*
X542290Y604420D01*
Y602080D01*
X542896Y599819D01*
X544066Y597791D01*
X545721Y596136D01*
X547749Y594966D01*
X550010Y594360D01*
X552350D01*
X554611Y594966D01*
X556639Y596136D01*
X558294Y597791D01*
X559464Y599819D01*
X560070Y602080D01*
Y604420D01*
X559464Y606681D01*
X559029Y607436D01*
X559873Y608280D01*
X582930D01*
X583921Y608477D01*
X584761Y609039D01*
X655304Y679582D01*
X655650Y679489D01*
X656237Y678017D01*
X655614Y676938D01*
X655008Y674677D01*
Y672337D01*
X655614Y670076D01*
X656784Y668048D01*
X658440Y666393D01*
X660467Y665223D01*
X662728Y664617D01*
X665069D01*
X667330Y665223D01*
X668929Y666146D01*
X670199Y665563D01*
Y630681D01*
X632836Y593318D01*
X632081Y593754D01*
X629820Y594360D01*
X627480D01*
X625219Y593754D01*
X623191Y592584D01*
X621536Y590929D01*
X620366Y588901D01*
X619760Y586640D01*
Y584300D01*
X620366Y582039D01*
X621536Y580011D01*
X623191Y578356D01*
X625219Y577186D01*
X627480Y576580D01*
X629820D01*
X632081Y577186D01*
X634109Y578356D01*
X635764Y580011D01*
X636934Y582039D01*
X637540Y584300D01*
Y586640D01*
X636934Y588901D01*
X636498Y589656D01*
X674620Y627777D01*
X675181Y628617D01*
X675378Y629608D01*
Y735216D01*
X683312Y743150D01*
X684465Y742484D01*
X687018Y741800D01*
X689662D01*
X692215Y742484D01*
X694505Y743806D01*
X696374Y745675D01*
X697696Y747965D01*
X698380Y750518D01*
Y753162D01*
X697696Y755715D01*
X696374Y758005D01*
X694505Y759874D01*
X692215Y761196D01*
X689662Y761880D01*
D02*
G37*
G36*
X286920Y756920D02*
X284580D01*
X282319Y756314D01*
X280291Y755144D01*
X278636Y753489D01*
X277466Y751461D01*
X276860Y749200D01*
Y746860D01*
X277466Y744599D01*
X278636Y742571D01*
X280291Y740916D01*
X282319Y739746D01*
X284580Y739140D01*
X286920D01*
X289181Y739746D01*
X291209Y740916D01*
X292864Y742571D01*
X294034Y744599D01*
X294640Y746860D01*
Y749200D01*
X294034Y751461D01*
X292864Y753489D01*
X291209Y755144D01*
X289181Y756314D01*
X286920Y756920D01*
D02*
G37*
G36*
X634025Y768940D02*
X631684D01*
X629423Y768335D01*
X627396Y767164D01*
X625740Y765509D01*
X624570Y763482D01*
X623964Y761221D01*
Y758880D01*
X624489Y756920D01*
X624045Y756058D01*
X623663Y755650D01*
X622400D01*
X620139Y755044D01*
X618111Y753874D01*
X616456Y752219D01*
X615286Y750191D01*
X614680Y747930D01*
Y745590D01*
X615286Y743329D01*
X616456Y741301D01*
X618111Y739646D01*
X620139Y738476D01*
X622400Y737870D01*
X624740D01*
X627001Y738476D01*
X629029Y739646D01*
X630684Y741301D01*
X631854Y743329D01*
X632460Y745590D01*
Y747930D01*
X631935Y749890D01*
X632379Y750752D01*
X632761Y751160D01*
X634025D01*
X636286Y751766D01*
X638313Y752936D01*
X639968Y754592D01*
X641138Y756619D01*
X641744Y758880D01*
Y761221D01*
X641138Y763482D01*
X639968Y765509D01*
X638313Y767164D01*
X636286Y768335D01*
X634025Y768940D01*
D02*
G37*
G36*
X319940Y748030D02*
X317600D01*
X315339Y747424D01*
X313311Y746254D01*
X311656Y744599D01*
X310486Y742571D01*
X309880Y740310D01*
Y737970D01*
X310486Y735709D01*
X311656Y733681D01*
X313311Y732026D01*
X315339Y730856D01*
X317600Y730250D01*
X319940D01*
X322201Y730856D01*
X324229Y732026D01*
X325884Y733681D01*
X327054Y735709D01*
X327660Y737970D01*
Y740310D01*
X327054Y742571D01*
X325884Y744599D01*
X324229Y746254D01*
X322201Y747424D01*
X319940Y748030D01*
D02*
G37*
G36*
X548540Y741680D02*
X546200D01*
X543939Y741074D01*
X541911Y739904D01*
X540256Y738249D01*
X539086Y736221D01*
X538480Y733960D01*
Y731620D01*
X539086Y729359D01*
X540256Y727331D01*
X541911Y725676D01*
X543939Y724506D01*
X546200Y723900D01*
X548540D01*
X550801Y724506D01*
X552829Y725676D01*
X554484Y727331D01*
X555654Y729359D01*
X556260Y731620D01*
Y733960D01*
X555654Y736221D01*
X554484Y738249D01*
X552829Y739904D01*
X550801Y741074D01*
X548540Y741680D01*
D02*
G37*
G36*
X344070Y728248D02*
X341730D01*
X339469Y727642D01*
X337441Y726472D01*
X335786Y724817D01*
X334616Y722790D01*
X334010Y720529D01*
Y718188D01*
X334616Y715927D01*
X335786Y713900D01*
X337441Y712244D01*
X339469Y711074D01*
X341730Y710468D01*
X344070D01*
X346331Y711074D01*
X348359Y712244D01*
X350014Y713900D01*
X351184Y715927D01*
X351790Y718188D01*
Y720529D01*
X351184Y722790D01*
X350014Y724817D01*
X348359Y726472D01*
X346331Y727642D01*
X344070Y728248D01*
D02*
G37*
G36*
X799532Y729397D02*
X796888D01*
X794335Y728713D01*
X792046Y727392D01*
X790176Y725522D01*
X788855Y723233D01*
X788170Y720679D01*
Y718036D01*
X788855Y715482D01*
X790176Y713193D01*
X792046Y711323D01*
X794335Y710002D01*
X796888Y709317D01*
X799532D01*
X802085Y710002D01*
X804375Y711323D01*
X806244Y713193D01*
X807566Y715482D01*
X808250Y718036D01*
Y720679D01*
X807566Y723233D01*
X806244Y725522D01*
X804375Y727392D01*
X802085Y728713D01*
X799532Y729397D01*
D02*
G37*
G36*
X175706Y728860D02*
X155626D01*
Y708780D01*
X175706D01*
Y728860D01*
D02*
G37*
G36*
X642520Y716280D02*
X640180D01*
X637919Y715674D01*
X635891Y714504D01*
X634236Y712849D01*
X633066Y710821D01*
X632460Y708560D01*
Y706220D01*
X633066Y703959D01*
X634236Y701931D01*
X635891Y700276D01*
X637919Y699106D01*
X640180Y698500D01*
X642520D01*
X644781Y699106D01*
X646809Y700276D01*
X648464Y701931D01*
X649634Y703959D01*
X650240Y706220D01*
Y708560D01*
X649634Y710821D01*
X648464Y712849D01*
X646809Y714504D01*
X644781Y715674D01*
X642520Y716280D01*
D02*
G37*
G36*
X302033Y698372D02*
X299692D01*
X297431Y697766D01*
X295404Y696596D01*
X293749Y694941D01*
X292578Y692914D01*
X292047Y690930D01*
X265831D01*
X264840Y690733D01*
X263999Y690171D01*
X260964Y687135D01*
X238601D01*
X238375Y687977D01*
X237205Y690004D01*
X235550Y691659D01*
X233522Y692830D01*
X231261Y693436D01*
X228920D01*
X226660Y692830D01*
X224632Y691659D01*
X222977Y690004D01*
X221807Y687977D01*
X221201Y685716D01*
Y683375D01*
X221807Y681114D01*
X222977Y679087D01*
X224632Y677432D01*
X226660Y676262D01*
X228920Y675656D01*
X231261D01*
X233522Y676262D01*
X235550Y677432D01*
X237205Y679087D01*
X238375Y681114D01*
X238601Y681956D01*
X262036D01*
X263027Y682153D01*
X263867Y682714D01*
X266903Y685750D01*
X292752D01*
X293749Y684024D01*
X295404Y682369D01*
X297431Y681198D01*
X299692Y680592D01*
X302033D01*
X304294Y681198D01*
X306321Y682369D01*
X307390Y683438D01*
X307847Y683334D01*
X308610Y682862D01*
Y680820D01*
X309216Y678559D01*
X310386Y676531D01*
X312041Y674876D01*
X314069Y673706D01*
X316330Y673100D01*
X318670D01*
X320931Y673706D01*
X322959Y674876D01*
X324614Y676531D01*
X325784Y678559D01*
X326390Y680820D01*
Y683160D01*
X325784Y685421D01*
X324614Y687449D01*
X322959Y689104D01*
X320931Y690274D01*
X318670Y690880D01*
X316330D01*
X314069Y690274D01*
X312041Y689104D01*
X310972Y688035D01*
X310515Y688139D01*
X309752Y688611D01*
Y690653D01*
X309146Y692914D01*
X307976Y694941D01*
X306321Y696596D01*
X304294Y697766D01*
X302033Y698372D01*
D02*
G37*
G36*
X887610Y706000D02*
X867530D01*
Y685920D01*
X887610D01*
Y706000D01*
D02*
G37*
G36*
X166988Y779660D02*
X164345D01*
X161791Y778976D01*
X159502Y777654D01*
X157632Y775785D01*
X156311Y773495D01*
X155626Y770942D01*
Y768298D01*
X156311Y765745D01*
X157632Y763455D01*
X159502Y761586D01*
X161791Y760264D01*
X164345Y759580D01*
X166988D01*
X169542Y760264D01*
X171831Y761586D01*
X173700Y763455D01*
X175022Y765745D01*
X175367Y767030D01*
X206757D01*
X206924Y765760D01*
X204849Y765204D01*
X202821Y764034D01*
X201166Y762379D01*
X199996Y760351D01*
X199390Y758090D01*
Y755750D01*
X199996Y753489D01*
X201166Y751461D01*
X202821Y749806D01*
X204849Y748636D01*
X207110Y748030D01*
X209450D01*
X211711Y748636D01*
X213739Y749806D01*
X215394Y751461D01*
X216564Y753489D01*
X217170Y755750D01*
Y758090D01*
X216564Y760351D01*
X215394Y762379D01*
X213739Y764034D01*
X211711Y765204D01*
X209636Y765760D01*
X209803Y767030D01*
X350717D01*
X374600Y743147D01*
Y705987D01*
X374089Y705475D01*
X373527Y704635D01*
X373330Y703644D01*
Y702317D01*
X371282Y701768D01*
X369255Y700598D01*
X367600Y698942D01*
X366430Y696915D01*
X365824Y694654D01*
Y692313D01*
X366430Y690052D01*
X367600Y688025D01*
X369255Y686370D01*
X371282Y685200D01*
X373543Y684594D01*
X375884D01*
X378145Y685200D01*
X380172Y686370D01*
X381828Y688025D01*
X382998Y690052D01*
X383604Y692313D01*
Y694654D01*
X382998Y696915D01*
X381828Y698942D01*
X380172Y700598D01*
X378768Y701408D01*
X378660Y702721D01*
X379021Y703083D01*
X379583Y703923D01*
X379780Y704914D01*
Y744220D01*
X379583Y745211D01*
X379021Y746051D01*
X353621Y771451D01*
X352781Y772013D01*
X351790Y772210D01*
X175367D01*
X175022Y773495D01*
X173700Y775785D01*
X171831Y777654D01*
X169542Y778976D01*
X166988Y779660D01*
D02*
G37*
G36*
X808250Y703997D02*
X788170D01*
Y683917D01*
X808250D01*
Y703997D01*
D02*
G37*
G36*
X337720Y689610D02*
X335380D01*
X333119Y689004D01*
X331091Y687834D01*
X329436Y686179D01*
X328266Y684151D01*
X327660Y681890D01*
Y679550D01*
X328266Y677289D01*
X329436Y675261D01*
X331091Y673606D01*
X333119Y672436D01*
X335380Y671830D01*
X337720D01*
X339981Y672436D01*
X342009Y673606D01*
X343664Y675261D01*
X344834Y677289D01*
X345440Y679550D01*
Y681890D01*
X344834Y684151D01*
X343664Y686179D01*
X342009Y687834D01*
X339981Y689004D01*
X337720Y689610D01*
D02*
G37*
G36*
X878892Y680600D02*
X876248D01*
X873695Y679916D01*
X871405Y678594D01*
X869536Y676725D01*
X868214Y674435D01*
X867530Y671882D01*
Y669238D01*
X868214Y666685D01*
X869536Y664395D01*
X871405Y662526D01*
X873695Y661204D01*
X876248Y660520D01*
X878892D01*
X881445Y661204D01*
X883735Y662526D01*
X885604Y664395D01*
X886926Y666685D01*
X887610Y669238D01*
Y671882D01*
X886926Y674435D01*
X885604Y676725D01*
X883735Y678594D01*
X881445Y679916D01*
X878892Y680600D01*
D02*
G37*
G36*
X601880Y665271D02*
X599540D01*
X597279Y664665D01*
X595251Y663494D01*
X593596Y661839D01*
X592426Y659812D01*
X591820Y657551D01*
Y655210D01*
X592426Y652949D01*
X593596Y650922D01*
X595251Y649267D01*
X597279Y648096D01*
X599540Y647491D01*
X601880D01*
X604141Y648096D01*
X606169Y649267D01*
X607824Y650922D01*
X608994Y652949D01*
X609600Y655210D01*
Y657551D01*
X608994Y659812D01*
X607824Y661839D01*
X606169Y663494D01*
X604141Y664665D01*
X601880Y665271D01*
D02*
G37*
G36*
X757582Y659638D02*
X755242D01*
X752981Y659032D01*
X750953Y657862D01*
X749298Y656207D01*
X748128Y654179D01*
X747522Y651918D01*
Y649578D01*
X748128Y647317D01*
X749298Y645289D01*
X750953Y643634D01*
X752981Y642464D01*
X755242Y641858D01*
X757582D01*
X759843Y642464D01*
X761871Y643634D01*
X763526Y645289D01*
X764696Y647317D01*
X765302Y649578D01*
Y651918D01*
X764696Y654179D01*
X763526Y656207D01*
X761871Y657862D01*
X759843Y659032D01*
X757582Y659638D01*
D02*
G37*
G36*
X356770Y654050D02*
X354430D01*
X352169Y653444D01*
X350141Y652274D01*
X348486Y650619D01*
X347316Y648591D01*
X346710Y646330D01*
Y643990D01*
X347316Y641729D01*
X348486Y639701D01*
X350141Y638046D01*
X352169Y636876D01*
X354430Y636270D01*
X356770D01*
X359031Y636876D01*
X361059Y638046D01*
X362714Y639701D01*
X363884Y641729D01*
X364490Y643990D01*
Y646330D01*
X363884Y648591D01*
X362714Y650619D01*
X361059Y652274D01*
X359031Y653444D01*
X356770Y654050D01*
D02*
G37*
G36*
X785522Y653707D02*
X783182D01*
X780921Y653101D01*
X778893Y651930D01*
X777238Y650275D01*
X776068Y648248D01*
X775462Y645987D01*
Y643646D01*
X776068Y641385D01*
X777238Y639358D01*
X778893Y637703D01*
X780921Y636532D01*
X783182Y635927D01*
X785522D01*
X787783Y636532D01*
X789811Y637703D01*
X791466Y639358D01*
X792636Y641385D01*
X793242Y643646D01*
Y645987D01*
X792636Y648248D01*
X791466Y650275D01*
X789811Y651930D01*
X787783Y653101D01*
X785522Y653707D01*
D02*
G37*
G36*
X208180Y650240D02*
X205840D01*
X203579Y649634D01*
X201551Y648464D01*
X199896Y646809D01*
X198726Y644781D01*
X198120Y642520D01*
Y640180D01*
X198726Y637919D01*
X199896Y635891D01*
X201551Y634236D01*
X203579Y633066D01*
X205840Y632460D01*
X208180D01*
X210441Y633066D01*
X212469Y634236D01*
X214124Y635891D01*
X215294Y637919D01*
X215900Y640180D01*
Y642520D01*
X215294Y644781D01*
X214124Y646809D01*
X212469Y648464D01*
X210441Y649634D01*
X208180Y650240D01*
D02*
G37*
G36*
X255170Y647532D02*
X252830D01*
X250569Y646926D01*
X248541Y645756D01*
X246886Y644100D01*
X245716Y642073D01*
X245110Y639812D01*
Y637472D01*
X245716Y635210D01*
X246886Y633183D01*
X248541Y631528D01*
X250569Y630358D01*
X252830Y629752D01*
X255170D01*
X257431Y630358D01*
X259459Y631528D01*
X261114Y633183D01*
X262284Y635210D01*
X262890Y637472D01*
Y639812D01*
X262284Y642073D01*
X261114Y644100D01*
X259459Y645756D01*
X257431Y646926D01*
X255170Y647532D01*
D02*
G37*
G36*
X352010Y634050D02*
X349669D01*
X347408Y633444D01*
X345381Y632274D01*
X343726Y630619D01*
X342556Y628591D01*
X341950Y626330D01*
Y623989D01*
X342556Y621729D01*
X342672Y621527D01*
X341742Y620598D01*
X341541Y620714D01*
X339280Y621320D01*
X336939D01*
X334678Y620714D01*
X332651Y619543D01*
X330996Y617888D01*
X329826Y615861D01*
X329220Y613600D01*
Y611259D01*
X329826Y608998D01*
X329831Y608989D01*
X328901Y608059D01*
X327281Y608994D01*
X325020Y609600D01*
X322680D01*
X320419Y608994D01*
X318391Y607824D01*
X316736Y606169D01*
X315566Y604141D01*
X314960Y601880D01*
Y599540D01*
X315566Y597279D01*
X316736Y595251D01*
X318391Y593596D01*
X320419Y592426D01*
X322680Y591820D01*
X325020D01*
X327281Y592426D01*
X329309Y593596D01*
X330964Y595251D01*
X332134Y597279D01*
X332360Y598120D01*
X455892D01*
X455930Y598070D01*
Y595730D01*
X456536Y593469D01*
X457706Y591441D01*
X459361Y589786D01*
X461389Y588616D01*
X463650Y588010D01*
X465990D01*
X468251Y588616D01*
X470279Y589786D01*
X471934Y591441D01*
X473104Y593469D01*
X473710Y595730D01*
Y598070D01*
X473104Y600331D01*
X471934Y602359D01*
X470279Y604014D01*
X468251Y605184D01*
X465990Y605790D01*
X463650D01*
X461389Y605184D01*
X459361Y604014D01*
X458583Y603236D01*
X458261Y603300D01*
X342616D01*
X342276Y604570D01*
X343568Y605316D01*
X345223Y606971D01*
X346394Y608998D01*
X347000Y611259D01*
Y613600D01*
X346394Y615861D01*
X346278Y616062D01*
X347207Y616992D01*
X347408Y616876D01*
X349669Y616270D01*
X352010D01*
X354271Y616876D01*
X356298Y618046D01*
X357954Y619701D01*
X359124Y621729D01*
X359730Y623989D01*
Y626330D01*
X359124Y628591D01*
X357954Y630619D01*
X356298Y632274D01*
X354271Y633444D01*
X352010Y634050D01*
D02*
G37*
G36*
X740462Y761880D02*
X737818D01*
X735265Y761196D01*
X732975Y759874D01*
X731106Y758005D01*
X729784Y755715D01*
X729100Y753162D01*
Y750518D01*
X729784Y747965D01*
X731106Y745675D01*
X732975Y743806D01*
X735265Y742484D01*
X736550Y742140D01*
Y646233D01*
X708553Y618236D01*
X707289Y618768D01*
X706784Y620651D01*
X705614Y622679D01*
X703959Y624334D01*
X701931Y625504D01*
X700048Y626009D01*
X699516Y627273D01*
X715571Y643329D01*
X716133Y644169D01*
X716330Y645160D01*
Y742140D01*
X717615Y742484D01*
X719905Y743806D01*
X721774Y745675D01*
X723096Y747965D01*
X723780Y750518D01*
Y753162D01*
X723096Y755715D01*
X721774Y758005D01*
X719905Y759874D01*
X717615Y761196D01*
X715062Y761880D01*
X712418D01*
X709865Y761196D01*
X707575Y759874D01*
X705706Y758005D01*
X704384Y755715D01*
X703700Y753162D01*
Y750518D01*
X704384Y747965D01*
X705706Y745675D01*
X707575Y743806D01*
X709865Y742484D01*
X711150Y742140D01*
Y646233D01*
X658236Y593318D01*
X657481Y593754D01*
X655220Y594360D01*
X652880D01*
X650619Y593754D01*
X648591Y592584D01*
X646936Y590929D01*
X645766Y588901D01*
X645160Y586640D01*
Y584300D01*
X645766Y582039D01*
X646936Y580011D01*
X648591Y578356D01*
X650619Y577186D01*
X652880Y576580D01*
X655220D01*
X657481Y577186D01*
X659509Y578356D01*
X661164Y580011D01*
X662334Y582039D01*
X662940Y584300D01*
Y586640D01*
X662334Y588901D01*
X661898Y589656D01*
X688447Y616204D01*
X689711Y615672D01*
X690216Y613789D01*
X691386Y611761D01*
X693041Y610106D01*
X695069Y608936D01*
X696953Y608431D01*
X697485Y607167D01*
X683636Y593318D01*
X682881Y593754D01*
X680620Y594360D01*
X678280D01*
X676019Y593754D01*
X673991Y592584D01*
X672336Y590929D01*
X671166Y588901D01*
X670560Y586640D01*
Y584300D01*
X671166Y582039D01*
X672336Y580011D01*
X673991Y578356D01*
X676019Y577186D01*
X678280Y576580D01*
X680620D01*
X682881Y577186D01*
X684909Y578356D01*
X686564Y580011D01*
X687734Y582039D01*
X688340Y584300D01*
Y586640D01*
X687734Y588901D01*
X687299Y589656D01*
X711694Y614052D01*
X712833Y613394D01*
X712470Y612040D01*
Y609700D01*
X713076Y607439D01*
X714246Y605411D01*
X715901Y603756D01*
X717929Y602586D01*
X720190Y601980D01*
X722530D01*
X724791Y602586D01*
X726819Y603756D01*
X728474Y605411D01*
X729644Y607439D01*
X730250Y609700D01*
Y612040D01*
X729644Y614301D01*
X728474Y616329D01*
X726819Y617984D01*
X724791Y619154D01*
X722530Y619760D01*
X720190D01*
X718836Y619397D01*
X718178Y620536D01*
X740971Y643329D01*
X741533Y644169D01*
X741730Y645160D01*
Y684206D01*
X743000Y684789D01*
X744599Y683866D01*
X746860Y683260D01*
X749200D01*
X751461Y683866D01*
X753489Y685036D01*
X755144Y686691D01*
X756314Y688719D01*
X756920Y690980D01*
Y693320D01*
X756314Y695581D01*
X755144Y697609D01*
X753489Y699264D01*
X751461Y700434D01*
X749200Y701040D01*
X746860D01*
X744599Y700434D01*
X743000Y699511D01*
X741730Y700094D01*
Y742140D01*
X743015Y742484D01*
X745305Y743806D01*
X747174Y745675D01*
X748496Y747965D01*
X749180Y750518D01*
Y753162D01*
X748496Y755715D01*
X747174Y758005D01*
X745305Y759874D01*
X743015Y761196D01*
X740462Y761880D01*
D02*
G37*
G36*
X774442Y705446D02*
X772101D01*
X769840Y704840D01*
X767813Y703670D01*
X766158Y702014D01*
X764987Y699987D01*
X764381Y697726D01*
Y695386D01*
X764987Y693124D01*
X766158Y691097D01*
X767813Y689442D01*
X769840Y688272D01*
X771474Y687834D01*
Y686519D01*
X771269Y686464D01*
X769241Y685294D01*
X767586Y683639D01*
X766416Y681611D01*
X765810Y679350D01*
Y677010D01*
X766416Y674749D01*
X767586Y672721D01*
X769241Y671066D01*
X771269Y669896D01*
X773530Y669290D01*
X775870D01*
X778131Y669896D01*
X780159Y671066D01*
X781814Y672721D01*
X782984Y674749D01*
X783210Y675590D01*
X842207D01*
X869449Y648349D01*
X870289Y647787D01*
X871280Y647590D01*
X885447D01*
X903090Y629948D01*
Y613530D01*
X923170D01*
Y633610D01*
X906752D01*
X888351Y652011D01*
X887511Y652573D01*
X886520Y652770D01*
X872353D01*
X845111Y680011D01*
X844271Y680573D01*
X843280Y680770D01*
X783210D01*
X782984Y681611D01*
X781814Y683639D01*
X780159Y685294D01*
X778131Y686464D01*
X776498Y686902D01*
Y688217D01*
X776703Y688272D01*
X778730Y689442D01*
X780385Y691097D01*
X781556Y693124D01*
X782161Y695386D01*
Y697726D01*
X781556Y699987D01*
X780385Y702014D01*
X778730Y703670D01*
X776703Y704840D01*
X774442Y705446D01*
D02*
G37*
G36*
X889052Y633610D02*
X886408D01*
X883855Y632926D01*
X881565Y631604D01*
X879696Y629735D01*
X878374Y627445D01*
X877690Y624892D01*
Y622248D01*
X878374Y619695D01*
X879696Y617405D01*
X881565Y615536D01*
X883855Y614214D01*
X886408Y613530D01*
X889052D01*
X891605Y614214D01*
X893895Y615536D01*
X895764Y617405D01*
X897086Y619695D01*
X897770Y622248D01*
Y624892D01*
X897086Y627445D01*
X895764Y629735D01*
X893895Y631604D01*
X891605Y632926D01*
X889052Y633610D01*
D02*
G37*
G36*
X863652D02*
X861008D01*
X858455Y632926D01*
X856165Y631604D01*
X854296Y629735D01*
X852974Y627445D01*
X852290Y624892D01*
Y622248D01*
X852974Y619695D01*
X854296Y617405D01*
X856165Y615536D01*
X858455Y614214D01*
X861008Y613530D01*
X863652D01*
X866205Y614214D01*
X868495Y615536D01*
X870364Y617405D01*
X871686Y619695D01*
X872370Y622248D01*
Y624892D01*
X871686Y627445D01*
X870364Y629735D01*
X868495Y631604D01*
X866205Y632926D01*
X863652Y633610D01*
D02*
G37*
G36*
X753010Y619760D02*
X750670D01*
X748409Y619154D01*
X746381Y617984D01*
X744726Y616329D01*
X743556Y614301D01*
X742950Y612040D01*
Y609700D01*
X743556Y607439D01*
X744726Y605411D01*
X746381Y603756D01*
X748409Y602586D01*
X750670Y601980D01*
X753010D01*
X755271Y602586D01*
X757299Y603756D01*
X758954Y605411D01*
X760124Y607439D01*
X760730Y609700D01*
Y612040D01*
X760124Y614301D01*
X758954Y616329D01*
X757299Y617984D01*
X755271Y619154D01*
X753010Y619760D01*
D02*
G37*
G36*
X618390Y617220D02*
X616050D01*
X613789Y616614D01*
X611761Y615444D01*
X610106Y613789D01*
X608936Y611761D01*
X608330Y609500D01*
Y607160D01*
X608936Y604899D01*
X610106Y602871D01*
X611761Y601216D01*
X613789Y600046D01*
X616050Y599440D01*
X618390D01*
X620651Y600046D01*
X622679Y601216D01*
X624334Y602871D01*
X625504Y604899D01*
X626110Y607160D01*
Y609500D01*
X625504Y611761D01*
X624334Y613789D01*
X622679Y615444D01*
X620651Y616614D01*
X618390Y617220D01*
D02*
G37*
G36*
X731420Y594360D02*
X729080D01*
X726819Y593754D01*
X724791Y592584D01*
X723136Y590929D01*
X721966Y588901D01*
X721360Y586640D01*
Y584300D01*
X721966Y582039D01*
X723136Y580011D01*
X724791Y578356D01*
X726819Y577186D01*
X729080Y576580D01*
X731420D01*
X733681Y577186D01*
X735709Y578356D01*
X737364Y580011D01*
X738534Y582039D01*
X739140Y584300D01*
Y586640D01*
X738534Y588901D01*
X737364Y590929D01*
X735709Y592584D01*
X733681Y593754D01*
X731420Y594360D01*
D02*
G37*
G36*
X704750D02*
X702410D01*
X700149Y593754D01*
X698121Y592584D01*
X696466Y590929D01*
X695296Y588901D01*
X694690Y586640D01*
Y584300D01*
X695296Y582039D01*
X696466Y580011D01*
X698121Y578356D01*
X700149Y577186D01*
X702410Y576580D01*
X704750D01*
X707011Y577186D01*
X709039Y578356D01*
X710694Y580011D01*
X711864Y582039D01*
X712470Y584300D01*
Y586640D01*
X711864Y588901D01*
X710694Y590929D01*
X709039Y592584D01*
X707011Y593754D01*
X704750Y594360D01*
D02*
G37*
G36*
X869830Y594240D02*
X849750D01*
Y574160D01*
X869830D01*
Y594240D01*
D02*
G37*
G36*
X905390Y592970D02*
X885310D01*
Y572890D01*
X905390D01*
Y592970D01*
D02*
G37*
G36*
X943490Y591700D02*
X923410D01*
Y571620D01*
X943490D01*
Y591700D01*
D02*
G37*
G36*
X603150Y582930D02*
X600810D01*
X598549Y582324D01*
X596521Y581154D01*
X594866Y579499D01*
X593696Y577471D01*
X593090Y575210D01*
Y572870D01*
X593696Y570609D01*
X594866Y568581D01*
X596521Y566926D01*
X598549Y565756D01*
X600810Y565150D01*
X603150D01*
X605411Y565756D01*
X607439Y566926D01*
X609094Y568581D01*
X610264Y570609D01*
X610870Y572870D01*
Y575210D01*
X610264Y577471D01*
X609094Y579499D01*
X607439Y581154D01*
X605411Y582324D01*
X603150Y582930D01*
D02*
G37*
G36*
X574933Y603106D02*
X572592D01*
X570331Y602501D01*
X568304Y601330D01*
X566648Y599675D01*
X565478Y597648D01*
X564872Y595387D01*
Y593046D01*
X565478Y590785D01*
X566648Y588758D01*
X568304Y587103D01*
X569330Y586510D01*
X569539Y584923D01*
X569101Y584485D01*
X567931Y582457D01*
X567325Y580196D01*
Y577856D01*
X567931Y575595D01*
X569101Y573567D01*
X570757Y571912D01*
X572784Y570742D01*
X575045Y570136D01*
X577385D01*
X579647Y570742D01*
X580401Y571177D01*
X597150Y554429D01*
X597990Y553867D01*
X598981Y553670D01*
X851159D01*
X851756Y552635D01*
X853625Y550766D01*
X855915Y549444D01*
X858468Y548760D01*
X861112D01*
X863665Y549444D01*
X865955Y550766D01*
X867824Y552635D01*
X869146Y554925D01*
X869830Y557478D01*
Y560122D01*
X869146Y562675D01*
X867824Y564965D01*
X865955Y566834D01*
X863665Y568156D01*
X861112Y568840D01*
X858468D01*
X855915Y568156D01*
X853625Y566834D01*
X851756Y564965D01*
X850434Y562675D01*
X849750Y560122D01*
Y558850D01*
X600054D01*
X584064Y574840D01*
X584499Y575595D01*
X585105Y577856D01*
Y580196D01*
X584499Y582457D01*
X583329Y584485D01*
X581674Y586140D01*
X580647Y586733D01*
X580438Y588320D01*
X580876Y588758D01*
X582046Y590785D01*
X582652Y593046D01*
Y595387D01*
X582046Y597648D01*
X580876Y599675D01*
X579221Y601330D01*
X577194Y602501D01*
X574933Y603106D01*
D02*
G37*
G36*
X896672Y567570D02*
X894028D01*
X891475Y566886D01*
X889185Y565564D01*
X887316Y563695D01*
X885994Y561405D01*
X885310Y558852D01*
Y556208D01*
X885994Y553655D01*
X887316Y551365D01*
X889185Y549496D01*
X891475Y548174D01*
X894028Y547490D01*
X896672D01*
X899225Y548174D01*
X901515Y549496D01*
X903384Y551365D01*
X904706Y553655D01*
X905390Y556208D01*
Y558852D01*
X904706Y561405D01*
X903384Y563695D01*
X901515Y565564D01*
X899225Y566886D01*
X896672Y567570D01*
D02*
G37*
G36*
X934772Y566300D02*
X932128D01*
X929575Y565616D01*
X927285Y564294D01*
X925416Y562425D01*
X924094Y560135D01*
X923410Y557582D01*
Y554938D01*
X924094Y552385D01*
X925416Y550095D01*
X927285Y548226D01*
X929575Y546904D01*
X932128Y546220D01*
X934772D01*
X937325Y546904D01*
X939615Y548226D01*
X941484Y550095D01*
X942806Y552385D01*
X943490Y554938D01*
Y557582D01*
X942806Y560135D01*
X941484Y562425D01*
X939615Y564294D01*
X937325Y565616D01*
X934772Y566300D01*
D02*
G37*
G36*
X322480Y554990D02*
X320140D01*
X317879Y554384D01*
X315851Y553214D01*
X314196Y551559D01*
X313026Y549531D01*
X312420Y547270D01*
Y544930D01*
X313026Y542669D01*
X314196Y540641D01*
X315851Y538986D01*
X317879Y537816D01*
X320140Y537210D01*
X322480D01*
X324741Y537816D01*
X326769Y538986D01*
X328424Y540641D01*
X329594Y542669D01*
X330200Y544930D01*
Y547270D01*
X329594Y549531D01*
X328424Y551559D01*
X326769Y553214D01*
X324741Y554384D01*
X322480Y554990D01*
D02*
G37*
G36*
X203100Y543560D02*
X200760D01*
X198499Y542954D01*
X196471Y541784D01*
X194816Y540129D01*
X193646Y538101D01*
X193040Y535840D01*
Y533500D01*
X193646Y531239D01*
X194816Y529211D01*
X196471Y527556D01*
X198499Y526386D01*
X200760Y525780D01*
X203100D01*
X205361Y526386D01*
X207389Y527556D01*
X209044Y529211D01*
X210214Y531239D01*
X210820Y533500D01*
Y535840D01*
X210214Y538101D01*
X209044Y540129D01*
X207389Y541784D01*
X205361Y542954D01*
X203100Y543560D01*
D02*
G37*
G36*
X861112Y543440D02*
X858468D01*
X855915Y542756D01*
X853625Y541434D01*
X851756Y539565D01*
X850434Y537275D01*
X849750Y534722D01*
Y532078D01*
X850434Y529525D01*
X851756Y527235D01*
X853625Y525366D01*
X855915Y524044D01*
X858468Y523360D01*
X861112D01*
X863665Y524044D01*
X865955Y525366D01*
X867824Y527235D01*
X869146Y529525D01*
X869830Y532078D01*
Y534722D01*
X869146Y537275D01*
X867824Y539565D01*
X865955Y541434D01*
X863665Y542756D01*
X861112Y543440D01*
D02*
G37*
G36*
X262790Y541020D02*
X260450D01*
X258189Y540414D01*
X256161Y539244D01*
X254506Y537589D01*
X253336Y535561D01*
X252730Y533300D01*
Y530960D01*
X253336Y528699D01*
X254506Y526671D01*
X256161Y525016D01*
X258189Y523846D01*
X260450Y523240D01*
X262790D01*
X265051Y523846D01*
X267079Y525016D01*
X268734Y526671D01*
X269904Y528699D01*
X270510Y530960D01*
Y533300D01*
X269904Y535561D01*
X268734Y537589D01*
X267079Y539244D01*
X265051Y540414D01*
X262790Y541020D01*
D02*
G37*
G36*
X688240Y534670D02*
X685900D01*
X683639Y534064D01*
X681611Y532894D01*
X679956Y531239D01*
X678786Y529211D01*
X678180Y526950D01*
Y524610D01*
X678786Y522349D01*
X679956Y520321D01*
X681611Y518666D01*
X683639Y517496D01*
X685900Y516890D01*
X688240D01*
X690501Y517496D01*
X692529Y518666D01*
X694184Y520321D01*
X695354Y522349D01*
X695960Y524610D01*
Y526950D01*
X695354Y529211D01*
X694184Y531239D01*
X692529Y532894D01*
X690501Y534064D01*
X688240Y534670D01*
D02*
G37*
G36*
X441860Y529560D02*
X439520D01*
X437259Y528954D01*
X435231Y527784D01*
X433576Y526129D01*
X432406Y524101D01*
X431800Y521840D01*
Y519500D01*
X432406Y517239D01*
X433576Y515211D01*
X435231Y513556D01*
X437259Y512386D01*
X439520Y511780D01*
X441860D01*
X444121Y512386D01*
X446149Y513556D01*
X447804Y515211D01*
X448974Y517239D01*
X449580Y519500D01*
Y521840D01*
X448974Y524101D01*
X447804Y526129D01*
X446149Y527784D01*
X444121Y528954D01*
X441860Y529560D01*
D02*
G37*
G36*
X490101Y525877D02*
X487760D01*
X485499Y525271D01*
X483472Y524100D01*
X481817Y522445D01*
X480647Y520418D01*
X480041Y518157D01*
Y515816D01*
X480647Y513555D01*
X481817Y511528D01*
X483472Y509873D01*
X485499Y508702D01*
X487760Y508097D01*
X490101D01*
X492362Y508702D01*
X494389Y509873D01*
X496045Y511528D01*
X497215Y513555D01*
X497821Y515816D01*
Y518157D01*
X497215Y520418D01*
X496045Y522445D01*
X494389Y524100D01*
X492362Y525271D01*
X490101Y525877D01*
D02*
G37*
G36*
X669190Y511810D02*
X666850D01*
X664589Y511204D01*
X662561Y510034D01*
X660906Y508379D01*
X659736Y506351D01*
X659130Y504090D01*
Y501750D01*
X659736Y499489D01*
X660906Y497461D01*
X662561Y495806D01*
X664589Y494636D01*
X666850Y494030D01*
X669190D01*
X671451Y494636D01*
X673479Y495806D01*
X675134Y497461D01*
X676304Y499489D01*
X676910Y501750D01*
Y504090D01*
X676304Y506351D01*
X675134Y508379D01*
X673479Y510034D01*
X671451Y511204D01*
X669190Y511810D01*
D02*
G37*
G36*
X710088Y510614D02*
X707747D01*
X705486Y510008D01*
X703459Y508838D01*
X701804Y507182D01*
X700633Y505155D01*
X700027Y502894D01*
Y500554D01*
X700633Y498292D01*
X701804Y496265D01*
X703459Y494610D01*
X705486Y493440D01*
X707747Y492834D01*
X710088D01*
X712349Y493440D01*
X714376Y494610D01*
X716031Y496265D01*
X717202Y498292D01*
X717807Y500554D01*
Y502894D01*
X717202Y505155D01*
X716031Y507182D01*
X714376Y508838D01*
X712349Y510008D01*
X710088Y510614D01*
D02*
G37*
G36*
X934772Y540900D02*
X932128D01*
X929575Y540216D01*
X927285Y538894D01*
X925416Y537025D01*
X924094Y534735D01*
X923410Y532182D01*
Y529538D01*
X924094Y526985D01*
X925416Y524695D01*
X927285Y522826D01*
X929565Y521510D01*
Y504554D01*
X929861Y503067D01*
X930703Y501807D01*
X938455Y494054D01*
Y488037D01*
X937185Y487435D01*
X935611Y488344D01*
X933350Y488950D01*
X931010D01*
X928749Y488344D01*
X926721Y487174D01*
X925066Y485519D01*
X923896Y483491D01*
X923290Y481230D01*
Y478890D01*
X923896Y476629D01*
X925066Y474601D01*
X926721Y472946D01*
X928749Y471776D01*
X931010Y471170D01*
X933350D01*
X935611Y471776D01*
X937185Y472685D01*
X938455Y472083D01*
Y357209D01*
X924353Y343107D01*
X923511Y341847D01*
X923215Y340360D01*
Y134959D01*
X912246Y123990D01*
X910490Y124460D01*
X908150D01*
X905889Y123854D01*
X903861Y122684D01*
X902206Y121029D01*
X901036Y119001D01*
X900430Y116740D01*
Y114400D01*
X901036Y112139D01*
X902206Y110111D01*
X903861Y108456D01*
X905889Y107286D01*
X908150Y106680D01*
X910490D01*
X912751Y107286D01*
X914779Y108456D01*
X916434Y110111D01*
X917604Y112139D01*
X918210Y114400D01*
Y116740D01*
X917740Y118496D01*
X929847Y130603D01*
X930689Y131863D01*
X930985Y133350D01*
Y338751D01*
X945087Y352853D01*
X945929Y354113D01*
X946225Y355600D01*
Y495664D01*
X945929Y497150D01*
X945087Y498410D01*
X937335Y506163D01*
Y521510D01*
X939615Y522826D01*
X941484Y524695D01*
X942806Y526985D01*
X943490Y529538D01*
Y532182D01*
X942806Y534735D01*
X941484Y537025D01*
X939615Y538894D01*
X937325Y540216D01*
X934772Y540900D01*
D02*
G37*
G36*
X982221Y503574D02*
X979880D01*
X977619Y502968D01*
X975592Y501798D01*
X973936Y500142D01*
X972766Y498115D01*
X972160Y495854D01*
Y493513D01*
X972766Y491252D01*
X973936Y489225D01*
X975592Y487570D01*
X977619Y486400D01*
X979880Y485794D01*
X982221D01*
X984482Y486400D01*
X986509Y487570D01*
X988164Y489225D01*
X989334Y491252D01*
X989940Y493513D01*
Y495854D01*
X989334Y498115D01*
X988164Y500142D01*
X986509Y501798D01*
X984482Y502968D01*
X982221Y503574D01*
D02*
G37*
G36*
X728880Y501650D02*
X726540D01*
X724279Y501044D01*
X722251Y499874D01*
X720596Y498219D01*
X719426Y496191D01*
X718820Y493930D01*
Y491590D01*
X719426Y489329D01*
X720596Y487301D01*
X722251Y485646D01*
X724279Y484476D01*
X726540Y483870D01*
X728880D01*
X731141Y484476D01*
X733169Y485646D01*
X734824Y487301D01*
X735994Y489329D01*
X736600Y491590D01*
Y493930D01*
X735994Y496191D01*
X734824Y498219D01*
X733169Y499874D01*
X731141Y501044D01*
X728880Y501650D01*
D02*
G37*
G36*
X481230Y497840D02*
X478890D01*
X476629Y497234D01*
X474601Y496064D01*
X472946Y494409D01*
X471776Y492381D01*
X471170Y490120D01*
Y487780D01*
X471776Y485519D01*
X472946Y483491D01*
X474601Y481836D01*
X476629Y480666D01*
X478890Y480060D01*
X481230D01*
X483491Y480666D01*
X485519Y481836D01*
X487174Y483491D01*
X488344Y485519D01*
X488950Y487780D01*
Y490120D01*
X488344Y492381D01*
X487174Y494409D01*
X485519Y496064D01*
X483491Y497234D01*
X481230Y497840D01*
D02*
G37*
G36*
X440590Y508000D02*
X438250D01*
X435989Y507394D01*
X433961Y506224D01*
X432306Y504569D01*
X431136Y502541D01*
X430530Y500280D01*
Y497940D01*
X431136Y495679D01*
X432306Y493651D01*
X432520Y493438D01*
X432311Y491851D01*
X431235Y491230D01*
X429580Y489574D01*
X428410Y487547D01*
X427804Y485286D01*
Y482945D01*
X428410Y480684D01*
X429580Y478657D01*
X431235Y477002D01*
X433262Y475832D01*
X435523Y475226D01*
X437864D01*
X440125Y475832D01*
X442152Y477002D01*
X443807Y478657D01*
X444978Y480684D01*
X445584Y482945D01*
Y485286D01*
X444978Y487547D01*
X443807Y489574D01*
X443594Y489788D01*
X443803Y491375D01*
X444879Y491996D01*
X446534Y493651D01*
X447704Y495679D01*
X448310Y497940D01*
Y500280D01*
X447704Y502541D01*
X446534Y504569D01*
X444879Y506224D01*
X442851Y507394D01*
X440590Y508000D01*
D02*
G37*
G36*
X297080Y541020D02*
X294740D01*
X292479Y540414D01*
X290451Y539244D01*
X288796Y537589D01*
X287626Y535561D01*
X287020Y533300D01*
Y530960D01*
X287626Y528699D01*
X288796Y526671D01*
X290451Y525016D01*
X292479Y523846D01*
X294740Y523240D01*
X297080D01*
X299341Y523846D01*
X301369Y525016D01*
X301571Y525219D01*
X386187Y440602D01*
X385702Y439292D01*
X383919Y438814D01*
X381891Y437644D01*
X380236Y435989D01*
X379066Y433961D01*
X378460Y431700D01*
Y429360D01*
X379066Y427099D01*
X380236Y425071D01*
X381891Y423416D01*
X383919Y422246D01*
X386180Y421640D01*
X388520D01*
X390781Y422246D01*
X392809Y423416D01*
X394464Y425071D01*
X395634Y427099D01*
X396112Y428882D01*
X397422Y429367D01*
X400631Y426159D01*
X401471Y425597D01*
X402462Y425400D01*
X487750D01*
X503501Y409649D01*
X504341Y409087D01*
X505332Y408890D01*
X575310D01*
X576301Y409087D01*
X577141Y409649D01*
X580565Y413072D01*
X581660Y412371D01*
Y410310D01*
X582266Y408049D01*
X582701Y407294D01*
X581857Y406450D01*
X491814D01*
X491231Y407720D01*
X492154Y409319D01*
X492760Y411580D01*
Y413920D01*
X492154Y416181D01*
X490984Y418209D01*
X489329Y419864D01*
X487301Y421034D01*
X485040Y421640D01*
X482700D01*
X480439Y421034D01*
X478411Y419864D01*
X476756Y418209D01*
X475586Y416181D01*
X474980Y413920D01*
Y411580D01*
X475334Y410260D01*
X474359Y408990D01*
X389693D01*
X368861Y429821D01*
X368021Y430383D01*
X367030Y430580D01*
X366960D01*
X331207Y466333D01*
X331987Y467349D01*
X333119Y466696D01*
X335380Y466090D01*
X337720D01*
X339981Y466696D01*
X342009Y467866D01*
X343664Y469521D01*
X344834Y471549D01*
X345440Y473810D01*
Y476150D01*
X344834Y478411D01*
X343664Y480439D01*
X342009Y482094D01*
X339981Y483264D01*
X337720Y483870D01*
X335380D01*
X333119Y483264D01*
X331091Y482094D01*
X329436Y480439D01*
X328266Y478411D01*
X327660Y476150D01*
Y473810D01*
X328266Y471549D01*
X328919Y470417D01*
X327903Y469637D01*
X288979Y508561D01*
X288139Y509123D01*
X287148Y509320D01*
X255073D01*
X245338Y519054D01*
X245774Y519809D01*
X246380Y522070D01*
Y524410D01*
X245774Y526671D01*
X244604Y528699D01*
X242949Y530354D01*
X240921Y531524D01*
X238660Y532130D01*
X236320D01*
X234059Y531524D01*
X232031Y530354D01*
X230376Y528699D01*
X229206Y526671D01*
X228600Y524410D01*
Y522070D01*
X229206Y519809D01*
X230376Y517781D01*
X232031Y516126D01*
X234059Y514956D01*
X236320Y514350D01*
X238660D01*
X240921Y514956D01*
X241676Y515392D01*
X252169Y504899D01*
X253009Y504337D01*
X254000Y504140D01*
X286075D01*
X302660Y487556D01*
X302134Y486286D01*
X301129D01*
X298868Y485680D01*
X296841Y484509D01*
X295186Y482854D01*
X294015Y480827D01*
X293409Y478566D01*
Y476225D01*
X293840Y474617D01*
X292750Y473781D01*
X291721Y474374D01*
X289460Y474980D01*
X287120D01*
X284859Y474374D01*
X282831Y473204D01*
X281176Y471549D01*
X280006Y469521D01*
X279400Y467260D01*
Y464920D01*
X280006Y462659D01*
X281176Y460631D01*
X282831Y458976D01*
X284859Y457806D01*
X287120Y457200D01*
X289460D01*
X291721Y457806D01*
X293749Y458976D01*
X295404Y460631D01*
X296574Y462659D01*
X297180Y464920D01*
Y467260D01*
X296749Y468868D01*
X297840Y469705D01*
X298868Y469111D01*
X301129Y468506D01*
X303470D01*
X305731Y469111D01*
X307758Y470282D01*
X309413Y471937D01*
X310583Y473964D01*
X311189Y476225D01*
Y477230D01*
X312459Y477756D01*
X364056Y426159D01*
X364897Y425597D01*
X365888Y425400D01*
X365957D01*
X369824Y421533D01*
X369292Y420269D01*
X367409Y419764D01*
X365381Y418594D01*
X363726Y416939D01*
X362556Y414911D01*
X361950Y412650D01*
Y410310D01*
X362556Y408049D01*
X363726Y406021D01*
X365381Y404366D01*
X367409Y403196D01*
X369670Y402590D01*
X372010D01*
X374271Y403196D01*
X376299Y404366D01*
X377954Y406021D01*
X379124Y408049D01*
X379629Y409933D01*
X380893Y410465D01*
X386789Y404569D01*
X387629Y404007D01*
X388620Y403810D01*
X426396D01*
X426979Y402540D01*
X426056Y400941D01*
X425450Y398680D01*
Y396340D01*
X426056Y394079D01*
X426492Y393324D01*
X411677Y378510D01*
X381890D01*
X381664Y379351D01*
X380494Y381379D01*
X378839Y383034D01*
X376811Y384204D01*
X374550Y384810D01*
X372210D01*
X369949Y384204D01*
X367921Y383034D01*
X366266Y381379D01*
X365096Y379351D01*
X364490Y377090D01*
Y374750D01*
X365096Y372489D01*
X366266Y370461D01*
X367921Y368806D01*
X369949Y367636D01*
X372210Y367030D01*
X374550D01*
X376811Y367636D01*
X378839Y368806D01*
X380494Y370461D01*
X381664Y372489D01*
X381890Y373330D01*
X412750D01*
X413741Y373527D01*
X414581Y374089D01*
X422134Y381642D01*
X423273Y380984D01*
X422910Y379630D01*
Y377290D01*
X423516Y375029D01*
X424686Y373001D01*
X426341Y371346D01*
X428369Y370176D01*
X430630Y369570D01*
X432970D01*
X435231Y370176D01*
X437259Y371346D01*
X438914Y373001D01*
X440084Y375029D01*
X440690Y377290D01*
Y379630D01*
X440084Y381891D01*
X438914Y383919D01*
X437259Y385574D01*
X435231Y386744D01*
X432970Y387350D01*
X430630D01*
X429276Y386987D01*
X428618Y388126D01*
X430154Y389661D01*
X430909Y389226D01*
X433170Y388620D01*
X435510D01*
X437771Y389226D01*
X439799Y390396D01*
X441454Y392051D01*
X442624Y394079D01*
X443230Y396340D01*
Y398680D01*
X442624Y400941D01*
X441701Y402540D01*
X442284Y403810D01*
X476575D01*
X478356Y402029D01*
X479197Y401467D01*
X480188Y401270D01*
X582930D01*
X583921Y401467D01*
X584761Y402029D01*
X586364Y403632D01*
X587119Y403196D01*
X589380Y402590D01*
X591720D01*
X593981Y403196D01*
X596009Y404366D01*
X597664Y406021D01*
X598834Y408049D01*
X599440Y410310D01*
Y412650D01*
X598834Y414911D01*
X598253Y415919D01*
X599090Y417009D01*
X600003Y416764D01*
X602344D01*
X604605Y417370D01*
X606632Y418541D01*
X608287Y420196D01*
X609458Y422223D01*
X610063Y424484D01*
Y426825D01*
X609458Y429086D01*
X608287Y431113D01*
X606632Y432768D01*
X604605Y433939D01*
X602344Y434544D01*
X600003D01*
X597742Y433939D01*
X595715Y432768D01*
X594060Y431113D01*
X592983Y431766D01*
X593416Y432517D01*
X594022Y434778D01*
Y437118D01*
X593416Y439379D01*
X592246Y441407D01*
X590591Y443062D01*
X588563Y444232D01*
X586302Y444838D01*
X583962D01*
X581701Y444232D01*
X579674Y443062D01*
X578018Y441407D01*
X576848Y439379D01*
X576242Y437118D01*
Y434778D01*
X576848Y432517D01*
X577703Y431035D01*
X576773Y430106D01*
X575292Y430961D01*
X573031Y431567D01*
X570690D01*
X568429Y430961D01*
X566402Y429790D01*
X564747Y428135D01*
X563577Y426108D01*
X563351Y425266D01*
X551216D01*
X525071Y451411D01*
X524231Y451973D01*
X523240Y452170D01*
X444428D01*
X444088Y453440D01*
X444879Y453896D01*
X446534Y455551D01*
X447704Y457579D01*
X448310Y459840D01*
Y462180D01*
X447704Y464441D01*
X446534Y466469D01*
X444879Y468124D01*
X442851Y469294D01*
X440590Y469900D01*
X438250D01*
X435989Y469294D01*
X433961Y468124D01*
X432306Y466469D01*
X431136Y464441D01*
X430530Y462180D01*
Y459840D01*
X431136Y457579D01*
X432306Y455551D01*
X433961Y453896D01*
X434752Y453440D01*
X434412Y452170D01*
X401123D01*
X384004Y469289D01*
X384489Y470599D01*
X386273Y471077D01*
X388300Y472247D01*
X389955Y473903D01*
X391125Y475930D01*
X391731Y478191D01*
Y480532D01*
X391720Y480572D01*
X392757Y481609D01*
X393800Y481330D01*
X396140D01*
X398401Y481936D01*
X400429Y483106D01*
X402084Y484761D01*
X403254Y486789D01*
X403860Y489050D01*
Y491390D01*
X403254Y493651D01*
X402084Y495679D01*
X400429Y497334D01*
X398401Y498504D01*
X396140Y499110D01*
X393800D01*
X391539Y498504D01*
X389511Y497334D01*
X387856Y495679D01*
X386686Y493651D01*
X386080Y491390D01*
Y489050D01*
X386091Y489009D01*
X385054Y487972D01*
X384012Y488251D01*
X381671D01*
X379410Y487645D01*
X377383Y486475D01*
X375727Y484820D01*
X374557Y482793D01*
X374079Y481009D01*
X372769Y480524D01*
X343129Y510164D01*
X343564Y510919D01*
X344170Y513180D01*
Y515520D01*
X343564Y517781D01*
X342394Y519809D01*
X340739Y521464D01*
X338711Y522634D01*
X336450Y523240D01*
X334110D01*
X331849Y522634D01*
X329821Y521464D01*
X328166Y519809D01*
X326996Y517781D01*
X326390Y515520D01*
Y513180D01*
X326996Y510919D01*
X328166Y508891D01*
X329821Y507236D01*
X331849Y506066D01*
X334110Y505460D01*
X336450D01*
X338711Y506066D01*
X339466Y506502D01*
X398219Y447749D01*
X399059Y447187D01*
X400050Y446990D01*
X430358D01*
X430884Y445720D01*
X430042Y444879D01*
X428872Y442851D01*
X428266Y440590D01*
Y438250D01*
X428872Y435989D01*
X430042Y433961D01*
X431698Y432306D01*
X432488Y431850D01*
X432148Y430580D01*
X403535D01*
X304452Y529662D01*
X304800Y530960D01*
Y533300D01*
X304194Y535561D01*
X303024Y537589D01*
X301369Y539244D01*
X299341Y540414D01*
X297080Y541020D01*
D02*
G37*
G36*
X911912Y482480D02*
X909268D01*
X906715Y481796D01*
X904425Y480474D01*
X902556Y478605D01*
X901234Y476315D01*
X900550Y473762D01*
Y471118D01*
X901234Y468565D01*
X902556Y466275D01*
X904425Y464406D01*
X906715Y463084D01*
X909268Y462400D01*
X911912D01*
X914465Y463084D01*
X916755Y464406D01*
X918624Y466275D01*
X919946Y468565D01*
X920630Y471118D01*
Y473762D01*
X919946Y476315D01*
X918624Y478605D01*
X916755Y480474D01*
X914465Y481796D01*
X911912Y482480D01*
D02*
G37*
G36*
X579677Y480040D02*
X577336D01*
X575075Y479434D01*
X573047Y478263D01*
X571392Y476608D01*
X570222Y474581D01*
X569616Y472320D01*
Y469979D01*
X570222Y467718D01*
X571392Y465691D01*
X573047Y464036D01*
X575075Y462865D01*
X577336Y462260D01*
X579677D01*
X581937Y462865D01*
X583965Y464036D01*
X585620Y465691D01*
X586790Y467718D01*
X587396Y469979D01*
Y472320D01*
X586790Y474581D01*
X585620Y476608D01*
X583965Y478263D01*
X581937Y479434D01*
X579677Y480040D01*
D02*
G37*
G36*
X493930Y474880D02*
X491590D01*
X489329Y474274D01*
X487301Y473104D01*
X485646Y471449D01*
X484476Y469422D01*
X483870Y467161D01*
Y464820D01*
X484476Y462559D01*
X485646Y460532D01*
X487301Y458877D01*
X489329Y457706D01*
X491590Y457100D01*
X493930D01*
X496191Y457706D01*
X498219Y458877D01*
X499874Y460532D01*
X501044Y462559D01*
X501650Y464820D01*
Y467161D01*
X501044Y469422D01*
X499874Y471449D01*
X498219Y473104D01*
X496191Y474274D01*
X493930Y474880D01*
D02*
G37*
G36*
X407644Y474980D02*
X404969D01*
X402385Y474288D01*
X400068Y472950D01*
X398176Y471058D01*
X396839Y468742D01*
X396147Y466158D01*
Y463482D01*
X396839Y460898D01*
X398176Y458582D01*
X400068Y456690D01*
X402385Y455352D01*
X404969Y454660D01*
X407644D01*
X410228Y455352D01*
X412545Y456690D01*
X414437Y458582D01*
X415774Y460898D01*
X416466Y463482D01*
Y466158D01*
X415774Y468742D01*
X414437Y471058D01*
X412545Y472950D01*
X410228Y474288D01*
X407644Y474980D01*
D02*
G37*
G36*
X764440Y458370D02*
X762100D01*
X759839Y457765D01*
X757811Y456594D01*
X756156Y454939D01*
X754986Y452912D01*
X754380Y450651D01*
Y448310D01*
X754986Y446049D01*
X756156Y444022D01*
X757811Y442367D01*
X759839Y441196D01*
X762100Y440590D01*
X764440D01*
X766701Y441196D01*
X768729Y442367D01*
X770384Y444022D01*
X771554Y446049D01*
X772160Y448310D01*
Y450651D01*
X771554Y452912D01*
X770384Y454939D01*
X768729Y456594D01*
X766701Y457765D01*
X764440Y458370D01*
D02*
G37*
G36*
X920630Y457080D02*
X900550D01*
Y437000D01*
X920630D01*
Y457080D01*
D02*
G37*
G36*
X835560Y452120D02*
X833220D01*
X830959Y451514D01*
X828931Y450344D01*
X827276Y448689D01*
X826106Y446661D01*
X825500Y444400D01*
Y442060D01*
X826106Y439799D01*
X827276Y437771D01*
X828931Y436116D01*
X830959Y434946D01*
X833220Y434340D01*
X835560D01*
X837821Y434946D01*
X839849Y436116D01*
X841504Y437771D01*
X842674Y439799D01*
X843280Y442060D01*
Y444400D01*
X842674Y446661D01*
X841504Y448689D01*
X839849Y450344D01*
X837821Y451514D01*
X835560Y452120D01*
D02*
G37*
G36*
X314860Y448310D02*
X312520D01*
X310259Y447704D01*
X308231Y446534D01*
X306576Y444879D01*
X305406Y442851D01*
X304800Y440590D01*
Y438250D01*
X305406Y435989D01*
X306576Y433961D01*
X308231Y432306D01*
X310259Y431136D01*
X312520Y430530D01*
X314860D01*
X317121Y431136D01*
X319149Y432306D01*
X320804Y433961D01*
X321974Y435989D01*
X322580Y438250D01*
Y440590D01*
X321974Y442851D01*
X320804Y444879D01*
X319149Y446534D01*
X317121Y447704D01*
X314860Y448310D01*
D02*
G37*
G36*
X297080Y424180D02*
X294740D01*
X292479Y423574D01*
X290451Y422404D01*
X288796Y420749D01*
X287626Y418721D01*
X287020Y416460D01*
Y414120D01*
X287626Y411859D01*
X288796Y409831D01*
X290451Y408176D01*
X292479Y407006D01*
X294740Y406400D01*
X297080D01*
X299341Y407006D01*
X301369Y408176D01*
X303024Y409831D01*
X304194Y411859D01*
X304800Y414120D01*
Y416460D01*
X304194Y418721D01*
X303024Y420749D01*
X301369Y422404D01*
X299341Y423574D01*
X297080Y424180D01*
D02*
G37*
G36*
X250090Y410210D02*
X247750D01*
X245489Y409604D01*
X243461Y408434D01*
X241806Y406779D01*
X240636Y404751D01*
X240030Y402490D01*
Y400150D01*
X240636Y397889D01*
X241806Y395861D01*
X243461Y394206D01*
X245489Y393036D01*
X247750Y392430D01*
X250090D01*
X252351Y393036D01*
X254379Y394206D01*
X256034Y395861D01*
X257204Y397889D01*
X257810Y400150D01*
Y402490D01*
X257204Y404751D01*
X256034Y406779D01*
X254379Y408434D01*
X252351Y409604D01*
X250090Y410210D01*
D02*
G37*
G36*
X636771Y410045D02*
X634430D01*
X632169Y409439D01*
X630142Y408269D01*
X628486Y406613D01*
X627316Y404586D01*
X626710Y402325D01*
Y399984D01*
X627316Y397723D01*
X628486Y395696D01*
X630142Y394041D01*
X632169Y392871D01*
X634430Y392265D01*
X636771D01*
X639032Y392871D01*
X641059Y394041D01*
X642714Y395696D01*
X643884Y397723D01*
X644490Y399984D01*
Y402325D01*
X643884Y404586D01*
X642714Y406613D01*
X641059Y408269D01*
X639032Y409439D01*
X636771Y410045D01*
D02*
G37*
G36*
X656490Y409130D02*
X654150D01*
X651889Y408524D01*
X649861Y407354D01*
X648206Y405699D01*
X647036Y403671D01*
X646430Y401410D01*
Y399070D01*
X647036Y396809D01*
X648206Y394781D01*
X649861Y393126D01*
X651889Y391956D01*
X654150Y391350D01*
X656490D01*
X658751Y391956D01*
X660779Y393126D01*
X662434Y394781D01*
X663604Y396809D01*
X664210Y399070D01*
Y401410D01*
X663604Y403671D01*
X662434Y405699D01*
X660779Y407354D01*
X658751Y408524D01*
X656490Y409130D01*
D02*
G37*
G36*
X260350Y392430D02*
X258010D01*
X255749Y391824D01*
X253722Y390654D01*
X252066Y388999D01*
X250896Y386971D01*
X250290Y384710D01*
Y382370D01*
X250896Y380109D01*
X252066Y378081D01*
X253722Y376426D01*
X255749Y375256D01*
X258010Y374650D01*
X260350D01*
X262612Y375256D01*
X264639Y376426D01*
X266294Y378081D01*
X267464Y380109D01*
X268070Y382370D01*
Y384710D01*
X267464Y386971D01*
X266294Y388999D01*
X264639Y390654D01*
X262612Y391824D01*
X260350Y392430D01*
D02*
G37*
G36*
X505961Y377948D02*
X503620D01*
X501359Y377343D01*
X499332Y376172D01*
X497677Y374517D01*
X496506Y372490D01*
X495900Y370229D01*
Y367888D01*
X496506Y365627D01*
X497677Y363600D01*
X499332Y361945D01*
X501359Y360774D01*
X503620Y360168D01*
X505961D01*
X508222Y360774D01*
X510249Y361945D01*
X511904Y363600D01*
X513075Y365627D01*
X513680Y367888D01*
Y370229D01*
X513075Y372490D01*
X511904Y374517D01*
X510249Y376172D01*
X508222Y377343D01*
X505961Y377948D01*
D02*
G37*
G36*
X223420Y383540D02*
X221080D01*
X218819Y382934D01*
X216791Y381764D01*
X215136Y380109D01*
X213966Y378081D01*
X213360Y375820D01*
Y373480D01*
X213966Y371219D01*
X215136Y369191D01*
X216791Y367536D01*
X218819Y366366D01*
X221080Y365760D01*
X223420D01*
X225681Y366366D01*
X227709Y367536D01*
X228877Y368705D01*
X229364Y369191D01*
X230421Y368524D01*
X230068Y367913D01*
X229523Y366969D01*
X228918Y364708D01*
Y362367D01*
X229523Y360106D01*
X230694Y358079D01*
X232349Y356424D01*
X234376Y355253D01*
X236637Y354647D01*
X238978D01*
X241239Y355253D01*
X243266Y356424D01*
X244921Y358079D01*
X246092Y360106D01*
X246698Y362367D01*
Y364708D01*
X246092Y366969D01*
X244921Y368996D01*
X243266Y370651D01*
X241239Y371822D01*
X238978Y372427D01*
X236637D01*
X234376Y371822D01*
X232349Y370651D01*
X231180Y369483D01*
X230694Y368996D01*
X229637Y369664D01*
X229989Y370274D01*
X230534Y371219D01*
X231140Y373480D01*
Y375820D01*
X230534Y378081D01*
X229364Y380109D01*
X227709Y381764D01*
X225681Y382934D01*
X223420Y383540D01*
D02*
G37*
G36*
X261520Y372110D02*
X259180D01*
X256919Y371504D01*
X254891Y370334D01*
X253236Y368679D01*
X252066Y366651D01*
X251460Y364390D01*
Y362050D01*
X252066Y359789D01*
X253236Y357761D01*
X254891Y356106D01*
X256919Y354936D01*
X259180Y354330D01*
X261520D01*
X263781Y354936D01*
X265809Y356106D01*
X267464Y357761D01*
X268634Y359789D01*
X269240Y362050D01*
Y364390D01*
X268634Y366651D01*
X267464Y368679D01*
X265809Y370334D01*
X263781Y371504D01*
X261520Y372110D01*
D02*
G37*
G36*
X570130Y367030D02*
X567790D01*
X565529Y366424D01*
X563501Y365254D01*
X561846Y363599D01*
X560676Y361571D01*
X560070Y359310D01*
Y356970D01*
X560676Y354709D01*
X561846Y352681D01*
X563501Y351026D01*
X565529Y349856D01*
X567790Y349250D01*
X570130D01*
X572391Y349856D01*
X574419Y351026D01*
X576074Y352681D01*
X577244Y354709D01*
X577850Y356970D01*
Y359310D01*
X577244Y361571D01*
X576074Y363599D01*
X574419Y365254D01*
X572391Y366424D01*
X570130Y367030D01*
D02*
G37*
G36*
X337720Y384590D02*
X335380D01*
X333119Y383984D01*
X331091Y382814D01*
X329436Y381159D01*
X328266Y379131D01*
X327660Y376870D01*
Y374530D01*
X328266Y372269D01*
X329436Y370241D01*
X331091Y368586D01*
X333119Y367416D01*
X335159Y366869D01*
X335388Y366235D01*
X335397Y365540D01*
X334901Y365254D01*
X333246Y363599D01*
X332076Y361571D01*
X331470Y359310D01*
Y356970D01*
X332076Y354709D01*
X333246Y352681D01*
X334901Y351026D01*
X336929Y349856D01*
X339190Y349250D01*
X341530D01*
X343791Y349856D01*
X345819Y351026D01*
X347474Y352681D01*
X348644Y354709D01*
X349250Y356970D01*
Y359310D01*
X348644Y361571D01*
X347474Y363599D01*
X345819Y365254D01*
X343791Y366424D01*
X341751Y366971D01*
X341522Y367605D01*
X341513Y368300D01*
X342009Y368586D01*
X343664Y370241D01*
X344834Y372269D01*
X345440Y374530D01*
Y376870D01*
X344834Y379131D01*
X343664Y381159D01*
X342009Y382814D01*
X339981Y383984D01*
X337720Y384590D01*
D02*
G37*
G36*
X242470Y440690D02*
X240130D01*
X237869Y440084D01*
X235841Y438914D01*
X234186Y437259D01*
X233016Y435231D01*
X232410Y432970D01*
Y430630D01*
X233016Y428369D01*
X234186Y426341D01*
X235841Y424686D01*
X237869Y423516D01*
X240130Y422910D01*
X242470D01*
X244731Y423516D01*
X245486Y423951D01*
X349444Y319993D01*
X348958Y318820D01*
X333962D01*
X332971Y318623D01*
X332131Y318061D01*
X309494Y295424D01*
X308970Y294640D01*
X308710D01*
X306449Y294034D01*
X304421Y292864D01*
X302766Y291209D01*
X301596Y289181D01*
X300990Y286920D01*
Y284580D01*
X301596Y282319D01*
X302579Y280616D01*
X302301Y279564D01*
X302065Y279196D01*
X300564Y278794D01*
X298537Y277624D01*
X298423Y277510D01*
X296836Y277719D01*
X296154Y278901D01*
X294499Y280556D01*
X292472Y281726D01*
X290210Y282332D01*
X287870D01*
X285609Y281726D01*
X283582Y280556D01*
X281926Y278901D01*
X280756Y276874D01*
X280150Y274613D01*
Y272272D01*
X280756Y270011D01*
X281926Y267984D01*
X282023Y267887D01*
X281125Y266989D01*
X280563Y266149D01*
X280366Y265158D01*
Y251714D01*
Y170999D01*
X278775Y169407D01*
X278509Y169674D01*
X276481Y170844D01*
X274220Y171450D01*
X271880D01*
X269619Y170844D01*
X267591Y169674D01*
X265936Y168019D01*
X264766Y165991D01*
X264160Y163730D01*
Y161390D01*
X264766Y159129D01*
X265936Y157101D01*
X267591Y155446D01*
X269619Y154276D01*
X271880Y153670D01*
X274220D01*
X276481Y154276D01*
X278509Y155446D01*
X280164Y157101D01*
X281334Y159129D01*
X281940Y161390D01*
Y163730D01*
X281619Y164927D01*
X284787Y168095D01*
X285349Y168935D01*
X285546Y169926D01*
Y243802D01*
X286719Y244289D01*
X302814Y228194D01*
Y223172D01*
X303011Y222181D01*
X303573Y221340D01*
X326020Y198893D01*
X326860Y198331D01*
X327851Y198134D01*
X351200D01*
X352191Y198331D01*
X353031Y198893D01*
X353929Y199791D01*
X354142Y199578D01*
X356169Y198408D01*
X358430Y197802D01*
X360771D01*
X363032Y198408D01*
X365059Y199578D01*
X366714Y201234D01*
X367884Y203261D01*
X368362Y205044D01*
X369673Y205530D01*
X377643Y197559D01*
X378484Y196997D01*
X379475Y196800D01*
X607346D01*
X608337Y196997D01*
X609177Y197559D01*
X631478Y219860D01*
X632233Y219424D01*
X634494Y218819D01*
X636834D01*
X639096Y219424D01*
X641123Y220595D01*
X642778Y222250D01*
X643948Y224277D01*
X644554Y226538D01*
Y228879D01*
X643948Y231140D01*
X642778Y233167D01*
X641123Y234822D01*
X639096Y235993D01*
X636834Y236599D01*
X634494D01*
X632233Y235993D01*
X630206Y234822D01*
X628550Y233167D01*
X627380Y231140D01*
X626774Y228879D01*
Y226538D01*
X627380Y224277D01*
X627816Y223523D01*
X606273Y201980D01*
X437204D01*
X436621Y203250D01*
X437544Y204849D01*
X438150Y207110D01*
Y209450D01*
X437544Y211711D01*
X436374Y213739D01*
X434719Y215394D01*
X432691Y216564D01*
X430430Y217170D01*
X428090D01*
X425829Y216564D01*
X423801Y215394D01*
X422146Y213739D01*
X420976Y211711D01*
X420370Y209450D01*
Y207110D01*
X420976Y204849D01*
X421899Y203250D01*
X421316Y201980D01*
X380547D01*
X365114Y217413D01*
X364274Y217975D01*
X363355Y218158D01*
X362178Y219334D01*
X362614Y220089D01*
X363220Y222350D01*
Y224690D01*
X362614Y226951D01*
X361444Y228979D01*
X359789Y230634D01*
X357761Y231804D01*
X355500Y232410D01*
X353160D01*
X350899Y231804D01*
X348871Y230634D01*
X347216Y228979D01*
X346046Y226951D01*
X345440Y224690D01*
Y222350D01*
X346046Y220089D01*
X347216Y218061D01*
X348871Y216406D01*
X350899Y215236D01*
X353160Y214630D01*
X353170D01*
X353696Y213360D01*
X352486Y212151D01*
X351316Y210124D01*
X350710Y207863D01*
Y205522D01*
X351054Y204240D01*
X350127Y203314D01*
X328924D01*
X307994Y224244D01*
Y229266D01*
X307796Y230257D01*
X307235Y231098D01*
X305748Y232585D01*
X306449Y233680D01*
X308510D01*
X310771Y234286D01*
X312799Y235456D01*
X314454Y237111D01*
X315624Y239139D01*
X316230Y241400D01*
Y243740D01*
X315624Y246001D01*
X314454Y248029D01*
X312799Y249684D01*
X310771Y250854D01*
X308510Y251460D01*
X306170D01*
X303909Y250854D01*
X301881Y249684D01*
X300226Y248029D01*
X299056Y246001D01*
X298450Y243740D01*
Y241679D01*
X297355Y240978D01*
X285546Y252787D01*
Y264085D01*
X286405Y264945D01*
X287870Y264552D01*
X290210D01*
X292472Y265158D01*
X294499Y266329D01*
X294612Y266442D01*
X296199Y266233D01*
X296882Y265051D01*
X298537Y263396D01*
X300564Y262226D01*
X302825Y261620D01*
X305166D01*
X307427Y262226D01*
X309454Y263396D01*
X311109Y265051D01*
X312279Y267079D01*
X312505Y267920D01*
X369389D01*
X370381Y268117D01*
X371221Y268679D01*
X401351Y298809D01*
X402690Y298450D01*
X405030D01*
X407291Y299056D01*
X409319Y300226D01*
X410974Y301881D01*
X412144Y303909D01*
X412630Y305720D01*
X413683Y306279D01*
X414020Y306318D01*
X414171Y306217D01*
X415162Y306020D01*
X461207D01*
X481280Y285947D01*
Y283822D01*
X473830D01*
Y263743D01*
X493910D01*
Y283822D01*
X486460D01*
Y287020D01*
X486263Y288011D01*
X485701Y288851D01*
X464111Y310441D01*
X463271Y311003D01*
X462780Y311100D01*
X462905Y312370D01*
X609797D01*
X645360Y276808D01*
X644694Y275655D01*
X644010Y273102D01*
Y270458D01*
X644694Y267905D01*
X646016Y265615D01*
X647885Y263746D01*
X650175Y262424D01*
X652728Y261740D01*
X655372D01*
X657925Y262424D01*
X660215Y263746D01*
X662084Y265615D01*
X663406Y267905D01*
X664090Y270458D01*
Y273102D01*
X663406Y275655D01*
X662084Y277945D01*
X660215Y279814D01*
X657925Y281136D01*
X655372Y281820D01*
X652728D01*
X650175Y281136D01*
X649022Y280470D01*
X613840Y315653D01*
X614168Y316880D01*
X614745Y317034D01*
X617035Y318356D01*
X618904Y320225D01*
X620226Y322515D01*
X620910Y325068D01*
Y327712D01*
X620226Y330265D01*
X618904Y332555D01*
X617035Y334424D01*
X614745Y335746D01*
X612192Y336430D01*
X609548D01*
X606995Y335746D01*
X604705Y334424D01*
X602836Y332555D01*
X601514Y330265D01*
X600830Y327712D01*
Y325068D01*
X601514Y322515D01*
X602836Y320225D01*
X604241Y318820D01*
X603716Y317550D01*
X567225D01*
X566698Y318820D01*
X568104Y320225D01*
X569426Y322515D01*
X570110Y325068D01*
Y327712D01*
X569426Y330265D01*
X568104Y332555D01*
X566235Y334424D01*
X563945Y335746D01*
X561392Y336430D01*
X558748D01*
X556195Y335746D01*
X553905Y334424D01*
X552036Y332555D01*
X550714Y330265D01*
X550030Y327712D01*
Y325068D01*
X550714Y322515D01*
X552036Y320225D01*
X553442Y318820D01*
X552915Y317550D01*
X541824D01*
X541298Y318820D01*
X542704Y320225D01*
X544026Y322515D01*
X544710Y325068D01*
Y327712D01*
X544026Y330265D01*
X542704Y332555D01*
X540835Y334424D01*
X538545Y335746D01*
X535992Y336430D01*
X533348D01*
X530795Y335746D01*
X528505Y334424D01*
X526636Y332555D01*
X525314Y330265D01*
X524630Y327712D01*
Y325068D01*
X525314Y322515D01*
X526636Y320225D01*
X528041Y318820D01*
X527515Y317550D01*
X516424D01*
X515899Y318820D01*
X517304Y320225D01*
X518626Y322515D01*
X519310Y325068D01*
Y327712D01*
X518626Y330265D01*
X517304Y332555D01*
X515435Y334424D01*
X513145Y335746D01*
X510592Y336430D01*
X507948D01*
X505395Y335746D01*
X503105Y334424D01*
X501236Y332555D01*
X499914Y330265D01*
X499230Y327712D01*
Y325068D01*
X499914Y322515D01*
X501236Y320225D01*
X502641Y318820D01*
X502116Y317550D01*
X491025D01*
X490499Y318820D01*
X491904Y320225D01*
X493226Y322515D01*
X493910Y325068D01*
Y327712D01*
X493226Y330265D01*
X491904Y332555D01*
X490035Y334424D01*
X487745Y335746D01*
X485192Y336430D01*
X482548D01*
X479995Y335746D01*
X477705Y334424D01*
X475836Y332555D01*
X474514Y330265D01*
X473830Y327712D01*
Y325068D01*
X474514Y322515D01*
X475836Y320225D01*
X477242Y318820D01*
X476716Y317550D01*
X465625D01*
X465098Y318820D01*
X466504Y320225D01*
X467826Y322515D01*
X468510Y325068D01*
Y327712D01*
X467826Y330265D01*
X466504Y332555D01*
X464635Y334424D01*
X462345Y335746D01*
X459792Y336430D01*
X457148D01*
X454595Y335746D01*
X452305Y334424D01*
X450436Y332555D01*
X449114Y330265D01*
X448430Y327712D01*
Y325068D01*
X449114Y322515D01*
X450436Y320225D01*
X451842Y318820D01*
X451315Y317550D01*
X440224D01*
X439698Y318820D01*
X441104Y320225D01*
X442426Y322515D01*
X443110Y325068D01*
Y327712D01*
X442426Y330265D01*
X441104Y332555D01*
X439235Y334424D01*
X436945Y335746D01*
X434392Y336430D01*
X431748D01*
X429195Y335746D01*
X426905Y334424D01*
X425036Y332555D01*
X423714Y330265D01*
X423030Y327712D01*
Y325068D01*
X423413Y323637D01*
X422640Y322630D01*
X399978D01*
X399638Y323900D01*
X400429Y324356D01*
X402084Y326011D01*
X403254Y328039D01*
X403860Y330300D01*
Y332640D01*
X403254Y334901D01*
X402458Y336281D01*
X403294Y337371D01*
X404467Y337057D01*
X406808D01*
X409069Y337663D01*
X411096Y338834D01*
X412751Y340489D01*
X413922Y342516D01*
X414527Y344777D01*
Y347118D01*
X413922Y349379D01*
X412751Y351406D01*
X411096Y353061D01*
X409069Y354231D01*
X406808Y354837D01*
X404467D01*
X402206Y354231D01*
X400179Y353061D01*
X398524Y351406D01*
X397353Y349379D01*
X396747Y347118D01*
Y344777D01*
X397353Y342516D01*
X398150Y341136D01*
X397313Y340046D01*
X396140Y340360D01*
X393800D01*
X391539Y339754D01*
X389511Y338584D01*
X387856Y336929D01*
X386686Y334901D01*
X386080Y332640D01*
Y330300D01*
X386686Y328039D01*
X387856Y326011D01*
X389511Y324356D01*
X390302Y323900D01*
X389962Y322630D01*
X354133D01*
X249149Y427614D01*
X249584Y428369D01*
X250190Y430630D01*
Y432970D01*
X249584Y435231D01*
X248414Y437259D01*
X246759Y438914D01*
X244731Y440084D01*
X242470Y440690D01*
D02*
G37*
G36*
X757426Y343279D02*
X755086D01*
X752824Y342673D01*
X750797Y341502D01*
X749142Y339847D01*
X747972Y337820D01*
X747366Y335559D01*
Y333218D01*
X747972Y330957D01*
X749142Y328930D01*
X750797Y327275D01*
X752824Y326104D01*
X755086Y325499D01*
X757426D01*
X759687Y326104D01*
X761714Y327275D01*
X763370Y328930D01*
X764540Y330957D01*
X765146Y333218D01*
Y335559D01*
X764540Y337820D01*
X763370Y339847D01*
X761714Y341502D01*
X759687Y342673D01*
X757426Y343279D01*
D02*
G37*
G36*
X250090Y331470D02*
X247750D01*
X245489Y330864D01*
X243461Y329694D01*
X241806Y328039D01*
X240636Y326011D01*
X240030Y323750D01*
Y323614D01*
X238760Y322655D01*
X237410Y323016D01*
X235069D01*
X232808Y322411D01*
X230781Y321240D01*
X229126Y319585D01*
X227955Y317558D01*
X227349Y315297D01*
Y312956D01*
X227955Y310695D01*
X229126Y308668D01*
X230781Y307013D01*
X232808Y305842D01*
X235069Y305236D01*
X237410D01*
X239671Y305842D01*
X241698Y307013D01*
X243353Y308668D01*
X244524Y310695D01*
X244632Y311100D01*
X261630D01*
X262621Y311297D01*
X263461Y311859D01*
X263972Y312370D01*
X279780D01*
X280006Y311529D01*
X281176Y309501D01*
X282831Y307846D01*
X284859Y306676D01*
X287120Y306070D01*
X289460D01*
X291721Y306676D01*
X293749Y307846D01*
X295404Y309501D01*
X296574Y311529D01*
X297180Y313790D01*
Y316130D01*
X296574Y318391D01*
X295404Y320419D01*
X293749Y322074D01*
X291721Y323244D01*
X289460Y323850D01*
X287120D01*
X284859Y323244D01*
X282831Y322074D01*
X281176Y320419D01*
X280006Y318391D01*
X279780Y317550D01*
X262900D01*
X261909Y317353D01*
X261068Y316791D01*
X260557Y316280D01*
X256864D01*
X256281Y317550D01*
X257204Y319149D01*
X257810Y321410D01*
Y323750D01*
X257204Y326011D01*
X256034Y328039D01*
X254379Y329694D01*
X252351Y330864D01*
X250090Y331470D01*
D02*
G37*
G36*
X195480Y339090D02*
X193140D01*
X190879Y338484D01*
X188851Y337314D01*
X187196Y335659D01*
X186026Y333631D01*
X185420Y331370D01*
Y329030D01*
X186026Y326769D01*
X187196Y324741D01*
X188851Y323086D01*
X190879Y321916D01*
X193140Y321310D01*
X195480D01*
X197741Y321916D01*
X199769Y323086D01*
X201424Y324741D01*
X202594Y326769D01*
X203200Y329030D01*
Y331370D01*
X202594Y333631D01*
X201424Y335659D01*
X199769Y337314D01*
X197741Y338484D01*
X195480Y339090D01*
D02*
G37*
G36*
X509170Y355600D02*
X506830D01*
X504569Y354994D01*
X502541Y353824D01*
X500886Y352169D01*
X499716Y350141D01*
X499110Y347880D01*
Y345540D01*
X499716Y343279D01*
X500886Y341251D01*
X502541Y339596D01*
X504569Y338426D01*
X506830Y337820D01*
X509170D01*
X511431Y338426D01*
X513459Y339596D01*
X515114Y341251D01*
X515304Y341580D01*
X642817D01*
X651630Y332767D01*
Y316350D01*
X671710D01*
Y336430D01*
X655293D01*
X645721Y346001D01*
X644881Y346563D01*
X643890Y346760D01*
X516890D01*
Y347880D01*
X516284Y350141D01*
X515114Y352169D01*
X513459Y353824D01*
X511431Y354994D01*
X509170Y355600D01*
D02*
G37*
G36*
X637592Y336430D02*
X634948D01*
X632395Y335746D01*
X630105Y334424D01*
X628236Y332555D01*
X626914Y330265D01*
X626230Y327712D01*
Y325068D01*
X626914Y322515D01*
X628236Y320225D01*
X630105Y318356D01*
X632395Y317034D01*
X634948Y316350D01*
X637592D01*
X640145Y317034D01*
X642435Y318356D01*
X644304Y320225D01*
X645626Y322515D01*
X646310Y325068D01*
Y327712D01*
X645626Y330265D01*
X644304Y332555D01*
X642435Y334424D01*
X640145Y335746D01*
X637592Y336430D01*
D02*
G37*
G36*
X459792Y283822D02*
X457148D01*
X454595Y283138D01*
X452305Y281817D01*
X450436Y279947D01*
X449114Y277658D01*
X448430Y275104D01*
Y272461D01*
X449114Y269907D01*
X450436Y267618D01*
X452305Y265749D01*
X454595Y264427D01*
X457148Y263743D01*
X459792D01*
X462345Y264427D01*
X464635Y265749D01*
X466504Y267618D01*
X467826Y269907D01*
X468510Y272461D01*
Y275104D01*
X467826Y277658D01*
X466504Y279947D01*
X464635Y281817D01*
X462345Y283138D01*
X459792Y283822D01*
D02*
G37*
G36*
X434392D02*
X431748D01*
X429195Y283138D01*
X426905Y281817D01*
X425036Y279947D01*
X423714Y277658D01*
X423030Y275104D01*
Y272461D01*
X423714Y269907D01*
X425036Y267618D01*
X426905Y265749D01*
X429195Y264427D01*
X431748Y263743D01*
X434392D01*
X436945Y264427D01*
X439235Y265749D01*
X441104Y267618D01*
X442426Y269907D01*
X443110Y272461D01*
Y275104D01*
X442426Y277658D01*
X441104Y279947D01*
X439235Y281817D01*
X436945Y283138D01*
X434392Y283822D01*
D02*
G37*
G36*
X594240Y283090D02*
X574160D01*
Y263010D01*
X594240D01*
Y283090D01*
D02*
G37*
G36*
X560122D02*
X557478D01*
X554925Y282406D01*
X552635Y281084D01*
X550766Y279215D01*
X549444Y276925D01*
X548760Y274372D01*
Y271728D01*
X549444Y269175D01*
X550766Y266885D01*
X552635Y265016D01*
X554925Y263694D01*
X557478Y263010D01*
X560122D01*
X562675Y263694D01*
X564965Y265016D01*
X566834Y266885D01*
X568156Y269175D01*
X568840Y271728D01*
Y274372D01*
X568156Y276925D01*
X566834Y279215D01*
X564965Y281084D01*
X562675Y282406D01*
X560122Y283090D01*
D02*
G37*
G36*
X534722D02*
X532078D01*
X529525Y282406D01*
X527235Y281084D01*
X525366Y279215D01*
X524044Y276925D01*
X523360Y274372D01*
Y271728D01*
X524044Y269175D01*
X525366Y266885D01*
X527235Y265016D01*
X529525Y263694D01*
X532078Y263010D01*
X534722D01*
X537275Y263694D01*
X539565Y265016D01*
X541434Y266885D01*
X542756Y269175D01*
X543440Y271728D01*
Y274372D01*
X542756Y276925D01*
X541434Y279215D01*
X539565Y281084D01*
X537275Y282406D01*
X534722Y283090D01*
D02*
G37*
G36*
X689490Y281820D02*
X669410D01*
Y261740D01*
X689490D01*
Y281820D01*
D02*
G37*
G36*
X629972D02*
X627328D01*
X624775Y281136D01*
X622485Y279814D01*
X620616Y277945D01*
X619294Y275655D01*
X618610Y273102D01*
Y270458D01*
X619294Y267905D01*
X620616Y265615D01*
X622485Y263746D01*
X624775Y262424D01*
X627328Y261740D01*
X629972D01*
X632525Y262424D01*
X634815Y263746D01*
X636684Y265615D01*
X638006Y267905D01*
X638690Y270458D01*
Y273102D01*
X638006Y275655D01*
X636684Y277945D01*
X634815Y279814D01*
X632525Y281136D01*
X629972Y281820D01*
D02*
G37*
G36*
X394870Y279400D02*
X392530D01*
X390269Y278794D01*
X388241Y277624D01*
X386586Y275969D01*
X385416Y273941D01*
X384810Y271680D01*
Y269340D01*
X385416Y267079D01*
X386586Y265051D01*
X388241Y263396D01*
X390269Y262226D01*
X392530Y261620D01*
X394870D01*
X397131Y262226D01*
X399159Y263396D01*
X400814Y265051D01*
X401984Y267079D01*
X402590Y269340D01*
Y271680D01*
X401984Y273941D01*
X400814Y275969D01*
X399159Y277624D01*
X397131Y278794D01*
X394870Y279400D01*
D02*
G37*
G36*
X918090Y267850D02*
X898010D01*
Y247770D01*
X918090D01*
Y267850D01*
D02*
G37*
G36*
X245010Y261620D02*
X242670D01*
X240409Y261014D01*
X238381Y259844D01*
X236726Y258189D01*
X235556Y256161D01*
X234950Y253900D01*
Y251560D01*
X235556Y249299D01*
X236726Y247271D01*
X238381Y245616D01*
X240409Y244446D01*
X242670Y243840D01*
X245010D01*
X247271Y244446D01*
X249299Y245616D01*
X250954Y247271D01*
X252124Y249299D01*
X252730Y251560D01*
Y253900D01*
X252124Y256161D01*
X250954Y258189D01*
X249299Y259844D01*
X247271Y261014D01*
X245010Y261620D01*
D02*
G37*
G36*
X377090Y260350D02*
X374750D01*
X372489Y259744D01*
X370461Y258574D01*
X368806Y256919D01*
X367636Y254891D01*
X367030Y252630D01*
Y250290D01*
X367636Y248029D01*
X368806Y246001D01*
X370461Y244346D01*
X372489Y243176D01*
X374750Y242570D01*
X377090D01*
X379351Y243176D01*
X381379Y244346D01*
X383034Y246001D01*
X384204Y248029D01*
X384810Y250290D01*
Y252630D01*
X384204Y254891D01*
X383034Y256919D01*
X381379Y258574D01*
X379351Y259744D01*
X377090Y260350D01*
D02*
G37*
G36*
X326290Y590550D02*
X323950D01*
X321689Y589944D01*
X319661Y588774D01*
X318006Y587119D01*
X316836Y585091D01*
X316230Y582830D01*
Y580490D01*
X316836Y578229D01*
X318006Y576201D01*
X319661Y574546D01*
X321689Y573376D01*
X323950Y572770D01*
X326290D01*
X328551Y573376D01*
X330579Y574546D01*
X332234Y576201D01*
X333404Y578229D01*
X333630Y579070D01*
X351537D01*
X351704Y577800D01*
X349629Y577244D01*
X347601Y576074D01*
X345946Y574419D01*
X344776Y572391D01*
X344170Y570130D01*
Y567790D01*
X344776Y565529D01*
X345946Y563501D01*
X347601Y561846D01*
X349629Y560676D01*
X351890Y560070D01*
X354230D01*
X356491Y560676D01*
X358519Y561846D01*
X360174Y563501D01*
X361344Y565529D01*
X361570Y566370D01*
X364929D01*
X370910Y560389D01*
Y558451D01*
X371107Y557460D01*
X371669Y556620D01*
X382870Y545419D01*
X383710Y544857D01*
X384701Y544660D01*
X391605D01*
X400886Y535379D01*
X401727Y534817D01*
X402718Y534620D01*
X535623D01*
X545387Y524856D01*
X544951Y524101D01*
X544345Y521840D01*
Y519500D01*
X544951Y517239D01*
X546122Y515211D01*
X547777Y513556D01*
X549804Y512386D01*
X552065Y511780D01*
X554406D01*
X556667Y512386D01*
X558694Y513556D01*
X560349Y515211D01*
X561520Y517239D01*
X562125Y519500D01*
Y521840D01*
X561520Y524101D01*
X560349Y526129D01*
X558694Y527784D01*
X556667Y528954D01*
X554406Y529560D01*
X552065D01*
X549804Y528954D01*
X549049Y528518D01*
X538527Y539041D01*
X537687Y539603D01*
X536695Y539800D01*
X414344D01*
X413761Y541070D01*
X414684Y542669D01*
X415290Y544930D01*
Y547270D01*
X414684Y549531D01*
X413514Y551559D01*
X411859Y553214D01*
X409831Y554384D01*
X407570Y554990D01*
X405230D01*
X402969Y554384D01*
X400941Y553214D01*
X399286Y551559D01*
X398116Y549531D01*
X397638Y547748D01*
X396328Y547263D01*
X394509Y549081D01*
X393669Y549643D01*
X392678Y549840D01*
X385774D01*
X376090Y559524D01*
Y561461D01*
X375893Y562452D01*
X375331Y563293D01*
X367833Y570791D01*
X366992Y571353D01*
X366001Y571550D01*
X361570D01*
X361344Y572391D01*
X360174Y574419D01*
X358519Y576074D01*
X356491Y577244D01*
X354416Y577800D01*
X354583Y579070D01*
X362147D01*
X367739Y573479D01*
X368579Y572917D01*
X369570Y572720D01*
X381822D01*
X382348Y571450D01*
X381506Y570609D01*
X380336Y568581D01*
X379730Y566320D01*
Y563980D01*
X380336Y561719D01*
X381506Y559691D01*
X383161Y558036D01*
X385189Y556866D01*
X387450Y556260D01*
X389790D01*
X392051Y556866D01*
X394079Y558036D01*
X395734Y559691D01*
X396904Y561719D01*
X397510Y563980D01*
Y566320D01*
X396904Y568581D01*
X395734Y570609D01*
X394892Y571450D01*
X395418Y572720D01*
X451088D01*
X455410Y568399D01*
X456250Y567837D01*
X457241Y567640D01*
X538760D01*
X578313Y528087D01*
X577554Y527050D01*
X575410D01*
X573149Y526444D01*
X571121Y525274D01*
X569466Y523619D01*
X568296Y521591D01*
X567690Y519330D01*
Y516990D01*
X568296Y514729D01*
X569466Y512701D01*
X571121Y511046D01*
X573149Y509876D01*
X575410Y509270D01*
X577750D01*
X580011Y509876D01*
X582039Y511046D01*
X583694Y512701D01*
X584864Y514729D01*
X585470Y516990D01*
Y519134D01*
X586507Y519893D01*
X589982Y516417D01*
X589986Y516399D01*
X590547Y515559D01*
X782270Y323837D01*
Y315850D01*
X781429Y315624D01*
X779401Y314454D01*
X777746Y312799D01*
X776576Y310771D01*
X775970Y308510D01*
Y306170D01*
X776576Y303909D01*
X777746Y301881D01*
X779401Y300226D01*
X781429Y299056D01*
X783690Y298450D01*
X786030D01*
X788291Y299056D01*
X790319Y300226D01*
X791974Y301881D01*
X793144Y303909D01*
X793750Y306170D01*
Y308510D01*
X793144Y310771D01*
X791974Y312799D01*
X790319Y314454D01*
X788291Y315624D01*
X787450Y315850D01*
Y324909D01*
X787253Y325900D01*
X786691Y326740D01*
X601637Y511795D01*
X602294Y512934D01*
X602491Y512881D01*
X604831D01*
X607092Y513487D01*
X609120Y514657D01*
X610775Y516312D01*
X611945Y518340D01*
X612164Y519155D01*
X613580Y519535D01*
X844500Y288615D01*
Y216293D01*
X843400Y215658D01*
X843269Y215734D01*
X840970Y216350D01*
X838590D01*
X836291Y215734D01*
X834229Y214544D01*
X832546Y212861D01*
X832330Y212486D01*
X832304Y212476D01*
X830889Y212530D01*
X830651Y212886D01*
X815390Y228147D01*
Y243587D01*
X816660Y243754D01*
X817216Y241679D01*
X818386Y239651D01*
X820041Y237996D01*
X822069Y236826D01*
X824330Y236220D01*
X826670D01*
X828931Y236826D01*
X830959Y237996D01*
X832614Y239651D01*
X833784Y241679D01*
X834390Y243940D01*
Y246280D01*
X833936Y247975D01*
X835725Y248454D01*
X838015Y249776D01*
X839884Y251645D01*
X841206Y253935D01*
X841890Y256488D01*
Y259132D01*
X841206Y261685D01*
X839884Y263975D01*
X838015Y265844D01*
X835725Y267166D01*
X833172Y267850D01*
X830528D01*
X827975Y267166D01*
X825685Y265844D01*
X823816Y263975D01*
X822494Y261685D01*
X821810Y259132D01*
Y256488D01*
X822494Y253935D01*
X821522Y253079D01*
X820041Y252224D01*
X818386Y250569D01*
X817216Y248541D01*
X816660Y246466D01*
X815390Y246633D01*
Y252730D01*
X815193Y253721D01*
X814631Y254561D01*
X736530Y332663D01*
Y365880D01*
X736333Y366871D01*
X735771Y367711D01*
X606351Y497131D01*
X605511Y497693D01*
X604520Y497890D01*
X599060D01*
X598834Y498731D01*
X597664Y500759D01*
X596009Y502414D01*
X593981Y503584D01*
X591720Y504190D01*
X589380D01*
X587119Y503584D01*
X585091Y502414D01*
X583436Y500759D01*
X582266Y498731D01*
X581660Y496470D01*
Y494130D01*
X582266Y491869D01*
X583436Y489841D01*
X585091Y488186D01*
X587119Y487016D01*
X589380Y486410D01*
X591720D01*
X593981Y487016D01*
X595243Y487744D01*
X595368Y487816D01*
X596148Y486800D01*
X596026Y486679D01*
X594754Y485406D01*
X593583Y483379D01*
X592978Y481118D01*
Y478777D01*
X593583Y476516D01*
X594754Y474489D01*
X596409Y472834D01*
X598436Y471663D01*
X600697Y471058D01*
X603038D01*
X605299Y471663D01*
X607326Y472834D01*
X608981Y474489D01*
X610152Y476516D01*
X610758Y478777D01*
Y481118D01*
X610152Y483379D01*
X608981Y485406D01*
X609898Y486260D01*
X731350Y364807D01*
Y331590D01*
X731547Y330599D01*
X732109Y329759D01*
X810210Y251657D01*
Y227075D01*
X810407Y226084D01*
X810969Y225243D01*
X817616Y218596D01*
X817201Y217215D01*
X817200Y217215D01*
X656664Y377751D01*
X655824Y378313D01*
X654833Y378510D01*
X652400D01*
X652174Y379351D01*
X651004Y381379D01*
X649349Y383034D01*
X647321Y384204D01*
X645060Y384810D01*
X642720D01*
X640459Y384204D01*
X638431Y383034D01*
X636776Y381379D01*
X635606Y379351D01*
X635000Y377090D01*
Y374750D01*
X635606Y372489D01*
X636776Y370461D01*
X638431Y368806D01*
X640459Y367636D01*
X642720Y367030D01*
X645060D01*
X647321Y367636D01*
X649349Y368806D01*
X651004Y370461D01*
X652174Y372489D01*
X652400Y373330D01*
X653760D01*
X813388Y213703D01*
X812546Y212861D01*
X811356Y210800D01*
X810740Y208500D01*
Y206120D01*
X811356Y203821D01*
X812546Y201759D01*
X814229Y200076D01*
X816291Y198886D01*
X818590Y198270D01*
X820970D01*
X823269Y198886D01*
X824960Y199863D01*
X826230Y199321D01*
Y164320D01*
X826427Y163329D01*
X826989Y162489D01*
X847040Y142437D01*
Y139320D01*
X846199Y139094D01*
X844171Y137924D01*
X842516Y136269D01*
X841346Y134241D01*
X840740Y131980D01*
Y129640D01*
X841346Y127379D01*
X842516Y125351D01*
X844171Y123696D01*
X846199Y122526D01*
X848460Y121920D01*
X850800D01*
X853061Y122526D01*
X855089Y123696D01*
X855920Y124528D01*
X857190Y124002D01*
Y75975D01*
X856291Y75734D01*
X854229Y74544D01*
X852546Y72861D01*
X851356Y70799D01*
X850740Y68500D01*
Y66120D01*
X851356Y63821D01*
X852546Y61759D01*
X854229Y60076D01*
X856291Y58886D01*
X858590Y58270D01*
X860970D01*
X863269Y58886D01*
X865331Y60076D01*
X867014Y61759D01*
X868204Y63821D01*
X868820Y66120D01*
Y68500D01*
X868204Y70799D01*
X867014Y72861D01*
X865331Y74544D01*
X863269Y75734D01*
X862370Y75975D01*
Y156220D01*
X862172Y157211D01*
X861611Y158051D01*
X853490Y166173D01*
Y199113D01*
X854760Y199770D01*
X856291Y198886D01*
X858590Y198270D01*
X860970D01*
X863269Y198886D01*
X865331Y200076D01*
X867014Y201759D01*
X868204Y203821D01*
X868820Y206120D01*
Y208500D01*
X868204Y210800D01*
X867014Y212861D01*
X865331Y214544D01*
X863269Y215734D01*
X860970Y216350D01*
X858590D01*
X856291Y215734D01*
X854229Y214544D01*
X852546Y212861D01*
X852383Y212579D01*
X851124Y212413D01*
X849680Y213857D01*
Y249522D01*
X850853Y250008D01*
X851085Y249776D01*
X853375Y248454D01*
X854660Y248110D01*
Y229840D01*
X854857Y228849D01*
X855419Y228009D01*
X871822Y211606D01*
X871356Y210800D01*
X870740Y208500D01*
Y206120D01*
X871356Y203821D01*
X872546Y201759D01*
X874229Y200076D01*
X876291Y198886D01*
X878590Y198270D01*
X880970D01*
X883269Y198886D01*
X885061Y199921D01*
X886331Y199453D01*
Y145099D01*
X886528Y144108D01*
X887090Y143268D01*
X888054Y142303D01*
X887066Y140591D01*
X886460Y138330D01*
Y135990D01*
X887066Y133729D01*
X888236Y131701D01*
X889891Y130046D01*
X891919Y128876D01*
X894180Y128270D01*
X896520D01*
X898781Y128876D01*
X900809Y130046D01*
X902464Y131701D01*
X903634Y133729D01*
X904240Y135990D01*
Y138330D01*
X903634Y140591D01*
X902464Y142619D01*
X900809Y144274D01*
X898781Y145444D01*
X896520Y146050D01*
X894180D01*
X892549Y145613D01*
X891511Y146484D01*
Y186421D01*
X892781Y186947D01*
X893801Y185926D01*
X895828Y184756D01*
X898089Y184150D01*
X900430D01*
X902691Y184756D01*
X904718Y185926D01*
X906373Y187581D01*
X907544Y189609D01*
X908150Y191870D01*
Y194210D01*
X907544Y196471D01*
X906373Y198499D01*
X905916Y198956D01*
X905839Y199090D01*
X905163Y199867D01*
X905349Y200070D01*
X905918Y200606D01*
X906059Y200805D01*
X907014Y201759D01*
X908204Y203821D01*
X908820Y206120D01*
Y208500D01*
X908204Y210800D01*
X907014Y212861D01*
X905330Y214544D01*
X903269Y215734D01*
X900970Y216350D01*
X898590D01*
X896291Y215734D01*
X894229Y214544D01*
X892781Y213095D01*
X891511Y213427D01*
Y235363D01*
X895911Y239763D01*
X896473Y240604D01*
X896670Y241595D01*
Y522090D01*
X896672D01*
X899225Y522774D01*
X901515Y524096D01*
X903384Y525965D01*
X904706Y528255D01*
X905390Y530808D01*
Y533452D01*
X904706Y536005D01*
X903384Y538295D01*
X901515Y540164D01*
X899225Y541486D01*
X896672Y542170D01*
X894028D01*
X891475Y541486D01*
X889185Y540164D01*
X887316Y538295D01*
X885994Y536005D01*
X885310Y533452D01*
Y530808D01*
X885994Y528255D01*
X887316Y525965D01*
X889185Y524096D01*
X891475Y522774D01*
X891490Y522770D01*
Y264965D01*
X890220Y264438D01*
X888815Y265844D01*
X886525Y267166D01*
X883972Y267850D01*
X881328D01*
X878775Y267166D01*
X876485Y265844D01*
X874616Y263975D01*
X873294Y261685D01*
X872610Y259132D01*
Y256488D01*
X873294Y253935D01*
X874616Y251645D01*
X876485Y249776D01*
X878775Y248454D01*
X881328Y247770D01*
X883972D01*
X886525Y248454D01*
X888815Y249776D01*
X890220Y251182D01*
X891490Y250655D01*
Y242667D01*
X887090Y238267D01*
X886528Y237426D01*
X886331Y236436D01*
Y215168D01*
X885061Y214700D01*
X883269Y215734D01*
X880970Y216350D01*
X878590D01*
X876291Y215734D01*
X875484Y215268D01*
X859840Y230913D01*
Y248110D01*
X861125Y248454D01*
X863415Y249776D01*
X865284Y251645D01*
X866606Y253935D01*
X867290Y256488D01*
Y259132D01*
X866606Y261685D01*
X865284Y263975D01*
X863415Y265844D01*
X861125Y267166D01*
X858572Y267850D01*
X855928D01*
X853375Y267166D01*
X851085Y265844D01*
X850853Y265612D01*
X849680Y266098D01*
Y289688D01*
X849483Y290679D01*
X848921Y291519D01*
X846113Y294328D01*
X846770Y295466D01*
X847775Y295197D01*
X850116D01*
X852377Y295803D01*
X854404Y296973D01*
X856059Y298628D01*
X857230Y300655D01*
X857835Y302917D01*
Y305257D01*
X857230Y307518D01*
X856059Y309545D01*
X854404Y311201D01*
X852377Y312371D01*
X850116Y312977D01*
X847775D01*
X845514Y312371D01*
X843487Y311201D01*
X841832Y309545D01*
X840661Y307518D01*
X840055Y305257D01*
Y302917D01*
X840325Y301912D01*
X839186Y301254D01*
X681883Y458558D01*
X682368Y459868D01*
X684151Y460346D01*
X686179Y461516D01*
X687834Y463171D01*
X689004Y465199D01*
X689610Y467460D01*
Y469800D01*
X689004Y472061D01*
X687834Y474089D01*
X686179Y475744D01*
X684151Y476914D01*
X681890Y477520D01*
X679550D01*
X677289Y476914D01*
X675261Y475744D01*
X673606Y474089D01*
X672436Y472061D01*
X671958Y470278D01*
X670648Y469793D01*
X615908Y524532D01*
X615068Y525094D01*
X614077Y525291D01*
X611894D01*
X610775Y527230D01*
X609120Y528885D01*
X607092Y530055D01*
X606101Y530321D01*
X606268Y531591D01*
X607660D01*
X609921Y532197D01*
X611949Y533367D01*
X613604Y535022D01*
X614774Y537049D01*
X615380Y539311D01*
Y541651D01*
X614774Y543912D01*
X613604Y545939D01*
X611949Y547595D01*
X609921Y548765D01*
X607660Y549371D01*
X605320D01*
X603059Y548765D01*
X601031Y547595D01*
X599376Y545939D01*
X598206Y543912D01*
X597600Y541651D01*
Y539311D01*
X598206Y537049D01*
X599376Y535022D01*
X601031Y533367D01*
X603059Y532197D01*
X604050Y531931D01*
X603883Y530661D01*
X602491D01*
X600230Y530055D01*
X598202Y528885D01*
X596547Y527230D01*
X595377Y525202D01*
X594771Y522941D01*
Y520750D01*
X594406Y520462D01*
X593578Y520147D01*
X541664Y572061D01*
X540824Y572623D01*
X539832Y572820D01*
X488004D01*
X487421Y574090D01*
X488344Y575689D01*
X488950Y577950D01*
Y580290D01*
X488344Y582551D01*
X487174Y584579D01*
X485519Y586234D01*
X483491Y587404D01*
X481230Y588010D01*
X478890D01*
X476629Y587404D01*
X474601Y586234D01*
X472946Y584579D01*
X471776Y582551D01*
X471170Y580290D01*
Y577950D01*
X471776Y575689D01*
X472699Y574090D01*
X472116Y572820D01*
X458314D01*
X453993Y577141D01*
X453152Y577703D01*
X452161Y577900D01*
X370643D01*
X365051Y583491D01*
X364211Y584053D01*
X363220Y584250D01*
X333630D01*
X333404Y585091D01*
X332234Y587119D01*
X330579Y588774D01*
X328551Y589944D01*
X326290Y590550D01*
D02*
G37*
G36*
X594260Y233680D02*
X591920D01*
X589659Y233074D01*
X587631Y231904D01*
X585976Y230249D01*
X584806Y228221D01*
X584200Y225960D01*
Y223620D01*
X584806Y221359D01*
X585976Y219331D01*
X587631Y217676D01*
X589659Y216506D01*
X591920Y215900D01*
X594260D01*
X596521Y216506D01*
X598549Y217676D01*
X600204Y219331D01*
X601374Y221359D01*
X601980Y223620D01*
Y225960D01*
X601374Y228221D01*
X600204Y230249D01*
X598549Y231904D01*
X596521Y233074D01*
X594260Y233680D01*
D02*
G37*
G36*
X518060Y232410D02*
X515720D01*
X513459Y231804D01*
X511431Y230634D01*
X509776Y228979D01*
X508606Y226951D01*
X508000Y224690D01*
Y222350D01*
X508606Y220089D01*
X509776Y218061D01*
X511431Y216406D01*
X513459Y215236D01*
X515720Y214630D01*
X518060D01*
X520321Y215236D01*
X522349Y216406D01*
X524004Y218061D01*
X525174Y220089D01*
X525780Y222350D01*
Y224690D01*
X525174Y226951D01*
X524004Y228979D01*
X522349Y230634D01*
X520321Y231804D01*
X518060Y232410D01*
D02*
G37*
G36*
X723780Y227210D02*
X703700D01*
Y207130D01*
X723780D01*
Y227210D01*
D02*
G37*
G36*
X224690Y224790D02*
X222350D01*
X220089Y224184D01*
X218061Y223014D01*
X216406Y221359D01*
X215236Y219331D01*
X214630Y217070D01*
Y214730D01*
X215236Y212469D01*
X216406Y210441D01*
X218061Y208786D01*
X220089Y207616D01*
X222350Y207010D01*
X224690D01*
X226951Y207616D01*
X228979Y208786D01*
X230634Y210441D01*
X231804Y212469D01*
X232410Y214730D01*
Y217070D01*
X231804Y219331D01*
X230634Y221359D01*
X228979Y223014D01*
X226951Y224184D01*
X224690Y224790D01*
D02*
G37*
G36*
X800970Y216350D02*
X798590D01*
X796291Y215734D01*
X794229Y214544D01*
X792546Y212861D01*
X791356Y210800D01*
X790740Y208500D01*
Y206120D01*
X791356Y203821D01*
X792546Y201759D01*
X794229Y200076D01*
X796291Y198886D01*
X798590Y198270D01*
X800970D01*
X803269Y198886D01*
X805331Y200076D01*
X807014Y201759D01*
X808204Y203821D01*
X808820Y206120D01*
Y208500D01*
X808204Y210800D01*
X807014Y212861D01*
X805331Y214544D01*
X803269Y215734D01*
X800970Y216350D01*
D02*
G37*
G36*
X780970D02*
X778590D01*
X776291Y215734D01*
X774229Y214544D01*
X772546Y212861D01*
X771356Y210800D01*
X770740Y208500D01*
Y206120D01*
X771356Y203821D01*
X772546Y201759D01*
X774229Y200076D01*
X776291Y198886D01*
X778590Y198270D01*
X780970D01*
X783269Y198886D01*
X785331Y200076D01*
X787014Y201759D01*
X788204Y203821D01*
X788820Y206120D01*
Y208500D01*
X788204Y210800D01*
X787014Y212861D01*
X785331Y214544D01*
X783269Y215734D01*
X780970Y216350D01*
D02*
G37*
G36*
X309145Y210185D02*
X306805D01*
X304544Y209579D01*
X302516Y208409D01*
X300861Y206754D01*
X299691Y204726D01*
X299085Y202465D01*
Y200125D01*
X299691Y197864D01*
X300861Y195836D01*
X302516Y194181D01*
X304544Y193011D01*
X306805Y192405D01*
X309145D01*
X311406Y193011D01*
X313434Y194181D01*
X315089Y195836D01*
X316259Y197864D01*
X316865Y200125D01*
Y202465D01*
X316259Y204726D01*
X315089Y206754D01*
X313434Y208409D01*
X311406Y209579D01*
X309145Y210185D01*
D02*
G37*
G36*
X190400Y209550D02*
X188060D01*
X185799Y208944D01*
X183771Y207774D01*
X182116Y206119D01*
X180946Y204091D01*
X180340Y201830D01*
Y199490D01*
X180946Y197229D01*
X182116Y195201D01*
X183771Y193546D01*
X185799Y192376D01*
X188060Y191770D01*
X190400D01*
X192661Y192376D01*
X194689Y193546D01*
X196344Y195201D01*
X197514Y197229D01*
X198120Y199490D01*
Y201830D01*
X197514Y204091D01*
X196344Y206119D01*
X194689Y207774D01*
X192661Y208944D01*
X190400Y209550D01*
D02*
G37*
G36*
X760970Y216350D02*
X758590D01*
X756291Y215734D01*
X754229Y214544D01*
X752546Y212861D01*
X751356Y210800D01*
X750740Y208500D01*
Y206120D01*
X751356Y203821D01*
X752546Y201759D01*
X754229Y200076D01*
X754407Y199974D01*
X754759Y199526D01*
X754886Y198499D01*
X754782Y198319D01*
X754703Y198204D01*
X754662Y198111D01*
X753716Y196471D01*
X753110Y194210D01*
Y191870D01*
X753716Y189609D01*
X754886Y187581D01*
X756541Y185926D01*
X758569Y184756D01*
X760830Y184150D01*
X763170D01*
X765431Y184756D01*
X767459Y185926D01*
X769114Y187581D01*
X770284Y189609D01*
X770890Y191870D01*
Y194210D01*
X770284Y196471D01*
X769114Y198499D01*
X767459Y200154D01*
X767428Y200172D01*
X767143Y200600D01*
X767015Y201017D01*
X767014Y201760D01*
X767129Y201959D01*
X767177Y202028D01*
X767204Y202090D01*
X768204Y203821D01*
X768820Y206120D01*
Y208500D01*
X768204Y210800D01*
X767014Y212861D01*
X765331Y214544D01*
X763269Y215734D01*
X760970Y216350D01*
D02*
G37*
G36*
X443110Y191650D02*
X423030D01*
Y171570D01*
X443110D01*
Y191650D01*
D02*
G37*
G36*
X408992D02*
X406348D01*
X403795Y190966D01*
X401505Y189644D01*
X399636Y187775D01*
X398314Y185485D01*
X397630Y182932D01*
Y180288D01*
X398314Y177735D01*
X399636Y175445D01*
X401505Y173576D01*
X403795Y172254D01*
X406348Y171570D01*
X408992D01*
X411545Y172254D01*
X413835Y173576D01*
X415704Y175445D01*
X417026Y177735D01*
X417710Y180288D01*
Y182932D01*
X417026Y185485D01*
X415704Y187775D01*
X413835Y189644D01*
X411545Y190966D01*
X408992Y191650D01*
D02*
G37*
G36*
X715062Y176410D02*
X712418D01*
X709865Y175726D01*
X707575Y174404D01*
X705706Y172535D01*
X704384Y170245D01*
X703700Y167692D01*
Y165048D01*
X704384Y162495D01*
X705706Y160205D01*
X707575Y158336D01*
X709865Y157014D01*
X712418Y156330D01*
X715062D01*
X717615Y157014D01*
X719905Y158336D01*
X721774Y160205D01*
X723096Y162495D01*
X723780Y165048D01*
Y167692D01*
X723096Y170245D01*
X721774Y172535D01*
X719905Y174404D01*
X717615Y175726D01*
X715062Y176410D01*
D02*
G37*
G36*
X234850Y171450D02*
X232510D01*
X230249Y170844D01*
X228221Y169674D01*
X226566Y168019D01*
X225396Y165991D01*
X224790Y163730D01*
Y161390D01*
X225396Y159129D01*
X226566Y157101D01*
X228221Y155446D01*
X230249Y154276D01*
X232510Y153670D01*
X234850D01*
X237111Y154276D01*
X239139Y155446D01*
X240794Y157101D01*
X241964Y159129D01*
X242570Y161390D01*
Y163730D01*
X241964Y165991D01*
X240794Y168019D01*
X239139Y169674D01*
X237111Y170844D01*
X234850Y171450D01*
D02*
G37*
G36*
X462229Y153621D02*
X459888D01*
X457627Y153015D01*
X455600Y151845D01*
X453945Y150190D01*
X452775Y148163D01*
X452169Y145902D01*
Y143561D01*
X452775Y141300D01*
X453945Y139273D01*
X455600Y137618D01*
X457627Y136447D01*
X459888Y135841D01*
X462229D01*
X464490Y136447D01*
X466517Y137618D01*
X468172Y139273D01*
X469343Y141300D01*
X469949Y143561D01*
Y145902D01*
X469343Y148163D01*
X468172Y150190D01*
X466517Y151845D01*
X464490Y153015D01*
X462229Y153621D01*
D02*
G37*
G36*
X558700Y128270D02*
X556360D01*
X554099Y127664D01*
X552071Y126494D01*
X550416Y124839D01*
X549246Y122811D01*
X548640Y120550D01*
Y118210D01*
X549246Y115949D01*
X550416Y113921D01*
X552071Y112266D01*
X554099Y111096D01*
X556360Y110490D01*
X558700D01*
X560961Y111096D01*
X562989Y112266D01*
X564644Y113921D01*
X565814Y115949D01*
X566420Y118210D01*
Y120550D01*
X565814Y122811D01*
X564644Y124839D01*
X562989Y126494D01*
X560961Y127664D01*
X558700Y128270D01*
D02*
G37*
G36*
X261520Y127000D02*
X259180D01*
X256919Y126394D01*
X254891Y125224D01*
X253236Y123569D01*
X252066Y121541D01*
X251460Y119280D01*
Y116940D01*
X252066Y114679D01*
X253236Y112651D01*
X254891Y110996D01*
X256919Y109826D01*
X259180Y109220D01*
X261520D01*
X263781Y109826D01*
X265809Y110996D01*
X267464Y112651D01*
X268634Y114679D01*
X268860Y115520D01*
X283172D01*
X283210Y115470D01*
Y113130D01*
X283816Y110869D01*
X284986Y108841D01*
X286641Y107186D01*
X288669Y106016D01*
X290930Y105410D01*
X293270D01*
X295531Y106016D01*
X297559Y107186D01*
X299214Y108841D01*
X300384Y110869D01*
X300990Y113130D01*
Y115470D01*
X300384Y117731D01*
X299214Y119759D01*
X297559Y121414D01*
X295531Y122584D01*
X293270Y123190D01*
X290930D01*
X288669Y122584D01*
X286641Y121414D01*
X285863Y120636D01*
X285541Y120700D01*
X268860D01*
X268634Y121541D01*
X267464Y123569D01*
X265809Y125224D01*
X263781Y126394D01*
X261520Y127000D01*
D02*
G37*
G36*
X709947Y133920D02*
X706118D01*
X702420Y132929D01*
X699105Y131015D01*
X696398Y128308D01*
X694483Y124992D01*
X693493Y121294D01*
Y117466D01*
X694483Y113768D01*
X696398Y110452D01*
X699105Y107745D01*
X702420Y105831D01*
X706118Y104840D01*
X709947D01*
X713645Y105831D01*
X716960Y107745D01*
X719668Y110452D01*
X721582Y113768D01*
X722573Y117466D01*
Y121294D01*
X721582Y124992D01*
X719668Y128308D01*
X716960Y131015D01*
X713645Y132929D01*
X709947Y133920D01*
D02*
G37*
G36*
X659147D02*
X655318D01*
X651620Y132929D01*
X648305Y131015D01*
X645598Y128308D01*
X643683Y124992D01*
X642693Y121294D01*
Y117466D01*
X643683Y113768D01*
X645598Y110452D01*
X648305Y107745D01*
X651620Y105831D01*
X655318Y104840D01*
X659147D01*
X662845Y105831D01*
X666160Y107745D01*
X668867Y110452D01*
X670782Y113768D01*
X671773Y117466D01*
Y121294D01*
X670782Y124992D01*
X668867Y128308D01*
X666160Y131015D01*
X662845Y132929D01*
X659147Y133920D01*
D02*
G37*
G36*
X274220Y111106D02*
X271880D01*
X269619Y110500D01*
X267591Y109330D01*
X265936Y107675D01*
X264766Y105648D01*
X264160Y103387D01*
Y101046D01*
X264766Y98785D01*
X265936Y96758D01*
X267591Y95102D01*
X269619Y93932D01*
X271880Y93326D01*
X274220D01*
X276481Y93932D01*
X278509Y95102D01*
X280164Y96758D01*
X281334Y98785D01*
X281940Y101046D01*
Y103387D01*
X281334Y105648D01*
X280164Y107675D01*
X278509Y109330D01*
X276481Y110500D01*
X274220Y111106D01*
D02*
G37*
G36*
X435711Y103125D02*
X432969D01*
X430320Y102415D01*
X427945Y101044D01*
X426006Y99105D01*
X424635Y96730D01*
X423925Y94081D01*
Y91339D01*
X424635Y88690D01*
X426006Y86315D01*
X427945Y84376D01*
X430320Y83005D01*
X432969Y82295D01*
X435711D01*
X438360Y83005D01*
X440735Y84376D01*
X442674Y86315D01*
X444045Y88690D01*
X444755Y91339D01*
Y94081D01*
X444045Y96730D01*
X442674Y99105D01*
X440735Y101044D01*
X438360Y102415D01*
X435711Y103125D01*
D02*
G37*
G36*
X410711D02*
X407969D01*
X405320Y102415D01*
X402945Y101044D01*
X401006Y99105D01*
X399635Y96730D01*
X398925Y94081D01*
Y91339D01*
X399635Y88690D01*
X401006Y86315D01*
X402945Y84376D01*
X405320Y83005D01*
X407969Y82295D01*
X410711D01*
X413360Y83005D01*
X415735Y84376D01*
X417674Y86315D01*
X419045Y88690D01*
X419755Y91339D01*
Y94081D01*
X419045Y96730D01*
X417674Y99105D01*
X415735Y101044D01*
X413360Y102415D01*
X410711Y103125D01*
D02*
G37*
G36*
X684547Y108520D02*
X680718D01*
X677020Y107529D01*
X673705Y105615D01*
X670998Y102908D01*
X669083Y99592D01*
X668093Y95894D01*
Y92066D01*
X669083Y88368D01*
X670998Y85052D01*
X673705Y82345D01*
X677020Y80431D01*
X680718Y79440D01*
X684547D01*
X688245Y80431D01*
X691560Y82345D01*
X694268Y85052D01*
X696182Y88368D01*
X697173Y92066D01*
Y95894D01*
X696182Y99592D01*
X694268Y102908D01*
X691560Y105615D01*
X688245Y107529D01*
X684547Y108520D01*
D02*
G37*
G36*
X590602Y95130D02*
X587958D01*
X585405Y94446D01*
X583115Y93124D01*
X581246Y91255D01*
X579924Y88965D01*
X579240Y86412D01*
Y83768D01*
X579924Y81215D01*
X581246Y78925D01*
X583115Y77056D01*
X585405Y75734D01*
X587958Y75050D01*
X590602D01*
X593155Y75734D01*
X595445Y77056D01*
X597314Y78925D01*
X598636Y81215D01*
X599320Y83768D01*
Y86412D01*
X598636Y88965D01*
X597314Y91255D01*
X595445Y93124D01*
X593155Y94446D01*
X590602Y95130D01*
D02*
G37*
G36*
X565202D02*
X562558D01*
X560005Y94446D01*
X557715Y93124D01*
X555846Y91255D01*
X554524Y88965D01*
X553840Y86412D01*
Y83768D01*
X554524Y81215D01*
X555846Y78925D01*
X557715Y77056D01*
X560005Y75734D01*
X562558Y75050D01*
X565202D01*
X567755Y75734D01*
X570045Y77056D01*
X571914Y78925D01*
X573236Y81215D01*
X573920Y83768D01*
Y86412D01*
X573236Y88965D01*
X571914Y91255D01*
X570045Y93124D01*
X567755Y94446D01*
X565202Y95130D01*
D02*
G37*
G36*
X548520D02*
X528440D01*
Y75050D01*
X548520D01*
Y95130D01*
D02*
G37*
G36*
X632360Y76200D02*
X630020D01*
X627759Y75594D01*
X625731Y74424D01*
X624076Y72769D01*
X622906Y70741D01*
X622300Y68480D01*
Y66140D01*
X622906Y63879D01*
X624076Y61851D01*
X625731Y60196D01*
X627759Y59026D01*
X630020Y58420D01*
X632360D01*
X634621Y59026D01*
X636649Y60196D01*
X638304Y61851D01*
X639474Y63879D01*
X640080Y66140D01*
Y68480D01*
X639474Y70741D01*
X638304Y72769D01*
X636649Y74424D01*
X634621Y75594D01*
X632360Y76200D01*
D02*
G37*
G36*
X900970Y76350D02*
X898590D01*
X896291Y75734D01*
X894229Y74544D01*
X892546Y72861D01*
X891356Y70799D01*
X890740Y68500D01*
Y66120D01*
X891356Y63821D01*
X892546Y61759D01*
X894229Y60076D01*
X896291Y58886D01*
X898590Y58270D01*
X900970D01*
X903269Y58886D01*
X905330Y60076D01*
X907014Y61759D01*
X908204Y63821D01*
X908820Y66120D01*
Y68500D01*
X908204Y70799D01*
X907014Y72861D01*
X905330Y74544D01*
X903269Y75734D01*
X900970Y76350D01*
D02*
G37*
G36*
X880970D02*
X878590D01*
X876291Y75734D01*
X874229Y74544D01*
X872546Y72861D01*
X871356Y70799D01*
X870740Y68500D01*
Y66120D01*
X871356Y63821D01*
X872546Y61759D01*
X874229Y60076D01*
X876291Y58886D01*
X878590Y58270D01*
X880970D01*
X883269Y58886D01*
X885331Y60076D01*
X887014Y61759D01*
X888204Y63821D01*
X888820Y66120D01*
Y68500D01*
X888204Y70799D01*
X887014Y72861D01*
X885331Y74544D01*
X883269Y75734D01*
X880970Y76350D01*
D02*
G37*
G36*
X715062Y201810D02*
X712418D01*
X709865Y201126D01*
X707575Y199804D01*
X705706Y197935D01*
X704384Y195645D01*
X703700Y193092D01*
Y190448D01*
X704384Y187895D01*
X705706Y185605D01*
X707575Y183736D01*
X709865Y182414D01*
X712418Y181730D01*
X715062D01*
X717615Y182414D01*
X719269Y183369D01*
X831532Y71105D01*
X831356Y70799D01*
X830740Y68500D01*
Y66120D01*
X831356Y63821D01*
X832546Y61759D01*
X834229Y60076D01*
X836291Y58886D01*
X838590Y58270D01*
X840970D01*
X843269Y58886D01*
X845331Y60076D01*
X847014Y61759D01*
X848204Y63821D01*
X848820Y66120D01*
Y68500D01*
X848204Y70799D01*
X847014Y72861D01*
X845331Y74544D01*
X843269Y75734D01*
X840970Y76350D01*
X838590D01*
X836291Y75734D01*
X834983Y74979D01*
X722719Y187243D01*
X723096Y187895D01*
X723780Y190448D01*
Y193092D01*
X723096Y195645D01*
X721774Y197935D01*
X719905Y199804D01*
X717615Y201126D01*
X715062Y201810D01*
D02*
G37*
G36*
X820970Y76350D02*
X818590D01*
X816291Y75734D01*
X814229Y74544D01*
X812546Y72861D01*
X811356Y70799D01*
X810740Y68500D01*
Y66120D01*
X811356Y63821D01*
X812546Y61759D01*
X814229Y60076D01*
X816291Y58886D01*
X818590Y58270D01*
X820970D01*
X823269Y58886D01*
X825331Y60076D01*
X827014Y61759D01*
X828204Y63821D01*
X828820Y66120D01*
Y68500D01*
X828204Y70799D01*
X827014Y72861D01*
X825331Y74544D01*
X823269Y75734D01*
X820970Y76350D01*
D02*
G37*
G36*
X800970D02*
X798590D01*
X796291Y75734D01*
X794229Y74544D01*
X792546Y72861D01*
X791356Y70799D01*
X790740Y68500D01*
Y66120D01*
X791356Y63821D01*
X792546Y61759D01*
X794229Y60076D01*
X796291Y58886D01*
X798590Y58270D01*
X800970D01*
X803269Y58886D01*
X805331Y60076D01*
X807014Y61759D01*
X808204Y63821D01*
X808820Y66120D01*
Y68500D01*
X808204Y70799D01*
X807014Y72861D01*
X805331Y74544D01*
X803269Y75734D01*
X800970Y76350D01*
D02*
G37*
G36*
X780970D02*
X778590D01*
X776291Y75734D01*
X774229Y74544D01*
X772546Y72861D01*
X771356Y70799D01*
X770740Y68500D01*
Y66120D01*
X771356Y63821D01*
X772546Y61759D01*
X774229Y60076D01*
X776291Y58886D01*
X778590Y58270D01*
X780970D01*
X783269Y58886D01*
X785331Y60076D01*
X787014Y61759D01*
X788204Y63821D01*
X788820Y66120D01*
Y68500D01*
X788204Y70799D01*
X787014Y72861D01*
X785331Y74544D01*
X783269Y75734D01*
X780970Y76350D01*
D02*
G37*
G36*
X760970D02*
X758590D01*
X756291Y75734D01*
X754229Y74544D01*
X752546Y72861D01*
X751356Y70799D01*
X750740Y68500D01*
Y66120D01*
X751356Y63821D01*
X752546Y61759D01*
X754229Y60076D01*
X756291Y58886D01*
X758590Y58270D01*
X760970D01*
X763269Y58886D01*
X765331Y60076D01*
X767014Y61759D01*
X768204Y63821D01*
X768820Y66120D01*
Y68500D01*
X768204Y70799D01*
X767014Y72861D01*
X765331Y74544D01*
X763269Y75734D01*
X760970Y76350D01*
D02*
G37*
G36*
X709947Y83120D02*
X706118D01*
X702420Y82129D01*
X699105Y80215D01*
X696398Y77508D01*
X694483Y74192D01*
X693493Y70494D01*
Y66666D01*
X694483Y62968D01*
X696398Y59652D01*
X699105Y56945D01*
X702420Y55031D01*
X706118Y54040D01*
X709947D01*
X713645Y55031D01*
X716960Y56945D01*
X719668Y59652D01*
X721582Y62968D01*
X722573Y66666D01*
Y70494D01*
X721582Y74192D01*
X719668Y77508D01*
X716960Y80215D01*
X713645Y82129D01*
X709947Y83120D01*
D02*
G37*
G36*
X659147D02*
X655318D01*
X651620Y82129D01*
X648305Y80215D01*
X645598Y77508D01*
X643683Y74192D01*
X642693Y70494D01*
Y66666D01*
X643683Y62968D01*
X645598Y59652D01*
X648305Y56945D01*
X651620Y55031D01*
X655318Y54040D01*
X659147D01*
X662845Y55031D01*
X666160Y56945D01*
X668867Y59652D01*
X670782Y62968D01*
X671773Y66666D01*
Y70494D01*
X670782Y74192D01*
X668867Y77508D01*
X666160Y80215D01*
X662845Y82129D01*
X659147Y83120D01*
D02*
G37*
%LPD*%
G36*
X598012Y420147D02*
X597160Y420625D01*
X594257Y422035D01*
X593657Y422262D01*
X592608Y422564D01*
X592160Y422639D01*
X591761Y422664D01*
X591029Y425204D01*
X591553Y425239D01*
X592063Y425344D01*
X592557Y425519D01*
X593037Y425764D01*
X593502Y426079D01*
X593952Y426464D01*
X594387Y426919D01*
X594807Y427444D01*
X595213Y428040D01*
X595604Y428705D01*
X598012Y420147D01*
D02*
G37*
G36*
X396499Y312370D02*
X395576Y310771D01*
X394970Y308510D01*
Y306170D01*
X395576Y303909D01*
X396746Y301881D01*
X396922Y301705D01*
X368317Y273100D01*
X312505D01*
X312279Y273941D01*
X311296Y275644D01*
X311575Y276696D01*
X311810Y277064D01*
X313311Y277466D01*
X315339Y278636D01*
X316994Y280291D01*
X318164Y282319D01*
X318770Y284580D01*
Y286920D01*
X318164Y289181D01*
X316994Y291209D01*
X315339Y292864D01*
X315213Y293818D01*
X324333Y302938D01*
X325349Y302158D01*
X324456Y300611D01*
X323850Y298350D01*
Y296010D01*
X324456Y293749D01*
X325626Y291721D01*
X327281Y290066D01*
X329309Y288896D01*
X331570Y288290D01*
X333910D01*
X336171Y288896D01*
X338199Y290066D01*
X339854Y291721D01*
X341024Y293749D01*
X341630Y296010D01*
Y298350D01*
X341024Y300611D01*
X339854Y302639D01*
X338199Y304294D01*
X336171Y305464D01*
X333910Y306070D01*
X331570D01*
X329309Y305464D01*
X327762Y304571D01*
X326982Y305588D01*
X335035Y313640D01*
X395916D01*
X396499Y312370D01*
D02*
G37*
%LPC*%
G36*
X365660Y306070D02*
X363320D01*
X361059Y305464D01*
X359031Y304294D01*
X357376Y302639D01*
X356206Y300611D01*
X355600Y298350D01*
Y296010D01*
X356206Y293749D01*
X357376Y291721D01*
X359031Y290066D01*
X361059Y288896D01*
X363320Y288290D01*
X365660D01*
X367921Y288896D01*
X369949Y290066D01*
X371604Y291721D01*
X372774Y293749D01*
X373380Y296010D01*
Y298350D01*
X372774Y300611D01*
X371604Y302639D01*
X369949Y304294D01*
X367921Y305464D01*
X365660Y306070D01*
D02*
G37*
%LPD*%
G36*
X900790Y203013D02*
X900815Y202623D01*
X904140Y202490D01*
X903504Y201889D01*
X902431Y200722D01*
X901996Y200155D01*
X901859Y199948D01*
X901905Y199870D01*
X902307Y199279D01*
X902772Y198668D01*
X903887Y197389D01*
X900828Y197514D01*
X900823Y197489D01*
X900790Y196989D01*
X898250Y197093D01*
X898218Y197575D01*
X898209Y197622D01*
X895004Y197753D01*
X895621Y198334D01*
X896659Y199467D01*
X897081Y200018D01*
X897178Y200165D01*
X897097Y200300D01*
X896681Y200907D01*
X895656Y202184D01*
X895048Y202854D01*
X898224Y202727D01*
X898250Y203119D01*
X900790Y203013D01*
D02*
G37*
G36*
X764506Y202728D02*
X763203Y200598D01*
X763154Y200502D01*
X763393Y200192D01*
X763838Y199708D01*
X764351Y199228D01*
X764933Y198752D01*
X765584Y198282D01*
X762181Y197678D01*
X762160Y197362D01*
X759620Y196912D01*
X759599Y197220D01*
X756831Y196728D01*
X757361Y197492D01*
X758616Y199566D01*
X758637Y199610D01*
X758349Y199983D01*
X757890Y200483D01*
X757361Y200978D01*
X756760Y201471D01*
X756089Y201959D01*
X759609Y202570D01*
X759620Y202737D01*
X762160Y203198D01*
X762172Y203014D01*
X765056Y203514D01*
X764506Y202728D01*
D02*
G37*
D14*
X774700Y678180D02*
X843280D01*
X871280Y650180D01*
X847090Y212785D02*
Y289688D01*
X604591Y522701D02*
X614077D01*
X847090Y289688D01*
X299720Y688340D02*
X300862Y689482D01*
X265831Y688340D02*
X299720D01*
X739140Y645160D02*
Y751840D01*
X679450Y585470D02*
X739140Y645160D01*
X894080Y241595D02*
Y530860D01*
X895350Y532130D01*
X886520Y650180D02*
X913130Y623570D01*
X871280Y650180D02*
X886520D01*
X857406Y556416D02*
X859790Y558800D01*
X852228Y556416D02*
X857406D01*
X852072Y556260D02*
X852228Y556416D01*
X598981Y556260D02*
X852072D01*
X713740Y645160D02*
Y751840D01*
X654050Y585470D02*
X713740Y645160D01*
X672788Y736288D02*
X688340Y751840D01*
X672788Y629608D02*
Y736288D01*
X628650Y585470D02*
X672788Y629608D01*
X457241Y570230D02*
X539832D01*
X592379Y517684D01*
Y517390D02*
Y517684D01*
X536695Y537210D02*
X553235Y520670D01*
X363220Y581660D02*
X369570Y575310D01*
X452161D01*
X457241Y570230D01*
X458261Y600710D02*
X462071Y596900D01*
X323850Y600710D02*
X458261D01*
X462071Y596900D02*
X464820D01*
X377190Y704914D02*
Y744220D01*
X375920Y703644D02*
X377190Y704914D01*
X374714Y693484D02*
X375920Y694690D01*
Y703644D01*
X351790Y769620D02*
X377190Y744220D01*
X303995Y270510D02*
X369389D01*
X403860Y304981D01*
X234451Y684878D02*
X234784Y684546D01*
X234451Y684878D02*
Y686490D01*
X234784Y684546D02*
X262036D01*
X265831Y688340D01*
X298322Y532130D02*
X402462Y427990D01*
X295910Y532130D02*
X298322D01*
X402462Y427990D02*
X488822D01*
X237490Y523240D02*
X254000Y506730D01*
X335280Y514350D02*
X400050Y449580D01*
X523240D01*
X577870Y471150D02*
X578506D01*
X289040Y271242D02*
Y273442D01*
X282956Y265158D02*
X289040Y271242D01*
X407542Y316230D02*
X415162Y308610D01*
X241300Y431800D02*
X353060Y320040D01*
X333962Y316230D02*
X407542D01*
X353060Y320040D02*
X425221D01*
X415162Y308610D02*
X462280D01*
X425221Y320040D02*
X430301Y314960D01*
X403860Y304981D02*
Y307340D01*
X430301Y314960D02*
X610870D01*
X311325Y293593D02*
X333962Y316230D01*
X610870Y314960D02*
X654050Y271780D01*
X462280Y308610D02*
X483870Y287020D01*
X282956Y251714D02*
X305404Y229266D01*
Y223172D02*
X327851Y200724D01*
X379475Y199390D02*
X607346D01*
X305404Y223172D02*
Y229266D01*
X354330Y223520D02*
X362268Y215582D01*
X363283D02*
X379475Y199390D01*
X362268Y215582D02*
X363283D01*
X357168Y206692D02*
X359600D01*
X351200Y200724D02*
X357168Y206692D01*
X327851Y200724D02*
X351200D01*
X309880Y285750D02*
X311325Y287195D01*
Y293593D01*
X282956Y251714D02*
Y265158D01*
X607346Y199390D02*
X635664Y227709D01*
X888921Y236436D02*
X894080Y241595D01*
X847090Y212785D02*
X850740Y209135D01*
X850900Y165100D02*
X859780Y156220D01*
X850900Y165100D02*
Y203406D01*
X850740Y203566D02*
Y209135D01*
Y203566D02*
X850900Y203406D01*
X550143Y422677D02*
X571861D01*
X523240Y449580D02*
X550143Y422677D01*
X576215Y579026D02*
X598981Y556260D01*
X819780Y207310D02*
Y210141D01*
X816861Y213060D02*
Y213892D01*
Y213060D02*
X819780Y210141D01*
X654833Y375920D02*
X816861Y213892D01*
X643890Y375920D02*
X654833D01*
X488822Y427990D02*
X505332Y411480D01*
X784860Y307340D02*
Y324909D01*
X592379Y517390D02*
X784860Y324909D01*
X603661Y521771D02*
X604591Y522701D01*
X325120Y581660D02*
X363220D01*
X727075Y809625D02*
X727710Y808990D01*
X582930Y403860D02*
X590550Y411480D01*
X388620Y406400D02*
X477648D01*
X480188Y403860D01*
X582930D01*
X505332Y411480D02*
X575310D01*
X402718Y537210D02*
X536695D01*
X384701Y547250D02*
X392678D01*
X402718Y537210D01*
X165666Y769620D02*
X351790D01*
X812800Y227075D02*
X828820Y211055D01*
X733940Y331590D02*
X812800Y252730D01*
Y227075D02*
Y252730D01*
X733940Y331590D02*
Y365880D01*
X254000Y506730D02*
X287148D01*
X367030Y427990D02*
X388620Y406400D01*
X365888Y427990D02*
X367030D01*
X287148Y506730D02*
X365888Y427990D01*
X509944Y344766D02*
X513972D01*
X508000Y346710D02*
X509944Y344766D01*
X353060Y568960D02*
X366001D01*
X373500Y561461D01*
Y558451D02*
Y561461D01*
Y558451D02*
X384701Y547250D01*
X908050Y118110D02*
X911860D01*
X373380Y375920D02*
X412750D01*
X434340Y397510D01*
X908050Y116840D02*
X909320Y115570D01*
X908050Y116840D02*
Y118110D01*
X828820Y164320D02*
X849630Y143510D01*
Y130810D02*
Y143510D01*
X859780Y67310D02*
Y156220D01*
X575310Y411480D02*
X587764Y423934D01*
X599453D01*
X282956Y169926D02*
Y251714D01*
X273050Y162560D02*
X275590D01*
X282956Y169926D01*
X643890Y344170D02*
X661670Y326390D01*
X514568Y344170D02*
X643890D01*
X513972Y344766D02*
X514568Y344170D01*
X483870Y273783D02*
Y287020D01*
X260350Y118110D02*
X285541D01*
X289351Y114300D01*
X760890Y194150D02*
Y206200D01*
X759780Y207310D02*
X760890Y206200D01*
Y194150D02*
X762000Y193040D01*
X899520Y207050D02*
X899780Y207310D01*
X899520Y193300D02*
Y207050D01*
X899260Y193040D02*
X899520Y193300D01*
X289351Y114300D02*
X292100D01*
X590550Y495300D02*
X604520D01*
X733940Y365880D01*
X599453Y423934D02*
X601173Y425654D01*
X828820Y164320D02*
Y211055D01*
X582930Y610870D02*
X660400Y688340D01*
X558800Y610870D02*
X582930D01*
X261630Y313690D02*
X262900Y314960D01*
X236676Y313690D02*
X261630D01*
X236239Y314126D02*
X236676Y313690D01*
X262900Y314960D02*
X288290D01*
X551180Y603250D02*
X558800Y610870D01*
X888921Y145099D02*
Y236436D01*
Y145099D02*
X895350Y138670D01*
Y137160D02*
Y138670D01*
X857250Y229840D02*
Y257810D01*
Y229840D02*
X879780Y207310D01*
X838990Y67310D02*
X839780D01*
X714530Y191770D02*
X838990Y67310D01*
X713740Y191770D02*
X714530D01*
D19*
X25400Y27940D02*
D03*
X1068070Y26670D02*
D03*
X1069340Y844550D02*
D03*
X26670Y845820D02*
D03*
X406306Y464820D02*
D03*
D54*
X911860Y118110D02*
X927100Y133350D01*
Y340360D02*
X942340Y355600D01*
X927100Y133350D02*
Y340360D01*
X942340Y355600D02*
Y495664D01*
X933450Y504554D02*
X942340Y495664D01*
X933450Y504554D02*
Y530860D01*
D57*
X500380Y843280D02*
D03*
Y817880D02*
D03*
Y792480D02*
D03*
X798210Y719358D02*
D03*
X764540Y751840D02*
D03*
X739140D02*
D03*
X713740D02*
D03*
X688340D02*
D03*
X654050Y271780D02*
D03*
X628650D02*
D03*
X433070Y273783D02*
D03*
X458470D02*
D03*
X280670Y805180D02*
D03*
X458470D02*
D03*
X433070D02*
D03*
X407670D02*
D03*
X382270D02*
D03*
X356870D02*
D03*
X331470D02*
D03*
X306070D02*
D03*
X255270D02*
D03*
X831850Y257810D02*
D03*
X857250D02*
D03*
X882650D02*
D03*
X636270Y326390D02*
D03*
X585470D02*
D03*
X560070D02*
D03*
X534670D02*
D03*
X509270D02*
D03*
X483870D02*
D03*
X458470D02*
D03*
X433070D02*
D03*
X610870D02*
D03*
X407670Y181610D02*
D03*
X533400Y273050D02*
D03*
X558800D02*
D03*
X165666Y795020D02*
D03*
Y769620D02*
D03*
Y744220D02*
D03*
X877570Y670560D02*
D03*
X910590Y472440D02*
D03*
X859790Y558800D02*
D03*
Y533400D02*
D03*
X713740Y191770D02*
D03*
Y166370D02*
D03*
X887730Y623570D02*
D03*
X862330D02*
D03*
X933450Y556260D02*
D03*
Y530860D02*
D03*
X563880Y85090D02*
D03*
X589280D02*
D03*
X895350Y557530D02*
D03*
Y532130D02*
D03*
X278130Y843280D02*
D03*
X430530D02*
D03*
X405130D02*
D03*
X379730D02*
D03*
X354330D02*
D03*
X328930D02*
D03*
X303530D02*
D03*
X252730D02*
D03*
X455930D02*
D03*
D58*
X500380Y767080D02*
D03*
X798210Y693958D02*
D03*
X165666Y718820D02*
D03*
X877570Y695960D02*
D03*
X910590Y447040D02*
D03*
X859790Y584200D02*
D03*
X713740Y217170D02*
D03*
X933450Y581660D02*
D03*
X895350Y582930D02*
D03*
D59*
X862710Y813583D02*
D03*
X727710D02*
D03*
D60*
X789940Y751840D02*
D03*
X679450Y271780D02*
D03*
X483870Y273783D02*
D03*
X229870Y805180D02*
D03*
X908050Y257810D02*
D03*
X661670Y326390D02*
D03*
X433070Y181610D02*
D03*
X584200Y273050D02*
D03*
X913130Y623570D02*
D03*
X538480Y85090D02*
D03*
X227330Y843280D02*
D03*
D61*
X899780Y67310D02*
D03*
X879780D02*
D03*
X859780D02*
D03*
X839780D02*
D03*
X819780D02*
D03*
X799780D02*
D03*
X779780D02*
D03*
X759780D02*
D03*
Y207310D02*
D03*
X779780D02*
D03*
X799780D02*
D03*
X819780D02*
D03*
X839780D02*
D03*
X859780D02*
D03*
X879780D02*
D03*
X899780D02*
D03*
D63*
X434340Y92710D02*
D03*
X409340D02*
D03*
D64*
X708033Y68580D02*
D03*
X657233D02*
D03*
Y119380D02*
D03*
X708033D02*
D03*
X682633Y93980D02*
D03*
D66*
X189230Y200660D02*
D03*
X212667Y188639D02*
D03*
X602367Y443976D02*
D03*
X641350Y707390D02*
D03*
X774700Y678180D02*
D03*
X763270Y449480D02*
D03*
X680720Y468630D02*
D03*
X668020Y502920D02*
D03*
X708917Y501724D02*
D03*
X932180Y480060D02*
D03*
X727710Y492760D02*
D03*
X300862Y689482D02*
D03*
X721360Y610870D02*
D03*
X748030Y692150D02*
D03*
X730250Y585470D02*
D03*
X703580D02*
D03*
X679450D02*
D03*
X654050D02*
D03*
X628650D02*
D03*
X317500Y681990D02*
D03*
X576580Y518160D02*
D03*
X553235Y520670D02*
D03*
X406400Y546100D02*
D03*
X440690Y520670D02*
D03*
X388620Y565150D02*
D03*
X480060Y579120D02*
D03*
X338110Y612430D02*
D03*
X464820Y596900D02*
D03*
X374714Y693484D02*
D03*
X636270Y802640D02*
D03*
X558800Y768350D02*
D03*
X274320Y438150D02*
D03*
X201930Y534670D02*
D03*
X230091Y684546D02*
D03*
X207010Y641350D02*
D03*
X295910Y532130D02*
D03*
X261620D02*
D03*
X237490Y523240D02*
D03*
X288290Y466090D02*
D03*
X302299Y477396D02*
D03*
X394970Y490220D02*
D03*
X382841Y479361D02*
D03*
X436694Y484116D02*
D03*
X289040Y273442D02*
D03*
X403860Y307340D02*
D03*
X364490Y297180D02*
D03*
X405637Y345947D02*
D03*
X394970Y331470D02*
D03*
X332740Y297180D02*
D03*
X347980Y298450D02*
D03*
X331534Y209614D02*
D03*
X359600Y206692D02*
D03*
X313690Y439420D02*
D03*
X309880Y285750D02*
D03*
X307340Y242570D02*
D03*
X303995Y270510D02*
D03*
X429260Y208280D02*
D03*
X375920Y251460D02*
D03*
X393700Y270510D02*
D03*
X439420Y499110D02*
D03*
X488931Y516987D02*
D03*
X848945Y304087D02*
D03*
X825500Y245110D02*
D03*
X601980Y574040D02*
D03*
X437156Y439420D02*
D03*
X478333Y438661D02*
D03*
X578506Y471150D02*
D03*
X567311Y457200D02*
D03*
X603661Y521771D02*
D03*
X350840Y625160D02*
D03*
X492760Y465990D02*
D03*
X480060Y488950D02*
D03*
X617220Y608330D02*
D03*
X600710Y656381D02*
D03*
X483870Y412750D02*
D03*
X643890Y375920D02*
D03*
X504790Y369058D02*
D03*
X439420Y461010D02*
D03*
X208280Y756920D02*
D03*
X593090Y224790D02*
D03*
X756256Y334389D02*
D03*
X635664Y227709D02*
D03*
X784860Y307340D02*
D03*
X751840Y610870D02*
D03*
X655320Y400240D02*
D03*
X259180Y383540D02*
D03*
X248920Y401320D02*
D03*
X387350Y430530D02*
D03*
X568960Y358140D02*
D03*
X508000Y346710D02*
D03*
X353060Y568960D02*
D03*
X355600Y645160D02*
D03*
X285750Y748030D02*
D03*
X318770Y739140D02*
D03*
X342900Y719358D02*
D03*
X516890Y223520D02*
D03*
X834390Y443230D02*
D03*
X323850Y600710D02*
D03*
X321310Y546100D02*
D03*
X373380Y375920D02*
D03*
X340360Y358140D02*
D03*
X336550Y375700D02*
D03*
X365054Y396996D02*
D03*
X336550Y680720D02*
D03*
X635600Y401155D02*
D03*
X233680Y162560D02*
D03*
X849630Y130810D02*
D03*
X687070Y525780D02*
D03*
X273050Y162560D02*
D03*
X249460Y302402D02*
D03*
X336550Y474980D02*
D03*
X590550Y411480D02*
D03*
X354330Y223520D02*
D03*
X981050Y494684D02*
D03*
X370840Y411480D02*
D03*
X660400Y762000D02*
D03*
X193040Y292100D02*
D03*
X243840Y252730D02*
D03*
X762000Y193040D02*
D03*
X899260D02*
D03*
X601868Y479948D02*
D03*
X292100Y114300D02*
D03*
X222250Y374650D02*
D03*
X590550Y495300D02*
D03*
X585132Y435948D02*
D03*
X571861Y422677D02*
D03*
X434340Y397510D02*
D03*
X431800Y378460D02*
D03*
X606490Y540481D02*
D03*
X194310Y330200D02*
D03*
X663898Y673507D02*
D03*
X660400Y688340D02*
D03*
X632854Y760050D02*
D03*
X623570Y746760D02*
D03*
X598950Y756011D02*
D03*
X573765Y752115D02*
D03*
X601173Y425654D02*
D03*
X260350Y363220D02*
D03*
X237808Y363537D02*
D03*
X236239Y314126D02*
D03*
X698500Y617220D02*
D03*
X631190Y67310D02*
D03*
X248920Y322580D02*
D03*
X254000Y638642D02*
D03*
X573762Y594216D02*
D03*
X576215Y579026D02*
D03*
X551180Y603250D02*
D03*
X909320Y115570D02*
D03*
X895350Y137160D02*
D03*
X557530Y119380D02*
D03*
X335280Y514350D02*
D03*
X325120Y581660D02*
D03*
X273050Y102216D02*
D03*
X307975Y201295D02*
D03*
X773271Y696556D02*
D03*
X241300Y431800D02*
D03*
X295910Y415290D02*
D03*
X461059Y144731D02*
D03*
X223520Y215900D02*
D03*
X756412Y650748D02*
D03*
X784352Y644817D02*
D03*
X288290Y314960D02*
D03*
X547370Y732790D02*
D03*
X662738Y705695D02*
D03*
X260350Y118110D02*
D03*
M02*
